<svg width="363" height="297" viewBox="0 0 363 297" fill="none" xmlns="http://www.w3.org/2000/svg">
<path d="M33.5 144.471V182.096C33.5 183.521 34.221 184.888 35.5045 185.896C36.7879 186.904 38.5287 187.471 40.3437 187.471H245.656C247.471 187.471 249.212 186.904 250.496 185.896C251.779 184.888 252.5 183.521 252.5 182.096V144.471" fill="#A971D7"/>
<path d="M33.5 144.471V182.096C33.5 183.521 34.221 184.888 35.5045 185.896C36.7879 186.904 38.5287 187.471 40.3437 187.471H245.656C247.471 187.471 249.212 186.904 250.496 185.896C251.779 184.888 252.5 183.521 252.5 182.096V144.471" stroke="white" stroke-linecap="round" stroke-linejoin="round" stroke-dasharray="2 7"/>
<path d="M143.08 219.641V144.181V219.641Z" fill="#A971D7"/>
<path d="M143.08 219.641V144.181" stroke="white" stroke-linecap="round" stroke-linejoin="round" stroke-dasharray="2 7"/>
<path d="M0.5 111.84C0.5 103.263 3.90724 95.0368 9.97217 88.9719C16.0371 82.9069 24.2629 79.4997 32.84 79.4997C41.4171 79.4997 49.6429 82.9069 55.7078 88.9719C61.7728 95.0368 65.18 103.263 65.18 111.84C65.18 120.417 61.7728 128.643 55.7078 134.708C49.6429 140.772 41.4171 144.18 32.84 144.18C24.2629 144.18 16.0371 140.772 9.97217 134.708C3.90724 128.643 0.5 120.417 0.5 111.84Z" fill="#A971D7" stroke="white" stroke-linecap="round" stroke-linejoin="round"/>
<path d="M117.5 144.5H168.5V93.5H117.5V144.5Z" fill="#A971D7" stroke="white" stroke-linecap="round" stroke-linejoin="round"/>
<path d="M302.755 2.45329C302.176 1.84702 301.447 1.35853 300.621 1.0231C299.795 0.68767 298.892 0.513672 297.978 0.513672C297.064 0.513672 296.161 0.68767 295.335 1.0231C294.509 1.35853 293.78 1.84702 293.201 2.45329L236.469 59.1435C235.179 60.5355 234.435 62.241 234.343 64.0168C234.25 65.7925 234.814 67.548 235.955 69.0328L293.716 137.439C294.158 138.079 294.787 138.609 295.541 138.977C296.294 139.345 297.147 139.539 298.015 139.539C298.882 139.539 299.735 139.345 300.489 138.977C301.242 138.609 301.871 138.079 302.314 137.439L360.001 68.9698C361.141 67.485 361.705 65.7295 361.613 63.9538C361.521 62.178 360.776 60.4725 359.487 59.0805L302.755 2.45329Z" fill="#A971D7" stroke="white" stroke-linecap="round" stroke-linejoin="round"/>
<path d="M268.729 73.3155L297.83 0.5L327.225 73.3155H268.729Z" fill="#A971D7" stroke="white" stroke-linecap="round" stroke-linejoin="round"/>
<path d="M327.226 73.3146L361.618 64.4961L327.226 73.3146Z" fill="#A971D7"/>
<path d="M327.226 73.3146L361.618 64.4961" stroke="white" stroke-linecap="round" stroke-linejoin="round"/>
<path d="M327.225 73.3164L297.83 139.581L268.729 73.3164H327.225Z" fill="#A971D7" stroke="white" stroke-linecap="round" stroke-linejoin="round"/>
<path d="M268.73 73.3146L234.338 64.4961L268.73 73.3146Z" fill="#A971D7"/>
<path d="M268.73 73.3146L234.338 64.4961" stroke="white" stroke-linecap="round" stroke-linejoin="round"/>
<path d="M142.5 296.471L176.275 276.971V237.971L142.5 218.471L108.725 237.971V276.971L142.5 296.471Z" fill="#A971D7" stroke="white" stroke-linecap="round" stroke-linejoin="round"/>
</svg>
