<svg width="32" height="32" viewBox="0 0 32 32" fill="none" xmlns="http://www.w3.org/2000/svg">
<path d="M16 5.85156V28.4452" stroke="white" stroke-width="1.4" stroke-linecap="round" stroke-linejoin="round"/>
<path d="M20.4595 4.73552C19.1762 4.95199 17.9156 5.28648 16.6938 5.73474C16.2456 5.89515 15.7557 5.89515 15.3075 5.73474C11.3841 4.19708 7.04147 4.10649 3.0574 5.47919C2.64129 5.61121 2.27809 5.87242 2.02051 6.22489C1.76294 6.57736 1.6244 7.00275 1.62502 7.4393V25.7588C1.62378 26.0726 1.69446 26.3824 1.83164 26.6646C1.96881 26.9468 2.16883 27.1938 2.41633 27.3866C2.66383 27.5795 2.95224 27.713 3.2594 27.7771C3.56656 27.8411 3.8843 27.8339 4.18824 27.756C7.85699 26.7287 11.7611 26.9297 15.3049 28.3284C15.7529 28.4899 16.2433 28.4899 16.6913 28.3284C20.2351 26.9295 24.1392 26.7284 27.808 27.756C28.1115 27.8335 28.4287 27.8406 28.7353 27.7768C29.042 27.7129 29.33 27.5798 29.5773 27.3876C29.8247 27.1953 30.0248 26.9491 30.1624 26.6677C30.3 26.3863 30.3714 26.0772 30.3712 25.7639V7.4393C30.371 7.0041 30.2325 6.58022 29.9757 6.22883C29.7189 5.87745 29.3572 5.61673 28.9426 5.4843C27.9543 5.16668 26.9444 4.92071 25.9207 4.7483" stroke="white" stroke-width="1.4" stroke-linecap="round" stroke-linejoin="round"/>
<path d="M26.0625 15.0566L23.1875 12.1816L20.3125 15.0566V5.47331C20.3125 4.96498 20.5144 4.47746 20.8739 4.11802C21.2333 3.75857 21.7208 3.55664 22.2292 3.55664H24.1458C24.6542 3.55664 25.1417 3.75857 25.5011 4.11802C25.8606 4.47746 26.0625 4.96498 26.0625 5.47331V15.0566Z" stroke="white" stroke-width="1.4" stroke-linecap="round" stroke-linejoin="round"/>
</svg>
