<svg width="370" height="276" viewBox="0 0 370 276" fill="none" xmlns="http://www.w3.org/2000/svg">
<path d="M301.5 161C339.054 161 369.5 130.554 369.5 93C369.5 55.4463 339.054 25 301.5 25C263.946 25 233.5 55.4463 233.5 93C233.5 130.554 263.946 161 301.5 161Z" fill="#A971D7"/>
<path d="M330.349 111.868C330.844 111.551 331.423 111.388 332.012 111.399C332.6 111.41 333.172 111.596 333.655 111.933C334.139 112.269 334.511 112.741 334.726 113.289C334.941 113.838 334.988 114.437 334.862 115.012C333.124 122.977 328.714 130.108 322.365 135.221C316.015 140.334 308.108 143.122 299.956 143.122C291.804 143.122 283.896 140.334 277.547 135.221C271.198 130.108 266.788 122.977 265.049 115.012C264.923 114.437 264.971 113.838 265.186 113.289C265.401 112.741 265.773 112.269 266.256 111.933C266.739 111.596 267.311 111.41 267.9 111.399C268.488 111.388 269.067 111.551 269.563 111.868C278.777 117.214 289.339 119.786 299.98 119.276C310.604 119.777 321.148 117.205 330.349 111.868Z" stroke="white" stroke-linecap="round" stroke-linejoin="round"/>
<path d="M279.138 59.727C272.82 59.727 266.762 62.2365 262.295 66.7034C257.828 71.1703 255.319 77.2287 255.319 83.5458C255.319 77.2287 252.809 71.1703 248.342 66.7034C243.876 62.2365 237.817 59.727 231.5 59.727C237.817 59.727 243.876 57.2175 248.342 52.7506C252.809 48.2838 255.319 42.2253 255.319 35.9082C255.319 42.2253 257.828 48.2838 262.295 52.7506C266.762 57.2175 272.82 59.727 279.138 59.727Z" stroke="white" stroke-linecap="round" stroke-linejoin="round"/>
<path d="M368.458 59.727C365.33 59.727 362.233 59.1109 359.343 57.9139C356.453 56.7169 353.827 54.9624 351.615 52.7506C349.404 50.5389 347.649 47.9131 346.452 45.0233C345.255 42.1334 344.639 39.0361 344.639 35.9082C344.639 42.2253 342.13 48.2838 337.663 52.7506C333.196 57.2175 327.137 59.727 320.82 59.727C327.137 59.727 333.196 62.2365 337.663 66.7034C342.13 71.1703 344.639 77.2287 344.639 83.5458C344.639 77.2287 347.149 71.1703 351.615 66.7034C356.082 62.2365 362.141 59.727 368.458 59.727Z" stroke="white" stroke-linecap="round" stroke-linejoin="round"/>
<path d="M233.126 77.5918C231.042 86.9834 230.96 96.7086 232.886 106.134C234.812 115.559 238.702 124.473 244.303 132.294C249.904 140.115 257.09 146.669 265.393 151.527C273.696 156.386 282.929 159.441 292.491 160.493C302.054 161.545 311.73 160.57 320.891 157.632C330.051 154.695 338.49 149.86 345.657 143.443C352.824 137.026 358.559 129.171 362.487 120.39C366.416 111.609 368.451 102.098 368.458 92.4786C368.459 87.472 367.914 82.4802 366.833 77.5918" stroke="white" stroke-linecap="round" stroke-linejoin="round"/>
<path d="M329.753 30.7942C320.465 26.3222 310.288 24 299.98 24C289.671 24 279.494 26.3222 270.206 30.7942" stroke="white" stroke-linecap="round" stroke-linejoin="round"/>
<path d="M58 271.5H60.32C99.3555 271.5 131 239.855 131 200.82C131 188.493 140.993 178.5 153.32 178.5H191.5C208.621 178.5 222.5 164.621 222.5 147.5C222.5 130.379 208.621 116.5 191.5 116.5H35.5C20.036 116.5 7.5 103.964 7.5 88.5C7.5 73.036 20.036 60.5 35.5 60.5L220.5 60.5" stroke="white" stroke-linecap="round" stroke-linejoin="round" stroke-dasharray="2 7"/>
<path d="M51.208 222.291H79.7913" stroke="white" stroke-linecap="round" stroke-linejoin="round"/>
<path d="M65.5003 254.958C91.4336 254.958 112.459 233.933 112.459 207.999C112.459 182.066 91.4336 161.041 65.5003 161.041C39.5671 161.041 18.542 182.066 18.542 207.999C18.542 233.933 39.5671 254.958 65.5003 254.958Z" stroke="white" stroke-linecap="round" stroke-linejoin="round"/>
<path d="M34.875 193.708C35.463 192.562 36.3344 191.585 37.4065 190.87C38.4785 190.155 39.7156 189.727 41 189.625C45.0833 189.625 47.125 193.708 51.2083 193.708C52.4928 193.607 53.7298 193.178 54.8019 192.463C55.8739 191.749 56.7454 190.771 57.3333 189.625" stroke="white" stroke-linecap="round" stroke-linejoin="round"/>
<path d="M85.9163 210.042C87.2569 210.042 88.5844 209.778 89.8229 209.265C91.0614 208.752 92.1868 208 93.1347 207.052C94.0827 206.104 94.8346 204.978 95.3476 203.74C95.8606 202.501 96.1247 201.174 96.1247 199.833C96.1247 198.493 95.8606 197.165 95.3476 195.927C94.8346 194.688 94.0827 193.563 93.1347 192.615C92.1868 191.667 91.0614 190.915 89.8229 190.402C88.5844 189.889 87.2569 189.625 85.9163 189.625C83.2089 189.625 80.6124 190.701 78.698 192.615C76.7835 194.529 75.708 197.126 75.708 199.833C75.708 202.541 76.7835 205.137 78.698 207.052C80.6124 208.966 83.2089 210.042 85.9163 210.042Z" stroke="white" stroke-linecap="round" stroke-linejoin="round"/>
<path d="M94.0833 181.458C93.1325 180.19 91.8995 179.161 90.482 178.453C89.0645 177.744 87.5015 177.375 85.9167 177.375C84.3319 177.375 82.7688 177.744 81.3514 178.453C79.9339 179.161 78.7009 180.19 77.75 181.458" stroke="white" stroke-linecap="round" stroke-linejoin="round"/>
<path d="M38.958 205.959H51.208" stroke="white" stroke-linecap="round" stroke-linejoin="round"/>
<path d="M85.9163 200.854C85.6456 200.854 85.3859 200.747 85.1945 200.555C85.0031 200.364 84.8955 200.104 84.8955 199.833C84.8955 199.563 85.0031 199.303 85.1945 199.111C85.3859 198.92 85.6456 198.812 85.9163 198.812" stroke="white" stroke-linecap="round" stroke-linejoin="round"/>
<path d="M85.917 200.854C86.1877 200.854 86.4474 200.747 86.6388 200.555C86.8303 200.364 86.9378 200.104 86.9378 199.833C86.9378 199.563 86.8303 199.303 86.6388 199.111C86.4474 198.92 86.1877 198.812 85.917 198.812" stroke="white" stroke-linecap="round" stroke-linejoin="round"/>
<path d="M34.31 86.62C52.9819 86.62 68.12 71.4819 68.12 52.81C68.12 34.1381 52.9819 19 34.31 19C15.6381 19 0.5 34.1381 0.5 52.81C0.5 71.4819 15.6381 86.62 34.31 86.62Z" fill="#A971D7" stroke="white" stroke-linecap="round" stroke-linejoin="round"/>
<path d="M50.4797 69.0332L47.3838 62.8445C47.2616 62.6007 47.074 62.3957 46.8419 62.2524C46.6098 62.1091 46.3424 62.0332 46.0697 62.0332C45.7969 62.0332 45.5295 62.1091 45.2974 62.2524C45.0653 62.3957 44.8777 62.6007 44.7555 62.8445L41.5038 69.3449C41.3809 69.5878 41.1929 69.792 40.9609 69.9345C40.7289 70.0771 40.462 70.1526 40.1897 70.1526C39.9173 70.1526 39.6504 70.0771 39.4184 69.9345C39.1864 69.792 38.9984 69.5878 38.8755 69.3449L35.6238 62.8475C35.5016 62.6036 35.314 62.3986 35.0819 62.2553C34.8498 62.112 34.5824 62.0361 34.3096 62.0361C34.0369 62.0361 33.7695 62.112 33.5374 62.2553C33.3053 62.3986 33.1177 62.6036 32.9955 62.8475L29.7438 69.3449C29.6209 69.5878 29.4329 69.792 29.2009 69.9345C28.9689 70.0771 28.702 70.1526 28.4296 70.1526C28.1573 70.1526 27.8904 70.0771 27.6584 69.9345C27.4264 69.792 27.2384 69.5878 27.1155 69.3449L23.8638 62.8475C23.7416 62.6036 23.554 62.3986 23.3219 62.2553C23.0898 62.112 22.8224 62.0361 22.5496 62.0361C22.2769 62.0361 22.0095 62.112 21.7774 62.2553C21.5453 62.3986 21.3577 62.6036 21.2355 62.8475L18.1396 69.0303" stroke="white" stroke-linecap="round" stroke-linejoin="round"/>
<path d="M18.1403 43.3079C17.9453 43.3079 17.7584 43.2305 17.6205 43.0926C17.4827 42.9548 17.4053 42.7678 17.4053 42.5729C17.4053 42.378 17.4827 42.191 17.6205 42.0532C17.7584 41.9153 17.9453 41.8379 18.1403 41.8379" stroke="white" stroke-linecap="round" stroke-linejoin="round"/>
<path d="M18.1396 43.3079C18.3346 43.3079 18.5215 43.2305 18.6594 43.0926C18.7972 42.9548 18.8746 42.7678 18.8746 42.5729C18.8746 42.378 18.7972 42.191 18.6594 42.0532C18.5215 41.9153 18.3346 41.8379 18.1396 41.8379" stroke="white" stroke-linecap="round" stroke-linejoin="round"/>
<path d="M50.4801 43.3079C50.2852 43.3079 50.0982 43.2305 49.9604 43.0926C49.8226 42.9548 49.7451 42.7678 49.7451 42.5729C49.7451 42.378 49.8226 42.191 49.9604 42.0532C50.0982 41.9153 50.2852 41.8379 50.4801 41.8379" stroke="white" stroke-linecap="round" stroke-linejoin="round"/>
<path d="M50.4805 43.3079C50.6754 43.3079 50.8623 43.2305 51.0002 43.0926C51.138 42.9548 51.2155 42.7678 51.2155 42.5729C51.2155 42.378 51.138 42.191 51.0002 42.0532C50.8623 41.9153 50.6754 41.8379 50.4805 41.8379" stroke="white" stroke-linecap="round" stroke-linejoin="round"/>
</svg>
