<svg width="1440" height="263" viewBox="0 0 1440 263" fill="none" xmlns="http://www.w3.org/2000/svg">
<path fill-rule="evenodd" clip-rule="evenodd" d="M849.848 200.42C851.874 200.42 853.464 201.156 854.616 202.628C855.768 204.1 856.344 206.276 856.344 209.156C856.344 211.076 856.066 212.708 855.512 214.052C854.978 215.374 854.211 216.377 853.208 217.06C852.227 217.742 851.043 218.084 849.656 218.084C848.739 218.084 847.928 217.934 847.224 217.636C846.541 217.337 845.965 216.943 845.496 216.452C845.048 215.962 844.685 215.417 844.408 214.82H844.28C844.323 215.354 844.355 215.94 844.376 216.58C844.397 217.199 844.408 217.774 844.408 218.308V225.316H842.584V200.74H844.056L844.312 203.94H844.408C844.686 203.322 845.059 202.745 845.528 202.212C846.019 201.679 846.616 201.252 847.32 200.932C848.024 200.59 848.867 200.42 849.848 200.42ZM849.528 201.988C848.376 201.988 847.415 202.255 846.647 202.788C845.88 203.321 845.315 204.111 844.952 205.156C844.59 206.18 844.408 207.449 844.408 208.964V209.284C844.408 210.884 844.579 212.228 844.92 213.316C845.283 214.383 845.837 215.183 846.584 215.716C847.331 216.249 848.28 216.516 849.432 216.516C850.52 216.516 851.437 216.228 852.184 215.652C852.93 215.055 853.496 214.212 853.88 213.124C854.264 212.015 854.456 210.692 854.456 209.156C854.456 206.831 854.04 205.06 853.208 203.844C852.397 202.607 851.171 201.988 849.528 201.988Z" fill="white"/>
<path fill-rule="evenodd" clip-rule="evenodd" d="M364.576 200.419C366.603 200.419 368.192 201.155 369.344 202.627C370.496 204.099 371.071 206.275 371.071 209.155C371.071 211.075 370.794 212.707 370.239 214.051C369.706 215.373 368.938 216.377 367.936 217.06C366.954 217.742 365.77 218.083 364.384 218.083C363.467 218.083 362.656 217.933 361.952 217.635C361.269 217.336 360.693 216.942 360.224 216.451C359.776 215.961 359.413 215.417 359.136 214.819H359.008C359.05 215.353 359.082 215.939 359.104 216.579C359.125 217.198 359.136 217.774 359.136 218.308V225.315H357.312V200.739H358.784L359.04 203.939H359.136C359.413 203.321 359.787 202.744 360.256 202.211C360.746 201.678 361.344 201.252 362.048 200.932C362.752 200.59 363.595 200.419 364.576 200.419ZM364.256 201.987C363.104 201.987 362.144 202.254 361.376 202.787C360.608 203.32 360.042 204.11 359.68 205.155C359.317 206.179 359.136 207.448 359.136 208.963V209.283C359.136 210.883 359.306 212.227 359.647 213.315C360.01 214.382 360.565 215.182 361.312 215.715C362.058 216.248 363.008 216.516 364.16 216.516C365.248 216.516 366.166 216.227 366.912 215.651C367.659 215.054 368.223 214.211 368.607 213.123C368.991 212.014 369.184 210.691 369.184 209.155C369.184 206.83 368.768 205.059 367.936 203.843C367.125 202.606 365.898 201.987 364.256 201.987Z" fill="white"/>
<path fill-rule="evenodd" clip-rule="evenodd" d="M606.604 200.404C608.63 200.404 610.22 201.14 611.372 202.612C612.524 204.084 613.1 206.26 613.1 209.14C613.1 211.06 612.822 212.692 612.268 214.036C611.734 215.359 610.966 216.361 609.964 217.044C608.983 217.727 607.799 218.068 606.412 218.068C605.495 218.068 604.683 217.919 603.979 217.62C603.297 217.321 602.721 216.926 602.252 216.436C601.804 215.945 601.441 215.401 601.164 214.804H601.036C601.079 215.337 601.11 215.924 601.132 216.564C601.153 217.183 601.164 217.759 601.164 218.292V225.3H599.34V200.724H600.812L601.067 203.924H601.164C601.441 203.305 601.815 202.73 602.284 202.196C602.775 201.663 603.372 201.236 604.076 200.916C604.78 200.575 605.622 200.404 606.604 200.404ZM606.284 201.972C605.132 201.972 604.171 202.239 603.403 202.772C602.636 203.306 602.071 204.095 601.708 205.14C601.345 206.164 601.164 207.434 601.164 208.948V209.268C601.164 210.867 601.334 212.212 601.676 213.3C602.038 214.366 602.593 215.167 603.34 215.7C604.086 216.233 605.036 216.5 606.188 216.5C607.275 216.5 608.193 216.212 608.939 215.636C609.686 215.038 610.252 214.196 610.636 213.108C611.02 211.999 611.212 210.676 611.212 209.14C611.212 206.815 610.796 205.044 609.964 203.828C609.153 202.591 607.927 201.972 606.284 201.972Z" fill="white"/>
<path fill-rule="evenodd" clip-rule="evenodd" d="M1093.09 200.404C1095.12 200.404 1096.71 201.14 1097.86 202.612C1099.01 204.084 1099.59 206.26 1099.59 209.14C1099.59 211.06 1099.31 212.692 1098.76 214.036C1098.22 215.359 1097.45 216.361 1096.45 217.044C1095.47 217.727 1094.29 218.068 1092.9 218.068C1091.98 218.068 1091.17 217.919 1090.47 217.62C1089.79 217.321 1089.21 216.926 1088.74 216.436C1088.29 215.945 1087.93 215.401 1087.65 214.804H1087.52C1087.57 215.337 1087.6 215.924 1087.62 216.564C1087.64 217.183 1087.65 217.759 1087.65 218.292V225.3H1085.83V200.724H1087.3L1087.56 203.924H1087.65C1087.93 203.305 1088.3 202.729 1088.77 202.196C1089.26 201.663 1089.86 201.236 1090.56 200.916C1091.27 200.575 1092.11 200.404 1093.09 200.404ZM1092.77 201.972C1091.62 201.972 1090.66 202.239 1089.89 202.772C1089.12 203.306 1088.56 204.095 1088.2 205.14C1087.83 206.164 1087.65 207.434 1087.65 208.948V209.268C1087.65 210.868 1087.82 212.212 1088.16 213.3C1088.53 214.366 1089.08 215.167 1089.83 215.7C1090.57 216.233 1091.52 216.5 1092.68 216.5C1093.76 216.5 1094.68 216.212 1095.43 215.636C1096.17 215.038 1096.74 214.196 1097.12 213.108C1097.51 211.999 1097.7 210.676 1097.7 209.14C1097.7 206.815 1097.28 205.044 1096.45 203.828C1095.64 202.591 1094.41 201.972 1092.77 201.972Z" fill="white"/>
<path fill-rule="evenodd" clip-rule="evenodd" d="M1336.56 200.404C1338.59 200.404 1340.18 201.14 1341.33 202.612C1342.48 204.084 1343.06 206.26 1343.06 209.14C1343.06 211.06 1342.78 212.692 1342.22 214.036C1341.69 215.359 1340.92 216.361 1339.92 217.044C1338.94 217.727 1337.75 218.068 1336.37 218.068C1335.45 218.068 1334.64 217.919 1333.94 217.62C1333.25 217.321 1332.68 216.926 1332.21 216.436C1331.76 215.945 1331.4 215.401 1331.12 214.804H1330.99C1331.03 215.337 1331.07 215.924 1331.09 216.564C1331.11 217.183 1331.12 217.759 1331.12 218.292V225.3H1329.3V200.724H1330.77L1331.02 203.924H1331.12C1331.4 203.305 1331.77 202.73 1332.24 202.196C1332.73 201.663 1333.33 201.236 1334.03 200.916C1334.74 200.575 1335.58 200.404 1336.56 200.404ZM1336.24 201.972C1335.09 201.972 1334.13 202.239 1333.36 202.772C1332.59 203.306 1332.03 204.095 1331.66 205.14C1331.3 206.164 1331.12 207.434 1331.12 208.948V209.268C1331.12 210.867 1331.29 212.212 1331.63 213.3C1331.99 214.366 1332.55 215.167 1333.3 215.7C1334.04 216.233 1334.99 216.5 1336.14 216.5C1337.23 216.5 1338.15 216.212 1338.9 215.636C1339.64 215.038 1340.21 214.196 1340.59 213.108C1340.98 211.999 1341.17 210.676 1341.17 209.14C1341.17 206.815 1340.75 205.044 1339.92 203.828C1339.11 202.591 1337.88 201.972 1336.24 201.972Z" fill="white"/>
<path fill-rule="evenodd" clip-rule="evenodd" d="M122.548 200.308C124.574 200.308 126.163 201.044 127.315 202.516C128.467 203.988 129.044 206.164 129.044 209.044C129.044 210.964 128.767 212.596 128.212 213.94C127.679 215.263 126.91 216.266 125.907 216.948C124.926 217.631 123.742 217.972 122.355 217.972C121.438 217.972 120.628 217.823 119.924 217.524C119.241 217.226 118.665 216.831 118.195 216.34C117.747 215.849 117.385 215.305 117.107 214.708H116.979C117.022 215.241 117.054 215.828 117.075 216.468C117.097 217.086 117.107 217.663 117.107 218.196V225.204H115.283V200.628H116.756L117.012 203.828H117.107C117.385 203.209 117.758 202.633 118.228 202.1C118.718 201.566 119.316 201.14 120.02 200.82C120.724 200.479 121.567 200.308 122.548 200.308ZM122.228 201.876C121.076 201.876 120.116 202.143 119.348 202.676C118.58 203.209 118.014 203.999 117.651 205.044C117.289 206.068 117.107 207.337 117.107 208.852V209.172C117.107 210.772 117.279 212.116 117.62 213.204C117.983 214.271 118.537 215.071 119.283 215.604C120.03 216.138 120.98 216.404 122.132 216.404C123.22 216.404 124.137 216.116 124.884 215.54C125.63 214.943 126.196 214.1 126.58 213.012C126.964 211.902 127.155 210.58 127.155 209.044C127.155 206.719 126.739 204.948 125.907 203.732C125.097 202.495 123.87 201.876 122.228 201.876Z" fill="white"/>
<path fill-rule="evenodd" clip-rule="evenodd" d="M347.993 194.564C348.484 194.564 348.974 194.597 349.465 194.661C349.956 194.725 350.393 194.821 350.777 194.949V196.549C350.415 196.421 349.988 196.325 349.497 196.261C349.028 196.175 348.526 196.133 347.993 196.133C346.756 196.133 345.657 196.368 344.697 196.837C343.759 197.285 342.969 197.957 342.329 198.853C341.71 199.749 341.23 200.858 340.889 202.181C340.547 203.503 340.345 205.051 340.281 206.821H340.409C340.708 206.267 341.102 205.744 341.593 205.253C342.105 204.762 342.735 204.368 343.481 204.069C344.228 203.771 345.103 203.621 346.105 203.621C347.385 203.621 348.484 203.899 349.401 204.453C350.34 205.008 351.054 205.797 351.545 206.821C352.057 207.845 352.312 209.072 352.312 210.501C352.312 212.037 352.046 213.37 351.513 214.501C350.979 215.632 350.222 216.517 349.241 217.157C348.26 217.797 347.076 218.117 345.689 218.117C344.538 218.117 343.513 217.882 342.617 217.413C341.743 216.922 340.996 216.24 340.377 215.365C339.758 214.469 339.289 213.402 338.969 212.165C338.67 210.928 338.521 209.562 338.521 208.069C338.521 206.405 338.627 204.89 338.841 203.524C339.076 202.138 339.428 200.9 339.897 199.812C340.388 198.703 341.006 197.765 341.753 196.997C342.5 196.208 343.385 195.61 344.409 195.205C345.454 194.778 346.649 194.564 347.993 194.564ZM345.785 205.093C344.676 205.093 343.716 205.338 342.905 205.829C342.116 206.298 341.497 206.885 341.049 207.589C340.601 208.293 340.377 208.997 340.377 209.701C340.377 210.362 340.473 211.088 340.665 211.877C340.857 212.666 341.155 213.413 341.561 214.117C341.987 214.821 342.532 215.397 343.193 215.845C343.876 216.293 344.697 216.517 345.657 216.517C347.15 216.517 348.334 216.004 349.209 214.98C350.083 213.935 350.52 212.442 350.521 210.501C350.521 208.837 350.126 207.524 349.337 206.564C348.548 205.583 347.364 205.093 345.785 205.093Z" fill="white"/>
<path fill-rule="evenodd" clip-rule="evenodd" d="M830.548 194.564C832.233 194.564 833.577 195.044 834.58 196.004C835.604 196.964 836.34 198.319 836.788 200.068C837.257 201.818 837.492 203.887 837.492 206.276C837.492 208.196 837.354 209.892 837.076 211.364C836.82 212.836 836.404 214.074 835.828 215.076C835.273 216.057 834.559 216.804 833.685 217.316C832.81 217.828 831.764 218.084 830.548 218.084C829.012 218.084 827.732 217.647 826.708 216.772C825.684 215.876 824.916 214.553 824.404 212.804C823.892 211.033 823.637 208.857 823.637 206.276C823.637 203.908 823.861 201.849 824.309 200.1C824.757 198.351 825.482 196.996 826.484 196.036C827.508 195.055 828.863 194.565 830.548 194.564ZM830.58 196.164C829.3 196.164 828.287 196.569 827.54 197.38C826.793 198.191 826.25 199.354 825.908 200.868C825.588 202.361 825.429 204.164 825.429 206.276C825.429 208.58 825.61 210.489 825.973 212.004C826.335 213.497 826.89 214.618 827.637 215.364C828.405 216.111 829.375 216.484 830.548 216.484C831.764 216.484 832.746 216.122 833.492 215.396C834.239 214.65 834.783 213.519 835.124 212.004C835.465 210.489 835.637 208.58 835.637 206.276C835.637 204.143 835.476 202.329 835.156 200.836C834.858 199.321 834.335 198.169 833.588 197.38C832.863 196.569 831.86 196.164 830.58 196.164Z" fill="white"/>
<path fill-rule="evenodd" clip-rule="evenodd" d="M587.305 194.58C588.542 194.58 589.619 194.793 590.536 195.22C591.453 195.625 592.169 196.222 592.681 197.012C593.214 197.801 593.48 198.772 593.48 199.924C593.48 200.841 593.288 201.652 592.904 202.356C592.52 203.039 591.987 203.647 591.305 204.18C590.622 204.692 589.843 205.161 588.969 205.588C590.014 206.015 590.921 206.527 591.688 207.124C592.456 207.7 593.065 208.383 593.513 209.172C593.961 209.94 594.185 210.846 594.185 211.892C594.185 213.193 593.885 214.302 593.288 215.22C592.712 216.137 591.902 216.841 590.856 217.332C589.811 217.823 588.616 218.068 587.272 218.068C585.843 218.068 584.617 217.833 583.593 217.364C582.569 216.874 581.779 216.18 581.225 215.284C580.691 214.367 580.424 213.289 580.424 212.052C580.424 210.964 580.627 210.015 581.032 209.204C581.459 208.393 582.045 207.7 582.792 207.124C583.56 206.548 584.425 206.058 585.385 205.652C584.595 205.268 583.869 204.831 583.208 204.34C582.568 203.828 582.056 203.22 581.672 202.516C581.309 201.79 581.128 200.926 581.128 199.924C581.128 198.815 581.395 197.865 581.929 197.076C582.462 196.287 583.187 195.679 584.104 195.252C585.043 194.804 586.11 194.58 587.305 194.58ZM587.017 206.452C586.057 206.836 585.214 207.284 584.488 207.796C583.784 208.287 583.23 208.873 582.824 209.556C582.419 210.238 582.216 211.071 582.216 212.052C582.216 213.396 582.654 214.484 583.528 215.316C584.403 216.148 585.64 216.564 587.24 216.564C588.286 216.564 589.192 216.382 589.96 216.02C590.728 215.636 591.325 215.103 591.752 214.42C592.179 213.716 592.393 212.884 592.393 211.924C592.393 211.071 592.2 210.334 591.816 209.716C591.454 209.076 590.92 208.51 590.216 208.02C589.512 207.529 588.669 207.092 587.688 206.708L587.017 206.452ZM587.272 196.116C585.992 196.116 584.936 196.447 584.104 197.108C583.294 197.77 582.889 198.73 582.889 199.988C582.889 200.863 583.08 201.599 583.464 202.196C583.869 202.794 584.403 203.295 585.064 203.7C585.747 204.105 586.515 204.489 587.368 204.852C588.2 204.489 588.936 204.095 589.576 203.668C590.216 203.241 590.717 202.729 591.08 202.132C591.464 201.535 591.656 200.809 591.656 199.956C591.656 198.698 591.262 197.748 590.473 197.108C589.683 196.447 588.616 196.116 587.272 196.116Z" fill="white"/>
<path d="M1298.89 194.58C1300.92 194.58 1302.47 195.081 1303.56 196.084C1304.67 197.065 1305.22 198.431 1305.22 200.18C1305.22 201.182 1305.03 202.068 1304.65 202.836C1304.26 203.604 1303.73 204.233 1303.05 204.724C1302.37 205.214 1301.58 205.556 1300.68 205.748V205.812C1302.39 206.046 1303.68 206.634 1304.55 207.572C1305.43 208.511 1305.87 209.791 1305.87 211.412C1305.87 212.713 1305.58 213.876 1305 214.9C1304.43 215.903 1303.56 216.682 1302.41 217.236C1301.26 217.791 1299.8 218.068 1298.02 218.068C1296.85 218.068 1295.77 217.961 1294.79 217.748C1293.81 217.513 1292.91 217.182 1292.07 216.756V215.028C1292.91 215.455 1293.84 215.807 1294.89 216.084C1295.96 216.361 1297.01 216.5 1298.06 216.5C1300.06 216.5 1301.54 216.041 1302.5 215.124C1303.49 214.207 1303.98 212.959 1303.98 211.38C1303.98 210.249 1303.71 209.343 1303.18 208.66C1302.66 207.978 1301.94 207.487 1301 207.188C1300.06 206.868 1298.93 206.708 1297.61 206.708H1295.37V205.108H1297.64C1298.75 205.108 1299.73 204.927 1300.58 204.564C1301.46 204.202 1302.14 203.657 1302.63 202.932C1303.12 202.206 1303.37 201.321 1303.37 200.276C1303.37 198.911 1302.96 197.887 1302.15 197.204C1301.34 196.5 1300.25 196.148 1298.89 196.148C1298.14 196.148 1297.44 196.234 1296.78 196.404C1296.12 196.554 1295.49 196.788 1294.89 197.108C1294.31 197.407 1293.74 197.78 1293.16 198.228L1292.26 196.948C1292.82 196.479 1293.43 196.074 1294.09 195.732C1294.77 195.37 1295.51 195.092 1296.3 194.9C1297.11 194.687 1297.97 194.58 1298.89 194.58Z" fill="white"/>
<path d="M812.209 194.596C813.467 194.596 814.545 194.841 815.44 195.332C816.358 195.801 817.062 196.484 817.553 197.38C818.065 198.276 818.321 199.343 818.321 200.58C818.321 201.519 818.193 202.383 817.937 203.172C817.702 203.961 817.361 204.729 816.913 205.476C816.465 206.222 815.921 206.98 815.281 207.748C814.663 208.495 813.969 209.295 813.201 210.148L807.921 216.004V216.1H819.249V217.764H805.585V216.228L811.729 209.412C812.753 208.281 813.617 207.268 814.321 206.372C815.025 205.476 815.558 204.58 815.921 203.684C816.283 202.766 816.465 201.764 816.465 200.676C816.465 199.247 816.07 198.148 815.281 197.38C814.513 196.591 813.467 196.196 812.145 196.196C811.227 196.196 810.342 196.378 809.489 196.74C808.636 197.103 807.804 197.625 806.993 198.308L806.001 197.028C806.598 196.516 807.216 196.078 807.856 195.716C808.518 195.353 809.211 195.076 809.937 194.884C810.662 194.692 811.42 194.596 812.209 194.596Z" fill="white"/>
<path d="M865.812 207.78L870.356 200.74H872.437L866.9 209.028L872.788 217.764H870.677L865.812 210.276L860.948 217.764H858.868L864.692 209.028L859.125 200.74H861.236L865.812 207.78Z" fill="white"/>
<path d="M328.921 217.763H327.161V199.171C327.161 198.723 327.171 198.307 327.192 197.923C327.214 197.539 327.225 197.176 327.225 196.835C326.969 197.112 326.702 197.369 326.425 197.604C326.169 197.817 325.86 198.083 325.497 198.403L322.521 200.867L321.528 199.587L327.417 194.915H328.921V217.763Z" fill="white"/>
<path d="M380.54 207.779L385.085 200.739H387.164L381.629 209.027L387.517 217.763H385.404L380.54 210.275L375.677 217.763H373.597L379.421 209.027L373.853 200.739H375.965L380.54 207.779Z" fill="white"/>
<path d="M570.949 217.748H569.188V199.156C569.188 198.708 569.199 198.292 569.221 197.908C569.242 197.524 569.253 197.162 569.253 196.82C568.997 197.098 568.73 197.353 568.453 197.588C568.197 197.801 567.887 198.068 567.524 198.388L564.549 200.852L563.557 199.572L569.444 194.9H570.949V217.748Z" fill="white"/>
<path d="M622.568 207.764L627.112 200.724H629.192L623.656 209.012L629.545 217.748H627.433L622.568 210.26L617.704 217.748H615.625L621.448 209.012L615.881 200.724H617.992L622.568 207.764Z" fill="white"/>
<path d="M1055.45 194.58C1056.71 194.58 1057.79 194.826 1058.68 195.316C1059.6 195.786 1060.31 196.468 1060.8 197.364C1061.31 198.26 1061.56 199.327 1061.56 200.564C1061.56 201.503 1061.44 202.367 1061.18 203.156C1060.95 203.945 1060.61 204.713 1060.16 205.46C1059.71 206.207 1059.16 206.964 1058.52 207.732C1057.91 208.479 1057.21 209.279 1056.45 210.132L1051.17 215.988V216.084H1062.49V217.748H1048.83V216.212L1054.97 209.396C1056 208.266 1056.86 207.252 1057.56 206.356C1058.27 205.46 1058.8 204.564 1059.17 203.668C1059.53 202.751 1059.71 201.748 1059.71 200.66C1059.71 199.231 1059.31 198.132 1058.52 197.364C1057.76 196.575 1056.71 196.18 1055.39 196.18C1054.47 196.18 1053.59 196.361 1052.73 196.724C1051.88 197.086 1051.05 197.609 1050.24 198.292L1049.25 197.012C1049.84 196.5 1050.46 196.063 1051.1 195.7C1051.76 195.338 1052.46 195.06 1053.18 194.868C1053.91 194.676 1054.66 194.58 1055.45 194.58Z" fill="white"/>
<path fill-rule="evenodd" clip-rule="evenodd" d="M1078.37 210.388H1081.95V212.052H1078.37V217.748H1076.61V212.052H1065.89V210.58L1076.51 194.772H1078.37V210.388ZM1076.61 196.788C1076.35 197.279 1076.11 197.737 1075.87 198.164C1075.64 198.591 1075.35 199.05 1075.01 199.54L1067.78 210.388H1076.61V200.276C1076.63 199.807 1076.64 199.38 1076.64 198.996C1076.66 198.612 1076.67 198.239 1076.67 197.876C1076.69 197.513 1076.7 197.151 1076.7 196.788H1076.61Z" fill="white"/>
<path d="M1109.06 207.764L1113.6 200.724H1115.68L1110.14 209.012L1116.03 217.748H1113.92L1109.06 210.26L1104.19 217.748H1102.11L1107.94 209.012L1102.37 200.724H1104.48L1109.06 207.764Z" fill="white"/>
<path d="M1316.91 194.58C1318.17 194.58 1319.24 194.826 1320.14 195.316C1321.06 195.786 1321.76 196.468 1322.25 197.364C1322.76 198.26 1323.02 199.327 1323.02 200.564C1323.02 201.503 1322.89 202.367 1322.64 203.156C1322.4 203.946 1322.06 204.713 1321.61 205.46C1321.16 206.207 1320.62 206.964 1319.98 207.732C1319.36 208.479 1318.67 209.279 1317.9 210.132L1312.62 215.988V216.084H1323.95V217.748H1310.28V216.212L1316.43 209.396C1317.45 208.266 1318.32 207.252 1319.02 206.356C1319.72 205.46 1320.26 204.564 1320.62 203.668C1320.98 202.751 1321.16 201.748 1321.16 200.66C1321.16 199.231 1320.77 198.132 1319.98 197.364C1319.21 196.575 1318.17 196.18 1316.84 196.18C1315.93 196.18 1315.04 196.361 1314.19 196.724C1313.34 197.086 1312.5 197.609 1311.69 198.292L1310.7 197.012C1311.3 196.5 1311.92 196.063 1312.56 195.7C1313.22 195.338 1313.91 195.06 1314.64 194.868C1315.36 194.676 1316.12 194.58 1316.91 194.58Z" fill="white"/>
<path d="M1352.52 207.764L1357.07 200.724H1359.15L1353.61 209.012L1359.5 217.748H1357.39L1352.52 210.26L1347.66 217.748H1345.58L1351.4 209.012L1345.84 200.724H1347.95L1352.52 207.764Z" fill="white"/>
<path d="M86.8926 217.652H85.1328V199.06C85.1328 198.612 85.1437 198.195 85.165 197.812C85.1864 197.428 85.1963 197.065 85.1963 196.724C84.9403 197.001 84.6738 197.258 84.3965 197.492C84.1405 197.705 83.8313 197.972 83.4688 198.292L80.4922 200.756L79.501 199.476L85.3887 194.804H86.8926V217.652Z" fill="white"/>
<path fill-rule="evenodd" clip-rule="evenodd" d="M107.824 210.292H111.408V211.956H107.824V217.652H106.064V211.956H95.3438V210.484L105.968 194.676H107.824V210.292ZM106.064 196.692C105.808 197.183 105.563 197.642 105.328 198.068C105.093 198.495 104.805 198.954 104.464 199.444L97.2324 210.292H106.064V200.18C106.086 199.711 106.096 199.284 106.096 198.9C106.117 198.516 106.128 198.143 106.128 197.78C106.149 197.418 106.16 197.055 106.16 196.692H106.064Z" fill="white"/>
<path d="M138.513 207.668L143.057 200.628H145.137L139.601 208.916L145.488 217.652H143.376L138.513 210.164L133.648 217.652H131.568L137.393 208.916L131.824 200.628H133.937L138.513 207.668Z" fill="white"/>
<path fill-rule="evenodd" clip-rule="evenodd" d="M136.164 59.1201C144.271 59.1201 151.098 60.9864 156.645 64.7197C162.298 68.3464 166.564 73.4667 169.444 80.0801C172.324 86.6934 173.765 94.427 173.765 103.28C173.765 109.894 172.911 115.92 171.204 121.36C169.604 126.694 167.151 131.334 163.845 135.28C160.645 139.12 156.645 142.107 151.845 144.24C147.045 146.374 141.551 147.44 135.364 147.44C129.498 147.44 124.218 146.427 119.524 144.4C114.938 142.267 110.991 139.28 107.685 135.44C104.378 131.494 101.871 126.8 100.164 121.36C98.4574 115.92 97.6045 109.894 97.6045 103.28C97.6045 94.0003 99.0973 86.1063 102.084 79.5996C105.177 72.9865 109.604 67.9204 115.364 64.4004C121.231 60.8804 128.164 59.1202 136.164 59.1201ZM136.004 66.96C126.298 66.9601 119.044 70.1598 114.244 76.5596C109.444 82.9596 107.044 91.8669 107.044 103.28C107.044 110.533 108.057 116.934 110.084 122.48C112.111 127.92 115.258 132.133 119.524 135.12C123.791 138.107 129.124 139.6 135.524 139.6C142.138 139.6 147.578 138.107 151.845 135.12C156.111 132.027 159.258 127.76 161.284 122.32C163.311 116.774 164.324 110.427 164.324 103.28C164.324 96.1338 163.364 89.8403 161.444 84.4004C159.524 78.9604 156.484 74.6929 152.324 71.5996C148.164 68.5064 142.724 66.96 136.004 66.96Z" fill="white"/>
<path d="M206.539 60.7197H232.779V68.0801H206.539V121.84C206.539 127.707 207.713 132.187 210.06 135.28C212.406 138.267 216.033 139.76 220.939 139.76C223.286 139.76 225.526 139.6 227.659 139.28C229.793 138.854 231.66 138.373 233.26 137.84V145.2C231.66 145.84 229.633 146.373 227.18 146.8C224.833 147.226 222.326 147.44 219.659 147.44C214.966 147.44 210.966 146.587 207.659 144.88C204.353 143.067 201.793 140.293 199.979 136.56C198.273 132.826 197.419 128.027 197.419 122.16V68.0801H184.939V62.96L197.419 60.0801L200.779 40.4004H206.539V60.7197Z" fill="white"/>
<path fill-rule="evenodd" clip-rule="evenodd" d="M284.914 59.1201C293.021 59.1201 299.848 60.9864 305.395 64.7197C311.048 68.3464 315.314 73.4667 318.194 80.0801C321.074 86.6934 322.515 94.427 322.515 103.28C322.515 109.894 321.661 115.92 319.954 121.36C318.354 126.694 315.901 131.334 312.595 135.28C309.395 139.12 305.395 142.107 300.595 144.24C295.795 146.374 290.301 147.44 284.114 147.44C278.248 147.44 272.968 146.427 268.274 144.4C263.688 142.267 259.741 139.28 256.435 135.44C253.128 131.494 250.621 126.8 248.914 121.36C247.207 115.92 246.355 109.894 246.354 103.28C246.354 94.0003 247.847 86.1063 250.834 79.5996C253.927 72.9865 258.354 67.9204 264.114 64.4004C269.981 60.8804 276.914 59.1202 284.914 59.1201ZM284.754 66.96C275.048 66.9601 267.794 70.1598 262.994 76.5596C258.194 82.9596 255.794 91.8669 255.794 103.28C255.794 110.533 256.807 116.934 258.834 122.48C260.861 127.92 264.008 132.133 268.274 135.12C272.541 138.107 277.874 139.6 284.274 139.6C290.888 139.6 296.328 138.107 300.595 135.12C304.861 132.027 308.008 127.76 310.034 122.32C312.061 116.774 313.074 110.427 313.074 103.28C313.074 96.1338 312.114 89.8403 310.194 84.4004C308.274 78.9604 305.234 74.6929 301.074 71.5996C296.914 68.5064 291.474 66.96 284.754 66.96Z" fill="white"/>
<path d="M378.01 30C383.556 30 388.836 30.533 393.85 31.5996C398.863 32.5596 403.61 34.0534 408.09 36.0801L405.05 44.0801C400.57 42.1601 396.036 40.7198 391.449 39.7598C386.863 38.7998 382.276 38.3203 377.689 38.3203C372.356 38.3203 367.663 39.1197 363.609 40.7197C359.663 42.213 356.569 44.5063 354.329 47.5996C352.089 50.5862 350.97 54.3199 350.97 58.7998C350.97 63.7062 352.036 67.653 354.169 70.6396C356.302 73.6263 359.396 76.1335 363.449 78.1602C367.503 80.0801 372.463 82.0534 378.329 84.0801C385.049 86.4267 390.809 88.933 395.609 91.5996C400.516 94.1596 404.25 97.3602 406.81 101.2C409.476 105.04 410.81 110.054 410.81 116.24C410.81 123.067 409.103 128.826 405.689 133.52C402.383 138.106 397.743 141.573 391.77 143.92C385.796 146.267 379.023 147.44 371.449 147.44C366.756 147.44 362.543 147.173 358.81 146.64C355.076 146.213 351.663 145.68 348.569 145.04C345.476 144.293 342.702 143.44 340.249 142.48V133.2C344.302 134.8 348.996 136.24 354.329 137.52C359.662 138.693 365.53 139.28 371.93 139.28C377.796 139.28 382.916 138.426 387.289 136.72C391.769 135.013 395.236 132.507 397.689 129.2C400.249 125.894 401.529 121.733 401.529 116.72C401.529 112.133 400.462 108.399 398.329 105.52C396.302 102.64 393.103 100.133 388.729 98C384.463 95.76 378.969 93.5203 372.249 91.2803C367.449 89.5736 363.129 87.8133 359.289 86C355.556 84.1867 352.356 82.0529 349.689 79.5996C347.023 77.1463 344.996 74.2666 343.609 70.96C342.223 67.6533 341.529 63.6533 341.529 58.96C341.529 52.6667 343.129 47.3867 346.329 43.1201C349.529 38.8535 353.849 35.6003 359.289 33.3604C364.836 31.1203 371.076 30 378.01 30Z" fill="white"/>
<path fill-rule="evenodd" clip-rule="evenodd" d="M463.113 59.2803C472.713 59.2803 479.859 61.627 484.553 66.3203C489.246 71.0136 491.593 78.4799 491.593 88.7197V145.84H484.713L483.113 131.44H482.633C480.606 134.64 478.259 137.467 475.593 139.92C473.033 142.266 469.886 144.133 466.153 145.52C462.527 146.8 458.046 147.44 452.713 147.44C447.38 147.44 442.74 146.533 438.793 144.72C434.846 142.8 431.806 140.079 429.673 136.56C427.54 133.04 426.473 128.719 426.473 123.6C426.473 115.173 429.94 108.774 436.873 104.4C443.806 99.9204 453.887 97.3597 467.113 96.7197L482.633 96.0801V90C482.633 81.5733 480.926 75.6536 477.513 72.2402C474.206 68.7203 469.246 66.96 462.633 66.96C458.26 66.96 454.046 67.5464 449.993 68.7197C446.047 69.7864 442.047 71.3337 437.993 73.3604L435.113 66.1602C439.06 64.1335 443.433 62.4802 448.233 61.2002C453.033 59.9202 457.993 59.2803 463.113 59.2803ZM468.073 103.44C457.3 103.974 449.246 105.894 443.913 109.2C438.58 112.4 435.913 117.253 435.913 123.76C435.913 128.986 437.566 132.986 440.873 135.76C444.18 138.426 448.66 139.76 454.313 139.76C463.38 139.76 470.313 137.253 475.113 132.24C480.02 127.227 482.526 120.187 482.633 111.12V102.8L468.073 103.44Z" fill="white"/>
<path d="M639.091 59.1201C644.211 59.1201 648.958 59.5996 653.331 60.5596C657.811 61.5195 661.864 62.8005 665.49 64.4004L662.291 71.9199C660.158 70.96 657.757 70.107 655.091 69.3604C652.424 68.507 649.704 67.8671 646.931 67.4404C644.157 67.0138 641.384 66.7998 638.61 66.7998C631.891 66.7998 626.664 67.9737 622.931 70.3203C619.198 72.6669 617.331 76.0798 617.331 80.5596C617.331 83.9728 618.184 86.6931 619.891 88.7197C621.704 90.6397 624.317 92.293 627.73 93.6797C631.25 95.0664 635.464 96.6671 640.371 98.4805C645.384 100.187 649.918 102 653.971 103.92C658.131 105.84 661.384 108.294 663.73 111.28C666.184 114.267 667.411 118.267 667.411 123.28C667.411 128.4 666.13 132.774 663.57 136.4C661.01 140.027 657.277 142.8 652.371 144.72C647.464 146.533 641.49 147.44 634.45 147.44C628.584 147.44 623.357 146.906 618.771 145.84C614.184 144.773 610.291 143.493 607.091 142V133.2C610.931 135.12 615.251 136.72 620.051 138C624.851 139.173 629.704 139.76 634.61 139.76C643.144 139.76 649.277 138.373 653.011 135.6C656.744 132.72 658.61 128.826 658.61 123.92C658.61 120.72 657.704 118.107 655.891 116.08C654.184 113.947 651.571 112.08 648.051 110.48C644.638 108.774 640.371 107.067 635.251 105.36C630.024 103.547 625.384 101.733 621.331 99.9199C617.278 97.9999 614.131 95.5997 611.891 92.7197C609.651 89.8397 608.53 85.8931 608.53 80.8799C608.53 74.0533 611.304 68.7199 616.851 64.8799C622.397 61.0399 629.811 59.1201 639.091 59.1201Z" fill="white"/>
<path fill-rule="evenodd" clip-rule="evenodd" d="M909.476 57.5195C917.156 57.5195 923.929 59.2798 929.796 62.7998C935.663 66.2131 940.249 71.28 943.556 78C946.969 84.6133 948.676 92.7203 948.676 102.32C948.676 109.573 947.769 115.973 945.956 121.52C944.143 127.066 941.476 131.813 937.956 135.76C934.543 139.6 930.382 142.533 925.476 144.56C920.569 146.48 915.076 147.44 908.996 147.44C903.343 147.44 898.062 146.48 893.155 144.56C888.355 142.533 884.196 139.6 880.676 135.76C877.262 131.813 874.596 127.066 872.676 121.52C870.756 115.973 869.796 109.573 869.796 102.32C869.796 92.7203 871.342 84.6133 874.436 78C877.635 71.2801 882.222 66.2131 888.195 62.7998C894.169 59.2798 901.262 57.5195 909.476 57.5195ZM909.155 73.8398C902.862 73.8399 898.329 76.2936 895.556 81.2002C892.782 86.1069 891.396 93.1471 891.396 102.32C891.396 108.4 892.035 113.627 893.315 118C894.595 122.267 896.516 125.52 899.076 127.76C901.743 130 905.156 131.12 909.315 131.12C913.475 131.12 916.836 130 919.396 127.76C922.062 125.52 923.982 122.267 925.155 118C926.435 113.627 927.076 108.4 927.076 102.32C927.076 96.1336 926.435 90.9598 925.155 86.7998C923.875 82.5333 921.902 79.3335 919.235 77.2002C916.675 74.9602 913.315 73.8398 909.155 73.8398Z" fill="white"/>
<path d="M990.921 59.1201H1013.32V74.3203H990.921V119.28C990.921 123.333 991.827 126.374 993.641 128.4C995.561 130.32 998.068 131.28 1001.16 131.28C1003.51 131.28 1005.75 131.066 1007.88 130.64C1010.12 130.106 1012.2 129.52 1014.12 128.88V143.92C1011.88 144.88 1009.16 145.68 1005.96 146.32C1002.76 147.067 999.187 147.44 995.24 147.44C990.334 147.44 985.961 146.64 982.121 145.04C978.281 143.333 975.241 140.453 973.001 136.4C970.868 132.347 969.801 126.694 969.801 119.44V74.3203H958.921V65.5195L971.081 58.4805L977.48 40.0801H990.921V59.1201Z" fill="white"/>
<path fill-rule="evenodd" clip-rule="evenodd" d="M1065.26 57.5195C1072.94 57.5195 1079.71 59.2798 1085.58 62.7998C1091.44 66.2131 1096.03 71.28 1099.34 78C1102.75 84.6133 1104.46 92.7203 1104.46 102.32C1104.46 109.573 1103.55 115.973 1101.74 121.52C1099.92 127.066 1097.26 131.813 1093.74 135.76C1090.32 139.6 1086.16 142.533 1081.26 144.56C1076.35 146.48 1070.86 147.44 1064.78 147.44C1059.12 147.44 1053.84 146.48 1048.94 144.56C1044.14 142.533 1039.98 139.6 1036.46 135.76C1033.04 131.813 1030.38 127.066 1028.46 121.52C1026.54 115.973 1025.58 109.573 1025.58 102.32C1025.58 92.7203 1027.12 84.6133 1030.22 78C1033.42 71.28 1038 66.2131 1043.98 62.7998C1049.95 59.2798 1057.04 57.5195 1065.26 57.5195ZM1064.94 73.8398C1058.64 73.8399 1054.11 76.2936 1051.34 81.2002C1048.56 86.1069 1047.18 93.147 1047.18 102.32C1047.18 108.4 1047.82 113.627 1049.1 118C1050.38 122.266 1052.3 125.52 1054.86 127.76C1057.52 130 1060.94 131.12 1065.1 131.12C1069.26 131.12 1072.62 130 1075.18 127.76C1077.84 125.52 1079.76 122.267 1080.94 118C1082.22 113.627 1082.86 108.4 1082.86 102.32C1082.86 96.1336 1082.22 90.9598 1080.94 86.7998C1079.66 82.5333 1077.68 79.3335 1075.02 77.2002C1072.46 74.9602 1069.1 73.8398 1064.94 73.8398Z" fill="white"/>
<path d="M1156.62 30C1162.81 30 1168.46 30.6399 1173.58 31.9199C1178.81 33.1999 1183.72 35.0137 1188.3 37.3604L1181.58 53.8398C1177.21 51.8132 1172.89 50.2134 1168.62 49.04C1164.46 47.8667 1160.25 47.2803 1155.98 47.2803C1152.68 47.2803 1149.9 47.8668 1147.66 49.04C1145.42 50.1067 1143.72 51.6531 1142.54 53.6797C1141.48 55.7063 1140.94 58.0532 1140.94 60.7197C1140.94 63.8129 1141.69 66.4263 1143.18 68.5596C1144.67 70.6928 1147.02 72.7197 1150.22 74.6396C1153.42 76.453 1157.58 78.5867 1162.7 81.04C1168.36 83.6 1173.16 86.3203 1177.1 89.2002C1181.15 92.0801 1184.2 95.5465 1186.22 99.5996C1188.35 103.653 1189.42 108.666 1189.42 114.64C1189.42 121.36 1187.88 127.173 1184.78 132.08C1181.8 136.987 1177.32 140.774 1171.34 143.44C1165.48 146.107 1158.22 147.44 1149.58 147.44C1145.32 147.44 1141.37 147.173 1137.74 146.64C1134.12 146.213 1130.7 145.52 1127.5 144.56C1124.41 143.6 1121.42 142.427 1118.54 141.04V121.84C1123.34 123.973 1128.52 125.946 1134.06 127.76C1139.71 129.466 1145.21 130.32 1150.54 130.32C1154.6 130.32 1157.9 129.733 1160.46 128.56C1163.02 127.28 1164.89 125.573 1166.06 123.44C1167.34 121.2 1167.98 118.64 1167.98 115.76C1167.98 112.56 1167.18 109.84 1165.58 107.6C1164.09 105.36 1161.74 103.28 1158.54 101.36C1155.34 99.4404 1151.18 97.4671 1146.06 95.4404C1142.44 93.8405 1138.97 92.1336 1135.66 90.3203C1132.46 88.4003 1129.64 86.1071 1127.18 83.4404C1124.83 80.7738 1122.97 77.6267 1121.58 74C1120.3 70.3734 1119.66 66.1068 1119.66 61.2002C1119.66 54.6937 1121.21 49.0937 1124.3 44.4004C1127.4 39.7071 1131.72 36.133 1137.26 33.6797C1142.81 31.2264 1149.26 30 1156.62 30Z" fill="white"/>
<path fill-rule="evenodd" clip-rule="evenodd" d="M1241.65 57.5195C1252.1 57.5196 1260.1 59.9733 1265.65 64.8799C1271.19 69.6798 1273.97 77.2532 1273.97 87.5996V145.84H1259.09L1254.93 133.84H1254.29C1251.94 136.933 1249.54 139.546 1247.09 141.68C1244.63 143.706 1241.81 145.147 1238.61 146C1235.41 146.96 1231.57 147.44 1227.09 147.44C1222.29 147.44 1217.97 146.48 1214.13 144.56C1210.29 142.64 1207.25 139.706 1205.01 135.76C1202.77 131.706 1201.65 126.639 1201.65 120.56C1201.65 111.6 1204.74 104.88 1210.93 100.4C1217.11 95.8137 1226.4 93.3065 1238.77 92.8799L1252.69 92.4004V88.0801C1252.69 82.5334 1251.51 78.5869 1249.17 76.2402C1246.82 73.8936 1243.62 72.7198 1239.57 72.7197C1235.73 72.7197 1231.84 73.3598 1227.89 74.6396C1224.05 75.9196 1220.26 77.4135 1216.53 79.1201L1209.97 65.04C1214.34 62.8 1219.19 60.9863 1224.53 59.5996C1229.86 58.213 1235.57 57.5195 1241.65 57.5195ZM1243.73 105.2C1236.16 105.52 1230.88 107.067 1227.89 109.84C1224.9 112.506 1223.41 116.133 1223.41 120.72C1223.41 124.773 1224.42 127.706 1226.45 129.52C1228.58 131.333 1231.36 132.24 1234.77 132.24C1239.78 132.24 1244.05 130.587 1247.57 127.28C1251.09 123.867 1252.85 118.853 1252.85 112.24V104.88L1243.73 105.2Z" fill="white"/>
<path d="M1421.64 57.5195C1426.87 57.5195 1431.72 58.0535 1436.2 59.1201C1437.47 59.3853 1438.73 59.7006 1440 60.0635V77.2236C1438.64 76.6928 1437.27 76.2039 1435.88 75.7598C1433.32 74.7998 1430.81 74.0529 1428.36 73.5195C1426.01 72.9862 1423.67 72.7197 1421.32 72.7197C1417.59 72.7197 1414.76 73.4133 1412.84 74.7998C1410.92 76.0798 1409.96 77.9471 1409.96 80.4004C1409.96 82.1069 1410.44 83.6535 1411.4 85.04C1412.36 86.32 1414.17 87.6534 1416.84 89.04C1419.51 90.4267 1423.29 92.1871 1428.2 94.3203C1432.78 96.1147 1436.72 98.0482 1440 100.122V142.352C1438.73 143.118 1437.36 143.802 1435.88 144.4C1430.87 146.427 1424.57 147.44 1417 147.44C1411.24 147.44 1406.23 147.013 1401.96 146.16C1397.69 145.307 1393.59 143.973 1389.64 142.16V125.04C1393.91 127.067 1398.49 128.774 1403.4 130.16C1408.41 131.547 1412.95 132.24 1417 132.24C1421.8 132.24 1425.27 131.386 1427.4 129.68C1429.53 127.973 1430.6 125.68 1430.6 122.8C1430.6 121.093 1430.12 119.547 1429.16 118.16C1428.31 116.774 1426.49 115.333 1423.72 113.84C1421.05 112.24 1417.16 110.267 1412.04 107.92C1407.03 105.68 1402.87 103.44 1399.56 101.2C1396.25 98.9602 1393.75 96.2935 1392.04 93.2002C1390.33 90.0002 1389.48 86.0001 1389.48 81.2002C1389.48 73.4135 1392.41 67.5463 1398.28 63.5996C1404.25 59.5463 1412.04 57.5195 1421.64 57.5195Z" fill="white"/>
<path d="M72.4023 145.84H62.6416L0 51.4219V34.8574L63.7617 131.12H64.2422C64.2422 129.52 64.1887 127.653 64.082 125.52C63.9754 123.28 63.8684 120.933 63.7617 118.48C63.7617 116.027 63.7082 113.573 63.6016 111.12V31.5996H72.4023V145.84Z" fill="white"/>
<path d="M556.895 59.1201C566.601 59.1201 574.015 61.6263 579.135 66.6396C584.255 71.653 586.814 79.547 586.814 90.3203V145.84H577.854V90.7998C577.854 82.5866 575.988 76.5597 572.255 72.7197C568.522 68.8797 563.028 66.96 555.774 66.96C546.494 66.96 539.508 69.6801 534.814 75.1201C530.121 80.5601 527.774 88.6671 527.774 99.4404V145.84H518.814V60.7197H526.015L527.454 75.4404H527.935C529.535 72.3472 531.667 69.5734 534.334 67.1201C537.001 64.6668 540.201 62.747 543.935 61.3604C547.775 59.867 552.095 59.1201 556.895 59.1201Z" fill="white"/>
<path d="M830.291 120.56H830.931C830.824 118.426 830.717 116.133 830.61 113.68C830.504 111.12 830.398 108.506 830.291 105.84C830.184 103.173 830.077 100.453 829.971 97.6797C829.864 94.9065 829.811 92.2396 829.811 89.6797V31.5996H849.171V145.84H822.131L773.971 56.2402H773.331C773.438 58.5868 773.544 61.0933 773.65 63.7598C773.757 66.3197 773.864 68.9865 773.971 71.7598C774.184 74.4264 774.344 77.1466 774.45 79.9199C774.557 82.6933 774.61 85.4669 774.61 88.2402V145.84H755.411V31.5996H782.291L830.291 120.56Z" fill="white"/>
<path d="M1342.06 57.5195C1351.13 57.5196 1358.27 60.0269 1363.5 65.04C1368.73 70.0534 1371.34 78.1604 1371.34 89.3604V145.84H1350.06V93.3604C1350.06 86.8537 1348.94 81.9998 1346.7 78.7998C1344.46 75.4934 1340.94 73.8399 1336.14 73.8398C1328.99 73.8398 1324.14 76.3997 1321.58 81.5195C1319.02 86.5329 1317.74 93.8404 1317.74 103.44V145.84H1296.46V59.1201H1312.78L1315.82 70.4805H1316.62C1318.54 67.4938 1320.78 65.0401 1323.34 63.1201C1325.9 61.2002 1328.78 59.8133 1331.98 58.96C1335.18 58 1338.54 57.5195 1342.06 57.5195Z" fill="white"/>
</svg>
