<svg width="700" height="482" viewBox="0 0 700 482" fill="none" xmlns="http://www.w3.org/2000/svg">
<path d="M298.5 217.275H269C246.909 217.275 229 235.184 229 257.275V301.275C229 323.367 211.091 341.275 189 341.275H155" stroke="white" stroke-linecap="round"/>
<path d="M298.5 192.775H269C246.909 192.775 229 174.867 229 152.775V108.775C229 86.684 211.091 68.7754 189 68.7754H155" stroke="white" stroke-linecap="round"/>
<path d="M298.5 216.775H245C222.909 216.775 205 234.684 205 256.775V397.275" stroke="white" stroke-linecap="round"/>
<path d="M298.5 192.775H97" stroke="white" stroke-linecap="round"/>
<path d="M283.75 190.775C282.645 190.775 281.75 191.671 281.75 192.775C281.75 193.88 282.645 194.775 283.75 194.775V192.775V190.775ZM298.5 192.775V190.775H283.75V192.775V194.775H298.5V192.775Z" fill="white"/>
<path d="M189 68.7754C194.496 68.7754 199.733 69.8838 204.5 71.8893" stroke="white" stroke-width="4" stroke-linecap="round"/>
<path d="M205 362V374" stroke="white" stroke-width="4" stroke-linecap="round"/>
<path d="M205 256.774C205 244.847 210.22 234.139 218.5 226.811" stroke="white" stroke-width="4" stroke-linecap="round"/>
<path d="M145.5 192.775H121" stroke="white" stroke-width="4" stroke-linecap="round"/>
<g clip-path="url(#clip0_2097_18160)">
<path d="M87.1277 314.568L115.707 298.068C116.396 297.671 117.214 297.563 117.983 297.769C118.752 297.975 119.407 298.477 119.805 299.166L149.805 351.128C150.202 351.817 150.31 352.636 150.104 353.404C149.898 354.173 149.396 354.828 148.707 355.226L94.1469 386.726C93.4579 387.124 92.639 387.232 91.8704 387.026C91.1019 386.82 90.4467 386.317 90.0488 385.628L60.0488 333.666C59.651 332.977 59.5432 332.159 59.7491 331.39C59.9551 330.621 60.4579 329.966 61.1469 329.568L68.9411 325.068" stroke="white" stroke-linecap="round" stroke-linejoin="round"/>
<path d="M100.627 337.952C101.452 339.38 100.84 340.119 99.2873 339.584L87.0342 335.407L84.5143 348.107C84.1922 349.727 83.2521 349.875 82.4316 348.453L68.9316 325.071C68.5338 324.382 68.426 323.563 68.6319 322.794C68.8379 322.026 69.3407 321.37 70.0297 320.973L83.0201 313.473C83.7091 313.075 84.528 312.967 85.2966 313.173C86.0651 313.379 86.7203 313.882 87.1182 314.571L100.627 337.952Z" stroke="white" stroke-linecap="round" stroke-linejoin="round"/>
<path d="M102.421 323.057L118.009 314.057" stroke="white" stroke-linecap="round" stroke-linejoin="round"/>
<path d="M108.421 333.449L124.009 324.449" stroke="white" stroke-linecap="round" stroke-linejoin="round"/>
<path d="M85.8418 360.342L130.009 334.842" stroke="white" stroke-linecap="round" stroke-linejoin="round"/>
<path d="M91.8418 370.734L134.702 345.989" stroke="white" stroke-linecap="round" stroke-linejoin="round"/>
</g>
<g clip-path="url(#clip1_2097_18160)">
<path d="M206.437 407.542L215.117 398.861C215.657 398.322 216.388 398.019 217.15 398.019C217.913 398.019 218.644 398.322 219.183 398.861L238.923 418.601L238.821 442.366L206.965 474.222C206.426 474.761 205.695 475.064 204.932 475.064C204.17 475.064 203.439 474.761 202.9 474.222L189.624 460.947" stroke="white" stroke-linecap="round" stroke-linejoin="round"/>
<path d="M238.456 418.215L228.291 428.38C227.752 428.919 227.449 429.65 227.449 430.412C227.449 431.175 227.752 431.906 228.291 432.445L238.456 442.61" stroke="white" stroke-linecap="round" stroke-linejoin="round"/>
<path d="M223.818 443.221L209.486 428.889" stroke="white" stroke-linecap="round" stroke-linejoin="round"/>
<path d="M207.555 459.483L201.863 453.791" stroke="white" stroke-linecap="round" stroke-linejoin="round"/>
<path d="M215.687 451.351L204.404 440.068" stroke="white" stroke-linecap="round" stroke-linejoin="round"/>
<path d="M165.271 424.314L160.696 431.938L182.042 453.284L189.666 448.71" stroke="white" stroke-linecap="round" stroke-linejoin="round"/>
<path d="M189.666 436.511L186.616 433.462L192.044 428.034C193.878 428.525 195.823 428.398 197.577 427.671C199.331 426.945 200.797 425.659 201.746 424.015C202.695 422.371 203.076 420.459 202.828 418.577C202.58 416.694 201.718 414.946 200.375 413.604C199.033 412.261 197.285 411.399 195.402 411.151C193.52 410.904 191.608 411.284 189.964 412.233C188.32 413.182 187.035 414.648 186.308 416.402C185.581 418.156 185.454 420.101 185.945 421.935L180.517 427.363L177.468 424.313C175.851 422.696 173.657 421.787 171.369 421.787C169.082 421.787 166.888 422.696 165.27 424.313L189.666 448.709C191.283 447.091 192.192 444.897 192.192 442.61C192.192 440.322 191.283 438.129 189.666 436.511Z" stroke="white" stroke-linecap="round" stroke-linejoin="round"/>
</g>
<g clip-path="url(#clip2_2097_18160)">
<path d="M121.64 77.8251L136.733 51.682C137.305 50.6915 137.46 49.5144 137.164 48.4096C136.868 47.3048 136.145 46.3629 135.155 45.791L101.542 26.3848C100.552 25.8129 99.3747 25.6579 98.2699 25.9539C97.1652 26.25 96.2232 26.9727 95.6514 27.9633L80.5576 54.1064" stroke="white" stroke-linecap="round" stroke-linejoin="round"/>
<path d="M127.852 77.1281C128.257 77.0771 128.667 77.1389 129.039 77.3067C129.411 77.4745 129.729 77.7417 129.959 78.0789C130.189 78.4097 130.32 78.7998 130.334 79.2027C130.349 79.6056 130.247 80.0042 130.041 80.3508L116.098 104.502C115.526 105.493 114.584 106.215 113.479 106.511C112.374 106.807 111.197 106.652 110.207 106.081L61.7297 78.0925C60.7392 77.5206 60.0164 76.5787 59.7204 75.4739C59.4244 74.3691 59.5794 73.192 60.1512 72.2015L74.095 48.0502C74.2922 47.6986 74.5865 47.4112 74.9428 47.2224C75.299 47.0337 75.7021 46.9515 76.1038 46.9858C76.5106 47.0159 76.9011 47.1579 77.2323 47.396C77.5635 47.634 77.8225 47.959 77.9807 48.335L89.8662 74.7837C90.5862 76.5724 91.8849 78.0683 93.5548 79.0324C95.2246 79.9965 97.1694 80.3732 99.0785 80.1024L127.852 77.1281Z" stroke="white" stroke-linecap="round" stroke-linejoin="round"/>
<path d="M102.735 38.6934L111.45 43.7246" stroke="white" stroke-linecap="round" stroke-linejoin="round"/>
<path d="M97.7041 47.4082L118.868 59.627" stroke="white" stroke-linecap="round" stroke-linejoin="round"/>
<path d="M92.6729 56.1211L113.836 68.3398" stroke="white" stroke-linecap="round" stroke-linejoin="round"/>
</g>
<g clip-path="url(#clip3_2097_18160)">
<path d="M263.065 33.1035L252.818 15.3542C252.429 14.6817 251.79 14.191 251.04 13.99C250.29 13.7891 249.49 13.8943 248.818 14.2825L225.998 27.4579C225.325 27.8462 224.834 28.4857 224.633 29.2358C224.432 29.9858 224.538 30.785 224.926 31.4575L235.173 49.2067" stroke="white" stroke-linecap="round" stroke-linejoin="round"/>
<path d="M264.764 29.2149C264.872 28.9597 265.048 28.739 265.272 28.5774C265.497 28.4158 265.762 28.3194 266.039 28.2989C266.311 28.2757 266.585 28.3314 266.827 28.4596C267.069 28.5877 267.269 28.7829 267.403 29.0216L276.869 45.4185C277.258 46.091 277.363 46.8902 277.162 47.6403C276.961 48.3903 276.47 49.0298 275.798 49.4181L242.885 68.4199C242.213 68.8082 241.414 68.9134 240.664 68.7124C239.914 68.5115 239.274 68.0208 238.886 67.3483L229.419 50.9513C229.279 50.716 229.21 50.4454 229.22 50.1718C229.23 49.8983 229.319 49.6334 229.475 49.4089C229.631 49.1799 229.847 48.9985 230.099 48.8846C230.352 48.7707 230.631 48.7287 230.906 48.7633L250.491 50.7534C251.787 50.9372 253.108 50.6815 254.241 50.0269C255.375 49.3723 256.257 48.3568 256.746 47.1424L264.764 29.2149Z" stroke="white" stroke-linecap="round" stroke-linejoin="round"/>
<path d="M233.64 30.9336L239.556 27.5177" stroke="white" stroke-linecap="round" stroke-linejoin="round"/>
<path d="M237.056 36.8516L251.424 28.5559" stroke="white" stroke-linecap="round" stroke-linejoin="round"/>
<path d="M240.471 42.7676L254.839 34.4719" stroke="white" stroke-linecap="round" stroke-linejoin="round"/>
</g>
<path d="M29.6814 205.051C28.6383 204.006 28.0523 202.59 28.0523 201.114C28.0523 199.638 28.6383 198.222 29.6814 197.178C30.1996 196.661 30.6107 196.046 30.8912 195.37C31.1716 194.693 31.316 193.968 31.316 193.236C31.316 192.504 31.1716 191.779 30.8912 191.102C30.6107 190.426 30.1996 189.811 29.6814 189.294L19.8331 179.453C18.7885 178.409 17.3719 177.822 15.8949 177.822C14.4178 177.822 13.0012 178.409 11.9567 179.453L9.61713 181.785C6.927 184.475 5.23485 188.001 4.82028 191.782C4.4057 195.563 5.29351 199.373 7.33701 202.581L7.35929 202.618C18.1515 218.586 31.9046 232.336 47.874 243.126L47.9112 243.152C51.1196 245.195 54.9295 246.083 58.7108 245.668C62.4921 245.252 66.0185 243.559 68.707 240.868L71.0428 238.532C71.5609 238.015 71.9719 237.401 72.2523 236.725C72.5328 236.049 72.6771 235.324 72.6771 234.592C72.6771 233.86 72.5328 233.135 72.2523 232.459C71.9719 231.783 71.5609 231.169 71.0428 230.652L61.1908 220.811C60.6737 220.293 60.0596 219.882 59.3835 219.601C58.7074 219.321 57.9827 219.177 57.2507 219.177C56.5188 219.177 55.794 219.321 55.1179 219.601C54.4419 219.882 53.8277 220.293 53.3107 220.811C52.2661 221.855 50.8495 222.442 49.3724 222.442C47.8954 222.442 46.4788 221.855 45.4342 220.811" stroke="white" stroke-linecap="round" stroke-linejoin="round"/>
<path d="M65.9961 184.504V173.363" stroke="white" stroke-linecap="round" stroke-linejoin="round"/>
<path d="M65.9961 194.252C65.6268 194.252 65.2726 194.105 65.0114 193.844C64.7502 193.583 64.6035 193.229 64.6035 192.859C64.6035 192.49 64.7502 192.136 65.0114 191.875C65.2726 191.614 65.6268 191.467 65.9961 191.467" stroke="white"/>
<path d="M65.9961 194.252C66.3654 194.252 66.7196 194.105 66.9808 193.844C67.242 193.583 67.3887 193.229 67.3887 192.859C67.3887 192.49 67.242 192.136 66.9808 191.875C66.7196 191.614 66.3654 191.467 65.9961 191.467" stroke="white"/>
<path d="M65.9961 162.223C62.1068 162.223 58.2852 163.241 54.9115 165.176C51.5377 167.111 48.7292 169.896 46.7653 173.253C44.8014 176.61 43.7504 180.423 43.7169 184.312C43.6834 188.201 44.6685 192.031 46.5743 195.422L40.9297 212.355L57.3658 205.051C60.4074 206.327 63.6942 206.911 66.9891 206.762C70.284 206.614 73.5048 205.735 76.419 204.191C79.3332 202.646 81.8681 200.474 83.8408 197.83C85.8135 195.187 87.1747 192.139 87.8262 188.905C88.4778 185.672 88.4034 182.334 87.6084 179.133C86.8134 175.932 85.3177 172.948 83.2291 170.395C81.1406 167.842 78.5114 165.785 75.5312 164.372C72.5511 162.958 69.2944 162.224 65.9961 162.223Z" stroke="white" stroke-linecap="round" stroke-linejoin="round"/>
<path d="M330 118H440C457.397 118 471.5 132.103 471.5 149.5V259.5C471.5 276.897 457.397 291 440 291H330C312.603 291 298.5 276.897 298.5 259.5V149.5C298.5 132.103 312.603 118 330 118Z" stroke="white"/>
<path d="M297 194.5H301V216.25H297L297 194.5Z" fill="#221430"/>
<rect x="314" y="133.5" width="142" height="142" rx="24" fill="white"/>
<path d="M338 254H365.381V237.312L338 202.382V254ZM404.619 155.006V172.966L432 206.059V155L404.619 155.006ZM404.619 207.756L361.006 155.006H338V168.158L408.994 254H432V242.545L404.619 207.614V207.756Z" fill="url(#paint0_radial_2097_18160)"/>
<path d="M554 204.5H488" stroke="white" stroke-linecap="round"/>
<path d="M539 189.5L555 204.5L539 219.5" stroke="white" stroke-linecap="round"/>
<rect x="579" y="0.5" width="120" height="120" rx="32" stroke="url(#paint1_linear_2097_18160)" stroke-linecap="round" stroke-linejoin="round"/>
<path d="M595 40.5C595 27.2452 605.745 16.5 619 16.5H659C672.255 16.5 683 27.2452 683 40.5V80.5C683 93.7548 672.255 104.5 659 104.5H619C605.745 104.5 595 93.7548 595 80.5V40.5Z" fill="#180D23"/>
<path d="M648 76.2168V84.3648C648 88.6428 644.4 90.3648 639 90.3648M639 90.3648C633.6 90.3648 630 88.6428 630 84.3648V76.2168M639 90.3648V94.8648M642 76.8648V58.8648C642 58.2714 642.176 57.6914 642.506 57.1981C642.835 56.7047 643.304 56.3202 643.852 56.0931C644.4 55.8661 645.003 55.8067 645.585 55.9224C646.167 56.0382 646.702 56.3239 647.121 56.7434C647.541 57.163 647.827 57.6976 647.942 58.2795C648.058 58.8614 647.999 59.4646 647.772 60.0128C647.545 60.561 647.16 61.0295 646.667 61.3592C646.173 61.6888 645.593 61.8648 645 61.8648H633C632.204 61.8648 631.441 61.5487 630.879 60.9861C630.316 60.4235 630 59.6604 630 58.8648C630 58.0691 630.316 57.3061 630.879 56.7434C631.441 56.1808 632.204 55.8648 633 55.8648C633.4 55.8436 633.799 55.9067 634.173 56.05C634.546 56.1932 634.885 56.4135 635.168 56.6964C635.451 56.9793 635.672 57.3186 635.815 57.6921C635.958 58.0657 636.021 58.4652 636 58.8648V76.8648M630 82.8648H648M639 26.1348V31.8648M606 55.8648H612.873M613.773 33.6348L619.5 39.3648M672 55.8648H665.127M664.227 33.6348L658.5 39.3648M646.5 76.8648C650.093 75.4403 653.166 72.9544 655.31 69.7384C657.454 66.5224 658.567 62.7293 658.5 58.8648C658.408 53.7217 656.324 48.8149 652.687 45.1776C649.05 41.5403 644.143 39.4564 639 39.3648C633.857 39.4564 628.95 41.5403 625.313 45.1776C621.676 48.8149 619.592 53.7217 619.5 58.8648C619.433 62.7293 620.546 66.5224 622.69 69.7384C624.834 72.9544 627.907 75.4403 631.5 76.8648H646.5Z" stroke="white" stroke-linecap="round" stroke-linejoin="round"/>
<rect x="579" y="144.5" width="120" height="120" rx="32" stroke="url(#paint2_linear_2097_18160)" stroke-linecap="round" stroke-linejoin="round"/>
<path d="M595 184.5C595 171.245 605.745 160.5 619 160.5H659C672.255 160.5 683 171.245 683 184.5V224.5C683 237.755 672.255 248.5 659 248.5H619C605.745 248.5 595 237.755 595 224.5V184.5Z" fill="#180D23"/>
<path d="M648 220.217V228.365C648 232.643 644.4 234.365 639 234.365M639 234.365C633.6 234.365 630 232.643 630 228.365V220.217M639 234.365V238.865M642 220.865V202.865C642 202.271 642.176 201.691 642.506 201.198C642.835 200.705 643.304 200.32 643.852 200.093C644.4 199.866 645.003 199.807 645.585 199.922C646.167 200.038 646.702 200.324 647.121 200.743C647.541 201.163 647.827 201.698 647.942 202.279C648.058 202.861 647.999 203.465 647.772 204.013C647.545 204.561 647.16 205.03 646.667 205.359C646.173 205.689 645.593 205.865 645 205.865H633C632.204 205.865 631.441 205.549 630.879 204.986C630.316 204.423 630 203.66 630 202.865C630 202.069 630.316 201.306 630.879 200.743C631.441 200.181 632.204 199.865 633 199.865C633.4 199.844 633.799 199.907 634.173 200.05C634.546 200.193 634.885 200.413 635.168 200.696C635.451 200.979 635.672 201.319 635.815 201.692C635.958 202.066 636.021 202.465 636 202.865V220.865M630 226.865H648M639 170.135V175.865M606 199.865H612.873M613.773 177.635L619.5 183.365M672 199.865H665.127M664.227 177.635L658.5 183.365M646.5 220.865C650.093 219.44 653.166 216.954 655.31 213.738C657.454 210.522 658.567 206.729 658.5 202.865C658.408 197.722 656.324 192.815 652.687 189.178C649.05 185.54 644.143 183.456 639 183.365C633.857 183.456 628.95 185.54 625.313 189.178C621.676 192.815 619.592 197.722 619.5 202.865C619.433 206.729 620.546 210.522 622.69 213.738C624.834 216.954 627.907 219.44 631.5 220.865H646.5Z" stroke="white" stroke-linecap="round" stroke-linejoin="round"/>
<rect x="579" y="288.5" width="120" height="120" rx="32" stroke="url(#paint3_linear_2097_18160)" stroke-linecap="round" stroke-linejoin="round"/>
<path d="M595 328.5C595 315.245 605.745 304.5 619 304.5H659C672.255 304.5 683 315.245 683 328.5V368.5C683 381.755 672.255 392.5 659 392.5H619C605.745 392.5 595 381.755 595 368.5V328.5Z" fill="#180D23"/>
<path d="M648 364.217V372.365C648 376.643 644.4 378.365 639 378.365M639 378.365C633.6 378.365 630 376.643 630 372.365V364.217M639 378.365V382.865M642 364.865V346.865C642 346.271 642.176 345.691 642.506 345.198C642.835 344.705 643.304 344.32 643.852 344.093C644.4 343.866 645.003 343.807 645.585 343.922C646.167 344.038 646.702 344.324 647.121 344.743C647.541 345.163 647.827 345.698 647.942 346.279C648.058 346.861 647.999 347.465 647.772 348.013C647.545 348.561 647.16 349.03 646.667 349.359C646.173 349.689 645.593 349.865 645 349.865H633C632.204 349.865 631.441 349.549 630.879 348.986C630.316 348.423 630 347.66 630 346.865C630 346.069 630.316 345.306 630.879 344.743C631.441 344.181 632.204 343.865 633 343.865C633.4 343.844 633.799 343.907 634.173 344.05C634.546 344.193 634.885 344.413 635.168 344.696C635.451 344.979 635.672 345.319 635.815 345.692C635.958 346.066 636.021 346.465 636 346.865V364.865M630 370.865H648M639 314.135V319.865M606 343.865H612.873M613.773 321.635L619.5 327.365M672 343.865H665.127M664.227 321.635L658.5 327.365M646.5 364.865C650.093 363.44 653.166 360.954 655.31 357.738C657.454 354.522 658.567 350.729 658.5 346.865C658.408 341.722 656.324 336.815 652.687 333.178C649.05 329.54 644.143 327.456 639 327.365C633.857 327.456 628.95 329.54 625.313 333.178C621.676 336.815 619.592 341.722 619.5 346.865C619.433 350.729 620.546 354.522 622.69 357.738C624.834 360.954 627.907 363.44 631.5 364.865H646.5Z" stroke="white" stroke-linecap="round" stroke-linejoin="round"/>
<defs>
<radialGradient id="paint0_radial_2097_18160" cx="0" cy="0" r="1" gradientTransform="matrix(96.5179 61.8748 -43.1651 6901.72 338 142.625)" gradientUnits="userSpaceOnUse">
<stop stop-color="#3B2084"/>
<stop offset="0.481591" stop-color="#802AA9"/>
<stop offset="1" stop-color="#9D8FC1"/>
</radialGradient>
<linearGradient id="paint1_linear_2097_18160" x1="639" y1="0.5" x2="639" y2="120.5" gradientUnits="userSpaceOnUse">
<stop stop-color="#AB56FF"/>
<stop offset="1" stop-color="#D5BBEF"/>
</linearGradient>
<linearGradient id="paint2_linear_2097_18160" x1="639" y1="144.5" x2="639" y2="264.5" gradientUnits="userSpaceOnUse">
<stop stop-color="#AB56FF"/>
<stop offset="1" stop-color="#D5BBEF"/>
</linearGradient>
<linearGradient id="paint3_linear_2097_18160" x1="639" y1="288.5" x2="639" y2="408.5" gradientUnits="userSpaceOnUse">
<stop stop-color="#AB56FF"/>
<stop offset="1" stop-color="#D5BBEF"/>
</linearGradient>
<clipPath id="clip0_2097_18160">
<rect width="72" height="72" fill="white" transform="translate(55 327.922) rotate(-30)"/>
</clipPath>
<clipPath id="clip1_2097_18160">
<rect width="72" height="72" fill="white" transform="translate(204.912 379.5) rotate(45)"/>
</clipPath>
<clipPath id="clip2_2097_18160">
<rect width="72" height="72" fill="white" transform="translate(89 14.9219) rotate(30)"/>
</clipPath>
<clipPath id="clip3_2097_18160">
<rect width="48.8827" height="48.8827" fill="white" transform="translate(215 30.9414) rotate(-30)"/>
</clipPath>
</defs>
</svg>
