<svg width="20" height="20" viewBox="0 0 20 20" fill="none" xmlns="http://www.w3.org/2000/svg">
<path d="M13.4622 1.1582H6.54418C6.13645 1.1582 5.74542 1.32017 5.45711 1.60848C5.16881 1.89679 5.00684 2.28782 5.00684 2.69554V17.3003C5.00684 17.708 5.16881 18.099 5.45711 18.3873C5.74542 18.6756 6.13645 18.8376 6.54418 18.8376H13.4622C13.8699 18.8376 14.261 18.6756 14.5493 18.3873C14.8376 18.099 14.9995 17.708 14.9995 17.3003V2.69554C14.9995 2.49366 14.9598 2.29375 14.8825 2.10723C14.8053 1.92071 14.692 1.75123 14.5493 1.60848C14.4065 1.46572 14.237 1.35248 14.0505 1.27523C13.864 1.19797 13.6641 1.1582 13.4622 1.1582Z" stroke="white" stroke-linecap="round" stroke-linejoin="round"/>
<path d="M14.9995 15.7617H5.00684" stroke="white" stroke-linecap="round" stroke-linejoin="round"/>
<path d="M14.9995 4.23145H5.00684" stroke="white" stroke-linecap="round" stroke-linejoin="round"/>
<path d="M8.8457 2.69531H11.1517" stroke="white" stroke-linecap="round" stroke-linejoin="round"/>
<path d="M10.0008 17.4918C9.9498 17.4918 9.90092 17.4715 9.86488 17.4355C9.82884 17.3994 9.80859 17.3506 9.80859 17.2996C9.80859 17.2486 9.82884 17.1997 9.86488 17.1637C9.90092 17.1277 9.9498 17.1074 10.0008 17.1074" stroke="white"/>
<path d="M10 17.4918C10.051 17.4918 10.0998 17.4715 10.1359 17.4355C10.1719 17.3994 10.1922 17.3506 10.1922 17.2996C10.1922 17.2486 10.1719 17.1997 10.1359 17.1637C10.0998 17.1277 10.051 17.1074 10 17.1074" stroke="white"/>
</svg>
