<svg width="32" height="32" viewBox="0 0 32 32" fill="none" xmlns="http://www.w3.org/2000/svg">
<g clip-path="url(#clip0_149_15801)">
<path d="M12.3887 4.36328C12.3887 2.319 14.0898 0.668981 16.1523 0.75293C18.0254 0.830974 19.5722 2.41133 19.6113 4.28418C19.6144 4.45255 19.6083 4.61503 19.5908 4.76953V4.77051C19.3678 6.76581 19.994 8.79259 21.4883 10.2119L21.7881 10.5117C23.2074 12.006 25.2342 12.6322 27.2295 12.4092H27.2314C27.3808 12.392 27.543 12.3856 27.7158 12.3887C29.5924 12.4278 31.1719 13.9743 31.2471 15.8496V15.8506C31.3314 17.9167 29.6816 19.6152 27.6367 19.6152C27.4515 19.6152 27.2673 19.5996 27.0879 19.5723C25.0959 19.2691 23.1315 20.0716 21.7881 21.4883L21.4883 21.7881C20.0716 23.1315 19.2691 25.0959 19.5723 27.0879C19.5996 27.2673 19.6152 27.4515 19.6152 27.6367C19.6152 29.6812 17.9134 31.3314 15.8506 31.2471H15.8496C14.0328 31.1742 12.5244 29.6895 12.3965 27.8906L12.3887 27.7158C12.3856 27.5474 12.3917 27.385 12.4092 27.2305V27.2295C12.6322 25.2342 12.006 23.2074 10.5117 21.7881L10.2119 21.4883C8.86852 20.0716 6.90407 19.2691 4.91211 19.5723C4.73268 19.5996 4.54851 19.6152 4.36328 19.6152C2.31908 19.6152 0.669135 17.914 0.75293 15.8516C0.830936 13.9794 2.41047 12.4313 4.28809 12.3887C4.45643 12.3856 4.61896 12.3917 4.77344 12.4092H4.77441C6.76972 12.6322 8.79649 12.006 10.2158 10.5117L10.5117 10.2158L10.5146 10.2119C11.9315 8.8685 12.7339 6.90426 12.4307 4.91211C12.4033 4.73268 12.3887 4.54851 12.3887 4.36328Z" stroke="#84AFE2" stroke-width="1.5"/>
</g>
<defs>
<clipPath id="clip0_149_15801">
<rect width="32" height="32" fill="white"/>
</clipPath>
</defs>
</svg>
