<svg width="32" height="32" viewBox="0 0 32 32" fill="none" xmlns="http://www.w3.org/2000/svg">
<g clip-path="url(#clip0_142_15799)">
<path d="M16.9541 15.2207C24.6164 14.7481 30.7481 8.61578 31.2207 0.954102C31.227 0.852345 31.1475 0.773306 31.0469 0.779297C27.2159 1.01547 23.7667 2.66591 21.2158 5.2168C18.665 7.76764 17.0154 11.216 16.7793 15.0469C16.7733 15.1475 16.8524 15.227 16.9541 15.2207ZM15.0459 15.2217C15.1478 15.228 15.2269 15.1477 15.2207 15.0469C14.9845 11.216 13.3349 7.76753 10.7842 5.2168C8.23335 2.66597 4.78419 1.01635 0.953125 0.780273C0.852519 0.774289 0.773021 0.853339 0.779297 0.955078C1.25204 8.6165 7.38425 14.7484 15.0459 15.2217ZM15.2305 31.2314C15.0368 27.3257 13.3757 23.8073 10.7842 21.2158C8.23335 18.665 4.78419 17.0154 0.953125 16.7793C0.852527 16.7733 0.773022 16.8524 0.779297 16.9541C1.25571 24.6779 7.48248 30.8464 15.2305 31.2314ZM16.7686 31.2314C24.5785 30.8438 30.8414 24.5801 31.2295 16.7695C27.3246 16.9638 23.8069 18.6257 21.2158 21.2168C18.6244 23.8083 16.9622 27.3259 16.7686 31.2314Z" stroke="#9ECFB6" stroke-width="1.5"/>
</g>
<defs>
<clipPath id="clip0_142_15799">
<rect width="32" height="32" fill="white"/>
</clipPath>
</defs>
</svg>
