<?xml version="1.0" encoding="UTF-8"?>
<svg viewBox="0 0 297 347.03" xmlns="http://www.w3.org/2000/svg" xmlns:xlink="http://www.w3.org/1999/xlink">
<defs>
<style>.cls-1, .cls-2{fill-rule:evenodd}.cls-1, .cls-3{fill:#fff}.cls-4{fill:#fe9a89}.cls-5{fill:url(#linear-gradient)}.cls-2, .cls-6{fill:#00bd9c}.cls-7, .cls-8, .cls-9, .cls-10, .cls-11, .cls-12{isolation:isolate}.cls-8{fill:url(#linear-gradient-5)}.cls-8, .cls-9, .cls-10, .cls-11, .cls-12{mix-blend-mode:multiply}.cls-9{fill:url(#linear-gradient-6)}.cls-10{fill:url(#linear-gradient-4)}.cls-11{fill:url(#linear-gradient-2)}.cls-12{fill:url(#linear-gradient-3)}.cls-13{fill:#25344a}</style>
<linearGradient id="linear-gradient" x1="80.45" x2="80.45" y1="-3854.8" y2="-3896.7" gradientTransform="translate(.14 -3823.2) scale(1 -1)" gradientUnits="userSpaceOnUse">
<stop stop-color="#fec194" offset="0"/>
<stop stop-color="#fea88d" offset=".16"/>
<stop stop-color="#fe6b7d" offset=".49"/>
<stop stop-color="#fe0863" offset=".96"/>
<stop stop-color="#ff0061" offset="1"/>
</linearGradient>
<linearGradient id="linear-gradient-2" x1="80.15" x2="75.69" y1="-3881.5" y2="-3886" gradientTransform="translate(.14 -3823.2) scale(1 -1)" gradientUnits="userSpaceOnUse">
<stop stop-color="#a7283c" offset="0"/>
<stop stop-color="#ae394c" offset=".12"/>
<stop stop-color="#c16775" offset=".35"/>
<stop stop-color="#deb0b8" offset=".68"/>
<stop stop-color="#fff" offset="1"/>
</linearGradient>
<linearGradient id="linear-gradient-3" x1="75.74" x2="79.68" y1="-3866.7" y2="-3862.8" gradientTransform="translate(.14 -3823.2) scale(1 -1)" gradientUnits="userSpaceOnUse">
<stop stop-color="#fff" offset="0"/>
<stop stop-color="#fffafc" offset=".11"/>
<stop stop-color="#ffecf3" offset=".23"/>
<stop stop-color="#ffd5e5" offset=".36"/>
<stop stop-color="#ffb4d1" offset=".5"/>
<stop stop-color="#ff8bb7" offset=".64"/>
<stop stop-color="#ff5897" offset=".79"/>
<stop stop-color="#ff1d73" offset=".93"/>
<stop stop-color="#ff0061" offset="1"/>
</linearGradient>
<linearGradient id="linear-gradient-4" x1="90.55" x2="94.47" y1="-3873" y2="-3876.9" gradientTransform="translate(.14 -3823.2) scale(1 -1)" gradientUnits="userSpaceOnUse">
<stop stop-color="#a7283c" offset="0"/>
<stop stop-color="#b85363" offset=".18"/>
<stop stop-color="#deafb6" offset=".58"/>
<stop stop-color="#f5e8ea" offset=".87"/>
<stop stop-color="#fff" offset="1"/>
</linearGradient>
<linearGradient id="linear-gradient-5" x1="84.17" x2="80.78" y1="-3858.8" y2="-3862.2" xlink:href="#linear-gradient-3"/>
<linearGradient id="linear-gradient-6" x1="79.78" x2="83.64" y1="-3883.3" y2="-3879.4" gradientTransform="translate(.14 -3823.2) scale(1 -1)" gradientUnits="userSpaceOnUse">
<stop stop-color="#a7293d" offset="0"/>
<stop stop-color="#d69ba4" offset=".5"/>
<stop stop-color="#f3e3e5" offset=".84"/>
<stop stop-color="#fff" offset="1"/>
</linearGradient>
</defs>
<g class="cls-7">
<g id="Layer_2">
<g id="Layer_1-2">
<path class="cls-13" d="M0,28.5C0,12.76,12.76,0,28.5,0h240c15.74,0,28.5,12.76,28.5,28.5v290.03c0,15.74-12.76,28.5-28.5,28.5H28.5c-15.74,0-28.5-12.76-28.5-28.5V28.5Z"/>
<path class="cls-5" d="M94.88,49.89l-.8-.8.8-.8c3.72-3.72,3.72-9.77,0-13.49-1.81-1.8-4.21-2.8-6.76-2.79-2.56,0-5.01,1.07-6.82,2.88l-.71.71-.8-.8c-1.8-1.8-4.2-2.79-6.75-2.79s-4.94.99-6.75,2.79c-3.72,3.72-3.72,9.77,0,13.49l4.01,4.01,7.08,7.08-.74.74c-1.96,1.96-5.21,2.01-7.16.05-.94-.94-1.45-2.2-1.45-3.53,0-.19.01-.37.03-.56.07-.67-.17-1.34-.65-1.82-1.34-1.34-3.65-.55-3.85,1.33-.04.35-.06.7-.06,1.05,0,2.55.99,4.94,2.79,6.75,1.86,1.86,4.3,2.79,6.75,2.79s4.89-.93,6.75-2.79l.8-.8.8.8c1.8,1.8,4.2,2.79,6.75,2.79s4.94-.99,6.75-2.79c1.8-1.8,2.79-4.2,2.79-6.75s-.99-4.94-2.79-6.75ZM69.5,38c.98-.98,2.26-1.46,3.54-1.46s2.57.49,3.54,1.46l.8.8-7.08,7.08-.8-.8c-1.95-1.95-1.95-5.13,0-7.08ZM73.5,49.09l7.08-7.08,3.05,3.05c.88.88,2.32.88,3.2,0s.88-2.32,0-3.2l-3.05-3.05.74-.74c.95-.95,2.24-1.53,3.59-1.53,1.34,0,2.6.52,3.55,1.47,1.95,1.95,1.95,5.13,0,7.08l-.8.8-1.07,1.07-9.22,9.22-7.08-7.08ZM93.12,57.06c-.08,1.03-.49,2.01-1.15,2.8-.96,1.13-2.32,1.77-3.79,1.79-1.37.01-2.68-.56-3.65-1.53l-.74-.74,7.08-7.08.8.8c1.05,1.05,1.57,2.47,1.45,3.96h0Z"/>
<path class="cls-11" d="M79.79,63.38l.79-.79-3.19-3.19h-.04s-.7.71-.7.71c-1.14,1.14-2.71,1.63-4.21,1.46l3.98,3.98c1.23-.46,2.38-1.19,3.37-2.18h0Z"/>
<path class="cls-12" d="m80.59 42.01-3.21-3.21-3.55 3.55 3.2 3.2 3.55-3.55z"/>
<path class="cls-10" d="M94.88,49.89l-.8-.8-3.2,3.2.8.8c.84.84,1.34,1.92,1.44,3.08l3.63-3.64c-.46-.97-1.09-1.87-1.88-2.65Z"/>
<path class="cls-8" d="M83.79,38.8l.74-.74c.66-.66,1.47-1.13,2.35-1.36l-3.44-3.44c-.78.44-1.49.99-2.13,1.63l-.71.71,3.2,3.2Z"/>
<path class="cls-9" d="m83.01 53.75-2.42 2.42 3.2 3.2 2.42-2.42-3.2-3.2z"/>
<path class="cls-4" d="M189.92,55.51c-.82.33-1.59.57-2.32.71-.72.14-1.41.21-2.06.21-1.78,0-3.12-.5-4.04-1.51-.91-1.01-1.37-2.35-1.37-4.02v-1.42c0-1.12.21-2.09.61-2.91.41-.82.99-1.46,1.75-1.91.76-.46,1.65-.69,2.67-.69.83,0,1.61.17,2.34.52.74.33,1.34.86,1.79,1.58.47.71.71,1.62.71,2.74,0,.33-.02.69-.07,1.06-.05.36-.13.75-.24,1.16h-6.95c.03.98.28,1.71.73,2.2.46.49,1.19.73,2.2.73.54,0,1.09-.06,1.65-.19.58-.13,1.18-.31,1.79-.57l.78,2.29ZM185.17,46.27c-.72,0-1.29.24-1.7.71-.39.46-.62,1.12-.68,1.98h4.54c.02-.08.02-.15.02-.21v-.21c0-.76-.21-1.32-.64-1.7s-.94-.57-1.54-.57Z"/>
<path class="cls-4" d="M174.46,52.82v-14.1h2.72v14.1c0,.24.05.46.16.68.13.2.36.31.71.31h.38v2.5h-.66c-.9,0-1.58-.17-2.06-.52-.47-.35-.8-.79-.99-1.32-.17-.54-.26-1.09-.26-1.65Z"/>
<path class="cls-4" d="M171.64,50.83c0,1.72-.43,3.08-1.27,4.09-.85,1.01-2.1,1.51-3.73,1.51s-3.43-.47-5.17-1.42v-16.3h2.72v7.09c.72-.72,1.35-1.2,1.87-1.44.52-.25,1.06-.38,1.61-.38,1.26,0,2.24.49,2.93,1.46.71.98,1.06,2.35,1.06,4.11v1.28ZM166.91,46.51c-.38,0-.78.11-1.21.33-.41.22-.92.65-1.54,1.3v5.36c.43.17.81.3,1.16.38.36.08.72.12,1.06.12.88,0,1.51-.28,1.89-.85.38-.57.57-1.34.57-2.31v-1.28c0-1.06-.17-1.83-.52-2.31-.33-.49-.8-.73-1.42-.73Z"/>
<path class="cls-4" d="M143.7,47.9v8.29h-2.72v-11.98h2.58v1.58c.74-.65,1.42-1.11,2.05-1.39.63-.28,1.27-.43,1.94-.43,1.46,0,2.46.65,3,1.94.79-.69,1.52-1.19,2.2-1.49.68-.3,1.36-.45,2.06-.45,1.1,0,1.94.37,2.53,1.11.58.72.87,1.75.87,3.07v8.03h-2.72v-7.7c0-1.32-.5-1.98-1.51-1.98-.39,0-.83.09-1.3.28-.47.19-1.05.56-1.72,1.11v8.29h-2.72v-7.7c0-1.32-.5-1.98-1.51-1.98-.39,0-.83.09-1.3.28-.47.19-1.05.56-1.73,1.11Z"/>
<path class="cls-4" d="M138.32,56.31c-.8,0-1.45-.17-1.94-.5-.47-.33-.82-.74-1.04-1.23-.68.63-1.33,1.09-1.96,1.39-.63.3-1.31.45-2.03.45-1.06,0-1.83-.34-2.34-1.02-.49-.68-.73-1.54-.73-2.57,0-.69.13-1.3.38-1.82.27-.54.7-.95,1.3-1.25.6-.3,1.42-.45,2.46-.45.41,0,.84.03,1.28.09.44.05.88.11,1.32.19v-1.39c0-.66-.18-1.11-.54-1.35-.36-.25-.85-.38-1.46-.38-.47,0-.99.06-1.56.19-.55.13-1.15.32-1.79.59l-.78-2.31c1.59-.65,3.03-.97,4.32-.97,1.17,0,2.06.2,2.69.59.65.39,1.09.91,1.35,1.56.25.65.38,1.34.38,2.08v4.61c0,.24.06.46.19.68.14.2.41.31.8.31h.26v2.5h-.54ZM130.9,52.79c0,.43.09.76.28,1.02.19.24.46.35.83.35s.77-.09,1.23-.28c.46-.19,1.05-.63,1.77-1.32v-1.02c-.82-.14-1.62-.21-2.41-.21-.61,0-1.06.13-1.32.38-.25.25-.38.61-.38,1.09Z"/>
<path class="cls-4" d="M127.1,46.7c-.74,0-1.45.12-2.12.35-.66.22-1.3.58-1.91,1.09v8.05h-2.72v-11.98h2.57v1.84c.8-.76,1.52-1.29,2.15-1.61.63-.31,1.31-.47,2.03-.47v2.72Z"/>
<path class="cls-4" d="M107.12,56.19v-16.06h4.89c1.2,0,2.14.17,2.83.52.71.35,1.21.83,1.51,1.46.31.63.47,1.37.47,2.22v.66c0,1.24-.54,2.2-1.61,2.86.76.3,1.33.73,1.72,1.3.39.57.59,1.24.59,2.03v.66c0,.87-.16,1.63-.47,2.29-.32.65-.83,1.15-1.56,1.51-.72.36-1.69.54-2.9.54h-5.48ZM112.01,42.73h-2.06v4.02h2.06c.63,0,1.1-.14,1.42-.43.33-.3.5-.7.5-1.2v-.78c0-.5-.17-.9-.5-1.18-.32-.28-.79-.43-1.42-.43ZM112.6,49.34h-2.64v4.25h2.64c.66,0,1.17-.16,1.51-.47.35-.31.52-.74.52-1.28v-.78c0-.54-.17-.95-.52-1.25-.35-.31-.85-.47-1.51-.47Z"/>
<path class="cls-4" d="M229.51,54.9c.96,0,1.63-.16,2.01-.47.39-.33.59-.8.59-1.42,0-.52-.16-.94-.47-1.28-.3-.33-.87-.6-1.7-.8l-1.28-.31c-.9-.22-1.58-.61-2.05-1.16-.46-.57-.68-1.25-.68-2.06,0-.55.12-1.06.35-1.54.25-.49.65-.88,1.18-1.18.55-.31,1.28-.47,2.17-.47.58,0,1.17.07,1.77.21.6.13,1.19.33,1.77.61l-.47,1.2c-1.1-.49-2.13-.73-3.07-.73-.74,0-1.32.15-1.72.45-.39.3-.59.75-.59,1.35,0,.46.14.87.43,1.23.3.36.84.64,1.63.83l1.3.31c1.89.44,2.84,1.53,2.84,3.26,0,.6-.12,1.15-.35,1.65-.24.49-.64.88-1.21,1.18-.57.28-1.34.43-2.32.43-.66,0-1.32-.07-1.96-.21-.65-.14-1.31-.36-1.99-.66l.38-1.2c.63.25,1.21.45,1.73.59.54.13,1.11.19,1.72.19Z"/>
<path class="cls-4" d="M219.92,57.14c-.49,1.4-1.08,2.43-1.77,3.09-.69.66-1.65.99-2.88.99v-1.35c.52,0,.96-.06,1.32-.19.38-.13.73-.42,1.06-.87.35-.44.71-1.16,1.09-2.15l.26-.66-4.16-11.55h1.49l1.91,5.5,1.44,4.32,1.42-4.32,1.89-5.5h1.42l-4.49,12.68Z"/>
<path class="cls-4" d="M213.11,49.49v1.42c0,1.67-.42,2.97-1.25,3.9-.84.93-2.01,1.39-3.52,1.39s-2.71-.46-3.54-1.39c-.82-.93-1.23-2.23-1.23-3.9v-1.42c0-1.61.41-2.88,1.23-3.83.84-.96,2.02-1.44,3.54-1.44s2.7.48,3.52,1.44c.83.94,1.25,2.22,1.25,3.83ZM211.62,49.49c0-1.26-.28-2.24-.85-2.93-.57-.69-1.38-1.04-2.43-1.04s-1.87.35-2.43,1.04c-.57.69-.85,1.67-.85,2.93v1.42c0,1.31.28,2.3.85,2.98.57.68,1.38,1.02,2.43,1.02s1.87-.34,2.43-1.02c.57-.68.85-1.67.85-2.98v-1.42Z"/>
<path class="cls-4" d="m192.38 41.29v-1.39h11.17v1.39h-4.82v14.67h-1.54v-14.67h-4.82z"/>
<path class="cls-1" d="M143.01,85.85c-.61,0-1.1-.49-1.1-1.1s.49-1.1,1.1-1.1h2.39c1.1,0,2-.9,2-2v-2.39c0-.61.49-1.1,1.1-1.1s1.1.49,1.1,1.1v2.39c0,1.1.9,2,2,2h2.39c.61,0,1.1.49,1.1,1.1s-.49,1.1-1.1,1.1h-2.39c-1.1,0-2,.9-2,2v2.39c0,.61-.49,1.1-1.1,1.1s-1.1-.49-1.1-1.1v-2.39c0-1.1-.9-2-2-2h-2.39Z"/>
<path class="cls-3" d="M173.32,113.28c1.01,0,1.94.17,2.79.51.85.34,1.59.82,2.21,1.46.62.63,1.1,1.4,1.45,2.3.35.9.52,1.91.52,3.01s-.17,2.11-.52,3.01c-.35.9-.83,1.67-1.45,2.3-.62.63-1.36,1.12-2.21,1.46-.85.34-1.78.51-2.79.51s-1.94-.17-2.79-.51c-.85-.34-1.59-.83-2.21-1.46-.62-.63-1.1-1.4-1.45-2.3-.35-.9-.52-1.9-.52-3.01s.17-2.11.52-3.01c.35-.9.83-1.67,1.45-2.3.62-.63,1.36-1.12,2.21-1.46.85-.34,1.78-.51,2.79-.51ZM115.61,121.94c0,.43.06.83.19,1.19.13.36.31.68.54.95.23.27.51.48.83.63s.67.22,1.05.22.72-.07,1.04-.22c.32-.15.59-.36.82-.63.23-.27.41-.58.54-.95.13-.36.19-.76.19-1.19v-8.4h2.85v8.51c0,.82-.11,1.58-.35,2.27-.23.69-.57,1.29-1.03,1.8-.46.51-1.02.91-1.71,1.19-.68.29-1.47.43-2.35.43s-1.69-.14-2.37-.43c-.68-.29-1.25-.69-1.71-1.19-.46-.51-.8-1.11-1.03-1.8-.23-.69-.35-1.45-.35-2.27v-8.51h2.85v8.4ZM110.91,116.36h-5.82v2.82h5.38v2.82h-5.38v5.4h-2.85v-13.86h8.67v2.82ZM135.65,123.17h.04v-9.63h2.85v13.86h-3.72l-5.64-9.86h-.04v9.86h-2.85v-13.86h3.87l5.49,9.63ZM145.58,113.55c1.03,0,2.02.12,2.95.37.93.25,1.74.65,2.44,1.2.69.56,1.24,1.28,1.65,2.16.41.89.61,1.96.61,3.23,0,1.12-.2,2.11-.59,2.97-.4.85-.93,1.57-1.6,2.15-.67.58-1.44,1.02-2.32,1.32-.88.3-1.79.45-2.76.45h-4.65v-13.86h4.27ZM159.9,113.55c.56,0,1.12.04,1.69.13.57.09,1.07.25,1.52.51.45.25.82.61,1.1,1.07.28.46.42,1.06.42,1.82s-.2,1.43-.61,1.95c-.41.52-.95.88-1.62,1.11v.04c.43.07.81.19,1.16.38.35.19.65.43.89.72.25.29.44.64.57,1.03.13.39.2.81.2,1.25,0,.73-.15,1.34-.44,1.83s-.67.89-1.13,1.18c-.46.3-.98.52-1.56.65-.58.13-1.15.2-1.72.2h-5.29v-13.86h4.82ZM186.46,118.4l2.65-4.85h3.45l-4.18,6.56,4.67,7.3h-3.58l-3.16-5.58-3.07,5.58h-3.38l4.52-7.24-4.27-6.61h3.57l2.76,4.85ZM173.32,116.1c-.61,0-1.16.11-1.65.33-.49.22-.92.53-1.27.93-.35.4-.62.87-.81,1.42-.19.55-.28,1.14-.28,1.78s.1,1.25.28,1.79c.19.54.46,1.01.81,1.41.35.4.78.71,1.27.93.49.22,1.04.33,1.65.33s1.16-.11,1.65-.33c.49-.22.91-.53,1.27-.93.35-.4.62-.87.81-1.41.19-.54.28-1.14.28-1.79s-.09-1.23-.28-1.78c-.19-.55-.46-1.02-.81-1.42-.35-.4-.78-.71-1.27-.93-.49-.22-1.04-.33-1.65-.33ZM157.93,124.82h2.55c.22,0,.44-.03.67-.08.23-.05.43-.14.61-.27.18-.13.33-.3.45-.51.12-.21.17-.46.17-.76,0-.32-.08-.59-.23-.79-.15-.2-.34-.36-.57-.46-.23-.11-.48-.18-.75-.22-.27-.04-.52-.06-.75-.06h-2.15v3.15ZM144.15,124.58h1.48c.65,0,1.27-.07,1.83-.22.57-.14,1.06-.38,1.47-.71.41-.33.74-.77.98-1.31.24-.54.35-1.2.35-1.99,0-.68-.12-1.27-.35-1.77-.24-.5-.56-.92-.96-1.24-.4-.33-.87-.57-1.41-.73-.54-.16-1.11-.24-1.71-.24h-1.68v8.22ZM157.93,119.08h2.06c.22,0,.44-.03.65-.08.21-.05.4-.14.58-.25.17-.12.31-.27.41-.47.1-.19.15-.43.15-.7s-.06-.52-.17-.71c-.12-.19-.26-.34-.45-.44-.18-.1-.39-.18-.62-.22-.23-.05-.46-.07-.68-.07h-1.93v2.95Z"/>
<path class="cls-2" d="M65.62,113.22v14.71c0,.9.47,1.74,1.22,2.19h0l12.32,7.35c.38.23.8.34,1.22.34h0c.42,0,.84-.11,1.22-.34h0l12.32-7.35c.37-.22.66-.53.87-.9h0l-2.64-3.93-4.02-.07v.04l-7.75,4.67-7.75-4.67v-9.35h0s-2.51-3.71-2.51-3.71l-4.14-.29c-.23.39-.37.84-.37,1.32h0Z"/>
<path class="cls-2" d="M79.16,103.68l-12.32,7.35c-.36.21-.65.52-.85.87h0l6.65,4,7.75-4.67,7.75,4.67v9.31l6.66,4c.22-.38.35-.83.35-1.29h0v-14.71c0-.9-.47-1.74-1.22-2.19h0l-12.32-7.35c-.38-.23-.8-.34-1.22-.34h0c-.42,0-.84.11-1.22.34h0Z"/>
<path class="cls-1" d="M196.91,127.8v-14.52h5.02c2.6,0,4.48,1.69,4.48,4.38s-1.88,4.44-4.48,4.44h-3.59v5.7h-1.43ZM198.34,120.82h3.41c1.94,0,3.2-1.18,3.2-3.16s-1.26-3.1-3.18-3.1h-3.43v6.26ZM218.09,127.8l-1.67-4.63h-5.84l-1.65,4.63h-1.51l5.33-14.52h1.53l5.33,14.52h-1.51ZM213.53,114.79h-.04s-.31,1.2-.56,1.88l-1.94,5.27h5l-1.9-5.27c-.25-.68-.56-1.88-.56-1.88ZM225.07,127.8h1.44v-6.24l4.87-8.28h-1.61l-3.08,5.27c-.45.76-.89,1.74-.89,1.74h-.04s-.45-.99-.89-1.74l-3.08-5.27h-1.63l4.89,8.28v6.24Z"/>
<path class="cls-3" d="M37.93,180.71c-.49.25-1.05.46-1.71.62-.64.16-1.35.24-2.11.24s-1.53-.13-2.2-.38c-.66-.25-1.24-.61-1.72-1.06-.48-.46-.85-1-1.12-1.64-.27-.64-.41-1.36-.41-2.14s.14-1.51.41-2.16c.28-.64.66-1.19,1.15-1.64.49-.46,1.05-.81,1.71-1.05.65-.24,1.36-.36,2.11-.36s1.51.12,2.18.36c.67.23,1.22.55,1.64.95l-1.51,1.72c-.23-.27-.54-.49-.92-.66-.38-.18-.82-.27-1.3-.27-.42,0-.81.08-1.16.24-.35.15-.66.36-.92.64-.26.27-.47.6-.62.98-.14.37-.21.78-.21,1.23s.07.88.2,1.26c.13.38.32.71.57.99.26.27.58.49.95.64.38.15.82.22,1.3.22.28,0,.55-.02.8-.06.25-.05.49-.12.7-.21v-1.81h-1.89v-1.93h4.09v5.25ZM44.56,177.02c0-.36-.12-.68-.35-.94-.22-.26-.56-.39-1.02-.39-.22,0-.43.04-.62.11-.19.06-.35.16-.49.28-.14.12-.25.27-.34.43-.08.16-.13.33-.14.5h2.95ZM46.67,177.91v.28c0,.09,0,.18-.01.27h-5.05c.02.2.07.37.17.53.1.16.23.3.38.42.16.11.33.2.52.27.2.06.4.1.6.1.36,0,.67-.07.92-.2.25-.14.46-.32.62-.53l1.6,1.01c-.33.48-.76.84-1.3,1.11-.53.25-1.15.38-1.86.38-.52,0-1.02-.08-1.48-.24-.47-.17-.88-.41-1.23-.71-.35-.32-.62-.7-.83-1.16-.2-.46-.29-.98-.29-1.57s.1-1.08.29-1.54c.2-.47.46-.86.8-1.18.34-.33.73-.58,1.19-.76.46-.18.95-.27,1.48-.27s.98.09,1.41.27c.43.17.8.42,1.11.74.31.33.55.72.71,1.19.18.47.27,1,.27,1.6ZM50.59,176.06v2.66c0,.33.06.57.18.74.13.16.36.24.69.24.11,0,.23-.01.35-.03.13-.02.24-.05.32-.08l.03,1.68c-.16.06-.36.1-.6.14-.24.05-.49.07-.73.07-.47,0-.86-.06-1.18-.17-.32-.12-.57-.29-.77-.5-.19-.22-.32-.49-.41-.78-.08-.31-.13-.65-.13-1.02v-2.94h-1.12v-1.72h1.11v-1.83h2.25v1.83h1.64v1.72h-1.64ZM63.23,181.31l-3.99-6.48h-.04l.06,6.48h-2.32v-9.91h2.73l3.98,6.47h.04l-.06-6.47h2.32v9.91h-2.72ZM67.99,181.31v-9.91h6.66v2.03h-4.35v1.86h4.12v1.92h-4.12v2.06h4.61v2.04h-6.92ZM80.74,173.44v7.87h-2.39v-7.87h-2.8v-2.04h7.99v2.04h-2.8ZM82.85,178.55v-1.82h3.56v1.82h-3.56ZM95.33,177.98c0,.56-.1,1.06-.31,1.51-.21.45-.49.83-.84,1.13-.35.31-.77.54-1.25.7-.48.17-.98.25-1.51.25s-1.05-.08-1.53-.25c-.47-.16-.88-.39-1.23-.7-.35-.31-.63-.68-.84-1.12-.21-.44-.31-.93-.31-1.47,0-.59.1-1.12.31-1.6.21-.49.47-.98.8-1.47l2.39-3.57h2.84l-2.44,3.39-.04.07c.09-.04.21-.07.34-.08.13-.02.25-.03.36-.03.43,0,.84.08,1.23.24.4.15.75.37,1.04.66.3.28.54.62.71,1.02.18.39.27.83.27,1.32ZM92.98,178.03c0-.45-.14-.82-.42-1.11-.28-.3-.65-.45-1.12-.45s-.84.14-1.13.43c-.29.29-.43.67-.43,1.13,0,.43.14.8.42,1.11s.66.46,1.13.46.84-.15,1.12-.43c.29-.29.43-.67.43-1.15ZM104.37,176.32c0,.7-.07,1.37-.21,2-.14.63-.36,1.19-.67,1.68-.31.48-.71.86-1.2,1.15-.49.28-1.08.42-1.78.42s-1.3-.14-1.79-.42c-.49-.29-.9-.67-1.22-1.15-.31-.49-.53-1.05-.67-1.68-.14-.63-.21-1.3-.21-2s.07-1.36.21-1.99c.14-.64.36-1.19.67-1.65.32-.48.72-.85,1.22-1.13.49-.28,1.09-.42,1.79-.42s1.29.14,1.78.42c.49.28.9.66,1.2,1.13.31.47.53,1.02.67,1.65.14.62.21,1.29.21,1.99ZM101.96,176.32c0-.31-.02-.65-.06-1.02-.04-.37-.11-.72-.21-1.04-.1-.33-.25-.6-.45-.81-.19-.22-.43-.34-.74-.34s-.56.11-.76.34c-.2.21-.35.49-.46.81-.1.32-.17.66-.21,1.04s-.06.71-.06,1.02.02.67.06,1.05c.04.37.11.72.21,1.05.11.32.27.59.46.81.2.21.45.32.76.32s.56-.11.74-.32c.2-.22.34-.49.45-.81.1-.33.17-.68.21-1.05.04-.38.06-.73.06-1.05ZM105.44,178.38v-1.46h7.56v1.46h-7.56ZM121.7,177.79c0,.57-.1,1.09-.31,1.55-.21.46-.49.85-.84,1.18-.36.32-.76.56-1.23.74-.47.18-.97.27-1.5.27s-1.02-.09-1.5-.27c-.47-.18-.88-.43-1.23-.74-.35-.33-.62-.72-.83-1.18-.21-.47-.31-.99-.31-1.55s.1-1.08.31-1.54c.21-.46.48-.85.83-1.16.35-.32.76-.56,1.23-.73.48-.17.97-.25,1.5-.25s1.03.08,1.5.25.88.41,1.23.73c.35.32.63.7.84,1.16.21.46.31.97.31,1.54ZM119.49,177.79c0-.22-.04-.44-.11-.66-.07-.21-.18-.4-.32-.56-.14-.17-.31-.3-.52-.41-.21-.1-.44-.15-.71-.15s-.51.05-.71.15c-.21.1-.38.24-.52.41-.13.16-.23.35-.31.56-.06.21-.1.43-.1.66s.03.44.1.66c.08.21.18.41.32.59.14.17.31.3.52.41.2.1.44.15.71.15s.51-.05.71-.15c.2-.1.38-.24.52-.41.14-.18.24-.37.31-.59.07-.21.11-.43.11-.66ZM127.68,176.21c-.1-.03-.21-.05-.31-.06-.09,0-.19-.01-.28-.01-.31,0-.57.06-.78.17-.21.11-.37.25-.5.41-.12.16-.21.33-.27.52-.06.19-.08.35-.08.49v3.58h-2.3v-6.97h2.21v1.01h.03c.18-.35.43-.64.76-.87.33-.22.7-.34,1.13-.34.09,0,.18,0,.27.01.09,0,.17.02.22.04l-.1,2.02ZM132.23,181.31v-10.58h2.32v10.58h-2.32ZM143.77,177.79c0,.57-.1,1.09-.31,1.55-.21.46-.49.85-.84,1.18-.35.32-.77.56-1.23.74-.47.18-.97.27-1.5.27s-1.02-.09-1.5-.27c-.47-.18-.88-.43-1.23-.74-.35-.33-.62-.72-.83-1.18-.21-.47-.31-.99-.31-1.55s.1-1.08.31-1.54c.21-.46.48-.85.83-1.16.35-.32.76-.56,1.23-.73.48-.17.98-.25,1.5-.25s1.03.08,1.5.25c.47.17.88.41,1.23.73.35.32.63.7.84,1.16.21.46.31.97.31,1.54ZM141.55,177.79c0-.22-.04-.44-.11-.66-.07-.21-.18-.4-.32-.56-.14-.17-.31-.3-.52-.41-.21-.1-.44-.15-.71-.15s-.51.05-.71.15c-.21.1-.38.24-.52.41-.13.16-.23.35-.31.56-.07.21-.1.43-.1.66s.03.44.1.66c.07.21.18.41.32.59.14.17.31.3.52.41.21.1.44.15.71.15s.51-.05.71-.15c.21-.1.38-.24.52-.41.14-.18.24-.37.31-.59.07-.21.11-.43.11-.66ZM149.8,181.31v-3.81c0-.2-.02-.38-.06-.56-.03-.18-.08-.33-.15-.46-.07-.14-.18-.25-.32-.32-.13-.08-.3-.13-.5-.13s-.39.04-.55.13c-.15.07-.27.18-.38.32-.1.14-.18.3-.24.49-.05.18-.07.36-.07.56v3.78h-2.31v-6.97h2.23v.97h.03c.08-.15.19-.29.32-.43.14-.15.3-.28.48-.38.19-.1.39-.19.6-.25.21-.07.44-.1.69-.1.47,0,.86.08,1.19.25.33.17.59.39.78.66.21.26.35.56.43.91.09.35.14.69.14,1.04v4.31h-2.31ZM161.24,180.65c0,.68-.1,1.27-.29,1.78s-.47.92-.83,1.25c-.35.34-.79.58-1.3.74-.5.17-1.06.25-1.68.25s-1.25-.09-1.9-.28c-.64-.19-1.2-.46-1.68-.81l1.15-1.64c.34.3.71.52,1.11.66.41.15.81.22,1.2.22.67,0,1.17-.18,1.48-.53.33-.35.49-.83.49-1.41v-.42h-.04c-.21.28-.5.5-.87.67s-.78.25-1.25.25c-.53,0-1-.09-1.41-.28-.41-.2-.76-.46-1.05-.78-.28-.33-.49-.71-.64-1.13-.15-.44-.22-.9-.22-1.39s.07-.95.22-1.39c.15-.44.36-.83.64-1.16.29-.34.64-.6,1.05-.8.41-.21.88-.31,1.4-.31.44,0,.86.09,1.26.27.4.18.72.45.97.83h.03v-.9h2.17v6.31ZM159.05,177.78c0-.23-.04-.46-.13-.67-.07-.21-.19-.4-.34-.56-.15-.17-.33-.3-.53-.39-.21-.09-.44-.14-.7-.14s-.49.05-.7.14c-.2.09-.36.22-.5.38-.14.16-.25.35-.32.56-.07.21-.11.44-.11.69s.04.46.11.67c.07.21.18.41.32.57.14.16.31.29.5.39.21.09.44.14.7.14s.49-.05.7-.14c.21-.1.39-.23.53-.39.15-.16.26-.35.34-.56.08-.21.13-.44.13-.69ZM167.86,177.02c0-.36-.12-.68-.35-.94-.22-.26-.57-.39-1.02-.39-.22,0-.43.04-.62.11-.19.06-.35.16-.49.28-.14.12-.25.27-.34.43-.08.16-.13.33-.14.5h2.95ZM169.98,177.91v.28c0,.09,0,.18-.01.27h-5.05c.02.2.07.37.17.53.1.16.23.3.38.42.16.11.33.2.52.27.2.06.4.1.6.1.36,0,.67-.07.92-.2.25-.14.46-.32.62-.53l1.6,1.01c-.33.48-.76.84-1.3,1.11-.53.25-1.15.38-1.86.38-.52,0-1.02-.08-1.48-.24-.47-.17-.88-.41-1.23-.71-.35-.32-.62-.7-.83-1.16-.2-.46-.29-.98-.29-1.57s.1-1.08.29-1.54c.2-.47.46-.86.8-1.18.34-.33.73-.58,1.19-.76.46-.18.95-.27,1.48-.27s.99.09,1.41.27c.43.17.8.42,1.11.74.31.33.55.72.71,1.19.18.47.27,1,.27,1.6ZM175.92,176.21c-.1-.03-.21-.05-.31-.06-.09,0-.19-.01-.28-.01-.31,0-.57.06-.78.17-.21.11-.37.25-.5.41-.12.16-.21.33-.27.52-.06.19-.08.35-.08.49v3.58h-2.3v-6.97h2.21v1.01h.03c.18-.35.43-.64.76-.87s.71-.34,1.13-.34c.09,0,.18,0,.27.01.09,0,.17.02.22.04l-.1,2.02ZM182.94,172.11c0,.18-.04.35-.11.5-.07.15-.16.28-.28.39-.11.11-.25.2-.42.27-.16.07-.33.1-.5.1-.37,0-.69-.12-.94-.36-.25-.25-.38-.55-.38-.9,0-.17.03-.33.1-.48.07-.16.16-.29.28-.41.12-.11.26-.2.42-.27.16-.07.33-.11.52-.11.18,0,.35.03.5.1.17.07.31.15.42.27.12.11.21.25.28.41.07.15.11.31.11.49ZM180.48,181.31v-6.97h2.3v6.97h-2.3ZM188.92,172.42c-.08-.03-.18-.05-.29-.07-.11-.02-.22-.03-.34-.03-.21,0-.39.04-.52.11-.13.07-.23.18-.31.31-.07.12-.13.26-.15.42-.03.16-.04.32-.04.48v.7h1.55v1.72h-1.55v5.25h-2.3v-5.25h-1.27v-1.72h1.27v-.67c0-.43.05-.84.14-1.22.09-.39.25-.73.48-1.02.23-.3.54-.53.92-.7.39-.18.88-.27,1.46-.27.2,0,.39.01.57.04.2.02.37.05.53.1l-.15,1.82ZM197.47,182.36c-.14.36-.3.69-.48.97-.17.29-.37.53-.62.73-.23.21-.51.36-.84.46-.32.1-.7.15-1.13.15-.22,0-.44-.01-.67-.04-.22-.03-.42-.07-.59-.11l.25-1.93c.11.04.23.07.36.08.14.03.27.04.38.04.35,0,.61-.08.77-.25.16-.16.29-.39.41-.69l.22-.57-2.91-6.86h2.55l1.55,4.48h.04l1.39-4.48h2.44l-3.12,8.02ZM208.87,177.79c0,.57-.1,1.09-.31,1.55-.21.46-.49.85-.84,1.18-.36.32-.77.56-1.23.74-.47.18-.97.27-1.5.27s-1.02-.09-1.5-.27c-.47-.18-.88-.43-1.23-.74-.35-.33-.62-.72-.83-1.18-.21-.47-.31-.99-.31-1.55s.1-1.08.31-1.54c.21-.46.48-.85.83-1.16.35-.32.76-.56,1.23-.73.48-.17.98-.25,1.5-.25s1.03.08,1.5.25.88.41,1.23.73c.35.32.63.7.84,1.16.21.46.31.97.31,1.54ZM206.66,177.79c0-.22-.04-.44-.11-.66-.07-.21-.18-.4-.32-.56-.14-.17-.31-.3-.52-.41-.21-.1-.44-.15-.71-.15s-.51.05-.71.15c-.21.1-.38.24-.52.41-.13.16-.23.35-.31.56-.07.21-.1.43-.1.66s.03.44.1.66c.07.21.18.41.32.59.14.17.31.3.52.41.21.1.44.15.71.15s.51-.05.71-.15c.21-.1.38-.24.52-.41.14-.18.24-.37.31-.59.07-.21.11-.43.11-.66ZM214.92,181.31v-.97h-.03c-.08.16-.2.31-.34.45-.13.14-.29.26-.48.36-.18.1-.38.19-.6.25-.22.07-.44.1-.69.1-.47,0-.86-.08-1.19-.25-.32-.17-.58-.38-.78-.64-.2-.27-.34-.57-.43-.91-.08-.35-.13-.7-.13-1.05v-4.31h2.31v3.78c0,.2.01.38.04.56.03.18.08.34.15.48.08.14.19.25.32.34.13.07.3.11.52.11.4,0,.7-.15.91-.45.21-.3.32-.65.32-1.05v-3.77h2.3v6.97h-2.21ZM227,181.31v-3.81c0-.2-.02-.38-.06-.56-.03-.18-.08-.33-.15-.46-.07-.14-.18-.25-.32-.32-.13-.08-.3-.13-.5-.13s-.39.04-.55.13c-.15.07-.27.18-.38.32-.1.14-.18.3-.24.49-.05.18-.07.36-.07.56v3.78h-2.31v-6.97h2.23v.97h.03c.08-.15.19-.29.32-.43.14-.15.3-.28.48-.38.19-.1.39-.19.6-.25.21-.07.44-.1.69-.1.47,0,.86.08,1.19.25.33.17.59.39.78.66.21.26.35.56.43.91.09.35.14.69.14,1.04v4.31h-2.31ZM235.85,177.02c0-.36-.12-.68-.35-.94-.22-.26-.56-.39-1.02-.39-.22,0-.43.04-.62.11-.19.06-.35.16-.49.28-.14.12-.25.27-.34.43-.08.16-.13.33-.14.5h2.95ZM237.97,177.91v.28c0,.09,0,.18-.01.27h-5.05c.02.2.07.37.17.53.1.16.23.3.38.42.16.11.33.2.52.27.2.06.4.1.6.1.36,0,.67-.07.92-.2.25-.14.46-.32.62-.53l1.6,1.01c-.33.48-.76.84-1.3,1.11-.53.25-1.15.38-1.86.38-.52,0-1.02-.08-1.48-.24-.47-.17-.88-.41-1.23-.71-.35-.32-.62-.7-.83-1.16-.2-.46-.29-.98-.29-1.57s.1-1.08.29-1.54c.2-.47.46-.86.8-1.18.34-.33.73-.58,1.19-.76.46-.18.95-.27,1.48-.27s.99.09,1.41.27c.43.17.8.42,1.11.74.31.33.55.72.71,1.19.18.47.27,1,.27,1.6ZM244.19,177.02c0-.36-.12-.68-.35-.94-.22-.26-.57-.39-1.02-.39-.22,0-.43.04-.62.11-.19.06-.35.16-.49.28-.14.12-.25.27-.34.43-.08.16-.13.33-.14.5h2.95ZM246.31,177.91v.28c0,.09,0,.18-.01.27h-5.05c.02.2.07.37.17.53.1.16.23.3.38.42.16.11.33.2.52.27.2.06.4.1.6.1.36,0,.67-.07.92-.2.25-.14.46-.32.62-.53l1.6,1.01c-.33.48-.76.84-1.3,1.11-.53.25-1.15.38-1.86.38-.52,0-1.02-.08-1.48-.24-.47-.17-.88-.41-1.23-.71-.35-.32-.62-.7-.83-1.16-.2-.46-.29-.98-.29-1.57s.1-1.08.29-1.54c.2-.47.46-.86.8-1.18.34-.33.73-.58,1.19-.76.46-.18.95-.27,1.48-.27s.99.09,1.41.27c.43.17.8.42,1.11.74.31.33.55.72.71,1.19.18.47.27,1,.27,1.6ZM253.01,181.31v-.91h-.03c-.22.35-.55.63-.97.83-.41.19-.85.28-1.32.28-.52,0-.99-.1-1.4-.31-.41-.21-.76-.48-1.05-.81-.28-.35-.49-.74-.64-1.19-.15-.45-.22-.92-.22-1.4s.07-.95.22-1.39c.16-.45.38-.84.66-1.18.29-.34.63-.6,1.04-.8.41-.2.87-.29,1.37-.29s.95.1,1.3.29c.35.2.63.41.83.64h.03v-4.35h2.3v10.58h-2.11ZM252.93,177.81c0-.22-.04-.44-.13-.66-.07-.21-.19-.41-.34-.57-.14-.17-.31-.3-.52-.41-.21-.1-.44-.15-.7-.15s-.51.05-.71.15c-.21.1-.38.24-.52.41-.14.16-.25.35-.32.56-.06.21-.1.43-.1.66s.03.45.1.67c.08.21.18.41.32.57s.31.3.52.41c.2.1.44.15.71.15s.5-.05.7-.15c.2-.1.38-.24.52-.41.15-.17.26-.36.34-.57.08-.21.13-.43.13-.66ZM262.94,172.11c0,.18-.04.35-.11.5-.07.15-.16.28-.28.39-.11.11-.25.2-.42.27-.16.07-.33.1-.5.1-.37,0-.69-.12-.94-.36-.25-.25-.38-.55-.38-.9,0-.17.03-.33.1-.48.07-.16.16-.29.28-.41.12-.11.26-.2.42-.27.16-.07.33-.11.52-.11.18,0,.35.03.5.1.17.07.31.15.42.27.12.11.21.25.28.41.07.15.11.31.11.49ZM260.47,181.31v-6.97h2.3v6.97h-2.3ZM267.08,176.06v2.66c0,.33.06.57.18.74.13.16.36.24.69.24.11,0,.23-.01.35-.03.13-.02.24-.05.32-.08l.03,1.68c-.16.06-.36.1-.6.14-.24.05-.48.07-.73.07-.47,0-.86-.06-1.18-.17-.32-.12-.57-.29-.77-.5-.19-.22-.32-.49-.41-.78-.08-.31-.13-.65-.13-1.02v-2.94h-1.12v-1.72h1.11v-1.83h2.25v1.83h1.64v1.72h-1.64Z"/>
<path class="cls-3" d="M39.55,200.52h2.8c.5,0,.96.06,1.37.17.41.1.76.27,1.05.49.3.22.53.49.69.83.16.33.24.71.24,1.16s-.08.84-.25,1.18c-.16.33-.39.6-.69.83-.29.21-.64.38-1.06.49-.41.11-.87.17-1.37.17h-1.76v4.61h-1.01v-9.91ZM40.55,204.97h1.71c.79,0,1.4-.15,1.81-.46.41-.31.62-.76.62-1.34s-.21-1.06-.64-1.34c-.42-.29-1.01-.43-1.78-.43h-1.71v3.58ZM50.91,206.21c0-.57-.15-.99-.45-1.27-.3-.28-.73-.42-1.3-.42-.39,0-.76.07-1.09.21-.34.14-.62.33-.85.56l-.53-.63c.27-.27.63-.49,1.06-.67.45-.18.95-.27,1.51-.27.35,0,.69.05.99.15.31.09.58.24.81.43s.42.44.55.74c.13.3.2.65.2,1.05v2.87c0,.25,0,.51.03.78s.05.5.08.69h-.85c-.03-.16-.05-.33-.07-.52s-.03-.37-.03-.55h-.03c-.3.44-.64.76-1.02.95-.37.19-.83.28-1.36.28-.25,0-.51-.04-.78-.11-.26-.07-.5-.18-.73-.34-.21-.16-.4-.36-.55-.62-.14-.25-.21-.56-.21-.92,0-.5.13-.9.38-1.19.26-.3.61-.52,1.04-.66.43-.15.92-.24,1.47-.28.56-.05,1.14-.07,1.74-.07v-.21ZM50.63,207.16c-.39,0-.79.02-1.19.06-.39.03-.75.09-1.08.2-.32.09-.58.23-.78.42s-.31.43-.31.74c0,.23.04.43.13.59.09.16.21.29.36.39.15.09.31.16.49.21.19.04.37.06.56.06.34,0,.63-.06.9-.17.26-.12.48-.28.66-.48.18-.21.31-.44.41-.7s.14-.54.14-.83v-.49h-.28ZM56.51,209.41h.03l2.03-5.53h1.04l-3.26,8.25c-.2.5-.45.9-.76,1.2-.3.31-.73.46-1.3.46-.29,0-.57-.03-.85-.08l.1-.87c.22.08.46.11.7.11.33,0,.58-.1.77-.31.19-.2.35-.48.49-.85l.53-1.37-2.8-6.54h1.06l2.23,5.53ZM68.72,206.21c0-.57-.15-.99-.45-1.27-.3-.28-.73-.42-1.3-.42-.39,0-.76.07-1.09.21-.34.14-.62.33-.85.56l-.53-.63c.27-.27.63-.49,1.06-.67.45-.18.95-.27,1.51-.27.35,0,.69.05.99.15.31.09.58.24.81.43.23.2.42.44.55.74.13.3.2.65.2,1.05v2.87c0,.25,0,.51.03.78.02.27.05.5.08.69h-.85c-.03-.16-.05-.33-.07-.52-.02-.19-.03-.37-.03-.55h-.03c-.3.44-.64.76-1.02.95-.37.19-.83.28-1.36.28-.25,0-.51-.04-.78-.11-.26-.07-.5-.18-.73-.34-.21-.16-.4-.36-.55-.62-.14-.25-.21-.56-.21-.92,0-.5.13-.9.38-1.19.26-.3.61-.52,1.04-.66.43-.15.92-.24,1.47-.28.56-.05,1.14-.07,1.74-.07v-.21ZM68.44,207.16c-.39,0-.79.02-1.19.06-.39.03-.75.09-1.08.2-.32.09-.58.23-.78.42-.21.19-.31.43-.31.74,0,.23.04.43.13.59.09.16.21.29.36.39.15.09.31.16.49.21.19.04.37.06.56.06.34,0,.63-.06.9-.17.26-.12.48-.28.66-.48.18-.21.31-.44.41-.7.09-.26.14-.54.14-.83v-.49h-.28ZM75.7,203.88l1.58,5.32h.03l1.76-5.32h.92l1.79,5.32h.03l1.57-5.32h1.01l-2.07,6.55h-1.04l-1.75-5.31h-.03l-1.72,5.31h-1.04l-2.07-6.55h1.02ZM91.01,206.65c-.03-.62-.23-1.12-.6-1.53-.36-.41-.89-.62-1.57-.62-.32,0-.61.06-.88.18-.27.11-.51.27-.71.48-.21.2-.37.43-.49.69-.12.25-.19.52-.21.8h4.47ZM91.98,206.96v.21c0,.07,0,.15-.01.24h-5.43c0,.33.07.63.2.92.12.29.29.54.5.76.21.21.47.39.76.52.29.12.6.18.94.18.49,0,.92-.11,1.27-.34.36-.23.64-.5.83-.8l.71.56c-.39.49-.83.85-1.3,1.06-.47.21-.97.32-1.51.32-.49,0-.94-.08-1.36-.25-.41-.18-.77-.42-1.06-.73-.3-.31-.54-.67-.71-1.09-.17-.42-.25-.88-.25-1.37s.08-.95.25-1.37.4-.78.7-1.09c.3-.31.65-.55,1.05-.71.4-.18.84-.27,1.3-.27.51,0,.97.09,1.36.27.39.17.72.4.98.7.26.29.46.63.59,1.02.14.39.21.81.21,1.26ZM99.02,206.65c-.03-.62-.23-1.12-.6-1.53-.36-.41-.89-.62-1.57-.62-.32,0-.61.06-.88.18-.27.11-.51.27-.71.48-.21.2-.37.43-.49.69-.12.25-.19.52-.21.8h4.47ZM99.99,206.96v.21c0,.07,0,.15-.01.24h-5.43c0,.33.07.63.2.92s.29.54.5.76.47.39.76.52c.29.12.6.18.94.18.49,0,.92-.11,1.27-.34.36-.23.64-.5.83-.8l.71.56c-.39.49-.83.85-1.3,1.06-.47.21-.97.32-1.51.32-.49,0-.94-.08-1.36-.25-.41-.18-.77-.42-1.06-.73s-.54-.67-.71-1.09c-.17-.42-.25-.88-.25-1.37s.08-.95.25-1.37.4-.78.7-1.09.65-.55,1.05-.71c.4-.18.84-.27,1.3-.27.51,0,.97.09,1.36.27.39.17.72.4.98.7.26.29.46.63.59,1.02.14.39.21.81.21,1.26ZM103.02,206.84h.04l3.02-2.95h1.37l-3.3,3,3.64,3.56h-1.4l-3.33-3.44h-.04v3.44h-.95v-10.58h.95v6.99ZM110.15,210.43h-.95v-10.58h.95v10.58ZM114.96,209.41h.03l2.03-5.53h1.04l-3.26,8.25c-.2.5-.45.9-.76,1.2-.3.31-.73.46-1.3.46-.29,0-.57-.03-.85-.08l.1-.87c.22.08.46.11.7.11.33,0,.58-.1.77-.31.19-.2.35-.48.49-.85l.53-1.37-2.8-6.54h1.06l2.23,5.53ZM125.81,204.68h-1.54v5.75h-.95v-5.75h-1.37v-.8h1.37v-1.79c0-.75.18-1.33.55-1.76s.92-.64,1.68-.64c.12,0,.25,0,.39.03.14,0,.27.03.39.07l-.17.84c-.1-.03-.21-.05-.31-.07-.1-.02-.22-.03-.35-.03-.25,0-.46.04-.63.13-.16.08-.28.21-.38.36-.08.15-.14.33-.18.53-.03.2-.04.42-.04.66v1.68h1.54v.8ZM132.16,206.65c-.03-.62-.23-1.12-.6-1.53-.36-.41-.89-.62-1.57-.62-.32,0-.61.06-.88.18-.27.11-.51.27-.71.48-.21.2-.37.43-.49.69-.12.25-.19.52-.21.8h4.47ZM133.13,206.96v.21c0,.07,0,.15-.01.24h-5.43c.01.33.08.63.2.92.12.29.29.54.5.76.22.21.47.39.76.52.29.12.6.18.94.18.5,0,.92-.11,1.27-.34.36-.23.64-.5.83-.8l.71.56c-.39.49-.83.85-1.3,1.06-.47.21-.97.32-1.51.32-.49,0-.94-.08-1.36-.25-.41-.18-.76-.42-1.06-.73-.3-.31-.54-.67-.71-1.09-.17-.42-.25-.88-.25-1.37s.08-.95.25-1.37.4-.78.7-1.09c.3-.31.65-.55,1.05-.71.4-.18.84-.27,1.3-.27.51,0,.97.09,1.36.27.39.17.72.4.98.7.26.29.46.63.59,1.02.14.39.21.81.21,1.26ZM140.18,206.65c-.03-.62-.23-1.12-.6-1.53-.36-.41-.89-.62-1.57-.62-.32,0-.61.06-.88.18-.27.11-.51.27-.71.48-.21.2-.37.43-.49.69-.12.25-.19.52-.21.8h4.47ZM141.14,206.96v.21c0,.07,0,.15-.01.24h-5.43c0,.33.07.63.2.92s.29.54.5.76.47.39.76.52c.29.12.6.18.94.18.49,0,.92-.11,1.27-.34.36-.23.64-.5.83-.8l.71.56c-.39.49-.83.85-1.3,1.06-.47.21-.97.32-1.51.32-.49,0-.94-.08-1.36-.25-.41-.18-.76-.42-1.06-.73-.3-.31-.54-.67-.71-1.09-.17-.42-.25-.88-.25-1.37s.08-.95.25-1.37.4-.78.7-1.09.65-.55,1.05-.71c.4-.18.83-.27,1.3-.27.51,0,.97.09,1.36.27.39.17.72.4.98.7.26.29.46.63.59,1.02.14.39.21.81.21,1.26ZM147.66,210.43h-.95v-6.55h.95v6.55ZM147.85,201.36c0,.2-.07.36-.21.49-.14.12-.29.18-.46.18s-.32-.06-.46-.18c-.14-.13-.21-.29-.21-.49s.07-.35.21-.48c.14-.13.29-.2.46-.2s.32.07.46.2c.14.12.21.28.21.48ZM152.96,204.68h-1.54v5.75h-.95v-5.75h-1.37v-.8h1.37v-1.79c0-.75.18-1.33.55-1.76s.92-.64,1.68-.64c.12,0,.25,0,.39.03.14,0,.27.03.39.07l-.17.84c-.1-.03-.21-.05-.31-.07-.1-.02-.22-.03-.35-.03-.25,0-.46.04-.63.13-.16.08-.28.21-.38.36-.08.15-.15.33-.18.53-.03.2-.04.42-.04.66v1.68h1.54v.8ZM160.41,209.41h.03l2.03-5.53h1.04l-3.26,8.25c-.2.5-.45.9-.76,1.2-.3.31-.73.46-1.3.46-.29,0-.57-.03-.85-.08l.1-.87c.22.08.46.11.7.11.33,0,.58-.1.77-.31.19-.2.35-.48.49-.85l.53-1.37-2.8-6.54h1.06l2.23,5.53ZM171.51,207.16c0,.49-.09.95-.27,1.37-.17.42-.41.78-.71,1.09-.31.31-.68.55-1.11.73-.43.17-.9.25-1.41.25s-.97-.08-1.4-.25c-.43-.18-.8-.42-1.11-.73-.31-.31-.55-.67-.73-1.09-.17-.42-.25-.88-.25-1.37s.08-.95.25-1.37c.18-.42.42-.78.73-1.09.31-.31.68-.55,1.11-.71.43-.18.9-.27,1.4-.27s.99.09,1.41.27c.43.17.8.41,1.11.71.31.31.55.67.71,1.09.18.42.27.88.27,1.37ZM170.5,207.16c0-.36-.06-.71-.18-1.02-.11-.33-.27-.61-.49-.84-.21-.24-.48-.43-.78-.57s-.65-.21-1.04-.21-.73.07-1.04.21c-.3.14-.55.33-.77.57-.21.23-.38.51-.5.84-.11.32-.17.66-.17,1.02s.06.71.17,1.04c.12.32.29.6.5.84.21.23.47.42.77.56.31.13.65.2,1.04.2s.73-.06,1.04-.2c.31-.14.57-.33.78-.56.22-.24.38-.52.49-.84.12-.33.18-.67.18-1.04ZM178.32,210.43c-.02-.18-.03-.37-.04-.59,0-.21-.01-.39-.01-.53h-.03c-.19.38-.49.7-.91.94-.42.23-.86.35-1.33.35-.83,0-1.46-.25-1.88-.74-.41-.49-.62-1.15-.62-1.96v-4.02h.95v3.63c0,.35.03.66.08.94s.15.52.28.73c.14.2.32.35.55.46.23.11.52.17.87.17.25,0,.5-.05.73-.15.24-.1.46-.26.64-.46.19-.21.34-.48.45-.8.11-.33.17-.71.17-1.15v-3.36h.95v5.11c0,.18,0,.41.01.69,0,.28.02.53.04.76h-.91ZM186.04,203.88c.02.18.03.37.04.59,0,.21.01.39.01.53h.03c.19-.38.49-.69.91-.92.42-.24.86-.36,1.33-.36.83,0,1.45.25,1.86.74.42.5.63,1.15.63,1.96v4.02h-.95v-3.63c0-.35-.03-.66-.08-.94s-.15-.52-.29-.71c-.13-.21-.31-.36-.55-.48-.22-.11-.51-.17-.85-.17-.25,0-.5.05-.74.15-.23.1-.44.26-.63.48-.19.21-.34.47-.45.8-.11.32-.17.69-.17,1.13v3.36h-.95v-5.11c0-.18,0-.41-.01-.69,0-.28-.02-.53-.04-.76h.91ZM198.32,206.65c-.03-.62-.23-1.12-.6-1.53-.36-.41-.89-.62-1.57-.62-.32,0-.61.06-.88.18-.27.11-.51.27-.71.48-.21.2-.37.43-.49.69-.12.25-.19.52-.21.8h4.47ZM199.29,206.96v.21c0,.07,0,.15-.01.24h-5.43c0,.33.07.63.2.92.12.29.29.54.5.76.21.21.47.39.76.52.29.12.6.18.94.18.49,0,.92-.11,1.27-.34.36-.23.64-.5.83-.8l.71.56c-.39.49-.83.85-1.3,1.06-.47.21-.97.32-1.51.32-.49,0-.94-.08-1.36-.25-.41-.18-.76-.42-1.06-.73-.3-.31-.54-.67-.71-1.09-.17-.42-.25-.88-.25-1.37s.08-.95.25-1.37.4-.78.7-1.09c.3-.31.65-.55,1.05-.71.4-.18.84-.27,1.3-.27.51,0,.97.09,1.36.27.39.17.72.4.98.7.26.29.46.63.59,1.02.14.39.21.81.21,1.26ZM206.34,206.65c-.03-.62-.23-1.12-.6-1.53-.36-.41-.89-.62-1.57-.62-.32,0-.61.06-.88.18-.27.11-.51.27-.71.48-.21.2-.37.43-.49.69-.12.25-.19.52-.21.8h4.47ZM207.3,206.96v.21c0,.07,0,.15-.01.24h-5.43c0,.33.07.63.2.92s.29.54.5.76c.22.21.47.39.76.52.29.12.6.18.94.18.5,0,.92-.11,1.27-.34.36-.23.64-.5.83-.8l.71.56c-.39.49-.83.85-1.3,1.06-.47.21-.97.32-1.51.32-.48,0-.94-.08-1.36-.25-.41-.18-.76-.42-1.06-.73-.3-.31-.54-.67-.71-1.09-.17-.42-.25-.88-.25-1.37s.08-.95.25-1.37.4-.78.7-1.09.65-.55,1.05-.71c.4-.18.83-.27,1.3-.27.51,0,.97.09,1.36.27.39.17.72.4.98.7.26.29.46.63.59,1.02.14.39.21.81.21,1.26ZM214.74,209.33c-.28.42-.64.74-1.09.95s-.91.32-1.39.32c-.51,0-.98-.09-1.4-.27-.41-.18-.76-.42-1.06-.73-.29-.31-.52-.67-.69-1.09-.16-.42-.24-.87-.24-1.36s.08-.94.24-1.36c.17-.42.4-.78.69-1.09.3-.31.65-.55,1.06-.73.42-.18.89-.27,1.4-.27.48,0,.94.11,1.39.34.45.21.81.54,1.09.97h.03v-5.17h.95v10.58h-.95v-1.11h-.03ZM209.88,207.16c0,.36.06.71.17,1.04.11.32.27.6.48.84.22.23.48.42.78.56.31.13.66.2,1.05.2.36,0,.7-.06,1.01-.2.31-.14.57-.33.8-.56.22-.23.4-.51.52-.83.13-.33.2-.68.2-1.05s-.07-.72-.2-1.04c-.12-.33-.29-.61-.52-.84-.22-.24-.49-.43-.8-.56-.31-.14-.64-.21-1.01-.21-.39,0-.74.07-1.05.21s-.57.33-.78.57c-.2.23-.36.51-.48.84-.11.32-.17.66-.17,1.02ZM225.89,206.21c0-.57-.15-.99-.45-1.27-.3-.28-.73-.42-1.3-.42-.39,0-.76.07-1.09.21s-.62.33-.85.56l-.53-.63c.27-.27.62-.49,1.06-.67.45-.18.95-.27,1.51-.27.35,0,.69.05.99.15.31.09.58.24.81.43s.42.44.55.74c.13.3.2.65.2,1.05v2.87c0,.25,0,.51.03.78s.05.5.08.69h-.85c-.03-.16-.05-.33-.07-.52-.02-.19-.03-.37-.03-.55h-.03c-.3.44-.64.76-1.02.95-.37.19-.83.28-1.36.28-.25,0-.51-.04-.78-.11-.26-.07-.5-.18-.73-.34-.22-.16-.4-.36-.55-.62-.14-.25-.21-.56-.21-.92,0-.5.13-.9.38-1.19.26-.3.61-.52,1.04-.66.43-.15.92-.24,1.47-.28.56-.05,1.14-.07,1.74-.07v-.21ZM225.61,207.16c-.39,0-.79.02-1.19.06-.39.03-.75.09-1.08.2-.32.09-.58.23-.78.42s-.31.43-.31.74c0,.23.04.43.13.59.09.16.21.29.36.39.15.09.31.16.49.21.19.04.37.06.56.06.34,0,.63-.06.9-.17.26-.12.48-.28.66-.48.18-.21.31-.44.41-.7.09-.26.14-.54.14-.83v-.49h-.28ZM233.72,210.43h-.95v-10.58h.95v10.58ZM237.24,210.43h-.95v-6.55h.95v6.55ZM237.43,201.36c0,.2-.07.36-.21.49-.14.12-.29.18-.46.18s-.32-.06-.46-.18c-.14-.13-.21-.29-.21-.49s.07-.35.21-.48c.14-.13.29-.2.46-.2s.32.07.46.2c.14.12.21.28.21.48ZM242.72,204.68h-1.85v3.82c0,.24.02.44.07.6.05.16.11.29.2.38.09.08.2.15.32.18.12.03.25.04.39.04.13,0,.27-.02.41-.06.15-.04.29-.09.42-.15l.04.83c-.17.06-.35.11-.53.14-.18.04-.37.06-.59.06-.18,0-.36-.02-.56-.07s-.38-.13-.55-.27c-.17-.13-.31-.31-.42-.53-.1-.22-.15-.52-.15-.88v-4.09h-1.36v-.8h1.36v-1.85h.95v1.85h1.85v.8ZM247,204.68h-1.85v3.82c0,.24.02.44.07.6s.11.29.2.38c.09.08.2.15.32.18.12.03.25.04.39.04.13,0,.27-.02.41-.06.15-.04.29-.09.42-.15l.04.83c-.17.06-.35.11-.53.14-.18.04-.37.06-.59.06-.18,0-.36-.02-.56-.07s-.38-.13-.55-.27c-.17-.13-.31-.31-.42-.53-.1-.22-.15-.52-.15-.88v-4.09h-1.36v-.8h1.36v-1.85h.95v1.85h1.85v.8ZM249.47,210.43h-.95v-10.58h.95v10.58ZM257.02,206.65c-.03-.62-.23-1.12-.6-1.53-.36-.41-.89-.62-1.57-.62-.32,0-.61.06-.88.18-.27.11-.51.27-.71.48-.21.2-.37.43-.49.69-.12.25-.19.52-.21.8h4.47ZM257.98,206.96v.21c0,.07,0,.15-.01.24h-5.43c0,.33.07.63.2.92.12.29.29.54.5.76.21.21.47.39.76.52.29.12.6.18.94.18.49,0,.92-.11,1.27-.34.36-.23.64-.5.83-.8l.71.56c-.39.49-.83.85-1.3,1.06-.47.21-.97.32-1.51.32-.49,0-.94-.08-1.36-.25-.41-.18-.77-.42-1.06-.73-.3-.31-.54-.67-.71-1.09-.17-.42-.25-.88-.25-1.37s.08-.95.25-1.37.4-.78.7-1.09c.3-.31.65-.55,1.05-.71.4-.18.84-.27,1.3-.27.51,0,.97.09,1.36.27.39.17.72.4.98.7.26.29.46.63.59,1.02.14.39.21.81.21,1.26ZM129.68,232.43h-.95v-10.58h.95v10.58ZM138.74,229.16c0,.49-.09.95-.27,1.37-.17.42-.41.78-.71,1.09s-.68.55-1.11.73c-.43.17-.9.25-1.41.25s-.97-.08-1.4-.25c-.43-.18-.8-.42-1.11-.73s-.55-.67-.73-1.09c-.17-.42-.25-.88-.25-1.37s.08-.95.25-1.37c.18-.42.42-.78.73-1.09s.68-.55,1.11-.71c.43-.18.9-.27,1.4-.27s.98.09,1.41.27c.43.17.8.41,1.11.71s.55.67.71,1.09c.18.42.27.88.27,1.37ZM137.73,229.16c0-.36-.06-.71-.18-1.02-.11-.33-.28-.61-.49-.84-.21-.24-.48-.43-.78-.57s-.65-.21-1.04-.21-.73.07-1.04.21c-.3.14-.56.33-.77.57-.21.23-.38.51-.5.84-.11.32-.17.66-.17,1.02s.06.71.17,1.04c.12.32.29.6.5.84.21.23.47.42.77.56.31.13.65.2,1.04.2s.73-.06,1.04-.2c.31-.14.57-.33.78-.56.21-.24.38-.52.49-.84.12-.33.18-.67.18-1.04ZM141.64,225.88c.02.18.03.37.04.59.01.21.01.39.01.53h.03c.19-.38.49-.69.91-.92.42-.24.86-.36,1.33-.36.83,0,1.45.25,1.86.74.42.5.63,1.15.63,1.96v4.02h-.95v-3.63c0-.35-.03-.66-.08-.94s-.15-.52-.29-.71c-.13-.21-.31-.36-.55-.48-.22-.11-.51-.17-.85-.17-.25,0-.5.05-.74.15-.23.1-.44.26-.63.48-.19.21-.34.47-.45.8-.11.32-.17.69-.17,1.13v3.36h-.95v-5.11c0-.18,0-.41-.01-.69,0-.28-.02-.53-.04-.76h.91ZM149.27,233.75c.26.34.62.62,1.06.85.46.23.94.35,1.44.35.47,0,.86-.07,1.19-.21.33-.13.59-.31.78-.55.21-.23.36-.51.45-.83.09-.31.14-.64.14-.99v-1.23h-.03c-.25.41-.61.73-1.08.95-.46.22-.92.34-1.4.34-.51,0-.98-.08-1.4-.25-.41-.17-.76-.4-1.06-.69-.29-.3-.52-.65-.69-1.06-.16-.41-.24-.85-.24-1.33s.08-.9.24-1.32c.17-.41.4-.77.69-1.08.3-.31.65-.55,1.06-.73.42-.18.89-.27,1.4-.27.48,0,.94.11,1.4.34.46.22.82.55,1.08.97h.03v-1.13h.95v6.5c0,.35-.05.73-.15,1.13-.09.4-.27.77-.55,1.11-.26.34-.62.62-1.08.84-.46.22-1.05.34-1.78.34-.61,0-1.18-.12-1.74-.35-.55-.23-1.02-.55-1.41-.97l.69-.73ZM149.45,229.07c0,.35.06.67.17.98s.27.58.48.81c.21.23.48.42.78.56.31.13.66.2,1.05.2.36,0,.7-.06,1.01-.18s.57-.29.8-.52.4-.49.52-.8c.13-.32.2-.67.2-1.05,0-.35-.07-.67-.2-.98-.12-.31-.29-.58-.52-.81s-.49-.42-.8-.56-.64-.21-1.01-.21c-.39,0-.74.07-1.05.21s-.57.33-.78.56c-.21.23-.36.5-.48.81s-.17.64-.17.98ZM162.76,228.65c-.03-.62-.23-1.12-.6-1.53-.36-.41-.89-.62-1.57-.62-.32,0-.61.06-.88.18-.27.11-.51.27-.71.48-.2.2-.37.43-.49.69-.12.25-.19.52-.21.8h4.47ZM163.73,228.96v.21c0,.07,0,.15-.01.24h-5.43c0,.33.07.63.2.92s.29.54.5.76.47.39.76.52c.29.12.6.18.94.18.49,0,.92-.11,1.27-.34.36-.23.64-.5.83-.8l.71.56c-.39.49-.83.85-1.3,1.06-.47.21-.97.32-1.51.32-.49,0-.94-.08-1.36-.25-.41-.18-.76-.42-1.06-.73-.3-.31-.54-.67-.71-1.09-.17-.42-.25-.88-.25-1.37s.08-.95.25-1.37.4-.78.7-1.09.65-.55,1.05-.71c.4-.18.84-.27,1.3-.27.51,0,.97.09,1.36.27.39.17.72.4.98.7.26.29.46.63.59,1.02.14.39.21.81.21,1.26ZM165.78,227.32c0-.18,0-.41-.01-.69,0-.28-.02-.53-.04-.76h.91c.02.18.03.37.04.59,0,.21.01.39.01.53h.03c.19-.38.47-.69.84-.92.37-.24.79-.36,1.26-.36.12,0,.23,0,.32.01.1,0,.21.03.31.06l-.13.9c-.06-.02-.15-.04-.28-.06-.13-.02-.26-.03-.39-.03-.25,0-.5.05-.73.14-.23.09-.44.24-.62.45-.17.2-.31.45-.42.77-.1.31-.15.68-.15,1.12v3.36h-.95v-5.11Z"/>
<rect class="cls-6" x="61" y="266.94" width="175" height="48.1" rx="8.91" ry="8.91"/>
<path class="cls-3" d="M107.25,296.48l-1.14-3.25h-4.26l-1.12,3.25h-1.63l4.06-11.3h1.66l4.06,11.3h-1.65ZM104.02,286.74h-.03s-.26,1.02-.45,1.6l-1.26,3.58h3.42l-1.25-3.58c-.19-.58-.43-1.6-.43-1.6ZM111.56,296.48v-11.3h4.13c2.06,0,3.55,1.39,3.55,3.54s-1.49,3.58-3.55,3.58h-2.54v4.18h-1.58ZM113.14,290.93h2.29c1.36,0,2.19-.85,2.19-2.21s-.83-2.16-2.18-2.16h-2.3v4.37ZM122.28,296.48v-11.3h4.13c2.06,0,3.55,1.39,3.55,3.54s-1.49,3.58-3.55,3.58h-2.54v4.18h-1.58ZM123.86,290.93h2.29c1.36,0,2.19-.85,2.19-2.21s-.83-2.16-2.18-2.16h-2.3v4.37ZM133,296.48v-11.3h1.58v9.92h5.06v1.38h-6.64ZM144.05,296.48v-4.78l-3.79-6.51h1.79l2.1,3.71c.35.62.69,1.42.69,1.42h.03s.34-.78.69-1.42l2.06-3.71h1.79l-3.78,6.51v4.78h-1.58ZM157.18,296.48v-11.3h1.57l5.02,7.34c.42.61.94,1.63.94,1.63h.03s-.11-1.01-.11-1.63v-7.34h1.58v11.3h-1.55l-5.04-7.33c-.42-.62-.94-1.65-.94-1.65h-.03s.11,1.01.11,1.65v7.33h-1.58ZM169.53,290.76c0-3.25,2.54-5.76,5.81-5.76s5.79,2.51,5.79,5.76-2.53,5.92-5.79,5.92-5.81-2.59-5.81-5.92ZM171.16,290.76c0,2.54,1.87,4.46,4.18,4.46s4.16-1.92,4.16-4.46-1.86-4.32-4.16-4.32-4.18,1.86-4.18,4.32ZM189.7,285.19h1.41l2.21,8.29c.16.62.24,1.2.24,1.2h.03s.05-.59.21-1.2l2.08-8.29h1.63l-2.96,11.3h-1.84l-1.95-7.33c-.19-.72-.34-1.6-.34-1.6h-.03s-.14.88-.34,1.6l-1.95,7.33h-1.84l-2.88-11.3h1.63l2,8.29c.14.61.21,1.2.21,1.2h.03s.08-.58.24-1.2l2.21-8.29Z"/>
</g>
</g>
</g>
</svg>
