<?xml version="1.0" encoding="UTF-8"?>
<svg id="Layer_2" viewBox="0 0 232 232" xmlns="http://www.w3.org/2000/svg">
<defs>
<style>.cls-1{fill:none}.cls-2, .cls-3, .cls-4{fill-rule:evenodd}.cls-2, .cls-5{fill:#fff}.cls-3{fill:#00bd9c}.cls-4, .cls-6{fill:#2c3e50}.cls-7{fill:#f7f8f8}.cls-8{clip-path:url(#clippath)}</style>
<clipPath id="clippath">
<rect class="cls-1" width="232" height="232" rx="32" ry="32"/>
</clipPath>
</defs>
<g id="Layer_1-2">
<g class="cls-8">
<rect class="cls-5" width="232" height="232" rx="32" ry="32"/>
<rect class="cls-7" width="450" height="332"/>
<path class="cls-2" d="M26,30v50h390V30H26Z"/>
<path class="cls-3" d="M26,79v1h390v-1H26Z"/>
<path class="cls-6" d="M46.16,60v-10.25h-4.05v-1h9.18v1h-4.03v10.25h-1.1ZM53.04,60v-11.25h3.63c3.38,0,5.65,2.07,5.65,5.62s-2.27,5.63-5.65,5.63h-3.63ZM54.14,59.01h2.42c2.77,0,4.61-1.63,4.61-4.64s-1.86-4.62-4.61-4.62h-2.42v9.26ZM68.86,60v-11.25h1.09v3.91c0,.37-.03.65-.03.65h.03s.67-1.55,2.74-1.55,3.5,1.73,3.5,4.23-1.52,4.2-3.63,4.2c-1.92,0-2.64-1.56-2.64-1.56h-.03s.03.27.03.65v.72h-1.06ZM69.92,56c0,1.62.83,3.23,2.56,3.23,1.42,0,2.59-1.2,2.59-3.24s-1.04-3.24-2.54-3.24c-1.34,0-2.61.96-2.61,3.25ZM77.62,57.81c0-2.72,3.54-2.78,4.93-2.78h.45v-.21c0-1.55-.85-2.08-2-2.08-1.33,0-2.27.77-2.27.77l-.51-.84s1.06-.91,2.86-.91c1.94,0,3.01,1.07,3.01,3.09v5.15h-1.04v-.88c0-.4.03-.67.03-.67h-.03s-.67,1.74-2.69,1.74c-1.34,0-2.74-.78-2.74-2.38ZM78.75,57.75c0,.75.59,1.52,1.79,1.52,1.54,0,2.46-1.6,2.46-3v-.35h-.46c-1.26,0-3.79.05-3.79,1.83ZM91.27,62.51v-15.12h1.01v15.12h-1.01Z"/>
<rect class="cls-5" x="26" y="94" width="390" height="60"/>
<rect class="cls-1" x="44" y="112" width="79" height="24"/>
<rect class="cls-5" x="26" y="168" width="390" height="60"/>
<path class="cls-6" d="M86.43,202v-9.84h5.18v.87h-4.21v3.69h3.61v.87h-3.61v4.41h-.97ZM93.67,193.35v-1.19h.99v1.19h-.99ZM93.69,202v-7.04h.95v7.04h-.95ZM97.3,202v-7.04h.94v1.25c0,.3-.03.56-.03.56h.03c.34-1.07,1.12-1.88,2.23-1.88.2,0,.38.04.38.04v.94s-.17-.03-.35-.03c-.99,0-1.74.79-2.04,1.82-.14.45-.2.93-.2,1.37v2.97h-.95ZM102.08,201.15l.52-.69s.78.86,2.1.86c.76,0,1.41-.38,1.41-1.12,0-1.54-3.79-1.17-3.79-3.46,0-1.26,1.13-1.95,2.41-1.95,1.48,0,2.17.77,2.17.77l-.43.73s-.6-.64-1.76-.64c-.71,0-1.4.3-1.4,1.09,0,1.55,3.79,1.13,3.79,3.46,0,1.14-.99,1.97-2.41,1.97-1.71,0-2.6-1.02-2.6-1.02ZM109.48,199.44v-3.6h-.92v-.8h.94v-2.03h.94v2.03h1.76v.8h-1.76v3.5c0,1.65,1.05,1.86,1.58,1.86.2,0,.32-.02.32-.02v.85s-.15.03-.41.03c-.81,0-2.45-.27-2.45-2.62ZM118.65,202v-9.84h5.18v.87h-4.21v3.69h3.61v.87h-3.61v4.41h-.97ZM125.43,198.49c0-2.31,1.57-3.7,3.47-3.7s2.94,1.5,2.94,3.25c0,.17-.03.49-.03.49h-5.4c.04,1.81,1.27,2.79,2.73,2.79,1.29,0,2.14-.86,2.14-.86l.43.73s-1.02.98-2.6.98c-2.1,0-3.68-1.51-3.68-3.68ZM126.45,197.75h4.42c-.06-1.47-.95-2.16-2-2.16-1.18,0-2.2.74-2.42,2.16ZM133.55,198.47c0-2.22,1.32-3.68,3.16-3.68,1.71,0,2.3,1.33,2.3,1.33h.03s-.03-.24-.03-.53v-3.43h.95v9.84h-.92v-.74c0-.31.03-.5.03-.5h-.03s-.57,1.41-2.42,1.41-3.07-1.51-3.07-3.7ZM134.53,198.47c0,1.74.91,2.85,2.23,2.85,1.18,0,2.28-.84,2.28-2.85,0-1.42-.73-2.82-2.24-2.82-1.25,0-2.27,1.05-2.27,2.82ZM142.12,198.49c0-2.31,1.57-3.7,3.47-3.7s2.94,1.5,2.94,3.25c0,.17-.03.49-.03.49h-5.4c.04,1.81,1.27,2.79,2.73,2.79,1.29,0,2.14-.86,2.14-.86l.43.73s-1.02.98-2.6.98c-2.1,0-3.68-1.51-3.68-3.68ZM143.14,197.75h4.42c-.06-1.47-.95-2.16-2-2.16-1.18,0-2.2.74-2.42,2.16ZM150.71,202v-7.04h.94v1.25c0,.3-.03.56-.03.56h.03c.34-1.07,1.12-1.88,2.23-1.88.2,0,.38.04.38.04v.94s-.17-.03-.35-.03c-.99,0-1.74.79-2.04,1.82-.14.45-.2.93-.2,1.37v2.97h-.95ZM155.48,200.08c0-2.38,3.09-2.43,4.31-2.43h.39v-.18c0-1.36-.74-1.82-1.75-1.82-1.16,0-1.99.67-1.99.67l-.45-.73s.92-.8,2.51-.8c1.69,0,2.63.94,2.63,2.7v4.51h-.91v-.77c0-.35.03-.59.03-.59h-.03s-.59,1.53-2.35,1.53c-1.18,0-2.39-.69-2.39-2.09ZM156.46,200.03c0,.66.52,1.33,1.57,1.33,1.34,0,2.16-1.4,2.16-2.62v-.31h-.41c-1.11,0-3.32.04-3.32,1.6ZM163.61,200.34v-8.18h.95v7.97c0,.92.42,1.06.78,1.06.13,0,.24-.01.24-.01v.85s-.17.03-.35.03c-.59,0-1.62-.18-1.62-1.72ZM171.89,202v-9.84h3.36c1.55,0,2.66.94,2.66,2.48,0,1.02-.49,1.76-1.25,2.14v.03c1.01.28,1.65,1.24,1.65,2.43,0,1.75-1.3,2.76-2.95,2.76h-3.47ZM172.86,196.43h2.39c.99,0,1.67-.7,1.67-1.72s-.63-1.68-1.68-1.68h-2.38v3.4ZM172.86,201.13h2.52c1.19,0,1.93-.74,1.93-1.91s-.8-1.95-1.95-1.95h-2.51v3.86ZM180.15,200.08c0-2.38,3.09-2.43,4.31-2.43h.39v-.18c0-1.36-.74-1.82-1.75-1.82-1.16,0-1.99.67-1.99.67l-.45-.73s.92-.8,2.51-.8c1.69,0,2.63.94,2.63,2.7v4.51h-.91v-.77c0-.35.03-.59.03-.59h-.03s-.59,1.53-2.35,1.53c-1.18,0-2.39-.69-2.39-2.09ZM181.13,200.03c0,.66.52,1.33,1.57,1.33,1.34,0,2.16-1.4,2.16-2.62v-.31h-.41c-1.11,0-3.32.04-3.32,1.6ZM188.36,202v-7.04h.94v1.05c0,.31-.03.56-.03.56h.03c.25-.64,1.15-1.78,2.81-1.78s2.35,1,2.35,2.73v4.48h-.95v-4.23c0-1.1-.17-2.08-1.53-2.08-1.2,0-2.24.82-2.56,1.99-.08.29-.11.61-.11.95v3.37h-.95ZM197.01,202v-9.84h.95v5.49h1.12l2.11-2.69h1.15l-2.45,3.07v.02l2.69,3.95h-1.13l-2.35-3.53h-1.13v3.53h-.95ZM207.99,198.45c0-2.09,1.67-3.66,3.72-3.66s3.72,1.57,3.72,3.66-1.67,3.72-3.72,3.72-3.72-1.6-3.72-3.72ZM208.97,198.45c0,1.63,1.23,2.87,2.74,2.87s2.74-1.24,2.74-2.87-1.23-2.79-2.74-2.79-2.74,1.19-2.74,2.79ZM217.85,202v-6.16h-.88v-.8h.88v-.33c0-2.33,1.64-2.62,2.44-2.62.27,0,.43.03.43.03v.85s-.14-.03-.34-.03c-.55,0-1.58.2-1.58,1.77v.33h1.81v.8h-1.81v6.16h-.95ZM226.77,202v-9.84h.94l5.03,7.08c.34.49.81,1.33.81,1.33h.03s-.08-.81-.08-1.33v-7.08h.97v9.84h-.94l-5.03-7.08c-.34-.49-.81-1.33-.81-1.33h-.03s.08.81.08,1.33v7.08h-.97ZM237.23,202v-1.12h1.11v1.12h-1.11ZM245.42,202v-9.84h5.18v.87h-4.21v3.69h3.61v.87h-3.61v4.41h-.97ZM252.61,200.34v-8.18h.95v7.97c0,.92.42,1.06.78,1.06.13,0,.24-.01.24-.01v.85s-.17.03-.35.03c-.59,0-1.62-.18-1.62-1.72ZM255.98,198.45c0-2.09,1.67-3.66,3.72-3.66s3.72,1.57,3.72,3.66-1.67,3.72-3.72,3.72-3.72-1.6-3.72-3.72ZM256.96,198.45c0,1.63,1.23,2.87,2.74,2.87s2.74-1.24,2.74-2.87-1.23-2.79-2.74-2.79-2.74,1.19-2.74,2.79ZM265.56,202v-7.04h.94v1.25c0,.3-.03.56-.03.56h.03c.34-1.07,1.12-1.88,2.23-1.88.2,0,.38.04.38.04v.94s-.17-.03-.35-.03c-.99,0-1.74.79-2.04,1.82-.14.45-.2.93-.2,1.37v2.97h-.95ZM270.88,193.35v-1.19h.99v1.19h-.99ZM270.91,202v-7.04h.95v7.04h-.95ZM274.05,198.47c0-2.22,1.32-3.68,3.16-3.68,1.71,0,2.3,1.33,2.3,1.33h.03s-.03-.24-.03-.53v-3.43h.95v9.84h-.92v-.74c0-.31.03-.5.03-.5h-.03s-.57,1.41-2.42,1.41-3.07-1.51-3.07-3.7ZM275.04,198.47c0,1.74.91,2.85,2.23,2.85,1.18,0,2.28-.84,2.28-2.85,0-1.42-.73-2.82-2.24-2.82-1.25,0-2.27,1.05-2.27,2.82ZM282.54,200.08c0-2.38,3.09-2.43,4.31-2.43h.39v-.18c0-1.36-.74-1.82-1.75-1.82-1.16,0-1.99.67-1.99.67l-.45-.73s.92-.8,2.51-.8c1.69,0,2.63.94,2.63,2.7v4.51h-.91v-.77c0-.35.03-.59.03-.59h-.03s-.59,1.53-2.35,1.53c-1.18,0-2.39-.69-2.39-2.09ZM283.52,200.03c0,.66.52,1.33,1.57,1.33,1.34,0,2.16-1.4,2.16-2.62v-.31h-.41c-1.11,0-3.32.04-3.32,1.6ZM296.41,203.33c-.98-1.68-1.58-3.83-1.58-6.05,0-2.01.57-3.86,1.58-5.5h.88c-1.01,1.71-1.58,3.54-1.58,5.5,0,2.1.53,4.16,1.58,6.05h-.88ZM299.28,202v-7.04h.94v1.05c0,.31-.03.56-.03.56h.03c.25-.64,1.15-1.78,2.81-1.78s2.35,1,2.35,2.73v4.48h-.95v-4.23c0-1.1-.17-2.08-1.53-2.08-1.2,0-2.24.82-2.56,1.99-.08.29-.11.61-.11.95v3.37h-.95ZM307.41,198.45c0-2.09,1.67-3.66,3.72-3.66s3.72,1.57,3.72,3.66-1.67,3.72-3.72,3.72-3.72-1.6-3.72-3.72ZM308.39,198.45c0,1.63,1.23,2.87,2.74,2.87s2.74-1.24,2.74-2.87-1.23-2.79-2.74-2.79-2.74,1.19-2.74,2.79ZM318.46,202l-2.38-7.04h1.01l1.71,5.25c.11.34.21.76.21.76h.03s.1-.42.21-.76l1.74-5.22h.94l1.74,5.22c.11.34.21.76.21.76h.03s.1-.41.21-.76l1.71-5.25h1.01l-2.38,7.04h-1.04l-1.72-5.01c-.13-.35-.22-.76-.22-.76h-.03s-.1.41-.21.76l-1.72,5.01h-1.04ZM335.17,202v-8.97h-3.54v-.87h8.04v.87h-3.53v8.97h-.97ZM341.54,202v-9.84h3.18c2.95,0,4.94,1.81,4.94,4.91s-1.99,4.93-4.94,4.93h-3.18ZM342.51,201.13h2.11c2.42,0,4.03-1.42,4.03-4.06s-1.62-4.04-4.03-4.04h-2.11v8.1ZM356.38,202v-9.84h3.36c1.55,0,2.66.94,2.66,2.48,0,1.02-.49,1.76-1.25,2.14v.03c1.01.28,1.65,1.24,1.65,2.43,0,1.75-1.3,2.76-2.95,2.76h-3.47ZM357.34,196.43h2.39c.99,0,1.67-.7,1.67-1.72s-.63-1.68-1.68-1.68h-2.38v3.4ZM357.34,201.13h2.52c1.19,0,1.93-.74,1.93-1.91s-.8-1.95-1.95-1.95h-2.51v3.86ZM364.64,200.08c0-2.38,3.09-2.43,4.31-2.43h.39v-.18c0-1.36-.74-1.82-1.75-1.82-1.16,0-1.99.67-1.99.67l-.45-.73s.92-.8,2.51-.8c1.69,0,2.63.94,2.63,2.7v4.51h-.91v-.77c0-.35.03-.59.03-.59h-.03s-.59,1.53-2.35,1.53c-1.18,0-2.39-.69-2.39-2.09ZM365.62,200.03c0,.66.52,1.33,1.57,1.33,1.34,0,2.16-1.4,2.16-2.62v-.31h-.41c-1.11,0-3.32.04-3.32,1.6ZM372.84,202v-7.04h.94v1.05c0,.31-.03.56-.03.56h.03c.25-.64,1.15-1.78,2.81-1.78s2.35,1,2.35,2.73v4.48h-.95v-4.23c0-1.1-.17-2.08-1.53-2.08-1.2,0-2.24.82-2.56,1.99-.08.29-.11.61-.11.95v3.37h-.95ZM381.5,202v-9.84h.95v5.49h1.12l2.11-2.69h1.15l-2.45,3.07v.02l2.69,3.95h-1.13l-2.35-3.53h-1.13v3.53h-.95ZM389.09,203.33h-.88c1.06-1.89,1.58-3.95,1.58-6.05,0-1.96-.57-3.79-1.58-5.5h.88c1.01,1.64,1.58,3.49,1.58,5.5,0,2.22-.6,4.37-1.58,6.05Z"/>
<path class="cls-6" d="m62 195v11h5v-11h-5zm-14 11h5v-11h-5v11zm7 0h5v-11h-5v11zm14 0h2v2h-27v-2h2v-11h-2v-2h27v2h-2v11z"/>
<path class="cls-4" d="m57.59 186.21 11.65 7.29-1 1.73-10.65-6.66-10.62 6.64-1-1.73 11.62-7.27z"/>
</g>
</g>
</svg>
