<?xml version="1.0" encoding="UTF-8"?>
<svg id="Layer_2" viewBox="0 0 355 410.83" xmlns="http://www.w3.org/2000/svg">
<defs>
<style>.cls-1, .cls-2{fill:none}.cls-3{mask:url(#mask)}.cls-4{fill:#e3e5e5}.cls-5{fill:#00c6ac}.cls-6{fill:#47bda6}.cls-6, .cls-7, .cls-8, .cls-9, .cls-10{fill-rule:evenodd}.cls-11{fill:#d3edf2}.cls-12{stroke-width:.79px}.cls-12, .cls-13{fill:#fff}.cls-12, .cls-2{stroke:#fff}.cls-7, .cls-14{fill:#00bd9c}.cls-8, .cls-15, .cls-16{fill:#2c3e50}.cls-17{fill:#f7f8f8}.cls-18{clip-path:url(#clippath-1)}.cls-19, .cls-9{fill:#1a4f90}.cls-20{fill:#858585}.cls-10{fill:#c0242b}.cls-2, .cls-16{stroke-width:1.58px}.cls-21{clip-path:url(#clippath)}.cls-16{stroke:#2c3e50}</style>
<clipPath id="clippath">
<rect class="cls-1" width="355" height="410.83" rx="12.62" ry="12.62"/>
</clipPath>
<mask id="mask" x="0" y="0" width="355" height="50.49" maskUnits="userSpaceOnUse">
<g id="path-2-inside-1_855_152137">
<path class="cls-13" d="M0,0h355v49.7H0V0Z"/>
</g>
</mask>
<clipPath id="clippath-1">
<rect class="cls-1" x="23.67" y="281.01" width="307.67" height="42.6"/>
</clipPath>
</defs>
<g id="Layer_1-2">
<g class="cls-21">
<path class="cls-13" d="M0,12.62C0,5.65,5.65,0,12.62,0h329.76c6.97,0,12.62,5.65,12.62,12.62v385.59c0,6.97-5.65,12.62-12.62,12.62H12.62c-6.97,0-12.62-5.65-12.62-12.62V12.62Z"/>
<path class="cls-13" d="M0,0h355v49.7H0V0Z"/>
<g class="cls-3">
<path class="cls-4" d="M355,49.7v-.79H0v1.58h355v-.79Z"/>
</g>
<path class="cls-15" d="M89.49,19.64c.72,0,1.38.12,1.99.36.61.24,1.13.59,1.58,1.04.44.45.79,1,1.04,1.64.25.64.37,1.36.37,2.15s-.12,1.51-.37,2.15c-.25.64-.59,1.19-1.04,1.64-.44.45-.97.8-1.58,1.04-.61.24-1.27.36-1.99.36-.72,0-1.39-.12-1.99-.36-.61-.24-1.13-.59-1.58-1.04-.44-.45-.79-1-1.04-1.64-.25-.64-.37-1.36-.37-2.15,0-.79.12-1.51.37-2.15.25-.64.59-1.19,1.04-1.64.44-.45.97-.8,1.58-1.04.61-.24,1.27-.36,1.99-.36ZM48.3,25.83c0,.31.05.59.14.85.09.26.22.49.38.68.17.19.36.34.59.45.23.11.48.16.75.16.27,0,.52-.05.74-.16.23-.11.42-.26.59-.45.17-.19.29-.42.38-.68.09-.26.14-.54.14-.85v-5.99h2.03v6.08c0,.59-.08,1.13-.25,1.62-.17.49-.41.92-.74,1.29-.33.36-.73.65-1.22.85-.49.2-1.05.31-1.68.31-.64,0-1.21-.1-1.69-.31-.49-.2-.89-.49-1.22-.85-.32-.36-.57-.79-.74-1.29-.17-.49-.25-1.03-.25-1.62v-6.08h2.03v5.99ZM62.6,26.7h.03v-6.87h2.03v9.89h-2.66l-4.02-7.04h-.03v7.04h-2.03v-9.89h2.76l3.92,6.87ZM69.69,19.83c.74,0,1.44.09,2.1.27.66.18,1.24.46,1.74.86.49.4.89.91,1.18,1.54.29.63.44,1.4.44,2.3,0,.8-.14,1.51-.42,2.12-.28.61-.66,1.12-1.14,1.54-.48.41-1.03.73-1.65.94-.63.21-1.28.32-1.97.32h-3.32v-9.89h3.05ZM98.87,23.3l1.89-3.46h2.46l-2.98,4.68,3.33,5.21h-2.55l-2.25-3.98-2.19,3.98h-2.41l3.23-5.17-3.05-4.72h2.55l1.97,3.46ZM44.95,21.84h-4.16v2.01h3.84v2.01h-3.84v3.85h-2.03v-9.89h6.19v2.01ZM79.91,19.83c.4,0,.8.03,1.2.09.4.06.77.18,1.09.36.32.18.58.44.78.76.2.33.3.76.3,1.3,0,.56-.15,1.02-.44,1.39-.29.37-.68.63-1.15.79v.03c.3.05.58.14.83.27.25.14.46.31.64.52.18.21.31.46.41.73.1.28.14.58.14.89,0,.52-.1.96-.31,1.31-.21.35-.48.63-.81.84-.33.21-.7.37-1.11.46-.41.09-.82.14-1.23.14h-3.78v-9.89h3.44ZM89.49,21.65c-.43,0-.83.08-1.18.24-.35.16-.65.38-.9.66-.25.28-.45.62-.58,1.01-.13.39-.2.81-.2,1.27,0,.47.07.89.2,1.28.13.39.33.72.58,1.01.25.28.55.51.9.66.35.16.74.24,1.18.24s.83-.08,1.18-.24c.35-.16.65-.38.91-.66.25-.28.45-.62.58-1.01.14-.39.2-.81.2-1.28s-.07-.88-.2-1.27c-.13-.39-.33-.73-.58-1.01-.25-.28-.55-.51-.91-.66-.35-.16-.75-.24-1.18-.24ZM78.51,27.88h1.82c.16,0,.31-.02.47-.06.16-.04.31-.1.44-.2.13-.09.24-.21.32-.36.08-.15.12-.33.12-.54,0-.23-.05-.42-.16-.57-.11-.14-.25-.25-.41-.33-.16-.07-.34-.13-.53-.15-.19-.03-.37-.04-.53-.04h-1.54v2.25ZM68.68,27.71h1.05c.47,0,.9-.05,1.31-.15s.75-.27,1.05-.51c.3-.24.53-.55.7-.94.17-.39.25-.86.25-1.42,0-.48-.08-.91-.25-1.26-.17-.36-.4-.65-.68-.89-.29-.23-.62-.41-1.01-.52-.39-.12-.79-.17-1.22-.17h-1.2v5.87ZM78.51,23.78h1.47c.16,0,.31-.02.46-.05.15-.04.29-.1.41-.18.12-.08.22-.2.29-.33.07-.14.11-.31.11-.5,0-.2-.04-.37-.12-.51-.08-.13-.19-.24-.32-.31-.13-.07-.28-.13-.44-.16-.17-.03-.33-.05-.48-.05h-1.38v2.11Z"/>
<path class="cls-7" d="M12.62,19.6v10.5c0,.64.33,1.24.87,1.56h0l8.79,5.25c.27.16.57.24.87.24h0c.3,0,.6-.08.87-.24h0l8.79-5.25c.26-.16.47-.38.62-.64h0l-1.89-2.81-2.87-.05v.02l-5.53,3.34-5.53-3.34v-6.67h0s-1.79-2.65-1.79-2.65l-2.95-.2c-.17.28-.26.6-.26.94h0Z"/>
<path class="cls-6" d="M22.29,12.79l-8.79,5.25c-.26.15-.46.37-.61.62h0l4.74,2.85,5.53-3.33,5.53,3.34v6.65l4.76,2.86c.16-.28.25-.59.25-.92h0v-10.5c0-.64-.33-1.24-.87-1.56h0l-8.79-5.25c-.27-.16-.57-.24-.87-.24h0c-.3,0-.6.08-.87.24h0Z"/>
<path class="cls-8" d="M106.33,30v-10.36h3.58c1.86,0,3.2,1.21,3.2,3.12s-1.34,3.17-3.2,3.17h-2.56v4.07h-1.02ZM107.35,25.02h2.43c1.39,0,2.28-.84,2.28-2.26s-.9-2.21-2.27-2.21h-2.45v4.47ZM121.45,30l-1.19-3.3h-4.17l-1.18,3.3h-1.08l3.8-10.36h1.09l3.8,10.36h-1.08ZM118.19,20.72h-.03s-.22.86-.4,1.34l-1.39,3.76h3.57l-1.36-3.76c-.18-.49-.4-1.34-.4-1.34ZM126.43,30h1.03v-4.45l3.48-5.91h-1.15l-2.19,3.76c-.32.55-.63,1.24-.63,1.24h-.03s-.32-.71-.63-1.24l-2.2-3.76h-1.16l3.49,5.91v4.45Z"/>
<path class="cls-14" d="M301.69,28.35v-7.8h1.09v6.85h3.49v.95h-4.58ZM306.9,25.54c0-1.69,1.35-2.92,3.02-2.92s3.01,1.23,3.01,2.92-1.35,2.94-3.01,2.94-3.02-1.24-3.02-2.94ZM308,25.54c0,1.17.87,2.01,1.92,2.01s1.92-.84,1.92-2.01-.86-1.99-1.92-1.99-1.92.83-1.92,1.99ZM314.7,29.37s.7.38,1.54.38c.97,0,1.77-.43,1.77-1.57v-.41c0-.18.01-.35.01-.35h-.02c-.33.55-.85.87-1.66.87-1.56,0-2.5-1.25-2.5-2.86s.89-2.79,2.44-2.79c1.35,0,1.76.83,1.76.83h.02s-.01-.08-.01-.18v-.52h1.03v5.36c0,1.84-1.4,2.55-2.82,2.55-.67,0-1.37-.19-1.91-.46l.35-.84ZM316.55,27.36c.77,0,1.48-.46,1.48-1.92s-.71-1.88-1.58-1.88c-.97,0-1.52.71-1.52,1.84s.62,1.95,1.62,1.95ZM323.28,24.4c0-2.24,1.76-3.98,4.01-3.98s4,1.73,4,3.98-1.75,4.09-4,4.09-4.01-1.79-4.01-4.09ZM324.41,24.4c0,1.76,1.29,3.08,2.88,3.08s2.87-1.33,2.87-3.08-1.28-2.98-2.87-2.98-2.88,1.28-2.88,2.98ZM332.58,26.34v-3.58h1.07v3.34c0,.77.15,1.39,1.05,1.39,1.14,0,1.81-1,1.81-2.11v-2.62h1.07v5.59h-1.04v-.74c0-.23.02-.41.02-.41h-.02c-.23.55-.96,1.28-2.05,1.28-1.26,0-1.91-.66-1.91-2.14ZM339.49,26.31v-2.61h-.73v-.86h.76v-1.61h1.04v1.61h1.35v.86h-1.35v2.49c0,1.12.78,1.26,1.19,1.26.15,0,.25-.02.25-.02v.95s-.15.02-.38.02c-.72,0-2.14-.22-2.14-2.09Z"/>
<path class="cls-14" d="M300.63,29.45h41.75v.55h-41.75v-.55Z"/>
<path class="cls-19" d="M185.7,93.3c4.48,0,6.52,4.31,6.53,10.6h-8.44c.26,1.82.89,2.65,2.05,2.65,1.28,0,2.05-.66,2.17-1.49h4.22c-1.15,3.64-2.69,5.88-6.27,5.88-4.35,0-7.04-3.48-7.04-8.69s2.69-8.94,6.78-8.94ZM68.41,93.61c4.99,0,6.27,2.65,6.27,7.95v8.45h-4.22l-.77-.99c-.77.99-2.18,1.82-4.09,1.82-2.56,0-4.09-1.82-4.09-4.8,0-6.95,8.06-4.14,8.06-6.95,0-.83-.51-1.49-1.15-1.49-1.41,0-2.05,1.16-2.05,2.15h-4.09c0-3.81,1.92-6.13,6.14-6.13ZM217.1,93.61c4.22,0,5.63,2.32,5.89,6.46h-3.84c-.77-1.82-.9-1.99-2.05-1.99-1.79,0-2.17,1.65-2.17,4.3,0,2.15.64,3.81,2.43,3.81,1.28,0,1.66-.5,1.79-2.65h4.35l-.13,1.16c-.25,3.97-2.81,6.13-6.14,6.13-4.35,0-6.53-3.48-6.53-9.11,0-5.13,2.43-8.11,6.4-8.11ZM116.09,93.3c4.48,0,6.91,3.31,6.91,9.27,0,4.8-2.05,8.11-6.52,8.11s-7.03-3.31-7.03-8.45,2.69-8.94,6.65-8.94ZM231.43,93.63c4.99,0,6.14,2.81,6.14,7.95v8.45h-4.22l-.77-.99c-.64.99-2.05,1.66-3.84,1.66-2.56,0-4.09-1.66-4.09-4.64,0-6.95,7.8-4.14,7.8-6.95,0-.83-.51-1.49-1.15-1.49-1.53,0-2.05,1.16-2.05,2.15h-4.09c0-3.98,2.18-6.13,6.27-6.13ZM54.56,87.71c3.58,0,5.37,2.15,5.37,5.96,0,2.48-.64,3.31-1.66,4.47l.51.5c1.41,1.49,2.05,3.15,2.05,5.13,0,4.97-2.69,6.29-7.42,6.29h-8.44v-22.36h9.59ZM133.38,92.18h-1.54c-.51,0-.77.17-.77,1.82h2.05v3.97h-2.05v12.09h-4.86v-12.09h-1.66v-3.97h1.92v-2.15c0-3.48,1.41-3.97,3.58-3.97h3.33v4.31ZM155.51,110.07h-5.37l-.77-3.15h-5.63l-.77,3.15h-5.37l6.14-22.52h5.24l6.52,22.52ZM96.33,98.31l2.94-4.31h5.63l-4.48,6.46,4.86,9.61h-5.5l-3.45-6.79v6.79h-4.86v-22.03h4.86v10.27ZM85.17,93.31c3.33,0,4.86,2.82,4.86,7.62v9.11h-4.86v-8.28c0-1.99-.51-3.31-1.92-3.31-1.28,0-2.05,1.33-2.05,4.31v7.29h-4.86v-16.06h4.6l.51,1.49.26-.33c1.02-1.32,2.05-1.82,3.45-1.82ZM164.91,93.48c1.92,0,2.81.99,3.71,2.48l.26-.33c.9-1.32,2.05-1.99,3.71-1.99,3.45,0,4.86,2.15,4.86,6.29v10.1h-4.86v-8.78c0-1.66-.51-2.65-1.54-2.65-1.15,0-1.53,1.16-1.53,4.14v7.29h-4.86v-8.44c0-1.82-.38-2.98-1.54-2.98-1.15,0-1.53,1.16-1.53,4.14v7.29h-4.86v-16.06h3.84l.77,1.49c.77-1.32,1.92-1.99,3.58-1.99ZM202.97,98.78h-.51c-2.81.33-3.71,1.49-3.71,5.63v5.63h-4.86v-16.06h3.97l.77,1.82c1.41-1.99,2.69-1.99,4.35-1.99v4.97ZM209.19,110.04h-4.86v-16.06h4.86v16.06ZM69.55,103.2c-2.17.33-2.94,1.49-2.94,2.48,0,.66.38,1.33,1.15,1.33.77,0,1.79-.99,1.79-1.99v-1.82ZM232.45,103.2c-2.17.33-2.94,1.49-2.94,2.48,0,.66.38,1.32,1.15,1.32.77,0,1.79-.99,1.79-1.99v-1.82ZM116.35,97.92c-1.58,0-2.05,1.88-2.05,4.1,0,1.47.02,4.35,2.05,4.35,1.23,0,1.94-1.16,1.92-4.52-.02-2.65-.52-3.92-1.92-3.92ZM50.72,104.71h3.33c1.28,0,1.66-.17,1.66-1.66,0-1.33-.51-1.82-1.54-1.82h-3.46v3.48ZM144.87,102.12h3.2l-1.66-5.8-1.53,5.8ZM185.7,97.81c-1.15,0-1.79.83-2.05,2.32h3.97c-.13-1.32-.77-2.32-1.92-2.32ZM50.72,96.37h2.69c1.15,0,1.54,0,1.54-1.33,0-1.32-.26-1.82-1.41-1.82h-2.81v3.15ZM209.19,87.64v4.64h-4.86v-4.64h4.86Z"/>
<path class="cls-9" d="M269.06,89.06c-2.4,1.05-12.85,5.88-16.75,8.24-1.69-.68-3.12-1.17-5.08-1.93,8.12-4.9,16.94-7.69,17.09-7.89,1.65.45,3.06,1.16,4.74,1.58"/>
<path class="cls-9" d="M276.9,92.45c-2.4,1.05-12.92,6.31-16.82,8.67-1.82-.94-3.6-1.89-5.42-2.65,8.12-4.9,16.54-8.16,16.69-8.36,1.56.63,3.9,1.71,5.55,2.34"/>
<path class="cls-10" d="m302.23 90.61c-2.39 1.05-18.89 6.58-34.52 17.35-1.98-1.26-5.17-3.17-7.12-3.83 8.12-4.9 18.87-12.3 35.26-16.66 2.47 1.12 4.16 2.1 6.38 3.13"/>
<path class="cls-10" d="m309.95 95.1c-2.4 1.05-22.42 10.97-32.13 19.73-1.78-1.08-5.64-4.09-7.44-5.09 7.79-5.21 17.67-12.75 33.89-17.83 2.47 1.12 3.69 1.98 5.68 3.19"/>
<path class="cls-10" d="M269.2,83.86c4.27,1.44,10.52,3.69,14.59,5.85-1.29.73-3.04,1.23-4.6,1.9-10.38-4.51-14.59-5.83-14.78-5.99.93-.41,3.99-1.48,4.79-1.76"/>
<path class="cls-10" d="M276.77,81.89c4.27,1.44,10.8,3.37,14.87,5.53-1.39.36-3.39.78-4.98,1.47-10.38-4.51-14.2-5.68-14.39-5.83.93-.41,3.7-.89,4.5-1.16"/>
<rect class="cls-17" x="23.67" y="146.83" width="307.67" height="39.09" rx="6.31" ry="6.31"/>
<path class="cls-20" d="M37.46,167.79v-5.78h.88v5.77c0,1.53.98,2.45,2.51,2.45s2.52-.92,2.52-2.47v-5.74h.87v5.78c0,1.97-1.38,3.24-3.38,3.24s-3.41-1.28-3.41-3.24ZM45.94,170.11l.47-.62s.71.77,1.89.77c.68,0,1.27-.34,1.27-1.01,0-1.39-3.42-1.05-3.42-3.12,0-1.14,1.02-1.76,2.17-1.76,1.34,0,1.96.69,1.96.69l-.39.66s-.54-.58-1.59-.58c-.64,0-1.26.28-1.26.99,0,1.4,3.42,1.02,3.42,3.12,0,1.04-.9,1.78-2.17,1.78-1.54,0-2.35-.92-2.35-.92ZM51.61,167.71c0-2.08,1.41-3.33,3.13-3.33s2.65,1.35,2.65,2.93c0,.15-.03.44-.03.44h-4.87c.04,1.63,1.15,2.51,2.46,2.51,1.16,0,1.93-.77,1.93-.77l.39.66s-.92.88-2.35.88c-1.89,0-3.32-1.36-3.32-3.32ZM52.53,167.04h3.99c-.05-1.33-.86-1.94-1.81-1.94-1.06,0-1.98.67-2.18,1.94ZM59.03,170.88v-6.35h.85v1.12c0,.28-.03.51-.03.51h.03c.3-.96,1.01-1.69,2.01-1.69.18,0,.34.04.34.04v.85s-.15-.02-.32-.02c-.9,0-1.57.71-1.84,1.64-.13.4-.18.83-.18,1.24v2.68h-.86ZM67.17,170.88v-8.87h.87v8.87h-.87ZM70.62,170.88v-8.87h2.87c2.66,0,4.46,1.63,4.46,4.43s-1.79,4.44-4.46,4.44h-2.87ZM71.49,170.1h1.91c2.18,0,3.64-1.29,3.64-3.66s-1.46-3.65-3.64-3.65h-1.91v7.31Z"/>
<rect class="cls-17" x="23.67" y="209.92" width="307.67" height="39.09" rx="6.31" ry="6.31"/>
<path class="cls-20" d="M37.58,233.97v-8.87h3.07c1.59,0,2.74,1.04,2.74,2.68s-1.15,2.71-2.74,2.71h-2.2v3.48h-.87ZM38.45,229.7h2.08c1.19,0,1.96-.72,1.96-1.93s-.77-1.89-1.94-1.89h-2.1v3.82ZM44.35,232.24c0-2.15,2.79-2.2,3.89-2.2h.35v-.16c0-1.23-.67-1.64-1.58-1.64-1.05,0-1.79.61-1.79.61l-.4-.66s.83-.72,2.26-.72c1.53,0,2.37.85,2.37,2.44v4.06h-.82v-.69c0-.32.03-.53.03-.53h-.03s-.53,1.38-2.12,1.38c-1.06,0-2.16-.62-2.16-1.88ZM45.23,232.19c0,.59.47,1.2,1.41,1.2,1.21,0,1.94-1.26,1.94-2.36v-.28h-.37c-1,0-2.99.04-2.99,1.44ZM50.91,233.2l.47-.62s.71.77,1.89.77c.68,0,1.27-.34,1.27-1.01,0-1.39-3.42-1.05-3.42-3.12,0-1.14,1.02-1.75,2.17-1.75,1.34,0,1.96.69,1.96.69l-.39.66s-.54-.58-1.59-.58c-.64,0-1.26.28-1.26.98,0,1.4,3.42,1.02,3.42,3.12,0,1.04-.9,1.78-2.17,1.78-1.54,0-2.35-.92-2.35-.92ZM56.5,233.2l.47-.62s.71.77,1.89.77c.68,0,1.27-.34,1.27-1.01,0-1.39-3.42-1.05-3.42-3.12,0-1.14,1.02-1.75,2.17-1.75,1.34,0,1.96.69,1.96.69l-.39.66s-.54-.58-1.59-.58c-.64,0-1.26.28-1.26.98,0,1.4,3.42,1.02,3.42,3.12,0,1.04-.9,1.78-2.17,1.78-1.54,0-2.35-.92-2.35-.92ZM63.94,233.97l-2.15-6.35h.91l1.54,4.73c.1.3.19.68.19.68h.03s.09-.38.19-.68l1.57-4.71h.85l1.57,4.71c.1.3.19.68.19.68h.03s.09-.37.19-.68l1.54-4.73h.91l-2.15,6.35h-.93l-1.55-4.52c-.11-.32-.2-.68-.2-.68h-.03s-.09.37-.19.68l-1.55,4.52h-.93ZM72.26,230.76c0-1.88,1.5-3.29,3.36-3.29s3.36,1.41,3.36,3.29-1.5,3.36-3.36,3.36-3.36-1.44-3.36-3.36ZM73.14,230.76c0,1.48,1.11,2.59,2.47,2.59s2.47-1.11,2.47-2.59-1.11-2.51-2.47-2.51-2.47,1.07-2.47,2.51ZM80.58,233.97v-6.35h.85v1.12c0,.28-.03.51-.03.51h.03c.3-.96,1.01-1.69,2.01-1.69.18,0,.34.04.34.04v.85s-.15-.03-.32-.03c-.9,0-1.57.71-1.84,1.64-.13.4-.18.83-.18,1.24v2.68h-.86ZM84.61,230.79c0-2.01,1.19-3.32,2.85-3.32,1.54,0,2.07,1.2,2.07,1.2h.03s-.03-.21-.03-.48v-3.09h.86v8.87h-.83v-.67c0-.28.03-.45.03-.45h-.03s-.52,1.27-2.18,1.27-2.76-1.36-2.76-3.33ZM85.49,230.79c0,1.57.82,2.56,2.01,2.56,1.06,0,2.06-.76,2.06-2.56,0-1.29-.66-2.55-2.02-2.55-1.12,0-2.04.95-2.04,2.55Z"/>
<path class="cls-5" d="M287.11,232.98l.52-.67s.92.97,2.32.97c.97,0,1.77-.58,1.77-1.54,0-2.23-4.43-1.67-4.43-4.42,0-1.27,1.12-2.38,2.76-2.38,1.54,0,2.37.86,2.37.86l-.43.73s-.78-.76-1.94-.76-1.87.74-1.87,1.53c0,2.11,4.43,1.5,4.43,4.42,0,1.32-1.02,2.4-2.69,2.4-1.82,0-2.81-1.14-2.81-1.14ZM294.3,233.97v-8.87h.86v3.43c0,.29-.03.52-.03.52h.03c.24-.61,1.08-1.58,2.52-1.58,1.57,0,2.12.9,2.12,2.46v4.04h-.86v-3.81c0-1-.15-1.88-1.38-1.88-1.08,0-2.02.74-2.31,1.8-.08.25-.1.54-.1.85v3.04h-.86ZM301.32,230.76c0-1.88,1.5-3.29,3.36-3.29s3.36,1.41,3.36,3.29-1.5,3.36-3.36,3.36-3.36-1.44-3.36-3.36ZM302.2,230.76c0,1.48,1.11,2.59,2.47,2.59s2.47-1.11,2.47-2.59-1.11-2.51-2.47-2.51-2.47,1.07-2.47,2.51ZM310.96,233.97l-2.15-6.35h.91l1.54,4.73c.1.3.19.68.19.68h.02s.09-.38.19-.68l1.57-4.71h.85l1.57,4.71c.1.3.19.68.19.68h.02s.09-.37.19-.68l1.54-4.73h.91l-2.15,6.35h-.93l-1.55-4.52c-.11-.32-.2-.68-.2-.68h-.02s-.09.37-.19.68l-1.55,4.52h-.93Z"/>
<g class="cls-18">
<rect class="cls-14" x="23.67" y="281.01" width="307.67" height="42.6" rx="8" ry="8"/>
<path class="cls-13" d="M151.58,302.92c0-2.59,1.94-4.56,4.53-4.56,2.14,0,3.24,1.17,3.24,1.17l-.62.93s-1.04-.97-2.58-.97c-1.99,0-3.29,1.52-3.29,3.41s1.32,3.52,3.31,3.52c1.68,0,2.75-1.16,2.75-1.16l.67.9s-1.22,1.41-3.46,1.41c-2.68,0-4.56-2.05-4.56-4.66ZM160.58,304.22c0-1.93,1.54-3.33,3.45-3.33s3.45,1.4,3.45,3.33-1.54,3.36-3.45,3.36-3.45-1.41-3.45-3.36ZM161.83,304.22c0,1.34,1,2.3,2.2,2.3s2.2-.96,2.2-2.3-.99-2.27-2.2-2.27-2.2.95-2.2,2.27ZM168.92,307.42v-6.39h1.19v.85c0,.25-.02.47-.02.47h.02c.25-.55,1.01-1.46,2.4-1.46,1.5,0,2.2.82,2.2,2.45v4.09h-1.22v-3.81c0-.9-.19-1.6-1.21-1.6s-1.75.64-2.02,1.57c-.08.25-.1.54-.1.86v2.99h-1.23ZM176.79,305.09v-2.98h-.83v-.98h.87v-1.84h1.19v1.84h1.54v.98h-1.54v2.84c0,1.27.9,1.44,1.36,1.44.18,0,.29-.02.29-.02v1.08s-.18.03-.43.03c-.82,0-2.45-.25-2.45-2.39ZM181.04,299.76v-1.25h1.24v1.25h-1.24ZM181.05,307.42v-6.39h1.22v6.39h-1.22ZM184.19,307.42v-6.39h1.19v.85c0,.25-.02.47-.02.47h.02c.25-.55,1.01-1.46,2.4-1.46,1.5,0,2.2.82,2.2,2.45v4.09h-1.23v-3.81c0-.9-.19-1.6-1.21-1.6s-1.75.64-2.02,1.57c-.08.25-.1.54-.1.86v2.99h-1.22ZM191.71,305.12v-4.09h1.22v3.81c0,.88.18,1.59,1.2,1.59,1.3,0,2.07-1.15,2.07-2.41v-2.99h1.22v6.39h-1.19v-.85c0-.26.03-.47.03-.47h-.03c-.26.63-1.1,1.46-2.35,1.46-1.44,0-2.18-.76-2.18-2.45ZM198.9,304.23c0-2.03,1.38-3.35,3.19-3.35s2.76,1.34,2.76,2.99c0,.16-.04.53-.04.53h-4.66c.06,1.4,1.06,2.11,2.2,2.11s1.89-.74,1.89-.74l.51.9s-.95.91-2.47.91c-2.01,0-3.38-1.45-3.38-3.35ZM200.2,303.48h3.41c-.04-1.1-.72-1.63-1.54-1.63-.93,0-1.69.58-1.87,1.63Z"/>
</g>
<rect class="cls-11" y="355.61" width="355" height="55.22"/>
<circle class="cls-16" cx="47.33" cy="383.22" r="12.62"/>
<path class="cls-2" d="M46.9,376.44h.86c1.74,0,3.16,1.41,3.16,3.15v3.42c0,1.74-1.41,3.15-3.16,3.15h-.86c-1.74,0-3.16-1.41-3.16-3.15v-3.42c0-1.74,1.41-3.15,3.16-3.15Z"/>
<path class="cls-12" d="m53.5 382.1v7.29h-12.34v-7.29h12.34z"/>
<path class="cls-15" d="M78.42,372.66h-.03s-.14.76-.29,1.32l-1.69,6.25h-1.05l-2.3-8.87h.91l1.72,6.89c.11.45.2.95.2.95h.03s.08-.49.2-.95l1.87-6.89h.83l1.87,6.89c.13.45.19.95.2.95h.03s.09-.49.2-.95l1.78-6.89h.91l-2.36,8.87h-1.05l-1.69-6.25c-.15-.57-.29-1.32-.29-1.32ZM84.63,377.07c0-2.08,1.41-3.33,3.13-3.33s2.65,1.35,2.65,2.93c0,.15-.03.44-.03.44h-4.87c.04,1.63,1.15,2.51,2.46,2.51,1.16,0,1.93-.77,1.93-.77l.39.66s-.92.88-2.35.88c-1.89,0-3.32-1.36-3.32-3.32ZM85.56,376.4h3.99c-.05-1.32-.86-1.94-1.81-1.94-1.06,0-1.98.67-2.18,1.94ZM95.03,377.05c0-2.01,1.19-3.32,2.85-3.32,1.54,0,2.07,1.2,2.07,1.2h.03s-.03-.21-.03-.48v-3.09h.86v8.87h-.83v-.67c0-.28.03-.45.03-.45h-.03s-.52,1.28-2.18,1.28-2.76-1.36-2.76-3.33ZM95.91,377.05c0,1.57.82,2.56,2.01,2.56,1.06,0,2.06-.76,2.06-2.56,0-1.29-.66-2.55-2.02-2.55-1.12,0-2.04.95-2.04,2.55ZM102.41,377.03c0-1.88,1.5-3.29,3.36-3.29s3.36,1.41,3.36,3.29-1.5,3.36-3.36,3.36-3.36-1.44-3.36-3.36ZM103.29,377.03c0,1.48,1.11,2.59,2.47,2.59s2.47-1.11,2.47-2.59-1.11-2.51-2.47-2.51-2.47,1.07-2.47,2.51ZM110.73,380.23v-6.35h.85v.95c0,.28-.03.51-.03.51h.03c.23-.58,1.04-1.6,2.54-1.6s2.12.9,2.12,2.46v4.04h-.86v-3.81c0-1-.15-1.88-1.38-1.88-1.08,0-2.02.74-2.31,1.79-.08.26-.1.56-.1.86v3.04h-.86ZM117.89,373.4l.49-2.17h.91l-.71,2.17h-.69ZM121.09,377.92v-3.24h-.83v-.72h.85v-1.83h.85v1.83h1.59v.72h-1.59v3.15c0,1.49.95,1.68,1.43,1.68.18,0,.29-.02.29-.02v.77s-.14.02-.37.02c-.73,0-2.21-.24-2.21-2.36ZM127.95,379.46l.47-.62s.71.77,1.89.77c.68,0,1.27-.34,1.27-1.01,0-1.39-3.42-1.05-3.42-3.12,0-1.14,1.02-1.75,2.17-1.75,1.34,0,1.96.69,1.96.69l-.39.66s-.54-.58-1.59-.58c-.64,0-1.26.28-1.26.98,0,1.4,3.42,1.02,3.42,3.12,0,1.04-.9,1.78-2.17,1.78-1.54,0-2.35-.92-2.35-.92ZM134.3,377.92v-3.24h-.83v-.72h.85v-1.83h.85v1.83h1.59v.72h-1.59v3.15c0,1.49.95,1.68,1.43,1.68.18,0,.29-.02.29-.02v.77s-.14.02-.37.02c-.73,0-2.21-.24-2.21-2.36ZM137.82,377.03c0-1.88,1.5-3.29,3.36-3.29s3.36,1.41,3.36,3.29-1.5,3.36-3.36,3.36-3.36-1.44-3.36-3.36ZM138.71,377.03c0,1.48,1.11,2.59,2.47,2.59s2.47-1.11,2.47-2.59-1.11-2.51-2.47-2.51-2.47,1.07-2.47,2.51ZM146.14,380.23v-6.35h.85v1.12c0,.28-.02.51-.02.51h.02c.3-.96,1.01-1.69,2.01-1.69.18,0,.34.04.34.04v.85s-.15-.02-.32-.02c-.9,0-1.57.71-1.84,1.64-.13.4-.18.83-.18,1.24v2.68h-.86ZM150.12,377.07c0-2.08,1.41-3.33,3.13-3.33s2.65,1.35,2.65,2.93c0,.15-.03.44-.03.44h-4.87c.04,1.63,1.15,2.51,2.46,2.51,1.16,0,1.93-.77,1.93-.77l.39.66s-.92.88-2.35.88c-1.89,0-3.32-1.36-3.32-3.32ZM151.05,376.4h3.99c-.05-1.32-.86-1.94-1.81-1.94-1.06,0-1.98.67-2.18,1.94ZM160.47,377.03c0-1.88,1.5-3.29,3.36-3.29s3.36,1.41,3.36,3.29-1.5,3.36-3.36,3.36-3.36-1.44-3.36-3.36ZM161.35,377.03c0,1.48,1.11,2.59,2.47,2.59s2.47-1.11,2.47-2.59-1.11-2.51-2.47-2.51-2.47,1.07-2.47,2.51ZM168.79,380.23v-6.35h.85v1.12c0,.28-.02.51-.02.51h.02c.3-.96,1.01-1.69,2.01-1.69.18,0,.34.04.34.04v.85s-.15-.02-.32-.02c-.9,0-1.56.71-1.84,1.64-.13.4-.18.83-.18,1.24v2.68h-.86ZM176.67,380.23v-8.87h.86v3.43c0,.29-.02.52-.02.52h.02c.24-.61,1.09-1.58,2.53-1.58,1.56,0,2.12.9,2.12,2.46v4.04h-.86v-3.81c0-1-.15-1.88-1.38-1.88-1.08,0-2.02.74-2.31,1.81-.07.25-.1.54-.1.85v3.04h-.86ZM183.64,378.5c0-2.15,2.79-2.2,3.89-2.2h.35v-.16c0-1.23-.67-1.64-1.58-1.64-1.05,0-1.79.61-1.79.61l-.4-.66s.83-.72,2.26-.72c1.53,0,2.37.85,2.37,2.44v4.06h-.82v-.69c0-.32.02-.53.02-.53h-.02s-.53,1.38-2.12,1.38c-1.06,0-2.16-.62-2.16-1.88ZM184.52,378.45c0,.59.47,1.2,1.41,1.2,1.21,0,1.94-1.26,1.94-2.36v-.28h-.37c-1,0-2.99.04-2.99,1.44ZM192.24,380.23l-2.44-6.35h.91l1.77,4.66c.11.32.21.76.21.76h.03s.1-.43.23-.76l1.75-4.66h.9l-2.42,6.35h-.93ZM196.36,377.07c0-2.08,1.41-3.33,3.13-3.33s2.65,1.35,2.65,2.93c0,.15-.02.44-.02.44h-4.87c.04,1.63,1.15,2.51,2.46,2.51,1.16,0,1.93-.77,1.93-.77l.39.66s-.92.88-2.35.88c-1.89,0-3.32-1.36-3.32-3.32ZM197.28,376.4h3.99c-.05-1.32-.86-1.94-1.8-1.94-1.06,0-1.98.67-2.18,1.94ZM206.65,378.5c0-2.15,2.79-2.2,3.89-2.2h.35v-.16c0-1.23-.67-1.64-1.58-1.64-1.05,0-1.79.61-1.79.61l-.4-.66s.83-.72,2.26-.72c1.53,0,2.37.85,2.37,2.44v4.06h-.82v-.69c0-.32.02-.53.02-.53h-.02s-.53,1.38-2.12,1.38c-1.06,0-2.16-.62-2.16-1.88ZM207.54,378.45c0,.59.47,1.2,1.41,1.2,1.21,0,1.94-1.26,1.94-2.36v-.28h-.37c-1,0-2.99.04-2.99,1.44ZM213.29,377.07c0-1.96,1.46-3.33,3.33-3.33,1.55,0,2.32.91,2.32.91l-.44.64s-.71-.77-1.85-.77c-1.39,0-2.47,1.04-2.47,2.55s1.1,2.55,2.5,2.55c1.29,0,2.03-.9,2.03-.9l.39.67s-.86,1-2.47,1c-1.88,0-3.33-1.35-3.33-3.32ZM220.21,377.07c0-1.96,1.46-3.33,3.33-3.33,1.55,0,2.32.91,2.32.91l-.44.64s-.71-.77-1.86-.77c-1.39,0-2.47,1.04-2.47,2.55s1.1,2.55,2.5,2.55c1.29,0,2.03-.9,2.03-.9l.39.67s-.86,1-2.47,1c-1.88,0-3.33-1.35-3.33-3.32ZM227.14,377.07c0-2.08,1.41-3.33,3.13-3.33s2.65,1.35,2.65,2.93c0,.15-.03.44-.03.44h-4.87c.04,1.63,1.15,2.51,2.46,2.51,1.16,0,1.93-.77,1.93-.77l.39.66s-.92.88-2.35.88c-1.89,0-3.32-1.36-3.32-3.32ZM228.06,376.4h3.99c-.05-1.32-.86-1.94-1.81-1.94-1.06,0-1.98.67-2.18,1.94ZM234.04,379.46l.47-.62s.71.77,1.89.77c.68,0,1.27-.34,1.27-1.01,0-1.39-3.42-1.05-3.42-3.12,0-1.14,1.02-1.75,2.17-1.75,1.34,0,1.96.69,1.96.69l-.39.66s-.54-.58-1.59-.58c-.64,0-1.26.28-1.26.98,0,1.4,3.42,1.02,3.42,3.12,0,1.04-.9,1.78-2.17,1.78-1.54,0-2.35-.92-2.35-.92ZM239.64,379.46l.47-.62s.71.77,1.89.77c.68,0,1.27-.34,1.27-1.01,0-1.39-3.42-1.05-3.42-3.12,0-1.14,1.02-1.75,2.17-1.75,1.34,0,1.96.69,1.96.69l-.39.66s-.54-.58-1.59-.58c-.64,0-1.26.28-1.26.98,0,1.4,3.42,1.02,3.42,3.12,0,1.04-.9,1.78-2.17,1.78-1.54,0-2.35-.92-2.35-.92ZM249.38,377.92v-3.24h-.83v-.72h.85v-1.83h.85v1.83h1.59v.72h-1.59v3.15c0,1.49.95,1.68,1.43,1.68.18,0,.29-.02.29-.02v.77s-.14.02-.37.02c-.73,0-2.21-.24-2.21-2.36ZM252.9,377.03c0-1.88,1.5-3.29,3.36-3.29s3.36,1.41,3.36,3.29-1.5,3.36-3.36,3.36-3.36-1.44-3.36-3.36ZM253.79,377.03c0,1.48,1.11,2.59,2.47,2.59s2.47-1.11,2.47-2.59-1.11-2.51-2.47-2.51-2.47,1.07-2.47,2.51ZM263.66,382.51l.33-.68s.35.29.76.29c.56,0,.95-.45,1.2-1.04l.39-.9-2.65-6.3h.95l1.87,4.63c.13.32.23.67.23.67h.03s.09-.35.21-.67l1.83-4.63h.93l-3.13,7.67c-.33.81-.99,1.33-1.83,1.33-.66,0-1.11-.38-1.11-.38ZM270.44,377.03c0-1.88,1.5-3.29,3.36-3.29s3.36,1.41,3.36,3.29-1.5,3.36-3.36,3.36-3.36-1.44-3.36-3.36ZM271.33,377.03c0,1.48,1.11,2.59,2.47,2.59s2.47-1.11,2.47-2.59-1.11-2.51-2.47-2.51-2.47,1.07-2.47,2.51ZM278.67,377.92v-4.04h.86v3.81c0,1,.15,1.88,1.38,1.88,1.45,0,2.35-1.27,2.35-2.65v-3.04h.86v6.35h-.83v-.95c0-.28.02-.5.02-.5h-.02c-.25.62-1.09,1.6-2.49,1.6-1.49,0-2.12-.81-2.12-2.46ZM286.18,380.23v-6.35h.85v1.12c0,.28-.02.51-.02.51h.02c.3-.96,1.01-1.69,2.01-1.69.18,0,.34.04.34.04v.85s-.15-.02-.32-.02c-.9,0-1.57.71-1.84,1.64-.13.4-.18.83-.18,1.24v2.68h-.86ZM73.55,393.73v-7.37h.86v7.18c0,.83.38.96.71.96.11,0,.21-.01.21-.01v.77s-.15.02-.32.02c-.53,0-1.46-.16-1.46-1.55ZM76.26,392.03c0-1.88,1.5-3.29,3.36-3.29s3.36,1.41,3.36,3.29-1.5,3.36-3.36,3.36-3.36-1.44-3.36-3.36ZM77.15,392.03c0,1.48,1.11,2.59,2.47,2.59s2.47-1.11,2.47-2.59-1.11-2.51-2.47-2.51-2.47,1.07-2.47,2.51ZM85.06,396.67s.78.44,1.72.44c1.24,0,2.22-.58,2.22-1.99v-.58c0-.24.03-.45.03-.45h-.03c-.38.71-1.02,1.11-2.01,1.11-1.7,0-2.83-1.35-2.83-3.26s1.05-3.21,2.75-3.21,2.1,1.06,2.1,1.06h.03s-.01-.08-.01-.21v-.7h.83v6.2c0,2.02-1.49,2.8-3.04,2.8-.73,0-1.46-.19-2.08-.51l.33-.71ZM87.13,394.43c1,0,1.88-.62,1.88-2.49s-.88-2.42-2.01-2.42c-1.24,0-1.96.9-1.96,2.41s.82,2.5,2.08,2.5ZM91.9,387.43v-1.07h.9v1.07h-.9ZM91.93,395.23v-6.35h.86v6.35h-.86ZM94.86,395.23v-6.35h.85v.95c0,.28-.03.51-.03.51h.03c.23-.58,1.04-1.6,2.54-1.6s2.12.9,2.12,2.46v4.04h-.86v-3.81c0-1-.15-1.88-1.38-1.88-1.09,0-2.02.74-2.31,1.79-.08.26-.1.56-.1.86v3.04h-.86ZM105.29,392.07c0-1.96,1.46-3.33,3.33-3.33,1.55,0,2.32.91,2.32.91l-.44.64s-.71-.77-1.86-.77c-1.39,0-2.47,1.04-2.47,2.55s1.1,2.55,2.5,2.55c1.29,0,2.03-.9,2.03-.9l.39.67s-.86,1-2.47,1c-1.88,0-3.33-1.35-3.33-3.32ZM112.66,395.23v-6.35h.85v1.12c0,.28-.03.51-.03.51h.03c.3-.96,1.01-1.69,2.01-1.69.18,0,.34.04.34.04v.85s-.15-.02-.32-.02c-.9,0-1.57.71-1.84,1.64-.13.4-.18.83-.18,1.24v2.68h-.86ZM116.65,392.07c0-2.08,1.41-3.33,3.13-3.33s2.65,1.35,2.65,2.93c0,.15-.03.44-.03.44h-4.87c.04,1.63,1.15,2.51,2.46,2.51,1.16,0,1.93-.77,1.93-.77l.39.66s-.92.88-2.35.88c-1.89,0-3.32-1.36-3.32-3.32ZM117.57,391.4h3.99c-.05-1.32-.86-1.94-1.81-1.94-1.06,0-1.98.67-2.18,1.94ZM123.65,392.05c0-2.01,1.19-3.32,2.85-3.32,1.54,0,2.07,1.2,2.07,1.2h.02s-.02-.21-.02-.48v-3.09h.86v8.87h-.83v-.67c0-.28.03-.45.03-.45h-.03s-.52,1.28-2.18,1.28-2.76-1.36-2.76-3.33ZM124.53,392.05c0,1.57.82,2.56,2.01,2.56,1.06,0,2.06-.76,2.06-2.56,0-1.29-.66-2.55-2.02-2.55-1.12,0-2.04.95-2.04,2.55ZM131.06,392.07c0-2.08,1.41-3.33,3.13-3.33s2.65,1.35,2.65,2.93c0,.15-.03.44-.03.44h-4.87c.04,1.63,1.15,2.51,2.46,2.51,1.16,0,1.93-.77,1.93-.77l.39.66s-.92.88-2.35.88c-1.89,0-3.32-1.36-3.32-3.32ZM131.98,391.4h3.99c-.05-1.32-.86-1.94-1.81-1.94-1.06,0-1.98.67-2.18,1.94ZM138.48,395.23v-6.35h.85v.95c0,.28-.03.51-.03.51h.03c.23-.58,1.03-1.6,2.54-1.6s2.12.9,2.12,2.46v4.04h-.86v-3.81c0-1-.15-1.88-1.38-1.88-1.09,0-2.02.74-2.31,1.79-.08.26-.1.56-.1.86v3.04h-.86ZM146.2,392.92v-3.24h-.83v-.72h.85v-1.83h.85v1.83h1.59v.72h-1.59v3.15c0,1.49.95,1.68,1.43,1.68.18,0,.29-.02.29-.02v.77s-.14.02-.37.02c-.73,0-2.21-.24-2.21-2.36ZM150.16,387.43v-1.07h.9v1.07h-.9ZM150.18,395.23v-6.35h.86v6.35h-.86ZM152.6,393.5c0-2.15,2.79-2.2,3.89-2.2h.35v-.16c0-1.23-.67-1.64-1.58-1.64-1.05,0-1.79.61-1.79.61l-.4-.66s.83-.72,2.26-.72c1.53,0,2.37.85,2.37,2.44v4.06h-.82v-.69c0-.32.02-.53.02-.53h-.02s-.53,1.38-2.12,1.38c-1.06,0-2.16-.62-2.16-1.88ZM153.48,393.45c0,.59.47,1.2,1.41,1.2,1.21,0,1.94-1.26,1.94-2.36v-.28h-.37c-1,0-2.99.04-2.99,1.44ZM159.61,393.73v-7.37h.86v7.18c0,.83.38.96.71.96.11,0,.22-.01.22-.01v.77s-.15.02-.32.02c-.53,0-1.46-.16-1.46-1.55ZM162.28,394.46l.47-.62s.71.77,1.89.77c.68,0,1.28-.34,1.28-1.01,0-1.39-3.42-1.05-3.42-3.12,0-1.14,1.02-1.75,2.17-1.75,1.34,0,1.96.69,1.96.69l-.39.66s-.54-.58-1.59-.58c-.64,0-1.26.28-1.26.98,0,1.4,3.42,1.02,3.42,3.12,0,1.04-.9,1.78-2.17,1.78-1.54,0-2.35-.92-2.35-.92Z"/>
</g>
</g>
</svg>
