<?xml version="1.0" encoding="UTF-8"?>
<svg viewBox="0 0 355 221.79" xmlns="http://www.w3.org/2000/svg">
<defs>
<style>.cls-1{fill:none}.cls-2{mask:url(#mask)}.cls-3{fill:#2d3e50}.cls-3, .cls-4, .cls-5, .cls-6, .cls-7, .cls-8, .cls-9, .cls-10{fill-rule:evenodd}.cls-11{fill:#223447}.cls-4, .cls-12, .cls-13, .cls-14{fill:#fff}.cls-5{fill:#2e3a56}.cls-6{fill:#fefefe}.cls-12{mix-blend-mode:multiply}.cls-12, .cls-15, .cls-14{isolation:isolate}.cls-16{mask:url(#mask-2)}.cls-17{mask:url(#mask-3)}.cls-18{mask:url(#mask-4)}.cls-19{mask:url(#mask-5)}.cls-20{mask:url(#mask-7)}.cls-21{mask:url(#mask-6)}.cls-22{mask:url(#mask-1)}.cls-23{mask:url(#mask-9)}.cls-24{mask:url(#mask-8)}.cls-7{fill:#ea5e5b}.cls-25{fill:#f7f8f8}.cls-26{clip-path:url(#clippath-1)}.cls-27{clip-path:url(#clippath-2)}.cls-8{fill:#24b697}.cls-28{fill:#2c3e50}.cls-9{fill:#d3edf2}.cls-29, .cls-14{opacity:.5}.cls-30{fill:#395063}.cls-31{fill:#00bd9c}.cls-32{mask:url(#mask-95)}.cls-33{mask:url(#mask-94)}.cls-34{mask:url(#mask-92)}.cls-35{mask:url(#mask-93)}.cls-36{mask:url(#mask-98)}.cls-37{mask:url(#mask-96)}.cls-38{mask:url(#mask-91)}.cls-39{mask:url(#mask-90)}.cls-40{mask:url(#mask-97)}.cls-41{mask:url(#mask-89)}.cls-42{mask:url(#mask-85)}.cls-43{mask:url(#mask-88)}.cls-44{mask:url(#mask-84)}.cls-45{mask:url(#mask-87)}.cls-46{mask:url(#mask-81)}.cls-47{mask:url(#mask-80)}.cls-48{mask:url(#mask-82)}.cls-49{mask:url(#mask-83)}.cls-50{mask:url(#mask-86)}.cls-51{mask:url(#mask-50)}.cls-52{mask:url(#mask-54)}.cls-53{mask:url(#mask-51)}.cls-54{mask:url(#mask-53)}.cls-55{mask:url(#mask-52)}.cls-56{mask:url(#mask-55)}.cls-57{mask:url(#mask-78)}.cls-58{mask:url(#mask-60)}.cls-59{mask:url(#mask-64)}.cls-60{mask:url(#mask-62)}.cls-61{mask:url(#mask-61)}.cls-62{mask:url(#mask-66)}.cls-63{mask:url(#mask-65)}.cls-64{mask:url(#mask-79)}.cls-65{mask:url(#mask-56)}.cls-66{mask:url(#mask-77)}.cls-67{mask:url(#mask-69)}.cls-68{mask:url(#mask-68)}.cls-69{mask:url(#mask-67)}.cls-70{mask:url(#mask-41)}.cls-71{mask:url(#mask-59)}.cls-72{mask:url(#mask-31)}.cls-73{mask:url(#mask-35)}.cls-74{mask:url(#mask-30)}.cls-75{mask:url(#mask-34)}.cls-76{mask:url(#mask-33)}.cls-77{mask:url(#mask-57)}.cls-78{mask:url(#mask-44)}.cls-79{mask:url(#mask-43)}.cls-80{mask:url(#mask-40)}.cls-81{mask:url(#mask-46)}.cls-82{mask:url(#mask-45)}.cls-83{mask:url(#mask-42)}.cls-84{mask:url(#mask-58)}.cls-85{mask:url(#mask-32)}.cls-86{mask:url(#mask-10)}.cls-87{mask:url(#mask-14)}.cls-88{mask:url(#mask-18)}.cls-89{mask:url(#mask-11)}.cls-90{mask:url(#mask-16)}.cls-91{mask:url(#mask-13)}.cls-92{mask:url(#mask-19)}.cls-93{mask:url(#mask-12)}.cls-94{mask:url(#mask-17)}.cls-95{mask:url(#mask-15)}.cls-96{mask:url(#mask-22)}.cls-97{mask:url(#mask-21)}.cls-98{mask:url(#mask-20)}.cls-99{mask:url(#mask-36)}.cls-100{mask:url(#mask-25)}.cls-101{mask:url(#mask-24)}.cls-102{mask:url(#mask-23)}.cls-103{mask:url(#mask-39)}.cls-104{mask:url(#mask-38)}.cls-105{mask:url(#mask-37)}.cls-106{mask:url(#mask-49)}.cls-107{mask:url(#mask-71)}.cls-108{mask:url(#mask-72)}.cls-109{mask:url(#mask-75)}.cls-110{mask:url(#mask-70)}.cls-111{mask:url(#mask-73)}.cls-112{mask:url(#mask-63)}.cls-113{mask:url(#mask-48)}.cls-114{mask:url(#mask-47)}.cls-115{mask:url(#mask-74)}.cls-116{mask:url(#mask-76)}.cls-117{mask:url(#mask-28)}.cls-118{mask:url(#mask-29)}.cls-119{mask:url(#mask-26)}.cls-120{mask:url(#mask-27)}.cls-121{clip-path:url(#clippath)}.cls-10{fill:#347fc2}</style>
<clipPath id="clippath">
<rect class="cls-1" width="355" height="221.79" rx="12.62" ry="12.62"/>
</clipPath>
<clipPath id="clippath-1">
<rect class="cls-1" x="23.67" width="307.67" height="117.77"/>
</clipPath>
<mask id="mask" x="43.91" y="41.5" width="57.39" height="63.31" maskUnits="userSpaceOnUse">
<g id="mask0_855_152492">
<path class="cls-4" d="m43.91 41.5h57.39v63.31h-57.39v-63.31z"/>
</g>
</mask>
<mask id="mask-1" x="91.38" y="104.8" width=".62" height=".01" maskUnits="userSpaceOnUse">
<g id="mask1_855_152492">
<path class="cls-4" d="M91.38,104.8h.62s-.62.01-.62.01h0Z"/>
</g>
</mask>
<mask id="mask-2" x="91.38" y="104.8" width=".62" height=".01" maskUnits="userSpaceOnUse">
<g id="mask2_855_152492">
<path class="cls-4" d="M91.38,104.8h.62s-.62.01-.62.01h0Z"/>
</g>
</mask>
<mask id="mask-3" x="91.38" y="104.8" width=".62" height=".01" maskUnits="userSpaceOnUse">
<g id="mask3_855_152492">
<path class="cls-4" d="M91.38,104.8h.62s-.62.01-.62.01h0Z"/>
</g>
</mask>
<mask id="mask-4" x="64.31" y="88.74" width="57.4" height="16.08" maskUnits="userSpaceOnUse">
<g id="mask4_855_152492">
<path class="cls-4" d="m64.31 88.74h57.4v16.08h-57.4v-16.08z"/>
</g>
</mask>
<mask id="mask-5" x="34.03" y="41.35" width="87.68" height="63.47" maskUnits="userSpaceOnUse">
<g id="mask5_855_152492">
<path class="cls-4" d="M34.03,104.82h87.68v-63.47H34.03v63.47Z"/>
</g>
</mask>
<mask id="mask-6" x="43.91" y="41.5" width="57.39" height="63.31" maskUnits="userSpaceOnUse">
<g id="mask6_855_152492">
<path class="cls-4" d="M91.23,41.58v-.07h-47.32c5.47,0,9.91,4.44,9.91,9.91h0s0,.04,0,.06h0v42.02h.04c-.02.27-.04.55-.04.83h0c0,5.7,4.55,10.33,10.21,10.48h0c.09,0,.18.01.28.01h0c5.79,0,10.49-4.7,10.49-10.49h0c0-.28-.02-.55-.04-.83h0c-.14-1.74-.7-3.36-1.59-4.76h28.12v-38.26c0-4.96-4.02-8.98-8.98-8.98h0c-.37,0-.73.03-1.09.07"/>
</g>
</mask>
<mask id="mask-7" x="43.91" y="41.5" width="57.39" height="63.31" maskUnits="userSpaceOnUse">
<g id="mask7_855_152492">
<path class="cls-4" d="M91.23,41.58v-.07h-47.32c5.47,0,9.91,4.44,9.91,9.91h0s0,.04,0,.06h0v42.02h.04c-.02.27-.04.55-.04.83h0c0,5.7,4.55,10.33,10.21,10.48h0c.09,0,.18.01.28.01h0c5.79,0,10.49-4.7,10.49-10.49h0c0-.28-.02-.55-.04-.83h0c-.14-1.74-.7-3.36-1.59-4.76h28.12v-38.26c0-4.96-4.02-8.98-8.98-8.98h0c-.37,0-.73.03-1.09.07"/>
</g>
</mask>
<mask id="mask-8" x="43.91" y="41.5" width="57.39" height="63.31" maskUnits="userSpaceOnUse">
<g id="mask8_855_152492">
<path class="cls-4" d="M91.23,41.58v-.07h-47.32c5.47,0,9.91,4.44,9.91,9.91h0s0,.04,0,.06h0v42.02h.04c-.02.27-.04.55-.04.83h0c0,5.7,4.55,10.33,10.21,10.48h0c.09,0,.18.01.28.01h0c5.79,0,10.49-4.7,10.49-10.49h0c0-.28-.02-.55-.04-.83h0c-.14-1.74-.7-3.36-1.59-4.76h28.12v-38.26c0-4.96-4.02-8.98-8.98-8.98h0c-.37,0-.73.03-1.09.07"/>
</g>
</mask>
<mask id="mask-9" x="43.91" y="41.5" width="57.39" height="63.31" maskUnits="userSpaceOnUse">
<g id="mask9_855_152492">
<path class="cls-4" d="M91.23,41.58v-.07h-47.32c5.47,0,9.91,4.44,9.91,9.91h0s0,.04,0,.06h0v42.02h.04c-.02.27-.04.55-.04.83h0c0,5.7,4.55,10.33,10.21,10.48h0c.09,0,.18.01.28.01h0c5.79,0,10.49-4.7,10.49-10.49h0c0-.28-.02-.55-.04-.83h0c-.14-1.74-.7-3.36-1.59-4.76h28.12v-38.26c0-4.96-4.02-8.98-8.98-8.98h0c-.37,0-.73.03-1.09.07"/>
</g>
</mask>
<mask id="mask-10" x="43.91" y="41.5" width="57.39" height="63.31" maskUnits="userSpaceOnUse">
<g id="mask10_855_152492">
<path class="cls-4" d="M91.23,41.58v-.07h-47.32c5.47,0,9.91,4.44,9.91,9.91h0s0,.04,0,.06h0v42.02h.04c-.02.27-.04.55-.04.83h0c0,5.7,4.55,10.33,10.21,10.48h0c.09,0,.18.01.28.01h0c5.79,0,10.49-4.7,10.49-10.49h0c0-.28-.02-.55-.04-.83h0c-.14-1.74-.7-3.36-1.59-4.76h28.12v-38.26c0-4.96-4.02-8.98-8.98-8.98h0c-.37,0-.73.03-1.09.07"/>
</g>
</mask>
<mask id="mask-11" x="43.91" y="41.5" width="57.39" height="63.31" maskUnits="userSpaceOnUse">
<g id="mask11_855_152492">
<path class="cls-4" d="M91.23,41.58v-.07h-47.32c5.47,0,9.91,4.44,9.91,9.91h0s0,.04,0,.06h0v42.02h.04c-.02.27-.04.55-.04.83h0c0,5.7,4.55,10.33,10.21,10.48h0c.09,0,.18.01.28.01h0c5.79,0,10.49-4.7,10.49-10.49h0c0-.28-.02-.55-.04-.83h0c-.14-1.74-.7-3.36-1.59-4.76h28.12v-38.26c0-4.96-4.02-8.98-8.98-8.98h0c-.37,0-.73.03-1.09.07"/>
</g>
</mask>
<mask id="mask-12" x="43.91" y="41.5" width="57.39" height="63.31" maskUnits="userSpaceOnUse">
<g id="mask12_855_152492">
<path class="cls-4" d="M91.23,41.58v-.07h-47.32c5.47,0,9.91,4.44,9.91,9.91h0s0,.04,0,.06h0v42.02h.04c-.02.27-.04.55-.04.83h0c0,5.7,4.55,10.33,10.21,10.48h0c.09,0,.18.01.28.01h0c5.79,0,10.49-4.7,10.49-10.49h0c0-.28-.02-.55-.04-.83h0c-.14-1.74-.7-3.36-1.59-4.76h28.12v-38.26c0-4.96-4.02-8.98-8.98-8.98h0c-.37,0-.73.03-1.09.07"/>
</g>
</mask>
<mask id="mask-13" x="43.91" y="41.5" width="57.39" height="63.31" maskUnits="userSpaceOnUse">
<g id="mask13_855_152492">
<path class="cls-4" d="M91.23,41.58v-.07h-47.32c5.47,0,9.91,4.44,9.91,9.91h0s0,.04,0,.06h0v42.02h.04c-.02.27-.04.55-.04.83h0c0,5.7,4.55,10.33,10.21,10.48h0c.09,0,.18.01.28.01h0c5.79,0,10.49-4.7,10.49-10.49h0c0-.28-.02-.55-.04-.83h0c-.14-1.74-.7-3.36-1.59-4.76h28.12v-38.26c0-4.96-4.02-8.98-8.98-8.98h0c-.37,0-.73.03-1.09.07"/>
</g>
</mask>
<mask id="mask-14" x="43.91" y="41.5" width="57.39" height="63.31" maskUnits="userSpaceOnUse">
<g id="mask14_855_152492">
<path class="cls-4" d="M91.23,41.58v-.07h-47.32c5.47,0,9.91,4.44,9.91,9.91h0s0,.04,0,.06h0v42.02h.04c-.02.27-.04.55-.04.83h0c0,5.7,4.55,10.33,10.21,10.48h0c.09,0,.18.01.28.01h0c5.79,0,10.49-4.7,10.49-10.49h0c0-.28-.02-.55-.04-.83h0c-.14-1.74-.7-3.36-1.59-4.76h28.12v-38.26c0-4.96-4.02-8.98-8.98-8.98h0c-.37,0-.73.03-1.09.07"/>
</g>
</mask>
<mask id="mask-15" x="43.91" y="41.5" width="57.39" height="63.31" maskUnits="userSpaceOnUse">
<g id="mask15_855_152492">
<path class="cls-4" d="M91.23,41.58v-.07h-47.32c5.47,0,9.91,4.44,9.91,9.91h0s0,.04,0,.06h0v42.02h.04c-.02.27-.04.55-.04.83h0c0,5.7,4.55,10.33,10.21,10.48h0c.09,0,.18.01.28.01h0c5.79,0,10.49-4.7,10.49-10.49h0c0-.28-.02-.55-.04-.83h0c-.14-1.74-.7-3.36-1.59-4.76h28.12v-38.26c0-4.96-4.02-8.98-8.98-8.98h0c-.37,0-.73.03-1.09.07"/>
</g>
</mask>
<mask id="mask-16" x="43.91" y="41.5" width="57.39" height="63.31" maskUnits="userSpaceOnUse">
<g id="mask16_855_152492">
<path class="cls-4" d="M91.23,41.58v-.07h-47.32c5.47,0,9.91,4.44,9.91,9.91h0s0,.04,0,.06h0v42.02h.04c-.02.27-.04.55-.04.83h0c0,5.7,4.55,10.33,10.21,10.48h0c.09,0,.18.01.28.01h0c5.79,0,10.49-4.7,10.49-10.49h0c0-.28-.02-.55-.04-.83h0c-.14-1.74-.7-3.36-1.59-4.76h28.12v-38.26c0-4.96-4.02-8.98-8.98-8.98h0c-.37,0-.73.03-1.09.07"/>
</g>
</mask>
<mask id="mask-17" x="43.91" y="41.5" width="57.39" height="63.31" maskUnits="userSpaceOnUse">
<g id="mask17_855_152492">
<path class="cls-4" d="M91.23,41.58v-.07h-47.32c5.47,0,9.91,4.44,9.91,9.91h0s0,.04,0,.06h0v42.02h.04c-.02.27-.04.55-.04.83h0c0,5.7,4.55,10.33,10.21,10.48h0c.09,0,.18.01.28.01h0c5.79,0,10.49-4.7,10.49-10.49h0c0-.28-.02-.55-.04-.83h0c-.14-1.74-.7-3.36-1.59-4.76h28.12v-38.26c0-4.96-4.02-8.98-8.98-8.98h0c-.37,0-.73.03-1.09.07"/>
</g>
</mask>
<mask id="mask-18" x="43.91" y="41.5" width="57.39" height="63.31" maskUnits="userSpaceOnUse">
<g id="mask18_855_152492">
<path class="cls-4" d="M91.23,41.58v-.07h-47.32c5.47,0,9.91,4.44,9.91,9.91h0s0,.04,0,.06h0v42.02h.04c-.02.27-.04.55-.04.83h0c0,5.7,4.55,10.33,10.21,10.48h0c.09,0,.18.01.28.01h0c5.79,0,10.49-4.7,10.49-10.49h0c0-.28-.02-.55-.04-.83h0c-.14-1.74-.7-3.36-1.59-4.76h28.12v-38.26c0-4.96-4.02-8.98-8.98-8.98h0c-.37,0-.73.03-1.09.07"/>
</g>
</mask>
<mask id="mask-19" x="43.91" y="41.5" width="57.39" height="63.31" maskUnits="userSpaceOnUse">
<g id="mask19_855_152492">
<path class="cls-4" d="M91.23,41.58v-.07h-47.32c5.47,0,9.91,4.44,9.91,9.91h0s0,.04,0,.06h0v42.02h.04c-.02.27-.04.55-.04.83h0c0,5.7,4.55,10.33,10.21,10.48h0c.09,0,.18.01.28.01h0c5.79,0,10.49-4.7,10.49-10.49h0c0-.28-.02-.55-.04-.83h0c-.14-1.74-.7-3.36-1.59-4.76h28.12v-38.26c0-4.96-4.02-8.98-8.98-8.98h0c-.37,0-.73.03-1.09.07"/>
</g>
</mask>
<mask id="mask-20" x="43.91" y="41.5" width="57.39" height="63.31" maskUnits="userSpaceOnUse">
<g id="mask20_855_152492">
<path class="cls-4" d="M91.23,41.58v-.07h-47.32c5.47,0,9.91,4.44,9.91,9.91h0s0,.04,0,.06h0v42.02h.04c-.02.27-.04.55-.04.83h0c0,5.7,4.55,10.33,10.21,10.48h0c.09,0,.18.01.28.01h0c5.79,0,10.49-4.7,10.49-10.49h0c0-.28-.02-.55-.04-.83h0c-.14-1.74-.7-3.36-1.59-4.76h28.12v-38.26c0-4.96-4.02-8.98-8.98-8.98h0c-.37,0-.73.03-1.09.07"/>
</g>
</mask>
<mask id="mask-21" x="43.91" y="41.5" width="57.39" height="63.31" maskUnits="userSpaceOnUse">
<g id="mask21_855_152492">
<path class="cls-4" d="M91.23,41.58v-.07h-47.32c5.47,0,9.91,4.44,9.91,9.91h0s0,.04,0,.06h0v42.02h.04c-.02.27-.04.55-.04.83h0c0,5.7,4.55,10.33,10.21,10.48h0c.09,0,.18.01.28.01h0c5.79,0,10.49-4.7,10.49-10.49h0c0-.28-.02-.55-.04-.83h0c-.14-1.74-.7-3.36-1.59-4.76h28.12v-38.26c0-4.96-4.02-8.98-8.98-8.98h0c-.37,0-.73.03-1.09.07"/>
</g>
</mask>
<mask id="mask-22" x="43.91" y="41.5" width="57.39" height="63.31" maskUnits="userSpaceOnUse">
<g id="mask22_855_152492">
<path class="cls-4" d="M91.23,41.58v-.07h-47.32c5.47,0,9.91,4.44,9.91,9.91h0s0,.04,0,.06h0v42.02h.04c-.02.27-.04.55-.04.83h0c0,5.7,4.55,10.33,10.21,10.48h0c.09,0,.18.01.28.01h0c5.79,0,10.49-4.7,10.49-10.49h0c0-.28-.02-.55-.04-.83h0c-.14-1.74-.7-3.36-1.59-4.76h28.12v-38.26c0-4.96-4.02-8.98-8.98-8.98h0c-.37,0-.73.03-1.09.07"/>
</g>
</mask>
<mask id="mask-23" x="43.91" y="41.5" width="57.39" height="63.31" maskUnits="userSpaceOnUse">
<g id="mask23_855_152492">
<path class="cls-4" d="M91.23,41.58v-.07h-47.32c5.47,0,9.91,4.44,9.91,9.91h0s0,.04,0,.06h0v42.02h.04c-.02.27-.04.55-.04.83h0c0,5.7,4.55,10.33,10.21,10.48h0c.09,0,.18.01.28.01h0c5.79,0,10.49-4.7,10.49-10.49h0c0-.28-.02-.55-.04-.83h0c-.14-1.74-.7-3.36-1.59-4.76h28.12v-38.26c0-4.96-4.02-8.98-8.98-8.98h0c-.37,0-.73.03-1.09.07"/>
</g>
</mask>
<mask id="mask-24" x="43.91" y="41.5" width="57.39" height="63.31" maskUnits="userSpaceOnUse">
<g id="mask24_855_152492">
<path class="cls-4" d="M91.23,41.58v-.07h-47.32c5.47,0,9.91,4.44,9.91,9.91h0s0,.04,0,.06h0v42.02h.04c-.02.27-.04.55-.04.83h0c0,5.7,4.55,10.33,10.21,10.48h0c.09,0,.18.01.28.01h0c5.79,0,10.49-4.7,10.49-10.49h0c0-.28-.02-.55-.04-.83h0c-.14-1.74-.7-3.36-1.59-4.76h28.12v-38.26c0-4.96-4.02-8.98-8.98-8.98h0c-.37,0-.73.03-1.09.07"/>
</g>
</mask>
<mask id="mask-25" x="43.91" y="41.5" width="57.39" height="63.31" maskUnits="userSpaceOnUse">
<g id="mask25_855_152492">
<path class="cls-4" d="M91.23,41.58v-.07h-47.32c5.47,0,9.91,4.44,9.91,9.91h0s0,.04,0,.06h0v42.02h.04c-.02.27-.04.55-.04.83h0c0,5.7,4.55,10.33,10.21,10.48h0c.09,0,.18.01.28.01h0c5.79,0,10.49-4.7,10.49-10.49h0c0-.28-.02-.55-.04-.83h0c-.14-1.74-.7-3.36-1.59-4.76h28.12v-38.26c0-4.96-4.02-8.98-8.98-8.98h0c-.37,0-.73.03-1.09.07"/>
</g>
</mask>
<mask id="mask-26" x="43.91" y="41.5" width="57.39" height="63.31" maskUnits="userSpaceOnUse">
<g id="mask26_855_152492">
<path class="cls-4" d="M91.23,41.58v-.07h-47.32c5.47,0,9.91,4.44,9.91,9.91h0s0,.04,0,.06h0v42.02h.04c-.02.27-.04.55-.04.83h0c0,5.7,4.55,10.33,10.21,10.48h0c.09,0,.18.01.28.01h0c5.79,0,10.49-4.7,10.49-10.49h0c0-.28-.02-.55-.04-.83h0c-.14-1.74-.7-3.36-1.59-4.76h28.12v-38.26c0-4.96-4.02-8.98-8.98-8.98h0c-.37,0-.73.03-1.09.07"/>
</g>
</mask>
<mask id="mask-27" x="43.91" y="41.5" width="57.39" height="63.31" maskUnits="userSpaceOnUse">
<g id="mask27_855_152492">
<path class="cls-4" d="M91.23,41.58v-.07h-47.32c5.47,0,9.91,4.44,9.91,9.91h0s0,.04,0,.06h0v42.02h.04c-.02.27-.04.55-.04.83h0c0,5.7,4.55,10.33,10.21,10.48h0c.09,0,.18.01.28.01h0c5.79,0,10.49-4.7,10.49-10.49h0c0-.28-.02-.55-.04-.83h0c-.14-1.74-.7-3.36-1.59-4.76h28.12v-38.26c0-4.96-4.02-8.98-8.98-8.98h0c-.37,0-.73.03-1.09.07"/>
</g>
</mask>
<mask id="mask-28" x="43.91" y="41.5" width="57.39" height="63.31" maskUnits="userSpaceOnUse">
<g id="mask28_855_152492">
<path class="cls-4" d="M91.23,41.58v-.07h-47.32c5.47,0,9.91,4.44,9.91,9.91h0s0,.04,0,.06h0v42.02h.04c-.02.27-.04.55-.04.83h0c0,5.7,4.55,10.33,10.21,10.48h0c.09,0,.18.01.28.01h0c5.79,0,10.49-4.7,10.49-10.49h0c0-.28-.02-.55-.04-.83h0c-.14-1.74-.7-3.36-1.59-4.76h28.12v-38.26c0-4.96-4.02-8.98-8.98-8.98h0c-.37,0-.73.03-1.09.07"/>
</g>
</mask>
<mask id="mask-29" x="43.91" y="41.5" width="57.39" height="63.31" maskUnits="userSpaceOnUse">
<g id="mask29_855_152492">
<path class="cls-4" d="M91.23,41.58v-.07h-47.32c5.47,0,9.91,4.44,9.91,9.91h0s0,.04,0,.06h0v42.02h.04c-.02.27-.04.55-.04.83h0c0,5.7,4.55,10.33,10.21,10.48h0c.09,0,.18.01.28.01h0c5.79,0,10.49-4.7,10.49-10.49h0c0-.28-.02-.55-.04-.83h0c-.14-1.74-.7-3.36-1.59-4.76h28.12v-38.26c0-4.96-4.02-8.98-8.98-8.98h0c-.37,0-.73.03-1.09.07"/>
</g>
</mask>
<mask id="mask-30" x="43.91" y="41.5" width="57.39" height="63.31" maskUnits="userSpaceOnUse">
<g id="mask30_855_152492">
<path class="cls-4" d="M91.23,41.58v-.07h-47.32c5.47,0,9.91,4.44,9.91,9.91h0s0,.04,0,.06h0v42.02h.04c-.02.27-.04.55-.04.83h0c0,5.7,4.55,10.33,10.21,10.48h0c.09,0,.18.01.28.01h0c5.79,0,10.49-4.7,10.49-10.49h0c0-.28-.02-.55-.04-.83h0c-.14-1.74-.7-3.36-1.59-4.76h28.12v-38.26c0-4.96-4.02-8.98-8.98-8.98h0c-.37,0-.73.03-1.09.07"/>
</g>
</mask>
<mask id="mask-31" x="43.91" y="41.5" width="57.39" height="63.31" maskUnits="userSpaceOnUse">
<g id="mask31_855_152492">
<path class="cls-4" d="M91.23,41.58v-.07h-47.32c5.47,0,9.91,4.44,9.91,9.91h0s0,.04,0,.06h0v42.02h.04c-.02.27-.04.55-.04.83h0c0,5.7,4.55,10.33,10.21,10.48h0c.09,0,.18.01.28.01h0c5.79,0,10.49-4.7,10.49-10.49h0c0-.28-.02-.55-.04-.83h0c-.14-1.74-.7-3.36-1.59-4.76h28.12v-38.26c0-4.96-4.02-8.98-8.98-8.98h0c-.37,0-.73.03-1.09.07"/>
</g>
</mask>
<mask id="mask-32" x="43.91" y="41.5" width="57.39" height="63.31" maskUnits="userSpaceOnUse">
<g id="mask32_855_152492">
<path class="cls-4" d="M91.23,41.58v-.07h-47.32c5.47,0,9.91,4.44,9.91,9.91h0s0,.04,0,.06h0v42.02h.04c-.02.27-.04.55-.04.83h0c0,5.7,4.55,10.33,10.21,10.48h0c.09,0,.18.01.28.01h0c5.79,0,10.49-4.7,10.49-10.49h0c0-.28-.02-.55-.04-.83h0c-.14-1.74-.7-3.36-1.59-4.76h28.12v-38.26c0-4.96-4.02-8.98-8.98-8.98h0c-.37,0-.73.03-1.09.07"/>
</g>
</mask>
<mask id="mask-33" x="43.91" y="41.5" width="57.39" height="63.31" maskUnits="userSpaceOnUse">
<g id="mask33_855_152492">
<path class="cls-4" d="M91.23,41.58v-.07h-47.32c5.47,0,9.91,4.44,9.91,9.91h0s0,.04,0,.06h0v42.02h.04c-.02.27-.04.55-.04.83h0c0,5.7,4.55,10.33,10.21,10.48h0c.09,0,.18.01.28.01h0c5.79,0,10.49-4.7,10.49-10.49h0c0-.28-.02-.55-.04-.83h0c-.14-1.74-.7-3.36-1.59-4.76h28.12v-38.26c0-4.96-4.02-8.98-8.98-8.98h0c-.37,0-.73.03-1.09.07"/>
</g>
</mask>
<mask id="mask-34" x="43.91" y="41.5" width="57.39" height="63.31" maskUnits="userSpaceOnUse">
<g id="mask34_855_152492">
<path class="cls-4" d="M91.23,41.58v-.07h-47.32c5.47,0,9.91,4.44,9.91,9.91h0s0,.04,0,.06h0v42.02h.04c-.02.27-.04.55-.04.83h0c0,5.7,4.55,10.33,10.21,10.48h0c.09,0,.18.01.28.01h0c5.79,0,10.49-4.7,10.49-10.49h0c0-.28-.02-.55-.04-.83h0c-.14-1.74-.7-3.36-1.59-4.76h28.12v-38.26c0-4.96-4.02-8.98-8.98-8.98h0c-.37,0-.73.03-1.09.07"/>
</g>
</mask>
<mask id="mask-35" x="43.91" y="41.5" width="57.39" height="63.31" maskUnits="userSpaceOnUse">
<g id="mask35_855_152492">
<path class="cls-4" d="M91.23,41.58v-.07h-47.32c5.47,0,9.91,4.44,9.91,9.91h0s0,.04,0,.06h0v42.02h.04c-.02.27-.04.55-.04.83h0c0,5.7,4.55,10.33,10.21,10.48h0c.09,0,.18.01.28.01h0c5.79,0,10.49-4.7,10.49-10.49h0c0-.28-.02-.55-.04-.83h0c-.14-1.74-.7-3.36-1.59-4.76h28.12v-38.26c0-4.96-4.02-8.98-8.98-8.98h0c-.37,0-.73.03-1.09.07"/>
</g>
</mask>
<mask id="mask-36" x="43.91" y="41.5" width="57.39" height="63.31" maskUnits="userSpaceOnUse">
<g id="mask36_855_152492">
<path class="cls-4" d="M91.23,41.58v-.07h-47.32c5.47,0,9.91,4.44,9.91,9.91h0s0,.04,0,.06h0v42.02h.04c-.02.27-.04.55-.04.83h0c0,5.7,4.55,10.33,10.21,10.48h0c.09,0,.18.01.28.01h0c5.79,0,10.49-4.7,10.49-10.49h0c0-.28-.02-.55-.04-.83h0c-.14-1.74-.7-3.36-1.59-4.76h28.12v-38.26c0-4.96-4.02-8.98-8.98-8.98h0c-.37,0-.73.03-1.09.07"/>
</g>
</mask>
<mask id="mask-37" x="43.91" y="41.5" width="57.39" height="63.31" maskUnits="userSpaceOnUse">
<g id="mask37_855_152492">
<path class="cls-4" d="M91.23,41.58v-.07h-47.32c5.47,0,9.91,4.44,9.91,9.91h0s0,.04,0,.06h0v42.02h.04c-.02.27-.04.55-.04.83h0c0,5.7,4.55,10.33,10.21,10.48h0c.09,0,.18.01.28.01h0c5.79,0,10.49-4.7,10.49-10.49h0c0-.28-.02-.55-.04-.83h0c-.14-1.74-.7-3.36-1.59-4.76h28.12v-38.26c0-4.96-4.02-8.98-8.98-8.98h0c-.37,0-.73.03-1.09.07"/>
</g>
</mask>
<mask id="mask-38" x="43.91" y="41.5" width="57.39" height="63.31" maskUnits="userSpaceOnUse">
<g id="mask38_855_152492">
<path class="cls-4" d="M91.23,41.58v-.07h-47.32c5.47,0,9.91,4.44,9.91,9.91h0s0,.04,0,.06h0v42.02h.04c-.02.27-.04.55-.04.83h0c0,5.7,4.55,10.33,10.21,10.48h0c.09,0,.18.01.28.01h0c5.79,0,10.49-4.7,10.49-10.49h0c0-.28-.02-.55-.04-.83h0c-.14-1.74-.7-3.36-1.59-4.76h28.12v-38.26c0-4.96-4.02-8.98-8.98-8.98h0c-.37,0-.73.03-1.09.07"/>
</g>
</mask>
<mask id="mask-39" x="43.91" y="41.5" width="57.39" height="63.31" maskUnits="userSpaceOnUse">
<g id="mask39_855_152492">
<path class="cls-4" d="M91.23,41.58v-.07h-47.32c5.47,0,9.91,4.44,9.91,9.91h0s0,.04,0,.06h0v42.02h.04c-.02.27-.04.55-.04.83h0c0,5.7,4.55,10.33,10.21,10.48h0c.09,0,.18.01.28.01h0c5.79,0,10.49-4.7,10.49-10.49h0c0-.28-.02-.55-.04-.83h0c-.14-1.74-.7-3.36-1.59-4.76h28.12v-38.26c0-4.96-4.02-8.98-8.98-8.98h0c-.37,0-.73.03-1.09.07"/>
</g>
</mask>
<mask id="mask-40" x="43.91" y="41.5" width="57.39" height="63.31" maskUnits="userSpaceOnUse">
<g id="mask40_855_152492">
<path class="cls-4" d="M91.23,41.58v-.07h-47.32c5.47,0,9.91,4.44,9.91,9.91h0s0,.04,0,.06h0v42.02h.04c-.02.27-.04.55-.04.83h0c0,5.7,4.55,10.33,10.21,10.48h0c.09,0,.18.01.28.01h0c5.79,0,10.49-4.7,10.49-10.49h0c0-.28-.02-.55-.04-.83h0c-.14-1.74-.7-3.36-1.59-4.76h28.12v-38.26c0-4.96-4.02-8.98-8.98-8.98h0c-.37,0-.73.03-1.09.07"/>
</g>
</mask>
<mask id="mask-41" x="43.91" y="41.5" width="57.39" height="63.31" maskUnits="userSpaceOnUse">
<g id="mask41_855_152492">
<path class="cls-4" d="M91.23,41.58v-.07h-47.32c5.47,0,9.91,4.44,9.91,9.91h0s0,.04,0,.06h0v42.02h.04c-.02.27-.04.55-.04.83h0c0,5.7,4.55,10.33,10.21,10.48h0c.09,0,.18.01.28.01h0c5.79,0,10.49-4.7,10.49-10.49h0c0-.28-.02-.55-.04-.83h0c-.14-1.74-.7-3.36-1.59-4.76h28.12v-38.26c0-4.96-4.02-8.98-8.98-8.98h0c-.37,0-.73.03-1.09.07"/>
</g>
</mask>
<mask id="mask-42" x="43.91" y="41.5" width="57.39" height="63.31" maskUnits="userSpaceOnUse">
<g id="mask42_855_152492">
<path class="cls-4" d="M91.23,41.58v-.07h-47.32c5.47,0,9.91,4.44,9.91,9.91h0s0,.04,0,.06h0v42.02h.04c-.02.27-.04.55-.04.83h0c0,5.7,4.55,10.33,10.21,10.48h0c.09,0,.18.01.28.01h0c5.79,0,10.49-4.7,10.49-10.49h0c0-.28-.02-.55-.04-.83h0c-.14-1.74-.7-3.36-1.59-4.76h28.12v-38.26c0-4.96-4.02-8.98-8.98-8.98h0c-.37,0-.73.03-1.09.07"/>
</g>
</mask>
<mask id="mask-43" x="43.91" y="41.5" width="57.39" height="63.31" maskUnits="userSpaceOnUse">
<g id="mask43_855_152492">
<path class="cls-4" d="M91.23,41.58v-.07h-47.32c5.47,0,9.91,4.44,9.91,9.91h0s0,.04,0,.06h0v42.02h.04c-.02.27-.04.55-.04.83h0c0,5.7,4.55,10.33,10.21,10.48h0c.09,0,.18.01.28.01h0c5.79,0,10.49-4.7,10.49-10.49h0c0-.28-.02-.55-.04-.83h0c-.14-1.74-.7-3.36-1.59-4.76h28.12v-38.26c0-4.96-4.02-8.98-8.98-8.98h0c-.37,0-.73.03-1.09.07"/>
</g>
</mask>
<mask id="mask-44" x="43.91" y="41.5" width="57.39" height="63.31" maskUnits="userSpaceOnUse">
<g id="mask44_855_152492">
<path class="cls-4" d="M91.23,41.58v-.07h-47.32c5.47,0,9.91,4.44,9.91,9.91h0s0,.04,0,.06h0v42.02h.04c-.02.27-.04.55-.04.83h0c0,5.7,4.55,10.33,10.21,10.48h0c.09,0,.18.01.28.01h0c5.79,0,10.49-4.7,10.49-10.49h0c0-.28-.02-.55-.04-.83h0c-.14-1.74-.7-3.36-1.59-4.76h28.12v-38.26c0-4.96-4.02-8.98-8.98-8.98h0c-.37,0-.73.03-1.09.07"/>
</g>
</mask>
<mask id="mask-45" x="43.91" y="41.5" width="57.39" height="63.31" maskUnits="userSpaceOnUse">
<g id="mask45_855_152492">
<path class="cls-4" d="M91.23,41.58v-.07h-47.32c5.47,0,9.91,4.44,9.91,9.91h0s0,.04,0,.06h0v42.02h.04c-.02.27-.04.55-.04.83h0c0,5.7,4.55,10.33,10.21,10.48h0c.09,0,.18.01.28.01h0c5.79,0,10.49-4.7,10.49-10.49h0c0-.28-.02-.55-.04-.83h0c-.14-1.74-.7-3.36-1.59-4.76h28.12v-38.26c0-4.96-4.02-8.98-8.98-8.98h0c-.37,0-.73.03-1.09.07"/>
</g>
</mask>
<mask id="mask-46" x="43.91" y="41.5" width="57.39" height="63.31" maskUnits="userSpaceOnUse">
<g id="mask46_855_152492">
<path class="cls-4" d="M91.23,41.58v-.07h-47.32c5.47,0,9.91,4.44,9.91,9.91h0s0,.04,0,.06h0v42.02h.04c-.02.27-.04.55-.04.83h0c0,5.7,4.55,10.33,10.21,10.48h0c.09,0,.18.01.28.01h0c5.79,0,10.49-4.7,10.49-10.49h0c0-.28-.02-.55-.04-.83h0c-.14-1.74-.7-3.36-1.59-4.76h28.12v-38.26c0-4.96-4.02-8.98-8.98-8.98h0c-.37,0-.73.03-1.09.07"/>
</g>
</mask>
<mask id="mask-47" x="43.91" y="41.5" width="57.39" height="63.31" maskUnits="userSpaceOnUse">
<g id="mask47_855_152492">
<path class="cls-4" d="M91.23,41.58v-.07h-47.32c5.47,0,9.91,4.44,9.91,9.91h0s0,.04,0,.06h0v42.02h.04c-.02.27-.04.55-.04.83h0c0,5.7,4.55,10.33,10.21,10.48h0c.09,0,.18.01.28.01h0c5.79,0,10.49-4.7,10.49-10.49h0c0-.28-.02-.55-.04-.83h0c-.14-1.74-.7-3.36-1.59-4.76h28.12v-38.26c0-4.96-4.02-8.98-8.98-8.98h0c-.37,0-.73.03-1.09.07"/>
</g>
</mask>
<mask id="mask-48" x="43.91" y="41.5" width="57.39" height="63.31" maskUnits="userSpaceOnUse">
<g id="mask48_855_152492">
<path class="cls-4" d="M91.23,41.58v-.07h-47.32c5.47,0,9.91,4.44,9.91,9.91h0s0,.04,0,.06h0v42.02h.04c-.02.27-.04.55-.04.83h0c0,5.7,4.55,10.33,10.21,10.48h0c.09,0,.18.01.28.01h0c5.79,0,10.49-4.7,10.49-10.49h0c0-.28-.02-.55-.04-.83h0c-.14-1.74-.7-3.36-1.59-4.76h28.12v-38.26c0-4.96-4.02-8.98-8.98-8.98h0c-.37,0-.73.03-1.09.07"/>
</g>
</mask>
<mask id="mask-49" x="43.91" y="41.5" width="57.39" height="63.31" maskUnits="userSpaceOnUse">
<g id="mask49_855_152492">
<path class="cls-4" d="M91.23,41.58v-.07h-47.32c5.47,0,9.91,4.44,9.91,9.91h0s0,.04,0,.06h0v42.02h.04c-.02.27-.04.55-.04.83h0c0,5.7,4.55,10.33,10.21,10.48h0c.09,0,.18.01.28.01h0c5.79,0,10.49-4.7,10.49-10.49h0c0-.28-.02-.55-.04-.83h0c-.14-1.74-.7-3.36-1.59-4.76h28.12v-38.26c0-4.96-4.02-8.98-8.98-8.98h0c-.37,0-.73.03-1.09.07"/>
</g>
</mask>
<mask id="mask-50" x="43.91" y="41.5" width="57.39" height="63.31" maskUnits="userSpaceOnUse">
<g id="mask50_855_152492">
<path class="cls-4" d="M91.23,41.58v-.07h-47.32c5.47,0,9.91,4.44,9.91,9.91h0s0,.04,0,.06h0v42.02h.04c-.02.27-.04.55-.04.83h0c0,5.7,4.55,10.33,10.21,10.48h0c.09,0,.18.01.28.01h0c5.79,0,10.49-4.7,10.49-10.49h0c0-.28-.02-.55-.04-.83h0c-.14-1.74-.7-3.36-1.59-4.76h28.12v-38.26c0-4.96-4.02-8.98-8.98-8.98h0c-.37,0-.73.03-1.09.07"/>
</g>
</mask>
<mask id="mask-51" x="34.03" y="41.5" width="19.76" height="9.33" maskUnits="userSpaceOnUse">
<g id="mask51_855_152492">
<path class="cls-4" d="m34.03 50.84h19.76c-0.3-5.2-4.6-9.33-9.88-9.33s-9.58 4.13-9.88 9.33"/>
</g>
</mask>
<mask id="mask-52" x="34.03" y="41.5" width="19.76" height="9.33" maskUnits="userSpaceOnUse">
<g id="mask52_855_152492">
<path class="cls-4" d="m34.03 50.84h19.76c-0.3-5.2-4.6-9.33-9.88-9.33s-9.58 4.13-9.88 9.33"/>
</g>
</mask>
<mask id="mask-53" x="34.03" y="41.5" width="19.76" height="9.33" maskUnits="userSpaceOnUse">
<g id="mask53_855_152492">
<path class="cls-4" d="m34.03 50.84h19.76c-0.3-5.2-4.6-9.33-9.88-9.33s-9.58 4.13-9.88 9.33"/>
</g>
</mask>
<mask id="mask-54" x="34.03" y="41.5" width="19.76" height="9.33" maskUnits="userSpaceOnUse">
<g id="mask54_855_152492">
<path class="cls-4" d="m34.03 50.84h19.76c-0.3-5.2-4.6-9.33-9.88-9.33s-9.58 4.13-9.88 9.33"/>
</g>
</mask>
<mask id="mask-55" x="34.03" y="41.5" width="19.76" height="9.33" maskUnits="userSpaceOnUse">
<g id="mask55_855_152492">
<path class="cls-4" d="m34.03 50.84h19.76c-0.3-5.2-4.6-9.33-9.88-9.33s-9.58 4.13-9.88 9.33"/>
</g>
</mask>
<mask id="mask-56" x="34.03" y="41.5" width="19.76" height="9.33" maskUnits="userSpaceOnUse">
<g id="mask56_855_152492">
<path class="cls-4" d="m34.03 50.84h19.76c-0.3-5.2-4.6-9.33-9.88-9.33s-9.58 4.13-9.88 9.33"/>
</g>
</mask>
<mask id="mask-57" x="34.03" y="41.5" width="19.76" height="9.33" maskUnits="userSpaceOnUse">
<g id="mask57_855_152492">
<path class="cls-4" d="m34.03 50.84h19.76c-0.3-5.2-4.6-9.33-9.88-9.33s-9.58 4.13-9.88 9.33"/>
</g>
</mask>
<mask id="mask-58" x="34.03" y="41.5" width="19.76" height="9.33" maskUnits="userSpaceOnUse">
<g id="mask58_855_152492">
<path class="cls-4" d="m34.03 50.84h19.76c-0.3-5.2-4.6-9.33-9.88-9.33s-9.58 4.13-9.88 9.33"/>
</g>
</mask>
<mask id="mask-59" x="34.03" y="41.5" width="19.76" height="9.33" maskUnits="userSpaceOnUse">
<g id="mask59_855_152492">
<path class="cls-4" d="m34.03 50.84h19.76c-0.3-5.2-4.6-9.33-9.88-9.33s-9.58 4.13-9.88 9.33"/>
</g>
</mask>
<mask id="mask-60" x="34.03" y="41.5" width="19.76" height="9.33" maskUnits="userSpaceOnUse">
<g id="mask60_855_152492">
<path class="cls-4" d="m34.03 50.84h19.76c-0.3-5.2-4.6-9.33-9.88-9.33s-9.58 4.13-9.88 9.33"/>
</g>
</mask>
<mask id="mask-61" x="34.03" y="41.5" width="19.76" height="9.33" maskUnits="userSpaceOnUse">
<g id="mask61_855_152492">
<path class="cls-4" d="m34.03 50.84h19.76c-0.3-5.2-4.6-9.33-9.88-9.33s-9.58 4.13-9.88 9.33"/>
</g>
</mask>
<mask id="mask-62" x="34.03" y="41.5" width="19.76" height="9.33" maskUnits="userSpaceOnUse">
<g id="mask62_855_152492">
<path class="cls-4" d="m34.03 50.84h19.76c-0.3-5.2-4.6-9.33-9.88-9.33s-9.58 4.13-9.88 9.33"/>
</g>
</mask>
<mask id="mask-63" x="34.03" y="41.5" width="19.76" height="9.33" maskUnits="userSpaceOnUse">
<g id="mask63_855_152492">
<path class="cls-4" d="m34.03 50.84h19.76c-0.3-5.2-4.6-9.33-9.88-9.33s-9.58 4.13-9.88 9.33"/>
</g>
</mask>
<mask id="mask-64" x="34.03" y="41.5" width="19.76" height="9.33" maskUnits="userSpaceOnUse">
<g id="mask64_855_152492">
<path class="cls-4" d="m34.03 50.84h19.76c-0.3-5.2-4.6-9.33-9.88-9.33s-9.58 4.13-9.88 9.33"/>
</g>
</mask>
<mask id="mask-65" x="34.03" y="41.5" width="19.76" height="9.33" maskUnits="userSpaceOnUse">
<g id="mask65_855_152492">
<path class="cls-4" d="m34.03 50.84h19.76c-0.3-5.2-4.6-9.33-9.88-9.33s-9.58 4.13-9.88 9.33"/>
</g>
</mask>
<mask id="mask-66" x="34.03" y="41.5" width="19.76" height="9.33" maskUnits="userSpaceOnUse">
<g id="mask66_855_152492">
<path class="cls-4" d="m34.03 50.84h19.76c-0.3-5.2-4.6-9.33-9.88-9.33s-9.58 4.13-9.88 9.33"/>
</g>
</mask>
<mask id="mask-67" x="34.03" y="41.5" width="19.76" height="9.33" maskUnits="userSpaceOnUse">
<g id="mask67_855_152492">
<path class="cls-4" d="m34.03 50.84h19.76c-0.3-5.2-4.6-9.33-9.88-9.33s-9.58 4.13-9.88 9.33"/>
</g>
</mask>
<mask id="mask-68" x="34.03" y="41.5" width="19.76" height="9.33" maskUnits="userSpaceOnUse">
<g id="mask68_855_152492">
<path class="cls-4" d="m34.03 50.84h19.76c-0.3-5.2-4.6-9.33-9.88-9.33s-9.58 4.13-9.88 9.33"/>
</g>
</mask>
<mask id="mask-69" x="34.03" y="41.5" width="19.76" height="9.33" maskUnits="userSpaceOnUse">
<g id="mask69_855_152492">
<path class="cls-4" d="m34.03 50.84h19.76c-0.3-5.2-4.6-9.33-9.88-9.33s-9.58 4.13-9.88 9.33"/>
</g>
</mask>
<mask id="mask-70" x="34.03" y="41.5" width="19.76" height="9.33" maskUnits="userSpaceOnUse">
<g id="mask70_855_152492">
<path class="cls-4" d="m34.03 50.84h19.76c-0.3-5.2-4.6-9.33-9.88-9.33s-9.58 4.13-9.88 9.33"/>
</g>
</mask>
<mask id="mask-71" x="34.03" y="41.5" width="19.76" height="9.33" maskUnits="userSpaceOnUse">
<g id="mask71_855_152492">
<path class="cls-4" d="m34.03 50.84h19.76c-0.3-5.2-4.6-9.33-9.88-9.33s-9.58 4.13-9.88 9.33"/>
</g>
</mask>
<mask id="mask-72" x="34.03" y="41.5" width="19.76" height="9.33" maskUnits="userSpaceOnUse">
<g id="mask72_855_152492">
<path class="cls-4" d="m34.03 50.84h19.76c-0.3-5.2-4.6-9.33-9.88-9.33s-9.58 4.13-9.88 9.33"/>
</g>
</mask>
<mask id="mask-73" x="34.03" y="41.5" width="19.76" height="9.33" maskUnits="userSpaceOnUse">
<g id="mask73_855_152492">
<path class="cls-4" d="m34.03 50.84h19.76c-0.3-5.2-4.6-9.33-9.88-9.33s-9.58 4.13-9.88 9.33"/>
</g>
</mask>
<mask id="mask-74" x="34.03" y="41.5" width="19.76" height="9.33" maskUnits="userSpaceOnUse">
<g id="mask74_855_152492">
<path class="cls-4" d="m34.03 50.84h19.76c-0.3-5.2-4.6-9.33-9.88-9.33s-9.58 4.13-9.88 9.33"/>
</g>
</mask>
<mask id="mask-75" x="34.03" y="41.5" width="19.76" height="9.33" maskUnits="userSpaceOnUse">
<g id="mask75_855_152492">
<path class="cls-4" d="m34.03 50.84h19.76c-0.3-5.2-4.6-9.33-9.88-9.33s-9.58 4.13-9.88 9.33"/>
</g>
</mask>
<mask id="mask-76" x="34.03" y="41.5" width="19.76" height="9.33" maskUnits="userSpaceOnUse">
<g id="mask76_855_152492">
<path class="cls-4" d="m34.03 50.84h19.76c-0.3-5.2-4.6-9.33-9.88-9.33s-9.58 4.13-9.88 9.33"/>
</g>
</mask>
<mask id="mask-77" x="34.03" y="41.5" width="19.76" height="9.33" maskUnits="userSpaceOnUse">
<g id="mask77_855_152492">
<path class="cls-4" d="m34.03 50.84h19.76c-0.3-5.2-4.6-9.33-9.88-9.33s-9.58 4.13-9.88 9.33"/>
</g>
</mask>
<mask id="mask-78" x="34.03" y="41.5" width="19.76" height="9.33" maskUnits="userSpaceOnUse">
<g id="mask78_855_152492">
<path class="cls-4" d="m34.03 50.84h19.76c-0.3-5.2-4.6-9.33-9.88-9.33s-9.58 4.13-9.88 9.33"/>
</g>
</mask>
<mask id="mask-79" x="34.03" y="41.5" width="19.76" height="9.33" maskUnits="userSpaceOnUse">
<g id="mask79_855_152492">
<path class="cls-4" d="m34.03 50.84h19.76c-0.3-5.2-4.6-9.33-9.88-9.33s-9.58 4.13-9.88 9.33"/>
</g>
</mask>
<mask id="mask-80" x="34.03" y="41.5" width="19.76" height="9.33" maskUnits="userSpaceOnUse">
<g id="mask80_855_152492">
<path class="cls-4" d="m34.03 50.84h19.76c-0.3-5.2-4.6-9.33-9.88-9.33s-9.58 4.13-9.88 9.33"/>
</g>
</mask>
<mask id="mask-81" x="34.03" y="41.5" width="19.76" height="9.33" maskUnits="userSpaceOnUse">
<g id="mask81_855_152492">
<path class="cls-4" d="m34.03 50.84h19.76c-0.3-5.2-4.6-9.33-9.88-9.33s-9.58 4.13-9.88 9.33"/>
</g>
</mask>
<mask id="mask-82" x="34.03" y="41.5" width="19.76" height="9.33" maskUnits="userSpaceOnUse">
<g id="mask82_855_152492">
<path class="cls-4" d="m34.03 50.84h19.76c-0.3-5.2-4.6-9.33-9.88-9.33s-9.58 4.13-9.88 9.33"/>
</g>
</mask>
<mask id="mask-83" x="34.03" y="41.5" width="19.76" height="9.33" maskUnits="userSpaceOnUse">
<g id="mask83_855_152492">
<path class="cls-4" d="m34.03 50.84h19.76c-0.3-5.2-4.6-9.33-9.88-9.33s-9.58 4.13-9.88 9.33"/>
</g>
</mask>
<mask id="mask-84" x="34.03" y="41.35" width="19.76" height="9.48" maskUnits="userSpaceOnUse">
<g id="mask84_855_152492">
<path class="cls-4" d="m34.03 50.84h19.76c-0.3-5.2-4.6-9.33-9.88-9.33s-9.58 4.13-9.88 9.33"/>
</g>
</mask>
<mask id="mask-85" x="34.03" y="41.35" width="19.76" height="9.48" maskUnits="userSpaceOnUse">
<g id="mask85_855_152492">
<path class="cls-4" d="m34.03 50.84h19.76c-0.3-5.2-4.6-9.33-9.88-9.33s-9.58 4.13-9.88 9.33"/>
</g>
</mask>
<mask id="mask-86" x="34.03" y="41.35" width="19.76" height="9.48" maskUnits="userSpaceOnUse">
<g id="mask86_855_152492">
<path class="cls-4" d="m34.03 50.84h19.76c-0.3-5.2-4.6-9.33-9.88-9.33s-9.58 4.13-9.88 9.33"/>
</g>
</mask>
<mask id="mask-87" x="34.03" y="41.35" width="19.76" height="9.49" maskUnits="userSpaceOnUse">
<g id="mask87_855_152492">
<path class="cls-4" d="m34.03 50.84h19.76c-0.3-5.2-4.6-9.33-9.88-9.33s-9.58 4.13-9.88 9.33"/>
</g>
</mask>
<mask id="mask-88" x="34.03" y="41.35" width="19.76" height="9.49" maskUnits="userSpaceOnUse">
<g id="mask88_855_152492">
<path class="cls-4" d="m34.03 50.84h19.76c-0.3-5.2-4.6-9.33-9.88-9.33s-9.58 4.13-9.88 9.33"/>
</g>
</mask>
<mask id="mask-89" x="34.03" y="41.35" width="19.76" height="9.48" maskUnits="userSpaceOnUse">
<g id="mask89_855_152492">
<path class="cls-4" d="m34.03 50.84h19.76c-0.3-5.2-4.6-9.33-9.88-9.33s-9.58 4.13-9.88 9.33"/>
</g>
</mask>
<mask id="mask-90" x="34.03" y="41.5" width="19.76" height="9.33" maskUnits="userSpaceOnUse">
<g id="mask90_855_152492">
<path class="cls-4" d="m34.03 50.84h19.76c-0.3-5.2-4.6-9.33-9.88-9.33s-9.58 4.13-9.88 9.33"/>
</g>
</mask>
<mask id="mask-91" x="34.03" y="41.5" width="19.76" height="9.33" maskUnits="userSpaceOnUse">
<g id="mask91_855_152492">
<path class="cls-4" d="m34.03 50.84h19.76c-0.3-5.2-4.6-9.33-9.88-9.33s-9.58 4.13-9.88 9.33"/>
</g>
</mask>
<mask id="mask-92" x="34.03" y="41.5" width="19.76" height="9.33" maskUnits="userSpaceOnUse">
<g id="mask92_855_152492">
<path class="cls-4" d="m34.03 50.84h19.76c-0.3-5.2-4.6-9.33-9.88-9.33s-9.58 4.13-9.88 9.33"/>
</g>
</mask>
<mask id="mask-93" x="34.03" y="41.5" width="19.76" height="9.33" maskUnits="userSpaceOnUse">
<g id="mask93_855_152492">
<path class="cls-4" d="m34.03 50.84h19.76c-0.3-5.2-4.6-9.33-9.88-9.33s-9.58 4.13-9.88 9.33"/>
</g>
</mask>
<mask id="mask-94" x="34.03" y="41.5" width="19.76" height="9.33" maskUnits="userSpaceOnUse">
<g id="mask94_855_152492">
<path class="cls-4" d="m34.03 50.84h19.76c-0.3-5.2-4.6-9.33-9.88-9.33s-9.58 4.13-9.88 9.33"/>
</g>
</mask>
<mask id="mask-95" x="34.03" y="41.35" width="19.76" height="9.48" maskUnits="userSpaceOnUse">
<g id="mask95_855_152492">
<path class="cls-4" d="m34.03 50.84h19.76c-0.3-5.2-4.6-9.33-9.88-9.33s-9.58 4.13-9.88 9.33"/>
</g>
</mask>
<mask id="mask-96" x="34.03" y="41.5" width="19.76" height="9.33" maskUnits="userSpaceOnUse">
<g id="mask96_855_152492">
<path class="cls-4" d="m34.03 50.84h19.76c-0.3-5.2-4.6-9.33-9.88-9.33s-9.58 4.13-9.88 9.33"/>
</g>
</mask>
<mask id="mask-97" x="34.03" y="41.35" width="19.76" height="9.48" maskUnits="userSpaceOnUse">
<g id="mask97_855_152492">
<path class="cls-4" d="m34.03 50.84h19.76c-0.3-5.2-4.6-9.33-9.88-9.33s-9.58 4.13-9.88 9.33"/>
</g>
</mask>
<mask id="mask-98" x="34.03" y="41.5" width="19.76" height="9.33" maskUnits="userSpaceOnUse">
<g id="mask98_855_152492">
<path class="cls-4" d="m34.03 50.84h19.76c-0.3-5.2-4.6-9.33-9.88-9.33s-9.58 4.13-9.88 9.33"/>
</g>
</mask>
<clipPath id="clippath-2">
<rect class="cls-1" y="136.7" width="355" height="37.87"/>
</clipPath>
</defs>
<g class="cls-15">
<g id="Layer_2">
<g id="Layer_1-2">
<g class="cls-121">
<rect class="cls-13" width="355" height="221.79" rx="12.62" ry="12.62"/>
<g class="cls-26">
<path class="cls-9" d="m125.43 66.88c0 28.1-22.78 50.88-50.88 50.88s-50.88-22.78-50.88-50.88 22.78-50.88 50.88-50.88 50.88 22.78 50.88 50.88"/>
<path class="cls-8" d="M34.03,50.84c.3-5.2,4.6-9.33,9.88-9.33s9.58,4.13,9.88,9.33h-19.76Z"/>
<g class="cls-2">
<path class="cls-6" d="M43.91,41.5h47.32v.07c.36-.04.72-.07,1.09-.07,4.96,0,8.98,4.02,8.98,8.98v38.26h-28.12c.88,1.4,1.45,3.02,1.59,4.76h0c.02.27.04.55.04.83,0,5.79-4.7,10.49-10.49,10.49-.09,0-.19-.01-.28-.01-5.66-.15-10.21-4.78-10.21-10.48,0-.28.02-.55.04-.83h-.04v-42.02h0s0-.04,0-.06c0-5.47-4.44-9.91-9.91-9.91"/>
</g>
<g class="cls-22">
<path class="cls-10" d="M91.65,104.82h0c-.09-.01-.18,0-.28,0h.28Z"/>
</g>
<g class="cls-16">
<path class="cls-10" d="M91.38,104.82c.09,0,.18-.01.28-.01-.09,0-.18.01-.28.01"/>
</g>
<g class="cls-17">
<path class="cls-10" d="M91.38,104.82c.09,0,.18-.01.28-.01-.09,0-.18.01-.28.01"/>
</g>
<g class="cls-18">
<path class="cls-8" d="M74.8,94.33c0-.28-.01-.55-.03-.83-.14-1.74-.7-3.36-1.59-4.76h47.75c.5,1.31.78,2.72.78,4.2,0,6.32-4.96,11.52-11.2,11.88h-46.2c5.79,0,10.49-4.7,10.49-10.49"/>
</g>
<g class="cls-19">
<path class="cls-3" d="m73.72 82.09h3.12v-3.12h-3.12v3.12z"/>
<path class="cls-3" d="m71.42 56.52h6.2v-3.12h-6.2v3.12zm9.92 0h6.2v-3.12h-6.2v3.12zm-17.7 1.95-2.55-1.8c1.44-2.05 3.81-3.28 6.31-3.28h0.3v3.12h-0.3c-1.49 0-2.9 0.73-3.76 1.96zm-0.42 9.13c-2.21-1.43-3.53-3.85-3.53-6.48l3.12-0.05c0 1.62 0.79 3.07 2.11 3.92l-1.69 2.62zm4.38 1.23h6.2v-3.12h-6.2v3.12zm9.92 0h6.2v-3.12h-6.2v3.12zm13.44 2.51c-0.72-1.41-2.1-2.34-3.67-2.49l0.28-3.11c2.65 0.24 4.95 1.8 6.16 4.17l-2.78 1.42zm0.18 9.46-1.73-2.6c1.29-0.86 2.05-2.29 2.05-3.83v-0.14h3.12v0.14c0 2.59-1.29 4.99-3.44 6.43zm-10.58 1.29h6.2v-3.12h-6.2v3.12z"/>
<path class="cls-3" d="m91.28 56.52h3.12v-3.12h-3.12v3.12z"/>
<path class="cls-7" d="M68.17,85.95c-.4,0-.8-.15-1.1-.46l-7.72-7.72c-.61-.61-.61-1.6,0-2.2.61-.61,1.6-.61,2.21,0l7.72,7.72c.61.61.61,1.6,0,2.21-.31.3-.7.46-1.1.46"/>
<path class="cls-7" d="M60.45,85.95c-.4,0-.8-.15-1.1-.46-.61-.61-.61-1.6,0-2.21l7.72-7.72c.61-.61,1.6-.61,2.21,0,.61.61.61,1.6,0,2.2l-7.72,7.72c-.31.3-.7.46-1.1.46"/>
</g>
<g class="cls-21">
<path class="cls-5" d="M57.24,99.36c0-.18-.14-.32-.32-.32s-.32.14-.32.32.14.32.32.32.32-.14.32-.32"/>
</g>
<g class="cls-20">
<path class="cls-5" d="M71.94,99.36c0-.18-.14-.32-.32-.32s-.32.14-.32.32c0,.18.14.32.32.32s.32-.14.32-.32"/>
</g>
<g class="cls-24">
<path class="cls-5" d="M62.13,99.36c0-.18-.14-.32-.32-.32s-.32.14-.32.32.14.32.32.32.32-.14.32-.32"/>
</g>
<g class="cls-23">
<path class="cls-5" d="M59.69,99.36c0-.18-.14-.32-.32-.32-.18,0-.32.14-.32.32s.14.32.32.32.32-.14.32-.32"/>
</g>
<g class="cls-86">
<path class="cls-5" d="M69.44,99.36c0-.18-.14-.32-.32-.32s-.32.14-.32.32.14.32.32.32.32-.14.32-.32"/>
</g>
<g class="cls-89">
<path class="cls-5" d="M64.57,99.36c0-.18-.14-.32-.32-.32s-.32.14-.32.32.14.32.32.32.32-.14.32-.32"/>
</g>
<g class="cls-93">
<path class="cls-5" d="M67.02,99.36c0-.18-.14-.32-.32-.32s-.32.14-.32.32c0,.18.14.32.32.32.18,0,.32-.14.32-.32"/>
</g>
<g class="cls-91">
<path class="cls-5" d="M65.72,98.16c0-.15-.13-.28-.28-.28s-.28.12-.28.28.12.28.28.28.28-.12.28-.28"/>
</g>
<g class="cls-87">
<path class="cls-5" d="M70.61,98.16c0-.15-.12-.28-.28-.28s-.28.12-.28.28.12.28.28.28.28-.12.28-.28"/>
</g>
<g class="cls-95">
<path class="cls-5" d="M73.12,98.16c0-.15-.12-.28-.28-.28s-.28.12-.28.28.12.28.28.28.28-.12.28-.28"/>
</g>
<g class="cls-90">
<path class="cls-5" d="M56.01,98.16c0-.15-.12-.28-.28-.28s-.28.12-.28.28c0,.15.13.28.28.28s.28-.12.28-.28"/>
</g>
<g class="cls-94">
<path class="cls-5" d="M60.9,98.16c0-.15-.12-.28-.28-.28s-.28.12-.28.28.12.28.28.28.28-.12.28-.28"/>
</g>
<g class="cls-88">
<path class="cls-5" d="M58.44,98.16c0-.15-.13-.28-.28-.28s-.28.12-.28.28.12.28.28.28.28-.12.28-.28"/>
</g>
<g class="cls-92">
<path class="cls-5" d="M68.18,98.16c0-.15-.12-.28-.28-.28s-.28.12-.28.28.12.28.28.28.28-.12.28-.28"/>
</g>
<g class="cls-98">
<path class="cls-5" d="M63.33,98.16c0-.15-.13-.28-.28-.28s-.28.12-.28.28.13.28.28.28.28-.12.28-.28"/>
</g>
<g class="cls-97">
<path class="cls-5" d="M64.69,101.79c0-.21-.17-.38-.38-.38s-.38.17-.38.38.17.38.38.38c.21,0,.38-.17.38-.38"/>
</g>
<g class="cls-96">
<path class="cls-5" d="M67.1,101.79c0-.21-.17-.38-.38-.38s-.38.17-.38.38.17.38.38.38.38-.17.38-.38"/>
</g>
<g class="cls-102">
<path class="cls-5" d="M59.79,101.79c0-.21-.17-.38-.38-.38s-.38.17-.38.38.17.38.38.38.38-.17.38-.38"/>
</g>
<g class="cls-101">
<path class="cls-5" d="M72.04,101.79c0-.21-.17-.38-.38-.38s-.38.17-.38.38.17.38.38.38.38-.17.38-.38"/>
</g>
<g class="cls-100">
<path class="cls-5" d="M62.24,101.79c0-.21-.17-.38-.38-.38s-.38.17-.38.38.17.38.38.38.38-.17.38-.38"/>
</g>
<g class="cls-119">
<path class="cls-5" d="M57.33,101.79c0-.21-.17-.38-.38-.38s-.38.17-.38.38.17.38.38.38.38-.17.38-.38"/>
</g>
<g class="cls-120">
<path class="cls-5" d="M69.55,101.79c0-.21-.17-.38-.38-.38s-.38.17-.38.38.17.38.38.38.38-.17.38-.38"/>
</g>
<g class="cls-117">
<path class="cls-5" d="M67.41,102.97c0,.22.18.41.41.41s.41-.18.41-.41c0-.23-.18-.41-.41-.41s-.41.18-.41.41"/>
</g>
<g class="cls-118">
<path class="cls-5" d="M56,100.57c0-.18-.14-.32-.32-.32s-.32.14-.32.32.14.32.32.32.32-.14.32-.32"/>
</g>
<g class="cls-74">
<path class="cls-5" d="M58.45,100.57c0-.18-.14-.32-.32-.32s-.32.14-.32.32.14.32.32.32.32-.14.32-.32"/>
</g>
<g class="cls-72">
<path class="cls-5" d="M63.33,100.57c0-.18-.14-.32-.32-.32s-.32.14-.32.32.14.32.32.32.32-.14.32-.32"/>
</g>
<g class="cls-85">
<path class="cls-5" d="M60.9,100.57c0-.18-.14-.32-.32-.32s-.32.14-.32.32.14.32.32.32.32-.14.32-.32"/>
</g>
<g class="cls-76">
<path class="cls-5" d="M65.78,100.57c0-.18-.14-.32-.32-.32s-.32.14-.32.32.14.32.32.32.32-.14.32-.32"/>
</g>
<g class="cls-75">
<path class="cls-5" d="M73.15,100.57c0-.18-.14-.32-.32-.32s-.32.14-.32.32c0,.18.14.32.32.32s.32-.14.32-.32"/>
</g>
<g class="cls-73">
<path class="cls-5" d="M70.68,100.57c0-.18-.14-.32-.32-.32-.18,0-.32.14-.32.32s.14.32.32.32.32-.14.32-.32"/>
</g>
<g class="cls-99">
<path class="cls-5" d="M68.24,100.57c0-.18-.14-.32-.32-.32s-.32.14-.32.32.14.32.32.32.32-.14.32-.32"/>
</g>
<g class="cls-105">
<path class="cls-5" d="M62.26,104.26c0-.25-.2-.45-.44-.45s-.45.2-.45.45c0,.25.2.44.45.44s.44-.2.44-.44"/>
</g>
<g class="cls-104">
<path class="cls-5" d="M64.72,104.26c0-.25-.2-.45-.45-.45s-.45.2-.45.45.2.44.45.44.45-.2.45-.44"/>
</g>
<g class="cls-103">
<path class="cls-5" d="M72.04,104.26c0-.25-.2-.45-.45-.45s-.44.2-.44.45.2.44.44.44.45-.2.45-.44"/>
</g>
<g class="cls-80">
<path class="cls-5" d="M59.88,104.26c0-.25-.2-.45-.45-.45s-.44.2-.44.45.2.44.44.44c.25,0,.45-.2.45-.44"/>
</g>
<g class="cls-70">
<path class="cls-5" d="M69.58,104.26c0-.25-.2-.45-.45-.45s-.45.2-.45.45.2.44.45.44.45-.2.45-.44"/>
</g>
<g class="cls-83">
<path class="cls-5" d="M67.13,104.26c0-.25-.2-.45-.45-.45s-.44.2-.44.45.2.44.44.44.45-.2.45-.44"/>
</g>
<g class="cls-79">
<path class="cls-5" d="M57.39,104.26c0-.25-.2-.45-.45-.45s-.44.2-.44.45.2.44.44.44.45-.2.45-.44"/>
</g>
<g class="cls-78">
<path class="cls-5" d="M73.25,103.02c0-.23-.18-.41-.41-.41s-.41.18-.41.41.18.41.41.41.41-.18.41-.41"/>
</g>
<g class="cls-82">
<path class="cls-5" d="M70.65,103.02c0-.23-.18-.41-.41-.41s-.41.18-.41.41.18.41.41.41.41-.18.41-.41"/>
</g>
<g class="cls-81">
<path class="cls-5" d="M65.87,103.02c0-.23-.18-.41-.41-.41s-.41.18-.41.41.18.41.41.41.41-.18.41-.41"/>
</g>
<g class="cls-114">
<path class="cls-5" d="M63.45,103.02c0-.23-.18-.41-.41-.41s-.41.18-.41.41.18.41.41.41.41-.18.41-.41"/>
</g>
<g class="cls-113">
<path class="cls-5" d="M56.09,103.02c0-.23-.18-.41-.41-.41s-.41.18-.41.41.18.41.41.41.41-.18.41-.41"/>
</g>
<g class="cls-106">
<path class="cls-5" d="M61,103.02c0-.23-.18-.41-.41-.41s-.41.18-.41.41.18.41.41.41.41-.18.41-.41"/>
</g>
<g class="cls-51">
<path class="cls-5" d="M58.51,103.02c0-.23-.18-.41-.41-.41s-.41.18-.41.41.18.41.41.41.41-.18.41-.41"/>
</g>
<g class="cls-53">
<path class="cls-5" d="M52.57,46.69c0,.18.14.32.32.32s.32-.14.32-.32-.14-.32-.32-.32-.32.14-.32.32"/>
</g>
<g class="cls-55">
<path class="cls-5" d="M50.15,46.69c0,.18.14.32.32.32s.32-.14.32-.32-.14-.32-.32-.32-.32.14-.32.32"/>
</g>
<g class="cls-54">
<path class="cls-5" d="M47.7,46.69c0,.18.14.32.32.32s.32-.14.32-.32-.14-.32-.32-.32-.32.14-.32.32"/>
</g>
<g class="cls-52">
<path class="cls-5" d="M42.82,46.69c0,.18.14.32.32.32s.32-.14.32-.32-.14-.32-.32-.32-.32.14-.32.32"/>
</g>
<g class="cls-56">
<path class="cls-5" d="M45.25,46.69c0,.18.14.32.32.32s.32-.14.32-.32-.14-.32-.32-.32-.32.14-.32.32"/>
</g>
<g class="cls-65">
<path class="cls-5" d="M35.5,46.69c0,.18.14.32.32.32s.32-.14.32-.32-.14-.32-.32-.32-.32.14-.32.32"/>
</g>
<g class="cls-77">
<path class="cls-5" d="M40.37,46.69c0,.18.14.32.32.32s.32-.14.32-.32-.14-.32-.32-.32-.32.14-.32.32"/>
</g>
<g class="cls-84">
<path class="cls-5" d="M37.92,46.69c0,.18.14.32.32.32s.32-.14.32-.32-.14-.32-.32-.32c-.18,0-.32.14-.32.32"/>
</g>
<g class="cls-71">
<path class="cls-5" d="M51.39,47.9c0,.15.12.28.28.28s.28-.12.28-.28-.12-.28-.28-.28-.28.12-.28.28"/>
</g>
<g class="cls-58">
<path class="cls-5" d="M39.22,47.9c0,.15.12.28.28.28s.28-.12.28-.28c0-.15-.12-.28-.28-.28s-.28.12-.28.28"/>
</g>
<g class="cls-61">
<path class="cls-5" d="M34.33,47.9c0,.15.13.28.28.28s.28-.12.28-.28-.13-.28-.28-.28-.28.12-.28.28"/>
</g>
<g class="cls-60">
<path class="cls-5" d="M48.93,47.9c0,.15.12.28.28.28s.28-.12.28-.28c0-.15-.13-.28-.28-.28s-.28.12-.28.28"/>
</g>
<g class="cls-112">
<path class="cls-5" d="M44.05,47.9c0,.15.12.28.28.28s.28-.12.28-.28c0-.15-.12-.28-.28-.28s-.28.12-.28.28"/>
</g>
<g class="cls-59">
<path class="cls-5" d="M46.5,47.9c0,.15.13.28.28.28s.28-.12.28-.28-.13-.28-.28-.28-.28.12-.28.28"/>
</g>
<g class="cls-63">
<path class="cls-5" d="M36.76,47.9c0,.15.12.28.28.28s.28-.12.28-.28-.12-.28-.28-.28-.28.12-.28.28"/>
</g>
<g class="cls-62">
<path class="cls-5" d="M41.61,47.9c0,.15.12.28.28.28s.28-.12.28-.28-.13-.28-.28-.28-.28.12-.28.28"/>
</g>
<g class="cls-69">
<path class="cls-5" d="M40.25,44.27c0,.21.17.38.38.38s.38-.17.38-.38-.17-.38-.38-.38-.38.17-.38.38"/>
</g>
<g class="cls-68">
<path class="cls-5" d="M37.84,44.27c0,.21.17.38.38.38s.38-.17.38-.38-.17-.38-.38-.38-.38.17-.38.38"/>
</g>
<g class="cls-67">
<path class="cls-5" d="M45.16,44.27c0,.21.17.38.38.38s.38-.17.38-.38-.17-.38-.38-.38-.38.17-.38.38"/>
</g>
<g class="cls-110">
<path class="cls-5" d="M42.7,44.27c0,.21.17.38.38.38s.38-.17.38-.38-.17-.38-.38-.38-.38.17-.38.38"/>
</g>
<g class="cls-107">
<path class="cls-5" d="M47.61,44.27c0,.21.17.38.38.38s.38-.17.38-.38-.17-.38-.38-.38-.38.17-.38.38"/>
</g>
<g class="cls-108">
<path class="cls-5" d="M52.51,44.27c0,.21.17.38.38.38s.38-.17.38-.38-.17-.38-.38-.38-.38.17-.38.38"/>
</g>
<g class="cls-111">
<path class="cls-5" d="M50.06,44.27c0,.21.17.38.38.38s.38-.17.38-.38-.17-.38-.38-.38-.38.17-.38.38"/>
</g>
<g class="cls-115">
<path class="cls-5" d="M35.39,44.27c0,.21.17.38.38.38s.38-.17.38-.38-.17-.38-.38-.38-.38.17-.38.38"/>
</g>
<g class="cls-109">
<path class="cls-5" d="M37.53,43.09c0-.23-.18-.41-.41-.41s-.41.18-.41.41.18.41.41.41.41-.18.41-.41"/>
</g>
<g class="cls-116">
<path class="cls-5" d="M48.94,45.49c0,.18.14.32.32.32s.32-.14.32-.32-.14-.32-.32-.32-.32.14-.32.32"/>
</g>
<g class="cls-66">
<path class="cls-5" d="M51.39,45.49c0,.18.14.32.32.32s.32-.14.32-.32-.14-.32-.32-.32-.32.14-.32.32"/>
</g>
<g class="cls-57">
<path class="cls-5" d="M46.49,45.49c0,.18.14.32.32.32s.32-.14.32-.32-.14-.32-.32-.32-.32.14-.32.32"/>
</g>
<g class="cls-64">
<path class="cls-5" d="M41.61,45.48c0,.18.14.32.32.32s.32-.14.32-.32-.14-.32-.32-.32-.32.14-.32.32"/>
</g>
<g class="cls-47">
<path class="cls-5" d="M44.04,45.49c0,.18.14.32.32.32s.32-.14.32-.32-.14-.32-.32-.32-.32.14-.32.32"/>
</g>
<g class="cls-46">
<path class="cls-5" d="M39.16,45.49c0,.18.14.32.32.32s.32-.14.32-.32-.14-.32-.32-.32c-.18,0-.32.14-.32.32"/>
</g>
<g class="cls-48">
<path class="cls-5" d="M34.26,45.48c0,.18.14.32.32.32s.32-.14.32-.32c0-.18-.14-.32-.32-.32s-.32.14-.32.32"/>
</g>
<g class="cls-49">
<path class="cls-5" d="M36.71,45.48c0,.18.14.32.32.32s.32-.14.32-.32-.14-.32-.32-.32c-.18,0-.32.14-.32.32"/>
</g>
<g class="cls-44">
<path class="cls-5" d="M42.68,41.8c0,.25.2.45.44.45s.45-.2.45-.45-.2-.44-.45-.44-.44.2-.44.44"/>
</g>
<g class="cls-42">
<path class="cls-5" d="M40.23,41.8c0,.25.2.45.45.45s.45-.2.45-.45-.2-.44-.45-.44-.45.2-.45.44"/>
</g>
<g class="cls-50">
<path class="cls-5" d="M45.06,41.8c0,.25.2.45.45.45s.44-.2.44-.45-.2-.44-.44-.44-.45.2-.45.44"/>
</g>
<g class="cls-45">
<path class="cls-5" d="M35.36,41.8c0,.25.2.45.45.45s.45-.2.45-.45-.2-.44-.45-.44c-.25,0-.45.2-.45.44"/>
</g>
<g class="cls-43">
<path class="cls-5" d="M37.81,41.8c0,.25.2.45.45.45s.44-.2.44-.45-.2-.45-.44-.45-.45.2-.45.45"/>
</g>
<g class="cls-41">
<path class="cls-5" d="M47.55,41.8c0,.25.2.45.45.45s.44-.2.44-.45-.2-.44-.44-.44-.45.2-.45.44"/>
</g>
<g class="cls-39">
<path class="cls-5" d="M34.29,43.03c0,.23.18.41.41.41s.41-.18.41-.41-.18-.41-.41-.41-.41.18-.41.41"/>
</g>
<g class="cls-38">
<path class="cls-5" d="M39.08,43.03c0,.23.18.41.41.41s.41-.18.41-.41-.18-.41-.41-.41-.41.18-.41.41"/>
</g>
<g class="cls-34">
<path class="cls-5" d="M41.5,43.03c0,.23.18.41.41.41s.41-.18.41-.41-.18-.41-.41-.41-.41.18-.41.41"/>
</g>
<g class="cls-35">
<path class="cls-5" d="M51.27,43.03c0,.23.18.41.41.41s.41-.18.41-.41c0-.23-.18-.41-.41-.41s-.41.18-.41.41"/>
</g>
<g class="cls-33">
<path class="cls-5" d="M48.85,43.03c0,.23.18.41.41.41s.41-.18.41-.41-.18-.41-.41-.41-.41.18-.41.41"/>
</g>
<g class="cls-32">
<path class="cls-5" d="M50.04,41.8c0,.25.2.45.45.45s.44-.2.44-.45-.2-.44-.44-.44-.45.2-.45.44"/>
</g>
<g class="cls-37">
<path class="cls-5" d="M43.95,43.03c0,.23.18.41.41.41s.41-.18.41-.41-.18-.41-.41-.41-.41.18-.41.41"/>
</g>
<g class="cls-40">
<path class="cls-5" d="M52.43,41.8c0,.25.2.45.45.45s.44-.2.44-.45-.2-.44-.44-.44-.45.2-.45.44"/>
</g>
<g class="cls-36">
<path class="cls-5" d="M46.43,43.03c0,.23.18.41.41.41s.41-.18.41-.41c0-.23-.18-.41-.41-.41s-.41.18-.41.41"/>
</g>
<path class="cls-28" d="M146.13,52.1l.91-1.04s2.24,2.46,5.9,2.46c2.75,0,4.92-1.7,4.92-4.35,0-6.28-11.3-4.54-11.3-11.45,0-2.93,2.62-5.71,6.63-5.71,3.6,0,5.62,2.05,5.62,2.05l-.76,1.17s-1.89-1.89-4.83-1.89c-3.28,0-5.24,2.21-5.24,4.35,0,5.84,11.3,4.04,11.3,11.42,0,3.19-2.46,5.74-6.41,5.74-4.35,0-6.75-2.75-6.75-2.75ZM162.71,46.48c0-4.61,3.66-8.17,8.17-8.17s8.17,3.57,8.17,8.17-3.66,8.36-8.17,8.36-8.17-3.66-8.17-8.36ZM164.1,46.48c0,4.01,3.03,7.07,6.78,7.07s6.79-3.06,6.79-7.07-3.03-6.88-6.79-6.88-6.78,2.97-6.78,6.88ZM183.45,54.47v-15.78h1.33v3c0,.73-.13,1.29-.13,1.29h.06c.79-2.43,2.56-4.42,5.05-4.42.47,0,.92.09.92.09v1.33s-.38-.06-.73-.06c-2.46,0-4.01,2.08-4.7,4.42-.35,1.1-.47,2.27-.47,3.31v6.82h-1.33ZM194.11,54.47v-15.78h1.32v3c0,.73-.13,1.29-.13,1.29h.06c.79-2.43,2.56-4.42,5.05-4.42.47,0,.91.09.91.09v1.33s-.38-.06-.73-.06c-2.46,0-4.01,2.08-4.7,4.42-.35,1.1-.47,2.27-.47,3.31v6.82h-1.32ZM202.24,60.21l.6-1.14s.88.76,1.96.76c1.51,0,2.46-1.36,3.09-2.84l1.14-2.62-6.53-15.68h1.42l5.21,12.59c.32.76.57,1.48.57,1.48h.06s.22-.73.54-1.48l5.21-12.59h1.42l-8.11,19.47c-.69,1.64-2.02,2.93-4.01,2.93-1.51,0-2.56-.88-2.56-.88ZM219.35,54.47v-1.99h1.93v1.99h-1.93Z"/>
<path class="cls-28" d="M150.94,71.78h-.03s-.16.85-.33,1.49l-1.9,7.03h-1.18l-2.58-9.98h1.02l1.93,7.75c.13.51.23,1.07.23,1.07h.03s.08-.55.23-1.07l2.1-7.75h.94l2.1,7.75c.14.51.21,1.07.23,1.07h.03s.1-.55.23-1.07l2-7.75h1.02l-2.65,9.98h-1.18l-1.9-7.03c-.17-.64-.33-1.49-.33-1.49ZM157.93,76.74c0-2.34,1.59-3.75,3.52-3.75s2.98,1.52,2.98,3.29c0,.17-.03.5-.03.5h-5.48c.04,1.83,1.29,2.83,2.77,2.83,1.31,0,2.17-.87,2.17-.87l.44.74s-1.04.99-2.64.99c-2.13,0-3.74-1.53-3.74-3.73ZM158.97,75.98h4.49c-.06-1.49-.97-2.19-2.03-2.19-1.19,0-2.23.75-2.46,2.19ZM169.62,76.72c0-2.26,1.34-3.73,3.21-3.73,1.73,0,2.33,1.35,2.33,1.35h.03s-.03-.24-.03-.54v-3.48h.96v9.98h-.94v-.75c0-.31.03-.51.03-.51h-.03s-.58,1.43-2.46,1.43-3.11-1.53-3.11-3.75ZM170.62,76.72c0,1.76.92,2.88,2.26,2.88,1.19,0,2.31-.85,2.31-2.88,0-1.45-.74-2.87-2.27-2.87-1.26,0-2.3,1.07-2.3,2.87ZM177.93,76.69c0-2.12,1.69-3.71,3.78-3.71s3.78,1.59,3.78,3.71-1.69,3.78-3.78,3.78-3.78-1.62-3.78-3.78ZM178.92,76.69c0,1.66,1.25,2.91,2.78,2.91s2.78-1.25,2.78-2.91-1.25-2.83-2.78-2.83-2.78,1.21-2.78,2.83ZM187.29,80.3v-7.14h.95v1.06c0,.31-.03.57-.03.57h.03c.26-.65,1.16-1.8,2.85-1.8s2.39,1.01,2.39,2.77v4.54h-.97v-4.29c0-1.12-.17-2.12-1.55-2.12-1.22,0-2.27.84-2.6,2.02-.09.3-.11.62-.11.97v3.42h-.97ZM195.35,72.62l.55-2.44h1.02l-.79,2.44h-.78ZM198.94,77.7v-3.65h-.94v-.81h.95v-2.06h.95v2.06h1.79v.81h-1.79v3.55c0,1.68,1.06,1.89,1.6,1.89.2,0,.33-.03.33-.03v.87s-.16.03-.41.03c-.82,0-2.49-.27-2.49-2.66ZM206.71,76.69c0-2.12,1.69-3.71,3.78-3.71s3.78,1.59,3.78,3.71-1.69,3.78-3.78,3.78-3.78-1.62-3.78-3.78ZM207.71,76.69c0,1.66,1.25,2.91,2.78,2.91s2.78-1.25,2.78-2.91-1.25-2.83-2.78-2.83-2.78,1.21-2.78,2.83ZM220.9,80.3v-6.33h-3.58v6.33h-.97v-6.33h-.89v-.81h.89v-.26c0-2.36,1.66-2.66,2.47-2.66.27,0,.44.03.44.03v.87s-.14-.03-.34-.03c-.55,0-1.6.2-1.6,1.79v.26h3.58v-.26c0-2.36,1.66-2.66,2.47-2.66.27,0,.44.03.44.03v.87s-.14-.03-.34-.03c-.55,0-1.6.2-1.6,1.79v.26h1.83v.81h-1.83v6.33h-.97ZM224.56,76.74c0-2.34,1.59-3.75,3.52-3.75s2.98,1.52,2.98,3.29c0,.17-.03.5-.03.5h-5.48c.04,1.83,1.29,2.83,2.77,2.83,1.31,0,2.17-.87,2.17-.87l.44.74s-1.04.99-2.64.99c-2.13,0-3.74-1.53-3.74-3.73ZM225.6,75.98h4.49c-.06-1.49-.97-2.19-2.03-2.19-1.19,0-2.23.75-2.46,2.19ZM232.91,80.3v-7.14h.95v1.26c0,.31-.03.57-.03.57h.03c.34-1.08,1.14-1.9,2.26-1.9.2,0,.38.04.38.04v.95s-.17-.03-.36-.03c-1.01,0-1.76.8-2.07,1.85-.14.45-.2.94-.2,1.39v3.01h-.96ZM242.05,77.7v-3.65h-.94v-.81h.95v-2.06h.95v2.06h1.79v.81h-1.79v3.55c0,1.68,1.07,1.89,1.6,1.89.2,0,.33-.03.33-.03v.87s-.16.03-.41.03c-.82,0-2.49-.27-2.49-2.66ZM246.54,80.3v-9.98h.97v3.86c0,.33-.03.58-.03.58h.03c.27-.68,1.22-1.78,2.84-1.78,1.76,0,2.38,1.01,2.38,2.77v4.54h-.96v-4.29c0-1.12-.17-2.12-1.55-2.12-1.22,0-2.27.84-2.6,2.03-.08.28-.11.61-.11.95v3.42h-.97ZM254.93,71.52v-1.21h1.01v1.21h-1.01ZM254.96,80.3v-7.14h.96v7.14h-.96ZM257.68,79.43l.52-.7s.8.87,2.13.87c.77,0,1.43-.38,1.43-1.14,0-1.56-3.85-1.18-3.85-3.51,0-1.28,1.15-1.97,2.44-1.97,1.51,0,2.2.78,2.2.78l-.44.74s-.61-.65-1.79-.65c-.72,0-1.42.31-1.42,1.11,0,1.58,3.85,1.15,3.85,3.51,0,1.16-1.01,2-2.44,2-1.73,0-2.64-1.04-2.64-1.04ZM268.37,83.14v-9.98h.92v.7c0,.31-.03.55-.03.55h.03s.58-1.42,2.47-1.42,3.11,1.53,3.11,3.75-1.35,3.73-3.2,3.73c-1.72,0-2.34-1.36-2.34-1.36h-.03s.03.26.03.62v3.41h-.97ZM269.3,76.75c0,1.43.8,2.87,2.27,2.87,1.26,0,2.3-1.07,2.3-2.88s-.92-2.87-2.26-2.87c-1.19,0-2.32.85-2.32,2.88ZM276.73,80.3v-7.14h.95v1.26c0,.31-.03.57-.03.57h.03c.34-1.08,1.14-1.9,2.26-1.9.2,0,.38.04.38.04v.95s-.17-.03-.35-.03c-1.01,0-1.76.8-2.07,1.85-.14.45-.2.94-.2,1.39v3.01h-.97ZM281.18,76.69c0-2.12,1.69-3.71,3.78-3.71s3.78,1.59,3.78,3.71-1.69,3.78-3.78,3.78-3.78-1.62-3.78-3.78ZM282.18,76.69c0,1.66,1.25,2.91,2.78,2.91s2.78-1.25,2.78-2.91-1.25-2.83-2.78-2.83-2.78,1.21-2.78,2.83ZM290.07,76.72c0-2.26,1.34-3.73,3.21-3.73,1.73,0,2.33,1.35,2.33,1.35h.03s-.03-.24-.03-.54v-3.48h.97v9.98h-.94v-.75c0-.31.03-.51.03-.51h-.03s-.58,1.43-2.46,1.43-3.11-1.53-3.11-3.75ZM291.07,76.72c0,1.76.92,2.88,2.26,2.88,1.19,0,2.32-.85,2.32-2.88,0-1.45-.74-2.87-2.27-2.87-1.26,0-2.3,1.07-2.3,2.87ZM298.8,77.7v-4.54h.97v4.29c0,1.12.17,2.12,1.55,2.12,1.63,0,2.64-1.43,2.64-2.98v-3.42h.96v7.14h-.94v-1.06c0-.31.03-.57.03-.57h-.03c-.28.7-1.22,1.8-2.8,1.8-1.68,0-2.39-.91-2.39-2.77ZM306.75,76.74c0-2.2,1.65-3.75,3.75-3.75,1.75,0,2.61,1.02,2.61,1.02l-.5.72s-.8-.87-2.09-.87c-1.56,0-2.78,1.16-2.78,2.87s1.24,2.87,2.81,2.87c1.45,0,2.29-1.01,2.29-1.01l.44.75s-.97,1.12-2.78,1.12c-2.12,0-3.75-1.52-3.75-3.73ZM315.31,77.7v-3.65h-.94v-.81h.95v-2.06h.95v2.06h1.79v.81h-1.79v3.55c0,1.68,1.07,1.89,1.61,1.89.2,0,.33-.03.33-.03v.87s-.16.03-.41.03c-.82,0-2.49-.27-2.49-2.66ZM145.5,88.52v-1.21h1.01v1.21h-1.01ZM145.53,97.3v-7.14h.96v7.14h-.96ZM148.83,97.3v-7.14h.95v1.07c0,.31-.03.57-.03.57h.03c.26-.65,1.16-1.8,2.85-1.8s2.38,1.01,2.38,2.77v4.54h-.96v-4.29c0-1.12-.17-2.11-1.55-2.11-1.22,0-2.27.84-2.6,2.02-.08.3-.11.62-.11.97v3.42h-.97ZM160,99.86l.37-.77s.4.33.85.33c.62,0,1.07-.51,1.35-1.17l.44-1.01-2.98-7.09h1.07l2.1,5.21c.14.35.26.75.26.75h.03s.1-.4.24-.75l2.06-5.21h1.05l-3.52,8.63c-.37.91-1.11,1.49-2.06,1.49-.74,0-1.25-.43-1.25-.43ZM167.62,93.69c0-2.12,1.69-3.71,3.78-3.71s3.78,1.59,3.78,3.71-1.69,3.78-3.78,3.78-3.78-1.62-3.78-3.78ZM168.62,93.69c0,1.66,1.25,2.91,2.78,2.91s2.78-1.25,2.78-2.91-1.25-2.83-2.78-2.83-2.78,1.21-2.78,2.83ZM176.88,94.7v-4.54h.97v4.29c0,1.12.17,2.11,1.55,2.11,1.63,0,2.64-1.43,2.64-2.98v-3.42h.97v7.14h-.94v-1.07c0-.31.03-.57.03-.57h-.03c-.28.7-1.22,1.8-2.8,1.8-1.68,0-2.39-.91-2.39-2.77ZM185.33,97.3v-7.14h.95v1.26c0,.31-.03.57-.03.57h.03c.34-1.08,1.14-1.9,2.26-1.9.2,0,.38.04.38.04v.95s-.17-.03-.36-.03c-1.01,0-1.76.79-2.07,1.85-.14.45-.2.94-.2,1.39v3.01h-.97ZM193.62,96.43l.53-.7s.79.87,2.13.87c.77,0,1.43-.38,1.43-1.14,0-1.56-3.85-1.18-3.85-3.51,0-1.28,1.15-1.97,2.44-1.97,1.5,0,2.2.78,2.2.78l-.44.74s-.61-.65-1.79-.65c-.73,0-1.42.31-1.42,1.11,0,1.58,3.85,1.15,3.85,3.51,0,1.16-1.01,2-2.44,2-1.73,0-2.64-1.04-2.64-1.04ZM200.77,94.7v-3.65h-.94v-.81h.95v-2.06h.95v2.06h1.79v.81h-1.79v3.55c0,1.68,1.07,1.89,1.6,1.89.2,0,.33-.03.33-.03v.87s-.16.03-.41.03c-.82,0-2.49-.27-2.49-2.66ZM204.68,95.35c0-2.41,3.14-2.47,4.37-2.47h.4v-.19c0-1.38-.75-1.85-1.78-1.85-1.18,0-2.02.68-2.02.68l-.45-.74s.94-.81,2.54-.81c1.72,0,2.67.95,2.67,2.74v4.57h-.92v-.78c0-.35.03-.6.03-.6h-.03s-.6,1.55-2.38,1.55c-1.19,0-2.43-.7-2.43-2.12ZM205.67,95.3c0,.67.53,1.35,1.59,1.35,1.36,0,2.19-1.42,2.19-2.66v-.31h-.41c-1.12,0-3.37.04-3.37,1.62ZM212.86,94.7v-3.65h-.94v-.81h.95v-2.06h.95v2.06h1.79v.81h-1.79v3.55c0,1.68,1.07,1.89,1.6,1.89.2,0,.33-.03.33-.03v.87s-.16.03-.41.03c-.82,0-2.49-.27-2.49-2.66ZM216.85,93.74c0-2.34,1.59-3.75,3.52-3.75s2.98,1.52,2.98,3.29c0,.17-.03.5-.03.5h-5.48c.04,1.83,1.29,2.83,2.77,2.83,1.31,0,2.17-.87,2.17-.87l.44.74s-1.04.99-2.64.99c-2.13,0-3.73-1.53-3.73-3.73ZM217.89,92.98h4.49c-.06-1.49-.97-2.19-2.03-2.19-1.19,0-2.23.75-2.46,2.19ZM229.01,97.3v-7.14h.95v1.26c0,.31-.03.57-.03.57h.03c.34-1.08,1.14-1.9,2.26-1.9.2,0,.38.04.38.04v.95s-.17-.03-.35-.03c-1.01,0-1.76.79-2.07,1.85-.14.45-.2.94-.2,1.39v3.01h-.97ZM234.04,88.52v-1.21h1.01v1.21h-1.01ZM234.07,97.3v-7.14h.96v7.14h-.96ZM237.91,98.92s.88.5,1.93.5c1.39,0,2.5-.65,2.5-2.24v-.65c0-.27.03-.51.03-.51h-.03c-.43.79-1.15,1.25-2.26,1.25-1.92,0-3.18-1.52-3.18-3.66s1.18-3.61,3.1-3.61,2.36,1.19,2.36,1.19h.03s-.01-.09-.01-.24v-.78h.94v6.97c0,2.27-1.68,3.15-3.42,3.15-.82,0-1.65-.21-2.34-.57l.37-.79ZM240.24,96.39c1.12,0,2.12-.7,2.12-2.8s-.99-2.73-2.26-2.73c-1.39,0-2.2,1.01-2.2,2.71s.92,2.81,2.34,2.81ZM245.64,97.3v-9.98h.96v3.86c0,.33-.03.58-.03.58h.03c.27-.68,1.22-1.78,2.84-1.78,1.76,0,2.39,1.01,2.39,2.77v4.54h-.97v-4.29c0-1.12-.17-2.11-1.55-2.11-1.22,0-2.27.84-2.6,2.03-.08.28-.11.61-.11.95v3.42h-.96ZM254.33,94.7v-3.65h-.94v-.81h.95v-2.06h.95v2.06h1.79v.81h-1.79v3.55c0,1.68,1.07,1.89,1.6,1.89.2,0,.33-.03.33-.03v.87s-.16.03-.41.03c-.82,0-2.49-.27-2.49-2.66ZM262.63,97.3v-7.14h.95v1.07c0,.31-.03.57-.03.57h.03c.26-.65,1.16-1.8,2.85-1.8s2.38,1.01,2.38,2.77v4.54h-.96v-4.29c0-1.12-.17-2.11-1.55-2.11-1.22,0-2.27.84-2.6,2.02-.08.3-.11.62-.11.97v3.42h-.97ZM270.52,93.69c0-2.12,1.69-3.71,3.78-3.71s3.78,1.59,3.78,3.71-1.69,3.78-3.78,3.78-3.78-1.62-3.78-3.78ZM271.51,93.69c0,1.66,1.25,2.91,2.78,2.91s2.78-1.25,2.78-2.91-1.25-2.83-2.78-2.83-2.78,1.21-2.78,2.83ZM281.37,97.3l-2.41-7.14h1.02l1.73,5.33c.11.34.21.77.21.77h.03s.1-.43.21-.77l1.76-5.3h.95l1.76,5.3c.11.34.21.77.21.77h.03s.1-.41.21-.77l1.73-5.33h1.02l-2.41,7.14h-1.05l-1.75-5.08c-.13-.36-.23-.77-.23-.77h-.03s-.1.41-.21.77l-1.75,5.08h-1.05ZM291.07,97.3v-1.14h1.12v1.14h-1.12Z"/>
</g>
<g class="cls-27">
<rect class="cls-25" y="136.7" width="355" height="37.87"/>
<path class="cls-30" d="M55.11,154.88c0-2.25,1.68-3.96,3.9-3.96,1.86,0,2.79,1.01,2.79,1.01l-.41.56s-.91-.86-2.36-.86c-1.82,0-3.13,1.41-3.13,3.25s1.3,3.37,3.15,3.37c1.57,0,2.52-1.04,2.52-1.04l.44.54s-1.06,1.2-2.97,1.2c-2.3,0-3.93-1.8-3.93-4.07ZM62.99,157.3c0-1.88,2.44-1.92,3.4-1.92h.31v-.14c0-1.07-.59-1.44-1.38-1.44-.92,0-1.57.53-1.57.53l-.35-.57s.73-.63,1.98-.63c1.34,0,2.08.74,2.08,2.13v3.56h-.72v-.61c0-.28.02-.46.02-.46h-.02s-.46,1.2-1.86,1.2c-.93,0-1.89-.54-1.89-1.65ZM63.76,157.25c0,.52.41,1.05,1.24,1.05,1.06,0,1.7-1.1,1.7-2.06v-.24h-.32c-.87,0-2.62.03-2.62,1.26ZM69.12,157.5v-6.45h.75v6.28c0,.73.33.84.62.84.1,0,.19-.01.19-.01v.67s-.13.02-.28.02c-.46,0-1.28-.14-1.28-1.36ZM71.85,157.5v-6.45h.75v6.28c0,.73.33.84.62.84.1,0,.19-.01.19-.01v.67s-.13.02-.28.02c-.46,0-1.28-.14-1.28-1.36ZM77.53,156.79v-3.53h.75v3.34c0,.87.13,1.65,1.2,1.65,1.27,0,2.05-1.12,2.05-2.32v-2.66h.75v5.56h-.73v-.83c0-.24.02-.44.02-.44h-.02c-.22.54-.95,1.4-2.18,1.4-1.3,0-1.86-.71-1.86-2.15ZM83.64,158.14l.41-.54s.62.67,1.66.67c.6,0,1.11-.3,1.11-.88,0-1.21-2.99-.92-2.99-2.73,0-.99.89-1.54,1.9-1.54,1.17,0,1.71.61,1.71.61l-.34.57s-.47-.51-1.39-.51c-.56,0-1.11.24-1.11.86,0,1.23,2.99.89,2.99,2.73,0,.91-.78,1.56-1.9,1.56-1.35,0-2.06-.81-2.06-.81ZM91.94,151.99v-.94h.78v.94h-.78ZM91.96,158.81v-5.56h.75v5.56h-.75ZM94.78,158.81v-4.86h-.7v-.63h.7v-.26c0-1.83,1.29-2.07,1.92-2.07.21,0,.34.02.34.02v.67s-.11-.02-.26-.02c-.43,0-1.25.16-1.25,1.39v.26h1.43v.63h-1.43v4.86h-.75ZM100.2,160.8l.29-.6s.31.25.66.25c.49,0,.83-.4,1.05-.91l.34-.78-2.32-5.51h.83l1.63,4.05c.11.28.2.58.2.58h.02s.08-.31.19-.58l1.6-4.05h.82l-2.74,6.71c-.29.71-.86,1.16-1.6,1.16-.57,0-.97-.33-.97-.33ZM106.13,156.01c0-1.65,1.32-2.88,2.94-2.88s2.94,1.24,2.94,2.88-1.31,2.94-2.94,2.94-2.94-1.26-2.94-2.94ZM106.9,156.01c0,1.29.97,2.26,2.16,2.26s2.16-.97,2.16-2.26-.97-2.2-2.16-2.2-2.16.94-2.16,2.2ZM113.33,156.79v-3.53h.75v3.34c0,.87.13,1.65,1.2,1.65,1.27,0,2.05-1.12,2.05-2.32v-2.66h.75v5.56h-.73v-.83c0-.24.02-.44.02-.44h-.02c-.22.54-.95,1.4-2.18,1.4-1.3,0-1.86-.71-1.86-2.15ZM122.87,158.81v-7.76h.75v3c0,.25-.02.45-.02.45h.02c.21-.53.95-1.38,2.21-1.38,1.37,0,1.86.78,1.86,2.15v3.53h-.75v-3.34c0-.87-.13-1.65-1.2-1.65-.95,0-1.77.65-2.02,1.58-.07.22-.09.48-.09.74v2.66h-.75ZM128.96,157.3c0-1.88,2.44-1.92,3.4-1.92h.31v-.14c0-1.07-.58-1.44-1.38-1.44-.92,0-1.57.53-1.57.53l-.35-.57s.73-.63,1.98-.63c1.34,0,2.08.74,2.08,2.13v3.56h-.72v-.61c0-.28.02-.46.02-.46h-.02s-.46,1.2-1.86,1.2c-.93,0-1.89-.54-1.89-1.65ZM129.74,157.25c0,.52.41,1.05,1.24,1.05,1.06,0,1.7-1.1,1.7-2.06v-.24h-.32c-.87,0-2.62.03-2.62,1.26ZM136.49,158.81l-2.13-5.56h.79l1.55,4.07c.1.28.19.66.19.66h.02s.09-.38.2-.66l1.54-4.07h.78l-2.12,5.56h-.82ZM140.1,156.04c0-1.82,1.24-2.92,2.74-2.92s2.32,1.18,2.32,2.56c0,.13-.02.39-.02.39h-4.26c.03,1.42,1,2.2,2.15,2.2,1.02,0,1.69-.67,1.69-.67l.34.57s-.81.77-2.05.77c-1.66,0-2.91-1.19-2.91-2.9ZM140.9,155.45h3.49c-.04-1.16-.75-1.7-1.58-1.7-.93,0-1.73.58-1.91,1.7ZM149.1,157.3c0-1.88,2.44-1.92,3.4-1.92h.31v-.14c0-1.07-.59-1.44-1.38-1.44-.92,0-1.57.53-1.57.53l-.35-.57s.73-.63,1.98-.63c1.34,0,2.08.74,2.08,2.13v3.56h-.72v-.61c0-.28.02-.46.02-.46h-.02s-.46,1.2-1.85,1.2c-.93,0-1.89-.54-1.89-1.65ZM149.87,157.25c0,.52.41,1.05,1.24,1.05,1.06,0,1.7-1.1,1.7-2.06v-.24h-.32c-.87,0-2.62.03-2.62,1.26ZM155.29,158.81v-5.56h.74v.83c0,.24-.02.44-.02.44h.02c.2-.51.91-1.4,2.22-1.4s1.85.78,1.85,2.15v3.53h-.75v-3.34c0-.87-.13-1.65-1.2-1.65-.95,0-1.77.65-2.02,1.57-.07.23-.09.49-.09.75v2.66h-.75ZM161.01,160.8l.29-.6s.31.25.66.25c.49,0,.83-.4,1.05-.91l.34-.78-2.32-5.51h.83l1.63,4.05c.11.28.2.58.2.58h.02s.08-.31.19-.58l1.6-4.05h.82l-2.74,6.71c-.29.71-.86,1.16-1.6,1.16-.57,0-.97-.33-.97-.33ZM169.95,156.03c0-1.76,1.04-2.9,2.5-2.9,1.35,0,1.82,1.07,1.82,1.07h.02s-.01-.18-.01-.42v-.52h.73v7.76h-.75v-2.67c0-.29.02-.49.02-.49h-.02s-.46,1.08-1.89,1.08-2.42-1.19-2.42-2.92ZM170.72,156.03c0,1.37.72,2.24,1.76,2.24.93,0,1.8-.66,1.8-2.24,0-1.13-.57-2.23-1.77-2.23-.98,0-1.79.83-1.79,2.23ZM176.74,156.79v-3.53h.75v3.34c0,.87.13,1.65,1.2,1.65,1.27,0,2.05-1.12,2.05-2.32v-2.66h.75v5.56h-.73v-.83c0-.24.02-.44.02-.44h-.02c-.22.54-.95,1.4-2.18,1.4-1.3,0-1.85-.71-1.85-2.15ZM182.93,156.04c0-1.82,1.24-2.92,2.74-2.92s2.32,1.18,2.32,2.56c0,.13-.02.39-.02.39h-4.26c.03,1.42,1,2.2,2.15,2.2,1.02,0,1.69-.67,1.69-.67l.34.57s-.81.77-2.05.77c-1.66,0-2.9-1.19-2.9-2.9ZM183.73,155.45h3.49c-.04-1.16-.75-1.7-1.58-1.7-.93,0-1.73.58-1.91,1.7ZM188.96,158.14l.41-.54s.62.67,1.66.67c.6,0,1.12-.3,1.12-.88,0-1.21-2.99-.92-2.99-2.73,0-.99.89-1.54,1.9-1.54,1.17,0,1.71.61,1.71.61l-.34.57s-.48-.51-1.39-.51c-.56,0-1.1.24-1.1.86,0,1.23,2.99.89,2.99,2.73,0,.91-.78,1.56-1.9,1.56-1.35,0-2.05-.81-2.05-.81ZM194.52,156.79v-2.84h-.73v-.63h.74v-1.6h.74v1.6h1.39v.63h-1.39v2.76c0,1.3.83,1.47,1.25,1.47.15,0,.25-.02.25-.02v.67s-.12.02-.32.02c-.64,0-1.93-.21-1.93-2.07ZM197.99,151.99v-.94h.78v.94h-.78ZM198.01,158.81v-5.56h.75v5.56h-.75ZM200.17,156.01c0-1.65,1.31-2.88,2.94-2.88s2.94,1.24,2.94,2.88-1.32,2.94-2.94,2.94-2.94-1.26-2.94-2.94ZM200.94,156.01c0,1.29.97,2.26,2.16,2.26s2.17-.97,2.17-2.26-.97-2.2-2.17-2.2-2.16.94-2.16,2.2ZM207.45,158.81v-5.56h.74v.83c0,.24-.02.44-.02.44h.02c.2-.51.91-1.4,2.22-1.4s1.85.78,1.85,2.15v3.53h-.75v-3.34c0-.87-.13-1.65-1.2-1.65-.95,0-1.77.65-2.02,1.57-.07.23-.09.49-.09.75v2.66h-.75ZM213.54,158.14l.41-.54s.62.67,1.66.67c.6,0,1.12-.3,1.12-.88,0-1.21-2.99-.92-2.99-2.73,0-.99.89-1.54,1.9-1.54,1.17,0,1.71.61,1.71.61l-.34.57s-.48-.51-1.39-.51c-.56,0-1.1.24-1.1.86,0,1.23,2.99.89,2.99,2.73,0,.91-.78,1.56-1.9,1.56-1.35,0-2.05-.81-2.05-.81ZM219.17,154.14v-.88h.87v.88h-.87ZM219.17,158.81v-.88h.87v.88h-.87Z"/>
<path class="cls-31" d="M226.15,159.86c-.8-1.32-1.28-3.03-1.28-4.8,0-1.59.46-3.06,1.28-4.36h.94c-.81,1.35-1.25,2.82-1.25,4.37,0,1.65.42,3.29,1.25,4.79h-.94ZM228.02,156.56c0-1.19,1.04-1.93,1.25-2.08-.51-.36-.87-.84-.87-1.56,0-1.04.78-2.04,2.43-2.04,1.45,0,2.45.81,2.45,2.09,0,1.04-.83,1.92-.93,2.03.6.36,1.06.85,1.06,1.66,0,1.21-1.05,2.29-2.67,2.29s-2.72-.97-2.72-2.39ZM232.29,156.62c0-.84-1.16-1.17-2.21-1.68-.25.18-.94.71-.94,1.55,0,.89.77,1.47,1.6,1.47s1.55-.53,1.55-1.34ZM229.48,152.95c0,.86,1.04,1.19,2.04,1.62.12-.12.68-.72.68-1.54,0-.72-.57-1.17-1.39-1.17-.86,0-1.34.49-1.34,1.08ZM234.63,157.86l.61-.79s.61.84,1.71.84c.92,0,1.71-.63,1.71-1.58s-.77-1.6-1.78-1.6c-.76,0-1.31.39-1.31.39l-.63-.23.39-3.86h3.93v.95h-2.98l-.19,1.65c-.01.23-.06.41-.06.41h.02s.43-.24,1.01-.24c1.64,0,2.72,1.14,2.72,2.54,0,1.5-1.18,2.63-2.76,2.63s-2.38-1.08-2.38-1.08ZM240.86,157.86l.61-.79s.61.84,1.71.84c.92,0,1.71-.63,1.71-1.58s-.77-1.6-1.78-1.6c-.76,0-1.31.39-1.31.39l-.63-.23.39-3.86h3.93v.95h-2.98l-.19,1.65c-.01.23-.05.41-.05.41h.02s.43-.24,1.01-.24c1.64,0,2.72,1.14,2.72,2.54,0,1.5-1.18,2.63-2.76,2.63s-2.39-1.08-2.39-1.08ZM247.8,159.86h-.94c.83-1.5,1.25-3.15,1.25-4.79,0-1.56-.44-3.03-1.25-4.37h.94c.82,1.3,1.28,2.77,1.28,4.36,0,1.78-.49,3.48-1.28,4.8ZM253.34,158.81v-.95h1.72v-5.04c0-.24.01-.49.01-.49h-.02s-.09.18-.38.45l-.73.72-.66-.68,1.87-1.81h.97v6.85h1.7v.95h-4.48ZM258.78,158.81c-.03-.21-.05-.41-.05-.6,0-2.78,3.82-3.18,3.82-5.01,0-.77-.58-1.29-1.4-1.29-1.03,0-1.58.99-1.58.99l-.81-.54s.71-1.48,2.46-1.48c1.43,0,2.46.9,2.46,2.24,0,2.56-3.72,2.96-3.74,4.74h3.87v.95h-5.02ZM264.88,157.88l.6-.83s.76.85,1.89.85c.87,0,1.59-.58,1.59-1.42,0-.96-.85-1.44-1.81-1.44h-.54l-.25-.58,1.7-2c.25-.3.49-.51.49-.51v-.02s-.23.03-.66.03h-2.64v-.95h4.66v.69l-2.12,2.44c1.03.11,2.29.77,2.29,2.29,0,1.34-1.05,2.51-2.65,2.51s-2.53-1.06-2.53-1.06ZM273.89,156.72v-.68l3.6-5.02h1.25v4.78h1.06v.93h-1.06v2.09h-1.07v-2.09h-3.78ZM275.09,155.8h2.57v-2.84c0-.36.04-.77.04-.77h-.02s-.18.36-.39.64l-2.21,2.95v.02ZM280.77,157.86l.61-.79s.61.84,1.71.84c.92,0,1.71-.63,1.71-1.58s-.77-1.6-1.78-1.6c-.76,0-1.32.39-1.32.39l-.63-.23.39-3.86h3.93v.95h-2.98l-.19,1.65c-.01.23-.06.41-.06.41h.02s.43-.24,1.01-.24c1.65,0,2.72,1.14,2.72,2.54,0,1.5-1.18,2.63-2.76,2.63s-2.38-1.08-2.38-1.08ZM290.03,158.94c-1.67,0-2.92-1.46-2.92-3.68,0-2,1.09-4.39,3.51-4.39.92,0,1.51.32,1.51.32l-.35.94s-.5-.25-1.11-.25c-1.44,0-2.18,1.33-2.34,2.62h.02c.33-.44,1.04-.74,1.72-.74,1.48,0,2.46,1.13,2.46,2.57,0,1.53-1.05,2.61-2.51,2.61ZM290.02,157.94c.89,0,1.44-.7,1.44-1.6s-.61-1.65-1.6-1.65c-.88,0-1.59.53-1.59,1.09,0,1.02.76,2.15,1.76,2.15ZM294.03,158.81l3.04-6.14c.22-.44.45-.72.45-.72v-.02s-.18.03-.57.03h-3.48v-.95h5.21v.75l-3.52,7.05h-1.13Z"/>
</g>
<rect class="cls-11" y="174.57" width="355" height="47.22"/>
<path class="cls-14" d="M77.22,201.68v-7.76h.76v7.76h-.76ZM80.02,201.68v-5.55h.74v.83c0,.24-.02.44-.02.44h.02c.2-.51.91-1.4,2.22-1.4s1.86.78,1.86,2.15v3.53h-.75v-3.33c0-.87-.13-1.65-1.2-1.65-.95,0-1.77.65-2.02,1.57-.07.23-.09.49-.09.75v2.66h-.75ZM89.54,203.89v-7.76h.72v.54c0,.24-.02.43-.02.43h.02s.45-1.1,1.92-1.1,2.42,1.19,2.42,2.92-1.05,2.9-2.49,2.9c-1.34,0-1.82-1.06-1.82-1.06h-.02s.02.2.02.49v2.65h-.75ZM90.26,198.92c0,1.12.62,2.23,1.77,2.23.98,0,1.79-.83,1.79-2.24s-.72-2.23-1.76-2.23c-.93,0-1.8.66-1.8,2.24ZM95.59,200.16c0-1.88,2.44-1.92,3.4-1.92h.31v-.14c0-1.07-.58-1.44-1.38-1.44-.92,0-1.57.53-1.57.53l-.35-.57s.73-.63,1.98-.63c1.34,0,2.08.74,2.08,2.13v3.56h-.72v-.61c0-.28.02-.46.02-.46h-.02s-.46,1.2-1.86,1.2c-.93,0-1.89-.54-1.89-1.65ZM96.36,200.12c0,.52.41,1.05,1.24,1.05,1.06,0,1.7-1.1,1.7-2.07v-.24h-.32c-.87,0-2.62.03-2.62,1.26ZM101.78,201.68v-5.55h.74v.98c0,.24-.02.44-.02.44h.02c.26-.84.88-1.48,1.76-1.48.15,0,.3.03.3.03v.74s-.13-.02-.28-.02c-.78,0-1.37.62-1.61,1.43-.11.35-.15.73-.15,1.08v2.34h-.75ZM105.92,199.66v-2.84h-.73v-.63h.74v-1.6h.74v1.6h1.39v.63h-1.39v2.76c0,1.3.83,1.47,1.25,1.47.16,0,.25-.02.25-.02v.67s-.12.02-.32.02c-.64,0-1.93-.21-1.93-2.07ZM109.41,201.68v-5.55h.74v.83c0,.24-.02.44-.02.44h.02c.2-.51.91-1.4,2.22-1.4s1.86.78,1.86,2.15v3.53h-.75v-3.33c0-.87-.13-1.65-1.2-1.65-.95,0-1.77.65-2.02,1.57-.07.23-.09.49-.09.75v2.66h-.75ZM115.57,198.91c0-1.82,1.24-2.92,2.74-2.92s2.32,1.18,2.32,2.56c0,.13-.02.39-.02.39h-4.26c.03,1.43,1.01,2.2,2.15,2.2,1.02,0,1.69-.67,1.69-.67l.34.57s-.81.77-2.05.77c-1.66,0-2.9-1.19-2.9-2.9ZM116.38,198.32h3.49c-.04-1.16-.75-1.7-1.58-1.7-.93,0-1.73.59-1.91,1.7ZM122.07,201.68v-5.55h.74v.98c0,.24-.02.44-.02.44h.02c.27-.84.88-1.48,1.76-1.48.15,0,.3.03.3.03v.74s-.13-.02-.28-.02c-.79,0-1.37.62-1.61,1.43-.11.35-.15.73-.15,1.08v2.34h-.75ZM125.55,201.01l.41-.54s.62.67,1.66.67c.6,0,1.11-.3,1.11-.88,0-1.21-2.99-.92-2.99-2.73,0-.99.9-1.54,1.9-1.54,1.17,0,1.71.61,1.71.61l-.34.57s-.47-.51-1.39-.51c-.56,0-1.11.24-1.11.86,0,1.23,2.99.89,2.99,2.73,0,.91-.78,1.56-1.9,1.56-1.35,0-2.06-.81-2.06-.81ZM130.9,201.68v-7.76h.75v3c0,.25-.02.45-.02.45h.02c.21-.53.95-1.38,2.21-1.38,1.37,0,1.86.78,1.86,2.15v3.53h-.75v-3.33c0-.87-.13-1.65-1.2-1.65-.95,0-1.77.65-2.02,1.58-.07.22-.09.47-.09.74v2.66h-.75ZM137.42,194.85v-.94h.78v.94h-.78ZM137.45,201.68v-5.55h.75v5.55h-.75ZM140.01,203.89v-7.76h.72v.54c0,.24-.02.43-.02.43h.02s.45-1.1,1.92-1.1,2.42,1.19,2.42,2.92-1.05,2.9-2.49,2.9c-1.34,0-1.82-1.06-1.82-1.06h-.02s.02.2.02.49v2.65h-.75ZM140.74,198.92c0,1.12.62,2.23,1.77,2.23.98,0,1.79-.83,1.79-2.24s-.72-2.23-1.76-2.23c-.93,0-1.8.66-1.8,2.24ZM150.64,201.68l-1.88-5.55h.79l1.35,4.14c.09.26.17.6.17.6h.02s.08-.33.17-.6l1.37-4.12h.74l1.37,4.12c.09.26.16.6.16.6h.02s.08-.32.17-.6l1.35-4.14h.8l-1.88,5.55h-.82l-1.36-3.95c-.1-.28-.18-.6-.18-.6h-.02s-.08.32-.17.6l-1.36,3.95h-.82ZM158.3,194.85v-.94h.78v.94h-.78ZM158.33,201.68v-5.55h.75v5.55h-.75ZM161.1,199.66v-2.84h-.73v-.63h.74v-1.6h.74v1.6h1.39v.63h-1.39v2.76c0,1.3.83,1.47,1.25,1.47.15,0,.25-.02.25-.02v.67s-.12.02-.32.02c-.64,0-1.93-.21-1.93-2.07ZM164.59,201.68v-7.76h.75v3c0,.25-.02.45-.02.45h.02c.21-.53.95-1.38,2.21-1.38,1.37,0,1.86.78,1.86,2.15v3.53h-.75v-3.33c0-.87-.13-1.65-1.2-1.65-.95,0-1.77.65-2.02,1.58-.07.22-.09.47-.09.74v2.66h-.75Z"/>
<g class="cls-29">
<path class="cls-13" d="M196.14,198.66l-.48-.48.48-.48c2.22-2.22,2.22-5.83,0-8.05-1.08-1.08-2.51-1.67-4.04-1.67-1.53,0-2.99.64-4.07,1.72l-.43.43-.48-.48c-1.08-1.07-2.51-1.67-4.03-1.67s-2.95.59-4.03,1.67c-2.22,2.22-2.22,5.83,0,8.05l2.39,2.39,4.23,4.23-.44.44c-1.17,1.17-3.11,1.2-4.27.03-.56-.56-.87-1.31-.87-2.1,0-.11,0-.22.02-.33.04-.4-.1-.8-.39-1.09-.8-.8-2.18-.33-2.3.79-.02.21-.03.42-.03.63,0,1.52.59,2.95,1.67,4.03,1.11,1.11,2.57,1.67,4.03,1.67s2.92-.56,4.03-1.67l.48-.48.48.48c1.07,1.08,2.51,1.67,4.03,1.67s2.95-.59,4.03-1.67c1.07-1.08,1.67-2.51,1.67-4.03s-.59-2.95-1.67-4.03ZM180.99,191.56c.58-.58,1.35-.87,2.12-.87s1.53.29,2.11.87l.48.48-4.23,4.23-.48-.48c-1.16-1.16-1.16-3.06,0-4.23ZM183.38,198.18l4.23-4.23,1.82,1.82c.53.53,1.39.53,1.91,0,.53-.53.53-1.38,0-1.91l-1.82-1.82.44-.44c.57-.57,1.34-.91,2.14-.91.8,0,1.55.31,2.12.88,1.16,1.17,1.16,3.06,0,4.23l-.48.48-.64.64-5.5,5.5-4.23-4.23ZM195.09,202.94c-.05.61-.29,1.2-.69,1.67-.57.68-1.39,1.06-2.26,1.07-.82,0-1.6-.33-2.18-.91l-.44-.44,4.23-4.23.48.48c.62.62.94,1.48.87,2.37h0Z"/>
<path class="cls-12" d="M187.13,206.71l.47-.47-1.91-1.9h-.02s-.42.42-.42.42c-.68.68-1.62.97-2.52.87l2.38,2.38c.74-.28,1.42-.71,2.02-1.3h0Z"/>
<path class="cls-12" d="m187.61 193.95-1.91-1.91-2.12 2.12 1.91 1.91 2.12-2.12z"/>
<path class="cls-12" d="M196.14,198.66l-.48-.48-1.91,1.91.48.48c.5.5.8,1.14.86,1.84l2.17-2.17c-.28-.58-.65-1.11-1.12-1.58Z"/>
<path class="cls-12" d="M189.52,192.04l.44-.44c.39-.39.88-.67,1.4-.81l-2.05-2.06c-.46.26-.89.59-1.27.97l-.43.43,1.91,1.91Z"/>
<path class="cls-12" d="m189.05 200.96-1.45 1.44 1.91 1.91 1.44-1.44-1.91-1.91z"/>
<path class="cls-13" d="M252.88,202.01c-.49.2-.95.34-1.38.42-.43.09-.84.13-1.23.13-1.06,0-1.87-.3-2.41-.9-.55-.6-.82-1.4-.82-2.4v-.85c0-.67.12-1.25.37-1.74.24-.49.59-.87,1.04-1.14.45-.27.98-.41,1.59-.41.5,0,.96.1,1.4.31.44.2.8.51,1.07.94.28.42.42.97.42,1.64,0,.2-.01.41-.04.64-.03.22-.08.45-.14.69h-4.15c.02.58.16,1.02.44,1.31.27.29.71.44,1.31.44.32,0,.65-.04.99-.11.35-.07.7-.19,1.07-.34l.46,1.37ZM250.05,196.5c-.43,0-.77.14-1.02.42-.23.27-.37.67-.41,1.18h2.71s.01-.09.01-.13v-.13c0-.45-.13-.79-.38-1.02-.25-.22-.56-.34-.92-.34Z"/>
<path class="cls-13" d="M243.65,200.41v-8.42h1.62v8.42c0,.14.03.28.1.41.08.12.22.18.42.18h.23v1.49h-.39c-.54,0-.95-.1-1.23-.31-.28-.21-.48-.47-.59-.79-.1-.32-.15-.65-.15-.99Z"/>
<path class="cls-13" d="M241.97,199.22c0,1.02-.25,1.84-.76,2.44-.51.6-1.25.9-2.23.9s-2.05-.28-3.09-.85v-9.73h1.62v4.23c.43-.43.8-.72,1.11-.86.31-.15.63-.23.96-.23.75,0,1.34.29,1.75.87.42.58.63,1.4.63,2.45v.76ZM239.15,196.64c-.23,0-.46.07-.72.2-.24.13-.55.39-.92.78v3.2c.25.1.48.18.69.23.22.05.43.07.64.07.53,0,.9-.17,1.13-.51.23-.34.34-.8.34-1.38v-.76c0-.63-.1-1.09-.31-1.38-.2-.29-.48-.44-.85-.44Z"/>
<path class="cls-13" d="M225.29,197.47v4.95h-1.62v-7.15h1.54v.95c.44-.39.85-.66,1.23-.83.38-.17.76-.25,1.16-.25.87,0,1.47.38,1.79,1.16.47-.41.91-.71,1.31-.89.4-.18.81-.27,1.23-.27.66,0,1.16.22,1.51.66.35.43.52,1.04.52,1.83v4.79h-1.62v-4.6c0-.79-.3-1.18-.9-1.18-.24,0-.49.06-.78.17-.28.11-.62.33-1.03.66v4.95h-1.62v-4.6c0-.79-.3-1.18-.9-1.18-.24,0-.49.06-.77.17-.28.11-.63.33-1.03.66Z"/>
<path class="cls-13" d="M222.07,202.49c-.48,0-.87-.1-1.16-.3-.28-.2-.49-.44-.62-.73-.4.38-.79.65-1.17.83-.38.18-.78.27-1.21.27-.63,0-1.1-.2-1.4-.61-.29-.4-.44-.92-.44-1.54,0-.41.08-.77.23-1.09.16-.32.42-.57.78-.75s.85-.27,1.47-.27c.24,0,.5.02.76.06.26.03.53.07.79.11v-.83c0-.4-.11-.66-.33-.8-.22-.15-.51-.23-.87-.23-.28,0-.59.04-.93.11-.33.07-.69.19-1.07.35l-.46-1.38c.95-.39,1.81-.58,2.58-.58.7,0,1.23.12,1.61.35.39.24.65.55.8.93.15.39.23.8.23,1.24v2.75c0,.14.04.28.11.41.08.12.24.18.48.18h.15v1.49h-.32ZM217.65,200.39c0,.25.06.46.17.61.11.14.28.21.49.21s.46-.06.73-.17c.27-.11.62-.38,1.06-.79v-.61c-.49-.09-.97-.13-1.44-.13-.37,0-.63.07-.79.22-.15.15-.23.37-.23.65Z"/>
<path class="cls-13" d="M215.38,196.75c-.44,0-.86.07-1.27.21-.4.13-.77.35-1.14.65v4.81h-1.62v-7.15h1.54v1.1c.48-.45.91-.77,1.28-.96.38-.19.78-.28,1.21-.28v1.62Z"/>
<path class="cls-13" d="M203.45,202.42v-9.59h2.92c.71,0,1.28.1,1.69.31.42.21.72.5.9.88.19.38.28.82.28,1.32v.4c0,.74-.32,1.31-.96,1.71.45.18.79.44,1.03.77.24.34.35.74.35,1.21v.4c0,.52-.09.97-.28,1.37-.19.38-.5.69-.93.9-.43.22-1.01.32-1.74.32h-3.27ZM206.37,194.38h-1.23v2.4h1.23c.38,0,.66-.08.85-.25.2-.18.3-.42.3-.72v-.47c0-.3-.1-.54-.3-.71-.19-.17-.47-.25-.85-.25ZM206.72,198.33h-1.58v2.54h1.58c.4,0,.7-.09.9-.28.21-.19.31-.44.31-.76v-.46c0-.32-.1-.57-.31-.75-.21-.19-.51-.28-.9-.28Z"/>
<path class="cls-13" d="M276.52,201.65c.57,0,.97-.09,1.2-.28.24-.2.35-.48.35-.85,0-.31-.09-.56-.28-.76-.18-.2-.52-.36-1.02-.48l-.76-.18c-.54-.13-.95-.36-1.23-.69-.27-.34-.41-.75-.41-1.23,0-.33.07-.63.21-.92.15-.29.39-.53.71-.71.33-.19.76-.28,1.3-.28.35,0,.7.04,1.06.13.36.08.71.2,1.06.37l-.28.72c-.66-.29-1.27-.44-1.83-.44-.44,0-.79.09-1.03.27-.24.18-.35.45-.35.8,0,.27.08.52.25.73.18.22.5.38.97.49l.78.18c1.13.26,1.69.91,1.69,1.95,0,.36-.07.69-.21.99-.14.29-.38.53-.72.71-.34.17-.8.25-1.38.25-.39,0-.79-.04-1.17-.13-.39-.09-.78-.22-1.18-.4l.23-.72c.38.15.72.27,1.03.35.32.08.66.11,1.03.11Z"/>
<path class="cls-13" d="M270.79,202.99c-.29.84-.64,1.45-1.06,1.85-.41.4-.99.59-1.72.59v-.8c.31,0,.57-.04.79-.11.23-.07.44-.25.64-.52.21-.26.42-.69.65-1.28l.15-.4-2.48-6.9h.89l1.14,3.29.86,2.58.85-2.58,1.13-3.29h.85l-2.68,7.57Z"/>
<path class="cls-13" d="M266.73,198.42v.85c0,1-.25,1.77-.75,2.33-.5.55-1.2.83-2.1.83s-1.62-.28-2.12-.83c-.49-.56-.73-1.33-.73-2.33v-.85c0-.96.24-1.72.73-2.29.5-.57,1.2-.86,2.12-.86s1.61.29,2.1.86c.5.56.75,1.33.75,2.29ZM265.84,198.42c0-.75-.17-1.34-.51-1.75-.34-.41-.82-.62-1.45-.62s-1.11.21-1.45.62c-.34.41-.51,1-.51,1.75v.85c0,.78.17,1.37.51,1.78.34.4.82.61,1.45.61s1.11-.2,1.45-.61c.34-.4.51-1,.51-1.78v-.85Z"/>
<path class="cls-13" d="M254.35,193.52v-.83h6.67v.83h-2.88v8.76h-.92v-8.76h-2.88Z"/>
</g>
</g>
</g>
</g>
</g>
</svg>
