<?xml version="1.0" encoding="UTF-8"?>
<svg id="Layer_2" viewBox="0 0 324 328" xmlns="http://www.w3.org/2000/svg">
<defs>
<style>.cls-1{fill:#1bbd9f}.cls-2{fill:#fff}</style>
</defs>
<g id="Layer_1-2">
<path class="cls-1" d="m271 307c2.6 0 4.4 1.6 4.4 4.4 0 3-1.8 4.7-4.4 4.7-3 0-4.6-1.6-4.6-4.7 0-2.6 1.9-4.4 4.6-4.4z"/>
<path class="cls-1" d="m252 292v-7h-3.4c0.05-1.3 0.58-3.4 1.2-4.4 1.2-0.58 3.4-0.96 5.4-0.96 1.2 0 2.9 0.19 3.7 0.53v27c0 1.3 0.19 2.9 0.48 3.9h3.4c0.05 0.24 0.05 0.53 0.05 0.82 0 0.86-0.38 2.4-0.82 3.2-2 0.62-5.7 0.96-8.1 0.96-0.62-1.1-1.1-2.4-1.3-3.8h-0.43c-1.1 1.9-3.2 4-7.2 4s-9.1-2.8-9.1-11 4.8-14 12-14c1.9 0 3.4 0.48 4.5 1.2zm0.14 17v-12c-0.82-0.43-1.9-0.67-2.9-0.67-4.2 0-6.1 3.1-6.1 7.9s2 7.4 4.8 7.4c1.9 0 3.4-1.2 4.2-2.2z"/>
<path class="cls-1" d="m232 305h-14c0.38 3.7 2.7 5.8 6.5 5.8 2.2 0 5.8-0.62 7.5-1.2 0.14 1.3-0.43 3.5-1.2 4.7-1.8 0.96-4.8 1.8-8.2 1.8-7.6 0-12-5.1-12-12 0-7.6 4.8-13 12-13 6.5 0 9.2 4.4 9.2 11 0 0.82-0.1 1.8-0.19 2.7zm-14-4.4h7.8c0.29-2.5-0.53-5.4-3.4-5.4-2.4 0-4.2 2.3-4.4 5.4z"/>
<path class="cls-1" d="m190 299v12c0.91 0.14 2.4 0.48 3.1 0.86 0.19 0.77 0.34 2.8 0.19 3.7h-14c0.1-1.2 0.43-2.7 0.77-3.5 0.67-0.53 1.9-1 2.8-1.3v-14h-3.5c0.05-1.3 0.58-3.4 1.2-4.4 1.2-0.58 3-0.96 4.9-0.96 1.2 0 2.6 0.19 3.3 0.53v3.8h0.72c1.3-2.6 3.7-4.7 7.8-4.7s7.9 1.2 7.9 8.8c0 3.5-0.14 7.5-0.38 11 1 0.14 2.5 0.53 3.4 0.91 0.14 0.58 0.24 1.7 0.24 2.6 0 0.38 0 0.72-0.05 1.1h-13c0.1-1.2 0.34-2.7 0.62-3.5 0.53-0.53 1.5-1 2.3-1.3v-9.3c0-2.8-0.96-4.8-3.7-4.8-1.9 0-3.5 1.2-4.6 2.6z"/>
<path class="cls-1" d="m155 316v-0.43c-0.91-0.48-2-2-2-3.6 0-2.3 1.4-3.8 3-4.5v-0.43c-1.9-1.2-3.3-3.4-3.3-6.9 0-5.6 4.5-9 10-9 2.1 0 4.1 0.34 5.9 1.2 1.3-0.77 3.2-1.2 5-1.2 1 0 1.9 0.14 2.8 0.38 0.53 1.2 1 3.5 1 4.9h-4.9c0.43 1.1 0.67 2.3 0.67 3.7 0 5.7-4 9-10 9-1 0-2.1-0.1-3-0.29-0.19 0.38-0.34 0.82-0.34 1.2 0 1.4 1.7 1.9 5.9 1.9 6.6 0 11 1.4 11 7 0 6.2-6.1 8.8-14 8.8-7.1 0-12-2.4-12-6.9 0-2.9 2-4.5 3.8-4.9zm4 1.1c-0.82 0.72-1.3 1.6-1.3 2.6 0 2.6 3.2 3.8 6.4 3.8s6.4-1.2 6.4-3.6c0-1.5-1.6-2.4-6.4-2.4-1.4 0-3.5-0.14-5.2-0.48zm0.72-17c0 3.1 1.3 5.2 3.5 5.2s3.4-2.1 3.4-5.2-1.3-5.2-3.4-5.2c-2.4 0-3.5 1.9-3.5 5.2z"/>
<path class="cls-1" d="m138 297h-3.5c0.05-1.3 0.58-3.4 1.2-4.4 1.2-0.58 3.4-0.96 5.5-0.96 1.2 0 3 0.19 3.8 0.53v19c1 0.14 2.6 0.48 3.4 0.86 0.14 0.53 0.24 1.7 0.24 2.7 0 0.38 0 0.72-0.05 1.1h-14c0.1-1.2 0.43-2.7 0.77-3.5 0.67-0.53 1.8-1 2.8-1.3v-14zm3.6-18c2.4 0 4.2 1.5 4.2 4.1 0 2.8-1.7 4.4-4.2 4.4-2.8 0-4.3-1.5-4.3-4.4 0-2.5 1.8-4.1 4.3-4.1z"/>
<path class="cls-1" d="m126 298v-2.2c-0.53-0.29-1.3-0.53-2.1-0.53-1.7 0-2.5 0.72-2.5 2.1 0 4.7 11 2.3 11 11 0 5.8-4.6 7.8-9.9 7.8-3.2 0-6.1-0.48-8.6-1.8-0.14-0.72-0.24-1.6-0.24-2.6 0-1.5 0.19-3.1 0.48-4.1 2 0 3.8 0.19 5.5 0.77v2.6c0.86 0.48 2.2 0.82 3.2 0.82 1.8 0 2.8-0.67 2.8-2.2 0-4.4-11-2-11-11 0-4.3 3.5-7.2 9.5-7.2 2.6 0 5.5 0.48 8.1 1.6 0.05 0.48 0.1 1.1 0.1 1.7 0 1.5-0.19 3.3-0.53 4.4-2 0-4.2-0.48-5.5-1.1z"/>
<path class="cls-1" d="m109 305h-14c0.38 3.7 2.7 5.8 6.5 5.8 2.2 0 5.8-0.62 7.5-1.2 0.14 1.3-0.43 3.5-1.2 4.7-1.8 0.96-4.8 1.8-8.2 1.8-7.6 0-12-5.1-12-12 0-7.6 4.8-13 12-13 6.5 0 9.2 4.4 9.2 11 0 0.82-0.1 1.8-0.19 2.7zm-14-4.4h7.8c0.29-2.5-0.53-5.4-3.4-5.4-2.4 0-4.2 2.3-4.4 5.4z"/>
<path class="cls-1" d="m75 292v-7h-3.4c0.05-1.3 0.58-3.4 1.2-4.4 1.2-0.58 3.4-0.96 5.4-0.96 1.2 0 2.9 0.19 3.7 0.53v27c0 1.3 0.19 2.9 0.48 3.9h3.4c0.05 0.24 0.05 0.53 0.05 0.82 0 0.86-0.38 2.4-0.82 3.2-2 0.62-5.7 0.96-8.1 0.96-0.62-1.1-1.1-2.4-1.3-3.8h-0.43c-1.1 1.9-3.2 4-7.2 4s-9.1-2.8-9.1-11 4.8-14 12-14c1.9 0 3.4 0.48 4.5 1.2zm0.15 17v-12c-0.82-0.43-1.9-0.67-2.9-0.67-4.2 0-6.1 3.1-6.1 7.9s2 7.4 4.8 7.4c1.9 0 3.4-1.2 4.2-2.2z"/>
<path class="cls-1" d="m291 235h-14c0.38 3.7 2.7 5.8 6.5 5.8 2.2 0 5.8-0.62 7.5-1.2 0.14 1.3-0.43 3.5-1.2 4.7-1.8 0.96-4.8 1.8-8.2 1.8-7.6 0-12-5.1-12-12 0-7.6 4.8-13 12-13 6.5 0 9.2 4.4 9.2 11 0 0.82-0.1 1.8-0.19 2.7zm-14-4.4h7.8c0.29-2.5-0.53-5.4-3.4-5.4-2.4 0-4.2 2.3-4.4 5.4z"/>
<path class="cls-1" d="m243 244v-29h-3.4c0.05-1.3 0.58-3.4 1.2-4.4 1.2-0.58 3.4-0.96 5.4-0.96 1.2 0 2.9 0.19 3.7 0.53v7.3c0 2.2-0.29 5.1-0.53 6.8h0.72c0.86-1.7 3-3.6 6.3-3.6 4.6 0 9.6 3 9.6 12 0 7.9-5.3 13-13 13-3.6 0-7.1-0.67-10-2.1zm6.8-16v13c0.67 0.19 1.8 0.34 2.6 0.34 4.4 0 6.4-3.1 6.4-7.8s-1.9-7.6-4.6-7.6c-1.7 0-3.5 1-4.4 2.4z"/>
<path class="cls-1" d="m216 221c7.2 0 12 4.3 12 12 0 8.3-4.8 13-12 13-7.7 0-12-4.4-12-13 0-7.5 5.2-12 12-12zm-5 12c0 5.1 1.9 8.4 4.9 8.4 3.3 0 4.8-3.2 4.8-8.4 0-4.4-1.9-7.7-4.8-7.7-3.2 0-4.9 3.1-4.9 7.7z"/>
<path class="cls-1" d="m187 221 0.86-5.5c1.2-0.67 4-1.2 5.8-1.2v7.3h6.7c0.24 0.96 0.43 3.4 0.24 4.8h-6.9v11c0 2.6 1.1 3.5 3.1 3.5 1.2 0 3.2-0.29 4.4-0.62 0.05 0.24 0.05 0.48 0.05 0.58 0 1.1-0.48 2.9-1.2 3.9-1.8 1-4.8 1.5-6.5 1.5-4.6 0-6.9-2.3-6.9-7.9 0-3.1 0.14-7.8 0.48-12h-3.6c0-1.2 0.38-3.4 0.86-4.4 0.72-0.43 1.9-0.86 2.6-1.1z"/>
<path class="cls-1" d="m165 228v-2.2c-0.53-0.29-1.3-0.53-2.1-0.53-1.7 0-2.5 0.72-2.5 2.1 0 4.7 11 2.3 11 11 0 5.8-4.6 7.8-9.9 7.8-3.2 0-6.1-0.48-8.6-1.8-0.14-0.72-0.24-1.6-0.24-2.6 0-1.5 0.19-3.1 0.48-4.1 2 0 3.8 0.19 5.5 0.77v2.6c0.86 0.48 2.2 0.82 3.2 0.82 1.8 0 2.8-0.67 2.8-2.2 0-4.4-11-2-11-11 0-4.3 3.5-7.2 9.5-7.2 2.6 0 5.5 0.48 8.1 1.6 0.05 0.48 0.1 1.1 0.1 1.7 0 1.5-0.19 3.3-0.53 4.4-2 0-4.2-0.48-5.5-1.1z"/>
<path class="cls-1" d="m140 243h-0.43c-1.3 2.2-3.5 3.5-7.1 3.5s-6.9-2.4-6.9-7.2c0-5.3 4.4-8 9.8-8 1.4 0 2.8 0.29 3.9 0.77v-1.8c0-2.5-1.4-3.6-4.2-3.6-2.2 0-6 1.1-7.8 2-0.1-0.38-0.19-1.2-0.19-1.7 0-1.6 0.43-3.5 0.96-4.5 1.8-0.67 5.7-1.2 8.6-1.2 6 0 9.4 2.3 9.4 8.4v8.1c0 1.5 0.29 2.8 0.67 3.6 0.91 0 2.3-0.19 3.1-0.38 0.05 0.34 0.05 0.58 0.05 0.77 0 1.1-0.34 2.3-0.82 3.2-1.3 0.77-4.2 1.4-6.8 1.4-1.1-0.53-1.9-1.9-2.3-3.5zm-0.53-3.1v-4.5c-0.86-0.19-2-0.29-2.6-0.29-2.8 0-4.3 1.3-4.3 3.4s1.4 3.1 3 3.1c1.9 0 3.2-0.86 3.9-1.7z"/>
<path class="cls-1" d="m104 230v11c0.91 0.14 2.4 0.48 3.1 0.86 0.19 0.77 0.34 2.8 0.19 3.7h-14c0.1-1.2 0.43-2.7 0.77-3.5 0.67-0.53 1.9-1 2.8-1.3v-25h-3.4c0.05-1.3 0.58-3.4 1.2-4.4 1.2-0.58 3.4-0.96 5.4-0.96 1.2 0 2.9 0.19 3.7 0.53v7.2c0 2.4-0.19 5.5-0.48 8.1h0.72c1.2-2.9 3.6-4.7 7.6-4.7s7.8 1.2 7.8 8.8c0 3.5-0.14 7.6-0.38 11 1 0.14 2.5 0.53 3.4 0.91 0.14 0.62 0.24 1.7 0.24 2.7 0 0.38 0 0.67-0.05 1h-13c0.1-1.2 0.34-2.7 0.62-3.5 0.53-0.53 1.5-1 2.3-1.3v-9.3c0-2.8-0.96-4.8-3.7-4.8-2.3 0-3.9 1.5-4.9 3.2z"/>
<path class="cls-1" d="m67 221 0.86-5.5c1.2-0.67 4-1.2 5.8-1.2v7.3h6.7c0.24 0.96 0.43 3.4 0.24 4.8h-6.9v11c0 2.6 1.1 3.5 3.1 3.5 1.2 0 3.2-0.29 4.4-0.62 0.05 0.24 0.05 0.48 0.05 0.58 0 1.1-0.48 2.9-1.2 3.9-1.8 1-4.8 1.5-6.5 1.5-4.6 0-6.9-2.3-6.9-7.9 0-3.1 0.14-7.8 0.48-12h-3.6c0-1.2 0.38-3.4 0.86-4.4 0.72-0.43 1.9-0.86 2.6-1.1z"/>
<path class="cls-1" d="M61.11,245.38h-15.7c.1-1.2.53-3.36.96-4.32.72-.29,2.45-.62,3.31-.77v-23.95c-1.01-.1-2.4-.34-3.17-.58-.19-1.39-.34-2.88-.05-4.42h14.21c.19.96.14,3.41-.1,4.42-.82.24-2.54.48-3.5.53v24c1.2.1,2.83.38,3.84.67.19.67.29,1.92.29,2.98,0,.58-.05,1.1-.1,1.44Z"/>
<path class="cls-2" d="m319 167c2.6 0 4.4 1.6 4.4 4.4 0 3-1.8 4.7-4.4 4.7-3 0-4.6-1.6-4.6-4.7 0-2.6 1.9-4.4 4.6-4.4z"/>
<path class="cls-2" d="m304 170h0.58c0.14-1.4 0.62-3.4 0.96-4.5l1.5-5.2c0.34-1.2 0.82-2.5 1.4-3.6-0.62-0.19-1.5-0.53-2-0.86-0.43-1.2-0.58-2.7-0.58-4.1h10c0 1.3-0.43 3.5-0.82 4.5-0.43 0.19-1.4 0.43-1.9 0.48l-2.8 7.4c-1.5 3.9-3.7 9.8-5.7 14-2.2 4.1-6.3 8.1-11 9.4-1.1-1.1-2.4-3.5-2.6-5.1 3.6-0.96 7-3.4 8.6-6l-8.2-19c-0.62-0.19-1.5-0.72-1.9-1.1-0.34-1.1-0.53-2.7-0.58-4h13c0 1.4-0.34 3.1-0.77 4.3-0.58 0.29-1.9 0.62-2.7 0.77 0.72 0.96 1.4 2.2 1.9 3.3l2.1 5.4c0.38 1 0.96 3.1 1.1 4.5z"/>
<path class="cls-2" d="m279 145h-3.4c0.05-1.3 0.58-3.4 1.2-4.4 1.2-0.58 3.4-0.96 5.4-0.96 1.2 0 2.9 0.19 3.7 0.53v30c1 0.14 2.6 0.48 3.4 0.86 0.14 0.53 0.24 1.7 0.24 2.7 0 0.38 0 0.72-0.05 1.1h-14c0.1-1.2 0.43-2.7 0.77-3.5 0.67-0.53 1.8-1 2.8-1.3v-25z"/>
<path class="cls-2" d="m263 145h-3.4c0.05-1.3 0.58-3.4 1.2-4.4 1.2-0.58 3.4-0.96 5.4-0.96 1.2 0 2.9 0.19 3.7 0.53v30c1 0.14 2.6 0.48 3.4 0.86 0.14 0.53 0.24 1.7 0.24 2.7 0 0.38 0 0.72-0.05 1.1h-14c0.1-1.2 0.43-2.7 0.77-3.5 0.67-0.53 1.8-1 2.8-1.3v-25z"/>
<path class="cls-2" d="m248 173h-0.43c-1.3 2.2-3.5 3.5-7.1 3.5s-6.9-2.4-6.9-7.2c0-5.3 4.4-8 9.8-8 1.4 0 2.8 0.29 3.9 0.77v-1.8c0-2.5-1.4-3.6-4.2-3.6-2.2 0-6 1.1-7.8 2-0.1-0.38-0.19-1.2-0.19-1.7 0-1.6 0.43-3.5 0.96-4.5 1.8-0.67 5.7-1.2 8.6-1.2 6 0 9.4 2.3 9.4 8.4v8.1c0 1.5 0.29 2.8 0.67 3.6 0.91 0 2.3-0.19 3.1-0.38 0.05 0.34 0.05 0.58 0.05 0.77 0 1.1-0.34 2.3-0.82 3.2-1.3 0.77-4.2 1.4-6.8 1.4-1.1-0.53-1.9-1.9-2.3-3.5zm-0.53-3.1v-4.5c-0.86-0.19-2-0.29-2.6-0.29-2.8 0-4.3 1.3-4.3 3.4s1.4 3.1 3 3.1c1.9 0 3.2-0.86 3.9-1.7z"/>
<path class="cls-2" d="m224 159v-3c-0.53-0.19-1.2-0.29-1.6-0.29-3.2 0-5.6 2.4-5.6 7.6 0 5.6 2.6 8.1 6.3 8.1 2.4 0 5-0.53 7-1.4 0.1 1.2-0.43 3.3-1.2 4.5-2.2 1.2-5.1 1.9-8.1 1.9-7.1 0-11-5-11-12 0-7.5 5.4-13 13-13 2.9 0 5.5 0.67 7.6 1.8 0.1 0.48 0.14 1.4 0.14 2.1 0 1.8-0.43 4-0.91 5.2-1.5 0-4.1-0.72-5.3-1.4z"/>
<path class="cls-2" d="m196 157h-3.5c0.05-1.3 0.58-3.4 1.2-4.4 1.2-0.58 3.4-0.96 5.5-0.96 1.2 0 3 0.19 3.8 0.53v19c1 0.14 2.6 0.48 3.4 0.86 0.14 0.53 0.24 1.7 0.24 2.7 0 0.38 0 0.72-0.05 1.1h-14c0.1-1.2 0.43-2.7 0.77-3.5 0.67-0.53 1.8-1 2.8-1.3v-14zm3.6-18c2.4 0 4.2 1.5 4.2 4.1 0 2.8-1.7 4.4-4.2 4.4-2.8 0-4.3-1.5-4.3-4.4 0-2.5 1.8-4.1 4.3-4.1z"/>
<path class="cls-2" d="m176 151 0.86-5.5c1.2-0.67 4-1.2 5.8-1.2v7.3h6.7c0.24 0.96 0.43 3.4 0.24 4.8h-6.9v11c0 2.6 1.1 3.5 3.1 3.5 1.2 0 3.2-0.29 4.4-0.62 0.05 0.24 0.05 0.48 0.05 0.58 0 1.1-0.48 2.9-1.2 3.9-1.8 1-4.8 1.5-6.5 1.5-4.6 0-6.9-2.3-6.9-7.9 0-3.1 0.14-7.8 0.48-12h-3.6c0-1.2 0.38-3.4 0.86-4.4 0.72-0.43 1.9-0.86 2.6-1.1z"/>
<path class="cls-2" d="m162 173h-0.43c-1.3 2.2-3.5 3.5-7.1 3.5s-6.9-2.4-6.9-7.2c0-5.3 4.4-8 9.8-8 1.4 0 2.8 0.29 3.9 0.77v-1.8c0-2.5-1.4-3.6-4.2-3.6-2.2 0-6 1.1-7.8 2-0.1-0.38-0.19-1.2-0.19-1.7 0-1.6 0.43-3.5 0.96-4.5 1.8-0.67 5.7-1.2 8.6-1.2 6 0 9.4 2.3 9.4 8.4v8.1c0 1.5 0.29 2.8 0.67 3.6 0.91 0 2.3-0.19 3.1-0.38 0.05 0.34 0.05 0.58 0.05 0.77 0 1.1-0.33 2.3-0.82 3.2-1.3 0.77-4.2 1.4-6.8 1.4-1.1-0.53-1.9-1.9-2.3-3.5zm-0.53-3.1v-4.5c-0.86-0.19-2-0.29-2.6-0.29-2.8 0-4.3 1.3-4.3 3.4s1.4 3.1 3 3.1c1.9 0 3.2-0.86 3.9-1.7z"/>
<path class="cls-2" d="m112 159v12c0.91 0.14 2.4 0.48 3.1 0.86 0.19 0.77 0.34 2.8 0.19 3.7h-14c0.1-1.2 0.43-2.7 0.77-3.5 0.67-0.53 1.9-1 2.8-1.3v-14h-3.5c0.05-1.3 0.58-3.4 1.2-4.4 1.2-0.58 3-0.96 4.9-0.96 1.2 0 2.6 0.19 3.3 0.53v3.8h0.72c1.3-2.7 3.6-4.7 7.6-4.7 3.4 0 5.9 0.82 6.7 4.9h0.43c1.1-2.7 3.5-4.9 7.6-4.9s7.7 1.2 7.7 8.8c0 3.5-0.14 7.6-0.38 11 1 0.14 2.5 0.53 3.4 0.91 0.14 0.58 0.24 1.7 0.24 2.6 0 0.38 0 0.72-0.05 1.1h-13c0.1-1.2 0.34-2.7 0.62-3.5 0.53-0.53 1.4-1 2.2-1.3v-9.3c0-2.8-0.91-4.8-3.6-4.8-1.8 0-3.3 1.2-4.4 2.5v12c0.91 0.14 2.4 0.48 3.1 0.86 0.19 0.77 0.34 2.8 0.19 3.7h-13c0.1-1.2 0.29-2.7 0.58-3.5 0.48-0.53 1.4-1 2.1-1.3v-9.3c0-2.8-0.91-4.8-3.6-4.8-1.8 0-3.3 1.2-4.4 2.5z"/>
<path class="cls-2" d="m87 151c7.2 0 12 4.3 12 12 0 8.3-4.8 13-12 13-7.7 0-12-4.4-12-13 0-7.5 5.2-12 12-12zm-5 12c0 5.1 1.9 8.4 4.9 8.4 3.3 0 4.8-3.2 4.8-8.4 0-4.4-1.9-7.7-4.8-7.7-3.2 0-4.9 3.1-4.9 7.7z"/>
<path class="cls-2" d="m59 151 0.86-5.5c1.2-0.67 4-1.2 5.8-1.2v7.3h6.7c0.24 0.96 0.43 3.4 0.24 4.8h-6.9v11c0 2.6 1.1 3.5 3.1 3.5 1.2 0 3.2-0.29 4.4-0.62 0.05 0.24 0.05 0.48 0.05 0.58 0 1.1-0.48 2.9-1.2 3.9-1.8 1-4.8 1.5-6.5 1.5-4.6 0-6.9-2.3-6.9-7.9 0-3.1 0.14-7.8 0.48-12h-3.6c0-1.2 0.38-3.4 0.86-4.4 0.72-0.43 1.9-0.86 2.6-1.1z"/>
<path class="cls-2" d="m43 169v-12h-3.4c0.05-1.3 0.58-3.3 1.2-4.4 1.2-0.58 3.4-0.96 5.5-0.96 1.2 0 2.9 0.19 3.7 0.53v15c0 1.2 0.1 2.4 0.38 3.6h3.5c0.05 0.24 0.05 0.53 0.05 0.82 0 0.86-0.38 2.4-0.82 3.2-1.8 0.62-5.7 0.96-8.3 0.96-0.67-1.2-1.2-2.6-1.4-4.2h-0.43c-1.3 2.4-3.5 4.4-7.3 4.4s-7.6-1.4-7.6-8.9c0-3 0.1-7.1 0.29-10h-3.6c0.05-1.3 0.58-3.4 1.2-4.4 1.2-0.58 3.4-0.96 5.5-0.96 1.2 0 2.9 0.19 3.7 0.53v14c0 3.1 0.86 4.8 3.8 4.8 1.5 0 3-1 4-2.3z"/>
<path class="cls-2" d="m14 173h-0.43c-1.3 2.2-3.5 3.5-7.1 3.5s-6.9-2.4-6.9-7.2c0-5.3 4.4-8 9.8-8 1.4 0 2.8 0.29 3.9 0.77v-1.8c0-2.5-1.4-3.6-4.2-3.6-2.2 0-6 1.1-7.8 2-0.1-0.38-0.19-1.2-0.19-1.7 0-1.6 0.43-3.5 0.96-4.5 1.8-0.67 5.7-1.2 8.6-1.2 6 0 9.4 2.3 9.4 8.4v8.1c0 1.5 0.29 2.8 0.67 3.6 0.91 0 2.3-0.19 3.1-0.38 0.05 0.34 0.05 0.58 0.05 0.77 0 1.1-0.34 2.3-0.82 3.2-1.3 0.77-4.2 1.4-6.8 1.4-1.1-0.53-1.9-1.9-2.3-3.5zm-0.53-3.1v-4.5c-0.86-0.19-2-0.29-2.6-0.29-2.8 0-4.3 1.3-4.3 3.4s1.4 3.1 3 3.1c1.9 0 3.2-0.86 3.9-1.7z"/>
<path class="cls-2" d="m250 87h0.72c0.53-2.5 2.8-5.4 6.2-5.4 0.86 0 1.9 0.19 2.4 0.48 0.62 0.86 0.96 2.5 0.96 4.2 0 0.82-0.1 1.6-0.29 2.3-1-0.58-2.7-0.82-3.6-0.82-2.1 0-4.1 1.2-5.3 3.2v10c1.4 0.14 3.6 0.58 4.7 1 0.29 0.77 0.43 2.8 0.29 3.7h-16c0.1-1.2 0.43-2.7 0.77-3.5 0.67-0.53 1.9-1 2.8-1.3v-14h-3.4c0-1.3 0.43-3.4 1.1-4.4 1.2-0.58 3-0.96 4.9-0.96 1.2 0 2.6 0.19 3.3 0.53v4.5z"/>
<path class="cls-2" d="m237 95h-14c0.38 3.7 2.7 5.8 6.5 5.8 2.2 0 5.8-0.62 7.5-1.2 0.14 1.3-0.43 3.5-1.2 4.7-1.8 0.96-4.8 1.8-8.2 1.8-7.6 0-12-5.1-12-12 0-7.6 4.8-13 12-13 6.5 0 9.2 4.4 9.2 11 0 0.82-0.1 1.8-0.19 2.7zm-14-4.4h7.8c0.29-2.5-0.53-5.4-3.4-5.4-2.4 0-4.2 2.3-4.4 5.4z"/>
<path class="cls-2" d="m207 82h6.4c0.24 0.96 0.43 3.4 0.24 4.8h-6.6v14c1.4 0.14 3.6 0.58 4.7 1 0.29 0.77 0.43 2.8 0.29 3.7h-15c0.1-1.2 0.43-2.7 0.77-3.5 0.67-0.53 1.9-1.1 2.8-1.3v-14h-3.7c0.1-1.2 0.48-3.4 0.96-4.4 0.67-0.43 2-0.91 2.8-1.1v-1.6c0-6.9 4.3-10 11-10 2.2 0 5.5 0.48 7.6 1.2 0.14 0.62 0.19 1.5 0.19 2.2 0 1.7-0.38 3.9-0.77 5.2-1.5-0.1-4.1-0.62-5.3-1.2v-2.9c-0.53-0.24-1.4-0.38-2.1-0.38-2.3 0-3.6 1.8-3.6 5.2v3z"/>
<path class="cls-2" d="m187 88v-2.2c-0.53-0.29-1.3-0.53-2.1-0.53-1.7 0-2.5 0.72-2.5 2.1 0 4.7 11 2.3 11 11 0 5.8-4.6 7.8-9.9 7.8-3.2 0-6.1-0.48-8.6-1.8-0.14-0.72-0.24-1.6-0.24-2.6 0-1.5 0.19-3.1 0.48-4.1 2 0 3.8 0.19 5.5 0.77v2.6c0.86 0.48 2.2 0.82 3.2 0.82 1.8 0 2.8-0.67 2.8-2.2 0-4.4-11-2-11-11 0-4.3 3.5-7.2 9.5-7.2 2.6 0 5.5 0.48 8.1 1.6 0.05 0.48 0.1 1.1 0.1 1.7 0 1.5-0.19 3.3-0.53 4.4-2 0-4.2-0.48-5.5-1.1z"/>
<path class="cls-2" d="m154 89v12c0.91 0.14 2.4 0.48 3.1 0.86 0.19 0.77 0.34 2.8 0.19 3.7h-14c0.1-1.2 0.43-2.7 0.77-3.5 0.67-0.53 1.9-1 2.8-1.3v-14h-3.5c0.05-1.3 0.58-3.4 1.2-4.4 1.2-0.58 3-0.96 4.9-0.96 1.2 0 2.6 0.19 3.3 0.53v3.8h0.72c1.3-2.6 3.7-4.7 7.8-4.7s7.9 1.2 7.9 8.8c0 3.5-0.14 7.5-0.38 11 1 0.14 2.5 0.53 3.4 0.91 0.14 0.58 0.24 1.7 0.24 2.6 0 0.38 0 0.72-0.05 1.1h-13c0.1-1.2 0.34-2.7 0.62-3.5 0.53-0.53 1.5-1 2.3-1.3v-9.3c0-2.8-0.96-4.8-3.7-4.8-1.9 0-3.5 1.2-4.6 2.6z"/>
<path class="cls-2" d="m131 103h-0.43c-1.3 2.2-3.5 3.5-7.1 3.5s-6.9-2.4-6.9-7.2c0-5.3 4.4-8 9.8-8 1.4 0 2.8 0.29 3.9 0.77v-1.8c0-2.5-1.4-3.6-4.2-3.6-2.2 0-6 1.1-7.8 2-0.1-0.38-0.19-1.2-0.19-1.7 0-1.6 0.43-3.5 0.96-4.5 1.8-0.67 5.7-1.2 8.6-1.2 6 0 9.4 2.3 9.4 8.4v8.1c0 1.5 0.29 2.8 0.67 3.6 0.91 0 2.3-0.19 3.1-0.38 0.05 0.34 0.05 0.58 0.05 0.77 0 1.1-0.34 2.3-0.82 3.2-1.3 0.77-4.2 1.4-6.8 1.4-1.1-0.53-1.9-1.9-2.3-3.5zm-0.53-3.1v-4.5c-0.86-0.19-2-0.29-2.6-0.29-2.8 0-4.3 1.3-4.3 3.4s1.4 3.1 3 3.1c1.9 0 3.2-0.86 3.9-1.7z"/>
<path class="cls-2" d="m106 87h0.72c0.53-2.5 2.8-5.4 6.2-5.4 0.86 0 1.9 0.19 2.4 0.48 0.62 0.86 0.96 2.5 0.96 4.2 0 0.82-0.1 1.6-0.29 2.3-1-0.58-2.7-0.82-3.6-0.82-2.1 0-4.1 1.2-5.3 3.2v10c1.4 0.14 3.6 0.58 4.7 1 0.29 0.77 0.43 2.8 0.29 3.7h-16c0.1-1.2 0.43-2.7 0.77-3.5 0.67-0.53 1.9-1 2.8-1.3v-14h-3.4c0-1.3 0.43-3.4 1.1-4.4 1.2-0.58 3-0.96 4.9-0.96 1.2 0 2.6 0.19 3.3 0.53v4.5z"/>
<path class="cls-2" d="m80 81 0.86-5.5c1.2-0.67 4-1.2 5.8-1.2v7.3h6.7c0.24 0.96 0.43 3.4 0.24 4.8h-6.9v11c0 2.6 1.1 3.5 3.1 3.5 1.2 0 3.2-0.29 4.4-0.62 0.05 0.24 0.05 0.48 0.05 0.58 0 1.1-0.48 2.9-1.2 3.9-1.8 1-4.8 1.5-6.5 1.5-4.6 0-6.9-2.3-6.9-7.9 0-3.1 0.14-7.8 0.48-12h-3.6c0-1.2 0.38-3.4 0.86-4.4 0.72-0.43 1.9-0.86 2.6-1.1z"/>
<path class="cls-2" d="m302 11 0.86-5.5c1.2-0.67 4-1.2 5.8-1.2v7.3h6.7c0.24 0.96 0.43 3.4 0.24 4.8h-6.9v11c0 2.6 1.1 3.5 3.1 3.5 1.2 0 3.2-0.29 4.4-0.62 0.05 0.24 0.05 0.48 0.05 0.58 0 1.1-0.48 2.9-1.2 3.9-1.8 1-4.8 1.5-6.5 1.5-4.6 0-6.9-2.3-6.9-7.9 0-3.1 0.14-7.8 0.48-12h-3.6c0-1.2 0.38-3.4 0.86-4.4 0.72-0.43 1.9-0.86 2.6-1.1z"/>
<path class="cls-2" d="m294 15c-1.4 0-3-0.24-4.3-0.53 0.19-4.1 0.34-9.9 0.34-14 2 0 4.5 0.34 6.1 0.77 0 3.5-1.2 10-2.2 14z"/>
<path class="cls-2" d="m268 19v12c0.91 0.14 2.4 0.48 3.1 0.86 0.19 0.77 0.34 2.8 0.19 3.7h-14c0.1-1.2 0.43-2.7 0.77-3.5 0.67-0.53 1.9-1 2.8-1.3v-14h-3.5c0.05-1.3 0.58-3.4 1.2-4.4 1.2-0.58 3-0.96 4.9-0.96 1.2 0 2.6 0.19 3.3 0.53v3.8h0.72c1.3-2.6 3.7-4.7 7.8-4.7s7.9 1.2 7.9 8.8c0 3.5-0.14 7.5-0.38 11 1 0.14 2.5 0.53 3.4 0.91 0.14 0.58 0.24 1.7 0.24 2.6 0 0.38 0 0.72-0.05 1.1h-13c0.1-1.2 0.34-2.7 0.62-3.5 0.53-0.53 1.5-1 2.3-1.3v-9.3c0-2.8-0.96-4.8-3.7-4.8-1.9 0-3.5 1.2-4.6 2.6z"/>
<path class="cls-2" d="m248 18v-2.2c-0.53-0.29-1.3-0.53-2.1-0.53-1.7 0-2.5 0.72-2.5 2.1 0 4.7 11 2.3 11 11 0 5.8-4.6 7.8-9.9 7.8-3.2 0-6.1-0.48-8.6-1.8-0.14-0.72-0.24-1.6-0.24-2.6 0-1.5 0.19-3.1 0.48-4.1 2 0 3.8 0.19 5.5 0.77v2.6c0.86 0.48 2.2 0.82 3.2 0.82 1.8 0 2.8-0.67 2.8-2.2 0-4.4-11-2-11-11 0-4.3 3.5-7.2 9.5-7.2 2.6 0 5.5 0.48 8.1 1.6 0.05 0.48 0.1 1.1 0.1 1.7 0 1.5-0.19 3.3-0.53 4.4-2 0-4.2-0.48-5.5-1.1z"/>
<path class="cls-2" d="m232 25h-14c0.38 3.7 2.7 5.8 6.5 5.8 2.2 0 5.8-0.62 7.5-1.2 0.14 1.3-0.43 3.5-1.2 4.7-1.8 0.96-4.8 1.8-8.2 1.8-7.6 0-12-5.1-12-12 0-7.6 4.8-13 12-13 6.5 0 9.2 4.4 9.2 11 0 0.82-0.1 1.8-0.19 2.7zm-14-4.4h7.8c0.29-2.5-0.53-5.4-3.4-5.4-2.4 0-4.2 2.3-4.4 5.4z"/>
<path class="cls-2" d="m196 11c7.2 0 12 4.3 12 12 0 8.3-4.8 13-12 13-7.7 0-12-4.4-12-13 0-7.5 5.2-12 12-12zm-4.9 12c0 5.1 1.9 8.4 4.9 8.4 3.3 0 4.8-3.2 4.8-8.4 0-4.4-1.9-7.7-4.8-7.7-3.2 0-4.9 3.1-4.9 7.7z"/>
<path class="cls-2" d="m170 12v-7h-3.4c0.05-1.3 0.58-3.4 1.2-4.4 1.2-0.58 3.4-0.96 5.4-0.96 1.2 0 2.9 0.19 3.7 0.53v27c0 1.3 0.19 2.9 0.48 3.9h3.4c0.05 0.24 0.05 0.53 0.05 0.82 0 0.86-0.38 2.4-0.82 3.2-2 0.62-5.7 0.96-8.1 0.96-0.62-1.1-1.1-2.4-1.3-3.8h-0.43c-1.1 1.9-3.2 4-7.2 4s-9.1-2.8-9.1-11 4.8-14 12-14c1.9 0 3.4 0.48 4.5 1.2zm0.14 17v-12c-0.82-0.43-1.9-0.67-2.9-0.67-4.2 0-6.1 3.1-6.1 7.9s2 7.4 4.8 7.4c1.9 0 3.4-1.2 4.2-2.2z"/>
<path class="cls-2" d="m127 11 0.86-5.5c1.2-0.67 4-1.2 5.8-1.2v7.3h6.7c0.24 0.96 0.43 3.4 0.24 4.8h-6.9v11c0 2.6 1.1 3.5 3.1 3.5 1.2 0 3.2-0.29 4.4-0.62 0.05 0.24 0.05 0.48 0.05 0.58 0 1.1-0.48 2.9-1.2 3.9-1.8 1-4.8 1.5-6.5 1.5-4.6 0-6.9-2.3-6.9-7.9 0-3.1 0.14-7.8 0.48-12h-3.6c0-1.2 0.38-3.4 0.86-4.4 0.72-0.43 1.9-0.86 2.6-1.1z"/>
<path class="cls-2" d="m115 18v-2.2c-0.53-0.29-1.3-0.53-2.1-0.53-1.7 0-2.5 0.72-2.5 2.1 0 4.7 11 2.3 11 11 0 5.8-4.6 7.8-9.9 7.8-3.2 0-6.1-0.48-8.6-1.8-0.14-0.72-0.24-1.6-0.24-2.6 0-1.5 0.19-3.1 0.48-4.1 2 0 3.8 0.19 5.5 0.77v2.6c0.86 0.48 2.2 0.82 3.2 0.82 1.8 0 2.8-0.67 2.8-2.2 0-4.4-11-2-11-11 0-4.3 3.5-7.2 9.5-7.2 2.6 0 5.5 0.48 8.1 1.6 0.05 0.48 0.1 1.1 0.1 1.7 0 1.5-0.19 3.3-0.53 4.4-2 0-4.2-0.48-5.5-1.1z"/>
<path class="cls-2" d="m89 29v-12h-3.4c0.05-1.3 0.58-3.3 1.2-4.4 1.2-0.58 3.4-0.96 5.5-0.96 1.2 0 2.9 0.19 3.7 0.53v15c0 1.2 0.1 2.4 0.38 3.6h3.5c0.05 0.24 0.05 0.53 0.05 0.82 0 0.86-0.38 2.4-0.82 3.2-1.8 0.62-5.7 0.96-8.3 0.96-0.67-1.2-1.2-2.6-1.4-4.2h-0.43c-1.3 2.4-3.5 4.4-7.3 4.4s-7.6-1.4-7.6-8.9c0-3 0.1-7.1 0.29-10h-3.6c0.05-1.3 0.58-3.4 1.2-4.4 1.2-0.58 3.4-0.96 5.5-0.96 1.2 0 2.9 0.19 3.7 0.53v14c0 3.1 0.86 4.8 3.8 4.8 1.5 0 3-1 4-2.3z"/>
<path class="cls-2" d="m60 17h0.72c0.53-2.5 2.8-5.4 6.2-5.4 0.86 0 1.9 0.19 2.4 0.48 0.62 0.86 0.96 2.5 0.96 4.2 0 0.82-0.1 1.6-0.29 2.3-1-0.58-2.7-0.82-3.6-0.82-2.1 0-4.1 1.2-5.3 3.2v10c1.4 0.14 3.6 0.58 4.7 1 0.29 0.77 0.43 2.8 0.29 3.7h-16c0.1-1.2 0.43-2.7 0.77-3.5 0.67-0.53 1.9-1 2.8-1.3v-14h-3.4c0-1.3 0.43-3.4 1.1-4.4 1.2-0.58 3-0.96 4.9-0.96 1.2 0 2.6 0.19 3.3 0.53v4.5z"/>
<path class="cls-2" d="m40 5.9v24c1.5 0.1 3.5 0.38 4.8 0.67 0.34 1.1 0.43 3.4 0.24 4.4h-18c0.1-1.2 0.72-3.3 1.2-4.3 0.91-0.29 2.9-0.67 4-0.82v-24h-5.3c-0.1 1-0.38 2.9-0.62 3.9-1.7 0.58-3.9 0.67-5.6 0.67v-9.1h30v9.2c-1.8 0-4-0.19-5.6-0.67-0.29-1.1-0.58-2.9-0.67-4h-5.3z"/>
</g>
</svg>
