<?xml version="1.0" encoding="UTF-8"?>
<svg id="Layer_2" viewBox="0 0 583 445" xmlns="http://www.w3.org/2000/svg">
<defs>
<style>.cls-1{isolation:isolate;opacity:.14}.cls-2{fill:#14202e}.cls-2, .cls-3, .cls-4, .cls-5, .cls-6, .cls-7{stroke:#fff;stroke-linecap:round;stroke-linejoin:round}.cls-8, .cls-3, .cls-4{fill:#14212f}.cls-9{fill:url(#linear-gradient)}.cls-3, .cls-7{stroke-dasharray:4.18 5.86}.cls-5, .cls-7{fill:none}.cls-6{fill:rgba(255, 255, 255, .2)}</style>
<linearGradient id="linear-gradient" x1="218" x2="364" y1="3366" y2="3445" gradientTransform="translate(.14 3591) scale(1 -1)" gradientUnits="userSpaceOnUse">
<stop stop-color="#00c4ff" offset="0"/>
<stop stop-color="#00bd9c" offset="1"/>
</linearGradient>
</defs>
<g id="Layer_1-2">
<ellipse class="cls-1" cx="485" cy="417" rx="98" ry="28"/>
<path class="cls-1" d="m272 390c5.1-3.7 7.8-7.6 7.8-12 0-20-63-36-140-36s-140 16-140 36c0 14 33 27 81 32 1.3 0.15 2.3 1.3 2.4 2.6 2.6 29 81 31 98 31 54 0 98-15 98-33 0-4.6-2.8-8.9-7.9-13-2.7-2.1-2.6-6.4 0.11-8.4z"/>
<path class="cls-4" d="m207 380c-1.2 0.54-2.6 0.82-3.9 0.82s-2.7-0.28-3.9-0.82l-46-18c-0.57-0.26-1.1-0.68-1.4-1.2-0.35-0.53-0.53-1.1-0.54-1.8v-59c0-0.69 0.21-1.4 0.62-1.9s0.98-0.97 1.6-1.2l47-19c1.9-0.58 3.9-0.58 5.8 0l47 19c0.66 0.21 1.2 0.62 1.6 1.2 0.41 0.56 0.63 1.2 0.62 1.9v59c0 0.63-0.19 1.2-0.54 1.8-0.35 0.53-0.83 0.95-1.4 1.2l-46 18z"/>
<path class="cls-5" d="m254 297c-0.26 0.25-0.57 0.45-0.91 0.58l-46 19c-1.2 0.51-2.6 0.78-3.9 0.78s-2.6-0.26-3.9-0.78l-46-19c-0.34-0.13-0.65-0.33-0.91-0.58"/>
<path class="cls-5" d="m203 381v-64"/>
<path class="cls-4" d="m80 390c-1.2 0.54-2.6 0.82-3.9 0.82s-2.7-0.28-3.9-0.82l-46-18c-0.57-0.26-1.1-0.68-1.4-1.2-0.34-0.53-0.53-1.1-0.54-1.8v-59c0-0.69 0.21-1.4 0.62-1.9s0.98-0.97 1.6-1.2l47-19c1.9-0.58 3.9-0.58 5.8 0l47 19c0.66 0.21 1.2 0.62 1.6 1.2 0.41 0.56 0.62 1.2 0.62 1.9v59c0 0.63-0.19 1.2-0.54 1.8-0.34 0.53-0.83 0.95-1.4 1.2l-46 18z"/>
<path class="cls-5" d="M126.79,307c-.26.25-.57.45-.91.58l-45.96,18.51c-1.23.51-2.55.78-3.88.78s-2.65-.26-3.88-.78l-45.96-18.51c-.34-.13-.65-.33-.91-.58"/>
<path class="cls-5" d="m76 391v-64"/>
<path class="cls-4" d="m162 425c-1.2 0.54-2.6 0.82-3.9 0.82s-2.7-0.28-3.9-0.82l-46-18c-0.57-0.26-1.1-0.68-1.4-1.2s-0.53-1.1-0.54-1.8v-59c0-0.69 0.21-1.4 0.62-1.9s0.98-0.97 1.6-1.2l47-19c1.9-0.58 3.9-0.58 5.8 0l47 19c0.66 0.21 1.2 0.62 1.6 1.2 0.41 0.56 0.63 1.2 0.62 1.9v59c0 0.63-0.19 1.2-0.54 1.8-0.34 0.53-0.83 0.95-1.4 1.2l-46 18z"/>
<path class="cls-5" d="m209 342c-0.26 0.25-0.57 0.45-0.91 0.58l-46 19c-1.2 0.51-2.6 0.78-3.9 0.78s-2.6-0.26-3.9-0.78l-46-19c-0.34-0.13-0.65-0.33-0.91-0.58"/>
<path class="cls-5" d="m158 426v-64"/>
<path class="cls-4" d="M159.74,160.33c-.6-.23-1.15-.59-1.60-1.04s-.81-1-1.04-1.60l-9.35-21.90c-.11-.28-.13-.59-.07-.89.06-.3.21-.57.42-.78l20.07-20.07c.23-.24.54-.39.87-.44.33-.5.67,0,.96.16l22.21,9.49c.84.45,1.54,1.14,1.98,1.98l9.49,22.21c.15.29.21.63.16.96-.5.33-.21.63-.44.87l-20.07,20.07c-.22.21-.49.36-.79.42-.3.06-.6.04-.89-.07l-21.90-9.35Z"/>
<path class="cls-5" d="m204 148c-0.18 0-0.35-0.04-0.51-0.11l-22-9.3c-0.59-0.24-1.1-0.6-1.6-1.1-0.45-0.45-0.81-0.99-1.1-1.6l-9.3-22c-0.07-0.16-0.11-0.33-0.11-0.51"/>
<path class="cls-5" d="m158 159 22-22"/>
<path class="cls-4" d="M127.27,75.97c-.14.45-.36.87-.67,1.23s-.69.65-1.11.85l-15.50,8.06c-.2.09-.43.13-.64.10-.22-.03-.43-.12-.6-.26l-15.80-13.56c-.19-.16-.32-.37-.37-.61-.06-.24-.03-.49.06-.71l5.70-16.77c.28-.64.75-1.19,1.34-1.56l15.71-8.17c.21-.13.45-.19.69-.17.24.2.47.12.66.28l15.80,13.56c.17.15.29.34.35.55.6.21.6.44,0,.65l-5.62,16.54Z"/>
<path class="cls-5" d="M115.86,44.40c0,.13-.1.26-.5.38l-5.60,16.55c-.15.45-.38.86-.68,1.22-.31.36-.68.65-1.10.86l-15.51,8.05c-.11.06-.24.10-.36.11"/>
<path class="cls-5" d="m127 77-17-15"/>
<path class="cls-4" d="M184.98,50.08c-.3-.03-.59-.13-.85-.28-.26-.15-.49-.36-.67-.6l-6.92-8.81c-.08-.12-.13-.25-.14-.4,0-.14.02-.28.10-.41l6.68-11.56c.08-.14.20-.24.34-.31.14-.6.30-.8.46-.05l11.24,1.61c.44.10.84.33,1.14.66l7.01,8.94c.11.12.17.26.19.42.2.16-.2.31-.1.45l-6.68,11.56c-.7.12-.18.22-.3.29s-.27.09-.41.08l-11.09-1.58Z"/>
<path class="cls-5" d="M203.53,39.15c-.8.02-.16.02-.24.01l-11.10-1.57c-.3-.04-.59-.14-.85-.29-.26-.15-.49-.35-.67-.59l-6.91-8.82c-.05-.06-.09-.14-.11-.22"/>
<path class="cls-5" d="m184 50 7.2-12"/>
<path class="cls-4" d="m232 305c-1.2 0.54-2.6 0.82-3.9 0.82s-2.7-0.28-3.9-0.82l-46-18c-0.57-0.26-1.1-0.68-1.4-1.2-0.34-0.53-0.53-1.1-0.54-1.8v-59c0-0.69 0.21-1.4 0.62-1.9s0.98-0.97 1.6-1.2l47-19c1.9-0.58 3.9-0.58 5.8 0l47 19c0.66 0.21 1.2 0.62 1.6 1.2s0.62 1.2 0.62 1.9v59c0 0.63-0.19 1.2-0.54 1.8s-0.83 0.95-1.4 1.2l-46 18z"/>
<path class="cls-5" d="m279 222c-0.26 0.25-0.57 0.45-0.91 0.58l-46 19c-1.2 0.51-2.6 0.78-3.9 0.78s-2.6-0.26-3.9-0.78l-46-19c-0.34-0.13-0.65-0.33-0.91-0.58"/>
<path class="cls-5" d="m228 305v-64"/>
<path class="cls-4" d="m486 432c-1.1 0.48-2.4 0.73-3.6 0.73s-2.4-0.25-3.6-0.73l-42-16c-0.53-0.23-0.98-0.6-1.3-1.1-0.32-0.47-0.49-1-0.49-1.6v-53c0-0.62 0.2-1.2 0.57-1.7 0.38-0.5 0.91-0.87 1.5-1l43-17c1.8-0.52 3.6-0.52 5.4 0l43 17c0.61 0.18 1.1 0.55 1.5 1s0.58 1.1 0.57 1.7v53c0 0.56-0.18 1.1-0.49 1.6-0.32 0.47-0.77 0.84-1.3 1.1l-42 16z"/>
<path class="cls-5" d="m529 358c-0.24 0.23-0.52 0.4-0.83 0.52l-42 17c-1.1 0.46-2.4 0.69-3.6 0.69s-2.4-0.24-3.6-0.69l-42-17c-0.31-0.12-0.6-0.29-0.83-0.52"/>
<path class="cls-5" d="m483 433v-57"/>
<path class="cls-4" d="m486 375c-1.1 0.48-2.4 0.74-3.6 0.74s-2.4-0.25-3.6-0.74l-42-16c-0.53-0.23-0.98-0.61-1.3-1.1s-0.49-1-0.49-1.6v-53c0-0.62 0.2-1.2 0.57-1.7 0.38-0.5 0.91-0.87 1.5-1l43-17c1.8-0.52 3.6-0.52 5.4 0l43 17c0.61 0.18 1.1 0.55 1.5 1s0.58 1.1 0.57 1.7v53c0 0.56-0.18 1.1-0.49 1.6-0.32 0.47-0.77 0.84-1.3 1.1l-42 16z"/>
<path class="cls-5" d="m529 301c-0.24 0.23-0.52 0.4-0.83 0.52l-42 17c-1.1 0.46-2.4 0.69-3.6 0.69s-2.4-0.24-3.6-0.69l-42-17c-0.31-0.12-0.6-0.3-0.83-0.52"/>
<path class="cls-5" d="m483 376v-57"/>
<path class="cls-4" d="m486 318c-1.1 0.48-2.4 0.73-3.6 0.73s-2.4-0.25-3.6-0.73l-42-16c-0.53-0.23-0.98-0.6-1.3-1.1-0.32-0.47-0.49-1-0.49-1.6v-53c0-0.62 0.2-1.2 0.57-1.7 0.38-0.5 0.91-0.87 1.5-1l43-17c1.8-0.52 3.6-0.52 5.4 0l43 17c0.61 0.19 1.1 0.56 1.5 1 0.38 0.5 0.58 1.1 0.57 1.7v53c0 0.56-0.18 1.1-0.49 1.6-0.32 0.47-0.77 0.84-1.3 1.1l-42 16z"/>
<path class="cls-5" d="m529 244c-0.24 0.23-0.52 0.4-0.83 0.52l-42 17c-1.1 0.46-2.4 0.69-3.6 0.69s-2.4-0.24-3.6-0.69l-42-17c-0.31-0.12-0.6-0.29-0.83-0.52"/>
<path class="cls-5" d="m483 319v-57"/>
<path class="cls-4" d="m486 262c-1.1 0.48-2.4 0.73-3.6 0.73s-2.4-0.25-3.6-0.73l-42-16c-0.53-0.23-0.98-0.61-1.3-1.1-0.32-0.47-0.49-1-0.49-1.6v-53c0-0.62 0.2-1.2 0.57-1.7 0.38-0.5 0.91-0.87 1.5-1l43-17c1.8-0.52 3.6-0.52 5.4 0l43 17c0.61 0.18 1.1 0.55 1.5 1s0.58 1.1 0.57 1.7v53c0 0.56-0.18 1.1-0.49 1.6-0.32 0.47-0.77 0.84-1.3 1.1l-42 16z"/>
<path class="cls-5" d="m529 188c-0.24 0.23-0.52 0.4-0.83 0.52l-42 17c-1.1 0.46-2.4 0.69-3.6 0.69s-2.4-0.24-3.6-0.69l-42-17c-0.31-0.12-0.6-0.29-0.83-0.52"/>
<path class="cls-5" d="m483 262v-57"/>
<path class="cls-4" d="m486 205c-1.1 0.48-2.4 0.73-3.6 0.73s-2.4-0.25-3.6-0.73l-42-16c-0.53-0.23-0.98-0.6-1.3-1.1-0.32-0.47-0.49-1-0.49-1.6v-53c0-0.62 0.2-1.2 0.57-1.7 0.38-0.5 0.91-0.87 1.5-1l43-17c1.8-0.52 3.6-0.52 5.4 0l43 17c0.61 0.19 1.1 0.55 1.5 1s0.58 1.1 0.57 1.7v53c0 0.56-0.18 1.1-0.49 1.6-0.32 0.47-0.77 0.84-1.3 1.1l-42 16z"/>
<path class="cls-5" d="m529 131c-0.24 0.22-0.52 0.4-0.83 0.52l-42 17c-1.1 0.46-2.4 0.69-3.6 0.69s-2.4-0.24-3.6-0.69l-42-17c-0.31-0.12-0.6-0.3-0.83-0.52"/>
<path class="cls-5" d="m483 206v-57"/>
<path class="cls-8" d="M502.61,85.82l5.91-22.73-10.26,9.81c-.13.12-.28.22-.45.28-.16.06-.34.09-.52.09s-.35-.05-.51-.12c-.16-.07-.31-.18-.43-.31l-13.73-14.99-13.72,14.97c-.12.13-.27.24-.43.31-.16.07-.34.11-.52.12-.18,0-.36-.03-.52-.09-.17-.07-.32-.16-.45-.29l-10.08-9.81,5.73,22.75"/>
<path class="cls-5" d="M502.61,85.82l5.91-22.73-10.26,9.81c-.13.12-.28.22-.45.28-.16.06-.34.09-.52.09s-.35-.05-.51-.12c-.16-.07-.31-.18-.43-.31l-13.73-14.99-13.72,14.97c-.12.13-.27.24-.43.31-.16.07-.34.11-.52.12-.18,0-.36-.03-.52-.09-.17-.07-.32-.16-.45-.29l-10.08-9.81,5.73,22.75"/>
<path class="cls-4" d="m477 53c0 1.4 0.56 2.8 1.6 3.8s2.4 1.6 3.8 1.6 2.8-0.56 3.8-1.6 1.6-2.4 1.6-3.8-0.56-2.8-1.6-3.8-2.4-1.6-3.8-1.6-2.8 0.56-3.8 1.6-1.6 2.4-1.6 3.8z"/>
<path class="cls-4" d="m452 59c0 1.1 0.42 2.1 1.2 2.8s1.8 1.2 2.8 1.2 2.1-0.42 2.8-1.2 1.2-1.8 1.2-2.8-0.42-2.1-1.2-2.8-1.8-1.2-2.8-1.2-2.1 0.42-2.8 1.2-1.2 1.8-1.2 2.8z"/>
<path class="cls-4" d="m505 59c0 1.1 0.42 2.1 1.2 2.8s1.8 1.2 2.8 1.2 2.1-0.42 2.8-1.2c0.75-0.75 1.2-1.8 1.2-2.8s-0.42-2.1-1.2-2.8-1.8-1.2-2.8-1.2-2.1 0.42-2.8 1.2-1.2 1.8-1.2 2.8z"/>
<path class="cls-4" d="m504 94h-43c-1.1 0-2.1-0.42-2.8-1.2s-1.2-1.8-1.2-2.8 0.42-2.1 1.2-2.8 1.8-1.2 2.8-1.2h43c1.1 0 2.1 0.42 2.8 1.2s1.2 1.8 1.2 2.8-0.42 2.1-1.2 2.8-1.8 1.2-2.8 1.2z"/>
<path class="cls-2" d="m461 108c-0.22 1.7-0.05 3.4 0.5 5s1.5 3.1 2.7 4.3 2.7 2.1 4.3 2.7 3.4 0.73 5 0.5c-8.1-0.03-12 4.3-13 13 0.24-1.7 0.08-3.4-0.46-5.1-0.55-1.6-1.5-3.1-2.7-4.3-1.2-1.2-2.7-2.1-4.3-2.7s-3.4-0.7-5.1-0.46c1.7 0.22 3.4 0.05 5-0.51 1.6-0.55 3.1-1.5 4.3-2.7s2.1-2.7 2.7-4.3 0.73-3.4 0.51-5z"/>
<path class="cls-6" d="m461 108c-0.22 1.7-0.05 3.4 0.5 5s1.5 3.1 2.7 4.3 2.7 2.1 4.3 2.7 3.4 0.73 5 0.5c-8.1-0.03-12 4.3-13 13 0.24-1.7 0.08-3.4-0.46-5.1-0.55-1.6-1.5-3.1-2.7-4.3-1.2-1.2-2.7-2.1-4.3-2.7s-3.4-0.7-5.1-0.46c1.7 0.22 3.4 0.05 5-0.51 1.6-0.55 3.1-1.5 4.3-2.7s2.1-2.7 2.7-4.3 0.73-3.4 0.51-5z"/>
<path class="cls-6" d="m436 34c-0.15 1.2-0.03 2.3 0.34 3.4s1 2.1 1.8 2.9c0.82 0.82 1.8 1.4 2.9 1.8 1.1 0.38 2.3 0.49 3.4 0.34-5.5-0.02-8.3 2.9-8.5 8.5 0.16-1.2 0.06-2.3-0.31-3.4s-0.99-2.1-1.8-3-1.8-1.4-3-1.8-2.3-0.48-3.4-0.31c1.2 0.15 2.3 0.03 3.4-0.34 1.1-0.38 2.1-1 2.9-1.8 0.83-0.82 1.4-1.8 1.8-2.9s0.49-2.3 0.34-3.4z"/>
<path class="cls-6" d="m529 0.5c-0.04 9.7 4.7 15 15 15-9.9-0.04-15 5.3-15 15-0.09-9.5-4.4-15-15-15 9.9-0.14 15-4.9 15-15z"/>
<path class="cls-3" d="M223.45,425.34c-.72.32-1.50.48-2.28.48s-1.56-.16-2.28-.48l-27.03-10.85c-.34-.15-.62-.4-.83-.71-.2-.31-.31-.67-.32-1.04v-34.72c0-.41.13-.8.37-1.13.24-.33.58-.57.97-.69l27.41-11c1.12-.34,2.31-.34,3.43,0l27.41,11c.39.12.73.37.97.69.24.33.37.73.37,1.13v34.72c0,.37-.11.73-.32,1.04-.2.31-.49.56-.83.71l-27.03,10.85Z"/>
<path class="cls-8" d="M251.01,376.61c-.15.15-.33.27-.53.34l-27.03,10.89c-.72.30-1.50.46-2.28.46s-1.56-.15-2.28-.46l-27.03-10.89c-.2-.08-.38-.19-.53-.34"/>
<path class="cls-7" d="M251.01,376.61c-.15.15-.33.27-.53.34l-27.03,10.89c-.72.30-1.50.46-2.28.46s-1.56-.15-2.28-.46l-27.03-10.89c-.2-.08-.38-.19-.53-.34"/>
<path class="cls-7" d="m221 426v-38"/>
<path class="cls-3" d="m71 308c-1.2 0.54-2.6 0.82-3.9 0.82s-2.7-0.28-3.9-0.82l-46-18c-0.57-0.26-1.1-0.68-1.4-1.2-0.34-0.53-0.53-1.1-0.54-1.8v-59c0-0.69 0.21-1.4 0.62-1.9s0.98-0.97 1.6-1.2l47-19c1.9-0.58 3.9-0.58 5.8 0l47 19c0.66 0.21 1.2 0.62 1.6 1.2s0.62 1.2 0.62 1.9v59c0 0.63-0.19 1.2-0.54 1.8-0.34 0.53-0.83 0.95-1.4 1.2l-46 18z"/>
<path class="cls-7" d="m118 225c-0.26 0.25-0.57 0.45-0.91 0.58l-46 19c-1.2 0.51-2.6 0.78-3.9 0.78s-2.6-0.26-3.9-0.78l-46-19c-0.34-0.13-0.65-0.33-0.91-0.58"/>
<path class="cls-4" d="m69 230c-0.77 0.34-1.6 0.52-2.4 0.52s-1.7-0.18-2.4-0.52l-29-12c-0.36-0.16-0.67-0.43-0.88-0.76-0.22-0.33-0.33-0.72-0.34-1.1v-37c0-0.43 0.13-0.86 0.39-1.2s0.62-0.61 1-0.74l29-12c1.2-0.37 2.5-0.37 3.7 0l29 12c0.42 0.13 0.78 0.39 1 0.74 0.26 0.35 0.39 0.78 0.39 1.2v37c0 0.4-0.12 0.78-0.34 1.1s-0.52 0.59-0.88 0.76l-29 12z"/>
<path class="cls-5" d="M98.73,177.50c-.16.16-.36.28-.57.37l-28.88,11.64c-.77.32-1.60.49-2.44.49s-1.67-.17-2.44-.49l-28.88-11.64c-.21-.08-.41-.21-.57-.37"/>
<path class="cls-5" d="m67 230v-40"/>
<path class="cls-8" d="m267 191c5.7 2.2 7 10 3.1 15-7.9 10-13 23-13 37-0.34 15-12 26-27 26h-0.7c-15-0.35-27-13-26-28l0.06-1.8c0.77-20 6.6-39 16-54 3.7-6.2 11-8.3 18-5.7l30 12z"/>
<path class="cls-9" d="m227 242c1.4-62 63-105 122-84l17 6-8.4-18c-0.7-1.5-0.07-3.2 1.4-4s3.2-0.07 4 1.4l11 24c0.7 1.5 0.07 3.2-1.4 4l-24 11c-1.5 0.7-3.2 0.07-4-1.4s-0.07-3.2 1.4-4l18-8.4-17-6c-55-20-113 20-114 79-0.04 1.6-1.4 2.9-3 2.9-1.6-0.04-2.9-1.4-2.9-3z"/>
</g>
</svg>
