<?xml version="1.0" encoding="UTF-8"?>
<svg id="Layer_2" viewBox="0 0 232 232" xmlns="http://www.w3.org/2000/svg">
<defs>
<style>.cls-1{fill:#1bbd9f}.cls-2{fill:#d3edf2}.cls-3, .cls-4{stroke:#1bbd9f;stroke-linecap:round;stroke-linejoin:round;stroke-width:2px}.cls-3, .cls-5{fill:#fff}.cls-4{fill:none}.cls-6{fill:#25344a}</style>
</defs>
<g id="Layer_1-2">
<rect class="cls-2" width="232" height="232" rx="32" ry="32"/>
<path class="cls-5" d="M147.18,108.18c1.26.66,2.66,1,4.08.96,1.42-.03,2.81-.44,4.03-1.17s2.23-1.76,2.93-3c.7-1.23,1.07-2.63,1.08-4.05v-14.44c0-7.87-7.67-14.8-19.26-18.89"/>
<path class="cls-4" d="M147.18,108.18c1.26.66,2.66,1,4.08.96,1.42-.03,2.81-.44,4.03-1.17s2.23-1.76,2.93-3c.7-1.23,1.07-2.63,1.08-4.05v-14.44c0-7.87-7.67-14.8-19.26-18.89"/>
<path class="cls-4" d="M83.71,87.51c-6.85-4.04-11.01-9.32-11.01-15.13v-18.56c0-2.19.87-4.29,2.42-5.83,1.55-1.55,3.64-2.42,5.83-2.42s4.28.87,5.83,2.42c1.55,1.54,2.42,3.64,2.42,5.83l20,1.12"/>
<path class="cls-3" d="M83.71,87.51c-6.85-4.04-11.01-9.32-11.01-15.13v-18.56c0-2.19.87-4.29,2.42-5.83,1.55-1.55,3.64-2.42,5.83-2.42s4.28.87,5.83,2.42c1.55,1.54,2.42,3.64,2.42,5.83l20,1.12"/>
<path class="cls-5" d="m93.73 65.82c-6.6 5.73-11.05 21.61-11.05 31.3 0 18.4 14.93 26.65 33.32 26.65s33.32-8.25 33.32-26.65c0-9.85-4.12-25.73-11.05-31.46"/>
<path class="cls-4" d="m93.73 65.82c-6.6 5.73-11.05 21.61-11.05 31.3 0 18.4 14.93 26.65 33.32 26.65s33.32-8.25 33.32-26.65c0-9.85-4.12-25.73-11.05-31.46"/>
<path class="cls-3" d="M138.68,43.51v-12.37c0-.37-.09-.72-.27-1.03-.18-.32-.45-.57-.76-.75-.32-.17-.67-.26-1.03-.26s-.71.09-1.03.26l-13.82,7.8c-1.73,0-3.67-.29-5.77-.29s-4.12,0-5.77.29c0,0-.58.49-13.78-7.59-.31-.19-.67-.3-1.03-.3s-.72.11-1.03.3c-.3.15-.55.37-.74.65-.19.27-.3.59-.34.92v12.37c-2.62,3.24-4.07,7.26-4.12,11.42.01,2.11.46,4.2,1.31,6.14.85,1.93,2.08,3.67,3.63,5.11,1.55,1.44,3.37,2.55,5.36,3.26,1.99.71,4.1,1.01,6.21.88h20.62c2.11.13,4.22-.17,6.21-.88,1.99-.71,3.81-1.82,5.36-3.26,1.54-1.44,2.78-3.18,3.63-5.11.85-1.94,1.29-4.03,1.3-6.14-.05-4.16-1.51-8.18-4.12-11.42Z"/>
<path class="cls-5" d="M123.34,49.61c.72-1.24,1.75-2.28,3-3,1.24-.73,2.66-1.11,4.1-1.12"/>
<path class="cls-4" d="M123.34,49.61c.72-1.24,1.75-2.28,3-3,1.24-.73,2.66-1.11,4.1-1.12"/>
<path class="cls-5" d="M108.66,49.61c-.72-1.24-1.75-2.28-3-3-1.24-.73-2.66-1.11-4.1-1.12"/>
<path class="cls-4" d="M108.66,49.61c-.72-1.24-1.75-2.28-3-3-1.24-.73-2.66-1.11-4.1-1.12"/>
<path class="cls-5" d="m111.88 88.46c-4.81-1.04-9.1-3.75-12.12-7.64s-4.57-8.72-4.38-13.64"/>
<path class="cls-4" d="m111.88 88.46c-4.81-1.04-9.1-3.75-12.12-7.64s-4.57-8.72-4.38-13.64"/>
<path class="cls-5" d="m136.62 67.22c0.17 4.91-1.39 9.73-4.4 13.61s-7.29 6.58-12.1 7.63"/>
<path class="cls-4" d="m136.62 67.22c0.17 4.91-1.39 9.73-4.4 13.61s-7.29 6.58-12.1 7.63"/>
<path class="cls-3" d="M109.81,93c0,.81.16,1.62.47,2.37.31.75.77,1.43,1.34,2,.58.58,1.26,1.03,2.01,1.34.75.32,1.56.48,2.37.48s1.62-.16,2.37-.48c.75-.31,1.43-.76,2.01-1.34.57-.57,1.03-1.25,1.34-2,.31-.75.47-1.56.47-2.37s-.16-1.62-.47-2.37c-.31-.75-.77-1.43-1.34-2.01-.57-.57-1.26-1.03-2.01-1.34-.75-.31-1.55-.47-2.37-.47s-1.62.16-2.37.47c-.75.31-1.43.77-2.01,1.34-.57.58-1.03,1.26-1.34,2.01-.31.75-.47,1.56-.47,2.37Z"/>
<path class="cls-4" d="m72.69 60.01h8.25"/>
<path class="cls-1" d="M64.15,150.84v.29c2.66.67,4.42,2.46,4.42,5.15,0,5.12-4.83,6.95-9.76,6.95-3.04,0-7.58-.16-10.34-.32.06-.8.35-2.24.64-2.88.48-.2,1.57-.39,2.14-.48v-15.88c-.67-.06-1.57-.19-2.11-.32-.13-.92-.19-1.98-.03-2.97,3.01-.23,6.11-.42,8.74-.42,5.38,0,9.54,1.86,9.54,6.05,0,2.21-1.25,4.16-3.23,4.83ZM56.18,152.76v7.27c.74.09,1.57.12,2.24.12,3.3,0,5.09-1.05,5.09-3.68s-2.21-3.71-5.15-3.71h-2.18ZM56.18,143.1v6.65h2.08c2.66,0,4.16-.89,4.16-3.42,0-2.24-1.89-3.36-4.93-3.36-.32,0-.99.06-1.31.13ZM82.19,158.46v-7.78h-2.24c.03-.89.38-2.21.77-2.94.83-.39,2.27-.64,3.65-.64.83,0,1.95.13,2.5.35v10.24c0,.8.06,1.63.26,2.37h2.3c.03.16.03.35.03.54,0,.58-.26,1.63-.54,2.15-1.18.41-3.81.64-5.5.64-.45-.8-.77-1.76-.93-2.79h-.29c-.86,1.63-2.34,2.95-4.9,2.95s-5.06-.93-5.06-5.96c0-2.01.06-4.7.19-6.91h-2.37c.03-.89.38-2.27.77-2.94.83-.39,2.27-.64,3.65-.64.83,0,1.95.13,2.5.35v9.34c0,2.08.58,3.17,2.53,3.17.99,0,1.98-.67,2.69-1.5ZM98.73,159.51h.38c.1-.92.42-2.27.64-2.97l.99-3.49c.22-.83.54-1.66.93-2.37-.42-.13-1.02-.35-1.34-.57-.29-.77-.38-1.83-.38-2.72h6.88c0,.89-.29,2.3-.54,2.97-.29.13-.93.29-1.25.32l-1.86,4.96c-.99,2.63-2.5,6.56-3.81,9.06-1.44,2.75-4.19,5.41-7.01,6.24-.74-.74-1.63-2.31-1.76-3.39,2.43-.64,4.67-2.24,5.76-4.04l-5.44-12.76c-.42-.13-1.02-.48-1.28-.71-.22-.7-.35-1.82-.38-2.65h8.42c0,.92-.22,2.08-.51,2.84-.38.2-1.28.42-1.79.52.48.64.96,1.47,1.25,2.17l1.38,3.62c.26.67.64,2.08.74,2.97ZM121.87,152.12v7.81c.61.1,1.6.32,2.08.58.13.51.22,1.85.13,2.49h-9.22c.06-.77.29-1.82.51-2.33.45-.36,1.25-.68,1.86-.9v-9.09h-2.3c.03-.89.38-2.27.77-2.94.77-.39,2.02-.64,3.26-.64.77,0,1.73.13,2.21.35v2.53h.48c.86-1.73,2.46-3.14,5.22-3.14s5.25.8,5.25,5.86c0,2.3-.1,4.99-.26,7.2.67.09,1.7.35,2.27.61.1.38.16,1.12.16,1.76,0,.25,0,.48-.03.73h-8.77c.06-.77.22-1.82.42-2.33.35-.36,1.02-.68,1.5-.9v-6.21c0-1.85-.64-3.17-2.5-3.17-1.25,0-2.34.8-3.04,1.73ZM144.03,146.84c4.8,0,8.03,2.88,8.03,8.1,0,5.5-3.17,8.61-8.03,8.61-5.15,0-8.06-2.95-8.06-8.61,0-5.03,3.46-8.1,8.06-8.1ZM140.73,154.94c0,3.39,1.25,5.6,3.3,5.6,2.21,0,3.23-2.15,3.23-5.6,0-2.95-1.25-5.12-3.23-5.12-2.14,0-3.3,2.05-3.3,5.12ZM160.75,159.58h.38c.1-1.15.35-2.66.58-3.62l1.98-8.54,5.12-.48,1.98,8.93c.22,1.05.48,2.72.54,3.74h.35c.1-.99.51-2.75.77-3.71l.77-2.75c.19-.77.61-1.99.9-2.5-.45-.13-1.06-.35-1.38-.58-.26-.67-.38-1.79-.38-2.68h6.88c0,.89-.29,2.24-.54,2.94-.32.13-.93.29-1.28.32l-3.78,12.35-5.15.48-1.95-8.16c-.26-1.09-.51-2.97-.54-4.06h-.38c-.03,1.12-.35,3.01-.61,4.06l-1.95,7.68-5.18.48-3.58-12.73c-.35-.13-.9-.48-1.12-.71-.22-.7-.32-1.82-.35-2.65h7.81c0,.92-.22,2.08-.51,2.84-.38.2-1.22.42-1.7.48.38.68.8,1.76.93,2.28l.77,2.94c.29,1.06.58,2.59.64,3.65ZM179.14,162.55l-1.92-.41c.26-.99.86-2.4,1.47-3.04.48-.13,1.22-.19,1.79-.19,1.06,0,2.43.22,3.39.54-.54,3.33-2.59,8.1-3.97,10.34-.83-.23-1.95-.8-2.37-1.19.67-1.89,1.34-4.29,1.6-6.05Z"/>
<path class="cls-6" d="M54.92,195.75v5.15c.86.09,2.34.38,3.04.64.13.45.19,1.41.13,1.95h-9.28c.06-.61.26-1.41.48-1.86.48-.28,1.34-.57,1.95-.76v-17.76h-2.34c.03-.71.32-1.73.67-2.28.74-.32,1.86-.54,2.94-.54.64,0,1.38.1,1.86.26v2.3h.38c.77-1.38,2.02-2.78,4.77-2.78s6.08,1.95,6.08,7.68c0,5.34-3.14,8.8-7.81,8.8-1.06,0-2.18-.29-2.88-.8ZM54.85,184.61v8.99c.67.26,1.47.45,2.3.45,3.23,0,4.61-2.3,4.61-5.79,0-3.68-1.44-5.51-3.55-5.51-1.66,0-2.78.96-3.36,1.86ZM77.45,194.18h-.22c-.86,1.5-2.43,2.37-4.58,2.37-2.34,0-4.58-1.44-4.58-4.52,0-3.42,2.85-5.15,6.24-5.15.96,0,2.02.19,2.78.55v-1.48c0-2.04-.99-3-2.91-3-1.44,0-3.78.73-4.93,1.44-.1-.26-.13-.74-.13-1.09,0-.83.19-1.76.48-2.24,1.12-.55,3.65-.99,5.47-.99,3.74,0,5.6,1.6,5.6,5.85v5.79c0,.84.16,1.64.42,2.02.54,0,1.57-.16,2.18-.32.03.16.03.32.03.42,0,.6-.19,1.28-.45,1.79-.77.45-2.56.93-3.97.93-.67-.39-1.25-1.35-1.44-2.37ZM77.16,192.48v-3.26c-.58-.16-1.47-.26-2.02-.26-2.18,0-3.39,1.03-3.39,2.56,0,1.63,1.15,2.34,2.46,2.34s2.37-.58,2.94-1.38ZM92.01,193.41h.29c.16-.83.51-2.24.77-3.07l1.31-4.35c.26-.87.67-2.02,1.06-2.76-.51-.09-1.25-.28-1.66-.48-.19-.6-.29-1.44-.29-2.14h6.46c0,.67-.22,1.79-.42,2.34-.35.12-1.02.25-1.41.28l-1.82,5.16c-.93,2.62-2.46,6.84-3.71,9.24-1.47,2.92-3.87,5.25-6.72,6.18-.61-.58-1.34-1.86-1.44-2.85,2.66-.73,4.77-2.43,5.76-4.38l-5.31-13.22c-.51-.13-1.12-.38-1.5-.61-.19-.57-.32-1.47-.35-2.14h7.81c0,.7-.16,1.63-.38,2.21-.48.19-1.44.38-2.08.45.45.67.93,1.66,1.22,2.46l1.7,4.64c.26.7.61,2.21.74,3.04ZM110.15,175.36h-2.27c.03-.73.32-1.73.67-2.3.77-.32,2.02-.55,3.23-.55.67,0,1.54.1,2.05.29v20.71c.74.06,1.82.28,2.46.51.1.41.13.83.13,1.25,0,.28-.03.54-.06.73h-8.64c.06-.61.26-1.41.48-1.85.48-.29,1.31-.58,1.95-.77v-18.02ZM127.61,194.18h-.22c-.86,1.5-2.43,2.37-4.58,2.37-2.34,0-4.58-1.44-4.58-4.52,0-3.42,2.85-5.15,6.24-5.15.96,0,2.02.19,2.78.55v-1.48c0-2.04-.99-3-2.91-3-1.44,0-3.78.73-4.93,1.44-.1-.26-.13-.74-.13-1.09,0-.83.19-1.76.48-2.24,1.12-.55,3.65-.99,5.47-.99,3.74,0,5.6,1.6,5.6,5.85v5.79c0,.84.16,1.64.42,2.02.54,0,1.57-.16,2.18-.32.03.16.03.32.03.42,0,.6-.19,1.28-.45,1.79-.77.45-2.56.93-3.97.93-.67-.39-1.25-1.35-1.44-2.37ZM127.32,192.48v-3.26c-.58-.16-1.47-.26-2.02-.26-2.18,0-3.39,1.03-3.39,2.56,0,1.63,1.15,2.34,2.46,2.34s2.37-.58,2.94-1.38ZM136.55,180.16l.54-3.55c.64-.35,2.05-.64,2.98-.64v4.64h4.54c.1.48.22,1.76.13,2.46h-4.67v8c0,1.92.51,2.66,2.05,2.66.86,0,2.05-.19,2.98-.42.03.16.03.42.03.48,0,.58-.19,1.28-.51,1.83-1.25.61-2.91.93-4.16.93-2.75,0-4.13-1.41-4.13-4.93,0-1.99.06-5.63.22-8.55h-2.3c0-.57.22-1.72.48-2.27.51-.25,1.25-.51,1.82-.64ZM160.14,188.96h-9.63c.16,2.98,2.05,4.74,4.83,4.74,1.41,0,3.55-.42,4.74-.87.06.68-.22,1.83-.61,2.44-1.15.64-3.1,1.28-5.25,1.28-4.8,0-7.55-3.43-7.55-7.94,0-4.86,3.07-8.54,7.78-8.54,4.1,0,5.79,2.84,5.79,7.16,0,.55-.03,1.16-.1,1.73ZM150.45,186.59h6.18c.19-1.95-.42-4.28-2.72-4.28-1.95,0-3.26,1.76-3.46,4.28ZM168.23,183.59h.42c.38-1.86,1.98-3.52,4.13-3.52.48,0,1.15.06,1.54.25.32.48.51,1.41.51,2.37,0,.42-.03.83-.13,1.15-.64-.35-1.6-.54-2.3-.54-1.44,0-2.82.8-3.62,2.4v7.71c.93.1,2.43.35,3.14.64.16.45.22,1.41.13,1.95h-9.38c.06-.61.26-1.41.48-1.85.48-.29,1.34-.58,1.95-.77v-10.27h-2.27c0-.71.26-1.7.64-2.28.74-.32,1.86-.54,2.94-.54.64,0,1.38.1,1.82.26v3.04ZM178.73,191.39c1.44,0,2.46.87,2.46,2.4,0,1.7-1.02,2.6-2.46,2.6-1.63,0-2.5-.87-2.5-2.6,0-1.44,1.02-2.4,2.5-2.4Z"/>
</g>
</svg>
