<svg width="32" height="32" viewBox="0 0 32 32" fill="none" xmlns="http://www.w3.org/2000/svg">
<path d="M4.02116 15.3607C3.89408 15.3607 3.7722 15.3102 3.68234 15.2203C3.59248 15.1305 3.54199 15.0086 3.54199 14.8815C3.54199 14.7544 3.59248 14.6326 3.68234 14.5427C3.7722 14.4528 3.89408 14.4023 4.02116 14.4023" stroke="white"/>
<path d="M4.02051 15.3607C4.14759 15.3607 4.26947 15.3102 4.35933 15.2203C4.44919 15.1305 4.49967 15.0086 4.49967 14.8815C4.49967 14.7544 4.44919 14.6326 4.35933 14.5427C4.26947 14.4528 4.14759 14.4023 4.02051 14.4023" stroke="white"/>
<path d="M8.81217 15.3607C8.68509 15.3607 8.56321 15.3102 8.47335 15.2203C8.38349 15.1305 8.33301 15.0086 8.33301 14.8815C8.33301 14.7544 8.38349 14.6326 8.47335 14.5427C8.56321 14.4528 8.68509 14.4023 8.81217 14.4023" stroke="white"/>
<path d="M8.8125 15.3607C8.93958 15.3607 9.06146 15.3102 9.15132 15.2203C9.24118 15.1305 9.29167 15.0086 9.29167 14.8815C9.29167 14.7544 9.24118 14.6326 9.15132 14.5427C9.06146 14.4528 8.93958 14.4023 8.8125 14.4023" stroke="white"/>
<path d="M8.81217 20.1536C8.68509 20.1536 8.56321 20.1032 8.47335 20.0133C8.38349 19.9234 8.33301 19.8016 8.33301 19.6745C8.33301 19.5474 8.38349 19.4255 8.47335 19.3357C8.56321 19.2458 8.68509 19.1953 8.81217 19.1953" stroke="white"/>
<path d="M8.8125 20.1536C8.93958 20.1536 9.06146 20.1032 9.15132 20.0133C9.24118 19.9234 9.29167 19.8016 9.29167 19.6745C9.29167 19.5474 9.24118 19.4255 9.15132 19.3357C9.06146 19.2458 8.93958 19.1953 8.8125 19.1953" stroke="white"/>
<path d="M13.6042 23.9857C13.4771 23.9857 13.3552 23.9352 13.2653 23.8453C13.1755 23.7555 13.125 23.6336 13.125 23.5065C13.125 23.3794 13.1755 23.2575 13.2653 23.1677C13.3552 23.0778 13.4771 23.0273 13.6042 23.0273" stroke="white"/>
<path d="M13.6045 23.9857C13.7316 23.9857 13.8535 23.9352 13.9433 23.8453C14.0332 23.7555 14.0837 23.6336 14.0837 23.5065C14.0837 23.3794 14.0332 23.2575 13.9433 23.1677C13.8535 23.0778 13.7316 23.0273 13.6045 23.0273" stroke="white"/>
<path d="M18.3962 23.9857C18.2691 23.9857 18.1472 23.9352 18.0573 23.8453C17.9675 23.7555 17.917 23.6336 17.917 23.5065C17.917 23.3794 17.9675 23.2575 18.0573 23.1677C18.1472 23.0778 18.2691 23.0273 18.3962 23.0273" stroke="white"/>
<path d="M18.3955 23.9857C18.5226 23.9857 18.6445 23.9352 18.7343 23.8453C18.8242 23.7555 18.8747 23.6336 18.8747 23.5065C18.8747 23.3794 18.8242 23.2575 18.7343 23.1677C18.6445 23.0778 18.5226 23.0273 18.3955 23.0273" stroke="white"/>
<path d="M15.9997 28.2982C15.8726 28.2982 15.7507 28.2477 15.6609 28.1578C15.571 28.068 15.5205 27.9461 15.5205 27.819C15.5205 27.6919 15.571 27.57 15.6609 27.4802C15.7507 27.3903 15.8726 27.3398 15.9997 27.3398" stroke="white"/>
<path d="M16 28.2982C16.1271 28.2982 16.249 28.2477 16.3388 28.1578C16.4287 28.068 16.4792 27.9461 16.4792 27.819C16.4792 27.6919 16.4287 27.57 16.3388 27.4802C16.249 27.3903 16.1271 27.3398 16 27.3398" stroke="white"/>
<path d="M13.6042 19.1947C13.4771 19.1947 13.3552 19.1442 13.2653 19.0543C13.1755 18.9645 13.125 18.8426 13.125 18.7155C13.125 18.5884 13.1755 18.4665 13.2653 18.3767C13.3552 18.2868 13.4771 18.2363 13.6042 18.2363" stroke="white"/>
<path d="M13.6045 19.1947C13.7316 19.1947 13.8535 19.1442 13.9433 19.0543C14.0332 18.9645 14.0837 18.8426 14.0837 18.7155C14.0837 18.5884 14.0332 18.4665 13.9433 18.3767C13.8535 18.2868 13.7316 18.2363 13.6045 18.2363" stroke="white"/>
<path d="M18.3962 19.1947C18.2691 19.1947 18.1472 19.1442 18.0573 19.0543C17.9675 18.9645 17.917 18.8426 17.917 18.7155C17.917 18.5884 17.9675 18.4665 18.0573 18.3767C18.1472 18.2868 18.2691 18.2363 18.3962 18.2363" stroke="white"/>
<path d="M18.3955 19.1947C18.5226 19.1947 18.6445 19.1442 18.7343 19.0543C18.8242 18.9645 18.8747 18.8426 18.8747 18.7155C18.8747 18.5884 18.8242 18.4665 18.7343 18.3767C18.6445 18.2868 18.5226 18.2363 18.3955 18.2363" stroke="white"/>
<path d="M23.1872 20.1536C23.0601 20.1536 22.9382 20.1032 22.8484 20.0133C22.7585 19.9234 22.708 19.8016 22.708 19.6745C22.708 19.5474 22.7585 19.4255 22.8484 19.3357C22.9382 19.2458 23.0601 19.1953 23.1872 19.1953" stroke="white"/>
<path d="M23.1875 20.1536C23.3146 20.1536 23.4365 20.1032 23.5263 20.0133C23.6162 19.9234 23.6667 19.8016 23.6667 19.6745C23.6667 19.5474 23.6162 19.4255 23.5263 19.3357C23.4365 19.2458 23.3146 19.1953 23.1875 19.1953" stroke="white"/>
<path d="M23.1872 15.3607C23.0601 15.3607 22.9382 15.3102 22.8484 15.2203C22.7585 15.1305 22.708 15.0086 22.708 14.8815C22.708 14.7544 22.7585 14.6326 22.8484 14.5427C22.9382 14.4528 23.0601 14.4023 23.1872 14.4023" stroke="white"/>
<path d="M23.1875 15.3607C23.3146 15.3607 23.4365 15.3102 23.5263 15.2203C23.6162 15.1305 23.6667 15.0086 23.6667 14.8815C23.6667 14.7544 23.6162 14.6326 23.5263 14.5427C23.4365 14.4528 23.3146 14.4023 23.1875 14.4023" stroke="white"/>
<path d="M27.9792 15.3607C27.8521 15.3607 27.7302 15.3102 27.6403 15.2203C27.5505 15.1305 27.5 15.0086 27.5 14.8815C27.5 14.7544 27.5505 14.6326 27.6403 14.5427C27.7302 14.4528 27.8521 14.4023 27.9792 14.4023" stroke="white"/>
<path d="M27.9795 15.3607C28.1066 15.3607 28.2285 15.3102 28.3183 15.2203C28.4082 15.1305 28.4587 15.0086 28.4587 14.8815C28.4587 14.7544 28.4082 14.6326 28.3183 14.5427C28.2285 14.4528 28.1066 14.4023 27.9795 14.4023" stroke="white"/>
<path d="M13.6042 14.4036C13.4771 14.4036 13.3552 14.3532 13.2653 14.2633C13.1755 14.1734 13.125 14.0516 13.125 13.9245C13.125 13.7974 13.1755 13.6755 13.2653 13.5857C13.3552 13.4958 13.4771 13.4453 13.6042 13.4453" stroke="white"/>
<path d="M13.6045 14.4036C13.7316 14.4036 13.8535 14.3532 13.9433 14.2633C14.0332 14.1734 14.0837 14.0516 14.0837 13.9245C14.0837 13.7974 14.0332 13.6755 13.9433 13.5857C13.8535 13.4958 13.7316 13.4453 13.6045 13.4453" stroke="white"/>
<path d="M18.3962 14.4036C18.2691 14.4036 18.1472 14.3532 18.0573 14.2633C17.9675 14.1734 17.917 14.0516 17.917 13.9245C17.917 13.7974 17.9675 13.6755 18.0573 13.5857C18.1472 13.4958 18.2691 13.4453 18.3962 13.4453" stroke="white"/>
<path d="M18.3965 14.4036C18.5236 14.4036 18.6454 14.3532 18.7353 14.2633C18.8252 14.1734 18.8757 14.0516 18.8757 13.9245C18.8757 13.7974 18.8252 13.6755 18.7353 13.5857C18.6454 13.4958 18.5236 13.4453 18.3965 13.4453" stroke="white"/>
<path d="M13.6042 9.61068C13.4771 9.61068 13.3552 9.56019 13.2653 9.47033C13.1755 9.38047 13.125 9.25859 13.125 9.13151C13.125 9.00443 13.1755 8.88255 13.2653 8.79269C13.3552 8.70283 13.4771 8.65234 13.6042 8.65234" stroke="white"/>
<path d="M13.6045 9.61068C13.7316 9.61068 13.8535 9.56019 13.9433 9.47033C14.0332 9.38047 14.0837 9.25859 14.0837 9.13151C14.0837 9.00443 14.0332 8.88255 13.9433 8.79269C13.8535 8.70283 13.7316 8.65234 13.6045 8.65234" stroke="white"/>
<path d="M18.3962 9.61068C18.2691 9.61068 18.1472 9.56019 18.0573 9.47033C17.9675 9.38047 17.917 9.25859 17.917 9.13151C17.917 9.00443 17.9675 8.88255 18.0573 8.79269C18.1472 8.70283 18.2691 8.65234 18.3962 8.65234" stroke="white"/>
<path d="M18.3965 9.61068C18.5236 9.61068 18.6454 9.56019 18.7353 9.47033C18.8252 9.38047 18.8757 9.25859 18.8757 9.13151C18.8757 9.00443 18.8252 8.88255 18.7353 8.79269C18.6454 8.70283 18.5236 8.65234 18.3965 8.65234" stroke="white"/>
<path d="M13.6042 4.81966C13.5412 4.81966 13.4789 4.80727 13.4208 4.78319C13.3627 4.75911 13.3098 4.72381 13.2653 4.67932C13.2209 4.63482 13.1856 4.582 13.1615 4.52386C13.1374 4.46573 13.125 4.40342 13.125 4.34049C13.125 4.27757 13.1374 4.21526 13.1615 4.15713C13.1856 4.09899 13.2209 4.04617 13.2653 4.00167C13.3098 3.95718 13.3627 3.92188 13.4208 3.8978C13.4789 3.87372 13.5412 3.86133 13.6042 3.86133" stroke="white"/>
<path d="M13.6045 4.81966C13.7316 4.81966 13.8535 4.76918 13.9433 4.67932C14.0332 4.58946 14.0837 4.46758 14.0837 4.34049C14.0837 4.21341 14.0332 4.09153 13.9433 4.00167C13.8535 3.91181 13.7316 3.86133 13.6045 3.86133" stroke="white"/>
<path d="M18.3962 4.81966C18.2691 4.81966 18.1472 4.76918 18.0573 4.67932C17.9675 4.58946 17.917 4.46758 17.917 4.34049C17.917 4.21341 17.9675 4.09153 18.0573 4.00167C18.1472 3.91181 18.2691 3.86133 18.3962 3.86133" stroke="white"/>
<path d="M18.3965 4.81966C18.5236 4.81966 18.6454 4.76918 18.7353 4.67932C18.8252 4.58946 18.8757 4.46758 18.8757 4.34049C18.8757 4.21341 18.8252 4.09153 18.7353 4.00167C18.6454 3.91181 18.5236 3.86133 18.3965 3.86133" stroke="white"/>
</svg>
