<svg width="32" height="32" viewBox="0 0 32 32" fill="none" xmlns="http://www.w3.org/2000/svg">
<g clip-path="url(#clip0_2080_3416)">
<path d="M1.625 26.5417V5.45833C1.625 5.45833 1.625 1.625 5.45833 1.625H26.5417C26.5417 1.625 30.375 1.625 30.375 5.45833V26.5417C30.375 26.5417 30.375 30.375 26.5417 30.375H5.45833C5.45833 30.375 1.625 30.375 1.625 26.5417Z" stroke="white" stroke-width="1.4" stroke-linecap="round" stroke-linejoin="round"/>
<path d="M13.125 8.33333V17.9167L9.01056 13.8022C8.87646 13.6683 8.70566 13.5771 8.51975 13.5403C8.33384 13.5034 8.14118 13.5225 7.96612 13.5951C7.79106 13.6677 7.64146 13.7906 7.53624 13.9483C7.43103 14.1059 7.37491 14.2912 7.375 14.4807V17.1232C7.37511 17.6311 7.57687 18.1183 7.93594 18.4776L15.3228 25.8644C15.4117 25.9535 15.5172 26.0241 15.6334 26.0723C15.7496 26.1204 15.8742 26.1452 16 26.1452C16.1258 26.1452 16.2504 26.1204 16.3666 26.0723C16.4828 26.0241 16.5883 25.9535 16.6772 25.8644L24.0641 18.4776C24.4231 18.1183 24.6249 17.6311 24.625 17.1232V14.4807C24.6251 14.2912 24.569 14.1059 24.4638 13.9483C24.3585 13.7906 24.2089 13.6677 24.0339 13.5951C23.8588 13.5225 23.6662 13.5034 23.4803 13.5403C23.2943 13.5771 23.1235 13.6683 22.9894 13.8022L18.875 17.9167V8.33333C18.875 8.07917 18.774 7.83541 18.5943 7.65569C18.4146 7.47597 18.1708 7.375 17.9167 7.375H14.0833C13.8292 7.375 13.5854 7.47597 13.4057 7.65569C13.226 7.83541 13.125 8.07917 13.125 8.33333Z" stroke="white" stroke-width="1.4" stroke-linecap="round" stroke-linejoin="round"/>
</g>
<defs>
<clipPath id="clip0_2080_3416">
<rect width="32" height="32" fill="white"/>
</clipPath>
</defs>
</svg>
