<svg width="373" height="429" viewBox="0 0 373 429" fill="none" xmlns="http://www.w3.org/2000/svg">
<g filter="url(#filter0_d_2196_24981)">
<g clip-path="url(#clip0_2196_24981)">
<path d="M9 14.6222C9 7.65118 14.6512 2 21.6222 2H351.378C358.349 2 364 7.65116 364 14.6222V400.211C364 407.182 358.349 412.833 351.378 412.833H21.6222C14.6512 412.833 9 407.182 9 400.211V14.6222Z" fill="white"/>
<mask id="path-2-inside-1_2196_24981" fill="white">
<path d="M9 2H364V51.7H9V2Z"/>
</mask>
<path d="M9 2H364V51.7H9V2Z" fill="white"/>
<path d="M364 51.7V50.9111H9V51.7V52.4889H364V51.7Z" fill="#E3E5E5" mask="url(#path-2-inside-1_2196_24981)"/>
<path d="M98.4912 21.6406C99.2115 21.6406 99.8761 21.7619 100.484 22.0039C101.091 22.2457 101.617 22.5919 102.061 23.0439C102.503 23.4955 102.848 24.0425 103.096 24.6846C103.342 25.3272 103.467 26.0449 103.467 26.8359C103.467 27.6274 103.342 28.3442 103.096 28.9873C102.848 29.6291 102.503 30.1769 102.061 30.6279C101.617 31.0796 101.091 31.4275 100.484 31.6689C99.876 31.9112 99.2116 32.0322 98.4912 32.0322C97.7703 32.0322 97.1061 31.9111 96.499 31.6689C95.8904 31.4275 95.3653 31.0798 94.9229 30.6279C94.4799 30.1769 94.1334 29.6291 93.8867 28.9873C93.6401 28.3443 93.5166 27.6274 93.5166 26.8359C93.5167 26.0449 93.64 25.3272 93.8867 24.6846C94.1335 24.0424 94.4796 23.4957 94.9229 23.0439C95.3655 22.592 95.8904 22.2457 96.499 22.0039C97.1062 21.7617 97.7703 21.6407 98.4912 21.6406ZM57.3027 27.8242C57.3028 28.1313 57.3485 28.4161 57.4395 28.6758C57.5305 28.9362 57.6579 29.1632 57.8232 29.3535C57.9883 29.5442 58.1862 29.6937 58.416 29.8008C58.6459 29.9074 58.8963 29.9609 59.165 29.9609C59.4339 29.9609 59.6819 29.9075 59.9072 29.8008C60.1332 29.6937 60.3289 29.5442 60.4932 29.3535C60.6585 29.1632 60.787 28.9364 60.8779 28.6758C60.9689 28.416 61.0146 28.1314 61.0146 27.8242V21.832H63.0469V27.9082C63.047 28.4945 62.9645 29.0349 62.7988 29.5283C62.6338 30.0213 62.3885 30.4507 62.0635 30.8135C61.7384 31.1762 61.3318 31.4608 60.8457 31.665C60.3591 31.8697 59.7987 31.9727 59.165 31.9727C58.5231 31.9726 57.9581 31.8698 57.4717 31.665C56.9864 31.4608 56.5801 31.1762 56.2539 30.8135C55.9289 30.4505 55.684 30.0213 55.5186 29.5283C55.3532 29.0349 55.2715 28.4943 55.2715 27.9082V21.832H57.3027V27.8242ZM71.6025 28.7041H71.6289V21.832H73.6611V31.7217H71.0039L66.9795 24.6816H66.9541V31.7217H64.9219V21.832H67.6836L71.6025 28.7041ZM78.6924 21.832C79.4297 21.8321 80.1316 21.9214 80.7959 22.0977C81.4592 22.2751 82.0393 22.5613 82.5342 22.957C83.0291 23.3525 83.4222 23.8673 83.7129 24.5C84.0038 25.1336 84.1494 25.9022 84.1494 26.8047C84.1493 27.6057 84.0085 28.3113 83.7256 28.9209C83.444 29.5309 83.0637 30.0436 82.5859 30.458C82.1089 30.8717 81.5567 31.1864 80.9326 31.4004C80.3075 31.6148 79.6507 31.7217 78.9648 31.7217H75.6445V21.832H78.6924ZM107.869 25.2959L109.757 21.832H112.218L109.235 26.5117L112.57 31.7217H110.018L107.765 27.7402L105.576 31.7217H103.167L106.396 26.5537L103.35 21.832H105.901L107.869 25.2959ZM53.9521 23.8438H49.7969V25.8545H53.6396V27.8662H49.7969V31.7207H47.7656V21.832H53.9521V23.8438ZM88.9121 21.832C89.3104 21.832 89.7127 21.8629 90.1162 21.9229C90.5199 21.9838 90.8831 22.1044 91.2041 22.2861C91.525 22.4672 91.7861 22.7223 91.9863 23.0479C92.1853 23.3737 92.2851 23.8072 92.2852 24.3467C92.2851 24.9048 92.1399 25.3689 91.8496 25.7363C91.5582 26.1045 91.174 26.3667 90.6963 26.5254V26.5537C91.0001 26.6005 91.2763 26.6906 91.5244 26.8252C91.7712 26.9606 91.9843 27.1332 92.1621 27.3418C92.3388 27.5517 92.476 27.7969 92.5723 28.0762C92.6677 28.3547 92.7148 28.6536 92.7148 28.9697C92.7148 29.4904 92.6118 29.9264 92.4033 30.2754C92.1943 30.6244 91.9241 30.9065 91.5947 31.1201C91.265 31.3344 90.8932 31.4883 90.4814 31.5811C90.069 31.6741 89.6588 31.7207 89.251 31.7207H85.4736V21.832H88.9121ZM98.4912 23.6523C98.0568 23.6524 97.6642 23.7314 97.3125 23.8896C96.9609 24.0475 96.659 24.269 96.4082 24.5527C96.156 24.8366 95.9629 25.1749 95.8281 25.5654C95.6936 25.9563 95.6261 26.3803 95.626 26.8359C95.626 27.3018 95.6939 27.7277 95.8281 28.1143C95.9628 28.5005 96.156 28.8369 96.4082 29.1201C96.6589 29.4042 96.9611 29.6256 97.3125 29.7842C97.6642 29.942 98.0568 30.0204 98.4912 30.0205C98.9243 30.0205 99.3181 29.942 99.6699 29.7842C100.022 29.6256 100.323 29.4045 100.575 29.1201C100.826 28.8367 101.021 28.5003 101.155 28.1143C101.29 27.7277 101.356 27.3017 101.356 26.8359C101.356 26.3803 101.29 25.9563 101.155 25.5654C101.021 25.1748 100.826 24.8367 100.575 24.5527C100.323 24.2689 100.022 24.0475 99.6699 23.8896C99.3181 23.7314 98.9243 23.6523 98.4912 23.6523ZM87.5059 29.8779H89.3291C89.4846 29.8779 89.6438 29.8592 89.8037 29.8223C89.9648 29.7849 90.1098 29.7192 90.2402 29.626C90.3703 29.5329 90.4769 29.4114 90.5596 29.2627C90.642 29.114 90.6835 28.9318 90.6836 28.7178C90.6835 28.4861 90.6291 28.2963 90.5205 28.1523C90.4121 28.0081 90.2746 27.8995 90.1094 27.8242C89.9451 27.7498 89.7669 27.6987 89.5752 27.6709C89.3849 27.6431 89.2069 27.6289 89.043 27.6289H87.5059V29.8779ZM77.6768 29.71H78.7314C79.1995 29.71 79.6362 29.6578 80.04 29.5557C80.4438 29.4535 80.7944 29.2827 81.0889 29.0459C81.3841 28.8088 81.6167 28.4967 81.7861 28.1104C81.9545 27.7241 82.039 27.2507 82.0391 26.6924C82.039 26.2087 81.9544 25.7866 81.7861 25.4287C81.6167 25.0705 81.388 24.7747 81.1016 24.542C80.815 24.3097 80.4787 24.1339 80.0918 24.0176C79.7052 23.9017 79.2985 23.8428 78.874 23.8428H77.6768V29.71ZM87.5059 25.7842H88.9766C89.1336 25.7842 89.2879 25.7669 89.4395 25.7295C89.592 25.6925 89.7288 25.6309 89.8506 25.5469C89.971 25.4634 90.069 25.3517 90.1436 25.2129C90.2163 25.0732 90.2528 24.905 90.2529 24.71C90.2529 24.5058 90.2116 24.3351 90.1299 24.2002C90.0477 24.0659 89.9416 23.9602 89.8115 23.8857C89.6814 23.8113 89.5326 23.7576 89.3682 23.7246C89.2031 23.6921 89.0428 23.6758 88.8857 23.6758H87.5059V25.7842Z" fill="#2C3E50"/>
<path fill-rule="evenodd" clip-rule="evenodd" d="M21.6221 21.6V32.0955C21.6221 32.7402 21.9543 33.3356 22.4943 33.6581V33.6581L31.2874 38.9057C31.5571 39.0665 31.8581 39.1476 32.1601 39.1476V39.1476C32.4611 39.1476 32.7626 39.0665 33.0328 38.9057V38.9057L41.8259 33.6581C42.0883 33.5012 42.2993 33.2783 42.4495 33.0179V33.0179L40.5645 30.2109L37.6928 30.1595V30.1843L32.1606 33.5208L26.6277 30.1843V23.512L26.6292 23.5109L24.8361 20.8646L21.8845 20.6602C21.7189 20.9391 21.6221 21.2613 21.6221 21.6V21.6Z" fill="#00BD9C"/>
<path fill-rule="evenodd" clip-rule="evenodd" d="M31.2908 14.7922L22.4975 20.0398C22.2416 20.1921 22.0369 20.4094 21.8877 20.6607V20.6607L26.6321 23.5123L32.163 20.1774L37.6957 23.5133V30.1603L42.4528 33.019C42.6113 32.7438 42.7013 32.4274 42.7013 32.0961V32.0961V21.6009C42.7013 20.9574 42.3691 20.3618 41.8289 20.0393V20.0393L33.0357 14.7922C32.7658 14.6311 32.4645 14.5508 32.1633 14.5508V14.5508C31.8621 14.5508 31.5608 14.6311 31.2908 14.7922V14.7922Z" fill="#47BDA6"/>
<path fill-rule="evenodd" clip-rule="evenodd" d="M115.33 32.0032V21.6406H118.911C120.767 21.6406 122.108 22.8493 122.108 24.7656C122.108 26.6966 120.767 27.9348 118.911 27.9348H116.347V32.0032H115.33ZM116.347 27.0211H118.778C120.163 27.0211 121.062 26.1809 121.062 24.7658C121.062 23.3654 120.163 22.5547 118.793 22.5547H116.347V27.0211ZM130.448 32.0032L129.255 28.7013H125.085L123.906 32.0032H122.83L126.632 21.6406H127.722L131.524 32.0032H130.448ZM127.192 22.7165H127.162C127.162 22.7165 126.941 23.5714 126.764 24.0579L125.379 27.8167H128.945L127.589 24.0579C127.413 23.5714 127.192 22.7165 127.192 22.7165ZM135.428 32.0032H136.46V27.5516L139.937 21.6406H138.788L136.592 25.3995C136.268 25.9449 135.959 26.6377 135.959 26.6377H135.929C135.929 26.6377 135.605 25.9301 135.296 25.3995L133.1 21.6406H131.936L135.428 27.5516V32.0032Z" fill="#2C3E50"/>
<path d="M310.687 30.3516V22.5542H311.781V29.4017H315.271V30.3516H310.687ZM315.903 27.5463C315.903 25.8565 317.251 24.6305 318.919 24.6305C320.586 24.6305 321.934 25.8565 321.934 27.5463C321.934 29.2471 320.586 30.4841 318.919 30.4841C317.251 30.4841 315.903 29.2471 315.903 27.5463ZM316.997 27.5463C316.997 28.717 317.869 29.5564 318.919 29.5564C319.979 29.5564 320.84 28.717 320.84 27.5463C320.84 26.3866 319.979 25.5583 318.919 25.5583C317.869 25.5583 316.997 26.3866 316.997 27.5463ZM323.701 31.3677C323.701 31.3677 324.397 31.7432 325.236 31.7432C326.208 31.7432 327.003 31.3124 327.003 30.1749V29.7662C327.003 29.5895 327.014 29.4128 327.014 29.4128H326.992C326.661 29.965 326.142 30.2853 325.336 30.2853C323.778 30.2853 322.84 29.0373 322.84 27.4248C322.84 25.8233 323.734 24.6305 325.28 24.6305C326.628 24.6305 327.036 25.4589 327.036 25.4589H327.059C327.059 25.4589 327.048 25.3816 327.048 25.2822V24.7631H328.075V30.1196C328.075 31.9641 326.672 32.6709 325.258 32.6709C324.585 32.6709 323.889 32.4831 323.348 32.207L323.701 31.3677ZM325.545 29.3576C326.319 29.3576 327.025 28.8937 327.025 27.4358C327.025 25.978 326.319 25.5583 325.446 25.5583C324.474 25.5583 323.922 26.2651 323.922 27.4027C323.922 28.5624 324.54 29.3576 325.545 29.3576ZM332.278 26.3977C332.278 24.1556 334.034 22.4217 336.287 22.4217C338.54 22.4217 340.286 24.1556 340.286 26.3977C340.286 28.6949 338.54 30.4841 336.287 30.4841C334.034 30.4841 332.278 28.6949 332.278 26.3977ZM333.405 26.3977C333.405 28.1537 334.697 29.4791 336.287 29.4791C337.878 29.4791 339.159 28.1537 339.159 26.3977C339.159 24.6968 337.878 23.4157 336.287 23.4157C334.697 23.4157 333.405 24.6968 333.405 26.3977ZM341.581 28.3415V24.7631H342.652V28.0985C342.652 28.8716 342.807 29.4901 343.701 29.4901C344.839 29.4901 345.513 28.4851 345.513 27.3806V24.7631H346.584V30.3516H345.546V29.6116C345.546 29.3797 345.568 29.2029 345.568 29.2029H345.546C345.314 29.7552 344.585 30.4841 343.492 30.4841C342.233 30.4841 341.581 29.8214 341.581 28.3415ZM348.491 28.3083V25.7019H347.762V24.8404H348.524V23.2279H349.562V24.8404H350.91V25.7019H349.562V28.1869C349.562 29.3023 350.346 29.4459 350.755 29.4459C350.91 29.4459 351.009 29.4238 351.009 29.4238V30.3737C351.009 30.3737 350.854 30.3957 350.634 30.3957C349.916 30.3957 348.491 30.1749 348.491 28.3083Z" fill="#00BD9C"/>
<path d="M309.627 31.456H351.374V32.0082H309.627V31.456Z" fill="#00BD9C"/>
<path d="M194.7 95.2969C199.177 95.2969 201.225 99.6025 201.225 105.896H192.782C193.038 107.716 193.677 108.545 194.828 108.545C196.106 108.545 196.875 107.884 197.002 107.055H201.225C200.073 110.698 198.537 112.934 194.956 112.935C190.607 112.935 187.92 109.455 187.92 104.239C187.92 98.7744 190.607 95.2969 194.7 95.2969ZM77.4043 95.6104C82.393 95.6104 83.6718 98.2597 83.6719 103.559V112.005H79.4502L78.6836 111.012C77.9163 112.005 76.5085 112.832 74.5898 112.832C72.032 112.832 70.4972 111.011 70.4971 108.029C70.4976 101.076 78.5544 103.889 78.5557 101.075C78.5555 100.247 78.0445 99.584 77.4043 99.584C75.9979 99.5841 75.3578 100.744 75.3574 101.737H71.2637C71.264 97.9287 73.1834 95.6104 77.4043 95.6104ZM226.094 95.6104C230.315 95.6104 231.723 97.9285 231.979 102.068H228.141C227.373 100.247 227.246 100.083 226.094 100.083C224.305 100.083 223.919 101.738 223.919 104.387C223.919 106.54 224.56 108.197 226.352 108.197C227.629 108.197 228.013 107.698 228.141 105.546H232.49L232.362 106.706C232.108 110.68 229.549 112.832 226.223 112.832C221.873 112.832 219.698 109.354 219.698 103.724C219.698 98.5918 222.129 95.6105 226.094 95.6104ZM125.087 95.2969C129.563 95.2969 131.994 98.6095 131.994 104.57C131.994 109.374 129.947 112.686 125.47 112.686C121.122 112.685 118.436 109.374 118.436 104.239C118.436 99.1065 121.122 95.2971 125.087 95.2969ZM240.431 95.6279C245.418 95.6279 246.569 98.442 246.569 103.576V112.021H242.35L241.581 111.027C240.941 112.021 239.534 112.685 237.744 112.685C235.186 112.684 233.65 111.027 233.65 108.047C233.651 101.092 241.453 103.907 241.453 101.092C241.453 100.264 240.941 99.6016 240.302 99.6016C238.768 99.6018 238.256 100.762 238.256 101.754H234.162C234.162 97.7788 236.337 95.628 240.431 95.6279ZM63.5615 89.7109C67.143 89.7109 68.9334 91.8638 68.9336 95.6719C68.9335 98.1567 68.2949 98.9851 67.2715 100.144L67.7822 100.641C69.1889 102.131 69.829 103.788 69.8291 105.774C69.829 110.742 67.1433 112.067 62.4102 112.067H53.9668V89.7109H63.5615ZM142.376 94.1807H140.841C140.329 94.1807 140.074 94.3483 140.074 96.0039H142.12V99.9775H140.074V112.066H135.212V99.9775H133.55V96.0039H135.468V93.8496C135.468 90.3735 136.875 89.8751 139.05 89.875H142.376V94.1807ZM164.503 112.066H159.131L158.364 108.92H152.735L151.967 112.066H146.595L152.735 89.5469H157.979L164.503 112.066ZM105.33 100.309L108.271 96.002H113.9L109.424 102.46L114.284 112.065H108.783L105.33 105.275V112.065H100.469V90.04H105.33V100.309ZM94.1729 95.3135C97.4994 95.3135 99.035 98.1291 99.0352 102.932V112.04H94.1729V103.758C94.1727 101.771 93.6619 100.447 92.2549 100.447C90.9767 100.448 90.2081 101.772 90.208 104.754V112.04H85.3477V95.9766H89.9521L90.4639 97.4648L90.7197 97.1357C91.7428 95.8111 92.7659 95.3136 94.1729 95.3135ZM173.912 95.4785C175.829 95.4785 176.726 96.4719 177.621 97.9619L177.876 97.6309C178.773 96.3068 179.923 95.6438 181.587 95.6436C185.04 95.6436 186.447 97.7972 186.447 101.937V112.038H181.587V103.262C181.587 101.605 181.074 100.611 180.051 100.611C178.901 100.612 178.516 101.771 178.516 104.751V112.038H173.655V103.593C173.655 101.771 173.271 100.611 172.12 100.611C170.97 100.612 170.585 101.771 170.585 104.751V112.038H165.725V95.9756H169.562L170.329 97.4648C171.096 96.1399 172.248 95.4786 173.912 95.4785ZM211.966 100.775H211.453C208.64 101.107 207.743 102.266 207.743 106.406V112.036H202.883V95.9727H206.849L207.616 97.7959C209.023 95.8077 210.303 95.8076 211.966 95.8076V100.775ZM218.187 112.035H213.325V95.9727H218.187V112.035ZM78.5508 105.198C76.3766 105.531 75.6086 106.69 75.6084 107.683C75.6086 108.345 75.9928 109.007 76.7607 109.007C77.5271 109.006 78.5503 108.014 78.5508 107.021V105.198ZM241.452 105.198C239.278 105.531 238.511 106.689 238.511 107.682C238.511 108.344 238.893 109.006 239.662 109.006C240.43 109.006 241.452 108.013 241.452 107.02V105.198ZM125.344 99.917C123.764 99.9171 123.297 101.794 123.297 104.015C123.297 105.486 123.318 108.364 125.344 108.364C126.573 108.364 127.289 107.208 127.263 103.841C127.242 101.191 126.742 99.9171 125.344 99.917ZM59.7178 106.707H63.0449C64.3237 106.707 64.708 106.542 64.708 105.051C64.7078 103.727 64.1954 103.23 63.1729 103.229H59.7178V106.707ZM153.867 104.123H157.064L155.401 98.3262L153.867 104.123ZM194.693 99.8086C193.543 99.8086 192.903 100.637 192.646 102.127H196.613C196.485 100.802 195.844 99.8088 194.693 99.8086ZM59.7148 98.374H62.4014C63.5523 98.374 63.9365 98.3728 63.9365 97.0469C63.9364 95.7233 63.6805 95.2266 62.5293 95.2266H59.7148V98.374ZM218.187 89.6387V94.2764H213.325V89.6387H218.187Z" fill="#1A4F90"/>
<path fill-rule="evenodd" clip-rule="evenodd" d="M278.061 91.0668C275.665 92.117 265.213 96.9457 261.308 99.31C259.621 98.6334 258.19 98.1389 256.231 97.3806C264.347 92.4762 273.17 89.6923 273.323 89.4883C274.976 89.9378 276.382 90.6441 278.061 91.0668" fill="#1A4F90"/>
<path fill-rule="evenodd" clip-rule="evenodd" d="M285.899 94.4501C283.504 95.4999 272.979 100.76 269.074 103.124C267.253 102.18 265.475 101.236 263.659 100.478C271.775 95.5734 280.196 92.3166 280.348 92.1133C281.91 92.7421 284.252 93.8205 285.899 94.4501" fill="#1A4F90"/>
<path fill-rule="evenodd" clip-rule="evenodd" d="M311.223 92.6106C308.828 93.6604 292.33 99.1927 276.706 109.958C274.728 108.702 271.536 106.79 269.586 106.133C277.702 101.228 288.456 93.8359 304.847 89.4766C307.318 90.6 309.012 91.5769 311.223 92.6106" fill="#C0242B"/>
<path fill-rule="evenodd" clip-rule="evenodd" d="M318.943 97.105C316.547 98.1548 296.524 108.071 286.81 116.835C285.032 115.756 281.173 112.745 279.372 111.748C287.157 106.543 297.044 98.9929 313.262 93.9141C315.734 95.0375 316.948 95.8916 318.943 97.105" fill="#C0242B"/>
<path fill-rule="evenodd" clip-rule="evenodd" d="M278.201 85.8594C282.473 87.3043 288.717 89.5515 292.794 91.7086C291.501 92.44 289.752 92.9349 288.192 93.6084C277.816 89.1016 273.607 87.7773 273.411 87.6189C274.339 87.2053 277.4 86.136 278.201 85.8594" fill="#C0242B"/>
<path fill-rule="evenodd" clip-rule="evenodd" d="M285.769 83.8906C290.043 85.3356 296.567 87.2612 300.643 89.4187C299.256 89.7782 297.252 90.2034 295.66 90.8901C285.284 86.3833 281.463 85.2139 281.267 85.0555C282.194 84.6415 284.969 84.1672 285.769 83.8906" fill="#C0242B"/>
<rect x="32.667" y="148.832" width="307.667" height="39.0889" rx="6.31111" fill="#F7F8F8"/>
<path d="M46.4629 169.783V164.002H47.3465V169.77C47.3465 171.297 48.331 172.219 49.8583 172.219C51.3856 172.219 52.3828 171.297 52.3828 169.745V164.002H53.2537V169.783C53.2537 171.752 51.8779 173.026 49.8709 173.026C47.8514 173.026 46.4629 171.752 46.4629 169.783ZM54.9404 172.105L55.4074 171.487C55.4074 171.487 56.1143 172.257 57.3008 172.257C57.9824 172.257 58.5756 171.916 58.5756 171.247C58.5756 169.858 55.155 170.199 55.155 168.129C55.155 166.993 56.1774 166.375 57.326 166.375C58.664 166.375 59.2825 167.069 59.2825 167.069L58.8912 167.725C58.8912 167.725 58.3484 167.145 57.3008 167.145C56.657 167.145 56.0386 167.422 56.0386 168.129C56.0386 169.53 59.4592 169.151 59.4592 171.247C59.4592 172.282 58.563 173.026 57.2882 173.026C55.7482 173.026 54.9404 172.105 54.9404 172.105ZM60.6123 169.707C60.6123 167.624 62.026 166.375 63.7427 166.375C65.4971 166.375 66.3933 167.725 66.3933 169.303C66.3933 169.454 66.3681 169.745 66.3681 169.745H61.4959C61.5338 171.373 62.6445 172.257 63.9572 172.257C65.1185 172.257 65.8884 171.487 65.8884 171.487L66.2797 172.143C66.2797 172.143 65.3583 173.026 63.932 173.026C62.0387 173.026 60.6123 171.663 60.6123 169.707ZM61.5338 169.038H65.5224C65.4719 167.713 64.6641 167.094 63.7174 167.094C62.6571 167.094 61.7357 167.763 61.5338 169.038ZM68.0309 172.875V166.526H68.8765V167.649C68.8765 167.927 68.8513 168.154 68.8513 168.154H68.8765C69.1795 167.195 69.8863 166.463 70.8835 166.463C71.0602 166.463 71.2243 166.501 71.2243 166.501V167.346C71.2243 167.346 71.0728 167.321 70.9087 167.321C70.0125 167.321 69.3436 168.028 69.0659 168.962C68.9397 169.366 68.8892 169.795 68.8892 170.199V172.875H68.0309ZM76.1722 172.875V164.002H77.0431V172.875H76.1722ZM79.6236 172.875V164.002H82.4888C85.1521 164.002 86.9445 165.63 86.9445 168.432C86.9445 171.259 85.1521 172.875 82.4888 172.875H79.6236ZM80.4945 172.092H82.4005C84.5841 172.092 86.0357 170.805 86.0357 168.432C86.0357 166.072 84.5715 164.784 82.4005 164.784H80.4945V172.092Z" fill="#858585"/>
<rect x="32.667" y="211.922" width="307.667" height="39.0889" rx="6.31111" fill="#F7F8F8"/>
<path d="M46.5765 235.965V227.091H49.6437C51.2341 227.091 52.3828 228.126 52.3828 229.767C52.3828 231.421 51.2341 232.481 49.6437 232.481H47.4475V235.965H46.5765ZM47.4475 231.699H49.5301C50.7166 231.699 51.4866 230.979 51.4866 229.767C51.4866 228.568 50.7166 227.874 49.5428 227.874H47.4475V231.699ZM53.3503 234.236C53.3503 232.09 56.1398 232.039 57.238 232.039H57.5914V231.875C57.5914 230.651 56.9224 230.234 56.0136 230.234C54.966 230.234 54.2213 230.84 54.2213 230.84L53.8173 230.184C53.8173 230.184 54.6504 229.464 56.0767 229.464C57.604 229.464 58.4497 230.31 58.4497 231.9V235.965H57.6293V235.271C57.6293 234.955 57.6545 234.74 57.6545 234.74H57.6293C57.6293 234.74 57.0991 236.116 55.5087 236.116C54.4485 236.116 53.3503 235.498 53.3503 234.236ZM54.2339 234.185C54.2339 234.778 54.7009 235.384 55.6476 235.384C56.8593 235.384 57.5914 234.122 57.5914 233.024V232.746H57.2253C56.2282 232.746 54.2339 232.784 54.2339 234.185ZM59.908 235.195L60.375 234.576C60.375 234.576 61.0818 235.346 62.2683 235.346C62.9499 235.346 63.5432 235.006 63.5432 234.337C63.5432 232.948 60.1225 233.289 60.1225 231.219C60.1225 230.083 61.1449 229.464 62.2936 229.464C63.6315 229.464 64.25 230.159 64.25 230.159L63.8587 230.815C63.8587 230.815 63.316 230.234 62.2683 230.234C61.6246 230.234 61.0061 230.512 61.0061 231.219C61.0061 232.62 64.4267 232.241 64.4267 234.337C64.4267 235.372 63.5305 236.116 62.2557 236.116C60.7158 236.116 59.908 235.195 59.908 235.195ZM65.5041 235.195L65.9712 234.576C65.9712 234.576 66.678 235.346 67.8645 235.346C68.5461 235.346 69.1393 235.006 69.1393 234.337C69.1393 232.948 65.7187 233.289 65.7187 231.219C65.7187 230.083 66.7411 229.464 67.8897 229.464C69.2277 229.464 69.8462 230.159 69.8462 230.159L69.4549 230.815C69.4549 230.815 68.9121 230.234 67.8645 230.234C67.2208 230.234 66.6023 230.512 66.6023 231.219C66.6023 232.62 70.0229 232.241 70.0229 234.337C70.0229 235.372 69.1267 236.116 67.8519 236.116C66.312 236.116 65.5041 235.195 65.5041 235.195ZM72.9432 235.965L70.7974 229.616H71.7062L73.2461 234.349C73.3471 234.652 73.4354 235.031 73.4354 235.031H73.4607C73.4607 235.031 73.549 234.652 73.65 234.349L75.2152 229.641H76.0609L77.626 234.349C77.727 234.652 77.8153 235.031 77.8153 235.031H77.8406C77.8406 235.031 77.9289 234.665 78.0299 234.349L79.5698 229.616H80.4786L78.3329 235.965H77.3988L75.8463 231.446C75.7327 231.131 75.6443 230.764 75.6443 230.764H75.6191C75.6191 230.764 75.5307 231.131 75.4297 231.446L73.8772 235.965H72.9432ZM81.2584 232.759C81.2584 230.878 82.7605 229.464 84.616 229.464C86.4714 229.464 87.9735 230.878 87.9735 232.759C87.9735 234.677 86.4714 236.116 84.616 236.116C82.7605 236.116 81.2584 234.677 81.2584 232.759ZM82.142 232.759C82.142 234.236 83.2528 235.346 84.616 235.346C85.9792 235.346 87.0899 234.236 87.0899 232.759C87.0899 231.32 85.9792 230.247 84.616 230.247C83.2528 230.247 82.142 231.32 82.142 232.759ZM89.5774 235.965V229.616H90.4231V230.739C90.4231 231.017 90.3978 231.244 90.3978 231.244H90.4231C90.726 230.285 91.4328 229.553 92.43 229.553C92.6067 229.553 92.7708 229.591 92.7708 229.591V230.436C92.7708 230.436 92.6193 230.411 92.4552 230.411C91.5591 230.411 90.8901 231.118 90.6124 232.052C90.4862 232.456 90.4357 232.885 90.4357 233.289V235.965H89.5774ZM93.6107 232.784C93.6107 230.777 94.7972 229.464 96.4633 229.464C98.0032 229.464 98.5333 230.664 98.5333 230.664H98.5586C98.5586 230.664 98.5333 230.449 98.5333 230.184V227.091H99.3917V235.965H98.5586V235.296C98.5586 235.018 98.5838 234.841 98.5838 234.841H98.5586C98.5586 234.841 98.0411 236.116 96.3749 236.116C94.6709 236.116 93.6107 234.753 93.6107 232.784ZM94.4942 232.784C94.4942 234.349 95.3147 235.346 96.5012 235.346C97.5614 235.346 98.5586 234.589 98.5586 232.784C98.5586 231.497 97.9022 230.234 96.539 230.234C95.4157 230.234 94.4942 231.181 94.4942 232.784Z" fill="#858585"/>
<path d="M296.109 234.98L296.626 234.311C296.626 234.311 297.547 235.283 298.949 235.283C299.92 235.283 300.716 234.703 300.716 233.743C300.716 231.509 296.285 232.077 296.285 229.326C296.285 228.051 297.409 226.94 299.05 226.94C300.589 226.94 301.422 227.798 301.422 227.798L300.993 228.53C300.993 228.53 300.211 227.773 299.05 227.773C297.914 227.773 297.181 228.518 297.181 229.3C297.181 231.408 301.612 230.802 301.612 233.718C301.612 235.043 300.589 236.116 298.923 236.116C297.106 236.116 296.109 234.98 296.109 234.98ZM303.304 235.965V227.091H304.163V230.525C304.163 230.815 304.137 231.042 304.137 231.042H304.163C304.402 230.436 305.248 229.464 306.687 229.464C308.252 229.464 308.808 230.361 308.808 231.926V235.965H307.949V232.153C307.949 231.156 307.798 230.272 306.573 230.272C305.488 230.272 304.554 231.017 304.264 232.077C304.188 232.33 304.163 232.62 304.163 232.923V235.965H303.304ZM310.319 232.759C310.319 230.878 311.821 229.464 313.677 229.464C315.532 229.464 317.034 230.878 317.034 232.759C317.034 234.677 315.532 236.116 313.677 236.116C311.821 236.116 310.319 234.677 310.319 232.759ZM311.203 232.759C311.203 234.236 312.314 235.346 313.677 235.346C315.04 235.346 316.151 234.236 316.151 232.759C316.151 231.32 315.04 230.247 313.677 230.247C312.314 230.247 311.203 231.32 311.203 232.759ZM319.964 235.965L317.818 229.616H318.727L320.267 234.349C320.368 234.652 320.456 235.031 320.456 235.031H320.481C320.481 235.031 320.57 234.652 320.671 234.349L322.236 229.641H323.081L324.647 234.349C324.747 234.652 324.836 235.031 324.836 235.031H324.861C324.861 235.031 324.949 234.665 325.05 234.349L326.59 229.616H327.499L325.353 235.965H324.419L322.867 231.446C322.753 231.131 322.665 230.764 322.665 230.764H322.64C322.64 230.764 322.551 231.131 322.45 231.446L320.898 235.965H319.964Z" fill="#00C6AC"/>
<g clip-path="url(#clip1_2196_24981)">
<rect x="32.667" y="283.012" width="307.667" height="42.6" rx="8" fill="#00BD9C"/>
<path d="M160.579 304.916C160.579 302.328 162.523 300.359 165.111 300.359C167.256 300.359 168.355 301.533 168.355 301.533L167.736 302.467C167.736 302.467 166.701 301.495 165.161 301.495C163.167 301.495 161.867 303.01 161.867 304.903C161.867 306.809 163.192 308.425 165.174 308.425C166.853 308.425 167.925 307.263 167.925 307.263L168.594 308.16C168.594 308.16 167.37 309.573 165.136 309.573C162.46 309.573 160.579 307.529 160.579 304.916ZM169.575 306.216C169.575 304.285 171.115 302.884 173.021 302.884C174.927 302.884 176.467 304.285 176.467 306.216C176.467 308.16 174.927 309.573 173.021 309.573C171.115 309.573 169.575 308.16 169.575 306.216ZM170.824 306.216C170.824 307.554 171.822 308.513 173.021 308.513C174.232 308.513 175.217 307.554 175.217 306.216C175.217 304.89 174.232 303.944 173.021 303.944C171.822 303.944 170.824 304.89 170.824 306.216ZM177.918 309.422V303.035H179.105V303.881C179.105 304.133 179.08 304.348 179.08 304.348H179.105C179.357 303.792 180.115 302.884 181.503 302.884C183.005 302.884 183.699 303.704 183.699 305.332V309.422H182.475V305.61C182.475 304.714 182.286 304.007 181.263 304.007C180.291 304.007 179.509 304.651 179.244 305.572C179.168 305.825 179.143 306.115 179.143 306.43V309.422H177.918ZM185.789 307.087V304.108H184.956V303.123H185.827V301.281H187.013V303.123H188.553V304.108H187.013V306.948C187.013 308.223 187.909 308.387 188.376 308.387C188.553 308.387 188.667 308.362 188.667 308.362V309.447C188.667 309.447 188.49 309.472 188.238 309.472C187.417 309.472 185.789 309.22 185.789 307.087ZM190.035 301.76V300.511H191.272V301.76H190.035ZM190.048 309.422V303.035H191.272V309.422H190.048ZM193.191 309.422V303.035H194.377V303.881C194.377 304.133 194.352 304.348 194.352 304.348H194.377C194.63 303.792 195.387 302.884 196.776 302.884C198.278 302.884 198.972 303.704 198.972 305.332V309.422H197.747V305.61C197.747 304.714 197.558 304.007 196.536 304.007C195.564 304.007 194.781 304.651 194.516 305.572C194.44 305.825 194.415 306.115 194.415 306.43V309.422H193.191ZM200.708 307.125V303.035H201.932V306.847C201.932 307.73 202.109 308.437 203.131 308.437C204.431 308.437 205.201 307.289 205.201 306.026V303.035H206.426V309.422H205.239V308.576C205.239 308.311 205.264 308.109 205.264 308.109H205.239C204.974 308.74 204.141 309.573 202.892 309.573C201.453 309.573 200.708 308.816 200.708 307.125ZM207.898 306.228C207.898 304.196 209.274 302.884 211.092 302.884C212.897 302.884 213.856 304.222 213.856 305.875C213.856 306.039 213.818 306.405 213.818 306.405H209.16C209.224 307.806 210.221 308.513 211.357 308.513C212.455 308.513 213.25 307.768 213.25 307.768L213.755 308.665C213.755 308.665 212.808 309.573 211.281 309.573C209.274 309.573 207.898 308.122 207.898 306.228ZM209.198 305.484H212.606C212.568 304.386 211.887 303.855 211.066 303.855C210.132 303.855 209.375 304.436 209.198 305.484Z" fill="white"/>
</g>
<rect width="355" height="55.2222" transform="translate(9 357.609)" fill="#D3EDF2"/>
<circle cx="56.3332" cy="385.22" r="12.6222" fill="#2C3E50" stroke="#2C3E50" stroke-width="1.57778"/>
<path d="M55.9023 378.434H56.7646C58.5074 378.434 59.9208 379.846 59.9209 381.589V385.01C59.9208 386.752 58.5074 388.165 56.7646 388.165H55.9023C54.1597 388.165 52.7472 386.752 52.7471 385.01V381.589C52.7471 379.846 54.1597 378.434 55.9023 378.434Z" stroke="white" stroke-width="1.57778"/>
<path d="M62.502 384.102V391.391H50.1641V384.102H62.502Z" fill="white" stroke="white" stroke-width="0.788889"/>
<path d="M87.4222 374.657H87.397C87.397 374.657 87.2581 375.414 87.1067 375.982L85.4153 382.23H84.3676L82.0704 373.357H82.9792L84.6958 380.249C84.8094 380.703 84.8978 381.195 84.8978 381.195H84.923C84.9356 381.195 84.9987 380.703 85.125 380.249L86.9931 373.357H87.8261L89.6942 380.249C89.8204 380.703 89.8835 381.195 89.8962 381.195H89.9214C89.9214 381.195 90.0098 380.703 90.1234 380.249L91.9031 373.357H92.8119L90.4515 382.23H89.4039L87.7125 375.982C87.5611 375.414 87.4222 374.657 87.4222 374.657ZM93.6349 379.062C93.6349 376.98 95.0486 375.73 96.7652 375.73C98.5197 375.73 99.4159 377.081 99.4159 378.658C99.4159 378.81 99.3906 379.1 99.3906 379.1H94.5185C94.5563 380.728 95.6671 381.612 96.9798 381.612C98.141 381.612 98.911 380.842 98.911 380.842L99.3023 381.498C99.3023 381.498 98.3809 382.382 96.9546 382.382C95.0612 382.382 93.6349 381.019 93.6349 379.062ZM94.5563 378.393H98.545C98.4945 377.068 97.6866 376.449 96.74 376.449C95.6797 376.449 94.7583 377.118 94.5563 378.393ZM104.027 379.05C104.027 377.043 105.213 375.73 106.879 375.73C108.419 375.73 108.949 376.929 108.949 376.929H108.975C108.975 376.929 108.949 376.715 108.949 376.449V373.357H109.808V382.23H108.975V381.561C108.975 381.284 109 381.107 109 381.107H108.975C108.975 381.107 108.457 382.382 106.791 382.382C105.087 382.382 104.027 381.019 104.027 379.05ZM104.91 379.05C104.91 380.615 105.731 381.612 106.917 381.612C107.977 381.612 108.975 380.855 108.975 379.05C108.975 377.762 108.318 376.5 106.955 376.5C105.832 376.5 104.91 377.447 104.91 379.05ZM111.409 379.024C111.409 377.144 112.911 375.73 114.766 375.73C116.622 375.73 118.124 377.144 118.124 379.024C118.124 380.943 116.622 382.382 114.766 382.382C112.911 382.382 111.409 380.943 111.409 379.024ZM112.293 379.024C112.293 380.501 113.403 381.612 114.766 381.612C116.13 381.612 117.24 380.501 117.24 379.024C117.24 377.585 116.13 376.513 114.766 376.513C113.403 376.513 112.293 377.585 112.293 379.024ZM119.728 382.23V375.881H120.574V376.828C120.574 377.106 120.548 377.333 120.548 377.333H120.574C120.801 376.752 121.609 375.73 123.111 375.73C124.676 375.73 125.231 376.626 125.231 378.191V382.23H124.373V378.419C124.373 377.421 124.221 376.538 122.997 376.538C121.912 376.538 120.978 377.283 120.687 378.33C120.611 378.595 120.586 378.886 120.586 379.189V382.23H119.728ZM126.894 375.402L127.387 373.231H128.296L127.589 375.402H126.894ZM130.088 379.921V376.677H129.255V375.957H130.1V374.127H130.946V375.957H132.536V376.677H130.946V379.832C130.946 381.322 131.893 381.511 132.372 381.511C132.549 381.511 132.663 381.486 132.663 381.486V382.256C132.663 382.256 132.524 382.281 132.297 382.281C131.564 382.281 130.088 382.041 130.088 379.921ZM136.948 381.461L137.415 380.842C137.415 380.842 138.122 381.612 139.308 381.612C139.99 381.612 140.583 381.271 140.583 380.602C140.583 379.214 137.163 379.555 137.163 377.485C137.163 376.349 138.185 375.73 139.334 375.73C140.672 375.73 141.29 376.424 141.29 376.424L140.899 377.081C140.899 377.081 140.356 376.5 139.308 376.5C138.665 376.5 138.046 376.778 138.046 377.485C138.046 378.886 141.467 378.507 141.467 380.602C141.467 381.637 140.571 382.382 139.296 382.382C137.756 382.382 136.948 381.461 136.948 381.461ZM143.302 379.921V376.677H142.469V375.957H143.314V374.127H144.16V375.957H145.75V376.677H144.16V379.832C144.16 381.322 145.107 381.511 145.586 381.511C145.763 381.511 145.877 381.486 145.877 381.486V382.256C145.877 382.256 145.738 382.281 145.51 382.281C144.778 382.281 143.302 382.041 143.302 379.921ZM146.823 379.024C146.823 377.144 148.325 375.73 150.18 375.73C152.036 375.73 153.538 377.144 153.538 379.024C153.538 380.943 152.036 382.382 150.18 382.382C148.325 382.382 146.823 380.943 146.823 379.024ZM147.706 379.024C147.706 380.501 148.817 381.612 150.18 381.612C151.543 381.612 152.654 380.501 152.654 379.024C152.654 377.585 151.543 376.513 150.18 376.513C148.817 376.513 147.706 377.585 147.706 379.024ZM155.142 382.23V375.881H155.987V377.005C155.987 377.283 155.962 377.51 155.962 377.51H155.987C156.29 376.55 156.997 375.818 157.994 375.818C158.171 375.818 158.335 375.856 158.335 375.856V376.702C158.335 376.702 158.184 376.677 158.019 376.677C157.123 376.677 156.454 377.384 156.177 378.318C156.05 378.721 156 379.151 156 379.555V382.23H155.142ZM159.125 379.062C159.125 376.98 160.539 375.73 162.255 375.73C164.01 375.73 164.906 377.081 164.906 378.658C164.906 378.81 164.881 379.1 164.881 379.1H160.009C160.046 380.728 161.157 381.612 162.47 381.612C163.631 381.612 164.401 380.842 164.401 380.842L164.792 381.498C164.792 381.498 163.871 382.382 162.445 382.382C160.551 382.382 159.125 381.019 159.125 379.062ZM160.046 378.393H164.035C163.985 377.068 163.177 376.449 162.23 376.449C161.17 376.449 160.248 377.118 160.046 378.393ZM169.466 379.024C169.466 377.144 170.968 375.73 172.824 375.73C174.679 375.73 176.181 377.144 176.181 379.024C176.181 380.943 174.679 382.382 172.824 382.382C170.968 382.382 169.466 380.943 169.466 379.024ZM170.35 379.024C170.35 380.501 171.461 381.612 172.824 381.612C174.187 381.612 175.298 380.501 175.298 379.024C175.298 377.585 174.187 376.513 172.824 376.513C171.461 376.513 170.35 377.585 170.35 379.024ZM177.785 382.23V375.881H178.631V377.005C178.631 377.283 178.606 377.51 178.606 377.51H178.631C178.934 376.55 179.641 375.818 180.638 375.818C180.815 375.818 180.979 375.856 180.979 375.856V376.702C180.979 376.702 180.827 376.677 180.663 376.677C179.767 376.677 179.098 377.384 178.82 378.318C178.694 378.721 178.644 379.151 178.644 379.555V382.23H177.785ZM185.674 382.23V373.357H186.532V376.79C186.532 377.081 186.507 377.308 186.507 377.308H186.532C186.772 376.702 187.618 375.73 189.057 375.73C190.622 375.73 191.177 376.626 191.177 378.191V382.23H190.319V378.419C190.319 377.421 190.168 376.538 188.943 376.538C187.858 376.538 186.924 377.283 186.633 378.343C186.558 378.595 186.532 378.886 186.532 379.189V382.23H185.674ZM192.639 380.501C192.639 378.355 195.428 378.305 196.526 378.305H196.88V378.141C196.88 376.917 196.211 376.5 195.302 376.5C194.254 376.5 193.51 377.106 193.51 377.106L193.106 376.449C193.106 376.449 193.939 375.73 195.365 375.73C196.892 375.73 197.738 376.576 197.738 378.166V382.23H196.918V381.536C196.918 381.221 196.943 381.006 196.943 381.006H196.918C196.918 381.006 196.387 382.382 194.797 382.382C193.737 382.382 192.639 381.763 192.639 380.501ZM193.522 380.451C193.522 381.044 193.989 381.65 194.936 381.65C196.148 381.65 196.88 380.388 196.88 379.289V379.012H196.514C195.517 379.012 193.522 379.05 193.522 380.451ZM201.242 382.23L198.806 375.881H199.715L201.482 380.539C201.595 380.855 201.696 381.296 201.696 381.296H201.722C201.722 381.296 201.823 380.867 201.949 380.539L203.703 375.881H204.6L202.176 382.23H201.242ZM205.361 379.062C205.361 376.98 206.775 375.73 208.492 375.73C210.246 375.73 211.142 377.081 211.142 378.658C211.142 378.81 211.117 379.1 211.117 379.1H206.245C206.283 380.728 207.393 381.612 208.706 381.612C209.867 381.612 210.637 380.842 210.637 380.842L211.029 381.498C211.029 381.498 210.107 382.382 208.681 382.382C206.788 382.382 205.361 381.019 205.361 379.062ZM206.283 378.393H210.271C210.221 377.068 209.413 376.449 208.466 376.449C207.406 376.449 206.485 377.118 206.283 378.393ZM215.652 380.501C215.652 378.355 218.442 378.305 219.54 378.305H219.893V378.141C219.893 376.917 219.224 376.5 218.315 376.5C217.268 376.5 216.523 377.106 216.523 377.106L216.119 376.449C216.119 376.449 216.952 375.73 218.378 375.73C219.906 375.73 220.751 376.576 220.751 378.166V382.23H219.931V381.536C219.931 381.221 219.956 381.006 219.956 381.006H219.931C219.931 381.006 219.401 382.382 217.81 382.382C216.75 382.382 215.652 381.763 215.652 380.501ZM216.536 380.451C216.536 381.044 217.003 381.65 217.949 381.65C219.161 381.65 219.893 380.388 219.893 379.289V379.012H219.527C218.53 379.012 216.536 379.05 216.536 380.451ZM222.285 379.062C222.285 377.106 223.75 375.73 225.618 375.73C227.17 375.73 227.94 376.639 227.94 376.639L227.498 377.283C227.498 377.283 226.792 376.513 225.643 376.513C224.254 376.513 223.169 377.548 223.169 379.062C223.169 380.552 224.267 381.612 225.668 381.612C226.956 381.612 227.7 380.716 227.7 380.716L228.092 381.385C228.092 381.385 227.233 382.382 225.618 382.382C223.737 382.382 222.285 381.031 222.285 379.062ZM229.213 379.062C229.213 377.106 230.677 375.73 232.545 375.73C234.098 375.73 234.868 376.639 234.868 376.639L234.426 377.283C234.426 377.283 233.719 376.513 232.57 376.513C231.182 376.513 230.096 377.548 230.096 379.062C230.096 380.552 231.195 381.612 232.596 381.612C233.883 381.612 234.628 380.716 234.628 380.716L235.019 381.385C235.019 381.385 234.161 382.382 232.545 382.382C230.664 382.382 229.213 381.031 229.213 379.062ZM236.14 379.062C236.14 376.98 237.554 375.73 239.271 375.73C241.025 375.73 241.921 377.081 241.921 378.658C241.921 378.81 241.896 379.1 241.896 379.1H237.024C237.062 380.728 238.172 381.612 239.485 381.612C240.646 381.612 241.416 380.842 241.416 380.842L241.808 381.498C241.808 381.498 240.886 382.382 239.46 382.382C237.567 382.382 236.14 381.019 236.14 379.062ZM237.062 378.393H241.05C241 377.068 240.192 376.449 239.245 376.449C238.185 376.449 237.264 377.118 237.062 378.393ZM243.041 381.461L243.508 380.842C243.508 380.842 244.215 381.612 245.402 381.612C246.083 381.612 246.676 381.271 246.676 380.602C246.676 379.214 243.256 379.555 243.256 377.485C243.256 376.349 244.278 375.73 245.427 375.73C246.765 375.73 247.383 376.424 247.383 376.424L246.992 377.081C246.992 377.081 246.449 376.5 245.402 376.5C244.758 376.5 244.139 376.778 244.139 377.485C244.139 378.886 247.56 378.507 247.56 380.602C247.56 381.637 246.664 382.382 245.389 382.382C243.849 382.382 243.041 381.461 243.041 381.461ZM248.637 381.461L249.104 380.842C249.104 380.842 249.811 381.612 250.998 381.612C251.679 381.612 252.273 381.271 252.273 380.602C252.273 379.214 248.852 379.555 248.852 377.485C248.852 376.349 249.874 375.73 251.023 375.73C252.361 375.73 252.98 376.424 252.98 376.424L252.588 377.081C252.588 377.081 252.045 376.5 250.998 376.5C250.354 376.5 249.736 376.778 249.736 377.485C249.736 378.886 253.156 378.507 253.156 380.602C253.156 381.637 252.26 382.382 250.985 382.382C249.445 382.382 248.637 381.461 248.637 381.461ZM258.381 379.921V376.677H257.548V375.957H258.393V374.127H259.239V375.957H260.829V376.677H259.239V379.832C259.239 381.322 260.186 381.511 260.665 381.511C260.842 381.511 260.956 381.486 260.956 381.486V382.256C260.956 382.256 260.817 382.281 260.59 382.281C259.858 382.281 258.381 382.041 258.381 379.921ZM261.902 379.024C261.902 377.144 263.404 375.73 265.259 375.73C267.115 375.73 268.617 377.144 268.617 379.024C268.617 380.943 267.115 382.382 265.259 382.382C263.404 382.382 261.902 380.943 261.902 379.024ZM262.785 379.024C262.785 380.501 263.896 381.612 265.259 381.612C266.623 381.612 267.733 380.501 267.733 379.024C267.733 377.585 266.623 376.513 265.259 376.513C263.896 376.513 262.785 377.585 262.785 379.024ZM272.664 384.502L272.992 383.821C272.992 383.821 273.345 384.111 273.749 384.111C274.305 384.111 274.696 383.657 274.948 383.076L275.34 382.18L272.689 375.881H273.636L275.504 380.514C275.63 380.829 275.731 381.183 275.731 381.183H275.756C275.756 381.183 275.845 380.829 275.971 380.514L277.801 375.881H278.735L275.605 383.556C275.277 384.364 274.62 384.881 273.775 384.881C273.118 384.881 272.664 384.502 272.664 384.502ZM279.442 379.024C279.442 377.144 280.944 375.73 282.8 375.73C284.655 375.73 286.157 377.144 286.157 379.024C286.157 380.943 284.655 382.382 282.8 382.382C280.944 382.382 279.442 380.943 279.442 379.024ZM280.326 379.024C280.326 380.501 281.437 381.612 282.8 381.612C284.163 381.612 285.274 380.501 285.274 379.024C285.274 377.585 284.163 376.513 282.8 376.513C281.437 376.513 280.326 377.585 280.326 379.024ZM287.673 379.921V375.881H288.531V379.693C288.531 380.691 288.683 381.574 289.907 381.574C291.359 381.574 292.255 380.299 292.255 378.923V375.881H293.113V382.23H292.28V381.284C292.28 381.006 292.305 380.779 292.305 380.779H292.28C292.028 381.397 291.194 382.382 289.793 382.382C288.304 382.382 287.673 381.574 287.673 379.921ZM295.182 382.23V375.881H296.027V377.005C296.027 377.283 296.002 377.51 296.002 377.51H296.027C296.33 376.55 297.037 375.818 298.034 375.818C298.211 375.818 298.375 375.856 298.375 375.856V376.702C298.375 376.702 298.224 376.677 298.06 376.677C297.163 376.677 296.494 377.384 296.217 378.318C296.091 378.721 296.04 379.151 296.04 379.555V382.23H295.182ZM82.55 395.728V388.357H83.4083V395.539C83.4083 396.372 83.787 396.498 84.1152 396.498C84.2288 396.498 84.3298 396.486 84.3298 396.486V397.256C84.3298 397.256 84.1783 397.281 84.0142 397.281C83.4841 397.281 82.55 397.117 82.55 395.728ZM85.2647 394.024C85.2647 392.144 86.7667 390.73 88.6222 390.73C90.4777 390.73 91.9797 392.144 91.9797 394.024C91.9797 395.943 90.4777 397.382 88.6222 397.382C86.7667 397.382 85.2647 395.943 85.2647 394.024ZM86.1483 394.024C86.1483 395.501 87.259 396.612 88.6222 396.612C89.9854 396.612 91.0962 395.501 91.0962 394.024C91.0962 392.585 89.9854 391.513 88.6222 391.513C87.259 391.513 86.1483 392.585 86.1483 394.024ZM94.0633 398.669C94.0633 398.669 94.8459 399.111 95.7799 399.111C97.0169 399.111 98.0014 398.531 98.0014 397.117V396.536C98.0014 396.296 98.0267 396.082 98.0267 396.082H98.0014C97.6227 396.789 96.979 397.193 95.9945 397.193C94.2905 397.193 93.1671 395.842 93.1671 393.936C93.1671 392.03 94.2147 390.73 95.9187 390.73C97.5975 390.73 98.014 391.79 98.014 391.79H98.0393C98.0393 391.79 98.0267 391.715 98.0267 391.576V390.881H98.8597V397.079C98.8597 399.099 97.3703 399.881 95.8178 399.881C95.0857 399.881 94.3536 399.692 93.7351 399.376L94.0633 398.669ZM96.1333 396.423C97.1305 396.423 98.014 395.804 98.014 393.936C98.014 392.081 97.1305 391.513 96.0071 391.513C94.7701 391.513 94.0507 392.409 94.0507 393.923C94.0507 395.438 94.8711 396.423 96.1333 396.423ZM100.905 389.43V388.357H101.801V389.43H100.905ZM100.93 397.23V390.881H101.788V397.23H100.93ZM103.864 397.23V390.881H104.71V391.828C104.71 392.106 104.684 392.333 104.684 392.333H104.71C104.937 391.752 105.745 390.73 107.247 390.73C108.812 390.73 109.367 391.626 109.367 393.191V397.23H108.509V393.419C108.509 392.421 108.357 391.538 107.133 391.538C106.047 391.538 105.113 392.283 104.823 393.33C104.747 393.595 104.722 393.886 104.722 394.189V397.23H103.864ZM114.294 394.062C114.294 392.106 115.758 390.73 117.626 390.73C119.179 390.73 119.949 391.639 119.949 391.639L119.507 392.283C119.507 392.283 118.8 391.513 117.651 391.513C116.263 391.513 115.177 392.548 115.177 394.062C115.177 395.552 116.276 396.612 117.677 396.612C118.964 396.612 119.709 395.716 119.709 395.716L120.1 396.385C120.1 396.385 119.242 397.382 117.626 397.382C115.745 397.382 114.294 396.031 114.294 394.062ZM121.663 397.23V390.881H122.509V392.005C122.509 392.283 122.484 392.51 122.484 392.51H122.509C122.812 391.55 123.519 390.818 124.516 390.818C124.692 390.818 124.857 390.856 124.857 390.856V391.702C124.857 391.702 124.705 391.677 124.541 391.677C123.645 391.677 122.976 392.384 122.698 393.318C122.572 393.721 122.521 394.151 122.521 394.555V397.23H121.663ZM125.647 394.062C125.647 391.98 127.06 390.73 128.777 390.73C130.531 390.73 131.428 392.081 131.428 393.658C131.428 393.81 131.402 394.1 131.402 394.1H126.53C126.568 395.728 127.679 396.612 128.991 396.612C130.153 396.612 130.923 395.842 130.923 395.842L131.314 396.498C131.314 396.498 130.392 397.382 128.966 397.382C127.073 397.382 125.647 396.019 125.647 394.062ZM126.568 393.393H130.557C130.506 392.068 129.698 391.449 128.752 391.449C127.691 391.449 126.77 392.118 126.568 393.393ZM132.649 394.05C132.649 392.043 133.835 390.73 135.501 390.73C137.041 390.73 137.571 391.929 137.571 391.929H137.596C137.596 391.929 137.571 391.715 137.571 391.449V388.357H138.43V397.23H137.596V396.561C137.596 396.284 137.622 396.107 137.622 396.107H137.596C137.596 396.107 137.079 397.382 135.413 397.382C133.709 397.382 132.649 396.019 132.649 394.05ZM133.532 394.05C133.532 395.615 134.353 396.612 135.539 396.612C136.599 396.612 137.596 395.855 137.596 394.05C137.596 392.762 136.94 391.5 135.577 391.5C134.453 391.5 133.532 392.447 133.532 394.05ZM140.056 394.062C140.056 391.98 141.47 390.73 143.186 390.73C144.941 390.73 145.837 392.081 145.837 393.658C145.837 393.81 145.812 394.1 145.812 394.1H140.94C140.978 395.728 142.088 396.612 143.401 396.612C144.562 396.612 145.332 395.842 145.332 395.842L145.723 396.498C145.723 396.498 144.802 397.382 143.376 397.382C141.482 397.382 140.056 396.019 140.056 394.062ZM140.978 393.393H144.966C144.916 392.068 144.108 391.449 143.161 391.449C142.101 391.449 141.179 392.118 140.978 393.393ZM147.475 397.23V390.881H148.32V391.828C148.32 392.106 148.295 392.333 148.295 392.333H148.32C148.547 391.752 149.355 390.73 150.857 390.73C152.423 390.73 152.978 391.626 152.978 393.191V397.23H152.12V393.419C152.12 392.421 151.968 391.538 150.744 391.538C149.658 391.538 148.724 392.283 148.434 393.33C148.358 393.595 148.333 393.886 148.333 394.189V397.23H147.475ZM155.197 394.921V391.677H154.363V390.957H155.209V389.127H156.055V390.957H157.645V391.677H156.055V394.832C156.055 396.322 157.002 396.511 157.481 396.511C157.658 396.511 157.771 396.486 157.771 396.486V397.256C157.771 397.256 157.633 397.281 157.405 397.281C156.673 397.281 155.197 397.041 155.197 394.921ZM159.159 389.43V388.357H160.056V389.43H159.159ZM159.185 397.23V390.881H160.043V397.23H159.185ZM161.601 395.501C161.601 393.355 164.39 393.305 165.488 393.305H165.842V393.141C165.842 391.917 165.173 391.5 164.264 391.5C163.216 391.5 162.472 392.106 162.472 392.106L162.068 391.449C162.068 391.449 162.901 390.73 164.327 390.73C165.855 390.73 166.7 391.576 166.7 393.166V397.23H165.88V396.536C165.88 396.221 165.905 396.006 165.905 396.006H165.88C165.88 396.006 165.35 397.382 163.759 397.382C162.699 397.382 161.601 396.763 161.601 395.501ZM162.484 395.451C162.484 396.044 162.951 396.65 163.898 396.65C165.11 396.65 165.842 395.388 165.842 394.289V394.012H165.476C164.479 394.012 162.484 394.05 162.484 395.451ZM168.613 395.728V388.357H169.471V395.539C169.471 396.372 169.85 396.498 170.178 396.498C170.292 396.498 170.393 396.486 170.393 396.486V397.256C170.393 397.256 170.241 397.281 170.077 397.281C169.547 397.281 168.613 397.117 168.613 395.728ZM171.277 396.461L171.744 395.842C171.744 395.842 172.451 396.612 173.637 396.612C174.319 396.612 174.912 396.271 174.912 395.602C174.912 394.214 171.492 394.555 171.492 392.485C171.492 391.349 172.514 390.73 173.663 390.73C175.001 390.73 175.619 391.424 175.619 391.424L175.228 392.081C175.228 392.081 174.685 391.5 173.637 391.5C172.994 391.5 172.375 391.778 172.375 392.485C172.375 393.886 175.796 393.507 175.796 395.602C175.796 396.637 174.9 397.382 173.625 397.382C172.085 397.382 171.277 396.461 171.277 396.461Z" fill="#2C3E50"/>
</g>
</g>
<defs>
<filter id="filter0_d_2196_24981" x="0" y="0" width="373" height="428.832" filterUnits="userSpaceOnUse" color-interpolation-filters="sRGB">
<feFlood flood-opacity="0" result="BackgroundImageFix"/>
<feColorMatrix in="SourceAlpha" type="matrix" values="0 0 0 0 0 0 0 0 0 0 0 0 0 0 0 0 0 0 127 0" result="hardAlpha"/>
<feOffset dy="7"/>
<feGaussianBlur stdDeviation="4.5"/>
<feComposite in2="hardAlpha" operator="out"/>
<feColorMatrix type="matrix" values="0 0 0 0 0 0 0 0 0 0 0 0 0 0 0 0 0 0 0.25 0"/>
<feBlend mode="normal" in2="BackgroundImageFix" result="effect1_dropShadow_2196_24981"/>
<feBlend mode="normal" in="SourceGraphic" in2="effect1_dropShadow_2196_24981" result="shape"/>
</filter>
<clipPath id="clip0_2196_24981">
<path d="M9 14.6222C9 7.65118 14.6512 2 21.6222 2H351.378C358.349 2 364 7.65116 364 14.6222V400.211C364 407.182 358.349 412.833 351.378 412.833H21.6222C14.6512 412.833 9 407.182 9 400.211V14.6222Z" fill="white"/>
</clipPath>
<clipPath id="clip1_2196_24981">
<rect width="307.667" height="42.6" fill="white" transform="translate(32.667 283.012)"/>
</clipPath>
</defs>
</svg>
