<svg width="1280" height="427" viewBox="0 0 1280 427" fill="none" xmlns="http://www.w3.org/2000/svg">
<rect width="128" height="31" rx="8" fill="#FFD8C0"/>
<path d="M9.89275 20V11.072H11.4768L13.3368 15.92C13.6968 16.892 14.2368 18.716 14.2368 18.716H14.2608C14.2608 18.716 14.8128 16.904 15.1728 15.92L16.9968 11.072H18.6288V20H17.4528V14.6C17.4528 13.808 17.5248 12.308 17.5248 12.308H17.5008C17.5008 12.308 17.1408 13.652 16.8768 14.348L14.7048 20H13.7448L11.5728 14.348C11.3208 13.652 10.9488 12.308 10.9488 12.308H10.9248C10.9248 12.308 10.9968 13.808 10.9968 14.6V20H9.89275ZM23.1031 20.18C21.1231 20.18 19.9591 18.668 19.9591 16.784C19.9591 14.912 21.1951 13.4 23.0431 13.4C24.0031 13.4 24.7471 13.772 25.2511 14.396C25.7791 15.032 26.0431 15.956 26.0431 17.048H21.0991C21.1831 18.308 21.8671 19.268 23.1151 19.268C24.0031 19.268 24.6151 18.848 24.8191 18.164H25.9111C25.6231 19.364 24.5911 20.18 23.1031 20.18ZM23.0431 14.264C21.8791 14.264 21.2671 15.104 21.1231 16.244H24.8551C24.7951 15.008 24.1591 14.264 23.0431 14.264ZM28.3368 13.556V14.72H28.3728C28.7688 13.976 29.4288 13.472 30.2808 13.472C30.4608 13.472 30.5688 13.496 30.6888 13.544V14.6H30.6528C30.4968 14.552 30.3888 14.54 30.1968 14.54C29.2008 14.54 28.3488 15.284 28.3488 16.496V20H27.2328V13.556H28.3368ZM34.3413 20.18C32.4093 20.18 31.1973 18.668 31.1973 16.784C31.1973 14.912 32.4093 13.4 34.3413 13.4C35.8893 13.4 36.8973 14.276 37.1253 15.656H36.0093C35.8533 14.816 35.2773 14.3 34.3413 14.3C33.0213 14.3 32.3373 15.392 32.3373 16.784C32.3373 18.176 33.0213 19.268 34.3413 19.268C35.3493 19.268 35.9493 18.68 36.0333 17.72H37.1373C36.9933 19.256 35.9733 20.18 34.3413 20.18ZM39.3762 13.412C39.3762 13.736 39.3522 14.18 39.3402 14.492H39.3762C39.8562 13.808 40.5042 13.4 41.4402 13.4C42.7842 13.4 43.6122 14.156 43.6122 15.5V20H42.5082V15.632C42.5082 14.804 41.9682 14.336 41.0922 14.336C40.0962 14.336 39.3762 15.044 39.3762 16.076V20H38.2602V11.072H39.3762V13.412ZM47.0357 20.132C45.8117 20.132 44.8517 19.532 44.8517 18.296C44.8517 16.796 45.9557 16.472 47.6237 16.268C48.5717 16.16 49.1837 16.004 49.1837 15.344C49.1837 14.648 48.6917 14.216 47.8037 14.216C46.7837 14.216 46.2917 14.696 46.2557 15.464H45.1757C45.2237 14.372 46.0517 13.4 47.7917 13.4C48.4037 13.4 48.9437 13.508 49.3517 13.748C49.8917 14.072 50.2157 14.636 50.2157 15.5V18.512C50.2157 19.028 50.3357 19.304 50.8997 19.184H50.9477V19.964C50.7917 20.012 50.6117 20.06 50.3477 20.06C49.6637 20.06 49.3277 19.736 49.2077 19.052H49.1957C48.7877 19.616 48.1277 20.132 47.0357 20.132ZM47.3117 19.316C48.5957 19.316 49.1957 18.368 49.1957 17.624V16.568C48.8717 16.772 48.3077 16.928 47.7797 17.024C46.7237 17.204 46.0277 17.396 46.0277 18.284C46.0277 19.112 46.6637 19.316 47.3117 19.316ZM52.9579 13.556V14.468H52.9939C53.4619 13.82 54.0979 13.4 55.0339 13.4C56.3779 13.4 57.2059 14.156 57.2059 15.5V20H56.1019V15.632C56.1019 14.804 55.5619 14.336 54.6859 14.336C53.6899 14.336 52.9699 15.044 52.9699 16.076V20H51.8539V13.556H52.9579ZM58.1962 14.42V13.556H59.2042V11.528H60.3082V13.556H61.6402V14.42H60.3082V18.488C60.3082 18.956 60.5602 19.088 60.9682 19.088C61.1602 19.088 61.4122 19.04 61.5322 19.004H61.5682V19.94C61.2682 20.012 60.9562 20.048 60.6682 20.048C59.8042 20.036 59.2042 19.688 59.2042 18.74V14.42H58.1962ZM70.0068 20.18C67.4628 20.18 65.8068 18.236 65.8068 15.536C65.8068 12.908 67.3908 10.88 70.0428 10.88C71.0868 10.88 71.9268 11.18 72.5268 11.672C73.1628 12.188 73.5468 12.92 73.6668 13.772H72.4428C72.2388 12.68 71.3867 11.948 70.0188 11.948C68.1228 11.948 67.0548 13.484 67.0548 15.536C67.0548 17.672 68.2308 19.112 70.0308 19.112C71.6508 19.112 72.4308 18.02 72.5388 16.748H73.7628C73.7508 17.636 73.3308 18.62 72.6948 19.232C72.0708 19.856 71.1588 20.18 70.0068 20.18ZM76.1731 13.412C76.1731 13.736 76.1491 14.18 76.1371 14.492H76.1731C76.6531 13.808 77.3011 13.4 78.2371 13.4C79.5811 13.4 80.4091 14.156 80.4091 15.5V20H79.3051V15.632C79.3051 14.804 78.7651 14.336 77.8891 14.336C76.8931 14.336 76.1731 15.044 76.1731 16.076V20H75.0571V11.072H76.1731V13.412ZM84.7085 20.18C82.7285 20.18 81.5645 18.668 81.5645 16.784C81.5645 14.912 82.8005 13.4 84.6485 13.4C85.6085 13.4 86.3525 13.772 86.8565 14.396C87.3845 15.032 87.6485 15.956 87.6485 17.048H82.7045C82.7885 18.308 83.4725 19.268 84.7205 19.268C85.6085 19.268 86.2205 18.848 86.4245 18.164H87.5165C87.2285 19.364 86.1965 20.18 84.7085 20.18ZM84.6485 14.264C83.4845 14.264 82.8725 15.104 82.7285 16.244H86.4605C86.4005 15.008 85.7645 14.264 84.6485 14.264ZM91.6343 20.18C89.7023 20.18 88.4903 18.668 88.4903 16.784C88.4903 14.912 89.7023 13.4 91.6343 13.4C93.1823 13.4 94.1903 14.276 94.4183 15.656H93.3023C93.1463 14.816 92.5703 14.3 91.6343 14.3C90.3143 14.3 89.6303 15.392 89.6303 16.784C89.6303 18.176 90.3143 19.268 91.6343 19.268C92.6423 19.268 93.2423 18.68 93.3263 17.72H94.4303C94.2863 19.256 93.2663 20.18 91.6343 20.18ZM99.7892 20L97.5812 16.604L96.6692 17.468V20H95.5532V11.072H96.6692V15.308C96.6692 15.536 96.6452 15.992 96.6212 16.304L99.4172 13.556H100.809L98.3492 15.872L101.097 20H99.7892ZM104.502 20.18C102.558 20.18 101.346 18.668 101.346 16.784C101.346 14.912 102.558 13.4 104.502 13.4C106.446 13.4 107.634 14.912 107.634 16.784C107.634 18.668 106.446 20.18 104.502 20.18ZM104.49 19.268C105.81 19.268 106.494 18.176 106.494 16.784C106.494 15.392 105.81 14.288 104.49 14.288C103.17 14.288 102.486 15.392 102.486 16.784C102.486 18.176 103.17 19.268 104.49 19.268ZM114.039 20H112.935V19.1H112.911C112.455 19.736 111.891 20.144 110.967 20.144C109.635 20.144 108.783 19.34 108.783 17.996V13.556H109.899V17.936C109.899 18.752 110.415 19.232 111.303 19.232C112.287 19.232 112.923 18.476 112.923 17.48V13.556H114.039V20ZM115.196 14.42V13.556H116.204V11.528H117.308V13.556H118.64V14.42H117.308V18.488C117.308 18.956 117.56 19.088 117.968 19.088C118.16 19.088 118.412 19.04 118.532 19.004H118.568V19.94C118.268 20.012 117.956 20.048 117.668 20.048C116.804 20.036 116.204 19.688 116.204 18.74V14.42H115.196Z" fill="#171717"/>
<path d="M64.5 79C64.5 79.2761 64.2761 79.5 64 79.5C63.7239 79.5 63.5 79.2761 63.5 79H64H64.5ZM63.6464 38.6464C63.8417 38.4512 64.1583 38.4512 64.3536 38.6464L67.5355 41.8284C67.7308 42.0237 67.7308 42.3403 67.5355 42.5355C67.3403 42.7308 67.0237 42.7308 66.8284 42.5355L64 39.7071L61.1716 42.5355C60.9763 42.7308 60.6597 42.7308 60.4645 42.5355C60.2692 42.3403 60.2692 42.0237 60.4645 41.8284L63.6464 38.6464ZM64 79H63.5V39H64H64.5V79H64Z" fill="#171717"/>
<rect x="64" y="79.7071" width="87" height="87" rx="15.5" transform="rotate(45 64 79.7071)" fill="white"/>
<rect x="64" y="79.7071" width="87" height="87" rx="15.5" transform="rotate(45 64 79.7071)" stroke="#171717"/>
<path d="M34.2384 145.227V136.299H35.5224L39.1824 141.891C39.6144 142.551 40.1784 143.667 40.1784 143.667H40.2144C40.2144 143.667 40.1304 142.503 40.1304 141.759V136.299H41.2824V145.227H40.0104L36.3624 139.635C35.9304 138.963 35.3424 137.871 35.3424 137.871H35.3184C35.3184 137.871 35.3904 139.035 35.3904 139.755V145.227H34.2384ZM45.773 145.407C43.793 145.407 42.629 143.895 42.629 142.011C42.629 140.139 43.865 138.627 45.713 138.627C46.673 138.627 47.417 138.999 47.921 139.623C48.449 140.259 48.713 141.183 48.713 142.275H43.769C43.853 143.535 44.537 144.495 45.785 144.495C46.673 144.495 47.285 144.075 47.489 143.391H48.581C48.293 144.591 47.261 145.407 45.773 145.407ZM45.713 139.491C44.549 139.491 43.937 140.331 43.793 141.471H47.525C47.465 140.235 46.829 139.491 45.713 139.491ZM51.1776 145.227L49.1376 138.783H50.3256L51.3336 142.359C51.5376 143.091 51.7536 144.243 51.7536 144.243H51.7776C51.7776 144.243 51.9936 143.163 52.2096 142.383L53.1816 138.783H54.2376L55.1976 142.383C55.3776 143.067 55.6056 144.255 55.6056 144.255H55.6296C55.6296 144.255 55.8096 143.151 56.0496 142.359L57.1176 138.783H58.2696L56.1696 145.227H55.0536L54.1056 141.675C53.9496 141.051 53.6976 139.875 53.6976 139.875H53.6736C53.6736 139.875 53.4336 141.063 53.2776 141.675L52.3056 145.227H51.1776ZM65.8041 145.359C63.8001 145.359 62.3601 144.471 62.3601 142.323V136.299H63.5841V142.215C63.5841 143.679 64.4001 144.315 65.8281 144.315C67.2081 144.315 68.0241 143.679 68.0241 142.215V136.299H69.2481V142.323C69.2481 144.471 67.7601 145.359 65.8041 145.359ZM73.2693 145.419C71.4933 145.419 70.4853 144.579 70.3893 143.271H71.5173C71.6493 144.207 72.3693 144.519 73.2933 144.519C74.3133 144.519 74.7453 144.075 74.7453 143.499C74.7453 142.791 74.2053 142.611 73.0653 142.383C71.8053 142.119 70.6653 141.855 70.6653 140.439C70.6653 139.335 71.5293 138.639 73.0293 138.639C74.6493 138.639 75.4533 139.395 75.5973 140.511H74.4813C74.3853 139.851 73.9293 139.479 73.0053 139.479C72.1293 139.479 71.7573 139.887 71.7573 140.379C71.7573 141.051 72.3813 141.183 73.4733 141.399C74.7573 141.651 75.8613 141.939 75.8613 143.439C75.8613 144.747 74.7813 145.419 73.2693 145.419ZM79.98 145.407C78 145.407 76.836 143.895 76.836 142.011C76.836 140.139 78.072 138.627 79.92 138.627C80.88 138.627 81.624 138.999 82.128 139.623C82.656 140.259 82.92 141.183 82.92 142.275H77.976C78.06 143.535 78.744 144.495 79.992 144.495C80.88 144.495 81.492 144.075 81.696 143.391H82.788C82.5 144.591 81.468 145.407 79.98 145.407ZM79.92 139.491C78.756 139.491 78.144 140.331 78 141.471H81.732C81.672 140.235 81.036 139.491 79.92 139.491ZM85.2138 138.783V139.947H85.2498C85.6458 139.203 86.3058 138.699 87.1578 138.699C87.3378 138.699 87.4458 138.723 87.5658 138.771V139.827H87.5298C87.3738 139.779 87.2658 139.767 87.0738 139.767C86.0778 139.767 85.2258 140.511 85.2258 141.723V145.227H84.1098V138.783H85.2138ZM90.571 145.227V143.907H91.879V145.227H90.571ZM90.703 142.635C90.715 141.435 91.063 140.907 91.975 140.115C92.527 139.635 93.043 139.239 93.043 138.471C93.043 137.715 92.479 137.127 91.471 137.127C90.223 137.127 89.599 137.943 89.563 139.035H88.435C88.471 137.583 89.395 136.143 91.471 136.143C93.175 136.143 94.219 137.151 94.219 138.447C94.219 139.431 93.679 139.995 93.091 140.475C92.575 140.907 92.251 141.195 92.035 141.483C91.819 141.783 91.759 142.107 91.747 142.635H90.703Z" fill="#171717"/>
<path d="M55.5197 213.449V204.521H56.8037L60.4637 210.113C60.8957 210.773 61.4597 211.889 61.4597 211.889H61.4957C61.4957 211.889 61.4117 210.725 61.4117 209.981V204.521H62.5637V213.449H61.2917L57.6437 207.857C57.2117 207.185 56.6237 206.093 56.6237 206.093H56.5997C56.5997 206.093 56.6717 207.257 56.6717 207.977V213.449H55.5197ZM68.4462 213.641C65.7462 213.641 64.0782 211.649 64.0782 208.985C64.0782 206.309 65.7462 204.329 68.4462 204.329C71.1342 204.329 72.8262 206.309 72.8262 208.985C72.8262 211.649 71.1342 213.641 68.4462 213.641ZM68.4462 212.561C70.4742 212.561 71.5542 211.025 71.5542 208.985C71.5542 206.933 70.4742 205.385 68.4462 205.385C66.4182 205.385 65.3262 206.933 65.3262 208.985C65.3262 211.025 66.4182 212.561 68.4462 212.561Z" fill="#171717"/>
<path d="M64.5 218.449C64.5 218.173 64.2761 217.949 64 217.949C63.7239 217.949 63.5 218.173 63.5 218.449H64H64.5ZM63.6464 250.803C63.8417 250.998 64.1583 250.998 64.3536 250.803L67.5355 247.621C67.7308 247.426 67.7308 247.109 67.5355 246.914C67.3403 246.718 67.0237 246.718 66.8284 246.914L64 249.742L61.1716 246.914C60.9763 246.718 60.6597 246.718 60.4645 246.914C60.2692 247.109 60.2692 247.426 60.4645 247.621L63.6464 250.803ZM64 218.449H63.5V250.449H64H64.5V218.449H64Z" fill="#171717"/>
<rect x="32.5" y="258.449" width="63" height="47" rx="8" fill="#FFDFE9"/>
<path d="M49.59 286.449V277.521H50.814V285.333H55.434V286.449H49.59ZM59.1444 286.629C57.2004 286.629 55.9884 285.117 55.9884 283.233C55.9884 281.361 57.2004 279.849 59.1444 279.849C61.0884 279.849 62.2764 281.361 62.2764 283.233C62.2764 285.117 61.0884 286.629 59.1444 286.629ZM59.1324 285.717C60.4524 285.717 61.1364 284.625 61.1364 283.233C61.1364 281.841 60.4524 280.737 59.1324 280.737C57.8124 280.737 57.1284 281.841 57.1284 283.233C57.1284 284.625 57.8124 285.717 59.1324 285.717ZM66.1854 288.705C64.4934 288.705 63.5334 288.033 63.4134 286.893H64.4574C64.5534 287.565 65.2014 287.841 66.1614 287.841C67.3134 287.841 67.9494 287.325 67.9494 286.233V286.053C67.9494 285.681 67.9614 285.333 67.9734 285.129H67.9494C67.5054 285.765 66.9414 286.161 66.0294 286.161C64.3854 286.161 63.2094 284.877 63.2094 283.005C63.2094 281.025 64.4574 279.849 65.9694 279.849C66.8934 279.849 67.5174 280.209 67.9254 280.857H67.9494V280.005H69.0534V286.185C69.0534 287.037 68.7654 287.673 68.2734 288.093C67.7694 288.513 67.0494 288.705 66.1854 288.705ZM66.1374 285.249C67.5414 285.249 68.0214 284.265 68.0214 282.957C68.0214 281.601 67.4094 280.773 66.1254 280.773C64.9494 280.773 64.3494 281.661 64.3494 283.017C64.3494 284.385 64.9734 285.249 66.1374 285.249ZM70.5741 278.817V277.521H71.7381V278.817H70.5741ZM70.5981 286.449V280.005H71.7141V286.449H70.5981ZM74.3505 280.005V280.917H74.3865C74.8545 280.269 75.4905 279.849 76.4265 279.849C77.7705 279.849 78.5985 280.605 78.5985 281.949V286.449H77.4945V282.081C77.4945 281.253 76.9545 280.785 76.0785 280.785C75.0825 280.785 74.3625 281.493 74.3625 282.525V286.449H73.2465V280.005H74.3505Z" fill="#171717"/>
<path d="M129.897 164V160.256L126.681 155.072H128.049L129.657 157.76C130.029 158.396 130.533 159.428 130.533 159.428H130.557C130.557 159.428 131.073 158.396 131.445 157.76L133.065 155.072H134.373L131.121 160.316V164H129.897ZM135.522 164V155.072H141.87V156.152H136.746V158.852H141.378V159.872H136.746V162.884H142.002V164H135.522ZM146.673 164.18C144.177 164.18 142.941 162.812 142.845 161.108H144.057C144.201 162.452 145.089 163.196 146.709 163.196C147.897 163.196 148.761 162.668 148.761 161.588C148.761 160.424 147.729 160.148 146.169 159.8C144.573 159.464 143.217 159.008 143.217 157.292C143.217 155.792 144.477 154.904 146.313 154.904C148.509 154.904 149.493 156.008 149.709 157.532H148.521C148.365 156.452 147.585 155.864 146.325 155.864C145.149 155.864 144.381 156.344 144.381 157.232C144.381 158.204 145.353 158.48 146.697 158.756C148.425 159.104 149.997 159.548 149.997 161.54C149.997 163.232 148.605 164.18 146.673 164.18Z" fill="#171717"/>
<path d="M157 159C156.724 159 156.5 159.224 156.5 159.5C156.5 159.776 156.724 160 157 160V159.5V159ZM184.354 159.854C184.549 159.658 184.549 159.342 184.354 159.146L181.172 155.964C180.976 155.769 180.66 155.769 180.464 155.964C180.269 156.16 180.269 156.476 180.464 156.672L183.293 159.5L180.464 162.328C180.269 162.524 180.269 162.84 180.464 163.036C180.66 163.231 180.976 163.231 181.172 163.036L184.354 159.854ZM157 159.5V160H184V159.5V159H157V159.5Z" fill="#171717"/>
<rect x="192" y="144" width="128" height="31" rx="8" fill="#FFDFE9"/>
<path d="M211.215 164V155.072H212.499L216.159 160.664C216.591 161.324 217.155 162.44 217.155 162.44H217.191C217.191 162.44 217.107 161.276 217.107 160.532V155.072H218.259V164H216.987L213.339 158.408C212.907 157.736 212.319 156.644 212.319 156.644H212.295C212.295 156.644 212.367 157.808 212.367 158.528V164H211.215ZM222.75 164.18C220.77 164.18 219.606 162.668 219.606 160.784C219.606 158.912 220.842 157.4 222.69 157.4C223.65 157.4 224.394 157.772 224.898 158.396C225.426 159.032 225.69 159.956 225.69 161.048H220.746C220.83 162.308 221.514 163.268 222.762 163.268C223.65 163.268 224.262 162.848 224.466 162.164H225.558C225.27 163.364 224.238 164.18 222.75 164.18ZM222.69 158.264C221.526 158.264 220.914 159.104 220.77 160.244H224.502C224.442 159.008 223.806 158.264 222.69 158.264ZM228.154 164L226.114 157.556H227.302L228.31 161.132C228.514 161.864 228.73 163.016 228.73 163.016H228.754C228.754 163.016 228.97 161.936 229.186 161.156L230.158 157.556H231.214L232.174 161.156C232.354 161.84 232.582 163.028 232.582 163.028H232.606C232.606 163.028 232.786 161.924 233.026 161.132L234.094 157.556H235.246L233.146 164H232.03L231.082 160.448C230.926 159.824 230.674 158.648 230.674 158.648H230.65C230.65 158.648 230.41 159.836 230.254 160.448L229.282 164H228.154ZM240.429 157.556V158.72H240.465C240.861 157.976 241.521 157.472 242.373 157.472C242.553 157.472 242.661 157.496 242.781 157.544V158.6H242.745C242.589 158.552 242.481 158.54 242.289 158.54C241.293 158.54 240.441 159.284 240.441 160.496V164H239.325V157.556H240.429ZM246.433 164.18C244.453 164.18 243.289 162.668 243.289 160.784C243.289 158.912 244.525 157.4 246.373 157.4C247.333 157.4 248.077 157.772 248.581 158.396C249.109 159.032 249.373 159.956 249.373 161.048H244.429C244.513 162.308 245.197 163.268 246.445 163.268C247.333 163.268 247.945 162.848 248.149 162.164H249.241C248.953 163.364 247.921 164.18 246.433 164.18ZM246.373 158.264C245.209 158.264 244.597 159.104 244.453 160.244H248.185C248.125 159.008 247.489 158.264 246.373 158.264ZM253.287 166.256C251.595 166.256 250.635 165.584 250.515 164.444H251.559C251.655 165.116 252.303 165.392 253.263 165.392C254.415 165.392 255.051 164.876 255.051 163.784V163.604C255.051 163.232 255.063 162.884 255.075 162.68H255.051C254.607 163.316 254.043 163.712 253.131 163.712C251.487 163.712 250.311 162.428 250.311 160.556C250.311 158.576 251.559 157.4 253.071 157.4C253.995 157.4 254.619 157.76 255.027 158.408H255.051V157.556H256.155V163.736C256.155 164.588 255.867 165.224 255.375 165.644C254.871 166.064 254.151 166.256 253.287 166.256ZM253.239 162.8C254.643 162.8 255.123 161.816 255.123 160.508C255.123 159.152 254.511 158.324 253.227 158.324C252.051 158.324 251.451 159.212 251.451 160.568C251.451 161.936 252.075 162.8 253.239 162.8ZM257.676 156.368V155.072H258.84V156.368H257.676ZM257.7 164V157.556H258.816V164H257.7ZM262.82 164.192C261.044 164.192 260.036 163.352 259.94 162.044H261.068C261.2 162.98 261.92 163.292 262.844 163.292C263.864 163.292 264.296 162.848 264.296 162.272C264.296 161.564 263.756 161.384 262.616 161.156C261.356 160.892 260.216 160.628 260.216 159.212C260.216 158.108 261.08 157.412 262.58 157.412C264.2 157.412 265.004 158.168 265.148 159.284H264.032C263.936 158.624 263.48 158.252 262.556 158.252C261.68 158.252 261.308 158.66 261.308 159.152C261.308 159.824 261.932 159.956 263.024 160.172C264.308 160.424 265.412 160.712 265.412 162.212C265.412 163.52 264.332 164.192 262.82 164.192ZM266.104 158.42V157.556H267.112V155.528H268.216V157.556H269.548V158.42H268.216V162.488C268.216 162.956 268.468 163.088 268.876 163.088C269.068 163.088 269.32 163.04 269.44 163.004H269.476V163.94C269.176 164.012 268.864 164.048 268.576 164.048C267.712 164.036 267.112 163.688 267.112 162.74V158.42H266.104ZM271.811 157.556V158.72H271.847C272.243 157.976 272.903 157.472 273.755 157.472C273.935 157.472 274.043 157.496 274.163 157.544V158.6H274.127C273.971 158.552 273.863 158.54 273.671 158.54C272.675 158.54 271.823 159.284 271.823 160.496V164H270.707V157.556H271.811ZM276.94 164.132C275.716 164.132 274.756 163.532 274.756 162.296C274.756 160.796 275.86 160.472 277.528 160.268C278.476 160.16 279.088 160.004 279.088 159.344C279.088 158.648 278.596 158.216 277.708 158.216C276.688 158.216 276.196 158.696 276.16 159.464H275.08C275.128 158.372 275.956 157.4 277.696 157.4C278.308 157.4 278.848 157.508 279.256 157.748C279.796 158.072 280.12 158.636 280.12 159.5V162.512C280.12 163.028 280.24 163.304 280.804 163.184H280.852V163.964C280.696 164.012 280.516 164.06 280.252 164.06C279.568 164.06 279.232 163.736 279.112 163.052H279.1C278.692 163.616 278.032 164.132 276.94 164.132ZM277.216 163.316C278.5 163.316 279.1 162.368 279.1 161.624V160.568C278.776 160.772 278.212 160.928 277.684 161.024C276.628 161.204 275.932 161.396 275.932 162.284C275.932 163.112 276.568 163.316 277.216 163.316ZM281.245 158.42V157.556H282.253V155.528H283.357V157.556H284.689V158.42H283.357V162.488C283.357 162.956 283.609 163.088 284.017 163.088C284.209 163.088 284.461 163.04 284.581 163.004H284.617V163.94C284.317 164.012 284.005 164.048 283.717 164.048C282.853 164.036 282.253 163.688 282.253 162.74V158.42H281.245ZM285.824 156.368V155.072H286.988V156.368H285.824ZM285.848 164V157.556H286.964V164H285.848ZM291.305 164.18C289.361 164.18 288.149 162.668 288.149 160.784C288.149 158.912 289.361 157.4 291.305 157.4C293.249 157.4 294.437 158.912 294.437 160.784C294.437 162.668 293.249 164.18 291.305 164.18ZM291.293 163.268C292.613 163.268 293.297 162.176 293.297 160.784C293.297 159.392 292.613 158.288 291.293 158.288C289.973 158.288 289.289 159.392 289.289 160.784C289.289 162.176 289.973 163.268 291.293 163.268ZM296.726 157.556V158.468H296.762C297.23 157.82 297.866 157.4 298.802 157.4C300.146 157.4 300.974 158.156 300.974 159.5V164H299.87V159.632C299.87 158.804 299.33 158.336 298.454 158.336C297.458 158.336 296.738 159.044 296.738 160.076V164H295.622V157.556H296.726Z" fill="#171717"/>
<path d="M328 160.5C327.724 160.5 327.5 160.724 327.5 161C327.5 161.276 327.724 161.5 328 161.5V161V160.5ZM376.354 161.354C376.549 161.158 376.549 160.842 376.354 160.646L373.172 157.464C372.976 157.269 372.66 157.269 372.464 157.464C372.269 157.66 372.269 157.976 372.464 158.172L375.293 161L372.464 163.828C372.269 164.024 372.269 164.34 372.464 164.536C372.66 164.731 372.976 164.731 373.172 164.536L376.354 161.354ZM328 161V161.5H376V161V160.5H328V161Z" fill="#171717"/>
<rect x="384" y="144" width="128" height="31" rx="8" fill="#E1EFFE"/>
<path d="M396.437 164.132C394.433 164.132 392.993 163.244 392.993 161.096V155.072H394.217V160.988C394.217 162.452 395.033 163.088 396.461 163.088C397.841 163.088 398.657 162.452 398.657 160.988V155.072H399.881V161.096C399.881 163.244 398.393 164.132 396.437 164.132ZM403.902 164.192C402.126 164.192 401.118 163.352 401.022 162.044H402.15C402.282 162.98 403.002 163.292 403.926 163.292C404.946 163.292 405.378 162.848 405.378 162.272C405.378 161.564 404.838 161.384 403.698 161.156C402.438 160.892 401.298 160.628 401.298 159.212C401.298 158.108 402.162 157.412 403.662 157.412C405.282 157.412 406.086 158.168 406.23 159.284H405.114C405.018 158.624 404.562 158.252 403.638 158.252C402.762 158.252 402.39 158.66 402.39 159.152C402.39 159.824 403.014 159.956 404.106 160.172C405.39 160.424 406.494 160.712 406.494 162.212C406.494 163.52 405.414 164.192 403.902 164.192ZM410.613 164.18C408.633 164.18 407.469 162.668 407.469 160.784C407.469 158.912 408.705 157.4 410.553 157.4C411.513 157.4 412.257 157.772 412.761 158.396C413.289 159.032 413.553 159.956 413.553 161.048H408.609C408.693 162.308 409.377 163.268 410.625 163.268C411.513 163.268 412.125 162.848 412.329 162.164H413.421C413.133 163.364 412.101 164.18 410.613 164.18ZM410.553 158.264C409.389 158.264 408.777 159.104 408.633 160.244H412.365C412.305 159.008 411.669 158.264 410.553 158.264ZM415.847 157.556V158.72H415.883C416.279 157.976 416.939 157.472 417.791 157.472C417.971 157.472 418.079 157.496 418.199 157.544V158.6H418.163C418.007 158.552 417.899 158.54 417.707 158.54C416.711 158.54 415.859 159.284 415.859 160.496V164H414.743V157.556H415.847ZM425.273 164.18C423.341 164.18 422.129 162.668 422.129 160.784C422.129 158.912 423.341 157.4 425.273 157.4C426.821 157.4 427.829 158.276 428.057 159.656H426.941C426.785 158.816 426.209 158.3 425.273 158.3C423.953 158.3 423.269 159.392 423.269 160.784C423.269 162.176 423.953 163.268 425.273 163.268C426.281 163.268 426.881 162.68 426.965 161.72H428.069C427.925 163.256 426.905 164.18 425.273 164.18ZM432 164.18C430.056 164.18 428.844 162.668 428.844 160.784C428.844 158.912 430.056 157.4 432 157.4C433.944 157.4 435.132 158.912 435.132 160.784C435.132 162.668 433.944 164.18 432 164.18ZM431.988 163.268C433.308 163.268 433.992 162.176 433.992 160.784C433.992 159.392 433.308 158.288 431.988 158.288C430.668 158.288 429.984 159.392 429.984 160.784C429.984 162.176 430.668 163.268 431.988 163.268ZM437.421 157.556V158.468H437.457C437.925 157.82 438.561 157.4 439.497 157.4C440.841 157.4 441.669 158.156 441.669 159.5V164H440.565V159.632C440.565 158.804 440.025 158.336 439.149 158.336C438.153 158.336 437.433 159.044 437.433 160.076V164H436.317V157.556H437.421ZM444.276 157.556V158.468H444.312C444.78 157.82 445.416 157.4 446.352 157.4C447.696 157.4 448.524 158.156 448.524 159.5V164H447.42V159.632C447.42 158.804 446.88 158.336 446.004 158.336C445.008 158.336 444.288 159.044 444.288 160.076V164H443.172V157.556H444.276ZM452.824 164.18C450.844 164.18 449.68 162.668 449.68 160.784C449.68 158.912 450.916 157.4 452.764 157.4C453.724 157.4 454.468 157.772 454.972 158.396C455.5 159.032 455.764 159.956 455.764 161.048H450.82C450.904 162.308 451.588 163.268 452.836 163.268C453.724 163.268 454.336 162.848 454.54 162.164H455.632C455.344 163.364 454.312 164.18 452.824 164.18ZM452.764 158.264C451.6 158.264 450.988 159.104 450.844 160.244H454.576C454.516 159.008 453.88 158.264 452.764 158.264ZM459.75 164.18C457.818 164.18 456.606 162.668 456.606 160.784C456.606 158.912 457.818 157.4 459.75 157.4C461.298 157.4 462.306 158.276 462.534 159.656H461.418C461.262 158.816 460.686 158.3 459.75 158.3C458.43 158.3 457.746 159.392 457.746 160.784C457.746 162.176 458.43 163.268 459.75 163.268C460.758 163.268 461.358 162.68 461.442 161.72H462.546C462.402 163.256 461.382 164.18 459.75 164.18ZM463.272 158.42V157.556H464.28V155.528H465.384V157.556H466.716V158.42H465.384V162.488C465.384 162.956 465.636 163.088 466.044 163.088C466.236 163.088 466.488 163.04 466.608 163.004H466.644V163.94C466.344 164.012 466.032 164.048 465.744 164.048C464.88 164.036 464.28 163.688 464.28 162.74V158.42H463.272ZM470.347 164.192C468.571 164.192 467.563 163.352 467.467 162.044H468.595C468.727 162.98 469.447 163.292 470.371 163.292C471.391 163.292 471.823 162.848 471.823 162.272C471.823 161.564 471.283 161.384 470.143 161.156C468.883 160.892 467.743 160.628 467.743 159.212C467.743 158.108 468.607 157.412 470.107 157.412C471.727 157.412 472.531 158.168 472.675 159.284H471.559C471.463 158.624 471.007 158.252 470.083 158.252C469.207 158.252 468.835 158.66 468.835 159.152C468.835 159.824 469.459 159.956 470.551 160.172C471.835 160.424 472.939 160.712 472.939 162.212C472.939 163.52 471.859 164.192 470.347 164.192ZM480.488 164.192C479.624 164.192 478.892 163.808 478.472 163.088H478.436V164H477.332V155.072H478.448V157.352C478.448 157.844 478.424 158.3 478.412 158.576H478.448C478.868 157.892 479.588 157.4 480.524 157.4C482.156 157.4 483.272 158.672 483.272 160.796C483.272 162.872 482.228 164.192 480.488 164.192ZM480.368 163.268C481.556 163.268 482.132 162.224 482.132 160.808C482.132 159.392 481.556 158.336 480.38 158.336C479.012 158.336 478.388 159.44 478.388 160.808C478.388 162.212 479.048 163.268 480.368 163.268ZM486.377 164.132C485.153 164.132 484.193 163.532 484.193 162.296C484.193 160.796 485.297 160.472 486.965 160.268C487.913 160.16 488.525 160.004 488.525 159.344C488.525 158.648 488.033 158.216 487.145 158.216C486.125 158.216 485.633 158.696 485.597 159.464H484.517C484.565 158.372 485.393 157.4 487.133 157.4C487.745 157.4 488.285 157.508 488.693 157.748C489.233 158.072 489.557 158.636 489.557 159.5V162.512C489.557 163.028 489.677 163.304 490.241 163.184H490.289V163.964C490.133 164.012 489.953 164.06 489.689 164.06C489.005 164.06 488.669 163.736 488.549 163.052H488.537C488.129 163.616 487.469 164.132 486.377 164.132ZM486.653 163.316C487.937 163.316 488.537 162.368 488.537 161.624V160.568C488.213 160.772 487.649 160.928 487.121 161.024C486.065 161.204 485.369 161.396 485.369 162.284C485.369 163.112 486.005 163.316 486.653 163.316ZM492.3 157.556V158.468H492.336C492.804 157.82 493.44 157.4 494.376 157.4C495.72 157.4 496.548 158.156 496.548 159.5V164H495.444V159.632C495.444 158.804 494.904 158.336 494.028 158.336C493.032 158.336 492.312 159.044 492.312 160.076V164H491.196V157.556H492.3ZM502.287 164L500.079 160.604L499.167 161.468V164H498.051V155.072H499.167V159.308C499.167 159.536 499.143 159.992 499.119 160.304L501.915 157.556H503.307L500.847 159.872L503.595 164H502.287Z" fill="#171717"/>
<path d="M520 160.5C519.724 160.5 519.5 160.724 519.5 161C519.5 161.276 519.724 161.5 520 161.5V161V160.5ZM568.354 161.354C568.549 161.158 568.549 160.842 568.354 160.646L565.172 157.464C564.976 157.269 564.66 157.269 564.464 157.464C564.269 157.66 564.269 157.976 564.464 158.172L567.293 161L564.464 163.828C564.269 164.024 564.269 164.34 564.464 164.536C564.66 164.731 564.976 164.731 565.172 164.536L568.354 161.354ZM520 161V161.5H568V161V160.5H520V161Z" fill="#171717"/>
<rect x="640" y="99.7071" width="87" height="87" rx="15.5" transform="rotate(45 640 99.7071)" fill="white"/>
<rect x="640" y="99.7071" width="87" height="87" rx="15.5" transform="rotate(45 640 99.7071)" stroke="#171717"/>
<path d="M613.439 158.359C611.435 158.359 609.995 157.471 609.995 155.323V149.299H611.219V155.215C611.219 156.679 612.035 157.315 613.463 157.315C614.843 157.315 615.659 156.679 615.659 155.215V149.299H616.883V155.323C616.883 157.471 615.395 158.359 613.439 158.359ZM619.536 151.783V152.695H619.572C620.04 152.047 620.676 151.627 621.612 151.627C622.956 151.627 623.784 152.383 623.784 153.727V158.227H622.68V153.859C622.68 153.031 622.14 152.563 621.264 152.563C620.268 152.563 619.548 153.271 619.548 154.303V158.227H618.432V151.783H619.536ZM627.784 158.419C626.044 158.419 624.94 157.099 624.94 155.023C624.94 152.899 626.164 151.627 627.76 151.627C628.672 151.627 629.392 152.083 629.8 152.767H629.824C629.8 152.479 629.788 152.011 629.788 151.579V149.299H630.904V158.227H629.8V157.303H629.776C629.368 157.999 628.684 158.419 627.784 158.419ZM627.868 157.495C629.248 157.495 629.848 156.451 629.848 155.035C629.848 153.583 629.164 152.563 627.868 152.563C626.68 152.563 626.08 153.619 626.08 155.035C626.08 156.451 626.68 157.495 627.868 157.495ZM635.232 158.407C633.252 158.407 632.088 156.895 632.088 155.011C632.088 153.139 633.324 151.627 635.172 151.627C636.132 151.627 636.876 151.999 637.38 152.623C637.908 153.259 638.172 154.183 638.172 155.275H633.228C633.312 156.535 633.996 157.495 635.244 157.495C636.132 157.495 636.744 157.075 636.948 156.391H638.04C637.752 157.591 636.72 158.407 635.232 158.407ZM635.172 152.491C634.008 152.491 633.396 153.331 633.252 154.471H636.984C636.924 153.235 636.288 152.491 635.172 152.491ZM640.466 151.783V152.947H640.502C640.898 152.203 641.558 151.699 642.41 151.699C642.59 151.699 642.698 151.723 642.818 151.771V152.827H642.782C642.626 152.779 642.518 152.767 642.326 152.767C641.33 152.767 640.478 153.511 640.478 154.723V158.227H639.362V151.783H640.466ZM645.301 158.227L643.261 151.783H644.449L645.457 155.359C645.661 156.091 645.877 157.243 645.877 157.243H645.901C645.901 157.243 646.117 156.163 646.333 155.383L647.305 151.783H648.361L649.321 155.383C649.501 156.067 649.729 157.255 649.729 157.255H649.753C649.753 157.255 649.933 156.151 650.173 155.359L651.241 151.783H652.393L650.293 158.227H649.177L648.229 154.675C648.073 154.051 647.821 152.875 647.821 152.875H647.797C647.797 152.875 647.557 154.063 647.401 154.675L646.429 158.227H645.301ZM654.388 151.783V152.947H654.424C654.82 152.203 655.48 151.699 656.332 151.699C656.512 151.699 656.62 151.723 656.74 151.771V152.827H656.704C656.548 152.779 656.44 152.767 656.248 152.767C655.252 152.767 654.4 153.511 654.4 154.723V158.227H653.284V151.783H654.388ZM657.807 150.595V149.299H658.971V150.595H657.807ZM657.831 158.227V151.783H658.947V158.227H657.831ZM660.083 152.647V151.783H661.091V149.755H662.195V151.783H663.527V152.647H662.195V156.715C662.195 157.183 662.447 157.315 662.855 157.315C663.047 157.315 663.299 157.267 663.419 157.231H663.455V158.167C663.155 158.239 662.843 158.275 662.555 158.275C661.691 158.263 661.091 157.915 661.091 156.967V152.647H660.083ZM667.423 158.407C665.443 158.407 664.279 156.895 664.279 155.011C664.279 153.139 665.515 151.627 667.363 151.627C668.323 151.627 669.067 151.999 669.571 152.623C670.099 153.259 670.363 154.183 670.363 155.275H665.419C665.503 156.535 666.187 157.495 667.435 157.495C668.323 157.495 668.935 157.075 669.139 156.391H670.231C669.943 157.591 668.911 158.407 667.423 158.407ZM667.363 152.491C666.199 152.491 665.587 153.331 665.443 154.471H669.175C669.115 153.235 668.479 152.491 667.363 152.491ZM617.112 173.407C614.616 173.407 613.38 172.039 613.284 170.335H614.496C614.64 171.679 615.528 172.423 617.148 172.423C618.336 172.423 619.2 171.895 619.2 170.815C619.2 169.651 618.168 169.375 616.608 169.027C615.012 168.691 613.656 168.235 613.656 166.519C613.656 165.019 614.916 164.131 616.752 164.131C618.948 164.131 619.932 165.235 620.148 166.759H618.96C618.804 165.679 618.024 165.091 616.764 165.091C615.588 165.091 614.82 165.571 614.82 166.459C614.82 167.431 615.792 167.707 617.136 167.983C618.864 168.331 620.436 168.775 620.436 170.767C620.436 172.459 619.044 173.407 617.112 173.407ZM626.963 173.227H625.859V172.327H625.835C625.379 172.963 624.815 173.371 623.891 173.371C622.559 173.371 621.707 172.567 621.707 171.223V166.783H622.823V171.163C622.823 171.979 623.339 172.459 624.227 172.459C625.211 172.459 625.847 171.703 625.847 170.707V166.783H626.963V173.227ZM631.312 173.407C629.38 173.407 628.168 171.895 628.168 170.011C628.168 168.139 629.38 166.627 631.312 166.627C632.86 166.627 633.868 167.503 634.096 168.883H632.98C632.824 168.043 632.248 167.527 631.312 167.527C629.992 167.527 629.308 168.619 629.308 170.011C629.308 171.403 629.992 172.495 631.312 172.495C632.32 172.495 632.92 171.907 633.004 170.947H634.108C633.964 172.483 632.944 173.407 631.312 173.407ZM638.027 173.407C636.095 173.407 634.883 171.895 634.883 170.011C634.883 168.139 636.095 166.627 638.027 166.627C639.575 166.627 640.583 167.503 640.811 168.883H639.695C639.539 168.043 638.963 167.527 638.027 167.527C636.707 167.527 636.023 168.619 636.023 170.011C636.023 171.403 636.707 172.495 638.027 172.495C639.035 172.495 639.635 171.907 639.719 170.947H640.823C640.679 172.483 639.659 173.407 638.027 173.407ZM644.742 173.407C642.762 173.407 641.598 171.895 641.598 170.011C641.598 168.139 642.834 166.627 644.682 166.627C645.642 166.627 646.386 166.999 646.89 167.623C647.418 168.259 647.682 169.183 647.682 170.275H642.738C642.822 171.535 643.506 172.495 644.754 172.495C645.642 172.495 646.254 172.075 646.458 171.391H647.55C647.262 172.591 646.23 173.407 644.742 173.407ZM644.682 167.491C643.518 167.491 642.906 168.331 642.762 169.471H646.494C646.434 168.235 645.798 167.491 644.682 167.491ZM651.344 173.419C649.568 173.419 648.56 172.579 648.464 171.271H649.592C649.724 172.207 650.444 172.519 651.368 172.519C652.388 172.519 652.82 172.075 652.82 171.499C652.82 170.791 652.28 170.611 651.14 170.383C649.88 170.119 648.74 169.855 648.74 168.439C648.74 167.335 649.604 166.639 651.104 166.639C652.724 166.639 653.528 167.395 653.672 168.511H652.556C652.46 167.851 652.004 167.479 651.08 167.479C650.204 167.479 649.832 167.887 649.832 168.379C649.832 169.051 650.456 169.183 651.548 169.399C652.832 169.651 653.936 169.939 653.936 171.439C653.936 172.747 652.856 173.419 651.344 173.419ZM657.613 173.419C655.837 173.419 654.829 172.579 654.733 171.271H655.861C655.993 172.207 656.713 172.519 657.637 172.519C658.657 172.519 659.089 172.075 659.089 171.499C659.089 170.791 658.549 170.611 657.409 170.383C656.149 170.119 655.009 169.855 655.009 168.439C655.009 167.335 655.873 166.639 657.373 166.639C658.993 166.639 659.797 167.395 659.941 168.511H658.825C658.729 167.851 658.273 167.479 657.349 167.479C656.473 167.479 656.101 167.887 656.101 168.379C656.101 169.051 656.725 169.183 657.817 169.399C659.101 169.651 660.205 169.939 660.205 171.439C660.205 172.747 659.125 173.419 657.613 173.419ZM662.973 173.227V171.907H664.281V173.227H662.973ZM663.105 170.635C663.117 169.435 663.465 168.907 664.377 168.115C664.929 167.635 665.445 167.239 665.445 166.471C665.445 165.715 664.881 165.127 663.873 165.127C662.625 165.127 662.001 165.943 661.965 167.035H660.837C660.873 165.583 661.797 164.143 663.873 164.143C665.577 164.143 666.621 165.151 666.621 166.447C666.621 167.431 666.081 167.995 665.493 168.475C664.977 168.907 664.653 169.195 664.437 169.483C664.221 169.783 664.161 170.107 664.149 170.635H663.105Z" fill="#171717"/>
<path d="M632.914 233.449V224.521H634.198L637.858 230.113C638.29 230.773 638.854 231.889 638.854 231.889H638.89C638.89 231.889 638.806 230.725 638.806 229.981V224.521H639.958V233.449H638.686L635.038 227.857C634.606 227.185 634.018 226.093 634.018 226.093H633.994C633.994 226.093 634.066 227.257 634.066 227.977V233.449H632.914ZM644.461 233.629C642.517 233.629 641.305 232.117 641.305 230.233C641.305 228.361 642.517 226.849 644.461 226.849C646.405 226.849 647.593 228.361 647.593 230.233C647.593 232.117 646.405 233.629 644.461 233.629ZM644.449 232.717C645.769 232.717 646.453 231.625 646.453 230.233C646.453 228.841 645.769 227.737 644.449 227.737C643.129 227.737 642.445 228.841 642.445 230.233C642.445 231.625 643.129 232.717 644.449 232.717Z" fill="#171717"/>
<path d="M640.5 238.449C640.5 238.173 640.276 237.949 640 237.949C639.724 237.949 639.5 238.173 639.5 238.449H640H640.5ZM639.646 270.803C639.842 270.998 640.158 270.998 640.354 270.803L643.536 267.621C643.731 267.426 643.731 267.109 643.536 266.914C643.34 266.718 643.024 266.718 642.828 266.914L640 269.742L637.172 266.914C636.976 266.718 636.66 266.718 636.464 266.914C636.269 267.109 636.269 267.426 636.464 267.621L639.646 270.803ZM640 238.449H639.5V270.449H640H640.5V238.449H640Z" fill="#171717"/>
<rect x="576" y="278.449" width="128" height="46" rx="8" fill="#E1EFFE"/>
<path d="M603.172 298.449V289.521H604.456L608.116 295.113C608.548 295.773 609.112 296.889 609.112 296.889H609.148C609.148 296.889 609.064 295.725 609.064 294.981V289.521H610.216V298.449H608.944L605.296 292.857C604.864 292.185 604.276 291.093 604.276 291.093H604.252C604.252 291.093 604.324 292.257 604.324 292.977V298.449H603.172ZM614.719 298.629C612.775 298.629 611.563 297.117 611.563 295.233C611.563 293.361 612.775 291.849 614.719 291.849C616.663 291.849 617.851 293.361 617.851 295.233C617.851 297.117 616.663 298.629 614.719 298.629ZM614.707 297.717C616.027 297.717 616.711 296.625 616.711 295.233C616.711 293.841 616.027 292.737 614.707 292.737C613.387 292.737 612.703 293.841 612.703 295.233C612.703 296.625 613.387 297.717 614.707 297.717ZM618.522 292.869V292.005H619.53V289.977H620.634V292.005H621.966V292.869H620.634V296.937C620.634 297.405 620.886 297.537 621.294 297.537C621.486 297.537 621.738 297.489 621.858 297.453H621.894V298.389C621.594 298.461 621.282 298.497 620.994 298.497C620.13 298.485 619.53 298.137 619.53 297.189V292.869H618.522ZM623.101 290.817V289.521H624.265V290.817H623.101ZM623.125 298.449V292.005H624.241V298.449H623.125ZM625.378 292.881V292.005H626.374V291.117C626.374 290.517 626.53 290.097 626.83 289.833C627.142 289.569 627.622 289.461 628.246 289.461C628.414 289.461 628.618 289.473 628.822 289.485V290.409C627.766 290.337 627.49 290.505 627.49 291.165V292.005H628.81V292.881H627.49V298.449H626.374V292.881H625.378ZM630.878 300.693C630.518 300.693 630.11 300.633 629.93 300.561V299.601H629.978C630.098 299.673 630.374 299.721 630.65 299.721C631.094 299.721 631.382 299.553 631.61 298.941C631.61 298.917 631.862 298.197 631.838 298.125L629.378 292.005H630.59L631.922 295.581C632.186 296.313 632.462 297.321 632.462 297.321H632.486C632.486 297.321 632.786 296.301 633.038 295.581L634.322 292.005H635.486L632.75 299.037C632.222 300.393 631.706 300.693 630.878 300.693ZM644.717 298.449H643.613V297.549H643.589C643.133 298.185 642.569 298.593 641.645 298.593C640.313 298.593 639.461 297.789 639.461 296.445V292.005H640.577V296.385C640.577 297.201 641.093 297.681 641.981 297.681C642.965 297.681 643.601 296.925 643.601 295.929V292.005H644.717V298.449ZM648.742 298.641C646.966 298.641 645.958 297.801 645.862 296.493H646.99C647.122 297.429 647.842 297.741 648.766 297.741C649.786 297.741 650.218 297.297 650.218 296.721C650.218 296.013 649.678 295.833 648.538 295.605C647.278 295.341 646.138 295.077 646.138 293.661C646.138 292.557 647.002 291.861 648.502 291.861C650.122 291.861 650.926 292.617 651.07 293.733H649.954C649.858 293.073 649.402 292.701 648.478 292.701C647.602 292.701 647.23 293.109 647.23 293.601C647.23 294.273 647.854 294.405 648.946 294.621C650.23 294.873 651.334 295.161 651.334 296.661C651.334 297.969 650.254 298.641 648.742 298.641ZM655.453 298.629C653.473 298.629 652.309 297.117 652.309 295.233C652.309 293.361 653.545 291.849 655.393 291.849C656.353 291.849 657.097 292.221 657.601 292.845C658.129 293.481 658.393 294.405 658.393 295.497H653.449C653.533 296.757 654.217 297.717 655.465 297.717C656.353 297.717 656.965 297.297 657.169 296.613H658.261C657.973 297.813 656.941 298.629 655.453 298.629ZM655.393 292.713C654.229 292.713 653.617 293.553 653.473 294.693H657.205C657.145 293.457 656.509 292.713 655.393 292.713ZM660.686 292.005V293.169H660.722C661.118 292.425 661.778 291.921 662.63 291.921C662.81 291.921 662.918 291.945 663.038 291.993V293.049H663.002C662.846 293.001 662.738 292.989 662.546 292.989C661.55 292.989 660.698 293.733 660.698 294.945V298.449H659.582V292.005H660.686ZM670.125 298.629C668.181 298.629 666.969 297.117 666.969 295.233C666.969 293.361 668.181 291.849 670.125 291.849C672.069 291.849 673.257 293.361 673.257 295.233C673.257 297.117 672.069 298.629 670.125 298.629ZM670.113 297.717C671.433 297.717 672.117 296.625 672.117 295.233C672.117 293.841 671.433 292.737 670.113 292.737C668.793 292.737 668.109 293.841 668.109 295.233C668.109 296.625 668.793 297.717 670.113 297.717ZM673.929 292.881V292.005H674.925V291.117C674.925 290.517 675.081 290.097 675.381 289.833C675.693 289.569 676.173 289.461 676.797 289.461C676.965 289.461 677.169 289.473 677.373 289.485V290.409C676.317 290.337 676.041 290.505 676.041 291.165V292.005H677.361V292.881H676.041V298.449H674.925V292.881H673.929ZM617.685 307.005V308.169H617.721C618.117 307.425 618.777 306.921 619.629 306.921C619.809 306.921 619.917 306.945 620.037 306.993V308.049H620.001C619.845 308.001 619.737 307.989 619.545 307.989C618.549 307.989 617.697 308.733 617.697 309.945V313.449H616.581V307.005H617.685ZM623.689 313.629C621.709 313.629 620.545 312.117 620.545 310.233C620.545 308.361 621.781 306.849 623.629 306.849C624.589 306.849 625.333 307.221 625.837 307.845C626.365 308.481 626.629 309.405 626.629 310.497H621.685C621.769 311.757 622.453 312.717 623.701 312.717C624.589 312.717 625.201 312.297 625.405 311.613H626.497C626.209 312.813 625.177 313.629 623.689 313.629ZM623.629 307.713C622.465 307.713 621.853 308.553 621.709 309.693H625.441C625.381 308.457 624.745 307.713 623.629 307.713ZM627.411 315.489C627.171 315.489 626.955 315.453 626.787 315.429V314.541H626.823C626.943 314.565 627.063 314.577 627.171 314.577C627.603 314.565 627.819 314.397 627.819 313.941V307.005H628.935V314.001C628.935 314.625 628.767 314.985 628.503 315.201C628.215 315.417 627.843 315.489 627.411 315.489ZM627.795 305.817V304.521H628.959V305.817H627.795ZM633.275 313.629C631.295 313.629 630.131 312.117 630.131 310.233C630.131 308.361 631.367 306.849 633.215 306.849C634.175 306.849 634.919 307.221 635.423 307.845C635.951 308.481 636.215 309.405 636.215 310.497H631.271C631.355 311.757 632.039 312.717 633.287 312.717C634.175 312.717 634.787 312.297 634.991 311.613H636.083C635.795 312.813 634.763 313.629 633.275 313.629ZM633.215 307.713C632.051 307.713 631.439 308.553 631.295 309.693H635.027C634.967 308.457 634.331 307.713 633.215 307.713ZM640.201 313.629C638.269 313.629 637.057 312.117 637.057 310.233C637.057 308.361 638.269 306.849 640.201 306.849C641.749 306.849 642.757 307.725 642.985 309.105H641.869C641.713 308.265 641.137 307.749 640.201 307.749C638.881 307.749 638.197 308.841 638.197 310.233C638.197 311.625 638.881 312.717 640.201 312.717C641.209 312.717 641.809 312.129 641.893 311.169H642.997C642.853 312.705 641.833 313.629 640.201 313.629ZM643.724 307.869V307.005H644.732V304.977H645.836V307.005H647.168V307.869H645.836V311.937C645.836 312.405 646.088 312.537 646.496 312.537C646.688 312.537 646.94 312.489 647.06 312.453H647.096V313.389C646.796 313.461 646.484 313.497 646.196 313.497C645.332 313.485 644.732 313.137 644.732 312.189V307.869H643.724ZM648.303 305.817V304.521H649.467V305.817H648.303ZM648.327 313.449V307.005H649.443V313.449H648.327ZM653.783 313.629C651.839 313.629 650.627 312.117 650.627 310.233C650.627 308.361 651.839 306.849 653.783 306.849C655.727 306.849 656.915 308.361 656.915 310.233C656.915 312.117 655.727 313.629 653.783 313.629ZM653.771 312.717C655.091 312.717 655.775 311.625 655.775 310.233C655.775 308.841 655.091 307.737 653.771 307.737C652.451 307.737 651.767 308.841 651.767 310.233C651.767 311.625 652.451 312.717 653.771 312.717ZM659.204 307.005V307.917H659.24C659.708 307.269 660.344 306.849 661.28 306.849C662.624 306.849 663.452 307.605 663.452 308.949V313.449H662.348V309.081C662.348 308.253 661.808 307.785 660.932 307.785C659.936 307.785 659.216 308.493 659.216 309.525V313.449H658.1V307.005H659.204Z" fill="#171717"/>
<path d="M640.5 332.449C640.5 332.173 640.276 331.949 640 331.949C639.724 331.949 639.5 332.173 639.5 332.449H640H640.5ZM639.646 372.803C639.842 372.998 640.158 372.998 640.354 372.803L643.536 369.621C643.731 369.426 643.731 369.109 643.536 368.914C643.34 368.718 643.024 368.718 642.828 368.914L640 371.742L637.172 368.914C636.976 368.718 636.66 368.718 636.464 368.914C636.269 369.109 636.269 369.426 636.464 369.621L639.646 372.803ZM640 332.449H639.5V372.449H640H640.5V332.449H640Z" fill="#171717"/>
<rect x="512" y="380.449" width="256" height="46" rx="8" fill="#E1EFFE"/>
<path d="M523.508 400.449V391.521H524.792L528.452 397.113C528.884 397.773 529.448 398.889 529.448 398.889H529.484C529.484 398.889 529.4 397.725 529.4 396.981V391.521H530.552V400.449H529.28L525.632 394.857C525.2 394.185 524.612 393.093 524.612 393.093H524.588C524.588 393.093 524.66 394.257 524.66 394.977V400.449H523.508ZM535.055 400.629C533.111 400.629 531.899 399.117 531.899 397.233C531.899 395.361 533.111 393.849 535.055 393.849C536.999 393.849 538.187 395.361 538.187 397.233C538.187 399.117 536.999 400.629 535.055 400.629ZM535.043 399.717C536.363 399.717 537.047 398.625 537.047 397.233C537.047 395.841 536.363 394.737 535.043 394.737C533.723 394.737 533.039 395.841 533.039 397.233C533.039 398.625 533.723 399.717 535.043 399.717ZM538.858 394.869V394.005H539.866V391.977H540.97V394.005H542.302V394.869H540.97V398.937C540.97 399.405 541.222 399.537 541.63 399.537C541.822 399.537 542.074 399.489 542.194 399.453H542.23V400.389C541.93 400.461 541.618 400.497 541.33 400.497C540.466 400.485 539.866 400.137 539.866 399.189V394.869H538.858ZM543.437 392.817V391.521H544.601V392.817H543.437ZM543.461 400.449V394.005H544.577V400.449H543.461ZM545.714 394.881V394.005H546.71V393.117C546.71 392.517 546.866 392.097 547.166 391.833C547.478 391.569 547.958 391.461 548.582 391.461C548.75 391.461 548.954 391.473 549.158 391.485V392.409C548.102 392.337 547.826 392.505 547.826 393.165V394.005H549.146V394.881H547.826V400.449H546.71V394.881H545.714ZM551.214 402.693C550.854 402.693 550.446 402.633 550.266 402.561V401.601H550.314C550.434 401.673 550.71 401.721 550.986 401.721C551.43 401.721 551.718 401.553 551.946 400.941C551.946 400.917 552.198 400.197 552.174 400.125L549.714 394.005H550.926L552.258 397.581C552.522 398.313 552.798 399.321 552.798 399.321H552.822C552.822 399.321 553.122 398.301 553.374 397.581L554.658 394.005H555.822L553.086 401.037C552.558 402.393 552.042 402.693 551.214 402.693ZM565.052 400.449H563.948V399.549H563.924C563.468 400.185 562.904 400.593 561.98 400.593C560.648 400.593 559.796 399.789 559.796 398.445V394.005H560.912V398.385C560.912 399.201 561.428 399.681 562.316 399.681C563.3 399.681 563.936 398.925 563.936 397.929V394.005H565.052V400.449ZM569.078 400.641C567.302 400.641 566.294 399.801 566.198 398.493H567.326C567.458 399.429 568.178 399.741 569.102 399.741C570.122 399.741 570.554 399.297 570.554 398.721C570.554 398.013 570.014 397.833 568.874 397.605C567.614 397.341 566.474 397.077 566.474 395.661C566.474 394.557 567.338 393.861 568.838 393.861C570.458 393.861 571.262 394.617 571.406 395.733H570.29C570.194 395.073 569.738 394.701 568.814 394.701C567.938 394.701 567.566 395.109 567.566 395.601C567.566 396.273 568.19 396.405 569.282 396.621C570.566 396.873 571.67 397.161 571.67 398.661C571.67 399.969 570.59 400.641 569.078 400.641ZM575.789 400.629C573.809 400.629 572.645 399.117 572.645 397.233C572.645 395.361 573.881 393.849 575.729 393.849C576.689 393.849 577.433 394.221 577.937 394.845C578.465 395.481 578.729 396.405 578.729 397.497H573.785C573.869 398.757 574.553 399.717 575.801 399.717C576.689 399.717 577.301 399.297 577.505 398.613H578.597C578.309 399.813 577.277 400.629 575.789 400.629ZM575.729 394.713C574.565 394.713 573.953 395.553 573.809 396.693H577.541C577.481 395.457 576.845 394.713 575.729 394.713ZM581.022 394.005V395.169H581.058C581.454 394.425 582.114 393.921 582.966 393.921C583.146 393.921 583.254 393.945 583.374 393.993V395.049H583.338C583.182 395.001 583.074 394.989 582.882 394.989C581.886 394.989 581.034 395.733 581.034 396.945V400.449H579.918V394.005H581.022ZM590.461 400.629C588.517 400.629 587.305 399.117 587.305 397.233C587.305 395.361 588.517 393.849 590.461 393.849C592.405 393.849 593.593 395.361 593.593 397.233C593.593 399.117 592.405 400.629 590.461 400.629ZM590.449 399.717C591.769 399.717 592.453 398.625 592.453 397.233C592.453 395.841 591.769 394.737 590.449 394.737C589.129 394.737 588.445 395.841 588.445 397.233C588.445 398.625 589.129 399.717 590.449 399.717ZM594.265 394.881V394.005H595.261V393.117C595.261 392.517 595.417 392.097 595.717 391.833C596.029 391.569 596.509 391.461 597.133 391.461C597.301 391.461 597.505 391.473 597.709 391.485V392.409C596.653 392.337 596.377 392.505 596.377 393.165V394.005H597.697V394.881H596.377V400.449H595.261V394.881H594.265ZM603.147 394.005V395.169H603.183C603.579 394.425 604.239 393.921 605.091 393.921C605.271 393.921 605.379 393.945 605.499 393.993V395.049H605.463C605.307 395.001 605.199 394.989 605.007 394.989C604.011 394.989 603.159 395.733 603.159 396.945V400.449H602.043V394.005H603.147ZM609.152 400.629C607.172 400.629 606.008 399.117 606.008 397.233C606.008 395.361 607.244 393.849 609.092 393.849C610.052 393.849 610.796 394.221 611.3 394.845C611.828 395.481 612.092 396.405 612.092 397.497H607.148C607.232 398.757 607.916 399.717 609.164 399.717C610.052 399.717 610.664 399.297 610.868 398.613H611.96C611.672 399.813 610.64 400.629 609.152 400.629ZM609.092 394.713C607.928 394.713 607.316 395.553 607.172 396.693H610.904C610.844 395.457 610.208 394.713 609.092 394.713ZM612.874 402.489C612.634 402.489 612.418 402.453 612.25 402.429V401.541H612.286C612.406 401.565 612.526 401.577 612.634 401.577C613.066 401.565 613.282 401.397 613.282 400.941V394.005H614.398V401.001C614.398 401.625 614.23 401.985 613.966 402.201C613.678 402.417 613.306 402.489 612.874 402.489ZM613.258 392.817V391.521H614.422V392.817H613.258ZM618.738 400.629C616.758 400.629 615.594 399.117 615.594 397.233C615.594 395.361 616.83 393.849 618.678 393.849C619.638 393.849 620.382 394.221 620.886 394.845C621.414 395.481 621.678 396.405 621.678 397.497H616.734C616.818 398.757 617.502 399.717 618.75 399.717C619.638 399.717 620.25 399.297 620.454 398.613H621.546C621.258 399.813 620.226 400.629 618.738 400.629ZM618.678 394.713C617.514 394.713 616.902 395.553 616.758 396.693H620.49C620.43 395.457 619.794 394.713 618.678 394.713ZM625.664 400.629C623.732 400.629 622.52 399.117 622.52 397.233C622.52 395.361 623.732 393.849 625.664 393.849C627.212 393.849 628.22 394.725 628.448 396.105H627.332C627.176 395.265 626.6 394.749 625.664 394.749C624.344 394.749 623.66 395.841 623.66 397.233C623.66 398.625 624.344 399.717 625.664 399.717C626.672 399.717 627.272 399.129 627.356 398.169H628.46C628.316 399.705 627.296 400.629 625.664 400.629ZM629.186 394.869V394.005H630.194V391.977H631.298V394.005H632.63V394.869H631.298V398.937C631.298 399.405 631.55 399.537 631.958 399.537C632.15 399.537 632.402 399.489 632.522 399.453H632.558V400.389C632.258 400.461 631.946 400.497 631.658 400.497C630.794 400.485 630.194 400.137 630.194 399.189V394.869H629.186ZM633.765 392.817V391.521H634.929V392.817H633.765ZM633.789 400.449V394.005H634.905V400.449H633.789ZM639.246 400.629C637.302 400.629 636.09 399.117 636.09 397.233C636.09 395.361 637.302 393.849 639.246 393.849C641.19 393.849 642.378 395.361 642.378 397.233C642.378 399.117 641.19 400.629 639.246 400.629ZM639.234 399.717C640.554 399.717 641.238 398.625 641.238 397.233C641.238 395.841 640.554 394.737 639.234 394.737C637.914 394.737 637.23 395.841 637.23 397.233C637.23 398.625 637.914 399.717 639.234 399.717ZM644.667 394.005V394.917H644.703C645.171 394.269 645.807 393.849 646.743 393.849C648.087 393.849 648.915 394.605 648.915 395.949V400.449H647.811V396.081C647.811 395.253 647.271 394.785 646.395 394.785C645.399 394.785 644.679 395.493 644.679 396.525V400.449H643.563V394.005H644.667ZM654.71 394.005V395.169H654.746C655.142 394.425 655.802 393.921 656.654 393.921C656.834 393.921 656.942 393.945 657.062 393.993V395.049H657.026C656.87 395.001 656.762 394.989 656.57 394.989C655.574 394.989 654.722 395.733 654.722 396.945V400.449H653.606V394.005H654.71ZM660.714 400.629C658.734 400.629 657.57 399.117 657.57 397.233C657.57 395.361 658.806 393.849 660.654 393.849C661.614 393.849 662.358 394.221 662.862 394.845C663.39 395.481 663.654 396.405 663.654 397.497H658.71C658.794 398.757 659.478 399.717 660.726 399.717C661.614 399.717 662.226 399.297 662.43 398.613H663.522C663.234 399.813 662.202 400.629 660.714 400.629ZM660.654 394.713C659.49 394.713 658.878 395.553 658.734 396.693H662.466C662.406 395.457 661.77 394.713 660.654 394.713ZM665.948 394.005V395.169H665.984C666.38 394.425 667.04 393.921 667.892 393.921C668.072 393.921 668.18 393.945 668.3 393.993V395.049H668.264C668.108 395.001 668 394.989 667.808 394.989C666.812 394.989 665.96 395.733 665.96 396.945V400.449H664.844V394.005H665.948ZM671.965 400.629C670.021 400.629 668.809 399.117 668.809 397.233C668.809 395.361 670.021 393.849 671.965 393.849C673.909 393.849 675.097 395.361 675.097 397.233C675.097 399.117 673.909 400.629 671.965 400.629ZM671.953 399.717C673.273 399.717 673.957 398.625 673.957 397.233C673.957 395.841 673.273 394.737 671.953 394.737C670.633 394.737 669.949 395.841 669.949 397.233C669.949 398.625 670.633 399.717 671.953 399.717ZM681.502 400.449H680.398V399.549H680.374C679.918 400.185 679.354 400.593 678.43 400.593C677.098 400.593 676.246 399.789 676.246 398.445V394.005H677.362V398.385C677.362 399.201 677.878 399.681 678.766 399.681C679.75 399.681 680.386 398.925 680.386 397.929V394.005H681.502V400.449ZM682.659 394.869V394.005H683.667V391.977H684.771V394.005H686.103V394.869H684.771V398.937C684.771 399.405 685.023 399.537 685.431 399.537C685.623 399.537 685.875 399.489 685.995 399.453H686.031V400.389C685.731 400.461 685.419 400.497 685.131 400.497C684.267 400.485 683.667 400.137 683.667 399.189V394.869H682.659ZM690 400.629C688.02 400.629 686.856 399.117 686.856 397.233C686.856 395.361 688.092 393.849 689.94 393.849C690.9 393.849 691.644 394.221 692.148 394.845C692.676 395.481 692.94 396.405 692.94 397.497H687.996C688.08 398.757 688.764 399.717 690.012 399.717C690.9 399.717 691.512 399.297 691.716 398.613H692.808C692.52 399.813 691.488 400.629 690 400.629ZM689.94 394.713C688.776 394.713 688.164 395.553 688.02 396.693H691.752C691.692 395.457 691.056 394.713 689.94 394.713ZM696.921 394.869V394.005H697.929V391.977H699.033V394.005H700.365V394.869H699.033V398.937C699.033 399.405 699.285 399.537 699.693 399.537C699.885 399.537 700.137 399.489 700.257 399.453H700.293V400.389C699.993 400.461 699.681 400.497 699.393 400.497C698.529 400.485 697.929 400.137 697.929 399.189V394.869H696.921ZM704.273 400.629C702.329 400.629 701.117 399.117 701.117 397.233C701.117 395.361 702.329 393.849 704.273 393.849C706.217 393.849 707.405 395.361 707.405 397.233C707.405 399.117 706.217 400.629 704.273 400.629ZM704.261 399.717C705.581 399.717 706.265 398.625 706.265 397.233C706.265 395.841 705.581 394.737 704.261 394.737C702.941 394.737 702.257 395.841 702.257 397.233C702.257 398.625 702.941 399.717 704.261 399.717ZM714.274 400.641C712.534 400.641 711.43 399.321 711.43 397.245C711.43 395.121 712.654 393.849 714.25 393.849C715.162 393.849 715.882 394.305 716.29 394.989H716.314C716.29 394.701 716.278 394.233 716.278 393.801V391.521H717.394V400.449H716.29V399.525H716.266C715.858 400.221 715.174 400.641 714.274 400.641ZM714.358 399.717C715.738 399.717 716.338 398.673 716.338 397.257C716.338 395.805 715.654 394.785 714.358 394.785C713.17 394.785 712.57 395.841 712.57 397.257C712.57 398.673 713.17 399.717 714.358 399.717ZM718.902 392.817V391.521H720.066V392.817H718.902ZM718.926 400.449V394.005H720.042V400.449H718.926ZM725.655 400.449V394.881H723.291V400.449H722.175V394.881H721.179V394.005H722.175V393.165C722.175 392.037 722.727 391.521 724.155 391.521C724.263 391.521 724.443 391.521 724.611 391.533V392.457C723.567 392.385 723.291 392.553 723.291 393.225V394.005H725.655V393.117C725.655 391.989 726.207 391.473 727.659 391.473C727.767 391.473 727.935 391.473 728.103 391.485V392.409C727.047 392.337 726.771 392.505 726.771 393.165V394.005H728.091V394.881H726.771V400.449H725.655ZM731.871 400.629C729.891 400.629 728.727 399.117 728.727 397.233C728.727 395.361 729.963 393.849 731.811 393.849C732.771 393.849 733.515 394.221 734.019 394.845C734.547 395.481 734.811 396.405 734.811 397.497H729.867C729.951 398.757 730.635 399.717 731.883 399.717C732.771 399.717 733.383 399.297 733.587 398.613H734.679C734.391 399.813 733.359 400.629 731.871 400.629ZM731.811 394.713C730.647 394.713 730.035 395.553 729.891 396.693H733.623C733.563 395.457 732.927 394.713 731.811 394.713ZM737.104 394.005V395.169H737.14C737.536 394.425 738.196 393.921 739.048 393.921C739.228 393.921 739.336 393.945 739.456 393.993V395.049H739.42C739.264 395.001 739.156 394.989 738.964 394.989C737.968 394.989 737.116 395.733 737.116 396.945V400.449H736V394.005H737.104ZM743.109 400.629C741.129 400.629 739.965 399.117 739.965 397.233C739.965 395.361 741.201 393.849 743.049 393.849C744.009 393.849 744.753 394.221 745.257 394.845C745.785 395.481 746.049 396.405 746.049 397.497H741.105C741.189 398.757 741.873 399.717 743.121 399.717C744.009 399.717 744.621 399.297 744.825 398.613H745.917C745.629 399.813 744.597 400.629 743.109 400.629ZM743.049 394.713C741.885 394.713 741.273 395.553 741.129 396.693H744.861C744.801 395.457 744.165 394.713 743.049 394.713ZM748.343 394.005V394.917H748.379C748.847 394.269 749.483 393.849 750.419 393.849C751.763 393.849 752.591 394.605 752.591 395.949V400.449H751.487V396.081C751.487 395.253 750.947 394.785 750.071 394.785C749.075 394.785 748.355 395.493 748.355 396.525V400.449H747.239V394.005H748.343ZM753.581 394.869V394.005H754.589V391.977H755.693V394.005H757.025V394.869H755.693V398.937C755.693 399.405 755.945 399.537 756.353 399.537C756.545 399.537 756.797 399.489 756.917 399.453H756.953V400.389C756.653 400.461 756.341 400.497 756.053 400.497C755.189 400.485 754.589 400.137 754.589 399.189V394.869H753.581ZM593.922 417.633V409.005H595.026V410.013H595.062C595.542 409.281 596.19 408.849 597.114 408.849C598.758 408.849 599.886 410.121 599.886 412.245C599.886 414.309 598.818 415.641 597.078 415.641C596.202 415.641 595.494 415.281 595.05 414.597H595.014C595.026 414.825 595.038 415.185 595.038 415.677V417.633H593.922ZM596.958 414.717C598.146 414.717 598.746 413.673 598.746 412.269C598.746 410.853 598.158 409.797 596.97 409.797C595.602 409.797 594.978 410.901 594.978 412.269C594.978 413.625 595.53 414.717 596.958 414.717ZM602.991 415.581C601.767 415.581 600.807 414.981 600.807 413.745C600.807 412.245 601.911 411.921 603.579 411.717C604.527 411.609 605.139 411.453 605.139 410.793C605.139 410.097 604.647 409.665 603.759 409.665C602.739 409.665 602.247 410.145 602.211 410.913H601.131C601.179 409.821 602.007 408.849 603.747 408.849C604.359 408.849 604.899 408.957 605.307 409.197C605.847 409.521 606.171 410.085 606.171 410.949V413.961C606.171 414.477 606.291 414.753 606.855 414.633H606.903V415.413C606.747 415.461 606.567 415.509 606.303 415.509C605.619 415.509 605.283 415.185 605.163 414.501H605.151C604.743 415.065 604.083 415.581 602.991 415.581ZM603.267 414.765C604.551 414.765 605.151 413.817 605.151 413.073V412.017C604.827 412.221 604.263 412.377 603.735 412.473C602.679 412.653 601.983 412.845 601.983 413.733C601.983 414.561 602.619 414.765 603.267 414.765ZM608.542 417.693C608.182 417.693 607.774 417.633 607.594 417.561V416.601H607.642C607.762 416.673 608.038 416.721 608.314 416.721C608.758 416.721 609.046 416.553 609.274 415.941C609.274 415.917 609.526 415.197 609.502 415.125L607.042 409.005H608.254L609.586 412.581C609.85 413.313 610.126 414.321 610.126 414.321H610.15C610.15 414.321 610.45 413.301 610.702 412.581L611.986 409.005H613.15L610.414 416.037C609.886 417.393 609.37 417.693 608.542 417.693ZM613.973 415.449V409.005H615.077V409.965H615.113C615.509 409.269 616.193 408.849 617.021 408.849C617.801 408.849 618.425 409.257 618.689 410.049H618.713C619.169 409.245 619.925 408.849 620.705 408.849C621.881 408.849 622.697 409.605 622.697 410.949V415.449H621.581V411.045C621.581 410.253 621.065 409.785 620.417 409.785C619.601 409.785 618.893 410.493 618.893 411.477V415.449H617.789V411.045C617.789 410.253 617.345 409.785 616.685 409.785C615.917 409.785 615.089 410.493 615.089 411.477V415.449H613.973ZM626.988 415.629C625.008 415.629 623.844 414.117 623.844 412.233C623.844 410.361 625.08 408.849 626.928 408.849C627.888 408.849 628.632 409.221 629.136 409.845C629.664 410.481 629.928 411.405 629.928 412.497H624.984C625.068 413.757 625.752 414.717 627 414.717C627.888 414.717 628.5 414.297 628.704 413.613H629.796C629.508 414.813 628.476 415.629 626.988 415.629ZM626.928 409.713C625.764 409.713 625.152 410.553 625.008 411.693H628.74C628.68 410.457 628.044 409.713 626.928 409.713ZM632.222 409.005V409.917H632.258C632.726 409.269 633.362 408.849 634.298 408.849C635.642 408.849 636.47 409.605 636.47 410.949V415.449H635.366V411.081C635.366 410.253 634.826 409.785 633.95 409.785C632.954 409.785 632.234 410.493 632.234 411.525V415.449H631.118V409.005H632.222ZM637.46 409.869V409.005H638.468V406.977H639.572V409.005H640.904V409.869H639.572V413.937C639.572 414.405 639.824 414.537 640.232 414.537C640.424 414.537 640.676 414.489 640.796 414.453H640.832V415.389C640.532 415.461 640.22 415.497 639.932 415.497C639.068 415.485 638.468 415.137 638.468 414.189V409.869H637.46ZM645.25 415.449V409.005H646.354V409.965H646.39C646.786 409.269 647.47 408.849 648.298 408.849C649.078 408.849 649.702 409.257 649.966 410.049H649.99C650.446 409.245 651.202 408.849 651.982 408.849C653.158 408.849 653.974 409.605 653.974 410.949V415.449H652.858V411.045C652.858 410.253 652.342 409.785 651.694 409.785C650.878 409.785 650.17 410.493 650.17 411.477V415.449H649.066V411.045C649.066 410.253 648.622 409.785 647.962 409.785C647.194 409.785 646.366 410.493 646.366 411.477V415.449H645.25ZM658.265 415.629C656.285 415.629 655.121 414.117 655.121 412.233C655.121 410.361 656.357 408.849 658.205 408.849C659.165 408.849 659.909 409.221 660.413 409.845C660.941 410.481 661.205 411.405 661.205 412.497H656.261C656.345 413.757 657.029 414.717 658.277 414.717C659.165 414.717 659.777 414.297 659.981 413.613H661.073C660.785 414.813 659.753 415.629 658.265 415.629ZM658.205 409.713C657.041 409.713 656.429 410.553 656.285 411.693H660.017C659.957 410.457 659.321 409.713 658.205 409.713ZM661.882 409.869V409.005H662.89V406.977H663.994V409.005H665.326V409.869H663.994V413.937C663.994 414.405 664.246 414.537 664.654 414.537C664.846 414.537 665.098 414.489 665.218 414.453H665.254V415.389C664.954 415.461 664.642 415.497 664.354 415.497C663.49 415.485 662.89 415.137 662.89 414.189V409.869H661.882ZM667.601 408.861C667.601 409.185 667.577 409.629 667.565 409.941H667.601C668.081 409.257 668.729 408.849 669.665 408.849C671.009 408.849 671.837 409.605 671.837 410.949V415.449H670.733V411.081C670.733 410.253 670.193 409.785 669.317 409.785C668.321 409.785 667.601 410.493 667.601 411.525V415.449H666.485V406.521H667.601V408.861ZM676.148 415.629C674.204 415.629 672.992 414.117 672.992 412.233C672.992 410.361 674.204 408.849 676.148 408.849C678.092 408.849 679.28 410.361 679.28 412.233C679.28 414.117 678.092 415.629 676.148 415.629ZM676.136 414.717C677.456 414.717 678.14 413.625 678.14 412.233C678.14 410.841 677.456 409.737 676.136 409.737C674.816 409.737 674.132 410.841 674.132 412.233C674.132 413.625 674.816 414.717 676.136 414.717ZM682.961 415.641C681.221 415.641 680.117 414.321 680.117 412.245C680.117 410.121 681.341 408.849 682.937 408.849C683.849 408.849 684.569 409.305 684.977 409.989H685.001C684.977 409.701 684.965 409.233 684.965 408.801V406.521H686.081V415.449H684.977V414.525H684.953C684.545 415.221 683.861 415.641 682.961 415.641ZM683.045 414.717C684.425 414.717 685.025 413.673 685.025 412.257C685.025 410.805 684.341 409.785 683.045 409.785C681.857 409.785 681.257 410.841 681.257 412.257C681.257 413.673 681.857 414.717 683.045 414.717Z" fill="#171717"/>
<path d="M705.897 164V160.256L702.681 155.072H704.049L705.657 157.76C706.029 158.396 706.533 159.428 706.533 159.428H706.557C706.557 159.428 707.073 158.396 707.445 157.76L709.065 155.072H710.373L707.121 160.316V164H705.897ZM711.522 164V155.072H717.87V156.152H712.746V158.852H717.378V159.872H712.746V162.884H718.002V164H711.522ZM722.673 164.18C720.177 164.18 718.941 162.812 718.845 161.108H720.057C720.201 162.452 721.089 163.196 722.709 163.196C723.897 163.196 724.761 162.668 724.761 161.588C724.761 160.424 723.729 160.148 722.169 159.8C720.573 159.464 719.217 159.008 719.217 157.292C719.217 155.792 720.477 154.904 722.313 154.904C724.509 154.904 725.493 156.008 725.709 157.532H724.521C724.365 156.452 723.585 155.864 722.325 155.864C721.149 155.864 720.381 156.344 720.381 157.232C720.381 158.204 721.353 158.48 722.697 158.756C724.425 159.104 725.997 159.548 725.997 161.54C725.997 163.232 724.605 164.18 722.673 164.18Z" fill="#171717"/>
<path d="M733 159C732.724 159 732.5 159.224 732.5 159.5C732.5 159.776 732.724 160 733 160V159.5V159ZM760.354 159.854C760.549 159.658 760.549 159.342 760.354 159.146L757.172 155.964C756.976 155.769 756.66 155.769 756.464 155.964C756.269 156.16 756.269 156.476 756.464 156.672L759.293 159.5L756.464 162.328C756.269 162.524 756.269 162.84 756.464 163.036C756.66 163.231 756.976 163.231 757.172 163.036L760.354 159.854ZM733 159.5V160H760V159.5V159H733V159.5Z" fill="#171717"/>
<rect x="768" y="134" width="128" height="46" rx="8" fill="#E1EFFE"/>
<path d="M785.826 154V145.072H789.126C791.79 145.072 793.11 146.896 793.11 149.572C793.11 152.236 791.718 154 789.042 154H785.826ZM787.062 152.932H788.994C791.01 152.932 791.838 151.624 791.838 149.572C791.838 147.52 791.094 146.14 789.066 146.14H787.062V152.932ZM794.435 146.368V145.072H795.599V146.368H794.435ZM794.459 154V147.556H795.575V154H794.459ZM799.58 154.192C797.804 154.192 796.796 153.352 796.7 152.044H797.828C797.96 152.98 798.68 153.292 799.604 153.292C800.624 153.292 801.056 152.848 801.056 152.272C801.056 151.564 800.516 151.384 799.376 151.156C798.116 150.892 796.976 150.628 796.976 149.212C796.976 148.108 797.84 147.412 799.34 147.412C800.96 147.412 801.764 148.168 801.908 149.284H800.792C800.696 148.624 800.24 148.252 799.316 148.252C798.44 148.252 798.068 148.66 798.068 149.152C798.068 149.824 798.692 149.956 799.784 150.172C801.068 150.424 802.172 150.712 802.172 152.212C802.172 153.52 801.092 154.192 799.58 154.192ZM803.377 156.184V147.556H804.481V148.564H804.517C804.997 147.832 805.645 147.4 806.569 147.4C808.213 147.4 809.341 148.672 809.341 150.796C809.341 152.86 808.273 154.192 806.533 154.192C805.657 154.192 804.949 153.832 804.505 153.148H804.469C804.481 153.376 804.493 153.736 804.493 154.228V156.184H803.377ZM806.413 153.268C807.601 153.268 808.201 152.224 808.201 150.82C808.201 149.404 807.613 148.348 806.425 148.348C805.057 148.348 804.433 149.452 804.433 150.82C804.433 152.176 804.985 153.268 806.413 153.268ZM810.562 154V145.072H811.678V154H810.562ZM815.165 154.132C813.941 154.132 812.981 153.532 812.981 152.296C812.981 150.796 814.085 150.472 815.753 150.268C816.701 150.16 817.313 150.004 817.313 149.344C817.313 148.648 816.821 148.216 815.933 148.216C814.913 148.216 814.421 148.696 814.385 149.464H813.305C813.353 148.372 814.181 147.4 815.921 147.4C816.533 147.4 817.073 147.508 817.481 147.748C818.021 148.072 818.345 148.636 818.345 149.5V152.512C818.345 153.028 818.465 153.304 819.029 153.184H819.077V153.964C818.921 154.012 818.741 154.06 818.477 154.06C817.793 154.06 817.457 153.736 817.337 153.052H817.325C816.917 153.616 816.257 154.132 815.165 154.132ZM815.441 153.316C816.725 153.316 817.325 152.368 817.325 151.624V150.568C817.001 150.772 816.437 150.928 815.909 151.024C814.853 151.204 814.157 151.396 814.157 152.284C814.157 153.112 814.793 153.316 815.441 153.316ZM820.716 156.244C820.356 156.244 819.948 156.184 819.768 156.112V155.152H819.816C819.936 155.224 820.212 155.272 820.488 155.272C820.932 155.272 821.22 155.104 821.448 154.492C821.448 154.468 821.7 153.748 821.676 153.676L819.216 147.556H820.428L821.76 151.132C822.024 151.864 822.3 152.872 822.3 152.872H822.324C822.324 152.872 822.624 151.852 822.876 151.132L824.16 147.556H825.324L822.588 154.588C822.06 155.944 821.544 156.244 820.716 156.244ZM828.938 148.432V147.556H829.934V146.668C829.934 146.068 830.09 145.648 830.39 145.384C830.702 145.12 831.182 145.012 831.806 145.012C831.974 145.012 832.178 145.024 832.382 145.036V145.96C831.326 145.888 831.05 146.056 831.05 146.716V147.556H832.37V148.432H831.05V154H829.934V148.432H828.938ZM833.414 154V147.556H834.53V154H833.414ZM833.39 146.368V145.072H834.554V146.368H833.39ZM837.165 147.556V148.468H837.201C837.669 147.82 838.305 147.4 839.241 147.4C840.585 147.4 841.413 148.156 841.413 149.5V154H840.309V149.632C840.309 148.804 839.769 148.336 838.893 148.336C837.897 148.336 837.177 149.044 837.177 150.076V154H836.061V147.556H837.165ZM844.836 154.132C843.612 154.132 842.652 153.532 842.652 152.296C842.652 150.796 843.756 150.472 845.424 150.268C846.372 150.16 846.984 150.004 846.984 149.344C846.984 148.648 846.492 148.216 845.604 148.216C844.584 148.216 844.092 148.696 844.056 149.464H842.976C843.024 148.372 843.852 147.4 845.592 147.4C846.204 147.4 846.744 147.508 847.152 147.748C847.692 148.072 848.016 148.636 848.016 149.5V152.512C848.016 153.028 848.136 153.304 848.7 153.184H848.748V153.964C848.592 154.012 848.412 154.06 848.148 154.06C847.464 154.06 847.128 153.736 847.008 153.052H846.996C846.588 153.616 845.928 154.132 844.836 154.132ZM845.112 153.316C846.396 153.316 846.996 152.368 846.996 151.624V150.568C846.672 150.772 846.108 150.928 845.58 151.024C844.524 151.204 843.828 151.396 843.828 152.284C843.828 153.112 844.464 153.316 845.112 153.316ZM850.759 147.556V148.468H850.795C851.263 147.82 851.899 147.4 852.835 147.4C854.179 147.4 855.007 148.156 855.007 149.5V154H853.903V149.632C853.903 148.804 853.363 148.336 852.487 148.336C851.491 148.336 850.771 149.044 850.771 150.076V154H849.655V147.556H850.759ZM859.306 154.18C857.374 154.18 856.162 152.668 856.162 150.784C856.162 148.912 857.374 147.4 859.306 147.4C860.854 147.4 861.862 148.276 862.09 149.656H860.974C860.818 148.816 860.242 148.3 859.306 148.3C857.986 148.3 857.302 149.392 857.302 150.784C857.302 152.176 857.986 153.268 859.306 153.268C860.314 153.268 860.914 152.68 860.998 151.72H862.102C861.958 153.256 860.938 154.18 859.306 154.18ZM863.201 146.368V145.072H864.365V146.368H863.201ZM863.225 154V147.556H864.341V154H863.225ZM866.977 147.556V148.468H867.013C867.481 147.82 868.117 147.4 869.053 147.4C870.397 147.4 871.225 148.156 871.225 149.5V154H870.121V149.632C870.121 148.804 869.581 148.336 868.705 148.336C867.709 148.336 866.989 149.044 866.989 150.076V154H865.873V147.556H866.977ZM875.453 156.256C873.761 156.256 872.801 155.584 872.681 154.444H873.725C873.821 155.116 874.469 155.392 875.429 155.392C876.581 155.392 877.217 154.876 877.217 153.784V153.604C877.217 153.232 877.229 152.884 877.241 152.68H877.217C876.773 153.316 876.209 153.712 875.297 153.712C873.653 153.712 872.477 152.428 872.477 150.556C872.477 148.576 873.725 147.4 875.237 147.4C876.161 147.4 876.785 147.76 877.193 148.408H877.217V147.556H878.321V153.736C878.321 154.588 878.033 155.224 877.541 155.644C877.037 156.064 876.317 156.256 875.453 156.256ZM875.405 152.8C876.809 152.8 877.289 151.816 877.289 150.508C877.289 149.152 876.677 148.324 875.393 148.324C874.217 148.324 873.617 149.212 873.617 150.568C873.617 151.936 874.241 152.8 875.405 152.8ZM816.317 163.42V162.556H817.325V160.528H818.429V162.556H819.761V163.42H818.429V167.488C818.429 167.956 818.681 168.088 819.089 168.088C819.281 168.088 819.533 168.04 819.653 168.004H819.689V168.94C819.389 169.012 819.077 169.048 818.789 169.048C817.925 169.036 817.325 168.688 817.325 167.74V163.42H816.317ZM823.658 169.18C821.678 169.18 820.514 167.668 820.514 165.784C820.514 163.912 821.75 162.4 823.598 162.4C824.558 162.4 825.302 162.772 825.806 163.396C826.334 164.032 826.598 164.956 826.598 166.048H821.654C821.738 167.308 822.422 168.268 823.67 168.268C824.558 168.268 825.17 167.848 825.374 167.164H826.466C826.178 168.364 825.146 169.18 823.658 169.18ZM823.598 163.264C822.434 163.264 821.822 164.104 821.678 165.244H825.41C825.35 164.008 824.714 163.264 823.598 163.264ZM828.892 162.556V163.72H828.928C829.324 162.976 829.984 162.472 830.836 162.472C831.016 162.472 831.124 162.496 831.244 162.544V163.6H831.208C831.052 163.552 830.944 163.54 830.752 163.54C829.756 163.54 828.904 164.284 828.904 165.496V169H827.788V162.556H828.892ZM832.334 169V162.556H833.438V163.516H833.474C833.87 162.82 834.554 162.4 835.382 162.4C836.162 162.4 836.786 162.808 837.05 163.6H837.074C837.53 162.796 838.286 162.4 839.066 162.4C840.242 162.4 841.058 163.156 841.058 164.5V169H839.942V164.596C839.942 163.804 839.426 163.336 838.778 163.336C837.962 163.336 837.254 164.044 837.254 165.028V169H836.15V164.596C836.15 163.804 835.706 163.336 835.046 163.336C834.278 163.336 833.45 164.044 833.45 165.028V169H832.334ZM845.025 169.192C843.249 169.192 842.241 168.352 842.145 167.044H843.273C843.405 167.98 844.125 168.292 845.049 168.292C846.069 168.292 846.501 167.848 846.501 167.272C846.501 166.564 845.961 166.384 844.821 166.156C843.561 165.892 842.421 165.628 842.421 164.212C842.421 163.108 843.285 162.412 844.785 162.412C846.405 162.412 847.209 163.168 847.353 164.284H846.237C846.141 163.624 845.685 163.252 844.761 163.252C843.885 163.252 843.513 163.66 843.513 164.152C843.513 164.824 844.137 164.956 845.229 165.172C846.513 165.424 847.617 165.712 847.617 167.212C847.617 168.52 846.537 169.192 845.025 169.192Z" fill="#171717"/>
<path d="M904 160.5C903.724 160.5 903.5 160.724 903.5 161C903.5 161.276 903.724 161.5 904 161.5V161V160.5ZM952.354 161.354C952.549 161.158 952.549 160.842 952.354 160.646L949.172 157.464C948.976 157.269 948.66 157.269 948.464 157.464C948.269 157.66 948.269 157.976 948.464 158.172L951.293 161L948.464 163.828C948.269 164.024 948.269 164.34 948.464 164.536C948.66 164.731 948.976 164.731 949.172 164.536L952.354 161.354ZM904 161V161.5H952V161V160.5H904V161Z" fill="#171717"/>
<g clip-path="url(#clip0_2187_19402)">
<rect x="1024" y="99" width="88" height="88" rx="16" transform="rotate(45 1024 99)" fill="white"/>
<path d="M1015.07 150.359C1013.07 150.359 1011.63 149.471 1011.63 147.323V141.299H1012.85V147.215C1012.85 148.679 1013.67 149.315 1015.09 149.315C1016.47 149.315 1017.29 148.679 1017.29 147.215V141.299H1018.51V147.323C1018.51 149.471 1017.03 150.359 1015.07 150.359ZM1022.53 150.419C1020.76 150.419 1019.75 149.579 1019.65 148.271H1020.78C1020.91 149.207 1021.63 149.519 1022.56 149.519C1023.58 149.519 1024.01 149.075 1024.01 148.499C1024.01 147.791 1023.47 147.611 1022.33 147.383C1021.07 147.119 1019.93 146.855 1019.93 145.439C1019.93 144.335 1020.79 143.639 1022.29 143.639C1023.91 143.639 1024.72 144.395 1024.86 145.511H1023.75C1023.65 144.851 1023.19 144.479 1022.27 144.479C1021.39 144.479 1021.02 144.887 1021.02 145.379C1021.02 146.051 1021.65 146.183 1022.74 146.399C1024.02 146.651 1025.13 146.939 1025.13 148.439C1025.13 149.747 1024.05 150.419 1022.53 150.419ZM1029.25 150.407C1027.27 150.407 1026.1 148.895 1026.1 147.011C1026.1 145.139 1027.34 143.627 1029.19 143.627C1030.15 143.627 1030.89 143.999 1031.39 144.623C1031.92 145.259 1032.19 146.183 1032.19 147.275H1027.24C1027.33 148.535 1028.01 149.495 1029.26 149.495C1030.15 149.495 1030.76 149.075 1030.96 148.391H1032.05C1031.77 149.591 1030.73 150.407 1029.25 150.407ZM1029.19 144.491C1028.02 144.491 1027.41 145.331 1027.27 146.471H1031C1030.94 145.235 1030.3 144.491 1029.19 144.491ZM1034.48 143.783V144.947H1034.52C1034.91 144.203 1035.57 143.699 1036.42 143.699C1036.6 143.699 1036.71 143.723 1036.83 143.771V144.827H1036.8C1036.64 144.779 1036.53 144.767 1036.34 144.767C1035.34 144.767 1034.49 145.511 1034.49 146.723V150.227H1033.38V143.783H1034.48ZM1004.42 165.359C1003.19 165.359 1002.23 164.759 1002.23 163.523C1002.23 162.023 1003.34 161.699 1005 161.495C1005.95 161.387 1006.56 161.231 1006.56 160.571C1006.56 159.875 1006.07 159.443 1005.18 159.443C1004.16 159.443 1003.67 159.923 1003.64 160.691H1002.56C1002.6 159.599 1003.43 158.627 1005.17 158.627C1005.78 158.627 1006.32 158.735 1006.73 158.975C1007.27 159.299 1007.6 159.863 1007.6 160.727V163.739C1007.6 164.255 1007.72 164.531 1008.28 164.411H1008.33V165.191C1008.17 165.239 1007.99 165.287 1007.73 165.287C1007.04 165.287 1006.71 164.963 1006.59 164.279H1006.58C1006.17 164.843 1005.51 165.359 1004.42 165.359ZM1004.69 164.543C1005.98 164.543 1006.58 163.595 1006.58 162.851V161.795C1006.25 161.999 1005.69 162.155 1005.16 162.251C1004.1 162.431 1003.41 162.623 1003.41 163.511C1003.41 164.339 1004.04 164.543 1004.69 164.543ZM1012.03 165.407C1010.1 165.407 1008.89 163.895 1008.89 162.011C1008.89 160.139 1010.1 158.627 1012.03 158.627C1013.58 158.627 1014.59 159.503 1014.81 160.883H1013.7C1013.54 160.043 1012.97 159.527 1012.03 159.527C1010.71 159.527 1010.03 160.619 1010.03 162.011C1010.03 163.403 1010.71 164.495 1012.03 164.495C1013.04 164.495 1013.64 163.907 1013.72 162.947H1014.83C1014.68 164.483 1013.66 165.407 1012.03 165.407ZM1018.75 165.407C1016.81 165.407 1015.6 163.895 1015.6 162.011C1015.6 160.139 1016.81 158.627 1018.75 158.627C1020.29 158.627 1021.3 159.503 1021.53 160.883H1020.41C1020.26 160.043 1019.68 159.527 1018.75 159.527C1017.43 159.527 1016.74 160.619 1016.74 162.011C1016.74 163.403 1017.43 164.495 1018.75 164.495C1019.75 164.495 1020.35 163.907 1020.44 162.947H1021.54C1021.4 164.483 1020.38 165.407 1018.75 165.407ZM1025.46 165.407C1023.48 165.407 1022.32 163.895 1022.32 162.011C1022.32 160.139 1023.55 158.627 1025.4 158.627C1026.36 158.627 1027.1 158.999 1027.61 159.623C1028.14 160.259 1028.4 161.183 1028.4 162.275H1023.46C1023.54 163.535 1024.22 164.495 1025.47 164.495C1026.36 164.495 1026.97 164.075 1027.18 163.391H1028.27C1027.98 164.591 1026.95 165.407 1025.46 165.407ZM1025.4 159.491C1024.24 159.491 1023.62 160.331 1023.48 161.471H1027.21C1027.15 160.235 1026.52 159.491 1025.4 159.491ZM1029.59 167.411V158.783H1030.69V159.791H1030.73C1031.21 159.059 1031.86 158.627 1032.78 158.627C1034.43 158.627 1035.55 159.899 1035.55 162.023C1035.55 164.087 1034.49 165.419 1032.75 165.419C1031.87 165.419 1031.16 165.059 1030.72 164.375H1030.68C1030.69 164.603 1030.71 164.963 1030.71 165.455V167.411H1029.59ZM1032.63 164.495C1033.81 164.495 1034.41 163.451 1034.41 162.047C1034.41 160.631 1033.83 159.575 1032.64 159.575C1031.27 159.575 1030.65 160.679 1030.65 162.047C1030.65 163.403 1031.2 164.495 1032.63 164.495ZM1036.17 159.647V158.783H1037.17V156.755H1038.28V158.783H1039.61V159.647H1038.28V163.715C1038.28 164.183 1038.53 164.315 1038.94 164.315C1039.13 164.315 1039.38 164.267 1039.5 164.231H1039.54V165.167C1039.24 165.239 1038.93 165.275 1038.64 165.275C1037.77 165.263 1037.17 164.915 1037.17 163.967V159.647H1036.17ZM1043.24 165.419C1041.47 165.419 1040.46 164.579 1040.36 163.271H1041.49C1041.62 164.207 1042.34 164.519 1043.27 164.519C1044.29 164.519 1044.72 164.075 1044.72 163.499C1044.72 162.791 1044.18 162.611 1043.04 162.383C1041.78 162.119 1040.64 161.855 1040.64 160.439C1040.64 159.335 1041.5 158.639 1043 158.639C1044.62 158.639 1045.43 159.395 1045.57 160.511H1044.45C1044.36 159.851 1043.9 159.479 1042.98 159.479C1042.1 159.479 1041.73 159.887 1041.73 160.379C1041.73 161.051 1042.35 161.183 1043.45 161.399C1044.73 161.651 1045.83 161.939 1045.83 163.439C1045.83 164.747 1044.75 165.419 1043.24 165.419ZM1005.09 174.647V173.783H1006.1V171.755H1007.21V173.783H1008.54V174.647H1007.21V178.715C1007.21 179.183 1007.46 179.315 1007.87 179.315C1008.06 179.315 1008.31 179.267 1008.43 179.231H1008.47V180.167C1008.17 180.239 1007.85 180.275 1007.57 180.275C1006.7 180.263 1006.1 179.915 1006.1 178.967V174.647H1005.09ZM1012.44 180.407C1010.46 180.407 1009.29 178.895 1009.29 177.011C1009.29 175.139 1010.53 173.627 1012.38 173.627C1013.34 173.627 1014.08 173.999 1014.58 174.623C1015.11 175.259 1015.38 176.183 1015.38 177.275H1010.43C1010.52 178.535 1011.2 179.495 1012.45 179.495C1013.34 179.495 1013.95 179.075 1014.15 178.391H1015.24C1014.96 179.591 1013.92 180.407 1012.44 180.407ZM1012.38 174.491C1011.21 174.491 1010.6 175.331 1010.46 176.471H1014.19C1014.13 175.235 1013.49 174.491 1012.38 174.491ZM1017.67 173.783V174.947H1017.7C1018.1 174.203 1018.76 173.699 1019.61 173.699C1019.79 173.699 1019.9 173.723 1020.02 173.771V174.827H1019.98C1019.83 174.779 1019.72 174.767 1019.53 174.767C1018.53 174.767 1017.68 175.511 1017.68 176.723V180.227H1016.56V173.783H1017.67ZM1021.11 180.227V173.783H1022.22V174.743H1022.25C1022.65 174.047 1023.33 173.627 1024.16 173.627C1024.94 173.627 1025.56 174.035 1025.83 174.827H1025.85C1026.31 174.023 1027.06 173.627 1027.84 173.627C1029.02 173.627 1029.84 174.383 1029.84 175.727V180.227H1028.72V175.823C1028.72 175.031 1028.2 174.563 1027.56 174.563C1026.74 174.563 1026.03 175.271 1026.03 176.255V180.227H1024.93V175.823C1024.93 175.031 1024.48 174.563 1023.82 174.563C1023.06 174.563 1022.23 175.271 1022.23 176.255V180.227H1021.11ZM1033.8 180.419C1032.03 180.419 1031.02 179.579 1030.92 178.271H1032.05C1032.18 179.207 1032.9 179.519 1033.83 179.519C1034.85 179.519 1035.28 179.075 1035.28 178.499C1035.28 177.791 1034.74 177.611 1033.6 177.383C1032.34 177.119 1031.2 176.855 1031.2 175.439C1031.2 174.335 1032.06 173.639 1033.56 173.639C1035.18 173.639 1035.99 174.395 1036.13 175.511H1035.01C1034.92 174.851 1034.46 174.479 1033.54 174.479C1032.66 174.479 1032.29 174.887 1032.29 175.379C1032.29 176.051 1032.91 176.183 1034.01 176.399C1035.29 176.651 1036.39 176.939 1036.39 178.439C1036.39 179.747 1035.31 180.419 1033.8 180.419ZM1039.16 180.227V178.907H1040.47V180.227H1039.16ZM1039.29 177.635C1039.31 176.435 1039.65 175.907 1040.57 175.115C1041.12 174.635 1041.63 174.239 1041.63 173.471C1041.63 172.715 1041.07 172.127 1040.06 172.127C1038.81 172.127 1038.19 172.943 1038.15 174.035H1037.03C1037.06 172.583 1037.99 171.143 1040.06 171.143C1041.77 171.143 1042.81 172.151 1042.81 173.447C1042.81 174.431 1042.27 174.995 1041.68 175.475C1041.17 175.907 1040.84 176.195 1040.63 176.483C1040.41 176.783 1040.35 177.107 1040.34 177.635H1039.29Z" fill="#171717"/>
</g>
<rect x="1024" y="99.7071" width="87" height="87" rx="15.5" transform="rotate(45 1024 99.7071)" stroke="#171717"/>
<path d="M1016.91 233.449V224.521H1018.2L1021.86 230.113C1022.29 230.773 1022.85 231.889 1022.85 231.889H1022.89C1022.89 231.889 1022.81 230.725 1022.81 229.981V224.521H1023.96V233.449H1022.69L1019.04 227.857C1018.61 227.185 1018.02 226.093 1018.02 226.093H1017.99C1017.99 226.093 1018.07 227.257 1018.07 227.977V233.449H1016.91ZM1028.46 233.629C1026.52 233.629 1025.3 232.117 1025.3 230.233C1025.3 228.361 1026.52 226.849 1028.46 226.849C1030.4 226.849 1031.59 228.361 1031.59 230.233C1031.59 232.117 1030.4 233.629 1028.46 233.629ZM1028.45 232.717C1029.77 232.717 1030.45 231.625 1030.45 230.233C1030.45 228.841 1029.77 227.737 1028.45 227.737C1027.13 227.737 1026.44 228.841 1026.44 230.233C1026.44 231.625 1027.13 232.717 1028.45 232.717Z" fill="#171717"/>
<path d="M1025.31 241C1025.31 240.724 1025.09 240.5 1024.81 240.5C1024.54 240.5 1024.31 240.724 1024.31 241H1024.81H1025.31ZM791.959 414.646C791.764 414.842 791.764 415.158 791.959 415.354L795.141 418.536C795.336 418.731 795.653 418.731 795.848 418.536C796.043 418.34 796.043 418.024 795.848 417.828L793.02 415L795.848 412.172C796.043 411.976 796.043 411.66 795.848 411.464C795.653 411.269 795.336 411.269 795.141 411.464L791.959 414.646ZM1024.81 241H1024.31V367H1024.81H1025.31V241H1024.81ZM976.812 415V414.5H792.312V415V415.5H976.812V415ZM1024.81 367H1024.31C1024.31 393.234 1003.05 414.5 976.812 414.5V415V415.5C1003.6 415.5 1025.31 393.786 1025.31 367H1024.81Z" fill="#171717"/>
<path d="M1089.9 164V160.256L1086.68 155.072H1088.05L1089.66 157.76C1090.03 158.396 1090.53 159.428 1090.53 159.428H1090.56C1090.56 159.428 1091.07 158.396 1091.44 157.76L1093.06 155.072H1094.37L1091.12 160.316V164H1089.9ZM1095.52 164V155.072H1101.87V156.152H1096.75V158.852H1101.38V159.872H1096.75V162.884H1102V164H1095.52ZM1106.67 164.18C1104.18 164.18 1102.94 162.812 1102.84 161.108H1104.06C1104.2 162.452 1105.09 163.196 1106.71 163.196C1107.9 163.196 1108.76 162.668 1108.76 161.588C1108.76 160.424 1107.73 160.148 1106.17 159.8C1104.57 159.464 1103.22 159.008 1103.22 157.292C1103.22 155.792 1104.48 154.904 1106.31 154.904C1108.51 154.904 1109.49 156.008 1109.71 157.532H1108.52C1108.36 156.452 1107.58 155.864 1106.32 155.864C1105.15 155.864 1104.38 156.344 1104.38 157.232C1104.38 158.204 1105.35 158.48 1106.7 158.756C1108.42 159.104 1110 159.548 1110 161.54C1110 163.232 1108.6 164.18 1106.67 164.18Z" fill="#171717"/>
<path d="M1117 159C1116.72 159 1116.5 159.224 1116.5 159.5C1116.5 159.776 1116.72 160 1117 160V159.5V159ZM1144.35 159.854C1144.55 159.658 1144.55 159.342 1144.35 159.146L1141.17 155.964C1140.98 155.769 1140.66 155.769 1140.46 155.964C1140.27 156.16 1140.27 156.476 1140.46 156.672L1143.29 159.5L1140.46 162.328C1140.27 162.524 1140.27 162.84 1140.46 163.036C1140.66 163.231 1140.98 163.231 1141.17 163.036L1144.35 159.854ZM1117 159.5V160H1144V159.5V159H1117V159.5Z" fill="#171717"/>
<rect x="1152" y="134" width="128" height="46" rx="16" fill="#FFD8C0"/>
<path d="M1189.55 154.18C1187.05 154.18 1185.82 152.812 1185.72 151.108H1186.93C1187.08 152.452 1187.97 153.196 1189.59 153.196C1190.77 153.196 1191.64 152.668 1191.64 151.588C1191.64 150.424 1190.61 150.148 1189.05 149.8C1187.45 149.464 1186.09 149.008 1186.09 147.292C1186.09 145.792 1187.35 144.904 1189.19 144.904C1191.39 144.904 1192.37 146.008 1192.59 147.532H1191.4C1191.24 146.452 1190.46 145.864 1189.2 145.864C1188.03 145.864 1187.26 146.344 1187.26 147.232C1187.26 148.204 1188.23 148.48 1189.57 148.756C1191.3 149.104 1192.87 149.548 1192.87 151.54C1192.87 153.232 1191.48 154.18 1189.55 154.18ZM1199.4 154H1198.3V153.1H1198.27C1197.82 153.736 1197.25 154.144 1196.33 154.144C1195 154.144 1194.14 153.34 1194.14 151.996V147.556H1195.26V151.936C1195.26 152.752 1195.78 153.232 1196.66 153.232C1197.65 153.232 1198.28 152.476 1198.28 151.48V147.556H1199.4V154ZM1203.75 154.18C1201.82 154.18 1200.61 152.668 1200.61 150.784C1200.61 148.912 1201.82 147.4 1203.75 147.4C1205.3 147.4 1206.31 148.276 1206.53 149.656H1205.42C1205.26 148.816 1204.69 148.3 1203.75 148.3C1202.43 148.3 1201.75 149.392 1201.75 150.784C1201.75 152.176 1202.43 153.268 1203.75 153.268C1204.76 153.268 1205.36 152.68 1205.44 151.72H1206.55C1206.4 153.256 1205.38 154.18 1203.75 154.18ZM1210.46 154.18C1208.53 154.18 1207.32 152.668 1207.32 150.784C1207.32 148.912 1208.53 147.4 1210.46 147.4C1212.01 147.4 1213.02 148.276 1213.25 149.656H1212.13C1211.98 148.816 1211.4 148.3 1210.46 148.3C1209.14 148.3 1208.46 149.392 1208.46 150.784C1208.46 152.176 1209.14 153.268 1210.46 153.268C1211.47 153.268 1212.07 152.68 1212.16 151.72H1213.26C1213.12 153.256 1212.1 154.18 1210.46 154.18ZM1217.18 154.18C1215.2 154.18 1214.04 152.668 1214.04 150.784C1214.04 148.912 1215.27 147.4 1217.12 147.4C1218.08 147.4 1218.82 147.772 1219.33 148.396C1219.86 149.032 1220.12 149.956 1220.12 151.048H1215.18C1215.26 152.308 1215.94 153.268 1217.19 153.268C1218.08 153.268 1218.69 152.848 1218.9 152.164H1219.99C1219.7 153.364 1218.67 154.18 1217.18 154.18ZM1217.12 148.264C1215.96 148.264 1215.34 149.104 1215.2 150.244H1218.93C1218.87 149.008 1218.24 148.264 1217.12 148.264ZM1223.78 154.192C1222.01 154.192 1221 153.352 1220.9 152.044H1222.03C1222.16 152.98 1222.88 153.292 1223.81 153.292C1224.83 153.292 1225.26 152.848 1225.26 152.272C1225.26 151.564 1224.72 151.384 1223.58 151.156C1222.32 150.892 1221.18 150.628 1221.18 149.212C1221.18 148.108 1222.04 147.412 1223.54 147.412C1225.16 147.412 1225.97 148.168 1226.11 149.284H1224.99C1224.9 148.624 1224.44 148.252 1223.52 148.252C1222.64 148.252 1222.27 148.66 1222.27 149.152C1222.27 149.824 1222.89 149.956 1223.99 150.172C1225.27 150.424 1226.37 150.712 1226.37 152.212C1226.37 153.52 1225.29 154.192 1223.78 154.192ZM1230.05 154.192C1228.27 154.192 1227.27 153.352 1227.17 152.044H1228.3C1228.43 152.98 1229.15 153.292 1230.07 153.292C1231.09 153.292 1231.53 152.848 1231.53 152.272C1231.53 151.564 1230.99 151.384 1229.85 151.156C1228.59 150.892 1227.45 150.628 1227.45 149.212C1227.45 148.108 1228.31 147.412 1229.81 147.412C1231.43 147.412 1232.23 148.168 1232.38 149.284H1231.26C1231.17 148.624 1230.71 148.252 1229.79 148.252C1228.91 148.252 1228.54 148.66 1228.54 149.152C1228.54 149.824 1229.16 149.956 1230.25 150.172C1231.54 150.424 1232.64 150.712 1232.64 152.212C1232.64 153.52 1231.56 154.192 1230.05 154.192ZM1233.33 148.432V147.556H1234.33V146.668C1234.33 146.068 1234.49 145.648 1234.79 145.384C1235.1 145.12 1235.58 145.012 1236.2 145.012C1236.37 145.012 1236.57 145.024 1236.78 145.036V145.96C1235.72 145.888 1235.45 146.056 1235.45 146.716V147.556H1236.77V148.432H1235.45V154H1234.33V148.432H1233.33ZM1243.15 154H1242.04V153.1H1242.02C1241.56 153.736 1241 154.144 1240.07 154.144C1238.74 154.144 1237.89 153.34 1237.89 151.996V147.556H1239.01V151.936C1239.01 152.752 1239.52 153.232 1240.41 153.232C1241.39 153.232 1242.03 152.476 1242.03 151.48V147.556H1243.15V154ZM1244.74 154V145.072H1245.85V154H1244.74ZM1193.84 169.18C1191.9 169.18 1190.69 167.668 1190.69 165.784C1190.69 163.912 1191.9 162.4 1193.84 162.4C1195.38 162.4 1196.39 163.276 1196.62 164.656H1195.5C1195.35 163.816 1194.77 163.3 1193.84 163.3C1192.52 163.3 1191.83 164.392 1191.83 165.784C1191.83 167.176 1192.52 168.268 1193.84 168.268C1194.84 168.268 1195.44 167.68 1195.53 166.72H1196.63C1196.49 168.256 1195.47 169.18 1193.84 169.18ZM1198.87 162.412C1198.87 162.736 1198.85 163.18 1198.83 163.492H1198.87C1199.35 162.808 1200 162.4 1200.93 162.4C1202.28 162.4 1203.11 163.156 1203.11 164.5V169H1202V164.632C1202 163.804 1201.46 163.336 1200.59 163.336C1199.59 163.336 1198.87 164.044 1198.87 165.076V169H1197.75V160.072H1198.87V162.412ZM1207.41 169.18C1205.43 169.18 1204.26 167.668 1204.26 165.784C1204.26 163.912 1205.5 162.4 1207.35 162.4C1208.31 162.4 1209.05 162.772 1209.55 163.396C1210.08 164.032 1210.35 164.956 1210.35 166.048H1205.4C1205.49 167.308 1206.17 168.268 1207.42 168.268C1208.31 168.268 1208.92 167.848 1209.12 167.164H1210.21C1209.93 168.364 1208.89 169.18 1207.41 169.18ZM1207.35 163.264C1206.18 163.264 1205.57 164.104 1205.43 165.244H1209.16C1209.1 164.008 1208.46 163.264 1207.35 163.264ZM1214.33 169.18C1212.4 169.18 1211.19 167.668 1211.19 165.784C1211.19 163.912 1212.4 162.4 1214.33 162.4C1215.88 162.4 1216.89 163.276 1217.12 164.656H1216C1215.84 163.816 1215.27 163.3 1214.33 163.3C1213.01 163.3 1212.33 164.392 1212.33 165.784C1212.33 167.176 1213.01 168.268 1214.33 168.268C1215.34 168.268 1215.94 167.68 1216.02 166.72H1217.13C1216.98 168.256 1215.96 169.18 1214.33 169.18ZM1222.49 169L1220.28 165.604L1219.37 166.468V169H1218.25V160.072H1219.37V164.308C1219.37 164.536 1219.34 164.992 1219.32 165.304L1222.11 162.556H1223.51L1221.05 164.872L1223.79 169H1222.49ZM1227.2 169.18C1225.26 169.18 1224.04 167.668 1224.04 165.784C1224.04 163.912 1225.26 162.4 1227.2 162.4C1229.14 162.4 1230.33 163.912 1230.33 165.784C1230.33 167.668 1229.14 169.18 1227.2 169.18ZM1227.19 168.268C1228.51 168.268 1229.19 167.176 1229.19 165.784C1229.19 164.392 1228.51 163.288 1227.19 163.288C1225.87 163.288 1225.18 164.392 1225.18 165.784C1225.18 167.176 1225.87 168.268 1227.19 168.268ZM1236.74 169H1235.63V168.1H1235.61C1235.15 168.736 1234.59 169.144 1233.66 169.144C1232.33 169.144 1231.48 168.34 1231.48 166.996V162.556H1232.6V166.936C1232.6 167.752 1233.11 168.232 1234 168.232C1234.98 168.232 1235.62 167.476 1235.62 166.48V162.556H1236.74V169ZM1237.89 163.42V162.556H1238.9V160.528H1240.01V162.556H1241.34V163.42H1240.01V167.488C1240.01 167.956 1240.26 168.088 1240.67 168.088C1240.86 168.088 1241.11 168.04 1241.23 168.004H1241.27V168.94C1240.97 169.012 1240.65 169.048 1240.37 169.048C1239.5 169.036 1238.9 168.688 1238.9 167.74V163.42H1237.89Z" fill="#171717"/>
<defs>
<clipPath id="clip0_2187_19402">
<rect x="1024" y="99" width="88" height="88" rx="16" transform="rotate(45 1024 99)" fill="white"/>
</clipPath>
</defs>
</svg>
