<svg width="126" height="122" viewBox="0 0 126 122" fill="none" xmlns="http://www.w3.org/2000/svg">
<path d="M0.750271 60.75C0.75027 93.8871 11.9717 120.75 25.8141 120.75C39.6565 120.75 50.8779 93.8871 50.8779 60.75" stroke="white" stroke-width="1.5"/>
<path d="M20.5375 60.75C20.5375 27.6129 27.3294 0.749999 35.7077 0.749999C44.086 0.75 50.8779 27.6129 50.8779 60.75" stroke="white" stroke-width="1.5"/>
<path d="M20.5382 60.75C20.5382 93.8871 31.4643 120.75 44.9424 120.75C58.4205 120.75 69.3467 93.8871 69.3467 60.75" stroke="white" stroke-width="1.5"/>
<path d="M39.0069 60.75C39.0069 93.8871 49.9331 120.75 63.4112 120.75C76.8893 120.75 87.8154 93.8871 87.8154 60.75" stroke="white" stroke-width="1.5"/>
<path d="M57.4757 60.75C57.4757 93.8871 68.4018 120.75 81.8799 120.75C95.358 120.75 106.284 93.8871 106.284 60.75" stroke="white" stroke-width="1.5"/>
<path d="M75.9444 60.75C75.9444 93.8871 86.8706 120.75 100.349 120.75C113.827 120.75 124.753 93.8871 124.753 60.75" stroke="white" stroke-width="1.5"/>
<path d="M39.0063 60.75C39.0063 27.6129 45.7982 0.749999 54.1765 0.749999C62.5547 0.75 69.3467 27.6129 69.3467 60.75" stroke="white" stroke-width="1.5"/>
<path d="M57.475 60.75C57.475 27.6129 64.2669 0.749999 72.6452 0.749999C81.0235 0.75 87.8154 27.6129 87.8154 60.75" stroke="white" stroke-width="1.5"/>
<path d="M75.9438 60.75C75.9438 27.6129 82.7357 0.749999 91.114 0.749999C99.4922 0.75 106.284 27.6129 106.284 60.75" stroke="white" stroke-width="1.5"/>
</svg>
