<svg width="239" height="51" viewBox="0 0 239 51" fill="none" xmlns="http://www.w3.org/2000/svg">
<path d="M110.437 23.0142V36.7264H107.309V23.0142C107.309 18.8443 105.625 16.9198 101.936 16.9198C97.605 16.9198 95.2792 20.1274 95.2792 23.3349V36.8066H92.1513V14.1934H95.2792V16.6792C96.803 15.0755 99.2091 13.8726 102.096 13.8726C107.47 13.8726 110.437 17.1604 110.437 23.0142ZM147.891 13.8726C144.924 13.8726 142.598 15.0755 141.074 16.6792V4.25H137.946V36.7264H141.074V23.2547C141.074 20.0472 143.32 16.8396 147.731 16.8396C151.42 16.8396 153.104 18.7642 153.104 22.934V36.7264H156.232V23.0142C156.232 17.1604 153.265 13.8726 147.891 13.8726ZM194.809 25.3396V25.6604C194.809 32.2358 190.157 37.1274 183.982 37.1274C177.967 37.1274 173.155 32.0755 173.155 25.6604V25.3396C173.155 18.8443 177.806 13.8726 184.062 13.8726C190.318 13.9528 194.809 18.684 194.809 25.3396ZM191.601 25.6604V25.3396C191.601 20.3679 188.473 16.9198 184.062 16.9198C179.651 16.9198 176.363 20.4481 176.363 25.4198V25.7406C176.363 30.6321 179.571 34.1604 183.982 34.1604C188.473 34.0802 191.601 30.6321 191.601 25.6604ZM208.363 13.8726C205.396 13.8726 203.07 15.0755 201.546 16.6792V14.1934H198.418V36.8066H201.546V23.2547C201.546 20.0472 203.792 16.8396 208.203 16.8396C211.892 16.8396 213.576 18.7642 213.576 22.934V36.7264H216.704V23.0142C216.704 17.1604 213.737 13.8726 208.363 13.8726ZM124.392 34.0802C119.981 34.0802 116.773 30.5519 116.773 25.6604V25.3396C116.773 20.4481 119.981 16.8396 124.472 16.8396C127.52 16.8396 130.006 18.5236 131.209 21.1698H134.578C133.134 16.7594 129.285 13.8726 124.472 13.8726C118.297 13.8726 113.565 18.7642 113.565 25.3396V25.6604C113.565 32.0755 118.297 37.1274 124.392 37.1274C129.605 37.1274 133.776 33.5991 134.899 28.467H131.61C130.648 31.9151 127.921 34.0802 124.392 34.0802ZM170.829 13.8726C167.861 13.8726 165.536 15.0755 164.012 16.6792V14.1934H160.884V36.8066H164.012V23.2547C164.012 20.0472 166.257 16.8396 170.668 16.8396C171.47 16.8396 172.272 16.9198 172.914 17.1604V14.033C172.192 13.9528 171.551 13.8726 170.829 13.8726ZM59.6698 23.7358C54.6171 22.934 53.7349 21.9717 53.7349 20.2075C53.7349 18.283 55.7399 16.9198 58.7074 16.9198C61.755 16.9198 63.5195 18.0425 64.0007 20.4481V20.6085H67.3691L67.2889 20.2075C66.6473 16.1981 63.5997 14.033 58.7876 14.033C53.9755 14.033 50.5268 16.6792 50.5268 20.2877C50.5268 25.0189 54.5369 26.0613 58.948 26.783C63.1185 27.5047 64.4017 28.066 64.4017 30.5519C64.4017 32.7972 62.3164 34.2406 59.1084 34.2406C54.6973 34.2406 53.4141 31.9151 53.0131 29.9104H49.6446C50.0456 34.4009 53.6547 37.2076 59.1084 37.2076C64.1611 37.2076 67.6899 34.4009 67.6899 30.4717C67.7701 25.5 63.9205 24.4575 59.6698 23.7358ZM235.792 14.1934L228.975 32.717L220.955 14.1934H217.666L227.21 36.6462L224.243 45.467H227.531L239 14.1934H235.792ZM86.2164 14.1934L79.3993 32.717L71.3792 14.1934H68.0909L77.6349 36.6462L74.6674 45.467H77.9557L89.4245 14.1934H86.2164Z" fill="#343741"/>
<path d="M9.86477 25.5H0V51H9.86477V25.5ZM24.3812 0V51H14.5164V0H24.3812ZM38.8175 0V25.5H29.0329V0H38.8175Z" fill="#F9C20A"/>
</svg>
