<svg width="115" height="66" viewBox="0 0 115 66" fill="none" xmlns="http://www.w3.org/2000/svg">
<path d="M61.9949 14.9422C76.3167 18.7797 88.6781 24.3408 97.0862 30.1966C101.294 33.1271 104.466 36.0988 106.409 38.9244C108.354 41.754 108.993 44.3187 108.401 46.5292C107.809 48.7396 105.973 50.6413 102.873 52.1191C99.778 53.5947 95.5451 54.5824 90.4358 55.0163C80.2263 55.8835 66.7404 54.5189 52.4186 50.6814C38.0969 46.8439 25.7354 41.2828 17.3273 35.427C13.1196 32.4965 9.94759 29.5247 8.00489 26.6992C6.0594 23.8696 5.42042 21.3048 6.0127 19.0944C6.60499 16.8839 8.44076 14.9823 11.5404 13.5045C14.6356 12.0289 18.8685 11.0412 23.9777 10.6072C34.1873 9.74002 47.6732 11.1047 61.9949 14.9422Z" stroke="white" stroke-width="2"/>
<path d="M52.4279 14.9422C38.1062 18.7797 25.7447 24.3408 17.3366 30.1966C13.1289 33.1271 9.95689 36.0989 8.0142 38.9244C6.06871 41.754 5.42972 44.3188 6.02201 46.5292C6.6143 48.7396 8.45007 50.6413 11.5497 52.1191C14.6449 53.5947 18.8778 54.5824 23.987 55.0164C34.1966 55.8835 47.6825 54.5189 62.0042 50.6814C76.326 46.8439 88.6874 41.2828 97.0956 35.427C101.303 32.4965 104.475 29.5247 106.418 26.6992C108.363 23.8696 109.002 21.3048 108.41 19.0944C107.818 16.8839 105.982 14.9823 102.882 13.5045C99.7873 12.0289 95.5544 11.0412 90.4451 10.6072C80.2356 9.74003 66.7497 11.1047 52.4279 14.9422Z" stroke="white" stroke-width="2"/>
</svg>
