<svg width="808" height="513" viewBox="0 0 808 513" fill="none" xmlns="http://www.w3.org/2000/svg">
<ellipse opacity="0.14" cx="602.718" cy="441.345" rx="98.2819" ry="28.439" fill="black"/>
<path opacity="0.14" d="M390.379 415.032C395.45 411.356 398.208 407.403 398.208 403.287C398.208 383.654 335.481 367.738 258.104 367.738C180.727 367.738 118 383.654 118 403.287C118 417.593 151.304 429.922 199.313 435.561C200.626 435.715 201.589 436.874 201.706 438.19C204.347 467.658 282.644 468.948 299.926 468.948C354.206 468.948 398.208 454.343 398.208 436.327C398.208 431.757 395.377 427.407 390.267 423.46C387.59 421.393 387.641 417.017 390.379 415.032Z" fill="black"/>
<path d="M325.066 404.377C323.843 404.919 322.52 405.2 321.182 405.2C319.844 405.2 318.521 404.919 317.298 404.377L271.338 385.928C270.764 385.668 270.276 385.25 269.932 384.723C269.587 384.195 269.401 383.58 269.396 382.95V323.913C269.391 323.221 269.609 322.546 270.017 321.987C270.425 321.428 271.001 321.014 271.661 320.806L318.269 302.098C320.167 301.514 322.197 301.514 324.095 302.098L370.703 320.806C371.363 321.014 371.94 321.428 372.347 321.987C372.755 322.546 372.973 323.221 372.969 323.913V382.95C372.963 383.58 372.777 384.195 372.433 384.723C372.088 385.25 371.601 385.668 371.027 385.928L325.066 404.377Z" fill="#14212F" stroke="white" stroke-linecap="round" stroke-linejoin="round"/>
<path d="M371.933 321.52C371.673 321.772 371.365 321.97 371.027 322.102L325.067 340.616C323.836 341.129 322.516 341.393 321.183 341.393C319.849 341.393 318.529 341.129 317.299 340.616L271.338 322.102C271 321.97 270.692 321.772 270.432 321.52" stroke="white" stroke-linecap="round" stroke-linejoin="round"/>
<path d="M321.183 405.218V341.391" stroke="white" stroke-linecap="round" stroke-linejoin="round"/>
<path d="M197.928 414.412C196.705 414.954 195.381 415.235 194.044 415.235C192.706 415.235 191.383 414.954 190.16 414.412L144.199 395.963C143.625 395.703 143.137 395.285 142.793 394.758C142.449 394.23 142.263 393.615 142.257 392.985V333.948C142.253 333.256 142.47 332.581 142.878 332.022C143.286 331.463 143.862 331.049 144.523 330.841L191.131 312.133C193.029 311.549 195.058 311.549 196.957 312.133L243.564 330.841C244.225 331.049 244.801 331.463 245.209 332.022C245.617 332.581 245.834 333.256 245.83 333.948V392.985C245.824 393.615 245.639 394.23 245.294 394.758C244.95 395.285 244.462 395.703 243.888 395.963L197.928 414.412Z" fill="#14212F" stroke="white" stroke-linecap="round" stroke-linejoin="round"/>
<path d="M244.795 331.555C244.535 331.807 244.226 332.005 243.888 332.137L197.928 350.651C196.697 351.164 195.377 351.428 194.044 351.428C192.711 351.428 191.391 351.164 190.16 350.651L144.199 332.137C143.861 332.005 143.553 331.807 143.293 331.555" stroke="white" stroke-linecap="round" stroke-linejoin="round"/>
<path d="M194.043 415.253V351.426" stroke="white" stroke-linecap="round" stroke-linejoin="round"/>
<path d="M279.899 449.689C278.676 450.232 277.353 450.512 276.015 450.512C274.677 450.512 273.354 450.232 272.131 449.689L226.171 431.24C225.597 430.981 225.109 430.563 224.765 430.035C224.42 429.507 224.234 428.892 224.229 428.263V369.226C224.224 368.534 224.442 367.859 224.85 367.299C225.258 366.74 225.834 366.326 226.494 366.119L273.102 347.411C275 346.827 277.03 346.827 278.928 347.411L325.536 366.119C326.196 366.326 326.773 366.74 327.18 367.299C327.588 367.859 327.806 368.534 327.802 369.226V428.263C327.796 428.892 327.61 429.507 327.266 430.035C326.921 430.563 326.434 430.981 325.86 431.24L279.899 449.689Z" fill="#14212F" stroke="white" stroke-linecap="round" stroke-linejoin="round"/>
<path d="M326.766 366.832C326.506 367.084 326.198 367.283 325.86 367.415L279.9 385.928C278.669 386.441 277.349 386.705 276.016 386.705C274.682 386.705 273.362 386.441 272.132 385.928L226.171 367.415C225.833 367.283 225.525 367.084 225.265 366.832" stroke="white" stroke-linecap="round" stroke-linejoin="round"/>
<path d="M276.016 450.53V386.703" stroke="white" stroke-linecap="round" stroke-linejoin="round"/>
<path d="M277.739 184.881C277.138 184.65 276.593 184.295 276.138 183.841C275.683 183.386 275.329 182.84 275.097 182.24L265.742 160.338C265.635 160.055 265.612 159.747 265.674 159.45C265.736 159.154 265.882 158.881 266.095 158.665L286.169 138.59C286.403 138.354 286.707 138.198 287.036 138.147C287.365 138.095 287.701 138.15 287.996 138.304L310.206 147.791C311.05 148.238 311.741 148.928 312.187 149.772L321.675 171.982C321.828 172.278 321.884 172.614 321.832 172.943C321.781 173.272 321.625 173.575 321.388 173.809L301.314 193.884C301.097 194.097 300.825 194.242 300.529 194.305C300.232 194.367 299.924 194.344 299.641 194.237L277.739 184.881Z" fill="#14212F" stroke="white" stroke-linecap="round" stroke-linejoin="round"/>
<path d="M321.851 172.644C321.676 172.641 321.504 172.604 321.344 172.534L299.42 163.2C298.828 162.956 298.289 162.597 297.836 162.144C297.382 161.691 297.023 161.152 296.779 160.559L287.446 138.635C287.376 138.475 287.339 138.303 287.336 138.129" stroke="white" stroke-linecap="round" stroke-linejoin="round"/>
<path d="M276.132 183.848L297.836 162.145" stroke="white" stroke-linecap="round" stroke-linejoin="round"/>
<path d="M245.265 100.525C245.129 100.977 244.9 101.395 244.593 101.753C244.286 102.111 243.907 102.401 243.481 102.604L227.985 110.664C227.784 110.758 227.56 110.792 227.34 110.763C227.119 110.734 226.912 110.642 226.742 110.499L210.945 96.9365C210.759 96.7787 210.628 96.5653 210.572 96.3277C210.516 96.0901 210.538 95.8408 210.634 95.6164L216.335 78.847C216.615 78.2049 217.082 77.6617 217.674 77.288L233.387 69.1143C233.595 68.9853 233.838 68.9262 234.081 68.9456C234.324 68.9649 234.555 69.0618 234.739 69.2218L250.537 82.7846C250.704 82.9309 250.826 83.1219 250.888 83.3352C250.95 83.5486 250.95 83.7751 250.887 83.9884L245.265 100.525Z" fill="#14212F" stroke="white" stroke-linecap="round" stroke-linejoin="round"/>
<path d="M233.86 68.949C233.868 69.0766 233.85 69.2046 233.808 69.3253L228.203 85.877C228.058 86.3241 227.825 86.738 227.519 87.0947C227.213 87.4515 226.839 87.744 226.419 87.9556L210.906 96.0007C210.793 96.0608 210.669 96.0977 210.542 96.1094" stroke="white" stroke-linecap="round" stroke-linejoin="round"/>
<path d="M244.598 101.757L227.519 87.0938" stroke="white" stroke-linecap="round" stroke-linejoin="round"/>
<path d="M302.98 74.6306C302.679 74.5986 302.388 74.5038 302.126 74.3525C301.864 74.2012 301.636 73.9967 301.458 73.7521L294.542 64.9407C294.459 64.8249 294.411 64.6878 294.403 64.5456C294.395 64.4033 294.428 64.2618 294.498 64.1378L301.175 52.5738C301.252 52.4377 301.371 52.3301 301.514 52.2667C301.657 52.2032 301.817 52.1874 301.97 52.2214L313.215 53.8278C313.653 53.928 314.051 54.1576 314.356 54.4867L321.37 63.422C321.476 63.5374 321.542 63.6836 321.559 63.8393C321.575 63.9949 321.542 64.1518 321.463 64.2869L314.786 75.8509C314.714 75.9736 314.608 76.0731 314.481 76.1375C314.354 76.2019 314.211 76.2287 314.069 76.2146L302.98 74.6306Z" fill="#14212F" stroke="white" stroke-linecap="round" stroke-linejoin="round"/>
<path d="M321.53 63.7015C321.451 63.7215 321.368 63.7255 321.287 63.7132L310.191 62.1419C309.892 62.1031 309.603 62.0056 309.342 61.8548C309.081 61.704 308.852 61.503 308.669 61.2634L301.76 52.4393C301.709 52.3752 301.671 52.3015 301.648 52.2227" stroke="white" stroke-linecap="round" stroke-linejoin="round"/>
<path d="M302.124 74.3578L309.342 61.8555" stroke="white" stroke-linecap="round" stroke-linejoin="round"/>
<path d="M350.16 329.096C348.937 329.638 347.614 329.918 346.276 329.918C344.938 329.918 343.615 329.638 342.392 329.096L296.431 310.647C295.857 310.387 295.369 309.969 295.025 309.441C294.681 308.914 294.495 308.299 294.489 307.669V248.632C294.485 247.94 294.703 247.265 295.111 246.706C295.518 246.146 296.095 245.733 296.755 245.525L343.363 226.817C345.261 226.233 347.291 226.233 349.189 226.817L395.797 245.525C396.457 245.733 397.033 246.146 397.441 246.706C397.849 247.265 398.066 247.94 398.063 248.632V307.669C398.057 308.299 397.871 308.914 397.527 309.441C397.182 309.969 396.695 310.387 396.121 310.647L350.16 329.096Z" fill="#14212F" stroke="white" stroke-linecap="round" stroke-linejoin="round"/>
<path d="M397.027 246.238C396.767 246.491 396.459 246.689 396.121 246.821L350.16 265.335C348.93 265.847 347.61 266.111 346.276 266.111C344.943 266.111 343.623 265.847 342.392 265.335L296.432 246.821C296.094 246.689 295.786 246.491 295.525 246.238" stroke="white" stroke-linecap="round" stroke-linejoin="round"/>
<path d="M346.276 329.936V266.109" stroke="white" stroke-linecap="round" stroke-linejoin="round"/>
<path d="M604.137 456.328C603.009 456.812 601.789 457.063 600.556 457.063C599.322 457.063 598.102 456.812 596.974 456.328L554.596 439.863C554.067 439.631 553.617 439.258 553.3 438.787C552.983 438.316 552.811 437.768 552.806 437.206V384.517C552.802 383.899 553.003 383.297 553.379 382.797C553.755 382.298 554.286 381.929 554.895 381.744L597.87 365.047C599.62 364.526 601.491 364.526 603.241 365.047L646.216 381.744C646.825 381.929 647.356 382.298 647.732 382.797C648.108 383.297 648.309 383.899 648.305 384.517V437.206C648.3 437.768 648.129 438.316 647.811 438.787C647.494 439.258 647.044 439.631 646.515 439.863L604.137 456.328Z" fill="#14212F" stroke="white" stroke-linecap="round" stroke-linejoin="round"/>
<path d="M647.35 382.379C647.11 382.604 646.826 382.781 646.515 382.899L604.137 399.422C603.002 399.879 601.785 400.115 600.556 400.115C599.326 400.115 598.109 399.879 596.974 399.422L554.596 382.899C554.285 382.781 554.001 382.604 553.761 382.379" stroke="white" stroke-linecap="round" stroke-linejoin="round"/>
<path d="M600.556 457.081V400.117" stroke="white" stroke-linecap="round" stroke-linejoin="round"/>
<path d="M604.137 399.594C603.009 400.078 601.789 400.328 600.556 400.328C599.322 400.328 598.102 400.078 596.974 399.594L554.596 383.129C554.067 382.897 553.617 382.524 553.3 382.053C552.983 381.582 552.811 381.033 552.806 380.471V327.782C552.802 327.165 553.003 326.562 553.379 326.063C553.755 325.564 554.286 325.195 554.895 325.009L597.87 308.313C599.62 307.792 601.491 307.792 603.241 308.313L646.216 325.009C646.825 325.195 647.356 325.564 647.732 326.063C648.108 326.562 648.309 327.165 648.305 327.782V380.471C648.3 381.033 648.129 381.582 647.811 382.053C647.494 382.524 647.044 382.897 646.515 383.129L604.137 399.594Z" fill="#14212F" stroke="white" stroke-linecap="round" stroke-linejoin="round"/>
<path d="M647.35 325.645C647.11 325.87 646.826 326.047 646.515 326.164L604.137 342.688C603.002 343.145 601.785 343.381 600.556 343.381C599.326 343.381 598.109 343.145 596.974 342.688L554.596 326.164C554.285 326.047 554.001 325.87 553.761 325.645" stroke="white" stroke-linecap="round" stroke-linejoin="round"/>
<path d="M600.556 400.347V343.383" stroke="white" stroke-linecap="round" stroke-linejoin="round"/>
<path d="M604.137 342.86C603.009 343.344 601.789 343.594 600.556 343.594C599.322 343.594 598.102 343.344 596.974 342.86L554.596 326.394C554.067 326.163 553.617 325.789 553.3 325.319C552.983 324.848 552.811 324.299 552.806 323.737V271.048C552.802 270.43 553.003 269.828 553.379 269.329C553.755 268.829 554.286 268.46 554.895 268.275L597.87 251.578C599.62 251.057 601.491 251.057 603.241 251.578L646.216 268.275C646.825 268.46 647.356 268.829 647.732 269.329C648.108 269.828 648.309 270.43 648.305 271.048V323.737C648.3 324.299 648.129 324.848 647.811 325.319C647.494 325.789 647.044 326.163 646.515 326.394L604.137 342.86Z" fill="#14212F" stroke="white" stroke-linecap="round" stroke-linejoin="round"/>
<path d="M647.35 268.91C647.11 269.135 646.826 269.312 646.515 269.43L604.137 285.953C603.002 286.411 601.785 286.646 600.556 286.646C599.326 286.646 598.109 286.411 596.974 285.953L554.596 269.43C554.285 269.312 554.001 269.135 553.761 268.91" stroke="white" stroke-linecap="round" stroke-linejoin="round"/>
<path d="M600.556 343.612V286.648" stroke="white" stroke-linecap="round" stroke-linejoin="round"/>
<path d="M604.137 286.125C603.009 286.609 601.789 286.86 600.556 286.86C599.322 286.86 598.102 286.609 596.974 286.125L554.596 269.66C554.067 269.428 553.617 269.055 553.3 268.584C552.983 268.113 552.811 267.565 552.806 267.002V214.314C552.802 213.696 553.003 213.093 553.379 212.594C553.755 212.095 554.286 211.726 554.895 211.54L597.87 194.844C599.62 194.323 601.491 194.323 603.241 194.844L646.216 211.54C646.825 211.726 647.356 212.095 647.732 212.594C648.108 213.093 648.309 213.696 648.305 214.314V267.002C648.3 267.565 648.129 268.113 647.811 268.584C647.494 269.055 647.044 269.428 646.515 269.66L604.137 286.125Z" fill="#14212F" stroke="white" stroke-linecap="round" stroke-linejoin="round"/>
<path d="M647.35 212.176C647.11 212.401 646.826 212.578 646.515 212.696L604.137 229.219C603.002 229.676 601.785 229.912 600.556 229.912C599.326 229.912 598.109 229.676 596.974 229.219L554.596 212.696C554.285 212.578 554.001 212.401 553.761 212.176" stroke="white" stroke-linecap="round" stroke-linejoin="round"/>
<path d="M600.556 286.878V229.914" stroke="white" stroke-linecap="round" stroke-linejoin="round"/>
<path d="M604.137 229.391C603.009 229.875 601.789 230.125 600.556 230.125C599.322 230.125 598.102 229.875 596.974 229.391L554.596 212.926C554.067 212.694 553.617 212.321 553.3 211.85C552.983 211.379 552.811 210.83 552.806 210.268V157.579C552.802 156.962 553.003 156.359 553.379 155.86C553.755 155.361 554.286 154.992 554.895 154.806L597.87 138.11C599.62 137.588 601.491 137.588 603.241 138.11L646.216 154.806C646.825 154.992 647.356 155.361 647.732 155.86C648.108 156.359 648.309 156.962 648.305 157.579V210.268C648.3 210.83 648.129 211.379 647.811 211.85C647.494 212.321 647.044 212.694 646.515 212.926L604.137 229.391Z" fill="#14212F" stroke="white" stroke-linecap="round" stroke-linejoin="round"/>
<path d="M647.35 155.441C647.11 155.667 646.826 155.844 646.515 155.961L604.137 172.484C603.002 172.942 601.785 173.178 600.556 173.178C599.326 173.178 598.109 172.942 596.974 172.484L554.596 155.961C554.285 155.844 554.001 155.667 553.761 155.441" stroke="white" stroke-linecap="round" stroke-linejoin="round"/>
<path d="M600.556 230.144V173.18" stroke="white" stroke-linecap="round" stroke-linejoin="round"/>
<path d="M620.609 110.379L626.523 87.6518L616.264 97.4582C616.136 97.5808 615.985 97.6766 615.819 97.7399C615.654 97.8033 615.477 97.833 615.3 97.8273C615.123 97.8216 614.949 97.7806 614.788 97.7067C614.627 97.6328 614.482 97.5275 614.362 97.397L600.629 82.4062L586.906 97.381C586.785 97.5124 586.639 97.6182 586.477 97.6922C586.314 97.7661 586.139 97.8066 585.96 97.8114C585.782 97.8161 585.604 97.7849 585.438 97.7197C585.272 97.6544 585.121 97.5565 584.993 97.4316L574.915 87.6252L580.648 110.379" fill="#14212F"/>
<path d="M620.609 110.379L626.523 87.6518L616.264 97.4582C616.136 97.5808 615.985 97.6766 615.819 97.7399C615.654 97.8033 615.477 97.833 615.3 97.8273C615.123 97.8216 614.949 97.7806 614.788 97.7067C614.627 97.6328 614.482 97.5275 614.362 97.397L600.629 82.4062L586.906 97.381C586.785 97.5124 586.639 97.6182 586.477 97.6922C586.314 97.7661 586.139 97.8066 585.96 97.8114C585.782 97.8161 585.604 97.7849 585.438 97.7197C585.272 97.6544 585.121 97.5565 584.993 97.4316L574.915 87.6252L580.648 110.379" stroke="white" stroke-linecap="round" stroke-linejoin="round"/>
<path d="M595.3 77.0781C595.3 78.4912 595.861 79.8465 596.86 80.8457C597.86 81.8449 599.215 82.4063 600.628 82.4063C602.041 82.4063 603.396 81.8449 604.396 80.8457C605.395 79.8465 605.956 78.4912 605.956 77.0781C605.956 75.665 605.395 74.3098 604.396 73.3106C603.396 72.3114 602.041 71.75 600.628 71.75C599.215 71.75 597.86 72.3114 596.86 73.3106C595.861 74.3098 595.3 75.665 595.3 77.0781Z" fill="#14212F" stroke="white" stroke-linecap="round" stroke-linejoin="round"/>
<path d="M569.991 83.7383C569.991 84.7981 570.412 85.8145 571.162 86.564C571.911 87.3134 572.927 87.7344 573.987 87.7344C575.047 87.7344 576.064 87.3134 576.813 86.564C577.562 85.8145 577.983 84.7981 577.983 83.7383C577.983 82.6785 577.562 81.662 576.813 80.9126C576.064 80.1632 575.047 79.7422 573.987 79.7422C572.927 79.7422 571.911 80.1632 571.162 80.9126C570.412 81.662 569.991 82.6785 569.991 83.7383Z" fill="#14212F" stroke="white" stroke-linecap="round" stroke-linejoin="round"/>
<path d="M623.272 83.7383C623.272 84.7981 623.693 85.8145 624.443 86.564C625.192 87.3134 626.209 87.7344 627.269 87.7344C628.328 87.7344 629.345 87.3134 630.094 86.564C630.844 85.8145 631.265 84.7981 631.265 83.7383C631.265 82.6785 630.844 81.662 630.094 80.9126C629.345 80.1632 628.328 79.7422 627.269 79.7422C626.209 79.7422 625.192 80.1632 624.443 80.9126C623.693 81.662 623.272 82.6785 623.272 83.7383Z" fill="#14212F" stroke="white" stroke-linecap="round" stroke-linejoin="round"/>
<path d="M621.941 118.371H579.315C578.256 118.371 577.239 117.95 576.49 117.201C575.74 116.451 575.319 115.435 575.319 114.375C575.319 113.315 575.74 112.299 576.49 111.549C577.239 110.8 578.256 110.379 579.315 110.379H621.941C623 110.379 624.017 110.8 624.766 111.549C625.516 112.299 625.937 113.315 625.937 114.375C625.937 115.435 625.516 116.451 624.766 117.201C624.017 117.95 623 118.371 621.941 118.371Z" fill="#14212F" stroke="white" stroke-linecap="round" stroke-linejoin="round"/>
<path d="M579.37 132.699C579.149 134.399 579.321 136.127 579.874 137.75C580.426 139.373 581.344 140.848 582.556 142.06C583.768 143.272 585.243 144.19 586.865 144.742C588.488 145.295 590.216 145.467 591.917 145.246C583.811 145.216 579.781 149.562 579.37 157.792C579.612 156.088 579.454 154.351 578.909 152.719C578.364 151.086 577.447 149.603 576.23 148.386C575.013 147.168 573.53 146.251 571.897 145.706C570.264 145.161 568.527 145.004 566.823 145.246C568.523 145.466 570.251 145.293 571.873 144.74C573.496 144.187 574.97 143.27 576.182 142.058C577.394 140.846 578.311 139.372 578.864 137.749C579.417 136.127 579.59 134.399 579.37 132.699Z" fill="#14202E" stroke="white" stroke-linecap="round" stroke-linejoin="round"/>
<path d="M579.37 132.699C579.149 134.399 579.321 136.127 579.874 137.75C580.426 139.373 581.344 140.848 582.556 142.06C583.768 143.272 585.243 144.19 586.865 144.742C588.488 145.295 590.216 145.467 591.917 145.246C583.811 145.216 579.781 149.562 579.37 157.792C579.612 156.088 579.454 154.351 578.909 152.719C578.364 151.086 577.447 149.603 576.23 148.386C575.013 147.168 573.53 146.251 571.897 145.706C570.264 145.161 568.527 145.004 566.823 145.246C568.523 145.466 570.251 145.293 571.873 144.74C573.496 144.187 574.97 143.27 576.182 142.058C577.394 140.846 578.311 139.372 578.864 137.749C579.417 136.127 579.59 134.399 579.37 132.699Z" fill="white" fill-opacity="0.2" stroke="white" stroke-linecap="round" stroke-linejoin="round"/>
<path d="M554.432 58.2539C554.282 59.4109 554.399 60.587 554.775 61.6914C555.151 62.7959 555.775 63.7994 556.6 64.6243C557.425 65.4493 558.429 66.0739 559.533 66.4498C560.638 66.8257 561.814 66.943 562.971 66.7926C557.455 66.7721 554.712 69.7299 554.432 75.3313C554.597 74.1715 554.49 72.9894 554.119 71.8783C553.748 70.7672 553.124 69.7576 552.295 68.9293C551.467 68.1011 550.458 67.4768 549.347 67.106C548.235 66.7351 547.053 66.6278 545.894 66.7926C547.05 66.9423 548.226 66.8245 549.33 66.4484C550.435 66.0722 551.438 65.4476 552.262 64.6228C553.087 63.798 553.712 62.7949 554.088 61.6907C554.464 60.5865 554.582 59.4107 554.432 58.2539Z" fill="white" fill-opacity="0.2" stroke="white" stroke-linecap="round" stroke-linejoin="round"/>
<path d="M646.945 25.0547C646.907 34.7102 651.617 40.1955 662.314 40.4243C652.386 40.3867 647.45 45.7183 646.945 55.7939C646.859 46.2853 642.597 40.4243 631.575 40.4243C641.439 40.2843 646.907 35.5265 646.945 25.0547Z" fill="white" fill-opacity="0.2" stroke="white" stroke-linecap="round" stroke-linejoin="round"/>
<path d="M341.447 449.889C340.728 450.208 339.95 450.373 339.163 450.373C338.377 450.373 337.598 450.208 336.879 449.889L309.851 439.04C309.513 438.887 309.227 438.641 309.024 438.331C308.822 438.021 308.712 437.659 308.709 437.289V402.571C308.707 402.164 308.835 401.767 309.074 401.438C309.314 401.109 309.653 400.866 310.041 400.744L337.45 389.742C338.566 389.399 339.76 389.399 340.876 389.742L368.285 400.744C368.674 400.866 369.012 401.109 369.252 401.438C369.492 401.767 369.62 402.164 369.618 402.571V437.289C369.614 437.659 369.505 438.021 369.302 438.331C369.1 438.641 368.813 438.887 368.476 439.04L341.447 449.889Z" fill="#14212F" stroke="white" stroke-linecap="round" stroke-linejoin="round" stroke-dasharray="4.18 5.86"/>
<path d="M369.009 401.164C368.856 401.313 368.675 401.429 368.476 401.507L341.448 412.394C340.724 412.696 339.948 412.851 339.164 412.851C338.38 412.851 337.603 412.696 336.879 412.394L309.851 401.507C309.653 401.429 309.471 401.313 309.318 401.164" fill="#14212F"/>
<path d="M369.009 401.164C368.856 401.313 368.675 401.429 368.476 401.507L341.448 412.394C340.724 412.696 339.948 412.851 339.164 412.851C338.38 412.851 337.603 412.696 336.879 412.394L309.851 401.507C309.653 401.429 309.471 401.313 309.318 401.164" stroke="white" stroke-linecap="round" stroke-linejoin="round" stroke-dasharray="4.18 5.86"/>
<path d="M339.163 450.383V412.848V450.383Z" fill="#14212F"/>
<path d="M339.163 450.383V412.848" stroke="white" stroke-linecap="round" stroke-linejoin="round" stroke-dasharray="4.18 5.86"/>
<path d="M188.726 332.439C187.503 332.982 186.18 333.262 184.842 333.262C183.504 333.262 182.181 332.982 180.958 332.439L134.998 313.99C134.424 313.731 133.936 313.313 133.592 312.785C133.248 312.257 133.062 311.642 133.056 311.013V251.976C133.052 251.284 133.269 250.609 133.677 250.049C134.085 249.49 134.661 249.076 135.321 248.869L181.929 230.161C183.827 229.577 185.857 229.577 187.755 230.161L234.363 248.869C235.024 249.076 235.6 249.49 236.008 250.049C236.415 250.609 236.633 251.284 236.629 251.976V311.013C236.623 311.642 236.437 312.257 236.093 312.785C235.749 313.313 235.261 313.731 234.687 313.99L188.726 332.439Z" fill="#14212F" stroke="white" stroke-linecap="round" stroke-linejoin="round" stroke-dasharray="4.18 5.86"/>
<path d="M235.594 249.582C235.333 249.834 235.025 250.033 234.687 250.165L188.727 268.678C187.496 269.191 186.176 269.455 184.843 269.455C183.509 269.455 182.189 269.191 180.959 268.678L134.998 250.165C134.66 250.033 134.352 249.834 134.092 249.582" stroke="white" stroke-linecap="round" stroke-linejoin="round" stroke-dasharray="4.18 5.86"/>
<path d="M187.281 254.127C186.512 254.468 185.681 254.644 184.84 254.644C183.999 254.644 183.167 254.468 182.399 254.127L153.514 242.533C153.154 242.37 152.847 242.107 152.631 241.775C152.415 241.444 152.298 241.057 152.294 240.662V203.559C152.291 203.125 152.428 202.7 152.684 202.349C152.941 201.997 153.303 201.737 153.718 201.607L183.009 189.85C184.202 189.482 185.478 189.482 186.67 189.85L215.962 201.607C216.376 201.737 216.739 201.997 216.995 202.349C217.251 202.7 217.388 203.125 217.385 203.559V240.662C217.382 241.057 217.265 241.444 217.049 241.775C216.832 242.107 216.526 242.37 216.165 242.533L187.281 254.127Z" fill="#14212F" stroke="white" stroke-linecap="round" stroke-linejoin="round"/>
<path d="M216.735 202.055C216.571 202.213 216.378 202.338 216.165 202.421L187.281 214.056C186.508 214.378 185.678 214.544 184.84 214.544C184.002 214.544 183.173 214.378 182.399 214.056L153.515 202.421C153.302 202.338 153.109 202.213 152.945 202.055" stroke="white" stroke-linecap="round" stroke-linejoin="round"/>
<path d="M184.84 254.656V214.543" stroke="white" stroke-linecap="round" stroke-linejoin="round"/>
<path d="M333.251 264.893C335.802 198.013 400.135 151.706 463.633 169.064C463.937 163.778 467.04 158.817 472.162 156.386L472.163 156.386C479.635 152.841 488.56 156.028 492.102 163.493L503.55 187.621C503.848 188.25 504.098 188.89 504.302 189.536L513.6 192.85L504.681 197.081C504.401 198.427 503.937 199.729 503.303 200.949L507.533 209.865L498.237 206.552C497.671 206.922 497.073 207.26 496.445 207.559L496.444 207.559L472.315 219.008L472.314 219.008C464.848 222.55 455.921 219.371 452.376 211.902L452.215 211.551C450.094 206.77 450.68 201.443 453.345 197.331C408.67 186.74 364.206 219.942 363.127 267.224C362.938 275.484 356.091 282.035 347.823 281.847C339.554 281.658 333.013 274.8 333.201 266.541L333.251 264.893Z" fill="url(#paint0_linear_2162_13529)" stroke="#14212F" stroke-width="24"/>
<defs>
<linearGradient id="paint0_linear_2162_13529" x1="335.639" y1="249.834" x2="482.508" y2="170.952" gradientUnits="userSpaceOnUse">
<stop stop-color="#00C4FF"/>
<stop offset="1" stop-color="#00BD9C"/>
</linearGradient>
</defs>
</svg>
