<svg width="324" height="328" viewBox="0 0 324 328" fill="none" xmlns="http://www.w3.org/2000/svg">
<path d="M271.423 306.928C274.015 306.928 275.839 308.512 275.839 311.296C275.839 314.32 274.015 316 271.423 316C268.447 316 266.863 314.368 266.863 311.296C266.863 308.656 268.735 306.928 271.423 306.928Z" fill="#1BBD9F"/>
<path d="M252.011 292.384V285.376H248.651C248.699 284.032 249.227 281.968 249.803 280.96C251.051 280.384 253.163 280 255.227 280C256.427 280 258.155 280.192 258.971 280.528V307.072C258.971 308.416 259.163 310 259.451 310.96H262.811C262.859 311.2 262.859 311.488 262.859 311.776C262.859 312.64 262.475 314.224 262.043 314.992C260.075 315.616 256.379 315.952 253.931 315.952C253.307 314.848 252.875 313.552 252.635 312.16H252.203C251.147 314.08 249.035 316.192 244.955 316.192C240.779 316.192 235.883 313.36 235.883 304.72C235.883 296.512 240.635 291.136 247.547 291.136C249.419 291.136 250.907 291.616 252.011 292.384ZM252.155 308.896V296.512C251.339 296.08 250.283 295.84 249.275 295.84C245.099 295.84 243.179 298.96 243.179 303.712C243.179 308.608 245.147 311.104 247.931 311.104C249.851 311.104 251.339 309.952 252.155 308.896Z" fill="#1BBD9F"/>
<path d="M232.071 305.152H217.959C218.343 308.896 220.695 310.96 224.487 310.96C226.647 310.96 230.295 310.336 232.023 309.712C232.167 311.008 231.591 313.168 230.823 314.368C229.047 315.328 226.071 316.192 222.663 316.192C215.031 316.192 210.711 311.056 210.711 304.144C210.711 296.56 215.559 291.136 223.047 291.136C229.575 291.136 232.263 295.552 232.263 302.464C232.263 303.28 232.167 304.288 232.071 305.152ZM217.719 300.736H225.495C225.783 298.24 224.967 295.312 222.135 295.312C219.687 295.312 217.959 297.568 217.719 300.736Z" fill="#1BBD9F"/>
<path d="M189.575 299.056V310.768C190.487 310.912 191.975 311.248 192.695 311.632C192.887 312.4 193.031 314.416 192.887 315.376H179.062C179.158 314.224 179.495 312.64 179.831 311.872C180.503 311.344 181.702 310.864 182.615 310.528V296.896H179.159C179.207 295.552 179.734 293.488 180.311 292.48C181.462 291.904 183.335 291.52 185.206 291.52C186.358 291.52 187.799 291.712 188.519 292.048V295.84H189.239C190.535 293.248 192.934 291.136 197.062 291.136C201.094 291.136 204.935 292.336 204.935 299.92C204.935 303.376 204.791 307.408 204.551 310.72C205.559 310.864 207.095 311.248 207.959 311.632C208.103 312.208 208.199 313.312 208.199 314.272C208.199 314.656 208.199 314.992 208.151 315.376H194.999C195.094 314.224 195.335 312.64 195.622 311.872C196.15 311.344 197.159 310.864 197.879 310.528V301.216C197.879 298.432 196.919 296.464 194.135 296.464C192.263 296.464 190.631 297.664 189.575 299.056Z" fill="#1BBD9F"/>
<path d="M154.623 315.952V315.52C153.711 315.04 152.607 313.552 152.607 311.968C152.607 309.712 154.047 308.176 155.631 307.456V307.024C153.711 305.776 152.367 303.664 152.367 300.16C152.367 294.544 156.879 291.136 162.831 291.136C164.943 291.136 166.959 291.472 168.687 292.336C169.983 291.568 171.855 291.136 173.679 291.136C174.687 291.136 175.599 291.28 176.463 291.52C176.991 292.72 177.471 294.976 177.471 296.464H172.575C173.007 297.568 173.247 298.768 173.247 300.16C173.247 305.872 169.263 309.184 162.831 309.184C161.823 309.184 160.719 309.088 159.855 308.896C159.663 309.28 159.519 309.712 159.519 310.096C159.519 311.488 161.199 311.968 165.375 311.968C171.951 311.968 176.751 313.408 176.751 318.976C176.751 325.168 170.655 327.808 162.927 327.808C155.871 327.808 150.783 325.408 150.783 320.896C150.783 318.016 152.751 316.384 154.623 315.952ZM158.607 317.056C157.791 317.776 157.311 318.64 157.311 319.696C157.311 322.336 160.527 323.536 163.743 323.536C167.103 323.536 170.175 322.288 170.175 319.936C170.175 318.4 168.591 317.536 163.791 317.536C162.351 317.536 160.335 317.392 158.607 317.056ZM159.327 300.16C159.327 303.28 160.623 305.392 162.831 305.392C165.135 305.392 166.239 303.328 166.239 300.16C166.239 297.136 164.943 294.976 162.831 294.976C160.431 294.976 159.327 296.848 159.327 300.16Z" fill="#1BBD9F"/>
<path d="M138.458 296.896H135.002C135.05 295.552 135.578 293.488 136.154 292.48C137.402 291.904 139.562 291.52 141.626 291.52C142.874 291.52 144.602 291.712 145.418 292.048V310.768C146.426 310.912 148.01 311.248 148.826 311.632C148.97 312.16 149.066 313.312 149.066 314.32C149.066 314.704 149.066 315.04 149.018 315.376H134.906C135.002 314.224 135.338 312.64 135.674 311.872C136.346 311.344 137.498 310.864 138.458 310.528V296.896ZM142.058 278.656C144.506 278.656 146.234 280.144 146.234 282.784C146.234 285.616 144.506 287.2 142.058 287.2C139.274 287.2 137.786 285.664 137.786 282.784C137.786 280.288 139.562 278.656 142.058 278.656Z" fill="#1BBD9F"/>
<path d="M125.507 297.808V295.648C124.979 295.36 124.211 295.12 123.395 295.12C121.715 295.12 120.851 295.84 120.851 297.232C120.851 301.936 132.131 299.488 132.131 308.416C132.131 314.176 127.523 316.192 122.195 316.192C118.979 316.192 116.051 315.712 113.555 314.368C113.411 313.648 113.315 312.736 113.315 311.776C113.315 310.24 113.507 308.656 113.795 307.696C115.811 307.696 117.635 307.888 119.315 308.464V311.104C120.179 311.584 121.475 311.92 122.531 311.92C124.307 311.92 125.315 311.248 125.315 309.712C125.315 305.344 113.891 307.744 113.891 298.336C113.891 294.064 117.395 291.136 123.347 291.136C125.987 291.136 128.819 291.616 131.411 292.768C131.459 293.248 131.507 293.872 131.507 294.448C131.507 295.984 131.315 297.712 130.979 298.864C128.963 298.864 126.803 298.384 125.507 297.808Z" fill="#1BBD9F"/>
<path d="M109.071 305.152H94.959C95.343 308.896 97.695 310.96 101.487 310.96C103.647 310.96 107.295 310.336 109.023 309.712C109.167 311.008 108.591 313.168 107.823 314.368C106.047 315.328 103.071 316.192 99.663 316.192C92.031 316.192 87.711 311.056 87.711 304.144C87.711 296.56 92.559 291.136 100.047 291.136C106.575 291.136 109.263 295.552 109.263 302.464C109.263 303.28 109.167 304.288 109.071 305.152ZM94.719 300.736H102.495C102.783 298.24 101.967 295.312 99.135 295.312C96.687 295.312 94.959 297.568 94.719 300.736Z" fill="#1BBD9F"/>
<path d="M74.6828 292.384V285.376H71.3228C71.3708 284.032 71.8987 281.968 72.4747 280.96C73.7227 280.384 75.8348 280 77.8988 280C79.0988 280 80.8267 280.192 81.6427 280.528V307.072C81.6427 308.416 81.8348 310 82.1228 310.96H85.4828C85.5308 311.2 85.5307 311.488 85.5307 311.776C85.5307 312.64 85.1468 314.224 84.7148 314.992C82.7467 315.616 79.0508 315.952 76.6028 315.952C75.9788 314.848 75.5467 313.552 75.3067 312.16H74.8748C73.8188 314.08 71.7068 316.192 67.6268 316.192C63.4508 316.192 58.5548 313.36 58.5548 304.72C58.5548 296.512 63.3068 291.136 70.2188 291.136C72.0908 291.136 73.5788 291.616 74.6828 292.384ZM74.8268 308.896V296.512C74.0107 296.08 72.9548 295.84 71.9467 295.84C67.7707 295.84 65.8508 298.96 65.8508 303.712C65.8508 308.608 67.8187 311.104 70.6028 311.104C72.5228 311.104 74.0107 309.952 74.8268 308.896Z" fill="#1BBD9F"/>
<path d="M290.594 235.152H276.482C276.866 238.896 279.218 240.96 283.01 240.96C285.17 240.96 288.818 240.336 290.546 239.712C290.69 241.008 290.114 243.168 289.346 244.368C287.57 245.328 284.594 246.192 281.186 246.192C273.554 246.192 269.234 241.056 269.234 234.144C269.234 226.56 274.082 221.136 281.57 221.136C288.098 221.136 290.786 225.552 290.786 232.464C290.786 233.28 290.69 234.288 290.594 235.152ZM276.242 230.736H284.018C284.306 228.24 283.49 225.312 280.658 225.312C278.21 225.312 276.482 227.568 276.242 230.736Z" fill="#1BBD9F"/>
<path d="M243.08 244.08V215.376H239.72C239.768 214.032 240.296 211.968 240.872 210.96C242.12 210.384 244.232 210 246.296 210C247.496 210 249.224 210.192 250.04 210.528V217.872C250.04 220.032 249.752 222.96 249.512 224.688H250.232C251.096 222.96 253.208 221.136 256.52 221.136C261.128 221.136 266.168 224.16 266.168 233.04C266.168 240.96 260.84 246.192 253.064 246.192C249.416 246.192 245.96 245.52 243.08 244.08ZM249.896 228.528V241.2C250.568 241.392 251.672 241.536 252.488 241.536C256.904 241.536 258.872 238.416 258.872 233.712C258.872 228.816 256.952 226.128 254.264 226.128C252.536 226.128 250.808 227.136 249.896 228.528Z" fill="#1BBD9F"/>
<path d="M215.565 221.136C222.765 221.136 227.613 225.456 227.613 233.28C227.613 241.536 222.861 246.192 215.565 246.192C207.837 246.192 203.469 241.776 203.469 233.28C203.469 225.744 208.653 221.136 215.565 221.136ZM210.621 233.28C210.621 238.368 212.493 241.68 215.565 241.68C218.877 241.68 220.413 238.464 220.413 233.28C220.413 228.864 218.541 225.6 215.565 225.6C212.349 225.6 210.621 228.672 210.621 233.28Z" fill="#1BBD9F"/>
<path d="M187.119 221.232L187.983 215.76C189.231 215.088 191.967 214.608 193.791 214.608V221.952H200.463C200.703 222.912 200.895 225.312 200.703 226.704H193.791V237.312C193.791 239.952 194.895 240.768 196.863 240.768C198.063 240.768 200.031 240.48 201.279 240.144C201.327 240.384 201.327 240.624 201.327 240.72C201.327 241.776 200.847 243.6 200.175 244.656C198.351 245.664 195.423 246.192 193.647 246.192C189.039 246.192 186.735 243.936 186.735 238.32C186.735 235.2 186.879 230.496 187.215 226.704H183.615C183.615 225.552 183.999 223.296 184.479 222.288C185.199 221.856 186.351 221.424 187.119 221.232Z" fill="#1BBD9F"/>
<path d="M164.671 227.808V225.648C164.143 225.36 163.375 225.12 162.559 225.12C160.879 225.12 160.015 225.84 160.015 227.232C160.015 231.936 171.295 229.488 171.295 238.416C171.295 244.176 166.687 246.192 161.359 246.192C158.143 246.192 155.215 245.712 152.719 244.368C152.575 243.648 152.479 242.736 152.479 241.776C152.479 240.24 152.671 238.656 152.959 237.696C154.975 237.696 156.799 237.888 158.479 238.464V241.104C159.343 241.584 160.639 241.92 161.695 241.92C163.471 241.92 164.479 241.248 164.479 239.712C164.479 235.344 153.055 237.744 153.055 228.336C153.055 224.064 156.559 221.136 162.511 221.136C165.151 221.136 167.983 221.616 170.575 222.768C170.623 223.248 170.671 223.872 170.671 224.448C170.671 225.984 170.479 227.712 170.143 228.864C168.127 228.864 165.967 228.384 164.671 227.808Z" fill="#1BBD9F"/>
<path d="M140.142 242.736H139.71C138.366 244.896 136.206 246.192 132.654 246.192C129.15 246.192 125.742 243.84 125.742 239.04C125.742 233.712 130.158 231.072 135.534 231.072C136.926 231.072 138.318 231.36 139.47 231.84V230.064C139.47 227.568 138.03 226.512 135.246 226.512C133.038 226.512 129.246 227.568 127.47 228.528C127.374 228.144 127.278 227.28 127.278 226.848C127.278 225.216 127.71 223.392 128.238 222.384C130.014 221.712 133.95 221.136 136.878 221.136C142.926 221.136 146.238 223.44 146.238 229.536V237.6C146.238 239.088 146.526 240.432 146.91 241.152C147.822 241.152 149.214 240.96 150.03 240.768C150.078 241.104 150.078 241.344 150.078 241.536C150.078 242.592 149.742 243.792 149.262 244.752C147.966 245.52 145.038 246.192 142.446 246.192C141.39 245.664 140.526 244.272 140.142 242.736ZM139.614 239.664V235.152C138.75 234.96 137.598 234.864 136.974 234.864C134.19 234.864 132.702 236.208 132.702 238.272C132.702 240.432 134.094 241.392 135.678 241.392C137.55 241.392 138.846 240.528 139.614 239.664Z" fill="#1BBD9F"/>
<path d="M104.371 229.68V240.768C105.283 240.912 106.771 241.248 107.491 241.632C107.683 242.4 107.827 244.416 107.683 245.376H93.8593C93.9553 244.224 94.2913 242.64 94.6273 241.872C95.2993 241.344 96.4993 240.864 97.4113 240.528V215.376H94.0513C94.0993 214.032 94.6273 211.968 95.2033 210.96C96.4513 210.384 98.5633 210 100.627 210C101.827 210 103.555 210.192 104.371 210.528V217.776C104.371 220.128 104.179 223.248 103.891 225.84H104.611C105.763 222.96 108.163 221.136 112.195 221.136C116.179 221.136 120.019 222.336 120.019 229.92C120.019 233.376 119.875 237.552 119.635 240.72C120.643 240.864 122.179 241.248 123.043 241.632C123.187 242.256 123.283 243.36 123.283 244.368C123.283 244.752 123.283 245.04 123.235 245.376H110.083C110.179 244.224 110.419 242.64 110.707 241.872C111.235 241.344 112.243 240.864 112.963 240.528V231.216C112.963 228.432 112.003 226.464 109.267 226.464C106.963 226.464 105.379 228 104.371 229.68Z" fill="#1BBD9F"/>
<path d="M67.3063 221.232L68.1703 215.76C69.4183 215.088 72.1543 214.608 73.9783 214.608V221.952H80.6503C80.8903 222.912 81.0823 225.312 80.8903 226.704H73.9783V237.312C73.9783 239.952 75.0823 240.768 77.0503 240.768C78.2503 240.768 80.2183 240.48 81.4663 240.144C81.5143 240.384 81.5143 240.624 81.5143 240.72C81.5143 241.776 81.0343 243.6 80.3623 244.656C78.5383 245.664 75.6103 246.192 73.8343 246.192C69.2263 246.192 66.9223 243.936 66.9223 238.32C66.9223 235.2 67.0663 230.496 67.4023 226.704H63.8023C63.8023 225.552 64.1863 223.296 64.6663 222.288C65.3863 221.856 66.5383 221.424 67.3063 221.232Z" fill="#1BBD9F"/>
<path d="M61.1136 245.376H45.4176C45.5136 244.176 45.9456 242.016 46.3776 241.056C47.0976 240.768 48.8256 240.432 49.6896 240.288V216.336C48.6816 216.24 47.2896 216 46.5216 215.76C46.3296 214.368 46.1856 212.88 46.4736 211.344H60.6816C60.8736 212.304 60.8256 214.752 60.5856 215.76C59.7696 216 58.0416 216.24 57.0816 216.288V240.288C58.2816 240.384 59.9136 240.672 60.9216 240.96C61.1136 241.632 61.2096 242.88 61.2096 243.936C61.2096 244.512 61.1616 245.04 61.1136 245.376Z" fill="#1BBD9F"/>
<path d="M319.329 166.928C321.921 166.928 323.745 168.512 323.745 171.296C323.745 174.32 321.921 176 319.329 176C316.353 176 314.769 174.368 314.769 171.296C314.769 168.656 316.641 166.928 319.329 166.928Z" fill="white"/>
<path d="M304.247 170.144H304.823C304.967 168.752 305.447 166.736 305.783 165.68L307.271 160.448C307.607 159.2 308.087 157.952 308.663 156.896C308.039 156.704 307.127 156.368 306.647 156.032C306.215 154.88 306.071 153.296 306.071 151.952H316.391C316.391 153.296 315.959 155.408 315.575 156.416C315.143 156.608 314.183 156.848 313.703 156.896L310.919 164.336C309.431 168.272 307.175 174.176 305.207 177.92C303.047 182.048 298.919 186.032 294.695 187.28C293.591 186.176 292.247 183.824 292.055 182.192C295.703 181.232 299.063 178.832 300.695 176.144L292.535 156.992C291.911 156.8 290.999 156.272 290.615 155.936C290.279 154.88 290.087 153.2 290.039 151.952H302.663C302.663 153.344 302.327 155.072 301.895 156.224C301.319 156.512 299.975 156.848 299.207 156.992C299.927 157.952 300.647 159.2 301.079 160.256L303.143 165.68C303.527 166.688 304.103 168.8 304.247 170.144Z" fill="white"/>
<path d="M278.841 145.376H275.481C275.529 144.032 276.057 141.968 276.633 140.96C277.881 140.384 279.993 140 282.057 140C283.257 140 284.985 140.192 285.801 140.528V170.768C286.809 170.912 288.393 171.248 289.209 171.632C289.353 172.16 289.449 173.312 289.449 174.32C289.449 174.704 289.449 175.04 289.401 175.376H275.289C275.385 174.224 275.721 172.64 276.057 171.872C276.729 171.344 277.881 170.864 278.841 170.528V145.376Z" fill="white"/>
<path d="M262.716 145.376H259.356C259.404 144.032 259.932 141.968 260.508 140.96C261.756 140.384 263.868 140 265.932 140C267.132 140 268.86 140.192 269.676 140.528V170.768C270.684 170.912 272.268 171.248 273.084 171.632C273.228 172.16 273.324 173.312 273.324 174.32C273.324 174.704 273.324 175.04 273.276 175.376H259.164C259.26 174.224 259.596 172.64 259.932 171.872C260.604 171.344 261.756 170.864 262.716 170.528V145.376Z" fill="white"/>
<path d="M247.931 172.736H247.499C246.155 174.896 243.995 176.192 240.443 176.192C236.939 176.192 233.531 173.84 233.531 169.04C233.531 163.712 237.947 161.072 243.323 161.072C244.715 161.072 246.107 161.36 247.259 161.84V160.064C247.259 157.568 245.819 156.512 243.035 156.512C240.827 156.512 237.035 157.568 235.259 158.528C235.163 158.144 235.067 157.28 235.067 156.848C235.067 155.216 235.499 153.392 236.027 152.384C237.803 151.712 241.739 151.136 244.667 151.136C250.715 151.136 254.027 153.44 254.027 159.536V167.6C254.027 169.088 254.315 170.432 254.699 171.152C255.611 171.152 257.003 170.96 257.819 170.768C257.867 171.104 257.867 171.344 257.867 171.536C257.867 172.592 257.531 173.792 257.051 174.752C255.755 175.52 252.827 176.192 250.235 176.192C249.179 175.664 248.315 174.272 247.931 172.736ZM247.403 169.664V165.152C246.539 164.96 245.387 164.864 244.763 164.864C241.979 164.864 240.491 166.208 240.491 168.272C240.491 170.432 241.883 171.392 243.467 171.392C245.339 171.392 246.635 170.528 247.403 169.664Z" fill="white"/>
<path d="M224.273 158.864V155.84C223.745 155.648 223.121 155.552 222.641 155.552C219.425 155.552 217.073 157.952 217.073 163.184C217.073 168.8 219.713 171.248 223.361 171.248C225.761 171.248 228.401 170.72 230.369 169.856C230.465 171.104 229.937 173.168 229.169 174.32C227.009 175.472 224.081 176.192 221.105 176.192C214.001 176.192 209.633 171.152 209.633 164.048C209.633 156.56 215.009 151.136 222.737 151.136C225.617 151.136 228.209 151.808 230.321 152.912C230.417 153.392 230.465 154.352 230.465 155.024C230.465 156.8 230.033 159.056 229.553 160.256C228.017 160.256 225.473 159.536 224.273 158.864Z" fill="white"/>
<path d="M196.396 156.896H192.94C192.988 155.552 193.516 153.488 194.092 152.48C195.34 151.904 197.5 151.52 199.564 151.52C200.812 151.52 202.54 151.712 203.356 152.048V170.768C204.364 170.912 205.948 171.248 206.764 171.632C206.908 172.16 207.004 173.312 207.004 174.32C207.004 174.704 207.004 175.04 206.956 175.376H192.844C192.94 174.224 193.276 172.64 193.612 171.872C194.284 171.344 195.436 170.864 196.396 170.528V156.896ZM199.996 138.656C202.444 138.656 204.172 140.144 204.172 142.784C204.172 145.616 202.444 147.2 199.996 147.2C197.212 147.2 195.724 145.664 195.724 142.784C195.724 140.288 197.5 138.656 199.996 138.656Z" fill="white"/>
<path d="M176.267 151.232L177.131 145.76C178.379 145.088 181.115 144.608 182.939 144.608V151.952H189.611C189.851 152.912 190.043 155.312 189.851 156.704H182.939V167.312C182.939 169.952 184.043 170.768 186.011 170.768C187.211 170.768 189.179 170.48 190.427 170.144C190.475 170.384 190.475 170.624 190.475 170.72C190.475 171.776 189.995 173.6 189.323 174.656C187.499 175.664 184.571 176.192 182.795 176.192C178.187 176.192 175.883 173.936 175.883 168.32C175.883 165.2 176.027 160.496 176.363 156.704H172.763C172.763 155.552 173.147 153.296 173.627 152.288C174.347 151.856 175.499 151.424 176.267 151.232Z" fill="white"/>
<path d="M161.963 172.736H161.531C160.187 174.896 158.027 176.192 154.475 176.192C150.971 176.192 147.562 173.84 147.562 169.04C147.562 163.712 151.979 161.072 157.355 161.072C158.747 161.072 160.138 161.36 161.29 161.84V160.064C161.29 157.568 159.85 156.512 157.066 156.512C154.858 156.512 151.066 157.568 149.29 158.528C149.195 158.144 149.099 157.28 149.099 156.848C149.099 155.216 149.531 153.392 150.059 152.384C151.835 151.712 155.771 151.136 158.699 151.136C164.747 151.136 168.059 153.44 168.059 159.536V167.6C168.059 169.088 168.346 170.432 168.73 171.152C169.643 171.152 171.035 170.96 171.851 170.768C171.899 171.104 171.898 171.344 171.898 171.536C171.898 172.592 171.562 173.792 171.083 174.752C169.786 175.52 166.859 176.192 164.267 176.192C163.211 175.664 162.347 174.272 161.963 172.736ZM161.435 169.664V165.152C160.571 164.96 159.419 164.864 158.795 164.864C156.011 164.864 154.523 166.208 154.523 168.272C154.523 170.432 155.915 171.392 157.499 171.392C159.37 171.392 160.667 170.528 161.435 169.664Z" fill="white"/>
<path d="M112.371 159.008V170.768C113.283 170.912 114.723 171.248 115.443 171.632C115.635 172.4 115.779 174.416 115.635 175.376H101.859C101.955 174.224 102.291 172.64 102.627 171.872C103.299 171.344 104.499 170.864 105.411 170.528V156.896H101.955C102.003 155.552 102.531 153.488 103.107 152.48C104.259 151.904 106.131 151.52 108.003 151.52C109.155 151.52 110.595 151.712 111.315 152.048V155.84H112.035C113.331 153.152 115.683 151.136 119.667 151.136C123.027 151.136 125.523 151.952 126.387 156.032H126.819C127.875 153.344 130.323 151.136 134.403 151.136C138.387 151.136 142.131 152.336 142.131 159.92C142.131 163.376 141.987 167.552 141.747 170.72C142.755 170.864 144.291 171.248 145.155 171.632C145.299 172.208 145.395 173.312 145.395 174.272C145.395 174.656 145.395 174.992 145.347 175.376H132.291C132.387 174.224 132.627 172.64 132.915 171.872C133.443 171.344 134.355 170.864 135.075 170.528V161.216C135.075 158.432 134.163 156.464 131.475 156.464C129.651 156.464 128.163 157.664 127.107 159.008V170.768C128.019 170.912 129.459 171.248 130.179 171.632C130.371 172.4 130.515 174.416 130.371 175.376H117.651C117.747 174.224 117.939 172.64 118.227 171.872C118.707 171.344 119.667 170.864 120.339 170.528V161.216C120.339 158.432 119.427 156.464 116.739 156.464C114.963 156.464 113.427 157.616 112.371 159.008Z" fill="white"/>
<path d="M87.057 151.136C94.257 151.136 99.105 155.456 99.105 163.28C99.105 171.536 94.353 176.192 87.057 176.192C79.329 176.192 74.961 171.776 74.961 163.28C74.961 155.744 80.145 151.136 87.057 151.136ZM82.113 163.28C82.113 168.368 83.985 171.68 87.057 171.68C90.369 171.68 91.905 168.464 91.905 163.28C91.905 158.864 90.033 155.6 87.057 155.6C83.841 155.6 82.113 158.672 82.113 163.28Z" fill="white"/>
<path d="M58.611 151.232L59.475 145.76C60.723 145.088 63.459 144.608 65.283 144.608V151.952H71.955C72.195 152.912 72.387 155.312 72.195 156.704H65.283V167.312C65.283 169.952 66.387 170.768 68.355 170.768C69.555 170.768 71.523 170.48 72.771 170.144C72.819 170.384 72.819 170.624 72.819 170.72C72.819 171.776 72.339 173.6 71.667 174.656C69.843 175.664 66.915 176.192 65.139 176.192C60.531 176.192 58.227 173.936 58.227 168.32C58.227 165.2 58.371 160.496 58.707 156.704H55.107C55.107 155.552 55.491 153.296 55.971 152.288C56.691 151.856 57.843 151.424 58.611 151.232Z" fill="white"/>
<path d="M43.1528 168.56V156.896H39.7928C39.8408 155.552 40.3688 153.584 40.9448 152.48C42.1928 151.904 44.3528 151.52 46.4168 151.52C47.6648 151.52 49.3447 151.712 50.1608 152.048V167.408C50.1608 168.608 50.2568 169.856 50.5448 170.96H54.0008C54.0488 171.2 54.0487 171.488 54.0487 171.776C54.0487 172.64 53.6648 174.224 53.2328 174.992C51.4568 175.616 47.5207 175.952 44.9767 175.952C44.3047 174.752 43.8248 173.312 43.5848 171.776H43.1528C41.8568 174.224 39.6488 176.192 35.8088 176.192C31.8247 176.192 28.2248 174.8 28.2248 167.264C28.2248 164.24 28.3207 160.208 28.5127 156.896H24.9608C25.0088 155.552 25.5368 153.488 26.1128 152.48C27.3608 151.904 29.5208 151.52 31.5848 151.52C32.8328 151.52 34.5127 151.712 35.3288 152.048V166.064C35.3288 169.184 36.1927 170.816 39.1208 170.816C40.6087 170.816 42.0968 169.808 43.1528 168.56Z" fill="white"/>
<path d="M14.4 172.736H13.968C12.624 174.896 10.464 176.192 6.912 176.192C3.408 176.192 0 173.84 0 169.04C0 163.712 4.416 161.072 9.792 161.072C11.184 161.072 12.576 161.36 13.728 161.84V160.064C13.728 157.568 12.288 156.512 9.504 156.512C7.296 156.512 3.504 157.568 1.728 158.528C1.632 158.144 1.536 157.28 1.536 156.848C1.536 155.216 1.968 153.392 2.496 152.384C4.272 151.712 8.208 151.136 11.136 151.136C17.184 151.136 20.496 153.44 20.496 159.536V167.6C20.496 169.088 20.784 170.432 21.168 171.152C22.08 171.152 23.472 170.96 24.288 170.768C24.336 171.104 24.336 171.344 24.336 171.536C24.336 172.592 24 173.792 23.52 174.752C22.224 175.52 19.296 176.192 16.704 176.192C15.648 175.664 14.784 174.272 14.4 172.736ZM13.872 169.664V165.152C13.008 164.96 11.856 164.864 11.232 164.864C8.448 164.864 6.96 166.208 6.96 168.272C6.96 170.432 8.352 171.392 9.936 171.392C11.808 171.392 13.104 170.528 13.872 169.664Z" fill="white"/>
<path d="M249.995 86.56H250.715C251.243 84.016 253.547 81.136 256.907 81.136C257.771 81.136 258.779 81.328 259.355 81.616C259.979 82.48 260.315 84.16 260.315 85.792C260.315 86.608 260.219 87.424 260.027 88.048C259.019 87.472 257.291 87.232 256.379 87.232C254.267 87.232 252.299 88.384 251.051 90.4V100.624C252.491 100.768 254.699 101.2 255.755 101.632C256.043 102.4 256.187 104.416 256.043 105.376H240.539C240.635 104.224 240.971 102.64 241.307 101.872C241.979 101.344 243.179 100.864 244.091 100.528V86.896H240.731C240.731 85.552 241.163 83.536 241.787 82.48C242.939 81.904 244.811 81.52 246.683 81.52C247.835 81.52 249.275 81.712 249.995 82.048V86.56Z" fill="white"/>
<path d="M237.063 95.152H222.951C223.335 98.896 225.687 100.96 229.479 100.96C231.639 100.96 235.287 100.336 237.015 99.712C237.159 101.008 236.583 103.168 235.815 104.368C234.039 105.328 231.063 106.192 227.655 106.192C220.023 106.192 215.703 101.056 215.703 94.144C215.703 86.56 220.551 81.136 228.039 81.136C234.567 81.136 237.255 85.552 237.255 92.464C237.255 93.28 237.159 94.288 237.063 95.152ZM222.711 90.736H230.487C230.775 88.24 229.959 85.312 227.127 85.312C224.679 85.312 222.951 87.568 222.711 90.736Z" fill="white"/>
<path d="M207.223 81.952H213.607C213.847 82.912 214.039 85.312 213.847 86.704H207.223V100.624C208.663 100.768 210.823 101.2 211.879 101.632C212.167 102.4 212.311 104.416 212.167 105.376H196.711C196.807 104.224 197.143 102.64 197.479 101.872C198.151 101.344 199.351 100.816 200.263 100.528V86.704H196.519C196.615 85.552 196.999 83.344 197.479 82.288C198.151 81.856 199.447 81.376 200.263 81.184V79.6C200.263 72.688 204.583 69.616 211.255 69.616C213.463 69.616 216.775 70.096 218.839 70.864C218.983 71.488 219.031 72.352 219.031 73.072C219.031 74.8 218.647 76.96 218.263 78.256C216.775 78.16 214.135 77.632 212.935 77.056V74.176C212.407 73.936 211.495 73.792 210.871 73.792C208.615 73.792 207.223 75.616 207.223 78.976V81.952Z" fill="white"/>
<path d="M187.312 87.808V85.648C186.784 85.36 186.016 85.12 185.2 85.12C183.52 85.12 182.656 85.84 182.656 87.232C182.656 91.936 193.936 89.488 193.936 98.416C193.936 104.176 189.328 106.192 184 106.192C180.784 106.192 177.856 105.712 175.36 104.368C175.216 103.648 175.12 102.736 175.12 101.776C175.12 100.24 175.312 98.656 175.6 97.696C177.616 97.696 179.44 97.888 181.12 98.464V101.104C181.984 101.584 183.28 101.92 184.336 101.92C186.112 101.92 187.12 101.248 187.12 99.712C187.12 95.344 175.696 97.744 175.696 88.336C175.696 84.064 179.2 81.136 185.152 81.136C187.792 81.136 190.624 81.616 193.216 82.768C193.264 83.248 193.312 83.872 193.312 84.448C193.312 85.984 193.12 87.712 192.784 88.864C190.768 88.864 188.608 88.384 187.312 87.808Z" fill="white"/>
<path d="M153.551 89.056V100.768C154.463 100.912 155.951 101.248 156.671 101.632C156.863 102.4 157.007 104.416 156.863 105.376H143.039C143.135 104.224 143.471 102.64 143.807 101.872C144.479 101.344 145.679 100.864 146.591 100.528V86.896H143.135C143.183 85.552 143.711 83.488 144.287 82.48C145.439 81.904 147.311 81.52 149.183 81.52C150.335 81.52 151.775 81.712 152.495 82.048V85.84H153.215C154.511 83.248 156.911 81.136 161.039 81.136C165.071 81.136 168.911 82.336 168.911 89.92C168.911 93.376 168.767 97.408 168.527 100.72C169.535 100.864 171.071 101.248 171.935 101.632C172.079 102.208 172.175 103.312 172.175 104.272C172.175 104.656 172.175 104.992 172.127 105.376H158.975C159.071 104.224 159.311 102.64 159.599 101.872C160.127 101.344 161.135 100.864 161.855 100.528V91.216C161.855 88.432 160.895 86.464 158.111 86.464C156.239 86.464 154.607 87.664 153.551 89.056Z" fill="white"/>
<path d="M131.47 102.736H131.038C129.694 104.896 127.534 106.192 123.982 106.192C120.478 106.192 117.07 103.84 117.07 99.04C117.07 93.712 121.486 91.072 126.862 91.072C128.254 91.072 129.646 91.36 130.798 91.84V90.064C130.798 87.568 129.358 86.512 126.574 86.512C124.366 86.512 120.574 87.568 118.798 88.528C118.702 88.144 118.606 87.28 118.606 86.848C118.606 85.216 119.038 83.392 119.566 82.384C121.342 81.712 125.278 81.136 128.206 81.136C134.254 81.136 137.566 83.44 137.566 89.536V97.6C137.566 99.088 137.854 100.432 138.238 101.152C139.15 101.152 140.542 100.96 141.358 100.768C141.406 101.104 141.406 101.344 141.406 101.536C141.406 102.592 141.07 103.792 140.59 104.752C139.294 105.52 136.366 106.192 133.774 106.192C132.718 105.664 131.854 104.272 131.47 102.736ZM130.942 99.664V95.152C130.078 94.96 128.926 94.864 128.302 94.864C125.518 94.864 124.03 96.208 124.03 98.272C124.03 100.432 125.422 101.392 127.006 101.392C128.878 101.392 130.174 100.528 130.942 99.664Z" fill="white"/>
<path d="M105.761 86.56H106.481C107.009 84.016 109.313 81.136 112.673 81.136C113.537 81.136 114.545 81.328 115.121 81.616C115.745 82.48 116.081 84.16 116.081 85.792C116.081 86.608 115.985 87.424 115.793 88.048C114.785 87.472 113.057 87.232 112.145 87.232C110.033 87.232 108.065 88.384 106.817 90.4V100.624C108.257 100.768 110.465 101.2 111.521 101.632C111.809 102.4 111.953 104.416 111.809 105.376H96.3047C96.4007 104.224 96.7367 102.64 97.0727 101.872C97.7447 101.344 98.9447 100.864 99.8567 100.528V86.896H96.4967C96.4967 85.552 96.9287 83.536 97.5527 82.48C98.7047 81.904 100.577 81.52 102.449 81.52C103.601 81.52 105.041 81.712 105.761 82.048V86.56Z" fill="white"/>
<path d="M79.7282 81.232L80.5922 75.76C81.8402 75.088 84.5762 74.608 86.4002 74.608V81.952H93.0722C93.3122 82.912 93.5042 85.312 93.3122 86.704H86.4002V97.312C86.4002 99.952 87.5042 100.768 89.4722 100.768C90.6722 100.768 92.6402 100.48 93.8882 100.144C93.9362 100.384 93.9362 100.624 93.9362 100.72C93.9362 101.776 93.4562 103.6 92.7842 104.656C90.9602 105.664 88.0322 106.192 86.2562 106.192C81.6482 106.192 79.3442 103.936 79.3442 98.32C79.3442 95.2 79.4882 90.496 79.8242 86.704H76.2242C76.2242 85.552 76.6082 83.296 77.0882 82.288C77.8082 81.856 78.9602 81.424 79.7282 81.232Z" fill="white"/>
<path d="M302.009 11.232L302.873 5.76C304.121 5.088 306.857 4.608 308.681 4.608V11.952H315.353C315.593 12.912 315.785 15.312 315.593 16.704H308.681V27.312C308.681 29.952 309.785 30.768 311.753 30.768C312.953 30.768 314.921 30.48 316.169 30.144C316.217 30.384 316.217 30.624 316.217 30.72C316.217 31.776 315.737 33.6 315.065 34.656C313.241 35.664 310.313 36.192 308.537 36.192C303.929 36.192 301.625 33.936 301.625 28.32C301.625 25.2 301.769 20.496 302.105 16.704H298.505C298.505 15.552 298.889 13.296 299.369 12.288C300.089 11.856 301.241 11.424 302.009 11.232Z" fill="white"/>
<path d="M293.655 15.36C292.263 15.36 290.679 15.12 289.383 14.832C289.575 10.704 289.719 4.89601 289.719 1.00801C291.687 1.00801 294.183 1.34401 295.863 1.77601C295.863 5.23201 294.615 11.952 293.655 15.36Z" fill="white"/>
<path d="M268.348 19.056V30.768C269.26 30.912 270.748 31.248 271.468 31.632C271.66 32.4 271.804 34.416 271.66 35.376H257.836C257.932 34.224 258.268 32.64 258.604 31.872C259.276 31.344 260.476 30.864 261.388 30.528V16.896H257.932C257.98 15.552 258.508 13.488 259.084 12.48C260.236 11.904 262.108 11.52 263.98 11.52C265.132 11.52 266.572 11.712 267.292 12.048V15.84H268.012C269.308 13.248 271.708 11.136 275.836 11.136C279.868 11.136 283.708 12.336 283.708 19.92C283.708 23.376 283.564 27.408 283.324 30.72C284.332 30.864 285.868 31.248 286.732 31.632C286.876 32.208 286.972 33.312 286.972 34.272C286.972 34.656 286.972 34.992 286.924 35.376H273.772C273.868 34.224 274.108 32.64 274.396 31.872C274.924 31.344 275.932 30.864 276.652 30.528V21.216C276.652 18.432 275.692 16.464 272.908 16.464C271.036 16.464 269.404 17.664 268.348 19.056Z" fill="white"/>
<path d="M248.437 17.808V15.648C247.909 15.36 247.141 15.12 246.325 15.12C244.645 15.12 243.781 15.84 243.781 17.232C243.781 21.936 255.061 19.488 255.061 28.416C255.061 34.176 250.453 36.192 245.125 36.192C241.909 36.192 238.981 35.712 236.485 34.368C236.341 33.648 236.245 32.736 236.245 31.776C236.245 30.24 236.437 28.656 236.725 27.696C238.741 27.696 240.565 27.888 242.245 28.464V31.104C243.109 31.584 244.405 31.92 245.461 31.92C247.237 31.92 248.245 31.248 248.245 29.712C248.245 25.344 236.821 27.744 236.821 18.336C236.821 14.064 240.325 11.136 246.277 11.136C248.917 11.136 251.749 11.616 254.341 12.768C254.389 13.248 254.437 13.872 254.437 14.448C254.437 15.984 254.245 17.712 253.909 18.864C251.893 18.864 249.733 18.384 248.437 17.808Z" fill="white"/>
<path d="M232.001 25.152H217.889C218.273 28.896 220.625 30.96 224.417 30.96C226.577 30.96 230.225 30.336 231.953 29.712C232.097 31.008 231.521 33.168 230.753 34.368C228.977 35.328 226.001 36.192 222.593 36.192C214.961 36.192 210.641 31.056 210.641 24.144C210.641 16.56 215.489 11.136 222.977 11.136C229.505 11.136 232.193 15.552 232.193 22.464C232.193 23.28 232.097 24.288 232.001 25.152ZM217.649 20.736H225.425C225.713 18.24 224.897 15.312 222.065 15.312C219.617 15.312 217.889 17.568 217.649 20.736Z" fill="white"/>
<path d="M195.502 11.136C202.702 11.136 207.55 15.456 207.55 23.28C207.55 31.536 202.798 36.192 195.502 36.192C187.774 36.192 183.406 31.776 183.406 23.28C183.406 15.744 188.59 11.136 195.502 11.136ZM190.558 23.28C190.558 28.368 192.43 31.68 195.502 31.68C198.814 31.68 200.35 28.464 200.35 23.28C200.35 18.864 198.478 15.6 195.502 15.6C192.286 15.6 190.558 18.672 190.558 23.28Z" fill="white"/>
<path d="M170.378 12.384V5.376H167.018C167.066 4.032 167.594 1.968 168.17 0.960003C169.418 0.384002 171.53 0 173.594 0C174.794 0 176.522 0.192002 177.338 0.528004V27.072C177.338 28.416 177.53 30 177.818 30.96H181.178C181.226 31.2 181.226 31.488 181.226 31.776C181.226 32.64 180.842 34.224 180.41 34.992C178.442 35.616 174.746 35.952 172.298 35.952C171.674 34.848 171.242 33.552 171.002 32.16H170.57C169.514 34.08 167.402 36.192 163.322 36.192C159.146 36.192 154.25 33.36 154.25 24.72C154.25 16.512 159.002 11.136 165.914 11.136C167.786 11.136 169.274 11.616 170.378 12.384ZM170.522 28.896V16.512C169.706 16.08 168.65 15.84 167.642 15.84C163.466 15.84 161.546 18.96 161.546 23.712C161.546 28.608 163.514 31.104 166.298 31.104C168.218 31.104 169.706 29.952 170.522 28.896Z" fill="white"/>
<path d="M127.025 11.232L127.889 5.76C129.137 5.088 131.873 4.608 133.697 4.608V11.952H140.369C140.609 12.912 140.801 15.312 140.609 16.704H133.697V27.312C133.697 29.952 134.801 30.768 136.769 30.768C137.969 30.768 139.937 30.48 141.185 30.144C141.233 30.384 141.233 30.624 141.233 30.72C141.233 31.776 140.753 33.6 140.081 34.656C138.257 35.664 135.329 36.192 133.553 36.192C128.945 36.192 126.641 33.936 126.641 28.32C126.641 25.2 126.785 20.496 127.121 16.704H123.521C123.521 15.552 123.905 13.296 124.385 12.288C125.105 11.856 126.257 11.424 127.025 11.232Z" fill="white"/>
<path d="M114.89 17.808V15.648C114.362 15.36 113.594 15.12 112.778 15.12C111.098 15.12 110.234 15.84 110.234 17.232C110.234 21.936 121.514 19.488 121.514 28.416C121.514 34.176 116.906 36.192 111.578 36.192C108.362 36.192 105.434 35.712 102.938 34.368C102.794 33.648 102.698 32.736 102.698 31.776C102.698 30.24 102.89 28.656 103.178 27.696C105.194 27.696 107.018 27.888 108.698 28.464V31.104C109.562 31.584 110.858 31.92 111.914 31.92C113.69 31.92 114.698 31.248 114.698 29.712C114.698 25.344 103.274 27.744 103.274 18.336C103.274 14.064 106.778 11.136 112.73 11.136C115.37 11.136 118.202 11.616 120.794 12.768C120.842 13.248 120.89 13.872 120.89 14.448C120.89 15.984 120.698 17.712 120.362 18.864C118.346 18.864 116.186 18.384 114.89 17.808Z" fill="white"/>
<path d="M89.2074 28.56V16.896H85.8474C85.8954 15.552 86.4234 13.584 86.9994 12.48C88.2474 11.904 90.4074 11.52 92.4714 11.52C93.7194 11.52 95.3994 11.712 96.2154 12.048V27.408C96.2154 28.608 96.3114 29.856 96.5994 30.96H100.055C100.103 31.2 100.103 31.488 100.103 31.776C100.103 32.64 99.7194 34.224 99.2874 34.992C97.5114 35.616 93.5754 35.952 91.0314 35.952C90.3594 34.752 89.8794 33.312 89.6394 31.776H89.2074C87.9114 34.224 85.7034 36.192 81.8634 36.192C77.8794 36.192 74.2794 34.8 74.2794 27.264C74.2794 24.24 74.3754 20.208 74.5674 16.896H71.0154C71.0634 15.552 71.5914 13.488 72.1674 12.48C73.4154 11.904 75.5754 11.52 77.6394 11.52C78.8874 11.52 80.5674 11.712 81.3834 12.048V26.064C81.3834 29.184 82.2474 30.816 85.1754 30.816C86.6634 30.816 88.1514 29.808 89.2074 28.56Z" fill="white"/>
<path d="M60.3388 16.56H61.0588C61.5868 14.016 63.8908 11.136 67.2508 11.136C68.1148 11.136 69.1228 11.328 69.6988 11.616C70.3228 12.48 70.6588 14.16 70.6588 15.792C70.6588 16.608 70.5628 17.424 70.3708 18.048C69.3628 17.472 67.6348 17.232 66.7228 17.232C64.6108 17.232 62.6428 18.384 61.3948 20.4V30.624C62.8348 30.768 65.0428 31.2 66.0988 31.632C66.3868 32.4 66.5308 34.416 66.3868 35.376H50.8828C50.9788 34.224 51.3148 32.64 51.6508 31.872C52.3228 31.344 53.5228 30.864 54.4348 30.528V16.896H51.0748C51.0748 15.552 51.5068 13.536 52.1308 12.48C53.2828 11.904 55.1548 11.52 57.0268 11.52C58.1788 11.52 59.6188 11.712 60.3388 12.048V16.56Z" fill="white"/>
<path d="M39.5259 5.85601V30.288C41.0139 30.384 43.0299 30.672 44.2779 30.96C44.6139 32.016 44.7099 34.368 44.5179 35.376H26.9979C27.0939 34.176 27.7179 32.064 28.1499 31.104C29.0619 30.816 31.0299 30.432 32.1339 30.288V5.85601H26.8059C26.7099 6.86401 26.4219 8.78401 26.1819 9.74401C24.4539 10.32 22.2459 10.416 20.6139 10.416V1.34401H51.0939V10.56C49.2699 10.56 47.1099 10.368 45.4779 9.88801C45.1899 8.83201 44.9019 7.00801 44.8059 5.85601H39.5259Z" fill="white"/>
</svg>
