<svg width="130" height="24" viewBox="0 0 130 24" fill="none" xmlns="http://www.w3.org/2000/svg">
<g clip-path="url(#clip0_2087_17866)">
<path d="M129.444 7.00586L123.792 14.6585L130 23.0257H126.633L122.124 16.9215L117.645 23.0257H114.433L120.549 14.7776L114.804 7.00586H118.17L122.216 12.5145L126.294 7.00586H129.444Z" fill="white"/>
<path d="M102.943 15.1369C102.943 19.4201 105.172 21.0857 107.835 21.0857C110.498 21.0857 112.727 19.2416 112.727 15.1369C112.727 10.8538 110.498 9.1881 107.835 9.1881C105.172 9.1881 102.943 10.7646 102.943 15.1369ZM99.9395 15.1369C99.9395 9.33682 103.841 6.80859 107.835 6.80859C111.829 6.80859 115.731 9.33682 115.731 15.1369C115.731 20.937 111.829 23.4652 107.835 23.4652C103.841 23.4652 99.9395 20.937 99.9395 15.1369Z" fill="white"/>
<path d="M86.6365 15.1052C86.6365 19.3448 88.9994 21.1362 91.5177 21.1362C94.5335 21.1362 96.2124 19.0164 96.2124 15.1052C96.2124 11.194 94.5335 9.07415 91.5177 9.07415C88.9994 9.07415 86.6365 10.8656 86.6365 15.1052ZM83.9316 0.535156H86.7609V9.55186C87.7869 7.85003 89.5279 6.74534 92.2328 6.74534C96.1813 6.74534 99.2903 9.85042 99.2903 15.1052C99.2903 20.4495 96.1813 23.465 92.2328 23.465C89.5279 23.465 87.7869 22.3604 86.7609 20.6585V23.0769H83.9316V0.535156Z" fill="white"/>
<path d="M79.3723 9.55186V0.535156H82.2015V23.0769H79.3723V20.6585C78.3463 22.3603 76.6052 23.465 73.9003 23.465C69.9518 23.465 66.8428 20.4495 66.8428 15.1052C66.8428 9.85042 69.9518 6.74533 73.9003 6.74533C76.6052 6.74533 78.3463 7.85003 79.3723 9.55186ZM79.4966 15.1052C79.4966 10.8655 77.1337 9.07415 74.6154 9.07415C71.5996 9.07415 69.9208 11.194 69.9208 15.1052C69.9208 19.0164 71.5996 21.1362 74.6154 21.1362C77.1337 21.1362 79.4966 19.3448 79.4966 15.1052Z" fill="white"/>
<path d="M54.8941 7.02491V9.47798C55.8348 7.96533 57.4126 6.80859 60.1739 6.80859C64.1185 6.80859 65.5447 9.30002 65.5447 12.9482V23.0326H62.7834V13.749C62.7834 11.2873 62.3586 9.15172 59.2029 9.15172C56.5327 9.15172 54.8941 10.9017 54.8941 14.3719V23.0326H52.1329L52.0615 7.02491H54.8941Z" fill="white"/>
<path d="M47.8388 23.0321V20.7794C46.8919 22.3011 45.3952 23.4647 42.6767 23.4647C38.8891 23.4647 37.4229 20.9584 37.4229 17.2884V7.02441H40.2025V16.4828C40.2025 18.9593 40.5996 21.1076 43.6541 21.1076C46.3116 21.1076 47.8388 19.3472 47.8388 15.8563V7.02441H50.6184V23.0321H47.8388Z" fill="white"/>
<path d="M29.7339 7.00125V5.39218C29.7339 2.44221 30.759 0.535156 34.0151 0.535156C34.6482 0.535156 35.5527 0.564956 36.1255 0.684145V2.91897C35.4321 2.82958 34.8592 2.79978 34.407 2.79978C32.8694 2.79978 32.4775 3.51492 32.4775 5.39218V7.00125H36.1255V9.17648H32.4775V23.0324H29.7339V9.17648H27.4727V7.00125H29.7339Z" fill="white"/>
<path d="M0 6.96289H6.42779V23.0324H0V6.96289Z" fill="white"/>
<path d="M6.42773 0.535156L6.42773 6.96294L22.4972 6.96294L22.4972 0.535157L6.42773 0.535156Z" fill="white"/>
<path d="M11.1025 11.6377H17.5303V18.0655H11.1025V11.6377Z" fill="white"/>
</g>
<defs>
<clipPath id="clip0_2087_17866">
<rect width="130" height="24" fill="white"/>
</clipPath>
</defs>
</svg>
