<svg width="67" height="30" viewBox="0 0 67 30" fill="none" xmlns="http://www.w3.org/2000/svg">
<g clip-path="url(#clip0_2087_17871)">
<path d="M45.4183 8.42603H37.5701L31.0588 18.6537V0H24.3975V29.4744H30.2289L34.47 23.6022L38.711 29.4744H47.2394L38.3999 18.1521L45.4183 8.42603Z" fill="white"/>
<path fill-rule="evenodd" clip-rule="evenodd" d="M44.6118 18.9388C44.6118 12.8502 49.6018 7.91309 55.756 7.91309C61.9217 7.91309 66.9119 12.8501 66.9003 18.9388C66.9003 25.0276 61.9102 29.9647 55.756 29.9647C49.6018 29.9647 44.6118 25.0276 44.6118 18.9388ZM51.296 18.9503C51.296 21.664 53.2897 23.6251 55.756 23.6251C58.2223 23.6251 60.216 21.6525 60.216 18.9503C60.216 16.2366 58.2223 14.264 55.756 14.264C53.2897 14.264 51.296 16.2366 51.296 18.9503ZM0 18.9388C0 12.8502 4.99019 7.91309 11.1442 7.91309C17.2984 7.91309 22.2886 12.8501 22.2886 18.9388C22.2886 19.6458 22.2194 20.3413 22.0927 21.014H6.67279C7.43341 23.1462 9.11601 24.2294 11.2018 24.2294C13.1957 24.2294 14.0946 23.6479 14.7976 22.8269H21.574C19.9837 27.0001 15.9155 29.9647 11.1442 29.9647C4.99019 29.9647 0 25.0276 0 18.9388ZM11.1442 13.6939C9.11601 13.6939 7.38727 14.8798 6.67279 16.8636H15.6158C14.9128 14.8798 13.1726 13.6939 11.1442 13.6939Z" fill="white"/>
</g>
<defs>
<clipPath id="clip0_2087_17871">
<rect width="67" height="30" fill="white"/>
</clipPath>
</defs>
</svg>
