<svg width="65" height="24" viewBox="0 0 65 24" fill="none" xmlns="http://www.w3.org/2000/svg">
<path d="M6.03571 9.29663e-10V6.11765H11.6071V11.7647H6.03571V6.11765H0V24H6.03571V17.8824H11.6071V24H17.6429V9.29663e-10H6.03571Z" fill="white"/>
<path d="M29.25 0.00390792C31.5504 -0.0635729 33.6 0.74377 35.2857 2.35647C36.5306 3.73085 37.2991 5.7324 37.1429 8.00263C37.346 10.8301 35.5823 13.5865 32.9643 14.5898L37.6071 24H31.1071L26.9286 15.5308H26V24H19.9643V0.00390792H29.25ZM28.7857 5.17955H26V10.3552H28.7857C30.4871 10.3552 31.571 9.38759 31.5714 7.53212C31.5714 6.09851 30.5418 5.17955 28.7857 5.17955Z" fill="white"/>
<path d="M39 9.29663e-10V5.64706H45.0357V24H50.6071V5.64706H56.6429V9.29663e-10H39Z" fill="white"/>
<path d="M58.9643 9.29663e-10V24H65V9.29663e-10H58.9643Z" fill="white"/>
</svg>
