<svg width="161" height="18" viewBox="0 0 161 18" fill="none" xmlns="http://www.w3.org/2000/svg">
<g clip-path="url(#clip0_2087_17868)">
<path d="M78.6162 8.9775C78.6162 4.14 81.5733 0.5625 87.2467 0.5625C92.9419 0.5625 95.8881 4.15125 95.8881 8.9775C95.8881 13.8262 92.931 17.4375 87.2357 17.4375C81.5624 17.4375 78.6162 13.8375 78.6162 8.9775ZM82.6686 8.9775C82.6686 11.9812 84.3005 13.8263 87.2467 13.8263C90.2038 13.8263 91.8138 11.9812 91.8138 8.98875C91.8138 6.03 90.2148 4.17375 87.2467 4.17375C84.2895 4.17375 82.6795 6.03 82.6795 8.9775H82.6686ZM139.325 7.59375L135.689 7.1775C133.564 6.94125 133.039 6.39 133.039 5.6475C133.039 4.82625 134.134 4.095 136.259 4.095C138.307 4.095 139.38 4.87125 139.577 6.0525H143.476C143.279 2.66625 140.519 0.5625 136.467 0.5625C131.67 0.5625 129.249 2.53125 129.249 5.99625C129.249 8.80875 130.848 10.1475 134.178 10.4963L137.858 10.9012C139.26 11.0587 139.906 11.6212 139.906 12.3525C139.906 13.1737 138.975 13.905 136.708 13.905C134.09 13.905 133.039 13.23 132.863 11.8687H129.03C129.216 15.5587 131.549 17.4375 136.565 17.4375C141.154 17.4375 143.706 15.3787 143.706 12.2625C143.706 9.5625 142.184 7.9425 139.325 7.59375ZM160.135 1.00125H155.392L149.719 7.52625V1.00125H145.743L145.754 17.0325H149.719V10.9462L155.108 17.0325H160.146L152.884 9.12375L160.135 1.00125ZM127.278 17.0325H114.715V1.0125H127.278V4.4775H118.691V7.1775H125.602V10.665H118.702V13.59H127.278V17.0437V17.0325ZM105.362 1.0125H98.0676V17.0437H105.362C110.959 17.0437 112.503 14.9062 112.503 8.91C112.503 3.285 111.024 1.0125 105.362 1.0125ZM105.198 13.5787H102.032V4.46625H105.209C107.695 4.46625 108.44 5.175 108.44 8.89875C108.44 12.3075 107.607 13.5675 105.198 13.5675V13.5787ZM63.94 4.46625H68.9781V17.0325H72.9648V4.46625H77.97V1.0125H63.9619V4.4775L63.94 4.46625ZM54.7729 13.8263C56.8976 13.8263 58.1462 12.9937 58.1462 10.9012V1.0125H62.1329V11.3738C62.1329 16.0088 58.1352 17.4487 54.7729 17.4487C51.3995 17.4487 47.38 16.0088 47.38 11.3738V1.0125H51.3557V10.9125C51.3557 12.9487 52.7029 13.8375 54.7729 13.8375V13.8263ZM35.7267 1.0125L29.7357 17.0437H33.8538L34.9052 14.04H41.5862L42.6157 17.0437H46.8762L40.8086 1.0125H35.7267ZM36.0881 10.6312L38.2786 4.35375L40.4252 10.6312H36.0881ZM14.0957 8.1225L0.120476 17.0437H0V9.9L13.9424 1.0125H22.2662C22.3376 1.00949 22.4088 1.02115 22.4758 1.0468C22.5427 1.07245 22.604 1.11157 22.656 1.16187C22.708 1.21216 22.7498 1.27262 22.7787 1.3397C22.8077 1.40678 22.8234 1.47913 22.8248 1.5525V17.0437H14.1067V14.3775C14.1067 13.9613 14.271 13.41 14.709 13.14L21.5762 8.91C21.6409 8.87488 21.6942 8.82094 21.7293 8.7549C21.7643 8.68887 21.7796 8.61369 21.7733 8.53875C21.7706 8.42627 21.7258 8.31918 21.6484 8.23962C21.5709 8.16005 21.4667 8.1141 21.3571 8.11125H14.0957V8.1225Z" fill="white"/>
</g>
<defs>
<clipPath id="clip0_2087_17868">
<rect width="161" height="18" fill="white"/>
</clipPath>
</defs>
</svg>
