<svg width="113" height="32" viewBox="0 0 113 32" fill="none" xmlns="http://www.w3.org/2000/svg">
<path d="M69.6811 11.6708V18.126C69.6811 18.1809 69.9374 18.7975 69.9961 18.8821C70.5572 19.6887 71.9932 19.6123 72.7721 19.1964V11.7648C72.7721 11.7579 72.8598 11.6702 72.8667 11.6702H75.9893V22.3444C75.8289 23.7228 75.4578 25.1416 74.244 25.9557C72.5025 27.124 69.1522 26.9264 67.3678 25.9141C67.2718 25.8598 66.6861 25.4875 66.6652 25.4515C66.6217 25.3764 66.657 25.2868 66.6873 25.2142C66.8615 24.7976 67.6032 23.8124 67.9062 23.4054C67.9485 23.3486 67.963 23.2192 67.9851 23.2034C68.1214 23.1043 69.0285 23.642 69.2525 23.7184C70.8343 24.2574 73.0113 24.2454 72.8364 22.0352C72.8263 21.9576 71.4472 22.2422 71.2894 22.2504C69.3478 22.3514 67.477 21.4489 66.7946 19.5593C66.7044 19.3093 66.5276 18.6795 66.5276 18.4403V11.6702H69.6817L69.6811 11.6708Z" fill="white"/>
<path d="M108.509 22.1885C108.382 22.1469 108.35 21.5789 108.287 21.4331C107.406 21.9714 106.537 22.4227 105.48 22.5028C101.44 22.8089 98.6542 19.1711 99.6755 15.3225C100.556 12.0072 104.444 10.4149 107.47 11.9517C107.662 12.0488 108.163 12.4566 108.313 12.4307L108.634 11.6083H110.874V22.1885H108.508H108.509ZM103.346 18.8095C105.931 21.4672 109.787 17.2266 106.965 14.8504C104.395 12.6875 100.959 16.355 103.346 18.8095Z" fill="white"/>
<path d="M62.5215 22.1885C62.4129 22.1532 62.3302 21.5757 62.3005 21.4331C61.8309 21.6515 61.42 21.991 60.9302 22.1747C57.244 23.5543 53.4632 20.7843 53.4632 16.93C53.4632 12.798 57.7572 10.0602 61.4831 11.9517C61.675 12.0488 62.1756 12.4566 62.3258 12.4307L62.6155 11.6083H64.8865V22.1885H62.5208H62.5215ZM61.2729 15.0903C59.4033 13.1167 56.0511 14.7494 56.6387 17.5434C57.1399 19.9266 60.5004 20.3387 61.5986 18.2446C62.0815 17.3238 61.9938 15.8514 61.2723 15.0896L61.2729 15.0903Z" fill="white"/>
<path d="M43.9751 8.64833C47.7812 9.05099 49.3958 13.9498 46.7536 16.6485C46.176 17.2386 44.7375 18.0326 43.9119 18.0326H41.1991C41.1921 18.0326 41.1044 18.1203 41.1044 18.1272V22.1892H37.9503V8.64833H43.9751ZM43.5963 11.6083C42.8799 11.489 41.8555 11.6967 41.1044 11.6083V15.0719H43.5963C44.0716 15.0719 44.7344 14.2212 44.8114 13.7661C44.9534 12.9255 44.5236 11.7623 43.5963 11.6083Z" fill="white"/>
<path d="M93.4633 8.71081V15.7643C93.6097 15.799 93.5668 15.7378 93.6078 15.6848C94.0168 15.1571 94.4132 14.4995 94.7863 13.9536C95.3045 13.195 95.7791 12.4048 96.3339 11.6708H99.8352L96.3649 16.7369L100.213 22.1885H96.5227C95.4673 20.7231 94.5407 19.1598 93.4633 17.717V22.1885H90.3723V8.71081H93.4633Z" fill="white"/>
<path d="M80.5945 9.15197V11.5768C80.5945 11.5837 80.6822 11.6714 80.6891 11.6714H83.4329V14.1909H80.7516C80.7447 14.1909 80.657 14.2786 80.657 14.2856V18.2535C80.657 18.3008 80.7813 18.718 80.8141 18.7899C80.9561 19.1049 81.5615 19.4816 81.8872 19.4816H83.4961V22.1898H80.5629C80.2038 22.1898 79.1036 21.6224 78.7981 21.37C76.676 19.6135 77.8948 14.5102 77.5641 12.0167C77.5003 11.6891 77.6859 11.6689 77.8071 11.5061C78.408 10.7033 79.1099 9.98569 79.7121 9.18478L80.5951 9.15323L80.5945 9.15197Z" fill="white"/>
<path d="M49.1793 8.5221H52.1755C52.1825 8.5221 52.2702 8.60983 52.2702 8.61677V22.0945C52.2702 22.1014 52.1825 22.1892 52.1755 22.1892H49.1793V8.5221Z" fill="white"/>
<path d="M88.48 11.6708H85.4521V22.1885H88.48V11.6708Z" fill="white"/>
<path d="M85.7412 7.48768C86.469 6.90073 87.6803 6.59527 88.4478 7.32611C89.637 8.45836 88.2654 10.4414 86.8635 10.5922C84.6871 10.8263 84.2118 8.72091 85.7412 7.48705V7.48768Z" fill="white"/>
<path d="M30.5943 5.41253C36.1318 11.7074 32.7265 20.9768 27.0382 25.8737C21.4603 30.6753 11.9968 32.9903 5.93797 27.7292C-0.0564866 22.5237 1.48426 13.4487 6.41137 8.10114C5.98026 6.7196 5.40209 4.63688 7.14987 3.94011C8.5568 3.37904 9.56356 3.85112 10.92 3.9237C11.6566 3.96283 12.1628 3.46045 12.801 3.15751C18.6313 0.388754 26.0655 0.26379 30.5943 5.41253ZM28.4495 23.0311C30.0907 21.1674 31.3455 19.1118 32.0524 16.7091C34.7091 7.68018 28.0967 0.763644 19.0024 1.79175C16.7213 2.04925 14.4919 2.89055 12.4658 3.9256C12.4487 4.03036 12.6198 3.99439 12.688 3.9906C13.0086 3.97041 13.376 3.88647 13.696 3.86248C17.1587 3.60877 20.5697 4.27209 23.2807 6.51006C24.4825 7.5022 24.2325 7.67323 24.658 9.03963C24.8719 9.72566 25.3378 10.5657 25.7752 11.1362C26.3616 11.9012 27.03 12.0356 26.6885 13.1811C26.2782 14.5551 25.4154 16.8726 24.7974 18.1582C23.9737 19.8717 22.7341 19.9266 21.0305 19.4633C20.2131 19.2412 19.3831 18.7199 18.5985 18.5539C13.239 17.4166 11.9381 26.3338 16.91 28.0492C21.0715 29.485 25.8465 25.9879 28.4495 23.0317V23.0311ZM18.7733 28.8646H17.1019C16.8924 28.8646 16.1659 28.6115 15.9361 28.5169C13.2504 27.4162 12.0934 24.2208 12.9739 21.5309C13.0831 21.1977 13.2901 20.8808 13.4113 20.5514C13.2927 20.5243 13.2617 20.6183 13.191 20.677C12.5176 21.2324 11.904 22.263 11.6288 23.0854L11.2678 24.4556C10.7104 21.606 12.2783 18.6441 14.9565 17.527C16.4556 16.9016 17.8265 16.8372 19.3913 17.2582C20.4447 17.5416 22.6596 18.7647 23.655 18.2124C24.1498 17.9379 24.4976 16.8517 24.704 16.3317C23.8753 16.6554 22.5024 16.6182 21.7715 16.0792C21.3593 15.7757 21.1876 15.1054 21.7437 14.9154C22.3705 14.7008 23.602 16.1922 24.5929 15.7611C24.6409 15.7403 24.6472 15.6696 24.6889 15.64C24.7425 15.6015 24.8334 15.6046 24.8776 15.5611C25.0335 15.4071 25.4892 14.2666 25.5189 14.0281C25.5946 13.4228 25.1894 13.5004 25.0525 13.1167C24.8808 12.6364 25.6224 12.7115 25.9342 12.6793C26.0478 12.4553 25.6811 12.3127 25.5227 12.1454C24.2382 10.7897 24.307 9.9068 23.7768 8.2829C23.5414 7.56215 22.789 7.01812 22.1761 6.606C19.5693 4.85335 15.9601 4.3068 12.907 5.02502C12.6829 5.0774 12.4052 5.27053 12.1843 5.27873C11.4698 5.30587 9.99214 4.73533 9.09458 4.67664C8.42993 4.63309 6.89676 4.56051 6.78756 5.46555C6.66953 6.44317 7.35564 7.33369 7.47115 8.28606C5.41408 10.6111 3.70985 13.414 3.32735 16.5595C2.24927 25.4168 9.609 30.84 17.9692 29.0988L18.7746 28.864L18.7733 28.8646Z" fill="white"/>
<path d="M8.86672 8.64643C8.71271 8.75183 8.57195 8.45394 8.50315 8.35233C8.13706 7.80956 7.49639 6.56245 7.68323 5.92185C7.91803 5.11653 10.0616 5.68834 10.6347 5.84612C10.8297 5.89976 11.9249 6.20523 11.9596 6.35039C12.0075 6.55172 11.2387 6.53973 11.0614 6.58643C10.0767 6.8433 9.50864 7.68081 8.93994 8.43879C8.89449 8.50001 8.87492 8.64075 8.86609 8.64706L8.86672 8.64643Z" fill="white"/>
<path d="M17.1966 9.46627C17.172 9.30849 17.2951 9.30154 17.4055 9.2662C18.2002 9.01375 19.9126 8.97146 20.7597 9.02637C20.9806 9.04089 22.4096 9.23464 22.4955 9.30849C22.6539 9.44418 22.5062 9.89985 22.5226 10.0993C22.5548 10.4792 22.8496 11.1097 22.9209 11.5282C23.003 12.0091 23.0572 12.709 22.7783 13.118C22.6318 13.118 22.5529 12.1637 22.4911 11.9573C21.805 9.67706 19.2606 9.29839 17.196 9.46627H17.1966Z" fill="white"/>
<path d="M6.87025 10.62C7.16691 10.3631 7.79053 10.1422 8.08025 10.5379C8.76509 11.4758 7.17953 13.4455 6.40758 12.5859C5.98279 12.1132 6.44419 10.9892 6.87088 10.62H6.87025Z" fill="white"/>
<path d="M5.10606 14.3379C6.01813 13.3193 6.65312 15.3787 5.6836 16.0167C4.84537 16.569 4.57585 14.9306 5.10606 14.3379Z" fill="white"/>
<path d="M16.4209 5.57536C17.6018 5.30524 17.9332 6.73538 16.7882 6.69877C15.9885 6.6729 15.6779 5.74577 16.4209 5.57536Z" fill="white"/>
<path d="M5.06756 17.4734C5.53716 17.4059 5.67287 18.5633 5.11111 18.5981C4.54934 18.6328 4.57775 17.5441 5.06756 17.4734Z" fill="white"/>
<path d="M18.8806 6.26771C19.6065 6.04997 20.0231 6.89442 19.4342 7.00866C18.779 7.13551 18.4798 6.38763 18.8806 6.26771Z" fill="white"/>
<path d="M12.7738 3.10034C18.6174 0.325275 26.0867 0.192166 30.6418 5.37072C33.4267 8.53662 33.9613 12.45 33.0875 16.1817C32.214 19.9122 29.9328 23.4652 27.0794 25.9216C24.2817 28.33 20.5101 30.1146 16.677 30.6376C12.8433 31.1608 8.943 30.4223 5.89659 27.777C2.88191 25.159 1.7631 21.5682 2.01602 17.964C2.26801 14.373 3.88142 10.766 6.34034 8.08502C6.12749 7.40086 5.88041 6.54128 5.90042 5.76215C5.91063 5.36494 5.99012 4.98468 6.18198 4.6579C6.37445 4.33007 6.67751 4.06034 7.12651 3.88134C7.84194 3.59604 8.45609 3.57375 9.05988 3.63134C9.36056 3.66003 9.65987 3.70873 9.96578 3.75424C10.2725 3.79988 10.5874 3.84261 10.9234 3.86059C11.2754 3.87928 11.5742 3.76909 11.8678 3.61306C12.0151 3.53476 12.1593 3.44593 12.309 3.35627C12.4579 3.26707 12.6113 3.17747 12.7738 3.10034ZM30.547 5.45434C26.0444 0.335443 18.6451 0.452149 12.828 3.21459C12.6714 3.28893 12.5224 3.37588 12.3739 3.46484C12.2262 3.55334 12.0781 3.64446 11.927 3.72472C11.6239 3.88583 11.3012 4.00726 10.9166 3.98683C10.5744 3.96852 10.2548 3.925 9.94726 3.87924C9.63896 3.83337 9.34431 3.78548 9.04791 3.75721C8.4575 3.70089 7.86475 3.72307 7.17329 3.99881C6.7484 4.16819 6.46818 4.42018 6.29097 4.72201C6.11318 5.02484 6.03653 5.38227 6.02669 5.76548C6.00697 6.53397 6.25579 7.39045 6.47168 8.08231L6.48254 8.11714L6.45785 8.14407C4.00351 10.8079 2.39288 14.4001 2.14217 17.9729C1.89155 21.5444 2.99965 25.0939 5.97942 27.6815C8.99184 30.2973 12.8527 31.0318 16.6599 30.5123C20.4677 29.9927 24.2168 28.219 26.9969 25.8258C29.8318 23.3853 32.0976 19.8552 32.9644 16.153C33.831 12.4521 33.2994 8.58329 30.547 5.45434ZM7.72122 4.65321C8.20997 4.56204 8.76679 4.59181 9.09876 4.61356C9.55489 4.6434 10.1557 4.80279 10.7238 4.94866C11.0094 5.02199 11.2876 5.09213 11.5387 5.14234C11.7906 5.19269 12.011 5.22208 12.1819 5.21558C12.2783 5.212 12.3922 5.16721 12.5187 5.11072C12.6396 5.05668 12.7729 4.99146 12.8926 4.96348L13.0367 4.9305C16.0743 4.25895 19.6296 4.81778 22.2113 6.55353C22.5181 6.75977 22.8631 7.00122 23.1613 7.28265C23.4593 7.56393 23.7146 7.88882 23.8369 8.26326L23.8853 8.41457C24.3684 9.95556 24.3368 10.8019 25.5685 12.1019C25.6038 12.1391 25.6521 12.1763 25.7073 12.2169C25.7607 12.2562 25.8208 12.2988 25.872 12.3433C25.9228 12.3875 25.9714 12.439 25.998 12.4994C26.0262 12.5637 26.0278 12.6345 25.9906 12.7079L25.975 12.7387L25.9407 12.7423C25.8604 12.7506 25.7509 12.752 25.6436 12.7568C25.5334 12.7618 25.4215 12.7703 25.3257 12.7917C25.2281 12.8135 25.1592 12.8462 25.1227 12.8905C25.0907 12.9293 25.074 12.9893 25.112 13.0954L25.1242 13.1266C25.1881 13.2763 25.296 13.3354 25.4091 13.4436C25.4678 13.4998 25.5229 13.5669 25.5568 13.6633C25.5905 13.759 25.6014 13.878 25.5816 14.0359C25.5733 14.1032 25.5368 14.2254 25.4878 14.3673C25.438 14.5115 25.3729 14.6824 25.304 14.8503C25.2351 15.0182 25.1621 15.1841 25.0962 15.3181C25.0632 15.385 25.0317 15.4447 25.0031 15.493C24.9754 15.5399 24.9477 15.5806 24.922 15.606C24.8861 15.6414 24.8352 15.6548 24.8034 15.6635C24.7638 15.6742 24.7411 15.6803 24.7257 15.6914L24.7255 15.6915C24.7197 15.6956 24.715 15.7037 24.6991 15.7336C24.6873 15.7556 24.6649 15.7989 24.6181 15.8192C24.3525 15.9347 24.0737 15.9198 23.8005 15.8414C23.528 15.7634 23.2559 15.6207 23.0003 15.4744C22.7419 15.3263 22.5031 15.1763 22.2871 15.0749C22.0688 14.9724 21.8951 14.9304 21.7641 14.9752C21.6374 15.0185 21.557 15.0873 21.51 15.1669C21.4626 15.2471 21.4461 15.3439 21.4574 15.4479C21.4802 15.6578 21.6156 15.8859 21.8089 16.0283C22.1611 16.288 22.6738 16.4301 23.2054 16.4658C23.7363 16.5015 24.277 16.4306 24.681 16.2728L24.8165 16.2199L24.7628 16.355C24.6611 16.6112 24.5205 17.018 24.3448 17.3911C24.2567 17.5783 24.1586 17.7597 24.0502 17.9125C23.9422 18.0646 23.8212 18.1925 23.6857 18.2677C23.42 18.4151 23.0794 18.4411 22.7099 18.399C22.3393 18.3568 21.9313 18.2452 21.5248 18.1086C21.118 17.9719 20.7096 17.809 20.3388 17.6633C19.9666 17.5171 19.6342 17.389 19.3749 17.3192C17.8229 16.9017 16.4663 16.9656 14.9808 17.5854C12.4204 18.6534 10.8847 21.4266 11.2811 24.1567L11.5677 23.0692L11.5682 23.0672L11.569 23.0653C11.8468 22.235 12.4658 21.193 13.1508 20.6281C13.1642 20.617 13.1765 20.6036 13.1913 20.5869C13.205 20.5713 13.2222 20.5514 13.2416 20.5344C13.2619 20.5166 13.2872 20.4998 13.3194 20.4905C13.3519 20.4812 13.3871 20.481 13.4254 20.4898L13.4954 20.5057L13.4706 20.5733C13.4086 20.7419 13.3247 20.9069 13.2447 21.0679C13.164 21.2302 13.087 21.3889 13.034 21.5506C12.1757 24.1727 13.2746 27.2737 15.8369 28.4059L15.9601 28.4583L15.9602 28.4584C16.073 28.5049 16.3103 28.5912 16.5456 28.6659C16.6632 28.7033 16.7795 28.7375 16.8789 28.7623C16.9803 28.7875 17.0582 28.8014 17.102 28.8014H18.7733V28.845L18.8029 28.9205L18.8016 28.9212L18.7882 28.9279H18.7813L17.9869 29.1595L17.9845 29.1601L17.9821 29.1607C13.7857 30.0348 9.83575 29.1114 7.06898 26.8526C4.30106 24.5928 2.72308 21.0008 3.26457 16.5519C3.64802 13.3986 5.35165 10.5919 7.40448 8.2661C7.34366 7.80926 7.15216 7.36695 6.98246 6.90716C6.81099 6.44259 6.66387 5.96301 6.72485 5.45792C6.78495 4.96002 7.2376 4.74342 7.72122 4.65321ZM9.09049 4.73979C8.75782 4.718 8.21559 4.68968 7.7443 4.77759C7.26792 4.86646 6.89938 5.06604 6.85026 5.47312C6.79321 5.94563 6.93013 6.40015 7.10108 6.86331C7.27038 7.32201 7.47493 7.79274 7.53384 8.27845L7.5373 8.30674L7.51841 8.32798C5.46579 10.648 3.77047 13.4393 3.39011 16.5671C2.85354 20.9754 4.4164 24.5238 7.14885 26.7546C9.88204 28.986 13.7912 29.9038 17.9543 29.0372L18.3294 28.9279H17.102C17.041 28.9279 16.9494 28.9101 16.8484 28.8849C16.7455 28.8593 16.6264 28.8242 16.5075 28.7865C16.2698 28.711 16.029 28.6236 15.912 28.5754C13.1908 27.46 12.0248 24.2272 12.9138 21.5113C12.97 21.3397 13.0511 21.1733 13.1315 21.0115C13.1921 20.8897 13.2521 20.7706 13.3032 20.6512C13.298 20.657 13.2923 20.6634 13.2859 20.6706C13.2714 20.6871 13.2533 20.7075 13.2314 20.7257L13.2313 20.7258C12.5697 21.2714 11.9621 22.2897 11.6893 23.1039L11.3289 24.4716L11.2058 24.4677C10.6428 21.5889 12.2261 18.5974 14.9322 17.4687C16.4449 16.8376 17.8302 16.7727 19.4076 17.1971C19.6751 17.269 20.0145 17.4001 20.385 17.5456C20.7569 17.6917 21.162 17.8532 21.565 17.9887C21.9683 18.1242 22.3665 18.2326 22.7241 18.2733C23.0827 18.3141 23.3923 18.2859 23.6243 18.1572C23.7362 18.0951 23.8442 17.9842 23.9471 17.8392C24.0495 17.6949 24.144 17.5208 24.2305 17.3371C24.3777 17.0244 24.4986 16.6919 24.5958 16.437C24.1904 16.5694 23.6878 16.6251 23.1969 16.5921C22.6691 16.5566 22.1464 16.4185 21.7699 16.1559L21.734 16.1301C21.5153 15.969 21.3588 15.7103 21.3317 15.4616C21.3181 15.3364 21.3371 15.2109 21.4011 15.1026C21.4654 14.9936 21.572 14.9072 21.7233 14.8555C21.9057 14.7931 22.121 14.8571 22.3408 14.9604C22.563 15.0647 22.8116 15.2204 23.0632 15.3645C23.3177 15.5103 23.5785 15.6463 23.8353 15.7199C24.0912 15.7933 24.3379 15.8031 24.5677 15.7031C24.5689 15.7026 24.5737 15.7 24.5875 15.6741C24.5971 15.6561 24.6163 15.6142 24.652 15.5886L24.6668 15.579C24.7024 15.5582 24.7437 15.5486 24.7703 15.5414C24.8083 15.5311 24.8249 15.5242 24.8332 15.516C24.8465 15.5029 24.8672 15.4743 24.8943 15.4285C24.9206 15.384 24.9506 15.3275 24.9827 15.2621C25.047 15.1316 25.1189 14.9685 25.1871 14.8023C25.2553 14.6361 25.3195 14.4674 25.3683 14.3259C25.418 14.1821 25.4497 14.0723 25.4562 14.0203C25.4743 13.8756 25.4629 13.7773 25.4376 13.7053C25.4125 13.6341 25.372 13.583 25.3218 13.535C25.2245 13.442 25.0681 13.3486 24.993 13.138C24.945 13.004 24.9566 12.8933 25.0252 12.8101C25.0892 12.7323 25.193 12.6918 25.2982 12.6683C25.4054 12.6444 25.5267 12.6356 25.6379 12.6306C25.7337 12.6263 25.8196 12.6244 25.8895 12.6194C25.8954 12.5945 25.892 12.5724 25.8823 12.5504C25.8671 12.5159 25.8355 12.4792 25.789 12.4388C25.7429 12.3987 25.6887 12.3603 25.6324 12.3188C25.5778 12.2787 25.5208 12.2353 25.4768 12.1889C24.1794 10.8195 24.2423 9.91215 23.7168 8.30254C23.6036 7.95623 23.3649 7.64863 23.0747 7.37467C22.7846 7.10091 22.447 6.86438 22.1409 6.65852C19.5499 4.91653 15.959 4.37207 12.9214 5.08663C12.817 5.11105 12.6993 5.16856 12.5703 5.22621C12.4544 5.27797 12.328 5.33031 12.2101 5.34046L12.1866 5.34194C12.0003 5.34901 11.7681 5.31716 11.5139 5.26635C11.259 5.21538 10.9776 5.14444 10.6923 5.07119C10.1187 4.92391 9.53191 4.76866 9.09049 4.73979ZM18.9953 1.72892C23.56 1.21289 27.5078 2.69034 29.981 5.43668C32.4549 8.18379 33.4469 12.1935 32.113 16.7269C31.4052 19.1324 30.1509 21.1903 28.5127 23.0548V23.0556L28.4969 23.0735C27.1916 24.556 25.3412 26.1748 23.2934 27.2435C21.2462 28.3119 18.9932 28.8348 16.8894 28.109C14.3644 27.2378 13.4409 24.5417 13.8176 22.2216C14.0062 21.06 14.5213 19.9837 15.3326 19.2691C16.1459 18.5527 17.2527 18.2037 18.6116 18.492L18.6866 18.5089C19.0624 18.5984 19.446 18.7623 19.8276 18.9296C20.2369 19.1092 20.6439 19.2928 21.0471 19.4023C21.8968 19.6334 22.6187 19.7313 23.2273 19.566C23.8311 19.402 24.3345 18.9755 24.7405 18.1307C25.3568 16.8487 26.2185 14.5344 26.628 13.163C26.7117 12.8821 26.7319 12.6682 26.7096 12.494C26.6874 12.3208 26.6225 12.1825 26.5286 12.0532C26.4335 11.9221 26.31 11.8016 26.1689 11.6623C26.0291 11.5242 25.8745 11.3697 25.7251 11.1747C25.284 10.5994 24.8142 9.75287 24.5976 9.05847C24.4906 8.71481 24.4261 8.44612 24.371 8.22262C24.3157 7.99832 24.2704 7.82249 24.2021 7.65889C24.0672 7.33576 23.839 7.05295 23.2404 6.55884C20.5458 4.3344 17.1528 3.6725 13.7006 3.92544L13.7007 3.92556C13.5437 3.93733 13.3745 3.96379 13.2019 3.99041C13.0304 4.01684 12.8556 4.04347 12.692 4.05377H12.6915C12.6755 4.05466 12.657 4.05709 12.6278 4.0597C12.6016 4.06204 12.5702 4.06413 12.5403 4.06193C12.5123 4.05986 12.475 4.05353 12.4452 4.03068C12.4291 4.01831 12.4157 4.00133 12.4081 3.97966C12.4006 3.95847 12.4 3.93646 12.4034 3.91543L12.4086 3.88381L12.4371 3.86924C14.4671 2.83223 16.704 1.98758 18.9953 1.72892ZM29.8871 5.52141C27.4828 2.85165 23.6608 1.38867 19.2214 1.83206L19.0095 1.85454C16.7726 2.10705 14.5834 2.92393 12.5856 3.93569C12.5955 3.93525 12.6058 3.93479 12.6164 3.93384C12.6378 3.93192 12.6664 3.92842 12.6844 3.92742C12.8413 3.91751 13.0104 3.89196 13.1826 3.86541C13.3538 3.83902 13.5283 3.81166 13.6913 3.79945C17.1645 3.54498 20.5936 4.20978 23.3209 6.46126C23.9242 6.95926 24.1718 7.25809 24.3188 7.6101C24.3914 7.78407 24.4387 7.96929 24.4937 8.19236C24.5489 8.41622 24.6126 8.68131 24.7183 9.02079L24.7388 9.08478C24.9585 9.7503 25.4051 10.5496 25.8253 11.0977C25.969 11.2852 26.118 11.4343 26.2577 11.5723C26.3962 11.7091 26.5284 11.8375 26.631 11.9788C26.7348 12.1218 26.8096 12.2797 26.835 12.4778C26.8603 12.6749 26.8361 12.9073 26.7491 13.1992C26.3381 14.5756 25.474 16.8964 24.8543 18.1856C24.4367 19.0543 23.9083 19.512 23.2604 19.688C22.6175 19.8627 21.8677 19.7566 21.0139 19.5244C20.5997 19.4118 20.183 19.2236 19.7768 19.0455C19.3683 18.8663 18.9704 18.6972 18.5854 18.6158C17.2646 18.3355 16.1988 18.6746 15.4162 19.3639C14.6317 20.055 14.1274 21.102 13.9424 22.2419C13.5717 24.5249 14.4838 27.1452 16.9306 27.9894C18.9884 28.6994 21.2035 28.1916 23.235 27.1313C25.2577 26.0757 27.0895 24.4765 28.3863 23.0076V23.0072L28.4021 22.9893C30.0384 21.131 31.2879 19.0834 31.9918 16.6912C33.3145 12.1958 32.3288 8.23277 29.8871 5.52141ZM5.08599 17.4079C5.22138 17.3993 5.32934 17.4742 5.40322 17.5793C5.48129 17.6904 5.52727 17.8416 5.53912 17.9924C5.55097 18.1432 5.52929 18.3018 5.46333 18.4275C5.39608 18.5557 5.28139 18.651 5.115 18.6612C4.95045 18.6714 4.82668 18.5976 4.74666 18.4831C4.66859 18.3714 4.63275 18.2226 4.63175 18.0756C4.63074 17.9283 4.66467 17.7755 4.7337 17.6528C4.80297 17.5298 4.9112 17.432 5.05859 17.4107L5.08599 17.4079ZM5.29978 17.6521C5.23862 17.5651 5.16299 17.5234 5.07649 17.5359L5.07661 17.536C4.9791 17.5501 4.90007 17.6149 4.84381 17.7148C4.78734 17.8151 4.75727 17.9455 4.75814 18.0748C4.75903 18.2044 4.79096 18.3258 4.85023 18.4106C4.90757 18.4927 4.9909 18.5422 5.10722 18.535C5.22171 18.5279 5.30075 18.4652 5.35138 18.3687C5.40325 18.2698 5.42364 18.1368 5.41309 18.0024C5.40253 17.868 5.36166 17.7401 5.29978 17.6521ZM5.10327 14.2483C5.32475 14.022 5.54417 13.9539 5.7381 14.021C5.93802 14.0903 6.08208 14.2949 6.1605 14.5366C6.23976 14.781 6.25744 15.0781 6.19222 15.3564C6.13096 15.6178 5.9956 15.8662 5.76563 16.0366L5.71835 16.0696C5.49424 16.2172 5.29285 16.2262 5.13141 16.1242C4.97677 16.0265 4.87515 15.8364 4.82048 15.6223C4.76528 15.4061 4.75488 15.1543 4.79234 14.918C4.82969 14.6824 4.91564 14.4559 5.05896 14.2957L5.10327 14.2483ZM5.69675 14.1406C5.56698 14.0957 5.39572 14.1299 5.19387 14.3365L5.15314 14.3801C5.03137 14.5162 4.95217 14.7168 4.91713 14.9378C4.8822 15.1581 4.89226 15.3925 4.94293 15.591C4.99413 15.7915 5.08389 15.9445 5.19893 16.0172C5.30721 16.0856 5.45387 16.0924 5.64886 15.964C5.87473 15.8153 6.00939 15.5826 6.06916 15.3276C6.12903 15.0722 6.11255 14.7985 6.04027 14.5756C5.96713 14.3501 5.8421 14.191 5.69675 14.1406ZM19.0594 8.96793C19.6154 8.93697 20.1768 8.93546 20.5942 8.9541L20.7638 8.96324C20.8773 8.97069 21.2924 9.02325 21.6876 9.08268C21.8857 9.11247 22.0804 9.1442 22.2311 9.17322C22.3063 9.1877 22.3715 9.2017 22.4212 9.21459C22.4459 9.22101 22.4678 9.22735 22.4856 9.23374C22.5006 9.23913 22.5214 9.24743 22.5366 9.26042L22.5563 9.27981C22.5991 9.32727 22.6186 9.39045 22.6269 9.45286C22.6366 9.52509 22.6329 9.6068 22.6252 9.68606C22.6176 9.765 22.6052 9.84791 22.5965 9.91852C22.5873 9.99182 22.5821 10.0515 22.5856 10.0939L22.5892 10.1286C22.6108 10.3054 22.685 10.5357 22.7669 10.7791C22.8527 11.034 22.9465 11.3021 22.9832 11.5175C23.0246 11.7601 23.0594 12.0602 23.0481 12.3524C23.0369 12.6434 22.9798 12.9347 22.8305 13.1536L22.8116 13.1812H22.7783C22.7239 13.1812 22.6903 13.1385 22.6726 13.1097C22.6522 13.0765 22.635 13.0325 22.62 12.9845C22.5898 12.8875 22.5636 12.7583 22.5407 12.6258C22.5177 12.4929 22.4972 12.3532 22.479 12.2355C22.4603 12.1153 22.4445 12.0221 22.4306 11.9756L22.3977 11.8722C22.0449 10.8182 21.2743 10.1957 20.3387 9.85318C19.3922 9.50671 18.2793 9.44854 17.2696 9.52425L17.2705 9.52956H17.196L17.1934 9.46682L17.1342 9.47608C17.1268 9.42893 17.1294 9.38627 17.145 9.34898C17.161 9.31091 17.1878 9.2848 17.217 9.26659C17.245 9.24912 17.2766 9.23813 17.3045 9.22966C17.3378 9.21959 17.3568 9.21536 17.3862 9.20595C17.7917 9.07713 18.4255 9.00323 19.0594 8.96793ZM20.7555 9.08947C20.335 9.06221 19.6977 9.05902 19.0664 9.09416C18.4337 9.1294 17.8138 9.20287 17.4246 9.3265L17.4245 9.32638C17.3987 9.33461 17.3612 9.34464 17.3412 9.35071C17.3158 9.35841 17.2972 9.36567 17.2838 9.37406C17.2715 9.38171 17.2652 9.3892 17.2616 9.39789L17.2614 9.39802C18.2803 9.32174 19.4127 9.37948 20.3821 9.73436C21.3763 10.0983 22.2015 10.7758 22.5515 11.9391C22.5685 11.9959 22.5858 12.0993 22.6039 12.2161C22.6224 12.3353 22.6425 12.4728 22.6652 12.6043C22.688 12.7361 22.713 12.8584 22.7406 12.9468C22.7494 12.9748 22.7581 12.9979 22.7663 13.0161C22.8672 12.8333 22.9122 12.5978 22.9218 12.3476C22.9326 12.0675 22.8993 11.777 22.8586 11.5388C22.824 11.3357 22.7347 11.0793 22.6472 10.8195C22.5613 10.5643 22.4766 10.3038 22.4597 10.1047C22.455 10.0474 22.4621 9.97518 22.4711 9.90283C22.4804 9.82768 22.492 9.7507 22.4994 9.67383C22.5068 9.59733 22.5094 9.52723 22.5017 9.46966C22.4948 9.4185 22.4809 9.38496 22.4625 9.36454L22.456 9.35812C22.4545 9.35742 22.4505 9.35556 22.4429 9.35281C22.4302 9.34825 22.4124 9.34297 22.3895 9.337C22.3437 9.32511 22.2814 9.31164 22.2071 9.29735C22.0589 9.26882 21.8663 9.23737 21.6688 9.20768C21.2729 9.14814 20.8629 9.09653 20.7555 9.08947ZM7.46756 10.2718C7.70236 10.233 7.951 10.2735 8.1156 10.48L8.13127 10.5005C8.31639 10.7541 8.34494 11.0733 8.27816 11.3876C8.21136 11.702 8.04824 12.0183 7.83935 12.2759C7.63096 12.5328 7.37218 12.7373 7.11009 12.8207C6.85218 12.9028 6.58966 12.8669 6.38058 12.6497L6.36059 12.6283C6.24185 12.4961 6.18798 12.3216 6.17766 12.1347C6.16734 11.9477 6.20016 11.7438 6.25937 11.546C6.35783 11.217 6.53282 10.8942 6.71892 10.6832H6.70065L6.8289 10.5722C6.98525 10.4368 7.22586 10.3117 7.46756 10.2718ZM8.02919 10.5751C7.90368 10.4038 7.70413 10.361 7.48817 10.3967C7.27994 10.4311 7.06918 10.5376 6.92852 10.6537L6.91222 10.6678C6.71064 10.8422 6.49378 11.2036 6.38046 11.5823C6.32409 11.7707 6.29451 11.9595 6.30381 12.1278C6.3131 12.296 6.36088 12.4394 6.45452 12.5436C6.62829 12.7371 6.84493 12.7723 7.0717 12.7001C7.3026 12.6267 7.54221 12.4413 7.74109 12.1961C7.93946 11.9515 8.0926 11.6532 8.1546 11.3613C8.21663 11.0694 8.18647 10.7905 8.02919 10.5751ZM8.14843 5.48658C8.4014 5.42705 8.71734 5.42867 9.03816 5.4599C9.68098 5.52249 10.3649 5.70622 10.6515 5.78512L10.7633 5.81637C10.9099 5.85784 11.1491 5.92766 11.3773 6.004C11.5291 6.0548 11.6777 6.10904 11.7913 6.16025C11.8478 6.18575 11.8979 6.21146 11.9357 6.23658C11.9545 6.2491 11.9721 6.26266 11.9863 6.27722C11.9998 6.29102 12.015 6.31057 12.021 6.33564L12.0211 6.33577C12.0324 6.38323 12.0181 6.42573 11.9894 6.45829C11.9633 6.48791 11.9261 6.50866 11.8884 6.52413C11.8123 6.55534 11.7082 6.57502 11.6034 6.5891C11.4975 6.60334 11.3844 6.61257 11.2889 6.62109C11.1901 6.6299 11.1153 6.63767 11.0774 6.64765C10.1186 6.89778 9.56386 7.71264 8.99051 8.47682L8.99039 8.4767C8.97588 8.49642 8.96227 8.53549 8.95039 8.57984C8.94468 8.60117 8.94036 8.61937 8.9362 8.63591C8.9343 8.64344 8.9323 8.65146 8.93015 8.65815C8.92911 8.66137 8.92751 8.66601 8.92534 8.67075C8.92425 8.67312 8.9224 8.67676 8.91978 8.68075C8.91839 8.68287 8.91538 8.68657 8.91114 8.69088L8.91139 8.69113L8.91077 8.69174L8.91052 8.6915C8.90827 8.69372 8.90584 8.69633 8.90275 8.69854L8.90028 8.6957L8.90238 8.69866C8.84532 8.7377 8.78508 8.74006 8.73068 8.71781C8.68083 8.69741 8.63874 8.65773 8.6049 8.618C8.57027 8.57736 8.5394 8.53071 8.51368 8.48942C8.48642 8.44567 8.4673 8.41207 8.45085 8.38777C8.26551 8.11299 8.01153 7.66148 7.82713 7.19718C7.7349 6.96495 7.65939 6.72784 7.61889 6.50696C7.57857 6.28702 7.57196 6.07783 7.62259 5.90419C7.69061 5.67093 7.89585 5.54603 8.14843 5.48658ZM9.02594 5.58577C8.70992 5.555 8.41018 5.5548 8.17731 5.6096C7.94406 5.6645 7.79334 5.77015 7.74393 5.93952C7.70116 6.08617 7.70451 6.27311 7.74319 6.48411C7.78171 6.69417 7.85419 6.92292 7.94451 7.15036C8.12523 7.60538 8.37465 8.04887 8.5554 8.31687C8.57333 8.34336 8.59767 8.38512 8.62094 8.42247C8.64577 8.46232 8.67264 8.50264 8.70105 8.53599C8.73025 8.57026 8.75657 8.59171 8.77857 8.60071C8.79076 8.60569 8.80175 8.60701 8.81412 8.60281C8.81752 8.58917 8.82253 8.56824 8.82819 8.5471C8.83961 8.50443 8.85833 8.44266 8.88917 8.40111L8.88942 8.40086C9.45345 7.6491 10.0349 6.78888 11.0453 6.52524L11.066 6.52042C11.1181 6.50975 11.1956 6.50255 11.2776 6.49523C11.3746 6.48657 11.4842 6.4775 11.5866 6.46373C11.6901 6.44981 11.7803 6.43177 11.8404 6.40716C11.8707 6.39472 11.8872 6.38296 11.8946 6.37455C11.8973 6.37152 11.8981 6.36979 11.8983 6.36837C11.8977 6.36765 11.897 6.36662 11.8959 6.36553C11.8902 6.35967 11.8805 6.35175 11.8657 6.34194C11.8362 6.32237 11.7934 6.29998 11.7394 6.27561C11.6318 6.22705 11.4879 6.17433 11.3373 6.12393C11.0365 6.02329 10.7152 5.93392 10.6179 5.90716C10.3313 5.82827 9.65681 5.64719 9.02594 5.58577ZM18.8625 6.20706C19.2528 6.09001 19.5681 6.25794 19.7044 6.48065C19.7719 6.59109 19.7983 6.72056 19.7578 6.83515C19.7162 6.95286 19.61 7.03892 19.4463 7.0707C19.0908 7.13951 18.8259 6.97045 18.7066 6.76215C18.6476 6.65907 18.622 6.54248 18.644 6.43878C18.6654 6.33836 18.7308 6.25491 18.8401 6.21459L18.8625 6.20706ZM19.5966 6.54673C19.4904 6.37313 19.2343 6.22761 18.8988 6.32823L18.8987 6.32835C18.8211 6.35157 18.7811 6.40223 18.7677 6.46509C18.7536 6.53136 18.7687 6.61627 18.8162 6.69928C18.9101 6.86317 19.1225 7.00458 19.4222 6.94656C19.5528 6.92121 19.6153 6.85893 19.6386 6.79303C19.663 6.72397 19.6503 6.63445 19.5966 6.54673ZM16.464 5.50177C17.0501 5.39143 17.4429 5.68659 17.5377 6.03278C17.5862 6.21019 17.5547 6.40009 17.427 6.5429C17.2994 6.6855 17.085 6.77157 16.7862 6.76203C16.3619 6.7483 16.0597 6.49455 15.966 6.21114C15.919 6.06914 15.9243 5.9175 15.9973 5.78809C16.0707 5.65814 16.2077 5.55943 16.4068 5.51375L16.464 5.50177ZM17.4159 6.06625C17.339 5.78523 16.9982 5.50818 16.4349 5.63703C16.2627 5.67655 16.1598 5.75763 16.1074 5.85022C16.0548 5.94336 16.0483 6.05708 16.0861 6.17136C16.1619 6.40058 16.4148 6.62339 16.7903 6.63554C17.0639 6.64428 17.2373 6.5653 17.3328 6.45854C17.4281 6.35195 17.4546 6.20801 17.4159 6.06625Z" fill="white"/>
</svg>
