<svg width="233" height="21" viewBox="0 0 233 21" fill="none" xmlns="http://www.w3.org/2000/svg">
<g clip-path="url(#clip0_2087_17873)">
<path d="M0 20.6686V6.52121H4.36875C7.95337 6.52121 9.2976 8.73173 9.2976 10.7212C9.2976 13.5949 6.83317 15.0317 4.48077 15.0317H2.01635V20.6686H0ZM4.25673 13.2633C5.93702 13.2633 7.05721 12.3791 7.05721 10.8317C7.05721 9.61594 6.3851 8.40015 4.14471 8.40015H2.01635V13.2633H4.25673Z" fill="#1C1C22"/>
<path d="M29.9091 20.6686L25.4284 14.3686H23.524V20.6686H21.5077V6.52121H25.6524C29.013 6.52121 30.2452 8.73173 30.2452 10.3896C30.2452 11.937 29.237 13.3738 27.6687 13.9265L32.4856 20.6686H29.9091ZM25.3163 12.6002C27.2207 12.6002 27.8928 11.6054 27.8928 10.5002C27.8928 9.39489 26.8846 8.51068 25.2043 8.51068H23.524V12.7107L25.3163 12.6002Z" fill="#1C1C22"/>
<path d="M85.2466 20.6686V9.50542L80.2058 15.9159L75.0529 9.50542V20.6686H73.0365V6.52121H75.0529L80.2058 13.1528L85.2466 6.52121H87.375V20.6686H85.2466Z" fill="#1C1C22"/>
<path d="M107.762 21.0002C103.73 21.1107 100.257 17.9054 100.145 13.9265C100.145 13.8159 100.145 13.7054 100.145 13.5949C100.145 9.39489 103.506 6.0791 107.762 6.0791C112.019 6.0791 115.38 9.39489 115.38 13.5949C115.38 17.5738 112.131 20.8896 108.099 21.0002C107.987 21.0002 107.875 21.0002 107.762 21.0002Z" fill="#8822FF"/>
<path d="M130.278 20.6686V8.40015H125.686V6.52121H136.887V8.40015H132.295V20.6686H130.278Z" fill="#1C1C22"/>
<path d="M159.851 20.6686V14.037H151.562V20.6686H149.546V6.52121H151.562V12.158H159.851V6.52121H161.868V20.6686H159.851Z" fill="#1C1C22"/>
<path d="M175.198 20.6686V6.52121H184.272V8.40015H177.214V12.158H182.703V14.037H177.214V18.9002H184.272V20.6686H175.198Z" fill="#1C1C22"/>
<path d="M209.924 6.52121V14.5896C210.036 18.1265 207.348 21.0002 203.763 21.2212C200.178 21.3317 197.266 18.6791 197.042 15.1423C197.042 14.9212 197.042 14.8107 197.042 14.5896V6.52121H199.058V14.7002C198.946 17.0212 200.738 19.1212 203.203 19.2317C205.555 19.3423 207.684 17.5738 207.796 15.1423C207.796 15.0317 207.796 14.8107 207.796 14.7002V6.52121H209.924Z" fill="#1C1C22"/>
<path d="M231.096 9.94752C230.536 8.84226 229.415 8.1791 228.295 8.1791C227.287 8.06858 226.391 8.73173 226.167 9.72647C226.167 9.837 226.167 9.837 226.167 9.94752C226.167 12.4896 233 12.0475 233 16.5791C233 19.0107 230.984 21.0002 228.519 21.0002C228.519 21.0002 228.519 21.0002 228.407 21.0002C225.943 21.1107 223.702 19.6738 222.918 17.4633L224.711 16.358C225.047 18.0159 226.503 19.1212 228.183 19.2317C229.527 19.3423 230.648 18.3475 230.648 17.0212C230.648 13.9265 223.814 14.5896 223.814 10.2791C223.814 8.06858 225.607 6.30015 227.847 6.41068C227.959 6.41068 228.071 6.41068 228.071 6.41068C229.863 6.41068 231.544 7.29489 232.552 8.84226L231.096 9.94752Z" fill="#1C1C22"/>
<path d="M59.4822 6.30015H44.5837V21.0002H59.4822V6.30015Z" fill="white"/>
<path d="M0 20.6686V6.52121H4.36875C7.95337 6.52121 9.2976 8.73173 9.2976 10.7212C9.2976 13.5949 6.83317 15.0317 4.48077 15.0317H2.01635V20.6686H0ZM4.25673 13.2633C5.93702 13.2633 7.05721 12.3791 7.05721 10.8317C7.05721 9.61594 6.3851 8.40015 4.14471 8.40015H2.01635V13.2633H4.25673Z" fill="white"/>
<path d="M29.9091 20.6686L25.4284 14.3686H23.524V20.6686H21.5077V6.52121H25.6524C29.013 6.52121 30.2452 8.73173 30.2452 10.3896C30.2452 11.937 29.237 13.3738 27.6687 13.9265L32.4856 20.6686H29.9091ZM25.3163 12.6002C27.2207 12.6002 27.8928 11.6054 27.8928 10.5002C27.8928 9.39489 26.8846 8.51068 25.2043 8.51068H23.524V12.7107L25.3163 12.6002Z" fill="white"/>
<path d="M85.2466 20.6686V9.50542L80.2058 15.9159L75.0529 9.50542V20.6686H73.0365V6.52121H75.0529L80.2058 13.1528L85.2466 6.52121H87.375V20.6686H85.2466Z" fill="white"/>
<path d="M107.762 21.0002C103.73 21.1107 100.257 17.9054 100.145 13.9265C100.145 13.8159 100.145 13.7054 100.145 13.5949C100.145 9.39489 103.506 6.0791 107.762 6.0791C112.019 6.0791 115.38 9.39489 115.38 13.5949C115.38 17.5738 112.131 20.8896 108.099 21.0002C107.987 21.0002 107.875 21.0002 107.762 21.0002Z" fill="white"/>
<path d="M130.278 20.6686V8.40015H125.686V6.52121H136.887V8.40015H132.295V20.6686H130.278Z" fill="white"/>
<path d="M159.851 20.6686V14.037H151.562V20.6686H149.546V6.52121H151.562V12.158H159.851V6.52121H161.868V20.6686H159.851Z" fill="white"/>
<path d="M175.198 20.6686V6.52121H184.272V8.40015H177.214V12.158H182.703V14.037H177.214V18.9002H184.272V20.6686H175.198Z" fill="white"/>
<path d="M209.924 6.52121V14.5896C210.036 18.1265 207.348 21.0002 203.763 21.2212C200.178 21.3317 197.266 18.6791 197.042 15.1423C197.042 14.9212 197.042 14.8107 197.042 14.5896V6.52121H199.058V14.7002C198.946 17.0212 200.738 19.1212 203.203 19.2317C205.555 19.3423 207.684 17.5738 207.796 15.1423C207.796 15.0317 207.796 14.8107 207.796 14.7002V6.52121H209.924Z" fill="white"/>
<path d="M231.096 9.94752C230.536 8.84226 229.415 8.1791 228.295 8.1791C227.287 8.06858 226.391 8.73173 226.167 9.72647C226.167 9.837 226.167 9.837 226.167 9.94752C226.167 12.4896 233 12.0475 233 16.5791C233 19.0107 230.984 21.0002 228.519 21.0002C228.519 21.0002 228.519 21.0002 228.407 21.0002C225.943 21.1107 223.702 19.6738 222.918 17.4633L224.711 16.358C225.047 18.0159 226.503 19.1212 228.183 19.2317C229.527 19.3423 230.648 18.3475 230.648 17.0212C230.648 13.9265 223.814 14.5896 223.814 10.2791C223.814 8.06858 225.607 6.30015 227.847 6.41068C227.959 6.41068 228.071 6.41068 228.071 6.41068C229.863 6.41068 231.544 7.29489 232.552 8.84226L231.096 9.94752Z" fill="white"/>
<path d="M59.4822 6.30015H44.5837V21.0002H59.4822V6.30015Z" fill="white"/>
</g>
<defs>
<clipPath id="clip0_2087_17873">
<rect width="233" height="21" fill="white"/>
</clipPath>
</defs>
</svg>
