<svg width="107" height="21" viewBox="0 0 107 21" fill="none" xmlns="http://www.w3.org/2000/svg">
<path d="M5.58815 19.6731C7.32137 20.5673 9.29366 21 11.505 21C13.4175 21 15.1209 20.6827 16.6748 20.0192C18.1989 19.3846 19.4838 18.4327 20.4999 17.1923L16.7346 13.9038C15.3599 15.4904 13.7164 16.2692 11.8038 16.2692C10.6683 16.2692 9.65226 16.0385 8.75577 15.5481C7.85927 15.0865 7.17196 14.3942 6.69383 13.5288C6.2157 12.6635 5.97663 11.6538 5.97663 10.5C5.97663 9.375 6.2157 8.36539 6.69383 7.5C7.17196 6.63462 7.85927 5.94231 8.75577 5.45192C9.65226 4.99039 10.6683 4.73077 11.8038 4.73077C13.7164 4.73077 15.3599 5.53846 16.7346 7.09616L20.4999 3.80769C19.4838 2.59615 18.1989 1.64423 16.6748 0.980768C15.1209 0.346153 13.4175 0 11.505 0C9.29366 0 7.32137 0.461539 5.58815 1.35577C3.85493 2.25 2.4803 3.49038 1.49416 5.07692C0.47813 6.69231 0 8.48077 0 10.5C0 12.5192 0.47813 14.3365 1.49416 15.9231C2.4803 17.5385 3.85493 18.7788 5.58815 19.6731Z" fill="white"/>
<path d="M25.0475 0.404248V20.5966H30.9644V0.404248H25.0475Z" fill="white"/>
<path d="M37.1128 20.5966H42.9102V17.1927L37.1128 10.0677V20.5966ZM51.2177 0.404248V4.06771L57.015 10.8177V0.403044L51.2177 0.404248ZM51.2177 11.1639L41.9838 0.404248H37.1128V3.08694L52.1441 20.5966H57.015V18.26L51.2177 11.135V11.1639Z" fill="white"/>
<path d="M67.6393 19.6731C69.3725 20.5673 71.3448 21 73.5562 21C75.4687 21 77.172 20.6827 78.726 20.0192C80.25 19.3846 81.535 18.4327 82.551 17.1923L78.7857 13.9038C77.4111 15.4904 75.7675 16.2692 73.855 16.2692C72.7194 16.2692 71.7034 16.0385 70.8069 15.5481C69.9104 15.0865 69.2231 14.3942 68.745 13.5288C68.2669 12.6635 68.0278 11.6538 68.0278 10.5C68.0278 9.375 68.2669 8.36539 68.745 7.5C69.2231 6.63462 69.9104 5.94231 70.8069 5.45192C71.7034 4.99039 72.7194 4.73077 73.855 4.73077C75.7675 4.73077 77.4111 5.53846 78.7857 7.09616L82.551 3.80769C81.535 2.59615 80.25 1.64423 78.726 0.980768C77.172 0.346153 75.4687 0 73.5562 0C71.3448 0 69.3725 0.461539 67.6393 1.35577C65.9061 2.25 64.5314 3.49038 63.5453 5.07692C62.5293 6.69231 62.0512 8.48077 62.0512 10.5C62.0512 12.5192 62.5293 14.3365 63.5453 15.9231C64.5314 17.5385 65.9061 18.7788 67.6393 19.6731Z" fill="white"/>
<path d="M107 0.404248H101.083V7.99078H93.0147V0.404645H87.0978V20.597H93.0147V12.722H101.083V20.5966H107V0.404248Z" fill="white"/>
</svg>
