<svg width="88" height="55" viewBox="0 0 88 55" fill="none" xmlns="http://www.w3.org/2000/svg">
<path d="M29.3199 27.4118C28.8121 26.6933 27.9068 26.3525 26.9861 26.3525C25.8941 26.3525 24.8022 26.8438 24.8022 28.0719C24.8022 30.7554 31.1275 29.2264 31.1275 33.9884C31.1275 36.8622 28.8672 38.2592 26.249 38.2592C24.5911 38.2592 22.9731 37.7496 21.8812 36.4447L23.6705 34.7069C24.2547 35.5942 25.2518 36.1039 26.3071 36.1039C27.3623 36.1039 28.6408 35.499 28.6408 34.2709C28.6408 31.3418 22.3155 33.0243 22.3155 28.2439C22.3155 25.4836 24.7624 24.2003 27.2277 24.2003C28.6194 24.2003 30.0142 24.5963 31.048 25.5788L29.3168 27.4118H29.3199Z" fill="white"/>
<path d="M31.7056 28.8456H33.5714V26.2175H35.8318V28.8456H38.3154V30.7738H35.8318V34.7437C35.8318 35.6495 36.0948 36.2175 37.092 36.2175C37.4865 36.2175 38.034 36.1407 38.3154 35.935V37.8447C37.8444 38.0689 37.0522 38.1456 36.5261 38.1456C34.1342 38.1456 33.5714 37.068 33.5714 34.9341V30.7769H31.7056V28.8456Z" fill="white"/>
<path d="M45.7022 36.6719H45.644C45.0048 37.6912 43.9495 38.1456 42.7444 38.1456C41.0683 38.1456 39.4502 37.2215 39.4502 35.4253C39.4502 32.4778 42.8759 32.269 45.1363 32.269H45.7022V32.0234C45.7022 30.9089 44.8365 30.3225 43.6284 30.3225C42.6894 30.3225 41.8207 30.7001 41.2181 31.2681L40.0314 30.0768C41.0316 29.0544 42.4416 28.6215 43.8731 28.6215C47.7331 28.6215 47.7331 31.4186 47.7331 32.705V37.9215H45.6991V36.675L45.7022 36.6719ZM45.5706 33.8564H45.0996C43.8578 33.8564 41.7106 33.9516 41.7106 35.2534C41.7106 36.0855 42.5578 36.4447 43.2919 36.4447C44.8365 36.4447 45.5706 35.631 45.5706 34.3661V33.8564Z" fill="white"/>
<path d="M49.7243 28.8456H51.9847V30.2826H52.0244C52.5138 29.2448 53.511 28.6184 54.6977 28.6184C54.9791 28.6184 55.2422 28.6768 55.5052 28.7535V30.9457C55.129 30.8506 54.7711 30.7769 54.4133 30.7769C52.2875 30.7769 51.9847 32.573 51.9847 33.0643V37.9215H49.7243V28.8456Z" fill="white"/>
<path d="M56.8082 23.6322H59.0686V32.6099L62.5524 28.8487H65.452L61.5736 32.9691L65.6967 37.9215H62.7054L59.1083 33.2915H59.0716V37.9215H56.8113V23.6322H56.8082Z" fill="white"/>
<path d="M67.6482 34.1757C67.798 35.5174 68.8166 36.3311 70.0768 36.3311C71.2085 36.3311 71.9426 35.803 72.5084 35.103L74.1265 36.3311C73.0743 37.636 71.7346 38.1456 70.3062 38.1456C67.5748 38.1456 65.3909 36.2359 65.3909 33.3836C65.3909 30.5312 67.5748 28.6184 70.3062 28.6184C72.8265 28.6184 74.5394 30.3962 74.5394 33.5524V34.1757H67.6482ZM72.2821 32.4748C72.2637 31.1515 71.3951 30.3194 69.985 30.3194C68.6484 30.3194 67.8195 31.1699 67.6512 32.4748H72.2851H72.2821Z" fill="white"/>
<path d="M74.8881 28.8456H77.3717L79.8951 35.1398H79.9318L82.1922 28.8456H84.5443L80.2713 39.5242C79.6107 41.2252 78.8215 42.1125 76.8273 42.1125C76.2431 42.1125 75.6589 42.0388 75.0961 41.8853L75.3775 39.8466C75.7353 39.9786 76.1299 40.0738 76.5245 40.0738C77.6348 40.0738 77.9376 40.0155 78.3138 39.0698L78.7481 37.9921L74.8881 28.8456Z" fill="white"/>
<path d="M49.5744 49.8681C49.5744 49.8681 30.0172 39.1251 7.7837 48.29L18.6634 29.647L7.78676 19.9479H23.3187L31.2377 6.73321L34.0088 19.9479H84.7493V19.6715L36.0398 17.464L32.1522 1.51367L21.716 17.5714H2.16797L15.2316 30.2304C15.2316 30.2304 2.21997 53.6753 2.16797 53.6876C24.7747 40.0155 49.5744 50.1322 49.5744 50.1322V49.8681Z" fill="white"/>
</svg>
