<svg width="121" height="32" viewBox="0 0 121 32" fill="none" xmlns="http://www.w3.org/2000/svg">
<g clip-path="url(#clip0_2087_17875)">
<path d="M51.9941 10.5739V29.3658H55.0998V18.7522C55.0998 17.9041 55.2093 17.1286 55.4285 16.4259C55.6723 15.6989 56.0255 15.0689 56.4884 14.5359C56.9511 14.0027 57.5236 13.5908 58.2054 13.3C58.9119 13.0091 59.7402 12.8639 60.6901 12.8639C61.8836 12.8639 62.8214 13.2031 63.5035 13.8816C64.1857 14.5601 64.5265 15.4808 64.5265 16.644V29.3658H67.6322V17.0074C67.6322 15.9897 67.5226 15.0689 67.3034 14.245C67.1086 13.3969 66.7553 12.6699 66.2439 12.0642C65.7322 11.4583 65.0626 10.9858 64.2344 10.6466C63.4062 10.3073 62.3709 10.1377 61.1284 10.1377C58.3272 10.1377 56.2811 11.2766 54.9902 13.5544H54.9172V10.5739H51.9941Z" fill="white"/>
<path d="M74.1232 7.19329V3.41309H71.0176V7.19329H74.1232ZM71.0176 10.5737V29.3656H74.1232V10.5737H71.0176Z" fill="white"/>
<path d="M77.6562 3.41309V29.3656H80.7622V3.41309H77.6562Z" fill="white"/>
<path d="M99.7498 29.3652V10.5732H96.6441V21.1868C96.6441 22.0349 96.5224 22.8226 96.2785 23.5495C96.0594 24.2522 95.7184 24.8701 95.2554 25.4033C94.7928 25.9364 94.2081 26.3483 93.502 26.6391C92.8198 26.9299 92.0037 27.0753 91.0537 27.0753C89.8603 27.0753 88.9225 26.736 88.2403 26.0576C87.5582 25.3791 87.2173 24.4582 87.2173 23.2951V10.5732H84.1113V22.9316C84.1113 23.9493 84.2091 24.8823 84.4039 25.7304C84.6231 26.5543 84.9883 27.2691 85.5 27.8749C86.0117 28.4807 86.6813 28.9532 87.5095 29.2926C88.3378 29.6075 89.373 29.7651 90.6151 29.7651C92.0037 29.7651 93.2095 29.4984 94.2324 28.9654C95.2554 28.4081 96.0959 27.5478 96.7537 26.3846H96.8267V29.3652H99.7498Z" fill="white"/>
<path d="M104.854 23.4411H101.748C101.797 24.6042 102.04 25.5977 102.479 26.4216C102.917 27.2213 103.502 27.8756 104.233 28.3844C104.963 28.8691 105.804 29.2204 106.754 29.4385C107.703 29.6566 108.702 29.7657 109.75 29.7657C110.699 29.7657 111.65 29.6688 112.6 29.4748C113.575 29.3052 114.439 28.9903 115.194 28.5299C115.973 28.0694 116.594 27.4636 117.057 26.7124C117.545 25.9612 117.788 25.0162 117.788 23.8773C117.788 22.9806 117.605 22.2295 117.24 21.6236C116.899 21.0179 116.437 20.5211 115.852 20.1334C115.291 19.7214 114.634 19.3943 113.879 19.1521C113.147 18.9097 112.392 18.7037 111.614 18.5341C110.883 18.3644 110.151 18.207 109.421 18.0616C108.69 17.8919 108.032 17.6981 107.447 17.48C106.863 17.2377 106.376 16.9469 105.987 16.6076C105.621 16.2441 105.438 15.7959 105.438 15.2628C105.438 14.7781 105.56 14.3905 105.804 14.0997C106.047 13.7846 106.364 13.5422 106.754 13.3726C107.143 13.1788 107.57 13.0455 108.032 12.9729C108.519 12.9001 108.995 12.8638 109.457 12.8638C109.969 12.8638 110.468 12.9243 110.955 13.0455C111.467 13.1425 111.93 13.3121 112.344 13.5544C112.759 13.7968 113.099 14.1239 113.367 14.5358C113.636 14.9235 113.793 15.4202 113.842 16.0261H116.948C116.875 14.8872 116.632 13.9421 116.217 13.1909C115.803 12.4155 115.243 11.8097 114.536 11.3735C113.854 10.9131 113.063 10.5981 112.161 10.4285C111.26 10.2346 110.273 10.1377 109.201 10.1377C108.374 10.1377 107.533 10.2467 106.681 10.4648C105.852 10.6587 105.097 10.9737 104.415 11.4099C103.758 11.8218 103.21 12.367 102.771 13.0455C102.357 13.724 102.15 14.5359 102.15 15.4808C102.15 16.6924 102.454 17.6375 103.063 18.316C103.672 18.9945 104.428 19.5276 105.329 19.9154C106.254 20.2788 107.253 20.5696 108.324 20.7877C109.396 20.9815 110.383 21.2117 111.284 21.4782C112.21 21.7206 112.977 22.0477 113.586 22.4597C114.196 22.8716 114.5 23.4774 114.5 24.2771C114.5 24.8586 114.354 25.3433 114.062 25.731C113.769 26.0945 113.391 26.3732 112.929 26.567C112.49 26.7609 112.003 26.8941 111.467 26.9669C110.931 27.0395 110.42 27.0759 109.933 27.0759C109.299 27.0759 108.678 27.0153 108.07 26.8941C107.485 26.773 106.949 26.5792 106.461 26.3126C105.999 26.0218 105.621 25.6462 105.329 25.1858C105.037 24.7012 104.878 24.1196 104.854 23.4411Z" fill="white"/>
<path fill-rule="evenodd" clip-rule="evenodd" d="M25.0996 23.6543C25.0996 26.5486 27.431 28.8948 30.307 28.8948V32.0003C25.7268 32.0003 22.0137 28.2637 22.0137 23.6543H25.0996Z" fill="white"/>
<path fill-rule="evenodd" clip-rule="evenodd" d="M18.9282 23.6543C18.9282 26.5486 16.5968 28.8948 13.7207 28.8948V32.0003C18.301 32.0003 22.014 28.2637 22.014 23.6543H18.9282Z" fill="white"/>
<path fill-rule="evenodd" clip-rule="evenodd" d="M25.0996 12.9785C25.0996 18.8513 29.9122 23.6536 35.9002 23.6536V26.7591C28.254 26.7591 22.0137 20.6123 22.0137 12.9785H25.0996Z" fill="white"/>
<path fill-rule="evenodd" clip-rule="evenodd" d="M18.9281 12.9785C18.9281 18.8742 14.1788 23.6536 8.32031 23.6536V26.7591C15.8831 26.7591 22.0139 20.5895 22.0139 12.9786L18.9281 12.9785Z" fill="white"/>
<path fill-rule="evenodd" clip-rule="evenodd" d="M25.0996 1.33301C25.0996 10.4445 32.4394 17.8309 41.4934 17.8309V20.9364C30.7351 20.9364 22.0137 12.1597 22.0137 1.33301H25.0996Z" fill="white"/>
<path fill-rule="evenodd" clip-rule="evenodd" d="M18.927 1.33301C18.927 10.4445 11.5873 17.8309 2.5332 17.8309V20.9364C13.2915 20.9364 22.0129 12.1597 22.0129 1.33301H18.927Z" fill="white"/>
</g>
<defs>
<clipPath id="clip0_2087_17875">
<rect width="121" height="32" fill="white"/>
</clipPath>
</defs>
</svg>
