<svg width="100" height="100" viewBox="0 0 100 100" fill="none" xmlns="http://www.w3.org/2000/svg">
<path d="M50.0002 67.5169C31.3067 55.3077 21.7354 40.8282 21.7354 16.8345C21.7329 12.1981 22.2216 7.57449 23.1931 3.04102L59.0938 89.3872" stroke="white" stroke-linecap="round" stroke-linejoin="round"/>
<path d="M58.167 84.7051C58.167 87.954 59.4576 91.0698 61.7549 93.3671C64.0523 95.6645 67.1681 96.9551 70.417 96.9551C73.6659 96.9551 76.7817 95.6645 79.0791 93.3671C81.3764 91.0698 82.667 87.954 82.667 84.7051C82.667 81.4562 81.3764 78.3403 79.0791 76.043C76.7817 73.7457 73.6659 72.4551 70.417 72.4551C67.1681 72.4551 64.0523 73.7457 61.7549 76.043C59.4576 78.3403 58.167 81.4562 58.167 84.7051Z" stroke="white" stroke-linecap="round" stroke-linejoin="round"/>
<path d="M49.9998 67.5169C68.6933 55.3077 78.2647 40.8282 78.2647 16.8345C78.2671 12.1981 77.7784 7.57449 76.8069 3.04102L40.9062 89.3872" stroke="white" stroke-linecap="round" stroke-linejoin="round"/>
<path d="M17.333 84.7051C17.333 86.3138 17.6499 87.9067 18.2655 89.393C18.8811 90.8792 19.7834 92.2296 20.9209 93.3671C22.0585 94.5047 23.4089 95.407 24.8951 96.0226C26.3814 96.6382 27.9743 96.9551 29.583 96.9551C31.1917 96.9551 32.7846 96.6382 34.2709 96.0226C35.7571 95.407 37.1075 94.5047 38.2451 93.3671C39.3826 92.2296 40.2849 90.8792 40.9005 89.393C41.5161 87.9067 41.833 86.3138 41.833 84.7051C41.833 81.4562 40.5424 78.3403 38.2451 76.043C35.9477 73.7457 32.8319 72.4551 29.583 72.4551C26.3341 72.4551 23.2183 73.7457 20.9209 76.043C18.6236 78.3403 17.333 81.4562 17.333 84.7051Z" stroke="white" stroke-linecap="round" stroke-linejoin="round"/>
</svg>
