<svg width="100" height="100" viewBox="0 0 100 100" fill="none" xmlns="http://www.w3.org/2000/svg">
<path d="M73.0991 71.054C77.6675 66.4854 80.7785 60.6647 82.0388 54.3281C83.2991 47.9914 82.6521 41.4233 80.1796 35.4543C77.7071 29.4854 73.5201 24.3837 68.1481 20.7943C62.7762 17.2049 56.4605 15.2891 49.9997 15.2891C43.5389 15.2891 37.2232 17.2049 31.8512 20.7943C26.4793 24.3837 22.2923 29.4854 19.8198 35.4543C17.3473 41.4233 16.7003 47.9914 17.9606 54.3281C19.2209 60.6647 22.3319 66.4854 26.9003 71.054" stroke="white" stroke-linecap="round" stroke-linejoin="round"/>
<path d="M81.7599 79.7154C88.0418 73.4337 92.3199 65.4304 94.0532 56.7173C95.7864 48.0043 94.8971 38.9729 91.4975 30.7654C88.0979 22.5578 82.3408 15.5427 74.9543 10.6071C67.5677 5.67148 58.8835 3.03711 49.9997 3.03711C41.1159 3.03711 32.4317 5.67148 25.0451 10.6071C17.6586 15.5427 11.9015 22.5578 8.50191 30.7654C5.10234 38.9729 4.21295 48.0043 5.94624 56.7173C7.67952 65.4304 11.9576 73.4337 18.2395 79.7154" stroke="white" stroke-linecap="round" stroke-linejoin="round"/>
<path d="M67.0558 59.1874C69.0811 56.109 70.2356 52.5399 70.3968 48.8585C70.558 45.1771 69.7198 41.5208 67.9712 38.2772C66.2226 35.0336 63.6288 32.3237 60.4648 30.4349C57.3008 28.5461 53.6846 27.5488 49.9997 27.5488C46.3148 27.5488 42.6986 28.5461 39.5346 30.4349C36.3706 32.3237 33.7767 35.0336 32.0281 38.2772C30.2795 41.5208 29.4414 45.1771 29.6026 48.8585C29.7637 52.5399 30.9182 56.109 32.9436 59.1874" stroke="white" stroke-linecap="round" stroke-linejoin="round"/>
<path d="M41.833 45.9128C41.833 48.0787 42.6934 50.1559 44.225 51.6875C45.7565 53.219 47.8337 54.0794 49.9997 54.0794C52.1656 54.0794 54.2428 53.219 55.7744 51.6875C57.3059 50.1559 58.1663 48.0787 58.1663 45.9128C58.1663 43.7468 57.3059 41.6696 55.7744 40.1381C54.2428 38.6065 52.1656 37.7461 49.9997 37.7461C47.8337 37.7461 45.7565 38.6065 44.225 40.1381C42.6934 41.6696 41.833 43.7468 41.833 45.9128Z" stroke="white" stroke-linecap="round" stroke-linejoin="round"/>
<path d="M50 58.166C46.7511 58.166 43.6353 59.4566 41.3379 61.754C39.0406 64.0513 37.75 67.1671 37.75 70.416V82.666H43.875L44.8877 96.9577H55.096L56.125 82.666H62.25V70.416C62.25 67.1671 60.9594 64.0513 58.6621 61.754C56.3647 59.4566 53.2489 58.166 50 58.166Z" stroke="white" stroke-linecap="round" stroke-linejoin="round"/>
</svg>
