<svg width="100" height="100" viewBox="0 0 100 100" fill="none" xmlns="http://www.w3.org/2000/svg">
<path d="M69.2893 37.1871C69.628 37.3568 69.9128 37.6174 70.1119 37.9397C70.3109 38.2621 70.4163 38.6335 70.4163 39.0123V60.9888C70.4163 61.3676 70.3109 61.739 70.1119 62.0614C69.9128 62.3837 69.628 62.6443 69.2893 62.814L50.9143 72.0015C50.6304 72.1438 50.3172 72.2179 49.9997 72.2179C49.6821 72.2179 49.3689 72.1438 49.085 72.0015L30.71 62.814C30.3713 62.6443 30.0865 62.3837 29.8875 62.0614C29.6884 61.739 29.583 61.3676 29.583 60.9888V39.0123C29.583 38.6335 29.6884 38.2621 29.8875 37.9397C30.0865 37.6174 30.3713 37.3568 30.71 37.1871L49.085 27.9996C49.3689 27.8573 49.6821 27.7832 49.9997 27.7832C50.3172 27.7832 50.6304 27.8573 50.9143 27.9996L69.2893 37.1871Z" stroke="white" stroke-linecap="round" stroke-linejoin="round"/>
<path d="M70.0941 37.9141L50 47.9591" stroke="white" stroke-linecap="round" stroke-linejoin="round"/>
<path d="M50.0003 47.9591L29.9062 37.9141" stroke="white" stroke-linecap="round" stroke-linejoin="round"/>
<path d="M50 47.959V72.2181" stroke="white" stroke-linecap="round" stroke-linejoin="round"/>
<path d="M13.2497 33.666L5.08301 43.8743L13.2497 54.0827" stroke="white" stroke-linecap="round" stroke-linejoin="round"/>
<path d="M21.4163 43.875H5.08301" stroke="white" stroke-linecap="round" stroke-linejoin="round"/>
<path d="M39.792 88.791L50.0003 96.9577L60.2087 88.791" stroke="white" stroke-linecap="round" stroke-linejoin="round"/>
<path d="M50 80.625V96.9583" stroke="white" stroke-linecap="round" stroke-linejoin="round"/>
<path d="M39.792 11.2077L50.0003 3.04102L60.2087 11.2077" stroke="white" stroke-linecap="round" stroke-linejoin="round"/>
<path d="M50 19.3743V3.04102" stroke="white" stroke-linecap="round" stroke-linejoin="round"/>
<path d="M86.75 33.666L94.9167 43.8743L86.75 54.0827" stroke="white" stroke-linecap="round" stroke-linejoin="round"/>
<path d="M78.583 43.875H94.9163" stroke="white" stroke-linecap="round" stroke-linejoin="round"/>
</svg>
