<svg width="100" height="100" viewBox="0 0 100 100" fill="none" xmlns="http://www.w3.org/2000/svg">
<path d="M19.375 50.0039C19.375 54.0256 20.1671 58.008 21.7062 61.7236C23.2452 65.4392 25.5011 68.8153 28.3449 71.659C31.1886 74.5028 34.5647 76.7587 38.2803 78.2977C41.9959 79.8368 45.9783 80.6289 50 80.6289C54.0217 80.6289 58.0041 79.8368 61.7197 78.2977C65.4353 76.7587 68.8113 74.5028 71.6551 71.659C74.4989 68.8153 76.7548 65.4392 78.2938 61.7236C79.8329 58.008 80.625 54.0256 80.625 50.0039C80.625 41.8816 77.3984 34.0921 71.6551 28.3488C65.9118 22.6055 58.1223 19.3789 50 19.3789C41.8777 19.3789 34.0882 22.6055 28.3449 28.3488C22.6016 34.0921 19.375 41.8816 19.375 50.0039Z" stroke="white" stroke-linecap="round" stroke-linejoin="round"/>
<path d="M22.3558 82.7769C16.849 78.1318 12.6014 72.174 10.0054 65.4537C7.40935 58.7333 6.54858 51.4672 7.50259 44.3263C8.45659 37.1855 11.1946 30.4001 15.4637 24.597C19.7329 18.7938 25.3955 14.16 31.9286 11.1235C38.4617 8.08692 45.6546 6.74556 52.8431 7.22328C60.0315 7.70101 66.9837 9.9824 73.0575 13.8568C79.1314 17.7311 84.131 23.0736 87.5946 29.3906C91.0583 35.7076 92.8743 42.7956 92.875 49.9999" stroke="white" stroke-linecap="round" stroke-linejoin="round"/>
<path d="M96.9587 50.0039H88.792" stroke="white" stroke-linecap="round" stroke-linejoin="round"/>
<path d="M25.5 78.5879L19.375 86.7546" stroke="white" stroke-linecap="round" stroke-linejoin="round"/>
<path d="M52.042 34.6921C52.042 36.0458 52.5798 37.344 53.537 38.3012C54.4942 39.2585 55.7924 39.7962 57.1462 39.7962C58.4999 39.7962 59.7981 39.2585 60.7553 38.3012C61.7126 37.344 62.2503 36.0458 62.2503 34.6921C62.2503 33.3383 61.7126 32.0401 60.7553 31.0829C59.7981 30.1256 58.4999 29.5879 57.1462 29.5879C55.7924 29.5879 54.4942 30.1256 53.537 31.0829C52.5798 32.0401 52.042 33.3383 52.042 34.6921Z" stroke="white" stroke-width="2" stroke-linecap="round" stroke-linejoin="round"/>
</svg>
