<svg width="808" height="513" viewBox="0 0 808 513" fill="none" xmlns="http://www.w3.org/2000/svg">
<path d="M317 463H234.973C212.892 463 194.988 445.108 194.973 423.028L194.894 309.972C194.879 287.892 176.975 270 154.894 270H131.001C108.91 270 91.001 287.909 91.001 310" stroke="white" stroke-linecap="round"/>
<circle cx="327" cy="463" r="9.5" stroke="white" stroke-linecap="round"/>
<path d="M554.997 385.367V414.655" stroke="black" stroke-width="2" stroke-linecap="round" stroke-linejoin="round" stroke-dasharray="8 11"/>
<path d="M406.998 463.367V492.655" stroke="black" stroke-width="2" stroke-linecap="round" stroke-linejoin="round" stroke-dasharray="8 11"/>
<path d="M409.998 309.367V338.655" stroke="black" stroke-width="2" stroke-linecap="round" stroke-linejoin="round" stroke-dasharray="8 11"/>
<path d="M263.078 379.656V409.656" stroke="black" stroke-width="2" stroke-linecap="round" stroke-linejoin="round" stroke-dasharray="8 11"/>
<path d="M388.64 352.016C402.962 345.998 419.069 346.308 433.149 352.871C464.29 367.387 520.351 393.91 547.468 409.161C557.72 415.567 557.437 430.592 546.952 436.608C522.255 449.279 461.736 479.185 428.806 495.419C414.85 502.299 398.489 501.973 384.82 494.54C353.029 477.254 295.017 445.643 270.521 431.866C260.269 425.46 260.552 410.435 271.038 404.419C299.059 390.042 356.742 365.418 388.64 352.016Z" stroke="black" stroke-width="2" stroke-linecap="round" stroke-linejoin="round" stroke-dasharray="8 11"/>
<path d="M388.64 306.016C402.962 299.998 419.069 300.308 433.149 306.871C464.29 321.387 520.351 347.91 547.468 363.161C557.72 369.567 557.437 384.592 546.952 390.608C522.255 403.279 461.736 433.185 428.806 449.419C414.85 456.299 398.489 455.973 384.82 448.54C353.029 431.254 295.017 399.643 270.521 385.866C260.269 379.46 260.552 364.435 271.038 358.419C299.059 344.042 356.742 319.418 388.64 306.016Z" stroke="black" stroke-width="2" stroke-linecap="round" stroke-linejoin="round" stroke-dasharray="8 11"/>
<path d="M409.907 237.265C411.832 236.538 413.954 236.639 415.784 237.512C416.117 237.671 416.444 237.848 416.784 238.033C417.12 238.216 417.47 238.408 417.832 238.58L499.252 277.415C499.585 277.574 499.912 277.751 500.252 277.937C500.588 278.12 500.938 278.311 501.3 278.483C501.368 278.516 501.436 278.548 501.505 278.578L550.127 300.188C551.638 300.859 552.892 300.195 553.705 299.656L554.302 299.25C554.356 299.214 554.406 299.183 554.452 299.156C554.471 299.283 554.486 299.467 554.486 299.73V299.734L554.581 314.766C554.581 315.558 554.506 316.345 554.448 317.175C554.107 322.039 551.517 326.755 546.705 329.517C522.907 341.726 465.893 369.917 432.311 386.478C416.176 394.434 397.216 394.059 381.413 385.463C349.011 367.839 294.365 338.047 270.776 324.78C265.522 321.492 263.128 315.868 263.547 310.432C263.581 309.995 263.581 309.558 263.581 309.145V296.343C263.581 295.479 263.751 294.908 264.003 294.484C264.258 294.056 264.623 293.735 265.094 293.408C266.014 292.77 267.385 292.113 268.465 290.583C268.843 290.048 269.289 289.565 269.79 289.147C270.436 288.609 271.242 288.272 272.118 287.958L344.51 262.054C344.924 261.906 345.324 261.732 345.709 261.563C346.099 261.393 346.471 261.229 346.851 261.086L409.907 237.265Z" fill="#CDCDCD" stroke="white" stroke-linecap="round"/>
<path d="M391.077 229.3C403.778 223.738 418.243 224.016 430.722 230.06C461.924 245.171 521.514 274.087 547.223 286.941C557.13 293.151 556.854 307.68 546.717 313.51C521.282 326.559 460.591 356.675 428.154 372.735C414.937 379.279 399.392 378.996 386.423 371.974C354.566 354.726 295.011 322.41 270.776 308.779C260.861 302.574 261.131 288.039 271.268 282.206C297.889 270.163 359.138 243.288 391.077 229.3Z" fill="white" stroke="white" stroke-linecap="round"/>
<path d="M409.906 60.9678C411.831 60.2408 413.953 60.3425 415.783 61.2148C416.116 61.3737 416.443 61.5509 416.783 61.7363C417.119 61.9196 417.469 62.1107 417.831 62.2832L499.251 101.118C499.584 101.277 499.911 101.454 500.251 101.64C500.587 101.823 500.937 102.014 501.299 102.187C501.367 102.219 501.435 102.251 501.504 102.281L550.126 123.891C551.835 124.65 553.219 123.767 554 123.292C554.187 123.178 554.326 123.097 554.438 123.044C554.464 123.176 554.485 123.385 554.485 123.704V123.707L554.58 138.469C554.58 139.261 554.505 140.048 554.447 140.878C554.106 145.742 551.516 150.458 546.704 153.22C522.906 165.429 465.892 193.62 432.31 210.181C416.175 218.137 397.215 217.762 381.412 209.166C349.01 191.542 294.364 161.75 270.775 148.483C265.521 145.195 263.127 139.571 263.546 134.135C263.58 133.698 263.58 133.262 263.58 132.848V119.539C263.58 118.796 263.957 118.109 264.594 117.429C265.233 116.746 266.075 116.132 266.906 115.524C267.43 115.141 267.891 114.699 268.323 114.265C268.764 113.823 269.166 113.399 269.605 113.008C269.666 112.954 269.727 112.902 269.789 112.851C270.435 112.312 271.241 111.975 272.117 111.661L344.509 85.7568C344.923 85.6087 345.323 85.4347 345.708 85.2666C346.098 85.0964 346.471 84.9323 346.85 84.7891L409.906 60.9678Z" fill="#27272A" stroke="white" stroke-linecap="round"/>
<path d="M405.74 48.0244C405.783 48.5354 406.203 48.9265 406.706 48.9414L406.809 48.9395C409.644 48.7354 412.492 48.7899 415.317 49.1025C415.863 49.1629 416.354 48.7726 416.42 48.2295C419.698 48.6618 422.941 49.4348 426.096 50.5488C425.908 51.0629 426.169 51.6334 426.683 51.8271C428.006 52.3258 429.313 52.8865 430.598 53.5088C431.728 54.0562 432.896 54.6218 434.098 55.2041C434.594 55.4445 435.19 55.2376 435.432 54.7422C437.919 55.9475 440.547 57.2213 443.289 58.5508C443.05 59.0472 443.259 59.6442 443.755 59.8848C446.025 60.9852 448.37 62.1226 450.776 63.29C451.273 63.5307 451.869 63.3235 452.11 62.8281C454.663 64.0667 457.284 65.3359 459.953 66.6318H459.954C459.713 67.1287 459.92 67.7275 460.417 67.9688C462.725 69.0891 465.068 70.2271 467.437 71.3779C467.933 71.6192 468.531 71.4123 468.772 70.916C471.365 72.1756 473.986 73.4485 476.622 74.7305V74.7314C476.381 75.2279 476.588 75.8258 477.084 76.0674C479.415 77.2012 481.758 78.3409 484.101 79.4814C484.597 79.7229 485.194 79.517 485.437 79.0215C488.056 80.2968 490.676 81.5722 493.283 82.8428C493.042 83.3391 493.249 83.9378 493.745 84.1797C496.098 85.3264 498.438 86.4677 500.758 87.5996C501.254 87.8416 501.851 87.6361 502.094 87.1406C504.741 88.4329 507.36 89.7113 509.934 90.9697C509.692 91.4656 509.898 92.064 510.394 92.3066C512.774 93.4705 515.114 94.6165 517.404 95.7383C517.899 95.9809 518.496 95.7764 518.74 95.2822C521.432 96.6011 524.05 97.8847 526.576 99.126C526.334 99.6213 526.538 100.22 527.033 100.464C529.462 101.658 531.802 102.809 534.035 103.911C534.53 104.155 535.129 103.952 535.373 103.457C538.167 104.836 540.786 106.133 543.196 107.33C542.951 107.824 543.153 108.425 543.647 108.671C544.844 109.266 545.985 109.834 547.066 110.375C548.007 110.966 548.851 111.633 549.599 112.359C549.987 112.737 550.602 112.734 550.988 112.361C552.736 114.289 553.923 116.556 554.552 118.945C554.027 119.066 553.69 119.582 553.795 120.113C554.217 122.251 554.175 124.466 553.673 126.586C553.548 127.113 553.866 127.64 554.385 127.78C553.667 130.145 552.396 132.365 550.577 134.226C550.228 133.863 549.668 133.818 549.268 134.111L549.188 134.176C548.409 134.878 547.534 135.516 546.565 136.073L543.201 137.795C542.71 138.046 542.514 138.647 542.764 139.139C540.421 140.332 537.87 141.626 535.144 143.005C534.909 142.544 534.367 142.342 533.895 142.523L533.802 142.565L526.954 146.019C526.462 146.267 526.263 146.866 526.51 147.359C524.055 148.594 521.509 149.874 518.888 151.189C518.655 150.728 518.114 150.524 517.641 150.704L517.547 150.745L510.695 154.178C510.202 154.425 510.001 155.025 510.247 155.519C507.741 156.772 505.189 158.046 502.604 159.337C502.372 158.876 501.832 158.673 501.359 158.852L501.266 158.893L494.412 162.312C493.918 162.559 493.716 163.159 493.962 163.653C491.427 164.917 488.876 166.188 486.319 167.461C486.088 166.999 485.547 166.794 485.073 166.973L484.979 167.014L478.119 170.429C477.625 170.675 477.424 171.274 477.669 171.769C475.109 173.042 472.557 174.309 470.025 175.567C469.794 175.106 469.254 174.9 468.78 175.078L468.687 175.119C466.378 176.267 464.086 177.405 461.821 178.529C461.327 178.775 461.125 179.375 461.37 179.869C458.779 181.156 456.224 182.422 453.72 183.665C453.474 183.172 452.875 182.971 452.381 183.216L445.519 186.62C445.024 186.865 444.821 187.464 445.065 187.959C442.429 189.266 439.874 190.532 437.421 191.748C437.175 191.254 436.576 191.052 436.081 191.297L432.653 192.996C431.825 193.406 430.99 193.793 430.147 194.159L429.304 194.518C428.797 194.728 428.555 195.306 428.759 195.813C426.167 196.834 423.519 197.654 420.837 198.271C420.718 197.737 420.191 197.397 419.654 197.511C417.248 198.02 414.816 198.365 412.376 198.546C411.828 198.587 411.417 199.061 411.452 199.607C408.688 199.763 405.916 199.712 403.159 199.456C403.215 198.911 402.821 198.422 402.275 198.361C399.843 198.091 397.425 197.658 395.039 197.062C394.507 196.929 393.967 197.249 393.829 197.779C391.172 197.064 388.556 196.148 386.003 195.033C386.225 194.533 386.004 193.947 385.506 193.719L384.676 193.33C383.848 192.934 383.027 192.515 382.215 192.075L378.869 190.264L378.777 190.219C378.31 190.024 377.761 190.21 377.514 190.665C375.123 189.37 372.635 188.021 370.067 186.629C370.33 186.144 370.15 185.538 369.665 185.274L362.97 181.643C362.485 181.38 361.878 181.559 361.614 182.043C359.174 180.719 356.685 179.369 354.161 177.998C354.424 177.513 354.245 176.906 353.76 176.643L347.065 173.006L346.973 172.962C346.506 172.766 345.958 172.952 345.71 173.405C343.243 172.064 340.756 170.714 338.263 169.357H338.264C338.527 168.872 338.348 168.265 337.863 168.001L331.172 164.358C330.688 164.095 330.081 164.273 329.816 164.756C327.326 163.399 324.84 162.046 322.372 160.7C322.636 160.215 322.457 159.608 321.973 159.344C319.727 158.119 317.496 156.902 315.29 155.696L315.198 155.651C314.732 155.455 314.184 155.639 313.935 156.091C311.416 154.715 308.929 153.358 306.489 152.022C306.754 151.538 306.577 150.931 306.093 150.666L299.412 147.004C298.928 146.739 298.321 146.915 298.055 147.398C295.501 145.997 293.023 144.634 290.637 143.32C290.902 142.837 290.726 142.23 290.243 141.964C287.921 140.684 285.69 139.453 283.567 138.278L283.476 138.233C283.01 138.034 282.46 138.216 282.209 138.668C279.546 137.194 277.061 135.814 274.79 134.547C275.059 134.065 274.886 133.456 274.404 133.187C273.253 132.543 272.161 131.932 271.133 131.354C270.183 130.759 269.332 130.087 268.578 129.354C268.19 128.977 267.574 128.979 267.188 129.353C265.44 127.425 264.253 125.158 263.625 122.768C264.149 122.647 264.487 122.133 264.382 121.602L264.309 121.2C263.99 119.322 264.026 117.392 264.415 115.527L264.504 115.129C264.629 114.602 264.311 114.073 263.791 113.934C264.509 111.569 265.779 109.348 267.599 107.487C267.971 107.876 268.586 107.901 268.988 107.538C269.762 106.841 270.629 106.208 271.589 105.653L275.112 104.063C275.615 103.837 275.839 103.246 275.613 102.742C278.1 101.624 280.801 100.414 283.68 99.1289C283.891 99.6015 284.424 99.8296 284.905 99.6709L285.001 99.6338L292.202 96.4258C292.706 96.2014 292.933 95.6118 292.709 95.1074C295.314 93.9493 298.015 92.7523 300.789 91.5225C301 91.9944 301.531 92.2237 302.012 92.0664L302.107 92.0293L309.317 88.8379C309.822 88.6147 310.049 88.0253 309.827 87.5205C312.481 86.3469 315.18 85.155 317.909 83.9502C318.133 84.454 318.722 84.6817 319.227 84.459L326.439 81.2773C326.944 81.0545 327.173 80.465 326.951 79.96C329.638 78.7754 332.338 77.5861 335.038 76.3975C335.261 76.9024 335.851 77.1306 336.356 76.9082L343.571 73.7344C344.077 73.512 344.306 72.9215 344.084 72.416C346.801 71.2208 349.503 70.0342 352.175 68.8604C352.397 69.3652 352.987 69.5941 353.492 69.3721L360.71 66.2021C361.216 65.9801 361.446 65.3904 361.224 64.8848C363.976 63.6764 366.677 62.4931 369.308 61.3389C369.516 61.8118 370.047 62.0432 370.528 61.8877L370.624 61.8516L377.844 58.6855C378.348 58.4642 378.578 57.8762 378.358 57.3711C381.187 56.1312 383.895 54.9429 386.457 53.8203C386.665 54.2935 387.196 54.5256 387.678 54.3701L387.773 54.333L391.371 52.7578C392.352 52.3282 393.343 51.9334 394.344 51.5742L395.348 51.2266C395.868 51.0526 396.15 50.4927 395.981 49.9717C399.176 48.979 402.447 48.3308 405.74 48.0244Z" fill="#27272A" stroke="white" stroke-width="2" stroke-linecap="round" stroke-linejoin="round" stroke-dasharray="8 11"/>
<path d="M409.906 28.9678C411.831 28.2408 413.953 28.3425 415.783 29.2148C416.116 29.3737 416.443 29.5509 416.783 29.7363C417.119 29.9196 417.469 30.1107 417.831 30.2832L499.251 69.1182C499.584 69.2771 499.911 69.4542 500.251 69.6396C500.587 69.8229 500.937 70.0141 501.299 70.1865C501.367 70.2189 501.435 70.2507 501.504 70.2812L550.126 91.8906C551.835 92.6502 553.219 91.7668 554 91.292C554.187 91.1781 554.326 91.097 554.438 91.0439C554.464 91.1761 554.485 91.3852 554.485 91.7041V91.707L554.58 106.469C554.58 107.261 554.505 108.048 554.447 108.878C554.106 113.742 551.516 118.458 546.704 121.22C522.906 133.429 465.892 161.62 432.31 178.181C416.175 186.137 397.215 185.762 381.412 177.166C349.01 159.542 294.364 129.75 270.775 116.483C265.521 113.195 263.127 107.571 263.546 102.135C263.58 101.698 263.58 101.262 263.58 100.848V87.5391C263.58 86.7958 263.957 86.1087 264.594 85.4287C265.233 84.7464 266.075 84.1324 266.906 83.5244C267.43 83.1413 267.891 82.6986 268.323 82.2646C268.764 81.8227 269.166 81.3991 269.605 81.0078C269.666 80.9543 269.727 80.9021 269.789 80.8506C270.435 80.3117 271.241 79.9747 272.117 79.6611L344.509 53.7568C344.923 53.6087 345.323 53.4347 345.708 53.2666C346.098 53.0964 346.471 52.9323 346.85 52.7891L409.906 28.9678Z" fill="#27272A" stroke="white" stroke-linecap="round"/>
<path d="M391.171 20.2998C403.871 14.7376 418.337 15.0159 430.815 21.0596C462.017 36.1712 521.608 65.0874 547.316 77.9414C557.223 84.1514 556.948 98.6802 546.811 104.51C522.54 116.962 466.169 144.952 432.875 161.443C416.754 169.428 397.795 169.083 381.977 160.516C349.284 142.808 293.996 112.786 270.87 99.7793C260.955 93.5736 261.225 79.0392 271.361 73.2061C297.983 61.1634 359.231 34.2879 391.171 20.2998Z" fill="black" stroke="white" stroke-linecap="round"/>
<path d="M288 33H187C173.745 33 163 43.7452 163 57V195" stroke="black" stroke-width="2" stroke-linecap="round" stroke-linejoin="round" stroke-dasharray="8 11"/>
<path d="M273 18L289 33L273 48" stroke="black" stroke-width="2" stroke-linecap="round" stroke-linejoin="round" stroke-dasharray="8 11"/>
<path d="M287 270H157" stroke="white" stroke-linecap="round"/>
<circle cx="297.5" cy="270.5" r="13.5" fill="black" stroke="white" stroke-width="2" stroke-linecap="round" stroke-linejoin="round"/>
<path d="M478 299H659C672.255 299 683 309.745 683 323V351.5" stroke="url(#paint0_linear_2209_21892)" stroke-width="2" stroke-linecap="round" stroke-linejoin="round"/>
<circle cx="8" cy="8" r="8" transform="matrix(-1 0 0 1 478 291)" stroke="black" stroke-width="2" stroke-linecap="round" stroke-linejoin="round"/>
<path d="M475 90H558.5C580.591 90 598.5 107.909 598.5 130V197C598.5 219.091 616.409 237 638.5 237H670.5C692.591 237 710.5 219.091 710.5 197V167" stroke="white" stroke-linecap="round"/>
<circle cx="18" cy="18" r="17.5" transform="matrix(-1 0 0 1 475 72)" stroke="white" stroke-linecap="round"/>
<path d="M681.264 81.74C681.264 88.8309 684.081 95.6313 689.094 100.645C694.108 105.659 700.909 108.476 708 108.476C715.091 108.476 721.891 105.659 726.905 100.645C731.919 95.6313 734.736 88.8309 734.736 81.74C734.736 74.6492 731.919 67.8487 726.905 62.8347C721.891 57.8207 715.091 55.0039 708 55.0039C700.909 55.0039 694.108 57.8207 689.094 62.8347C684.081 67.8487 681.264 74.6492 681.264 81.74Z" stroke="white" stroke-linecap="round" stroke-linejoin="round"/>
<path d="M667.005 110.26C667.005 117.35 669.822 124.151 674.836 129.165C679.85 134.179 686.65 136.996 693.741 136.996C700.832 136.996 707.632 134.179 712.646 129.165C717.66 124.151 720.477 117.35 720.477 110.26C720.477 103.169 717.66 96.3683 712.646 91.3543C707.632 86.3403 700.832 83.5234 693.741 83.5234C686.65 83.5234 679.85 86.3403 674.836 91.3543C669.822 96.3683 667.005 103.169 667.005 110.26Z" stroke="white" stroke-linecap="round" stroke-linejoin="round"/>
<path d="M695.523 110.26C695.523 113.771 696.215 117.247 697.559 120.491C698.902 123.735 700.872 126.682 703.354 129.165C705.837 131.648 708.784 133.617 712.028 134.96C715.272 136.304 718.749 136.996 722.26 136.996C725.771 136.996 729.247 136.304 732.491 134.96C735.735 133.617 738.682 131.648 741.165 129.165C743.648 126.682 745.617 123.735 746.96 120.491C748.304 117.247 748.996 113.771 748.996 110.26C748.996 103.169 746.179 96.3683 741.165 91.3543C736.151 86.3403 729.35 83.5234 722.26 83.5234C715.169 83.5234 708.368 86.3403 703.354 91.3543C698.34 96.3683 695.523 103.169 695.523 110.26Z" stroke="white" stroke-linecap="round" stroke-linejoin="round"/>
<path d="M651.639 363.133C681.049 364.309 720.262 386.465 720.262 431.756C720.262 462.146 700.9 475.87 681.049 475.87C664.432 475.87 646.738 466.459 646.738 448.911C646.663 446.638 647.055 444.374 647.891 442.258C648.726 440.143 649.987 438.222 651.595 436.613C653.204 435.005 655.125 433.744 657.24 432.908C659.356 432.073 661.62 431.68 663.893 431.756C666.161 431.702 668.416 432.109 670.521 432.952C672.627 433.795 674.54 435.057 676.144 436.661C677.748 438.265 679.009 440.177 679.852 442.283C680.696 444.389 681.103 446.644 681.049 448.911C680.646 451.801 679.151 454.428 676.872 456.251C674.593 458.074 671.703 458.955 668.795 458.714C656.933 458.714 656.541 441.559 666.344 441.559" stroke="white" stroke-linecap="round" stroke-linejoin="round"/>
<path d="M651.639 363.133H715.36C715.36 363.133 720.262 363.133 720.262 368.034V470.968C720.262 470.968 720.262 475.87 715.36 475.87H651.639C651.639 475.87 646.737 475.87 646.737 470.968V368.034C646.737 368.034 646.737 363.133 651.639 363.133Z" stroke="white" stroke-linecap="round" stroke-linejoin="round"/>
<path d="M720.262 431.754H681.049" stroke="white" stroke-linecap="round" stroke-linejoin="round"/>
<path d="M681.049 431.754V475.868" stroke="white" stroke-linecap="round" stroke-linejoin="round"/>
<path d="M134.915 349.205C135.698 349.988 136.138 351.049 136.138 352.155V424.31C136.138 425.416 135.698 426.477 134.916 427.26C134.133 428.042 133.072 428.482 131.965 428.482H61.0338C59.9272 428.482 58.8659 428.042 58.0834 427.26C57.3009 426.477 56.8613 425.416 56.8613 424.31V336.688C56.8613 335.581 57.3009 334.52 58.0834 333.738C58.8659 332.955 59.9272 332.516 61.0338 332.516H116.498C117.605 332.516 118.666 332.956 119.448 333.738L134.915 349.205Z" stroke="white" stroke-linecap="round" stroke-linejoin="round"/>
<path d="M77.7236 403.45C77.7236 405.664 79.7018 407.786 83.223 409.351C86.7442 410.916 91.52 411.795 96.4997 411.795C101.479 411.795 106.255 410.916 109.776 409.351C113.298 407.786 115.276 405.664 115.276 403.45C115.276 401.237 113.298 399.115 109.776 397.55C106.255 395.985 101.479 395.105 96.4997 395.105C91.52 395.105 86.7442 395.985 83.223 397.55C79.7018 399.115 77.7236 401.237 77.7236 403.45Z" stroke="white" stroke-linecap="round" stroke-linejoin="round"/>
<path d="M79.042 400.371L94.5802 364.112C94.7405 363.736 95.0079 363.415 95.3492 363.19C95.6904 362.964 96.0905 362.844 96.4995 362.844C96.9086 362.844 97.3086 362.964 97.6499 363.19C97.9911 363.415 98.2585 363.736 98.4189 364.112L113.957 400.371" stroke="white" stroke-linecap="round" stroke-linejoin="round"/>
<path d="M124.095 58.2713C124.106 49.2107 120.764 40.4663 114.713 33.7227" stroke="white" stroke-linecap="round" stroke-linejoin="round"/>
<path d="M50.4482 66.4531V78.7274C50.4463 85.9698 52.5801 93.052 56.5826 99.0879C60.5852 105.124 66.2788 109.845 72.9511 112.662" stroke="white" stroke-linecap="round" stroke-linejoin="round"/>
<path d="M105.683 26.3824C100.235 23.2373 94.0731 21.5402 87.7835 21.4528C81.4939 21.3654 75.2868 22.8906 69.754 25.8831C64.2212 28.8755 59.5472 33.2354 56.1777 38.547C52.8082 43.8586 50.8555 49.9448 50.5059 56.2253" stroke="white" stroke-linecap="round" stroke-linejoin="round"/>
<path d="M77.043 35.9475C80.7721 34.2382 84.8701 33.4906 88.9626 33.7731C93.0551 34.0557 97.0115 35.3592 100.47 37.5648C103.929 39.7703 106.78 42.8075 108.763 46.3988C110.746 49.99 111.797 54.0209 111.82 58.1231" stroke="white" stroke-linecap="round" stroke-linejoin="round"/>
<path d="M93.2898 102.537C89.6673 103.448 85.885 103.52 82.2303 102.75C78.5755 101.979 75.1444 100.386 72.1977 98.0908C69.2509 95.7957 66.8661 92.8591 65.2243 89.5042C63.5825 86.1493 62.727 82.4643 62.7227 78.7292V58.272C62.714 52.2319 64.9409 46.4022 68.9744 41.9062" stroke="white" stroke-linecap="round" stroke-linejoin="round"/>
<path d="M99.5457 68.6054V58.2704C99.5457 55.0151 98.2525 51.893 95.9506 49.5912C93.6487 47.2893 90.5267 45.9961 87.2714 45.9961C84.016 45.9961 80.894 47.2893 78.5921 49.5912C76.2903 51.893 74.9971 55.0151 74.9971 58.2704V70.5447" stroke="white" stroke-linecap="round" stroke-linejoin="round"/>
<path d="M74.9971 78.7305C74.9971 81.9858 76.2903 85.1078 78.5921 87.4097C80.894 89.7116 84.016 91.0048 87.2714 91.0048" stroke="white" stroke-linecap="round" stroke-linejoin="round"/>
<path d="M87.2715 58.2695V70.5438" stroke="white" stroke-linecap="round" stroke-linejoin="round"/>
<path d="M87.2715 78.7305V82.8219" stroke="white" stroke-linecap="round" stroke-linejoin="round"/>
<path d="M87.2715 115.551C90.7644 115.554 94.24 115.06 97.5942 114.086" stroke="white" stroke-linecap="round" stroke-linejoin="round"/>
<path d="M99.5459 89.0809C99.5459 93.9954 101.498 98.7086 104.973 102.184C108.448 105.659 113.162 107.611 118.076 107.611C122.99 107.611 127.704 105.659 131.179 102.184C134.654 98.7086 136.606 93.9954 136.606 89.0809C136.606 84.1664 134.654 79.4532 131.179 75.9781C127.704 72.5031 122.99 70.5508 118.076 70.5508C113.162 70.5508 108.448 72.5031 104.973 75.9781C101.498 79.4532 99.5459 84.1664 99.5459 89.0809Z" stroke="white" stroke-linecap="round" stroke-linejoin="round"/>
<path d="M144.551 115.55L131.181 102.18" stroke="white" stroke-linecap="round" stroke-linejoin="round"/>
<path d="M206 175H115.5C102.245 175 91.5 164.255 91.5 151V136.5" stroke="url(#paint1_linear_2209_21892)" stroke-width="2" stroke-linecap="round" stroke-linejoin="round"/>
<circle cx="224" cy="175" r="18" stroke="black" stroke-width="2" stroke-linecap="round" stroke-linejoin="round"/>
<path d="M163 194V357C163 370.255 173.745 381 187 381H237" stroke="black" stroke-width="2" stroke-linecap="round" stroke-linejoin="round"/>
<path d="M223 366L239 381L223 396" stroke="black" stroke-width="2" stroke-linecap="round" stroke-linejoin="round"/>
<defs>
<linearGradient id="paint0_linear_2209_21892" x1="478" y1="325.25" x2="683" y2="325.25" gradientUnits="userSpaceOnUse">
<stop/>
<stop offset="1" stop-color="white"/>
</linearGradient>
<linearGradient id="paint1_linear_2209_21892" x1="178" y1="194" x2="91.5" y2="155.75" gradientUnits="userSpaceOnUse">
<stop/>
<stop offset="1" stop-color="white"/>
</linearGradient>
</defs>
</svg>
