<svg width="123" height="51" viewBox="0 0 123 51" fill="none" xmlns="http://www.w3.org/2000/svg">
<path fill-rule="evenodd" clip-rule="evenodd" d="M123 26.3511C123 17.6355 118.763 10.7583 110.666 10.7583C102.534 10.7583 97.6142 17.6355 97.6142 26.283C97.6142 36.5307 103.423 41.7056 111.759 41.7056C115.825 41.7056 118.9 40.7864 121.223 39.4927V32.6836C118.9 33.8411 116.235 34.5561 112.852 34.5561C109.538 34.5561 106.6 33.3985 106.224 29.3812H122.932C122.932 28.9386 123 27.1682 123 26.3511ZM106.122 23.1168C106.122 19.2697 108.479 17.6696 110.632 17.6696C112.716 17.6696 114.937 19.2697 114.937 23.1168H106.122Z" fill="#635BFF"/>
<path fill-rule="evenodd" clip-rule="evenodd" d="M84.4258 10.7583C81.0775 10.7583 78.925 12.3244 77.7292 13.4139L77.285 11.3031H69.7683V51L78.31 49.1956L78.3442 39.5607C79.5742 40.4459 81.385 41.7056 84.3917 41.7056C90.5075 41.7056 96.0767 36.8031 96.0767 26.0107C96.0425 16.1375 90.405 10.7583 84.4258 10.7583ZM82.3758 34.2156C80.36 34.2156 79.1642 33.5007 78.3442 32.6155L78.31 19.9846C79.1983 18.9973 80.4283 18.3164 82.3758 18.3164C85.485 18.3164 87.6375 21.7891 87.6375 26.249C87.6375 30.8111 85.5192 34.2156 82.3758 34.2156Z" fill="#635BFF"/>
<path fill-rule="evenodd" clip-rule="evenodd" d="M58.015 8.74967L66.5908 6.91121V0L58.015 1.80441V8.74967Z" fill="#635BFF"/>
<path d="M66.5908 11.3371H58.015V41.1268H66.5908V11.3371Z" fill="#635BFF"/>
<path fill-rule="evenodd" clip-rule="evenodd" d="M48.8242 13.8565L48.2775 11.3371H40.8975V41.1268H49.4392V20.9379C51.455 18.3164 54.8717 18.7931 55.9308 19.1676V11.3371C54.8375 10.9286 50.84 10.1796 48.8242 13.8565Z" fill="#635BFF"/>
<path fill-rule="evenodd" clip-rule="evenodd" d="M31.7408 3.94927L23.4042 5.71963L23.37 32.99C23.37 38.0287 27.1625 41.7397 32.2192 41.7397C35.0208 41.7397 37.0708 41.229 38.1983 40.6162V33.7049C37.105 34.1475 31.7067 35.7136 31.7067 30.6749V18.5888H38.1983V11.3371H31.7067L31.7408 3.94927Z" fill="#635BFF"/>
<path fill-rule="evenodd" clip-rule="evenodd" d="M8.64417 19.9846C8.64417 18.6569 9.7375 18.1462 11.5483 18.1462C14.145 18.1462 17.425 18.9292 20.0217 20.3251V12.3244C17.1858 11.2009 14.3842 10.7583 11.5483 10.7583C4.6125 10.7583 0 14.3672 0 20.3932C0 29.7897 12.9833 28.2917 12.9833 32.3431C12.9833 33.9092 11.6167 34.4199 9.70333 34.4199C6.8675 34.4199 3.24583 33.2624 0.375833 31.6963V39.7991C3.55333 41.1609 6.765 41.7397 9.70333 41.7397C16.81 41.7397 21.6958 38.233 21.6958 32.1389C21.6617 21.9933 8.64417 23.7977 8.64417 19.9846Z" fill="#635BFF"/>
</svg>
