<svg width="126" height="51" viewBox="0 0 126 51" fill="none" xmlns="http://www.w3.org/2000/svg">
<path d="M79.7678 27.0472C74.0425 27.2367 70.4852 28.2802 70.4852 32.0892C70.4852 34.555 72.4316 37.2282 77.3728 37.2282C83.9975 37.2282 87.5338 33.581 87.5338 27.5992L87.5341 26.9412C85.2116 26.9412 82.3474 26.9617 79.7678 27.0472ZM93.8485 34.9504C93.8485 36.8063 93.9016 38.6382 94.0619 40.2879H88.1885C88.0319 38.9295 87.9747 37.5798 87.9747 36.2707C84.7992 40.2132 81.0224 41.3465 75.7827 41.3465C68.0115 41.3465 63.8505 37.1979 63.8505 32.3992C63.8505 25.4492 69.5098 22.9988 79.3346 22.7714C82.0213 22.7095 85.0392 22.7003 87.5341 22.7003L87.5337 22.0212C87.5337 17.3684 84.5798 15.4554 79.4612 15.4554C75.6612 15.4554 72.8606 17.0437 72.572 19.7882H65.9379C66.64 12.9452 73.7582 11.2145 80.0171 11.2145C87.5152 11.2145 93.8484 13.909 93.8484 21.919L93.8485 34.9504Z" fill="#FFBC13"/>
<path d="M25.1542 23.6535C24.9092 17.6878 20.646 15.4554 16.0896 15.4554C11.1763 15.4554 7.2536 17.9666 6.56645 23.6535H25.1542ZM6.43034 27.8945C6.77108 33.6828 10.7231 37.1062 16.1572 37.1062C19.9221 37.1062 23.2712 35.5568 24.3925 32.1862H30.9047C29.6382 39.0252 22.4433 41.3465 16.2506 41.3465C4.99041 41.3465 0 35.0832 0 26.6366C0 17.3383 5.16167 11.2145 16.3533 11.2145C25.2613 11.2145 31.7883 15.9231 31.7883 26.2002V27.8945H6.43034Z" fill="#F12C2D"/>
<path d="M47.9848 36.9851C53.8529 36.9851 57.8683 32.719 57.8683 26.2813C57.8683 19.8442 53.8529 15.5776 47.9848 15.5776C42.1497 15.5776 38.1009 19.8442 38.1009 26.2813C38.1009 32.719 42.1497 36.9851 47.9848 36.9851ZM31.788 0H38.1009L38.1002 16.0193C41.1944 12.2956 45.4572 11.2145 49.6532 11.2145C56.6884 11.2145 64.5024 16.0093 64.5024 26.3622C64.5024 35.0315 58.2879 41.3465 49.536 41.3465C44.955 41.3465 40.6428 39.6867 37.9835 36.3983C37.9835 37.7117 37.9109 39.0356 37.7686 40.2879H31.573C31.6808 38.2632 31.7879 35.7423 31.7879 33.7025L31.788 0Z" fill="#0968F6"/>
<path d="M126 12.2753L106.477 51H99.4076L105.02 40.2471L90.3282 12.2753H97.7151L108.527 34.1299L119.307 12.2753H126Z" fill="#93C822"/>
</svg>
